G04*
G04 #@! TF.GenerationSoftware,Altium Limited,Altium Designer,22.1.2 (22)*
G04*
G04 Layer_Color=65535*
%FSAX44Y44*%
%MOMM*%
G71*
G04*
G04 #@! TF.SameCoordinates,AEE1FB78-7808-4CFB-96B9-68BC2BEC934A*
G04*
G04*
G04 #@! TF.FilePolarity,Positive*
G04*
G01*
G75*
%ADD10C,0.1530*%
%ADD11C,0.2000*%
%ADD12C,0.2540*%
%ADD13C,0.5000*%
G36*
X00499000Y00320000D02*
Y00317000D01*
X00502000Y00320000D01*
X00499000D01*
D02*
G37*
D10*
Y00317000D02*
Y00320000D01*
Y00320000D02*
X00502000D01*
X00499000Y00317000D02*
X00502000Y00320000D01*
X00499000Y00286000D02*
Y00289000D01*
Y00286000D02*
X00502000D01*
X00533000Y00286000D02*
Y00289000D01*
X00530000Y00286000D02*
X00533000D01*
Y00317000D02*
Y00320000D01*
X00530000Y00320000D02*
X00533000D01*
X00152000Y00066000D02*
Y00120000D01*
X00788000D01*
Y00066000D02*
Y00120000D01*
X00152000Y00066000D02*
X00788000D01*
X00925000Y00724000D02*
Y00800000D01*
X00919000Y00724000D02*
X00925000D01*
X00919000Y00800000D02*
X00925000D01*
X00908000Y00779000D02*
X00925000D01*
X00908000Y00745000D02*
Y00779000D01*
Y00745000D02*
X00925000D01*
X00866000Y00724000D02*
X00871000D01*
X00866000Y00800000D02*
X00871000D01*
X00925000Y00020000D02*
Y00096000D01*
X00919000Y00020000D02*
X00925000D01*
X00919000Y00096000D02*
X00925000D01*
X00908000Y00075000D02*
X00925000D01*
X00908000Y00041000D02*
Y00075000D01*
Y00041000D02*
X00925000D01*
X00866000Y00020000D02*
X00871000D01*
X00866000Y00096000D02*
X00871000D01*
X00015000Y00020000D02*
Y00096000D01*
X00021000D01*
X00015000Y00020000D02*
X00021000D01*
X00015000Y00041000D02*
X00032000D01*
Y00075000D01*
X00015000D02*
X00032000D01*
X00069000Y00096000D02*
X00074000D01*
X00069000Y00020000D02*
X00074000D01*
X00015000Y00724000D02*
Y00800000D01*
X00021000D01*
X00015000Y00724000D02*
X00021000D01*
X00015000Y00745000D02*
X00032000D01*
Y00779000D01*
X00015000D02*
X00032000D01*
X00069000Y00800000D02*
X00074000D01*
X00069000Y00724000D02*
X00074000D01*
X00558000Y00627250D02*
Y00659250D01*
X00572000D01*
Y00627250D02*
Y00659250D01*
X00558000Y00627250D02*
X00572000D01*
X00540000Y00627000D02*
Y00659000D01*
X00554000D01*
X00554000Y00627000D01*
X00540000Y00627000D02*
X00554000Y00627000D01*
X00572000Y00613000D02*
Y00627000D01*
X00540000D02*
X00572000D01*
X00540000Y00613000D02*
Y00627000D01*
Y00613000D02*
X00572000D01*
X00526000Y00645000D02*
X00540000D01*
X00526000Y00613000D02*
X00526000Y00645000D01*
X00526000Y00613000D02*
X00540000Y00613000D01*
Y00645000D01*
X00522000Y00586000D02*
X00522000Y00618000D01*
X00508000Y00586000D02*
X00522000D01*
X00508000D02*
Y00618000D01*
X00522000Y00618000D01*
X00508000Y00586000D02*
Y00618000D01*
X00494000Y00586000D02*
X00508000D01*
X00494000D02*
Y00618000D01*
X00508000D01*
X00508000Y00554000D02*
Y00586000D01*
X00522000Y00586000D01*
Y00554000D02*
Y00586000D01*
X00508000Y00554000D02*
X00522000Y00554000D01*
X00494000D02*
Y00586000D01*
X00508000D01*
Y00554000D02*
Y00586000D01*
X00494000Y00554000D02*
X00508000D01*
X00576000Y00570000D02*
X00590000Y00570000D01*
Y00602000D01*
X00576000Y00602000D02*
X00590000Y00602000D01*
X00576000Y00570000D02*
Y00602000D01*
X00590000Y00602000D02*
X00622000Y00602000D01*
Y00588000D02*
Y00602000D01*
X00590000Y00588000D02*
X00622000D01*
X00590000Y00602000D02*
X00590000Y00588000D01*
X00590000Y00584000D02*
X00622000Y00584000D01*
X00622000Y00570000D01*
X00590000D02*
X00622000D01*
X00590000Y00584000D02*
X00590000Y00570000D01*
X00540000Y00545000D02*
Y00559000D01*
Y00545000D02*
X00572000D01*
X00572000Y00559000D02*
X00572000Y00545000D01*
X00540000Y00559000D02*
X00572000D01*
X00526000Y00527000D02*
Y00559000D01*
X00540000Y00559000D01*
X00540000Y00527000D02*
X00540000Y00559000D01*
X00526000Y00527000D02*
X00540000D01*
X00554000Y00513000D02*
Y00545000D01*
X00540000Y00513000D02*
X00554000D01*
X00540000Y00545000D02*
X00540000Y00513000D01*
X00540000Y00545000D02*
X00554000Y00545000D01*
X00572000Y00513000D02*
Y00545000D01*
X00558000Y00513000D02*
X00572000D01*
X00558000Y00545000D02*
X00558000Y00513000D01*
X00558000Y00545000D02*
X00572000Y00545000D01*
X00674000Y00751000D02*
X00674000Y00801000D01*
X00644000D02*
X00674000D01*
X00644000Y00751000D02*
X00644000Y00801000D01*
X00644000Y00751000D02*
X00674000Y00751000D01*
Y00613000D02*
X00674000Y00663000D01*
X00644000D02*
X00674000D01*
X00644000Y00613000D02*
X00644000Y00663000D01*
X00644000Y00613000D02*
X00674000D01*
Y00475000D02*
X00674000Y00525000D01*
X00644000D02*
X00674000D01*
X00644000Y00475000D02*
X00644000Y00525000D01*
X00644000Y00475000D02*
X00674000D01*
X00532000Y00259000D02*
X00532000Y00245000D01*
X00500000Y00259000D02*
X00532000D01*
X00500000D02*
X00500000Y00245000D01*
X00532000D01*
X00548000Y00259000D02*
Y00273000D01*
X00516000Y00273000D02*
X00548000Y00273000D01*
X00516000Y00259000D02*
X00516000Y00273000D01*
X00516000Y00259000D02*
X00548000Y00259000D01*
X00538000Y00287000D02*
X00570000Y00287000D01*
Y00273000D02*
Y00287000D01*
X00538000Y00273000D02*
X00570000D01*
X00538000Y00287000D02*
X00538000Y00273000D01*
X00580000Y00287000D02*
Y00319000D01*
X00566000D02*
X00580000D01*
X00566000Y00287000D02*
X00580000D01*
X00566000D02*
Y00319000D01*
X00552000Y00319000D02*
X00566000Y00319000D01*
X00552000Y00287000D02*
Y00319000D01*
Y00287000D02*
X00566000Y00287000D01*
Y00319000D01*
X00538000D02*
X00552000D01*
X00538000Y00287000D02*
Y00319000D01*
Y00287000D02*
X00552000D01*
Y00319000D01*
X00548000Y00319000D02*
Y00333000D01*
Y00319000D02*
X00580000D01*
Y00333000D01*
X00548000D02*
X00580000D01*
X00508000Y00343000D02*
X00540000D01*
Y00329000D02*
Y00343000D01*
X00508000Y00329000D02*
X00540000D01*
X00508000Y00343000D02*
X00508000Y00329000D01*
X00522000Y00613000D02*
X00576000D01*
X00522000Y00559000D02*
Y00613000D01*
X00576000Y00559000D02*
Y00613000D01*
X00522000Y00559000D02*
X00576000D01*
D11*
X00547337Y00502332D02*
X00545671Y00503998D01*
X00542339D01*
X00540673Y00502332D01*
Y00495668D01*
X00542339Y00494002D01*
X00545671D01*
X00547337Y00495668D01*
X00550669Y00503998D02*
X00557334D01*
Y00502332D01*
X00550669Y00495668D01*
Y00494002D01*
X00560666Y00502332D02*
X00562332Y00503998D01*
X00565664D01*
X00567331Y00502332D01*
Y00495668D01*
X00565664Y00494002D01*
X00562332D01*
X00560666Y00495668D01*
Y00502332D01*
X00577327Y00494002D02*
X00570663D01*
X00577327Y00500666D01*
Y00502332D01*
X00575661Y00503998D01*
X00572329D01*
X00570663Y00502332D01*
X00540002Y00488327D02*
X00549998D01*
Y00483329D01*
X00548332Y00481663D01*
X00545000D01*
X00543334Y00483329D01*
Y00488327D01*
Y00484995D02*
X00540002Y00481663D01*
X00549998Y00478331D02*
Y00471666D01*
X00548332D01*
X00541668Y00478331D01*
X00540002D01*
X00548332Y00468334D02*
X00549998Y00466668D01*
Y00463335D01*
X00548332Y00461669D01*
X00541668D01*
X00540002Y00463335D01*
Y00466668D01*
X00541668Y00468334D01*
X00548332D01*
X00549998Y00451673D02*
X00548332Y00455005D01*
X00545000Y00458337D01*
X00541668D01*
X00540002Y00456671D01*
Y00453339D01*
X00541668Y00451673D01*
X00543334D01*
X00545000Y00453339D01*
Y00458337D01*
X00567002Y00488327D02*
X00576998D01*
Y00483329D01*
X00575332Y00481663D01*
X00572000D01*
X00570334Y00483329D01*
Y00488327D01*
Y00484995D02*
X00567002Y00481663D01*
X00576998Y00478331D02*
Y00471666D01*
X00575332D01*
X00568668Y00478331D01*
X00567002D01*
X00575332Y00468334D02*
X00576998Y00466668D01*
Y00463335D01*
X00575332Y00461669D01*
X00568668D01*
X00567002Y00463335D01*
Y00466668D01*
X00568668Y00468334D01*
X00575332D01*
X00576998Y00451673D02*
Y00458337D01*
X00572000D01*
X00573666Y00455005D01*
Y00453339D01*
X00572000Y00451673D01*
X00568668D01*
X00567002Y00453339D01*
Y00456671D01*
X00568668Y00458337D01*
X00510002Y00545494D02*
X00519999D01*
Y00540496D01*
X00518332Y00538830D01*
X00515000D01*
X00513334Y00540496D01*
Y00545494D01*
Y00542162D02*
X00510002Y00538830D01*
X00519999Y00535498D02*
Y00528833D01*
X00518332D01*
X00511668Y00535498D01*
X00510002D01*
Y00525501D02*
Y00522169D01*
Y00523835D01*
X00519999D01*
X00518332Y00525501D01*
X00510002Y00510506D02*
Y00517170D01*
X00516666Y00510506D01*
X00518332D01*
X00519999Y00512172D01*
Y00515504D01*
X00518332Y00517170D01*
X00496002Y00545494D02*
X00505998D01*
Y00540496D01*
X00504332Y00538830D01*
X00501000D01*
X00499334Y00540496D01*
Y00545494D01*
Y00542162D02*
X00496002Y00538830D01*
X00505998Y00535498D02*
Y00528833D01*
X00504332D01*
X00497668Y00535498D01*
X00496002D01*
Y00525501D02*
Y00522169D01*
Y00523835D01*
X00505998D01*
X00504332Y00525501D01*
Y00517170D02*
X00505998Y00515504D01*
Y00512172D01*
X00504332Y00510506D01*
X00502666D01*
X00501000Y00512172D01*
Y00513838D01*
Y00512172D01*
X00499334Y00510506D01*
X00497668D01*
X00496002Y00512172D01*
Y00515504D01*
X00497668Y00517170D01*
X00144000Y00108000D02*
X00147332D01*
X00145666D01*
Y00117997D01*
X00144000Y00116331D01*
X00798664Y00076997D02*
X00792000D01*
Y00071998D01*
X00795332Y00073664D01*
X00796998D01*
X00798664Y00071998D01*
Y00068666D01*
X00796998Y00067000D01*
X00793666D01*
X00792000Y00068666D01*
X00801997Y00075331D02*
X00803663Y00076997D01*
X00806995D01*
X00808661Y00075331D01*
Y00068666D01*
X00806995Y00067000D01*
X00803663D01*
X00801997Y00068666D01*
Y00075331D01*
X00553673Y00259002D02*
Y00268998D01*
X00558671D01*
X00560337Y00267332D01*
Y00264000D01*
X00558671Y00262334D01*
X00553673D01*
X00557005D02*
X00560337Y00259002D01*
X00563669Y00260668D02*
X00565336Y00259002D01*
X00568668D01*
X00570334Y00260668D01*
Y00267332D01*
X00568668Y00268998D01*
X00565336D01*
X00563669Y00267332D01*
Y00265666D01*
X00565336Y00264000D01*
X00570334D01*
X00573666Y00267332D02*
X00575332Y00268998D01*
X00578665D01*
X00580331Y00267332D01*
Y00260668D01*
X00578665Y00259002D01*
X00575332D01*
X00573666Y00260668D01*
Y00267332D01*
X00590327Y00259002D02*
X00583663D01*
X00590327Y00265666D01*
Y00267332D01*
X00588661Y00268998D01*
X00585329D01*
X00583663Y00267332D01*
X00496002Y00660828D02*
X00505998D01*
Y00655830D01*
X00504332Y00654164D01*
X00501000D01*
X00499334Y00655830D01*
Y00660828D01*
Y00657496D02*
X00496002Y00654164D01*
X00505998Y00650831D02*
Y00644167D01*
X00504332D01*
X00497668Y00650831D01*
X00496002D01*
Y00640835D02*
Y00637502D01*
Y00639169D01*
X00505998D01*
X00504332Y00640835D01*
X00496002Y00627506D02*
X00505998D01*
X00501000Y00632504D01*
Y00625840D01*
X00845674Y00062998D02*
X00852339Y00053002D01*
Y00062998D02*
X00845674Y00053002D01*
X00855671D02*
Y00062998D01*
X00860669D01*
X00862336Y00061332D01*
Y00058000D01*
X00860669Y00056334D01*
X00855671D01*
X00872332Y00053002D02*
X00865668D01*
X00872332Y00059666D01*
Y00061332D01*
X00870666Y00062998D01*
X00867334D01*
X00865668Y00061332D01*
X00875665D02*
X00877331Y00062998D01*
X00880663D01*
X00882329Y00061332D01*
Y00054668D01*
X00880663Y00053002D01*
X00877331D01*
X00875665Y00054668D01*
Y00061332D01*
X00892326Y00062998D02*
X00885661D01*
Y00058000D01*
X00888994Y00059666D01*
X00890660D01*
X00892326Y00058000D01*
Y00054668D01*
X00890660Y00053002D01*
X00887327D01*
X00885661Y00054668D01*
X00845674Y00766998D02*
X00852339Y00757002D01*
Y00766998D02*
X00845674Y00757002D01*
X00855671D02*
Y00766998D01*
X00860669D01*
X00862336Y00765332D01*
Y00762000D01*
X00860669Y00760334D01*
X00855671D01*
X00872332Y00757002D02*
X00865668D01*
X00872332Y00763666D01*
Y00765332D01*
X00870666Y00766998D01*
X00867334D01*
X00865668Y00765332D01*
X00875665D02*
X00877331Y00766998D01*
X00880663D01*
X00882329Y00765332D01*
Y00758668D01*
X00880663Y00757002D01*
X00877331D01*
X00875665Y00758668D01*
Y00765332D01*
X00890660Y00757002D02*
Y00766998D01*
X00885661Y00762000D01*
X00892326D01*
X00047674Y00766998D02*
X00054339Y00757002D01*
Y00766998D02*
X00047674Y00757002D01*
X00057671D02*
Y00766998D01*
X00062669D01*
X00064335Y00765332D01*
Y00762000D01*
X00062669Y00760334D01*
X00057671D01*
X00074332Y00757002D02*
X00067668D01*
X00074332Y00763666D01*
Y00765332D01*
X00072666Y00766998D01*
X00069334D01*
X00067668Y00765332D01*
X00077664D02*
X00079331Y00766998D01*
X00082663D01*
X00084329Y00765332D01*
Y00758668D01*
X00082663Y00757002D01*
X00079331D01*
X00077664Y00758668D01*
Y00765332D01*
X00087661D02*
X00089327Y00766998D01*
X00092660D01*
X00094326Y00765332D01*
Y00763666D01*
X00092660Y00762000D01*
X00090994D01*
X00092660D01*
X00094326Y00760334D01*
Y00758668D01*
X00092660Y00757002D01*
X00089327D01*
X00087661Y00758668D01*
X00047674Y00062998D02*
X00054339Y00053002D01*
Y00062998D02*
X00047674Y00053002D01*
X00057671D02*
Y00062998D01*
X00062669D01*
X00064335Y00061332D01*
Y00058000D01*
X00062669Y00056334D01*
X00057671D01*
X00074332Y00053002D02*
X00067668D01*
X00074332Y00059666D01*
Y00061332D01*
X00072666Y00062998D01*
X00069334D01*
X00067668Y00061332D01*
X00077664D02*
X00079331Y00062998D01*
X00082663D01*
X00084329Y00061332D01*
Y00054668D01*
X00082663Y00053002D01*
X00079331D01*
X00077664Y00054668D01*
Y00061332D01*
X00094326Y00053002D02*
X00087661D01*
X00094326Y00059666D01*
Y00061332D01*
X00092660Y00062998D01*
X00089327D01*
X00087661Y00061332D01*
X00152340Y00061998D02*
X00159005Y00052002D01*
Y00061998D02*
X00152340Y00052002D01*
X00162337D02*
Y00061998D01*
X00167335D01*
X00169002Y00060332D01*
Y00057000D01*
X00167335Y00055334D01*
X00162337D01*
X00178998Y00052002D02*
X00172334D01*
X00178998Y00058666D01*
Y00060332D01*
X00177332Y00061998D01*
X00174000D01*
X00172334Y00060332D01*
X00182331D02*
X00183997Y00061998D01*
X00187329D01*
X00188995Y00060332D01*
Y00053668D01*
X00187329Y00052002D01*
X00183997D01*
X00182331Y00053668D01*
Y00060332D01*
X00192327Y00052002D02*
X00195660D01*
X00193994D01*
Y00061998D01*
X00192327Y00060332D01*
X00474339Y00277998D02*
Y00269668D01*
X00476005Y00268002D01*
X00479337D01*
X00481003Y00269668D01*
Y00277998D01*
X00484336Y00269668D02*
X00486002Y00268002D01*
X00489334D01*
X00491000Y00269668D01*
Y00276332D01*
X00489334Y00277998D01*
X00486002D01*
X00484336Y00276332D01*
Y00274666D01*
X00486002Y00273000D01*
X00491000D01*
X00494332Y00276332D02*
X00495998Y00277998D01*
X00499331D01*
X00500997Y00276332D01*
Y00269668D01*
X00499331Y00268002D01*
X00495998D01*
X00494332Y00269668D01*
Y00276332D01*
X00504329Y00268002D02*
X00507661D01*
X00505995D01*
Y00277998D01*
X00504329Y00276332D01*
X00588339Y00615998D02*
Y00607668D01*
X00590005Y00606002D01*
X00593337D01*
X00595003Y00607668D01*
Y00615998D01*
X00598335D02*
X00605000D01*
Y00614332D01*
X00598335Y00607668D01*
Y00606002D01*
X00608332Y00614332D02*
X00609998Y00615998D01*
X00613331D01*
X00614997Y00614332D01*
Y00607668D01*
X00613331Y00606002D01*
X00609998D01*
X00608332Y00607668D01*
Y00614332D01*
X00618329Y00606002D02*
X00621661D01*
X00619995D01*
Y00615998D01*
X00618329Y00614332D01*
X00507339Y00347002D02*
Y00356998D01*
X00512337D01*
X00514003Y00355332D01*
Y00352000D01*
X00512337Y00350334D01*
X00507339D01*
X00510671D02*
X00514003Y00347002D01*
X00517336Y00348668D02*
X00519002Y00347002D01*
X00522334D01*
X00524000Y00348668D01*
Y00355332D01*
X00522334Y00356998D01*
X00519002D01*
X00517336Y00355332D01*
Y00353666D01*
X00519002Y00352000D01*
X00524000D01*
X00527332Y00355332D02*
X00528998Y00356998D01*
X00532331D01*
X00533997Y00355332D01*
Y00348668D01*
X00532331Y00347002D01*
X00528998D01*
X00527332Y00348668D01*
Y00355332D01*
X00537329Y00347002D02*
X00540661D01*
X00538995D01*
Y00356998D01*
X00537329Y00355332D01*
X00510002Y00660828D02*
X00519998D01*
Y00655830D01*
X00518332Y00654164D01*
X00515000D01*
X00513334Y00655830D01*
Y00660828D01*
Y00657496D02*
X00510002Y00654164D01*
X00519998Y00650831D02*
Y00644167D01*
X00518332D01*
X00511668Y00650831D01*
X00510002D01*
Y00640835D02*
Y00637502D01*
Y00639169D01*
X00519998D01*
X00518332Y00640835D01*
X00510002Y00632504D02*
Y00629172D01*
Y00630838D01*
X00519998D01*
X00518332Y00632504D01*
X00567331Y00713494D02*
X00577327D01*
Y00708496D01*
X00575661Y00706830D01*
X00572329D01*
X00570663Y00708496D01*
Y00713494D01*
Y00710162D02*
X00567331Y00706830D01*
X00577327Y00703498D02*
Y00696833D01*
X00575661D01*
X00568997Y00703498D01*
X00567331D01*
Y00693501D02*
Y00690169D01*
Y00691835D01*
X00577327D01*
X00575661Y00693501D01*
Y00685170D02*
X00577327Y00683504D01*
Y00680172D01*
X00575661Y00678506D01*
X00568997D01*
X00567331Y00680172D01*
Y00683504D01*
X00568997Y00685170D01*
X00575661D01*
X00540673Y00715161D02*
X00550669D01*
Y00710162D01*
X00549003Y00708496D01*
X00545671D01*
X00544005Y00710162D01*
Y00715161D01*
Y00711828D02*
X00540673Y00708496D01*
X00550669Y00705164D02*
Y00698499D01*
X00549003D01*
X00542339Y00705164D01*
X00540673D01*
X00549003Y00695167D02*
X00550669Y00693501D01*
Y00690169D01*
X00549003Y00688502D01*
X00542339D01*
X00540673Y00690169D01*
Y00693501D01*
X00542339Y00695167D01*
X00549003D01*
X00542339Y00685170D02*
X00540673Y00683504D01*
Y00680172D01*
X00542339Y00678506D01*
X00549003D01*
X00550669Y00680172D01*
Y00683504D01*
X00549003Y00685170D01*
X00547337D01*
X00545671Y00683504D01*
Y00678506D01*
X00594673Y00529002D02*
Y00538998D01*
X00599671D01*
X00601337Y00537332D01*
Y00534000D01*
X00599671Y00532334D01*
X00594673D01*
X00598005D02*
X00601337Y00529002D01*
X00604669Y00538998D02*
X00611334D01*
Y00537332D01*
X00604669Y00530668D01*
Y00529002D01*
X00614666Y00537332D02*
X00616332Y00538998D01*
X00619664D01*
X00621331Y00537332D01*
Y00530668D01*
X00619664Y00529002D01*
X00616332D01*
X00614666Y00530668D01*
Y00537332D01*
X00624663D02*
X00626329Y00538998D01*
X00629661D01*
X00631327Y00537332D01*
Y00535666D01*
X00629661Y00534000D01*
X00631327Y00532334D01*
Y00530668D01*
X00629661Y00529002D01*
X00626329D01*
X00624663Y00530668D01*
Y00532334D01*
X00626329Y00534000D01*
X00624663Y00535666D01*
Y00537332D01*
X00626329Y00534000D02*
X00629661D01*
X00594673Y00555002D02*
Y00564998D01*
X00599671D01*
X00601337Y00563332D01*
Y00560000D01*
X00599671Y00558334D01*
X00594673D01*
X00598005D02*
X00601337Y00555002D01*
X00604669Y00564998D02*
X00611334D01*
Y00563332D01*
X00604669Y00556668D01*
Y00555002D01*
X00614666Y00563332D02*
X00616332Y00564998D01*
X00619664D01*
X00621331Y00563332D01*
Y00556668D01*
X00619664Y00555002D01*
X00616332D01*
X00614666Y00556668D01*
Y00563332D01*
X00624663Y00564998D02*
X00631327D01*
Y00563332D01*
X00624663Y00556668D01*
Y00555002D01*
X00526002Y00522327D02*
X00535998D01*
Y00517329D01*
X00534332Y00515663D01*
X00531000D01*
X00529334Y00517329D01*
Y00522327D01*
Y00518995D02*
X00526002Y00515663D01*
X00535998Y00512331D02*
Y00505666D01*
X00534332D01*
X00527668Y00512331D01*
X00526002D01*
X00534332Y00502334D02*
X00535998Y00500668D01*
Y00497336D01*
X00534332Y00495669D01*
X00527668D01*
X00526002Y00497336D01*
Y00500668D01*
X00527668Y00502334D01*
X00534332D01*
X00526002Y00487339D02*
X00535998D01*
X00531000Y00492337D01*
Y00485673D01*
X00639006Y00608998D02*
X00635674D01*
X00637340D01*
Y00600668D01*
X00635674Y00599002D01*
X00634008D01*
X00632342Y00600668D01*
X00642339Y00607332D02*
X00644005Y00608998D01*
X00647337D01*
X00649003Y00607332D01*
Y00605666D01*
X00647337Y00604000D01*
X00649003Y00602334D01*
Y00600668D01*
X00647337Y00599002D01*
X00644005D01*
X00642339Y00600668D01*
Y00602334D01*
X00644005Y00604000D01*
X00642339Y00605666D01*
Y00607332D01*
X00644005Y00604000D02*
X00647337D01*
X00652336Y00607332D02*
X00654002Y00608998D01*
X00657334D01*
X00659000Y00607332D01*
Y00600668D01*
X00657334Y00599002D01*
X00654002D01*
X00652336Y00600668D01*
Y00607332D01*
X00662332Y00599002D02*
X00665665D01*
X00663998D01*
Y00608998D01*
X00662332Y00607332D01*
X00670663Y00599002D02*
Y00600668D01*
X00672329D01*
Y00599002D01*
X00670663D01*
X00678994Y00607332D02*
X00680660Y00608998D01*
X00683992D01*
X00685658Y00607332D01*
Y00605666D01*
X00683992Y00604000D01*
X00682326D01*
X00683992D01*
X00685658Y00602334D01*
Y00600668D01*
X00683992Y00599002D01*
X00680660D01*
X00678994Y00600668D01*
X00639006Y00470998D02*
X00635674D01*
X00637340D01*
Y00462668D01*
X00635674Y00461002D01*
X00634008D01*
X00632342Y00462668D01*
X00642339Y00469332D02*
X00644005Y00470998D01*
X00647337D01*
X00649003Y00469332D01*
Y00467666D01*
X00647337Y00466000D01*
X00649003Y00464334D01*
Y00462668D01*
X00647337Y00461002D01*
X00644005D01*
X00642339Y00462668D01*
Y00464334D01*
X00644005Y00466000D01*
X00642339Y00467666D01*
Y00469332D01*
X00644005Y00466000D02*
X00647337D01*
X00652336Y00469332D02*
X00654002Y00470998D01*
X00657334D01*
X00659000Y00469332D01*
Y00462668D01*
X00657334Y00461002D01*
X00654002D01*
X00652336Y00462668D01*
Y00469332D01*
X00662332Y00461002D02*
X00665665D01*
X00663998D01*
Y00470998D01*
X00662332Y00469332D01*
X00670663Y00461002D02*
Y00462668D01*
X00672329D01*
Y00461002D01*
X00670663D01*
X00685658D02*
X00678994D01*
X00685658Y00467666D01*
Y00469332D01*
X00683992Y00470998D01*
X00680660D01*
X00678994Y00469332D01*
X00638673Y00746998D02*
X00635340D01*
X00637006D01*
Y00738668D01*
X00635340Y00737002D01*
X00633674D01*
X00632008Y00738668D01*
X00642005Y00745332D02*
X00643671Y00746998D01*
X00647003D01*
X00648669Y00745332D01*
Y00743666D01*
X00647003Y00742000D01*
X00648669Y00740334D01*
Y00738668D01*
X00647003Y00737002D01*
X00643671D01*
X00642005Y00738668D01*
Y00740334D01*
X00643671Y00742000D01*
X00642005Y00743666D01*
Y00745332D01*
X00643671Y00742000D02*
X00647003D01*
X00652002Y00745332D02*
X00653668Y00746998D01*
X00657000D01*
X00658666Y00745332D01*
Y00738668D01*
X00657000Y00737002D01*
X00653668D01*
X00652002Y00738668D01*
Y00745332D01*
X00661998Y00737002D02*
X00665331D01*
X00663665D01*
Y00746998D01*
X00661998Y00745332D01*
X00670329Y00737002D02*
Y00738668D01*
X00671995D01*
Y00737002D01*
X00670329D01*
X00678660D02*
X00681992D01*
X00680326D01*
Y00746998D01*
X00678660Y00745332D01*
X00636998Y00312997D02*
Y00319661D01*
X00627002D01*
Y00312997D01*
X00632000Y00319661D02*
Y00316329D01*
X00628668Y00309664D02*
X00627002Y00307998D01*
Y00304666D01*
X00628668Y00303000D01*
X00635332D01*
X00636998Y00304666D01*
Y00307998D01*
X00635332Y00309664D01*
X00633666D01*
X00632000Y00307998D01*
Y00303000D01*
X00635332Y00299668D02*
X00636998Y00298002D01*
Y00294669D01*
X00635332Y00293003D01*
X00628668D01*
X00627002Y00294669D01*
Y00298002D01*
X00628668Y00299668D01*
X00635332D01*
X00627002Y00289671D02*
Y00286339D01*
Y00288005D01*
X00636998D01*
X00635332Y00289671D01*
X00543337Y00252332D02*
X00541671Y00253998D01*
X00538339D01*
X00536673Y00252332D01*
Y00245668D01*
X00538339Y00244002D01*
X00541671D01*
X00543337Y00245668D01*
X00546669D02*
X00548335Y00244002D01*
X00551668D01*
X00553334Y00245668D01*
Y00252332D01*
X00551668Y00253998D01*
X00548335D01*
X00546669Y00252332D01*
Y00250666D01*
X00548335Y00249000D01*
X00553334D01*
X00556666Y00252332D02*
X00558332Y00253998D01*
X00561665D01*
X00563331Y00252332D01*
Y00245668D01*
X00561665Y00244002D01*
X00558332D01*
X00556666Y00245668D01*
Y00252332D01*
X00573327Y00253998D02*
X00566663D01*
Y00249000D01*
X00569995Y00250666D01*
X00571661D01*
X00573327Y00249000D01*
Y00245668D01*
X00571661Y00244002D01*
X00568329D01*
X00566663Y00245668D01*
X00605332Y00314663D02*
X00606998Y00316329D01*
Y00319661D01*
X00605332Y00321327D01*
X00598668D01*
X00597002Y00319661D01*
Y00316329D01*
X00598668Y00314663D01*
Y00311331D02*
X00597002Y00309664D01*
Y00306332D01*
X00598668Y00304666D01*
X00605332D01*
X00606998Y00306332D01*
Y00309664D01*
X00605332Y00311331D01*
X00603666D01*
X00602000Y00309664D01*
Y00304666D01*
X00605332Y00301334D02*
X00606998Y00299668D01*
Y00296336D01*
X00605332Y00294669D01*
X00598668D01*
X00597002Y00296336D01*
Y00299668D01*
X00598668Y00301334D01*
X00605332D01*
X00597002Y00286339D02*
X00606998D01*
X00602000Y00291337D01*
Y00284673D01*
X00506337Y00230332D02*
X00504671Y00231998D01*
X00501339D01*
X00499673Y00230332D01*
Y00223668D01*
X00501339Y00222002D01*
X00504671D01*
X00506337Y00223668D01*
X00509669D02*
X00511335Y00222002D01*
X00514668D01*
X00516334Y00223668D01*
Y00230332D01*
X00514668Y00231998D01*
X00511335D01*
X00509669Y00230332D01*
Y00228666D01*
X00511335Y00227000D01*
X00516334D01*
X00519666Y00230332D02*
X00521332Y00231998D01*
X00524664D01*
X00526331Y00230332D01*
Y00223668D01*
X00524664Y00222002D01*
X00521332D01*
X00519666Y00223668D01*
Y00230332D01*
X00529663D02*
X00531329Y00231998D01*
X00534661D01*
X00536327Y00230332D01*
Y00228666D01*
X00534661Y00227000D01*
X00532995D01*
X00534661D01*
X00536327Y00225334D01*
Y00223668D01*
X00534661Y00222002D01*
X00531329D01*
X00529663Y00223668D01*
X00620332Y00314663D02*
X00621998Y00316329D01*
Y00319661D01*
X00620332Y00321327D01*
X00613668D01*
X00612002Y00319661D01*
Y00316329D01*
X00613668Y00314663D01*
Y00311331D02*
X00612002Y00309664D01*
Y00306332D01*
X00613668Y00304666D01*
X00620332D01*
X00621998Y00306332D01*
Y00309664D01*
X00620332Y00311331D01*
X00618666D01*
X00617000Y00309664D01*
Y00304666D01*
X00620332Y00301334D02*
X00621998Y00299668D01*
Y00296336D01*
X00620332Y00294669D01*
X00613668D01*
X00612002Y00296336D01*
Y00299668D01*
X00613668Y00301334D01*
X00620332D01*
X00612002Y00284673D02*
Y00291337D01*
X00618666Y00284673D01*
X00620332D01*
X00621998Y00286339D01*
Y00289671D01*
X00620332Y00291337D01*
X00554003Y00351332D02*
X00552337Y00352998D01*
X00549005D01*
X00547339Y00351332D01*
Y00344668D01*
X00549005Y00343002D01*
X00552337D01*
X00554003Y00344668D01*
X00557336D02*
X00559002Y00343002D01*
X00562334D01*
X00564000Y00344668D01*
Y00351332D01*
X00562334Y00352998D01*
X00559002D01*
X00557336Y00351332D01*
Y00349666D01*
X00559002Y00348000D01*
X00564000D01*
X00567332Y00351332D02*
X00568998Y00352998D01*
X00572331D01*
X00573997Y00351332D01*
Y00344668D01*
X00572331Y00343002D01*
X00568998D01*
X00567332Y00344668D01*
Y00351332D01*
X00577329Y00343002D02*
X00580661D01*
X00578995D01*
Y00352998D01*
X00577329Y00351332D01*
X00547337Y00672332D02*
X00545671Y00673998D01*
X00542339D01*
X00540673Y00672332D01*
Y00665668D01*
X00542339Y00664002D01*
X00545671D01*
X00547337Y00665668D01*
X00550669Y00673998D02*
X00557334D01*
Y00672332D01*
X00550669Y00665668D01*
Y00664002D01*
X00560666Y00672332D02*
X00562332Y00673998D01*
X00565664D01*
X00567331Y00672332D01*
Y00665668D01*
X00565664Y00664002D01*
X00562332D01*
X00560666Y00665668D01*
Y00672332D01*
X00575661Y00664002D02*
Y00673998D01*
X00570663Y00669000D01*
X00577327D01*
X00588332Y00558663D02*
X00589998Y00560329D01*
Y00563661D01*
X00588332Y00565327D01*
X00581668D01*
X00580002Y00563661D01*
Y00560329D01*
X00581668Y00558663D01*
X00589998Y00555331D02*
Y00548666D01*
X00588332D01*
X00581668Y00555331D01*
X00580002D01*
X00588332Y00545334D02*
X00589998Y00543668D01*
Y00540335D01*
X00588332Y00538669D01*
X00581668D01*
X00580002Y00540335D01*
Y00543668D01*
X00581668Y00545334D01*
X00588332D01*
Y00535337D02*
X00589998Y00533671D01*
Y00530339D01*
X00588332Y00528672D01*
X00586666D01*
X00585000Y00530339D01*
Y00532005D01*
Y00530339D01*
X00583334Y00528672D01*
X00581668D01*
X00580002Y00530339D01*
Y00533671D01*
X00581668Y00535337D01*
X00534332Y00675997D02*
X00535998Y00677663D01*
Y00680995D01*
X00534332Y00682661D01*
X00527668D01*
X00526002Y00680995D01*
Y00677663D01*
X00527668Y00675997D01*
X00535998Y00672664D02*
Y00666000D01*
X00534332D01*
X00527668Y00672664D01*
X00526002D01*
X00534332Y00662668D02*
X00535998Y00661002D01*
Y00657669D01*
X00534332Y00656003D01*
X00527668D01*
X00526002Y00657669D01*
Y00661002D01*
X00527668Y00662668D01*
X00534332D01*
X00526002Y00652671D02*
Y00649339D01*
Y00651005D01*
X00535998D01*
X00534332Y00652671D01*
D12*
X00657540Y00808460D02*
X00660079D01*
Y00805921D01*
X00657540D01*
Y00808460D01*
Y00670460D02*
X00660079D01*
Y00667921D01*
X00657540D01*
Y00670460D01*
Y00532460D02*
X00660079D01*
Y00529921D01*
X00657540D01*
Y00532460D01*
X00579540Y00619460D02*
X00582079D01*
Y00616921D01*
X00579540D01*
Y00619460D01*
D13*
X00622765Y00509998D02*
X00630383Y00500476D01*
Y00490002D01*
X00638000Y00509998D02*
X00630383Y00500476D01*
X00624669Y00785998D02*
X00638000Y00766002D01*
Y00785998D02*
X00624669Y00766002D01*
X00638000Y00647998D02*
X00624669Y00628002D01*
Y00647998D02*
X00638000D01*
X00624669Y00628002D02*
X00638000D01*
M02*
