G04*
G04 #@! TF.GenerationSoftware,Altium Limited,Altium Designer,22.1.2 (22)*
G04*
G04 Layer_Color=8388736*
%FSAX44Y44*%
%MOMM*%
G71*
G04*
G04 #@! TF.SameCoordinates,AEE1FB78-7808-4CFB-96B9-68BC2BEC934A*
G04*
G04*
G04 #@! TF.FilePolarity,Negative*
G04*
G01*
G75*
G04:AMPARAMS|DCode=16|XSize=0.64mm|YSize=0.2mm|CornerRadius=0.05mm|HoleSize=0mm|Usage=FLASHONLY|Rotation=0.000|XOffset=0mm|YOffset=0mm|HoleType=Round|Shape=RoundedRectangle|*
%AMROUNDEDRECTD16*
21,1,0.6400,0.1000,0,0,0.0*
21,1,0.5400,0.2000,0,0,0.0*
1,1,0.1000,0.2700,-0.0500*
1,1,0.1000,-0.2700,-0.0500*
1,1,0.1000,-0.2700,0.0500*
1,1,0.1000,0.2700,0.0500*
%
%ADD16ROUNDEDRECTD16*%
G04:AMPARAMS|DCode=17|XSize=0.2mm|YSize=0.64mm|CornerRadius=0.05mm|HoleSize=0mm|Usage=FLASHONLY|Rotation=0.000|XOffset=0mm|YOffset=0mm|HoleType=Round|Shape=RoundedRectangle|*
%AMROUNDEDRECTD17*
21,1,0.2000,0.5400,0,0,0.0*
21,1,0.1000,0.6400,0,0,0.0*
1,1,0.1000,0.0500,-0.2700*
1,1,0.1000,-0.0500,-0.2700*
1,1,0.1000,-0.0500,0.2700*
1,1,0.1000,0.0500,0.2700*
%
%ADD17ROUNDEDRECTD17*%
%ADD18R,0.8000X0.8000*%
%ADD19R,0.8000X0.8000*%
%ADD20R,0.9900X0.3400*%
G04:AMPARAMS|DCode=21|XSize=0.99mm|YSize=0.34mm|CornerRadius=0.085mm|HoleSize=0mm|Usage=FLASHONLY|Rotation=270.000|XOffset=0mm|YOffset=0mm|HoleType=Round|Shape=RoundedRectangle|*
%AMROUNDEDRECTD21*
21,1,0.9900,0.1700,0,0,270.0*
21,1,0.8200,0.3400,0,0,270.0*
1,1,0.1700,-0.0850,-0.4100*
1,1,0.1700,-0.0850,0.4100*
1,1,0.1700,0.0850,0.4100*
1,1,0.1700,0.0850,-0.4100*
%
%ADD21ROUNDEDRECTD21*%
%ADD22R,0.3400X0.9900*%
%ADD23R,1.7000X1.7000*%
%ADD24R,2.1600X2.1600*%
G04:AMPARAMS|DCode=25|XSize=1.6mm|YSize=1.6mm|CornerRadius=0.4mm|HoleSize=0mm|Usage=FLASHONLY|Rotation=0.000|XOffset=0mm|YOffset=0mm|HoleType=Round|Shape=RoundedRectangle|*
%AMROUNDEDRECTD25*
21,1,1.6000,0.8000,0,0,0.0*
21,1,0.8000,1.6000,0,0,0.0*
1,1,0.8000,0.4000,-0.4000*
1,1,0.8000,-0.4000,-0.4000*
1,1,0.8000,-0.4000,0.4000*
1,1,0.8000,0.4000,0.4000*
%
%ADD25ROUNDEDRECTD25*%
%ADD26C,1.6000*%
%ADD27O,1.6000X1.5000*%
%ADD28O,3.6000X2.9000*%
G36*
X00093298Y00885214D02*
X00093506Y00885122D01*
X00093599Y00885076D01*
X00093692Y00884983D01*
X00093738Y00884937D01*
X00093807Y00884821D01*
X00093877Y00884636D01*
X00093923Y00884405D01*
Y00884381D01*
Y00884358D01*
X00093900Y00884220D01*
X00093830Y00884034D01*
X00093692Y00883849D01*
X00093645Y00883803D01*
X00093530Y00883734D01*
X00093344Y00883664D01*
X00093090Y00883618D01*
X00093021D01*
X00092882Y00883641D01*
X00092697Y00883710D01*
X00092512Y00883849D01*
X00092488Y00883895D01*
X00092419Y00884011D01*
X00092326Y00884173D01*
X00092303Y00884405D01*
Y00884428D01*
Y00884451D01*
X00092326Y00884590D01*
X00092396Y00884775D01*
X00092512Y00884983D01*
Y00885006D01*
X00092558Y00885029D01*
X00092674Y00885122D01*
X00092836Y00885191D01*
X00092951Y00885238D01*
X00093159D01*
X00093298Y00885214D01*
D02*
G37*
G36*
X00147028Y00885214D02*
X00147144D01*
X00147306Y00885191D01*
X00147653Y00885122D01*
X00148069Y00885029D01*
X00148532Y00884867D01*
X00148995Y00884659D01*
X00149481Y00884381D01*
X00149504D01*
X00149550Y00884335D01*
X00149689Y00884220D01*
X00149828Y00884011D01*
X00149874Y00883872D01*
X00149897Y00883710D01*
Y00883687D01*
Y00883664D01*
X00149874Y00883549D01*
X00149782Y00883363D01*
X00149735Y00883271D01*
X00149643Y00883155D01*
X00149596Y00883109D01*
X00149481Y00883039D01*
X00149272Y00882947D01*
X00149157Y00882924D01*
X00149041Y00882901D01*
X00148995D01*
X00148902Y00882924D01*
X00148740Y00882970D01*
X00148578Y00883039D01*
X00148532Y00883063D01*
X00148440Y00883132D01*
X00148254Y00883224D01*
X00148046Y00883340D01*
X00147768Y00883456D01*
X00147468Y00883549D01*
X00147121Y00883618D01*
X00146773Y00883641D01*
X00144945Y00883641D01*
X00144783Y00883618D01*
X00144575Y00883572D01*
X00144344Y00883479D01*
X00144089Y00883387D01*
X00143858Y00883224D01*
X00143626Y00883016D01*
X00143603Y00882993D01*
X00143534Y00882900D01*
X00143441Y00882785D01*
X00143349Y00882600D01*
X00143256Y00882392D01*
X00143164Y00882137D01*
X00143094Y00881859D01*
X00143071Y00881559D01*
Y00881512D01*
Y00881420D01*
X00143094Y00881258D01*
X00143140Y00881072D01*
X00143210Y00880841D01*
X00143326Y00880610D01*
X00143464Y00880355D01*
X00143650Y00880124D01*
X00148740Y00875010D01*
X00148763Y00874987D01*
X00148786Y00874964D01*
X00148833Y00874894D01*
X00148902Y00874825D01*
X00149087Y00874594D01*
X00149296Y00874293D01*
X00149481Y00873899D01*
X00149666Y00873460D01*
X00149782Y00872974D01*
X00149828Y00872696D01*
Y00872418D01*
Y00872395D01*
Y00872349D01*
Y00872280D01*
X00149805Y00872187D01*
Y00872048D01*
X00149782Y00871909D01*
X00149712Y00871562D01*
X00149573Y00871169D01*
X00149388Y00870752D01*
X00149157Y00870313D01*
X00148995Y00870105D01*
X00148810Y00869896D01*
Y00869873D01*
X00148763Y00869850D01*
X00148625Y00869734D01*
X00148393Y00869549D01*
X00148092Y00869341D01*
X00147699Y00869133D01*
X00147259Y00868971D01*
X00146727Y00868832D01*
X00146449Y00868809D01*
X00146149Y00868785D01*
X00144344D01*
X00144228Y00868809D01*
X00144112D01*
X00143950Y00868832D01*
X00143603Y00868878D01*
X00143187Y00868994D01*
X00142724Y00869133D01*
X00142261Y00869318D01*
X00141798Y00869595D01*
X00141775Y00869619D01*
X00141752Y00869642D01*
X00141613Y00869781D01*
X00141498Y00869989D01*
X00141451Y00870128D01*
X00141428Y00870266D01*
Y00870290D01*
Y00870313D01*
X00141451Y00870452D01*
X00141521Y00870637D01*
X00141636Y00870822D01*
Y00870845D01*
X00141683Y00870868D01*
X00141798Y00870961D01*
X00141984Y00871030D01*
X00142099Y00871076D01*
X00142261D01*
X00142354Y00871053D01*
X00142516Y00871030D01*
X00142678Y00870938D01*
X00142724Y00870914D01*
X00142817Y00870845D01*
X00142979Y00870752D01*
X00143210Y00870660D01*
X00143464Y00870567D01*
X00143788Y00870475D01*
X00144112Y00870405D01*
X00144483Y00870382D01*
X00146311D01*
X00146426Y00870405D01*
X00146681Y00870452D01*
X00146959Y00870544D01*
X00146982D01*
X00147028Y00870567D01*
X00147097Y00870613D01*
X00147190Y00870660D01*
X00147398Y00870799D01*
X00147606Y00870984D01*
X00147630Y00871007D01*
X00147653Y00871030D01*
X00147768Y00871169D01*
X00147907Y00871377D01*
X00148046Y00871632D01*
Y00871655D01*
X00148069Y00871701D01*
X00148092Y00871770D01*
X00148139Y00871863D01*
X00148185Y00872141D01*
X00148208Y00872442D01*
Y00872465D01*
Y00872511D01*
Y00872580D01*
X00148185Y00872696D01*
X00148162Y00872927D01*
X00148069Y00873205D01*
Y00873228D01*
X00148046Y00873275D01*
X00148000Y00873344D01*
X00147954Y00873437D01*
X00147792Y00873668D01*
X00147560Y00873923D01*
X00142493Y00878990D01*
Y00879013D01*
X00142446Y00879036D01*
X00142331Y00879175D01*
X00142169Y00879407D01*
X00141984Y00879707D01*
X00141775Y00880078D01*
X00141613Y00880517D01*
X00141498Y00881026D01*
X00141475Y00881281D01*
X00141451Y00881559D01*
Y00881582D01*
Y00881628D01*
Y00881697D01*
X00141475Y00881813D01*
Y00881952D01*
X00141498Y00882091D01*
X00141567Y00882438D01*
X00141683Y00882854D01*
X00141868Y00883271D01*
X00142099Y00883687D01*
X00142423Y00884081D01*
X00142446Y00884104D01*
X00142470Y00884127D01*
X00142608Y00884266D01*
X00142840Y00884451D01*
X00143140Y00884659D01*
X00143534Y00884867D01*
X00143997Y00885052D01*
X00144506Y00885191D01*
X00144783Y00885214D01*
X00145084Y00885238D01*
X00146912Y00885238D01*
X00147028Y00885214D01*
D02*
G37*
G36*
X00106025Y00880633D02*
X00106233Y00880610D01*
X00106488Y00880564D01*
X00106765Y00880494D01*
X00107043Y00880402D01*
X00107344Y00880263D01*
X00107390Y00880239D01*
X00107483Y00880193D01*
X00107622Y00880101D01*
X00107807Y00879985D01*
X00108015Y00879846D01*
X00108246Y00879661D01*
X00108455Y00879453D01*
X00108663Y00879198D01*
X00108686Y00879152D01*
X00108755Y00879036D01*
X00108825Y00878874D01*
X00108848Y00878689D01*
Y00878666D01*
Y00878643D01*
X00108825Y00878504D01*
X00108732Y00878319D01*
X00108686Y00878226D01*
X00108593Y00878134D01*
X00108547Y00878088D01*
X00108431Y00878018D01*
X00108246Y00877949D01*
X00108015Y00877902D01*
X00107945D01*
X00107876Y00877926D01*
X00107783Y00877949D01*
X00107575Y00878041D01*
X00107483Y00878111D01*
X00107390Y00878226D01*
X00107367Y00878273D01*
X00107275Y00878365D01*
X00107136Y00878481D01*
X00106927Y00878643D01*
X00106696Y00878805D01*
X00106395Y00878921D01*
X00106071Y00879013D01*
X00105701Y00879059D01*
X00104058D01*
X00103966Y00879036D01*
X00103850Y00879013D01*
X00103618Y00878921D01*
X00103480Y00878851D01*
X00103364Y00878736D01*
Y00878712D01*
X00103318Y00878689D01*
X00103271Y00878620D01*
X00103225Y00878527D01*
X00103132Y00878296D01*
X00103109Y00878134D01*
X00103086Y00877972D01*
Y00877949D01*
Y00877879D01*
X00103109Y00877787D01*
X00103132Y00877671D01*
X00103202Y00877532D01*
X00103271Y00877370D01*
X00103387Y00877231D01*
X00103526Y00877093D01*
X00107853Y00873575D01*
X00107876Y00873552D01*
X00107945Y00873506D01*
X00108038Y00873413D01*
X00108131Y00873298D01*
X00108270Y00873136D01*
X00108385Y00872974D01*
X00108501Y00872789D01*
X00108593Y00872580D01*
X00108617Y00872557D01*
X00108640Y00872488D01*
X00108686Y00872372D01*
X00108732Y00872256D01*
X00108778Y00872071D01*
X00108802Y00871909D01*
X00108848Y00871701D01*
Y00871493D01*
Y00871447D01*
Y00871308D01*
X00108802Y00871123D01*
X00108755Y00870868D01*
X00108663Y00870567D01*
X00108524Y00870266D01*
X00108339Y00869942D01*
X00108084Y00869619D01*
X00108061Y00869572D01*
X00107945Y00869480D01*
X00107783Y00869364D01*
X00107552Y00869202D01*
X00107275Y00869040D01*
X00106951Y00868924D01*
X00106557Y00868832D01*
X00106141Y00868785D01*
X00104405D01*
X00104243Y00868809D01*
X00104012Y00868832D01*
X00103757Y00868878D01*
X00103480Y00868948D01*
X00103202Y00869040D01*
X00102901Y00869156D01*
X00102878Y00869179D01*
X00102785Y00869225D01*
X00102623Y00869318D01*
X00102462Y00869433D01*
X00102253Y00869595D01*
X00102022Y00869781D01*
X00101814Y00869989D01*
X00101605Y00870220D01*
Y00870243D01*
X00101582Y00870266D01*
X00101536Y00870382D01*
X00101490Y00870544D01*
X00101467Y00870729D01*
Y00870752D01*
Y00870776D01*
X00101490Y00870914D01*
X00101559Y00871099D01*
X00101675Y00871285D01*
X00101721Y00871331D01*
X00101837Y00871400D01*
X00102022Y00871470D01*
X00102276Y00871516D01*
X00102346D01*
X00102438Y00871493D01*
X00102531Y00871470D01*
X00102623Y00871423D01*
X00102739Y00871377D01*
X00102832Y00871285D01*
X00102924Y00871169D01*
X00102947Y00871146D01*
X00103040Y00871053D01*
X00103179Y00870914D01*
X00103364Y00870776D01*
X00103595Y00870637D01*
X00103873Y00870498D01*
X00104197Y00870405D01*
X00104567Y00870382D01*
X00106233D01*
X00106303Y00870405D01*
X00106418Y00870428D01*
X00106673Y00870521D01*
X00106812Y00870590D01*
X00106927Y00870706D01*
X00106951Y00870729D01*
X00106974Y00870776D01*
X00107020Y00870822D01*
X00107089Y00870914D01*
X00107182Y00871146D01*
X00107205Y00871285D01*
X00107228Y00871447D01*
Y00871470D01*
Y00871539D01*
X00107205Y00871632D01*
X00107182Y00871747D01*
X00107136Y00871863D01*
X00107043Y00872025D01*
X00106951Y00872141D01*
X00106812Y00872280D01*
X00102462Y00875866D01*
X00102438Y00875889D01*
X00102369Y00875936D01*
X00102276Y00876028D01*
X00102161Y00876144D01*
X00102045Y00876283D01*
X00101906Y00876445D01*
X00101790Y00876630D01*
X00101698Y00876815D01*
Y00876838D01*
X00101652Y00876907D01*
X00101628Y00877023D01*
X00101582Y00877162D01*
X00101536Y00877324D01*
X00101513Y00877509D01*
X00101467Y00877926D01*
Y00877949D01*
Y00877972D01*
X00101490Y00878111D01*
X00101513Y00878319D01*
X00101559Y00878574D01*
X00101628Y00878874D01*
X00101767Y00879175D01*
X00101929Y00879499D01*
X00102161Y00879800D01*
X00102207Y00879846D01*
X00102299Y00879939D01*
X00102462Y00880078D01*
X00102693Y00880239D01*
X00102994Y00880378D01*
X00103318Y00880517D01*
X00103711Y00880610D01*
X00104128Y00880656D01*
X00105840D01*
X00106025Y00880633D01*
D02*
G37*
G36*
X00165239Y00880633D02*
X00165424Y00880564D01*
X00165632Y00880448D01*
X00165655D01*
X00165678Y00880402D01*
X00165771Y00880309D01*
X00165840Y00880124D01*
X00165887Y00880008D01*
Y00879869D01*
Y00879823D01*
Y00879754D01*
X00165863Y00879661D01*
X00165840Y00879592D01*
X00162994Y00869433D01*
Y00869410D01*
X00162948Y00869341D01*
X00162902Y00869225D01*
X00162832Y00869109D01*
X00162717Y00868971D01*
X00162578Y00868878D01*
X00162393Y00868785D01*
X00162184Y00868762D01*
X00162138D01*
X00162045Y00868785D01*
X00161883Y00868832D01*
X00161721Y00868924D01*
X00161698Y00868948D01*
X00161606Y00869040D01*
X00161536Y00869156D01*
X00161490Y00869271D01*
X00158598Y00879592D01*
Y00879615D01*
X00158574Y00879638D01*
X00158551Y00879731D01*
Y00879869D01*
Y00879892D01*
Y00879939D01*
X00158574Y00880078D01*
X00158644Y00880239D01*
X00158783Y00880425D01*
X00158806D01*
X00158829Y00880471D01*
X00158945Y00880540D01*
X00159130Y00880610D01*
X00159361Y00880656D01*
X00159454D01*
X00159546Y00880633D01*
X00159685Y00880587D01*
X00159801Y00880517D01*
X00159940Y00880402D01*
X00160055Y00880263D01*
X00160148Y00880054D01*
X00162207Y00872002D01*
X00164290Y00880054D01*
Y00880078D01*
X00164313Y00880147D01*
X00164359Y00880239D01*
X00164429Y00880355D01*
X00164521Y00880471D01*
X00164660Y00880564D01*
X00164845Y00880633D01*
X00165054Y00880656D01*
X00165100D01*
X00165239Y00880633D01*
D02*
G37*
G36*
X00189905Y00885214D02*
X00190044Y00885191D01*
X00190206Y00885168D01*
X00190576Y00885052D01*
X00190993Y00884891D01*
X00191224Y00884775D01*
X00191456Y00884636D01*
X00191687Y00884474D01*
X00191918Y00884289D01*
X00192127Y00884081D01*
X00192358Y00883826D01*
X00192381D01*
X00192404Y00883803D01*
X00192520Y00883687D01*
X00192682Y00883502D01*
X00192867Y00883271D01*
X00193029Y00882947D01*
X00193191Y00882553D01*
X00193307Y00882091D01*
X00193353Y00881836D01*
Y00881559D01*
Y00872418D01*
Y00872395D01*
Y00872349D01*
Y00872280D01*
X00193330Y00872164D01*
Y00872048D01*
X00193307Y00871886D01*
X00193214Y00871539D01*
X00193099Y00871123D01*
X00192890Y00870706D01*
X00192636Y00870266D01*
X00192451Y00870058D01*
X00192265Y00869850D01*
X00192242D01*
X00192219Y00869804D01*
X00192150Y00869757D01*
X00192080Y00869688D01*
X00191849Y00869503D01*
X00191548Y00869318D01*
X00191155Y00869133D01*
X00190715Y00868948D01*
X00190206Y00868832D01*
X00189928Y00868809D01*
X00189651Y00868785D01*
X00188378D01*
X00188262Y00868809D01*
X00188123D01*
X00187985Y00868832D01*
X00187614Y00868924D01*
X00187221Y00869040D01*
X00186781Y00869225D01*
X00186342Y00869480D01*
X00186133Y00869642D01*
X00185925Y00869827D01*
Y00869850D01*
X00185879Y00869873D01*
X00185833Y00869942D01*
X00185763Y00870012D01*
X00185601Y00870243D01*
X00185416Y00870544D01*
X00185208Y00870938D01*
X00185046Y00871377D01*
X00184930Y00871863D01*
X00184907Y00872141D01*
X00184884Y00872418D01*
Y00881559D01*
Y00881582D01*
Y00881628D01*
Y00881697D01*
X00184907Y00881813D01*
Y00881952D01*
X00184953Y00882091D01*
X00185023Y00882461D01*
X00185162Y00882877D01*
X00185347Y00883317D01*
X00185625Y00883780D01*
X00185786Y00884011D01*
X00185972Y00884220D01*
X00185995Y00884243D01*
X00186018Y00884266D01*
X00186157Y00884381D01*
X00186365Y00884544D01*
X00186666Y00884729D01*
X00187036Y00884914D01*
X00187476Y00885076D01*
X00187962Y00885191D01*
X00188239Y00885238D01*
X00189813D01*
X00189905Y00885214D01*
D02*
G37*
G36*
X00182408Y00870359D02*
X00182524Y00870336D01*
X00182686Y00870290D01*
X00182848Y00870174D01*
X00182963Y00870035D01*
X00183056Y00869850D01*
X00183102Y00869572D01*
Y00869549D01*
Y00869526D01*
X00183079Y00869387D01*
X00183010Y00869202D01*
X00182871Y00869017D01*
X00182825Y00868971D01*
X00182709Y00868901D01*
X00182524Y00868832D01*
X00182269Y00868785D01*
X00182200D01*
X00182061Y00868809D01*
X00181876Y00868878D01*
X00181691Y00868994D01*
X00181668Y00869040D01*
X00181598Y00869156D01*
X00181506Y00869341D01*
X00181483Y00869572D01*
Y00869595D01*
Y00869619D01*
X00181506Y00869757D01*
X00181575Y00869942D01*
X00181691Y00870128D01*
Y00870151D01*
X00181737Y00870174D01*
X00181853Y00870266D01*
X00182015Y00870336D01*
X00182130Y00870382D01*
X00182316D01*
X00182408Y00870359D01*
D02*
G37*
G36*
X00178983Y00885191D02*
X00179169Y00885122D01*
X00179377Y00884983D01*
X00179400D01*
X00179423Y00884937D01*
X00179516Y00884844D01*
X00179585Y00884659D01*
X00179631Y00884544D01*
Y00884405D01*
Y00869572D01*
Y00869549D01*
Y00869503D01*
X00179608Y00869433D01*
Y00869341D01*
X00179516Y00869156D01*
X00179469Y00869063D01*
X00179377Y00868971D01*
X00179331Y00868948D01*
X00179215Y00868878D01*
X00179053Y00868809D01*
X00178822Y00868785D01*
X00178775D01*
X00178613Y00868809D01*
X00178428Y00868878D01*
X00178243Y00868994D01*
X00178197Y00869040D01*
X00178127Y00869156D01*
X00178058Y00869318D01*
X00178012Y00869572D01*
Y00882831D01*
X00175975Y00880425D01*
X00175929Y00880378D01*
X00175813Y00880309D01*
X00175628Y00880239D01*
X00175397Y00880193D01*
X00175351D01*
X00175212Y00880216D01*
X00175027Y00880286D01*
X00174818Y00880425D01*
X00174772Y00880471D01*
X00174703Y00880587D01*
X00174633Y00880772D01*
X00174587Y00881003D01*
Y00881026D01*
Y00881049D01*
X00174610Y00881188D01*
X00174703Y00881373D01*
X00174749Y00881466D01*
X00174841Y00881559D01*
X00178266Y00884983D01*
X00178312Y00885029D01*
X00178405Y00885099D01*
X00178567Y00885168D01*
X00178798Y00885214D01*
X00178845D01*
X00178983Y00885191D01*
D02*
G37*
G36*
X00138883Y00885214D02*
X00138999Y00885191D01*
X00139161Y00885145D01*
X00139323Y00885029D01*
X00139438Y00884891D01*
X00139531Y00884705D01*
X00139577Y00884428D01*
Y00884405D01*
Y00884381D01*
X00139554Y00884243D01*
X00139485Y00884057D01*
X00139346Y00883872D01*
X00139299Y00883826D01*
X00139184Y00883757D01*
X00138999Y00883687D01*
X00138744Y00883641D01*
X00135759D01*
X00135597Y00883618D01*
X00135389Y00883572D01*
X00135181Y00883502D01*
X00134926Y00883387D01*
X00134695Y00883248D01*
X00134463Y00883039D01*
X00134440Y00883016D01*
X00134371Y00882947D01*
X00134278Y00882808D01*
X00134186Y00882646D01*
X00134070Y00882415D01*
X00133977Y00882160D01*
X00133908Y00881882D01*
X00133885Y00881559D01*
Y00872418D01*
Y00872395D01*
Y00872349D01*
Y00872256D01*
X00133908Y00872164D01*
X00133954Y00871886D01*
X00134024Y00871609D01*
Y00871585D01*
X00134047Y00871539D01*
X00134093Y00871470D01*
X00134139Y00871400D01*
X00134278Y00871169D01*
X00134463Y00870961D01*
X00134486D01*
X00134509Y00870914D01*
X00134648Y00870799D01*
X00134857Y00870660D01*
X00135111Y00870521D01*
X00135134D01*
X00135181Y00870498D01*
X00135250Y00870475D01*
X00135343Y00870452D01*
X00135597Y00870405D01*
X00135898Y00870382D01*
X00138790D01*
X00138883Y00870359D01*
X00138999Y00870336D01*
X00139161Y00870290D01*
X00139323Y00870174D01*
X00139438Y00870035D01*
X00139531Y00869850D01*
X00139577Y00869572D01*
Y00869549D01*
Y00869526D01*
X00139554Y00869387D01*
X00139485Y00869202D01*
X00139346Y00869017D01*
X00139299Y00868971D01*
X00139184Y00868901D01*
X00138999Y00868832D01*
X00138744Y00868785D01*
X00135759D01*
X00135643Y00868809D01*
X00135505Y00868832D01*
X00135366Y00868855D01*
X00134995Y00868924D01*
X00134602Y00869063D01*
X00134162Y00869271D01*
X00133931Y00869410D01*
X00133700Y00869572D01*
X00133468Y00869734D01*
X00133260Y00869942D01*
Y00869966D01*
X00133214Y00869989D01*
X00133098Y00870105D01*
X00132936Y00870313D01*
X00132774Y00870613D01*
X00132589Y00870961D01*
X00132427Y00871377D01*
X00132311Y00871863D01*
X00132288Y00872141D01*
X00132265Y00872418D01*
Y00881559D01*
Y00881582D01*
Y00881628D01*
Y00881697D01*
X00132288Y00881813D01*
Y00881952D01*
X00132311Y00882091D01*
X00132404Y00882461D01*
X00132520Y00882854D01*
X00132705Y00883294D01*
X00132959Y00883734D01*
X00133121Y00883942D01*
X00133306Y00884150D01*
X00133329Y00884173D01*
X00133353Y00884196D01*
X00133422Y00884243D01*
X00133491Y00884312D01*
X00133723Y00884497D01*
X00134047Y00884705D01*
X00134417Y00884891D01*
X00134857Y00885076D01*
X00135366Y00885191D01*
X00135620Y00885238D01*
X00138790D01*
X00138883Y00885214D01*
D02*
G37*
G36*
X00127012D02*
X00127151Y00885191D01*
X00127313Y00885168D01*
X00127683Y00885076D01*
X00128100Y00884891D01*
X00128331Y00884798D01*
X00128563Y00884659D01*
X00128794Y00884497D01*
X00129025Y00884312D01*
X00129234Y00884104D01*
X00129465Y00883849D01*
X00129488D01*
X00129511Y00883803D01*
X00129627Y00883710D01*
X00129789Y00883525D01*
X00129974Y00883271D01*
X00130136Y00882947D01*
X00130298Y00882553D01*
X00130414Y00882091D01*
X00130460Y00881836D01*
Y00881559D01*
Y00872418D01*
Y00872395D01*
Y00872349D01*
Y00872280D01*
X00130437Y00872164D01*
Y00872048D01*
X00130414Y00871886D01*
X00130321Y00871539D01*
X00130206Y00871123D01*
X00129997Y00870706D01*
X00129743Y00870266D01*
X00129558Y00870058D01*
X00129373Y00869850D01*
X00129349D01*
X00129326Y00869804D01*
X00129257Y00869757D01*
X00129187Y00869688D01*
X00128956Y00869503D01*
X00128655Y00869318D01*
X00128262Y00869133D01*
X00127822Y00868948D01*
X00127313Y00868832D01*
X00127036Y00868809D01*
X00126758Y00868785D01*
X00122755D01*
X00122662Y00868809D01*
X00122523Y00868832D01*
X00122385Y00868878D01*
X00122246Y00868971D01*
X00122107Y00869109D01*
X00122014Y00869318D01*
X00121991Y00869572D01*
Y00884405D01*
Y00884451D01*
X00122014Y00884543D01*
X00122037Y00884659D01*
X00122084Y00884821D01*
X00122176Y00884983D01*
X00122315Y00885099D01*
X00122523Y00885191D01*
X00122778Y00885238D01*
X00126920D01*
X00127012Y00885214D01*
D02*
G37*
G36*
X00115535Y00885168D02*
X00115674Y00885122D01*
X00115790Y00885052D01*
X00115929Y00884914D01*
X00116044Y00884752D01*
X00116137Y00884520D01*
X00120140Y00869734D01*
Y00869572D01*
Y00869549D01*
Y00869526D01*
X00120117Y00869387D01*
X00120024Y00869202D01*
X00119978Y00869109D01*
X00119885Y00869017D01*
X00119839Y00868971D01*
X00119724Y00868901D01*
X00119538Y00868832D01*
X00119330Y00868785D01*
X00119237D01*
X00119122Y00868809D01*
X00118983Y00868855D01*
X00118844Y00868948D01*
X00118729Y00869040D01*
X00118613Y00869202D01*
X00118543Y00869410D01*
X00117479Y00873367D01*
X00113198D01*
X00112111Y00869318D01*
Y00869295D01*
X00112087Y00869225D01*
X00112018Y00869156D01*
X00111949Y00869063D01*
X00111856Y00868948D01*
X00111717Y00868878D01*
X00111555Y00868809D01*
X00111347Y00868785D01*
X00111301D01*
X00111162Y00868809D01*
X00110977Y00868878D01*
X00110768Y00868994D01*
X00110722Y00869040D01*
X00110653Y00869156D01*
X00110583Y00869341D01*
X00110537Y00869572D01*
Y00869595D01*
Y00869665D01*
X00110560Y00869757D01*
X00110583Y00869827D01*
X00114563Y00884520D01*
Y00884543D01*
X00114610Y00884636D01*
X00114656Y00884752D01*
X00114725Y00884867D01*
X00114841Y00885006D01*
X00114957Y00885099D01*
X00115119Y00885191D01*
X00115327Y00885214D01*
X00115420D01*
X00115535Y00885168D01*
D02*
G37*
G36*
X00096700Y00885214D02*
X00096885Y00885145D01*
X00097093Y00885006D01*
X00097116D01*
X00097139Y00884960D01*
X00097232Y00884844D01*
X00097301Y00884659D01*
X00097348Y00884543D01*
Y00884405D01*
Y00871285D01*
Y00871261D01*
Y00871215D01*
X00097371Y00871146D01*
Y00871053D01*
X00097463Y00870845D01*
X00097510Y00870729D01*
X00097602Y00870637D01*
X00097625D01*
X00097648Y00870590D01*
X00097764Y00870521D01*
X00097972Y00870428D01*
X00098088Y00870405D01*
X00098204Y00870382D01*
X00098829D01*
X00098921Y00870359D01*
X00099060Y00870336D01*
X00099222Y00870290D01*
X00099361Y00870174D01*
X00099500Y00870035D01*
X00099592Y00869850D01*
X00099639Y00869572D01*
Y00869549D01*
Y00869526D01*
X00099615Y00869387D01*
X00099546Y00869202D01*
X00099407Y00869017D01*
X00099361Y00868971D01*
X00099245Y00868901D01*
X00099060Y00868832D01*
X00098782Y00868785D01*
X00098019D01*
X00097903Y00868809D01*
X00097579Y00868855D01*
X00097232Y00868971D01*
X00097209D01*
X00097163Y00869017D01*
X00097070Y00869040D01*
X00096977Y00869109D01*
X00096723Y00869271D01*
X00096445Y00869503D01*
X00096422Y00869526D01*
X00096399Y00869572D01*
X00096329Y00869642D01*
X00096260Y00869734D01*
X00096075Y00869989D01*
X00095913Y00870290D01*
Y00870313D01*
X00095890Y00870382D01*
X00095867Y00870475D01*
X00095821Y00870590D01*
X00095797Y00870752D01*
X00095751Y00870914D01*
X00095728Y00871308D01*
Y00884405D01*
Y00884428D01*
Y00884474D01*
X00095751Y00884613D01*
X00095821Y00884821D01*
X00095936Y00885006D01*
X00095982Y00885052D01*
X00096098Y00885122D01*
X00096283Y00885191D01*
X00096515Y00885238D01*
X00096561D01*
X00096700Y00885214D01*
D02*
G37*
G36*
X00093275Y00880610D02*
X00093460Y00880540D01*
X00093645Y00880425D01*
X00093668D01*
X00093692Y00880402D01*
X00093784Y00880286D01*
X00093877Y00880101D01*
X00093923Y00879985D01*
Y00879846D01*
Y00869572D01*
Y00869549D01*
Y00869526D01*
X00093900Y00869364D01*
X00093807Y00869179D01*
X00093761Y00869086D01*
X00093668Y00868994D01*
X00093622Y00868971D01*
X00093506Y00868901D01*
X00093344Y00868809D01*
X00093113Y00868785D01*
X00093067D01*
X00092905Y00868809D01*
X00092720Y00868878D01*
X00092535Y00868994D01*
X00092488Y00869040D01*
X00092419Y00869156D01*
X00092350Y00869318D01*
X00092303Y00869572D01*
Y00879846D01*
Y00879869D01*
Y00879916D01*
X00092326Y00880078D01*
X00092396Y00880263D01*
X00092535Y00880425D01*
X00092558D01*
X00092581Y00880448D01*
X00092697Y00880540D01*
X00092882Y00880610D01*
X00093113Y00880633D01*
X00093159D01*
X00093275Y00880610D01*
D02*
G37*
G36*
X00088254Y00880633D02*
X00088578Y00880564D01*
X00088925Y00880448D01*
X00088948D01*
X00088994Y00880402D01*
X00089087Y00880355D01*
X00089203Y00880309D01*
X00089457Y00880124D01*
X00089735Y00879892D01*
X00089758Y00879869D01*
X00089804Y00879846D01*
X00089851Y00879777D01*
X00089943Y00879684D01*
X00090105Y00879430D01*
X00090267Y00879106D01*
Y00879082D01*
X00090290Y00879036D01*
X00090336Y00878944D01*
X00090383Y00878805D01*
X00090452Y00878504D01*
X00090475Y00878157D01*
Y00871308D01*
Y00871285D01*
Y00871261D01*
Y00871123D01*
X00090429Y00870938D01*
X00090383Y00870683D01*
X00090290Y00870382D01*
X00090174Y00870081D01*
X00089989Y00869781D01*
X00089735Y00869503D01*
X00089712Y00869480D01*
X00089596Y00869387D01*
X00089457Y00869271D01*
X00089249Y00869156D01*
X00088971Y00869017D01*
X00088670Y00868901D01*
X00088323Y00868809D01*
X00087930Y00868785D01*
X00085593D01*
X00085454Y00868809D01*
X00085269Y00868832D01*
X00085014Y00868878D01*
X00084713Y00868971D01*
X00084413Y00869086D01*
X00084112Y00869271D01*
X00083834Y00869503D01*
X00083811Y00869526D01*
X00083719Y00869642D01*
X00083626Y00869781D01*
X00083487Y00869989D01*
X00083371Y00870266D01*
X00083256Y00870567D01*
X00083163Y00870914D01*
X00083140Y00871308D01*
Y00878157D01*
Y00878180D01*
Y00878250D01*
Y00878342D01*
X00083163Y00878458D01*
X00083209Y00878782D01*
X00083325Y00879106D01*
Y00879129D01*
X00083371Y00879175D01*
X00083395Y00879268D01*
X00083464Y00879383D01*
X00083626Y00879638D01*
X00083834Y00879916D01*
X00083857Y00879939D01*
X00083904Y00879985D01*
X00083973Y00880031D01*
X00084066Y00880124D01*
X00084320Y00880286D01*
X00084621Y00880448D01*
X00084644D01*
X00084713Y00880471D01*
X00084806Y00880517D01*
X00084922Y00880564D01*
X00085084Y00880587D01*
X00085246Y00880633D01*
X00085639Y00880656D01*
X00088115D01*
X00088254Y00880633D01*
D02*
G37*
G36*
X00080618Y00885214D02*
X00080734Y00885191D01*
X00080896Y00885145D01*
X00081058Y00885029D01*
X00081173Y00884891D01*
X00081266Y00884705D01*
X00081312Y00884428D01*
Y00884405D01*
Y00884381D01*
X00081289Y00884243D01*
X00081220Y00884057D01*
X00081081Y00883872D01*
X00081034Y00883826D01*
X00080919Y00883757D01*
X00080734Y00883687D01*
X00080479Y00883641D01*
X00077494D01*
X00077332Y00883618D01*
X00077124Y00883572D01*
X00076916Y00883502D01*
X00076661Y00883387D01*
X00076430Y00883248D01*
X00076198Y00883039D01*
X00076175Y00883016D01*
X00076106Y00882947D01*
X00076013Y00882808D01*
X00075921Y00882646D01*
X00075805Y00882415D01*
X00075712Y00882160D01*
X00075643Y00881882D01*
X00075620Y00881559D01*
Y00872418D01*
Y00872395D01*
Y00872349D01*
Y00872256D01*
X00075643Y00872164D01*
X00075689Y00871886D01*
X00075759Y00871609D01*
Y00871585D01*
X00075782Y00871539D01*
X00075828Y00871470D01*
X00075874Y00871400D01*
X00076013Y00871169D01*
X00076198Y00870961D01*
X00076221D01*
X00076245Y00870914D01*
X00076383Y00870799D01*
X00076592Y00870660D01*
X00076846Y00870521D01*
X00076869D01*
X00076916Y00870498D01*
X00076985Y00870475D01*
X00077077Y00870452D01*
X00077332Y00870405D01*
X00077633Y00870382D01*
X00080525D01*
X00080618Y00870359D01*
X00080734Y00870336D01*
X00080896Y00870290D01*
X00081058Y00870174D01*
X00081173Y00870035D01*
X00081266Y00869850D01*
X00081312Y00869572D01*
Y00869549D01*
Y00869526D01*
X00081289Y00869387D01*
X00081220Y00869202D01*
X00081081Y00869017D01*
X00081034Y00868971D01*
X00080919Y00868901D01*
X00080734Y00868832D01*
X00080479Y00868785D01*
X00077494D01*
X00077378Y00868809D01*
X00077239Y00868832D01*
X00077101Y00868855D01*
X00076730Y00868924D01*
X00076337Y00869063D01*
X00075897Y00869271D01*
X00075666Y00869410D01*
X00075435Y00869572D01*
X00075203Y00869734D01*
X00074995Y00869942D01*
Y00869966D01*
X00074949Y00869989D01*
X00074833Y00870105D01*
X00074671Y00870313D01*
X00074509Y00870613D01*
X00074324Y00870961D01*
X00074162Y00871377D01*
X00074046Y00871863D01*
X00074023Y00872141D01*
X00074000Y00872418D01*
Y00881559D01*
Y00881582D01*
Y00881628D01*
Y00881697D01*
X00074023Y00881813D01*
Y00881952D01*
X00074046Y00882091D01*
X00074139Y00882461D01*
X00074254Y00882854D01*
X00074440Y00883294D01*
X00074694Y00883734D01*
X00074856Y00883942D01*
X00075041Y00884150D01*
X00075064Y00884173D01*
X00075088Y00884196D01*
X00075157Y00884243D01*
X00075226Y00884312D01*
X00075458Y00884497D01*
X00075782Y00884705D01*
X00076152Y00884891D01*
X00076592Y00885076D01*
X00077101Y00885191D01*
X00077355Y00885238D01*
X00080525D01*
X00080618Y00885214D01*
D02*
G37*
G36*
X00527000Y00315500D02*
X00526500Y00315000D01*
X00525000D01*
Y00321400D01*
X00527000D01*
Y00315500D01*
D02*
G37*
G36*
X00507000Y00315000D02*
X00505500D01*
X00505000Y00315500D01*
Y00321400D01*
X00507000D01*
Y00315000D01*
D02*
G37*
G36*
X00534400Y00312000D02*
X00528000D01*
Y00313500D01*
X00528500Y00314000D01*
X00534400D01*
Y00312000D01*
D02*
G37*
G36*
X00504000Y00313500D02*
Y00312000D01*
X00497600D01*
Y00314000D01*
X00503500D01*
X00504000Y00313500D01*
D02*
G37*
G36*
X00534400Y00292000D02*
X00528500D01*
X00528000Y00292500D01*
Y00294000D01*
X00534400D01*
Y00292000D01*
D02*
G37*
G36*
X00504000Y00292500D02*
X00503500Y00292000D01*
X00497600D01*
Y00294000D01*
X00504000D01*
Y00292500D01*
D02*
G37*
G36*
X00527000Y00290500D02*
Y00284600D01*
X00525000D01*
Y00291000D01*
X00526500D01*
X00527000Y00290500D01*
D02*
G37*
G36*
X00507000Y00284600D02*
X00505000D01*
Y00290500D01*
X00505500Y00291000D01*
X00507000D01*
Y00284600D01*
D02*
G37*
%LPC*%
G36*
X00189651Y00883641D02*
X00188355D01*
X00188262Y00883618D01*
X00188008Y00883572D01*
X00187730Y00883479D01*
X00187707D01*
X00187661Y00883456D01*
X00187614Y00883410D01*
X00187522Y00883363D01*
X00187314Y00883224D01*
X00187082Y00883016D01*
Y00882993D01*
X00187036Y00882970D01*
X00186920Y00882831D01*
X00186781Y00882623D01*
X00186643Y00882368D01*
Y00882345D01*
X00186619Y00882299D01*
X00186596Y00882230D01*
X00186573Y00882137D01*
X00186527Y00881882D01*
X00186504Y00881559D01*
Y00872418D01*
Y00872395D01*
Y00872349D01*
Y00872256D01*
X00186527Y00872164D01*
X00186573Y00871886D01*
X00186643Y00871609D01*
Y00871585D01*
X00186666Y00871539D01*
X00186712Y00871470D01*
X00186758Y00871400D01*
X00186897Y00871169D01*
X00187082Y00870961D01*
X00187105D01*
X00187129Y00870914D01*
X00187267Y00870799D01*
X00187476Y00870660D01*
X00187730Y00870521D01*
X00187753D01*
X00187800Y00870498D01*
X00187869Y00870475D01*
X00187962Y00870452D01*
X00188216Y00870405D01*
X00188517Y00870382D01*
X00189813D01*
X00189975Y00870405D01*
X00190183Y00870452D01*
X00190414Y00870521D01*
X00190646Y00870613D01*
X00190900Y00870752D01*
X00191132Y00870938D01*
X00191155Y00870961D01*
X00191224Y00871053D01*
X00191317Y00871169D01*
X00191432Y00871331D01*
X00191548Y00871562D01*
X00191641Y00871817D01*
X00191710Y00872094D01*
X00191733Y00872418D01*
Y00881559D01*
Y00881582D01*
Y00881628D01*
Y00881697D01*
X00191710Y00881813D01*
X00191664Y00882044D01*
X00191571Y00882322D01*
Y00882345D01*
X00191548Y00882392D01*
X00191502Y00882461D01*
X00191456Y00882553D01*
X00191317Y00882762D01*
X00191108Y00882993D01*
X00191085Y00883016D01*
X00191062Y00883039D01*
X00190923Y00883155D01*
X00190715Y00883317D01*
X00190461Y00883456D01*
X00190438D01*
X00190391Y00883479D01*
X00190322Y00883525D01*
X00190229Y00883549D01*
X00189975Y00883618D01*
X00189651Y00883641D01*
D02*
G37*
G36*
X00126758Y00883641D02*
X00123611D01*
Y00870382D01*
X00126920D01*
X00127082Y00870405D01*
X00127290Y00870452D01*
X00127521Y00870521D01*
X00127753Y00870613D01*
X00128007Y00870752D01*
X00128239Y00870938D01*
X00128262Y00870961D01*
X00128331Y00871053D01*
X00128424Y00871169D01*
X00128540Y00871331D01*
X00128655Y00871562D01*
X00128748Y00871817D01*
X00128817Y00872094D01*
X00128840Y00872418D01*
Y00881559D01*
Y00881582D01*
Y00881628D01*
Y00881697D01*
X00128817Y00881813D01*
X00128771Y00882044D01*
X00128678Y00882322D01*
Y00882345D01*
X00128655Y00882392D01*
X00128609Y00882461D01*
X00128563Y00882553D01*
X00128424Y00882762D01*
X00128216Y00882993D01*
X00128193Y00883016D01*
X00128169Y00883039D01*
X00128031Y00883155D01*
X00127822Y00883317D01*
X00127568Y00883456D01*
X00127545D01*
X00127498Y00883479D01*
X00127429Y00883525D01*
X00127336Y00883548D01*
X00127082Y00883618D01*
X00126758Y00883641D01*
D02*
G37*
G36*
X00115327Y00881998D02*
X00113568Y00874964D01*
X00117132D01*
X00115327Y00881998D01*
D02*
G37*
G36*
X00088069Y00879059D02*
X00085570D01*
X00085408Y00879036D01*
X00085223Y00878944D01*
X00085107Y00878874D01*
X00085014Y00878782D01*
X00084968Y00878736D01*
X00084899Y00878620D01*
X00084806Y00878411D01*
X00084783Y00878296D01*
X00084760Y00878157D01*
Y00871285D01*
Y00871261D01*
Y00871215D01*
X00084783Y00871146D01*
Y00871053D01*
X00084875Y00870845D01*
X00084922Y00870729D01*
X00085014Y00870637D01*
X00085037D01*
X00085061Y00870590D01*
X00085176Y00870521D01*
X00085385Y00870428D01*
X00085500Y00870405D01*
X00085616Y00870382D01*
X00087999D01*
X00088069Y00870405D01*
X00088161D01*
X00088370Y00870498D01*
X00088485Y00870544D01*
X00088578Y00870637D01*
X00088601Y00870660D01*
X00088624Y00870683D01*
X00088717Y00870822D01*
X00088809Y00871007D01*
X00088855Y00871146D01*
Y00871285D01*
Y00878157D01*
Y00878180D01*
Y00878226D01*
X00088832Y00878296D01*
Y00878365D01*
X00088740Y00878574D01*
X00088670Y00878689D01*
X00088578Y00878782D01*
Y00878805D01*
X00088532Y00878828D01*
X00088393Y00878921D01*
X00088208Y00879013D01*
X00088069Y00879059D01*
D02*
G37*
%LPD*%
D16*
X00500800Y00301000D02*
D03*
Y00309000D02*
D03*
Y00305000D02*
D03*
Y00297000D02*
D03*
X00531200D02*
D03*
Y00301000D02*
D03*
Y00305000D02*
D03*
Y00309000D02*
D03*
D17*
X00510000Y00287800D02*
D03*
X00514000D02*
D03*
X00518000D02*
D03*
X00522000D02*
D03*
Y00318200D02*
D03*
X00518000D02*
D03*
X00514000D02*
D03*
X00510000D02*
D03*
D18*
X00565000Y00651500D02*
D03*
Y00635000D02*
D03*
X00547000Y00651250D02*
D03*
Y00634750D02*
D03*
X00533000Y00637250D02*
D03*
Y00620750D02*
D03*
X00515000Y00593750D02*
D03*
Y00610250D02*
D03*
X00501000Y00593750D02*
D03*
Y00610250D02*
D03*
X00515000Y00578250D02*
D03*
Y00561750D02*
D03*
X00501000Y00578250D02*
D03*
Y00561750D02*
D03*
X00583000Y00577750D02*
D03*
Y00594250D02*
D03*
X00533000Y00551250D02*
D03*
Y00534750D02*
D03*
X00547000Y00520750D02*
D03*
Y00537250D02*
D03*
X00565000Y00520750D02*
D03*
Y00537250D02*
D03*
X00573000Y00294750D02*
D03*
Y00311250D02*
D03*
X00559000D02*
D03*
Y00294750D02*
D03*
X00545000Y00311250D02*
D03*
Y00294750D02*
D03*
D19*
X00564250Y00620000D02*
D03*
X00547750D02*
D03*
X00614250Y00595000D02*
D03*
X00597750D02*
D03*
X00614250Y00577000D02*
D03*
X00597750D02*
D03*
X00547750Y00552000D02*
D03*
X00564250Y00552000D02*
D03*
X00524250Y00252000D02*
D03*
X00507750D02*
D03*
X00540250Y00266000D02*
D03*
X00523750D02*
D03*
X00562250Y00280000D02*
D03*
X00545750D02*
D03*
X00555750Y00326000D02*
D03*
X00572250D02*
D03*
X00532250Y00336000D02*
D03*
X00515750D02*
D03*
D20*
X00530400Y00595750D02*
D03*
Y00589250D02*
D03*
Y00582750D02*
D03*
Y00576250D02*
D03*
X00567600D02*
D03*
Y00582750D02*
D03*
Y00589250D02*
D03*
Y00595750D02*
D03*
D21*
X00558750Y00604600D02*
D03*
D22*
X00552250D02*
D03*
X00545750D02*
D03*
X00539250D02*
D03*
Y00567400D02*
D03*
X00545750D02*
D03*
X00552250D02*
D03*
X00558750D02*
D03*
D23*
X00516000Y00303000D02*
D03*
D24*
X00549000Y00586000D02*
D03*
D25*
X00457900Y00801300D02*
D03*
X00165200Y00105700D02*
D03*
X00659000Y00788700D02*
D03*
X00659000Y00650700D02*
D03*
Y00512700D02*
D03*
D26*
X00457900Y00775900D02*
D03*
Y00750500D02*
D03*
Y00725100D02*
D03*
Y00699700D02*
D03*
Y00674300D02*
D03*
Y00648900D02*
D03*
Y00572700D02*
D03*
Y00547300D02*
D03*
Y00521900D02*
D03*
Y00496500D02*
D03*
Y00471100D02*
D03*
Y00445700D02*
D03*
X00280100Y00471100D02*
D03*
Y00496500D02*
D03*
Y00521900D02*
D03*
Y00547300D02*
D03*
Y00572700D02*
D03*
Y00598100D02*
D03*
Y00623500D02*
D03*
Y00648900D02*
D03*
Y00674300D02*
D03*
Y00725100D02*
D03*
Y00750500D02*
D03*
Y00775900D02*
D03*
Y00801300D02*
D03*
Y00445700D02*
D03*
X00457900Y00420300D02*
D03*
Y00394900D02*
D03*
Y00369500D02*
D03*
Y00344100D02*
D03*
Y00318700D02*
D03*
X00280100Y00420300D02*
D03*
Y00394900D02*
D03*
Y00369500D02*
D03*
Y00344100D02*
D03*
Y00318700D02*
D03*
Y00699700D02*
D03*
X00266800Y00105700D02*
D03*
Y00080300D02*
D03*
X00292200Y00105700D02*
D03*
Y00080300D02*
D03*
X00317600Y00105700D02*
D03*
Y00080300D02*
D03*
X00343000Y00105700D02*
D03*
Y00080300D02*
D03*
X00368400Y00105700D02*
D03*
Y00080300D02*
D03*
X00393800Y00105700D02*
D03*
Y00080300D02*
D03*
X00419200Y00105700D02*
D03*
Y00080300D02*
D03*
X00444600Y00105700D02*
D03*
Y00080300D02*
D03*
X00470000Y00105700D02*
D03*
Y00080300D02*
D03*
X00495400Y00105700D02*
D03*
Y00080300D02*
D03*
X00520800Y00105700D02*
D03*
Y00080300D02*
D03*
X00546200Y00105700D02*
D03*
Y00080300D02*
D03*
X00571600Y00105700D02*
D03*
Y00080300D02*
D03*
X00597000Y00105700D02*
D03*
Y00080300D02*
D03*
X00622400Y00105700D02*
D03*
Y00080300D02*
D03*
X00647800Y00105700D02*
D03*
Y00080300D02*
D03*
X00673200Y00105700D02*
D03*
Y00080300D02*
D03*
X00698600Y00105700D02*
D03*
Y00080300D02*
D03*
X00724000Y00105700D02*
D03*
Y00080300D02*
D03*
X00749400Y00105700D02*
D03*
Y00080300D02*
D03*
X00774800Y00105700D02*
D03*
Y00080300D02*
D03*
X00216000Y00105700D02*
D03*
X00190600D02*
D03*
X00216000Y00080300D02*
D03*
X00190600D02*
D03*
X00165200D02*
D03*
X00241400Y00105700D02*
D03*
Y00080300D02*
D03*
X00659000Y00763300D02*
D03*
Y00625300D02*
D03*
Y00487300D02*
D03*
D27*
X00457900Y00623500D02*
D03*
Y00598100D02*
D03*
D28*
X00894000Y00799500D02*
D03*
Y00724500D02*
D03*
X00844000Y00799500D02*
D03*
X00844000Y00724500D02*
D03*
X00894000Y00095500D02*
D03*
Y00020500D02*
D03*
X00844000Y00095500D02*
D03*
Y00020500D02*
D03*
X00046000D02*
D03*
Y00095500D02*
D03*
X00096000Y00020500D02*
D03*
Y00095500D02*
D03*
X00046000Y00724500D02*
D03*
Y00799500D02*
D03*
X00096000Y00724500D02*
D03*
Y00799500D02*
D03*
M02*
