G04*
G04 #@! TF.GenerationSoftware,Altium Limited,Altium Designer,22.1.2 (22)*
G04*
G04 Layer_Physical_Order=1*
G04 Layer_Color=255*
%FSAX44Y44*%
%MOMM*%
G71*
G04*
G04 #@! TF.SameCoordinates,AEE1FB78-7808-4CFB-96B9-68BC2BEC934A*
G04*
G04*
G04 #@! TF.FilePolarity,Positive*
G04*
G01*
G75*
%ADD11C,0.2000*%
%ADD13C,0.5000*%
%ADD14O,0.6000X0.2000*%
%ADD15O,0.2000X0.6000*%
G04:AMPARAMS|DCode=16|XSize=0.64mm|YSize=0.2mm|CornerRadius=0.05mm|HoleSize=0mm|Usage=FLASHONLY|Rotation=0.000|XOffset=0mm|YOffset=0mm|HoleType=Round|Shape=RoundedRectangle|*
%AMROUNDEDRECTD16*
21,1,0.6400,0.1000,0,0,0.0*
21,1,0.5400,0.2000,0,0,0.0*
1,1,0.1000,0.2700,-0.0500*
1,1,0.1000,-0.2700,-0.0500*
1,1,0.1000,-0.2700,0.0500*
1,1,0.1000,0.2700,0.0500*
%
%ADD16ROUNDEDRECTD16*%
G04:AMPARAMS|DCode=17|XSize=0.2mm|YSize=0.64mm|CornerRadius=0.05mm|HoleSize=0mm|Usage=FLASHONLY|Rotation=0.000|XOffset=0mm|YOffset=0mm|HoleType=Round|Shape=RoundedRectangle|*
%AMROUNDEDRECTD17*
21,1,0.2000,0.5400,0,0,0.0*
21,1,0.1000,0.6400,0,0,0.0*
1,1,0.1000,0.0500,-0.2700*
1,1,0.1000,-0.0500,-0.2700*
1,1,0.1000,-0.0500,0.2700*
1,1,0.1000,0.0500,0.2700*
%
%ADD17ROUNDEDRECTD17*%
%ADD18R,0.8000X0.8000*%
%ADD19R,0.8000X0.8000*%
%ADD20R,0.9900X0.3400*%
G04:AMPARAMS|DCode=21|XSize=0.99mm|YSize=0.34mm|CornerRadius=0.085mm|HoleSize=0mm|Usage=FLASHONLY|Rotation=270.000|XOffset=0mm|YOffset=0mm|HoleType=Round|Shape=RoundedRectangle|*
%AMROUNDEDRECTD21*
21,1,0.9900,0.1700,0,0,270.0*
21,1,0.8200,0.3400,0,0,270.0*
1,1,0.1700,-0.0850,-0.4100*
1,1,0.1700,-0.0850,0.4100*
1,1,0.1700,0.0850,0.4100*
1,1,0.1700,0.0850,-0.4100*
%
%ADD21ROUNDEDRECTD21*%
%ADD22R,0.3400X0.9900*%
%ADD23R,1.7000X1.7000*%
%ADD24R,2.1600X2.1600*%
G04:AMPARAMS|DCode=25|XSize=1.6mm|YSize=1.6mm|CornerRadius=0.4mm|HoleSize=0mm|Usage=FLASHONLY|Rotation=0.000|XOffset=0mm|YOffset=0mm|HoleType=Round|Shape=RoundedRectangle|*
%AMROUNDEDRECTD25*
21,1,1.6000,0.8000,0,0,0.0*
21,1,0.8000,1.6000,0,0,0.0*
1,1,0.8000,0.4000,-0.4000*
1,1,0.8000,-0.4000,-0.4000*
1,1,0.8000,-0.4000,0.4000*
1,1,0.8000,0.4000,0.4000*
%
%ADD25ROUNDEDRECTD25*%
%ADD26C,1.6000*%
%ADD27O,1.6000X1.5000*%
%ADD28O,3.6000X2.9000*%
%ADD29C,0.3000*%
%ADD30C,1.0000*%
%ADD31C,1.5000*%
%ADD32C,0.2500*%
%ADD33C,0.4000*%
%ADD34C,0.6500*%
G36*
X00874902Y00844000D02*
X00875290Y00842049D01*
X00876395Y00840395D01*
X00899395Y00817395D01*
X00901049Y00816290D01*
X00903000Y00815902D01*
X00934902D01*
Y00005098D01*
X00005098Y00005098D01*
X00005098Y00815902D01*
X00037000Y00815902D01*
X00038951Y00816290D01*
X00040605Y00817395D01*
X00063605Y00840395D01*
X00064710Y00842049D01*
X00065098Y00844000D01*
Y00894902D01*
X00874902D01*
X00874902Y00844000D01*
D02*
G37*
%LPC*%
G36*
X00198353Y00890238D02*
X00069000D01*
Y00863762D01*
X00198353D01*
Y00890238D01*
D02*
G37*
G36*
X00610330Y00882598D02*
X00607670D01*
X00607178Y00882500D01*
X00606676D01*
X00604068Y00881981D01*
X00603604Y00881789D01*
X00603111Y00881691D01*
X00600654Y00880673D01*
X00600237Y00880395D01*
X00599773Y00880202D01*
X00597562Y00878725D01*
X00597207Y00878370D01*
X00596790Y00878091D01*
X00594909Y00876210D01*
X00594630Y00875793D01*
X00594275Y00875438D01*
X00592798Y00873227D01*
X00592606Y00872763D01*
X00592327Y00872346D01*
X00591309Y00869889D01*
X00591211Y00869396D01*
X00591019Y00868932D01*
X00590500Y00866324D01*
Y00865822D01*
X00590402Y00865330D01*
Y00862670D01*
X00590500Y00862178D01*
Y00861676D01*
X00591019Y00859068D01*
X00591211Y00858604D01*
X00591309Y00858111D01*
X00592327Y00855654D01*
X00592606Y00855237D01*
X00592798Y00854773D01*
X00594275Y00852562D01*
X00594630Y00852207D01*
X00594909Y00851789D01*
X00596790Y00849909D01*
X00597207Y00849630D01*
X00597562Y00849275D01*
X00599773Y00847798D01*
X00600237Y00847606D01*
X00600654Y00847327D01*
X00603111Y00846309D01*
X00603604Y00846211D01*
X00604068Y00846019D01*
X00606676Y00845500D01*
X00607178D01*
X00607670Y00845402D01*
X00610330D01*
X00610822Y00845500D01*
X00611324D01*
X00613932Y00846019D01*
X00614396Y00846211D01*
X00614889Y00846309D01*
X00617346Y00847327D01*
X00617763Y00847606D01*
X00618227Y00847798D01*
X00620438Y00849275D01*
X00620793Y00849630D01*
X00621211Y00849909D01*
X00623091Y00851789D01*
X00623370Y00852207D01*
X00623725Y00852562D01*
X00625202Y00854773D01*
X00625395Y00855237D01*
X00625673Y00855654D01*
X00626691Y00858111D01*
X00626789Y00858604D01*
X00626981Y00859068D01*
X00627500Y00861676D01*
Y00862178D01*
X00627598Y00862670D01*
Y00865330D01*
X00627500Y00865822D01*
Y00866324D01*
X00626981Y00868932D01*
X00626789Y00869396D01*
X00626691Y00869889D01*
X00625673Y00872346D01*
X00625395Y00872763D01*
X00625202Y00873227D01*
X00623725Y00875438D01*
X00623370Y00875793D01*
X00623091Y00876210D01*
X00621211Y00878091D01*
X00620793Y00878370D01*
X00620438Y00878725D01*
X00618227Y00880202D01*
X00617763Y00880394D01*
X00617346Y00880673D01*
X00614889Y00881691D01*
X00614396Y00881789D01*
X00613932Y00881981D01*
X00611324Y00882500D01*
X00610822D01*
X00610330Y00882598D01*
D02*
G37*
G36*
X00512330D02*
X00509670D01*
X00509178Y00882500D01*
X00508676D01*
X00506068Y00881981D01*
X00505604Y00881789D01*
X00505111Y00881691D01*
X00502654Y00880673D01*
X00502237Y00880395D01*
X00501773Y00880202D01*
X00499562Y00878725D01*
X00499207Y00878370D01*
X00498789Y00878091D01*
X00496909Y00876210D01*
X00496630Y00875793D01*
X00496275Y00875438D01*
X00494798Y00873227D01*
X00494605Y00872763D01*
X00494327Y00872346D01*
X00493309Y00869889D01*
X00493211Y00869396D01*
X00493019Y00868932D01*
X00492500Y00866324D01*
Y00865822D01*
X00492402Y00865330D01*
Y00862670D01*
X00492500Y00862178D01*
Y00861676D01*
X00493019Y00859068D01*
X00493211Y00858604D01*
X00493309Y00858111D01*
X00494327Y00855654D01*
X00494605Y00855237D01*
X00494798Y00854773D01*
X00496275Y00852562D01*
X00496630Y00852207D01*
X00496909Y00851789D01*
X00498789Y00849909D01*
X00499207Y00849630D01*
X00499562Y00849275D01*
X00501773Y00847798D01*
X00502237Y00847606D01*
X00502654Y00847327D01*
X00505111Y00846309D01*
X00505604Y00846211D01*
X00506068Y00846019D01*
X00508676Y00845500D01*
X00509178D01*
X00509670Y00845402D01*
X00512330D01*
X00512822Y00845500D01*
X00513324D01*
X00515932Y00846019D01*
X00516396Y00846211D01*
X00516889Y00846309D01*
X00519346Y00847327D01*
X00519763Y00847606D01*
X00520227Y00847798D01*
X00522438Y00849275D01*
X00522793Y00849630D01*
X00523210Y00849909D01*
X00525091Y00851789D01*
X00525370Y00852207D01*
X00525725Y00852562D01*
X00527202Y00854773D01*
X00527394Y00855237D01*
X00527673Y00855654D01*
X00528691Y00858111D01*
X00528789Y00858604D01*
X00528981Y00859068D01*
X00529500Y00861676D01*
Y00862178D01*
X00529598Y00862670D01*
Y00865330D01*
X00529500Y00865822D01*
Y00866324D01*
X00528981Y00868932D01*
X00528789Y00869396D01*
X00528691Y00869889D01*
X00527673Y00872346D01*
X00527394Y00872763D01*
X00527202Y00873227D01*
X00525725Y00875438D01*
X00525370Y00875793D01*
X00525091Y00876210D01*
X00523210Y00878091D01*
X00522793Y00878370D01*
X00522438Y00878725D01*
X00520227Y00880202D01*
X00519763Y00880394D01*
X00519346Y00880673D01*
X00516889Y00881691D01*
X00516396Y00881789D01*
X00515932Y00881981D01*
X00513324Y00882500D01*
X00512822D01*
X00512330Y00882598D01*
D02*
G37*
G36*
X00354000Y00850039D02*
X00245000D01*
X00244220Y00849884D01*
X00243558Y00849442D01*
X00243116Y00848780D01*
X00242961Y00848000D01*
Y00711039D01*
X00183000D01*
X00182220Y00710884D01*
X00181558Y00710442D01*
X00181116Y00709780D01*
X00180961Y00709000D01*
Y00309588D01*
X00155642D01*
X00154044Y00310250D01*
X00151956D01*
X00150026Y00309451D01*
X00148549Y00307974D01*
X00147750Y00306044D01*
Y00303956D01*
X00148549Y00302026D01*
X00150026Y00300549D01*
X00151956Y00299750D01*
X00154044D01*
X00155642Y00300412D01*
X00180961D01*
Y00293588D01*
X00089642D01*
X00088044Y00294250D01*
X00085956D01*
X00084026Y00293451D01*
X00082549Y00291974D01*
X00081750Y00290044D01*
Y00287956D01*
X00082549Y00286026D01*
X00084026Y00284549D01*
X00085956Y00283750D01*
X00088044D01*
X00089642Y00284412D01*
X00180961D01*
Y00213000D01*
X00181116Y00212220D01*
X00181558Y00211558D01*
X00182220Y00211116D01*
X00183000Y00210961D01*
X00199000Y00210961D01*
X00199780Y00211116D01*
X00200442Y00211558D01*
X00200442Y00211558D01*
X00214845Y00225961D01*
X00226940D01*
Y00198000D01*
X00227180Y00196173D01*
X00227886Y00194470D01*
X00229008Y00193008D01*
X00230470Y00191886D01*
X00232173Y00191180D01*
X00234000Y00190940D01*
X00235827Y00191180D01*
X00237530Y00191886D01*
X00238993Y00193008D01*
X00240114Y00194470D01*
X00240820Y00196173D01*
X00241060Y00198000D01*
Y00225961D01*
X00399000D01*
X00399780Y00226116D01*
X00400442Y00226558D01*
X00400884Y00227220D01*
X00401039Y00228000D01*
Y00241000D01*
X00400884Y00241780D01*
X00400442Y00242442D01*
X00399780Y00242884D01*
X00399000Y00243039D01*
X00213845Y00243039D01*
X00207039Y00249845D01*
X00207039Y00687961D01*
X00289000D01*
X00289780Y00688116D01*
X00290442Y00688558D01*
X00290884Y00689220D01*
X00291039Y00690000D01*
Y00709000D01*
X00290884Y00709780D01*
X00290442Y00710442D01*
X00289780Y00710884D01*
X00289000Y00711039D01*
X00265039D01*
Y00827961D01*
X00331155D01*
X00338558Y00820558D01*
X00339220Y00820116D01*
X00340000Y00819961D01*
X00354000D01*
X00354780Y00820116D01*
X00355442Y00820558D01*
X00355884Y00821220D01*
X00356039Y00822000D01*
Y00848000D01*
X00355884Y00848780D01*
X00355442Y00849442D01*
X00354780Y00849884D01*
X00354000Y00850039D01*
D02*
G37*
G36*
X00793000Y00825569D02*
X00494000Y00825568D01*
X00492634Y00825297D01*
X00491477Y00824523D01*
X00471822Y00804869D01*
X00468018D01*
Y00805300D01*
X00467552Y00807641D01*
X00466226Y00809626D01*
X00464241Y00810952D01*
X00461900Y00811418D01*
X00453900D01*
X00451559Y00810952D01*
X00449574Y00809626D01*
X00448248Y00807641D01*
X00447783Y00805300D01*
Y00797300D01*
X00448248Y00794959D01*
X00449574Y00792974D01*
X00451559Y00791648D01*
X00453900Y00791182D01*
X00461900D01*
X00464241Y00791648D01*
X00466226Y00792974D01*
X00467552Y00794959D01*
X00468018Y00797300D01*
Y00797731D01*
X00472889D01*
X00473438Y00796656D01*
X00473457Y00796504D01*
X00462021Y00785068D01*
X00461760Y00785219D01*
X00459216Y00785900D01*
X00456584D01*
X00454040Y00785219D01*
X00451760Y00783902D01*
X00449898Y00782040D01*
X00448582Y00779760D01*
X00447900Y00777217D01*
Y00774584D01*
X00448582Y00772040D01*
X00449898Y00769760D01*
X00451760Y00767898D01*
X00454040Y00766582D01*
X00456584Y00765900D01*
X00459216D01*
X00461760Y00766582D01*
X00464040Y00767898D01*
X00465902Y00769760D01*
X00467219Y00772040D01*
X00467900Y00774584D01*
Y00777217D01*
X00467219Y00779760D01*
X00467068Y00780021D01*
X00470204Y00783157D01*
X00470357Y00783138D01*
X00471431Y00782589D01*
Y00743678D01*
X00462021Y00734268D01*
X00461760Y00734418D01*
X00459216Y00735100D01*
X00456584D01*
X00454040Y00734418D01*
X00451760Y00733102D01*
X00449898Y00731240D01*
X00448582Y00728960D01*
X00447900Y00726417D01*
Y00723783D01*
X00448582Y00721240D01*
X00449898Y00718960D01*
X00451760Y00717098D01*
X00452209Y00716839D01*
X00451869Y00715569D01*
X00451000D01*
X00449634Y00715297D01*
X00448477Y00714523D01*
X00441477Y00707523D01*
X00440703Y00706366D01*
X00440431Y00705000D01*
Y00662800D01*
X00440703Y00661434D01*
X00441477Y00660277D01*
X00448732Y00653021D01*
X00448582Y00652760D01*
X00447900Y00650217D01*
Y00647583D01*
X00448582Y00645040D01*
X00449898Y00642760D01*
X00451760Y00640898D01*
X00454040Y00639582D01*
X00456584Y00638900D01*
X00459216D01*
X00461760Y00639582D01*
X00464040Y00640898D01*
X00465902Y00642760D01*
X00467219Y00645040D01*
X00467900Y00647583D01*
Y00650217D01*
X00467219Y00652760D01*
X00465902Y00655040D01*
X00464040Y00656902D01*
X00461760Y00658219D01*
X00459216Y00658900D01*
X00456584D01*
X00454040Y00658219D01*
X00453779Y00658068D01*
X00447569Y00664278D01*
Y00669655D01*
X00448839Y00669995D01*
X00449898Y00668160D01*
X00451760Y00666298D01*
X00454040Y00664982D01*
X00456584Y00664300D01*
X00459216D01*
X00461760Y00664982D01*
X00464040Y00666298D01*
X00465902Y00668160D01*
X00467219Y00670440D01*
X00467900Y00672983D01*
Y00675617D01*
X00467219Y00678160D01*
X00467068Y00678421D01*
X00477523Y00688877D01*
X00478297Y00690034D01*
X00478569Y00691400D01*
Y00702522D01*
X00490478Y00714431D01*
X00702522D01*
X00749477Y00667477D01*
X00750634Y00666703D01*
X00752000Y00666431D01*
X00791522D01*
X00797431Y00660522D01*
Y00608856D01*
X00796549Y00607974D01*
X00795750Y00606044D01*
Y00603956D01*
X00796549Y00602026D01*
X00798026Y00600549D01*
X00799956Y00599750D01*
X00802044D01*
X00803974Y00600549D01*
X00805451Y00602026D01*
X00806250Y00603956D01*
Y00606044D01*
X00805451Y00607974D01*
X00804569Y00608856D01*
Y00627364D01*
X00805839Y00628213D01*
X00806956Y00627750D01*
X00809044D01*
X00809090Y00627769D01*
X00810062Y00626797D01*
X00809750Y00626044D01*
Y00623956D01*
X00810549Y00622026D01*
X00812026Y00620549D01*
X00813956Y00619750D01*
X00816044D01*
X00817974Y00620549D01*
X00819451Y00622026D01*
X00820250Y00623956D01*
Y00626044D01*
X00819451Y00627974D01*
X00818569Y00628856D01*
Y00664000D01*
X00818297Y00665366D01*
X00817523Y00666523D01*
X00799523Y00684523D01*
X00798366Y00685297D01*
X00797000Y00685569D01*
X00757478D01*
X00710523Y00732523D01*
X00709366Y00733297D01*
X00708000Y00733569D01*
X00481836D01*
X00480470Y00733297D01*
X00479313Y00732523D01*
X00468718Y00721928D01*
X00467579Y00722586D01*
X00467900Y00723783D01*
Y00726417D01*
X00467219Y00728960D01*
X00467068Y00729221D01*
X00477523Y00739677D01*
X00478297Y00740834D01*
X00478569Y00742200D01*
Y00781522D01*
X00505478Y00808431D01*
X00707327D01*
X00707737Y00807161D01*
X00706549Y00805974D01*
X00705750Y00804044D01*
Y00801956D01*
X00706549Y00800026D01*
X00708026Y00798549D01*
X00709956Y00797750D01*
X00712044D01*
X00713642Y00798412D01*
X00719100D01*
X00727412Y00790099D01*
Y00753642D01*
X00726750Y00752044D01*
Y00749956D01*
X00727549Y00748026D01*
X00729026Y00746549D01*
X00730956Y00745750D01*
X00733044D01*
X00734974Y00746549D01*
X00736451Y00748026D01*
X00737250Y00749956D01*
Y00752044D01*
X00736588Y00753642D01*
Y00792000D01*
X00736239Y00793756D01*
X00735244Y00795244D01*
X00724244Y00806244D01*
X00723870Y00806494D01*
X00723561Y00808221D01*
X00723712Y00808431D01*
X00784522D01*
X00804431Y00788522D01*
Y00774856D01*
X00803549Y00773974D01*
X00802750Y00772044D01*
Y00769956D01*
X00803549Y00768026D01*
X00805026Y00766549D01*
X00806956Y00765750D01*
X00809044D01*
X00809090Y00765769D01*
X00810062Y00764797D01*
X00809750Y00764044D01*
Y00761956D01*
X00810549Y00760026D01*
X00812026Y00758549D01*
X00813956Y00757750D01*
X00816044D01*
X00817974Y00758549D01*
X00819451Y00760026D01*
X00820250Y00761956D01*
X00821431Y00761742D01*
Y00746856D01*
X00820549Y00745974D01*
X00819750Y00744044D01*
Y00741956D01*
X00820549Y00740026D01*
X00822026Y00738549D01*
X00823956Y00737750D01*
X00826044D01*
X00827974Y00738549D01*
X00829451Y00740026D01*
X00830250Y00741956D01*
Y00744044D01*
X00829451Y00745974D01*
X00828569Y00746856D01*
Y00765000D01*
X00828297Y00766366D01*
X00827523Y00767523D01*
X00824569Y00770478D01*
Y00794000D01*
X00824297Y00795366D01*
X00823523Y00796523D01*
X00795523Y00824523D01*
X00794366Y00825297D01*
X00793000Y00825569D01*
D02*
G37*
G36*
X00281416Y00811300D02*
X00278783D01*
X00276240Y00810619D01*
X00273960Y00809302D01*
X00272098Y00807440D01*
X00270781Y00805160D01*
X00270100Y00802617D01*
Y00799984D01*
X00270781Y00797440D01*
X00272098Y00795160D01*
X00273960Y00793298D01*
X00276240Y00791982D01*
X00278783Y00791300D01*
X00281416D01*
X00283960Y00791982D01*
X00286240Y00793298D01*
X00288102Y00795160D01*
X00289419Y00797440D01*
X00290100Y00799984D01*
Y00802617D01*
X00289419Y00805160D01*
X00288102Y00807440D01*
X00286240Y00809302D01*
X00283960Y00810619D01*
X00281416Y00811300D01*
D02*
G37*
G36*
X00663000Y00798818D02*
X00655000D01*
X00652659Y00798352D01*
X00650674Y00797026D01*
X00649348Y00795041D01*
X00648882Y00792700D01*
Y00784700D01*
X00649348Y00782359D01*
X00650674Y00780374D01*
X00652659Y00779048D01*
X00655000Y00778583D01*
X00663000D01*
X00665341Y00779048D01*
X00667326Y00780374D01*
X00668652Y00782359D01*
X00669118Y00784700D01*
Y00792700D01*
X00668652Y00795041D01*
X00667326Y00797026D01*
X00665341Y00798352D01*
X00663000Y00798818D01*
D02*
G37*
G36*
X00281416Y00785900D02*
X00278783D01*
X00276240Y00785219D01*
X00273960Y00783902D01*
X00272098Y00782040D01*
X00270781Y00779760D01*
X00270100Y00777217D01*
Y00774584D01*
X00270781Y00772040D01*
X00272098Y00769760D01*
X00273960Y00767898D01*
X00276240Y00766582D01*
X00278783Y00765900D01*
X00281416D01*
X00283960Y00766582D01*
X00286240Y00767898D01*
X00288102Y00769760D01*
X00289419Y00772040D01*
X00290100Y00774584D01*
Y00777217D01*
X00289419Y00779760D01*
X00288102Y00782040D01*
X00286240Y00783902D01*
X00283960Y00785219D01*
X00281416Y00785900D01*
D02*
G37*
G36*
X00660316Y00773300D02*
X00657683D01*
X00655140Y00772619D01*
X00652860Y00771302D01*
X00650998Y00769440D01*
X00649681Y00767160D01*
X00649000Y00764617D01*
Y00761983D01*
X00649681Y00759440D01*
X00650998Y00757160D01*
X00652860Y00755298D01*
X00655140Y00753982D01*
X00657683Y00753300D01*
X00660316D01*
X00662860Y00753982D01*
X00665140Y00755298D01*
X00667002Y00757160D01*
X00668318Y00759440D01*
X00669000Y00761983D01*
Y00764617D01*
X00668318Y00767160D01*
X00667002Y00769440D01*
X00665140Y00771302D01*
X00662860Y00772619D01*
X00660316Y00773300D01*
D02*
G37*
G36*
X00281416Y00735100D02*
X00278783D01*
X00276240Y00734418D01*
X00273960Y00733102D01*
X00272098Y00731240D01*
X00270781Y00728960D01*
X00270100Y00726417D01*
Y00723783D01*
X00270781Y00721240D01*
X00272098Y00718960D01*
X00273960Y00717098D01*
X00276240Y00715782D01*
X00278783Y00715100D01*
X00281416D01*
X00283960Y00715782D01*
X00286240Y00717098D01*
X00288102Y00718960D01*
X00289419Y00721240D01*
X00290100Y00723783D01*
Y00726417D01*
X00289419Y00728960D01*
X00288102Y00731240D01*
X00286240Y00733102D01*
X00283960Y00734418D01*
X00281416Y00735100D01*
D02*
G37*
G36*
X00698044Y00708250D02*
X00695956D01*
X00694026Y00707451D01*
X00693144Y00706569D01*
X00567000D01*
X00565634Y00706297D01*
X00564477Y00705523D01*
X00550477Y00691523D01*
X00549703Y00690366D01*
X00549431Y00689000D01*
Y00658728D01*
X00547953Y00657250D01*
X00541000D01*
Y00645250D01*
X00553000D01*
Y00652203D01*
X00555279Y00654483D01*
X00555783Y00654691D01*
X00556921Y00654532D01*
X00559000Y00652453D01*
Y00645500D01*
X00571000D01*
Y00657500D01*
X00564047D01*
X00562569Y00658978D01*
Y00684522D01*
X00569478Y00691431D01*
X00701144D01*
X00702026Y00690549D01*
X00703956Y00689750D01*
X00706044D01*
X00707974Y00690549D01*
X00709451Y00692026D01*
X00710250Y00693956D01*
Y00696044D01*
X00709451Y00697974D01*
X00707974Y00699451D01*
X00706044Y00700250D01*
X00703956D01*
X00702703Y00699731D01*
X00701731Y00700703D01*
X00702250Y00701956D01*
Y00704044D01*
X00701451Y00705974D01*
X00699974Y00707451D01*
X00698044Y00708250D01*
D02*
G37*
G36*
X00281416Y00684300D02*
X00278783D01*
X00276240Y00683618D01*
X00273960Y00682302D01*
X00272098Y00680440D01*
X00270781Y00678160D01*
X00270100Y00675617D01*
Y00672983D01*
X00270781Y00670440D01*
X00272098Y00668160D01*
X00273960Y00666298D01*
X00276240Y00664982D01*
X00278783Y00664300D01*
X00281416D01*
X00283960Y00664982D01*
X00286240Y00666298D01*
X00288102Y00668160D01*
X00289419Y00670440D01*
X00290100Y00672983D01*
Y00675617D01*
X00289419Y00678160D01*
X00288102Y00680440D01*
X00286240Y00682302D01*
X00283960Y00683618D01*
X00281416Y00684300D01*
D02*
G37*
G36*
X00663000Y00660818D02*
X00655000D01*
X00652659Y00660352D01*
X00650674Y00659026D01*
X00649348Y00657041D01*
X00648882Y00654700D01*
Y00646700D01*
X00649348Y00644359D01*
X00650674Y00642374D01*
X00652659Y00641048D01*
X00655000Y00640583D01*
X00663000D01*
X00665341Y00641048D01*
X00667326Y00642374D01*
X00668652Y00644359D01*
X00669118Y00646700D01*
Y00654700D01*
X00668652Y00657041D01*
X00667326Y00659026D01*
X00665341Y00660352D01*
X00663000Y00660818D01*
D02*
G37*
G36*
X00281416Y00658900D02*
X00278783D01*
X00276240Y00658219D01*
X00273960Y00656902D01*
X00272098Y00655040D01*
X00270781Y00652760D01*
X00270703Y00652469D01*
X00227900D01*
X00226534Y00652197D01*
X00225377Y00651423D01*
X00213477Y00639523D01*
X00212703Y00638366D01*
X00212431Y00637000D01*
Y00315856D01*
X00211549Y00314974D01*
X00210750Y00313044D01*
Y00310956D01*
X00211549Y00309026D01*
X00213026Y00307549D01*
X00214956Y00306750D01*
X00217044D01*
X00218974Y00307549D01*
X00220451Y00309026D01*
X00221250Y00310956D01*
Y00313044D01*
X00220451Y00314974D01*
X00219569Y00315856D01*
Y00635522D01*
X00229378Y00645331D01*
X00270703D01*
X00270781Y00645040D01*
X00272098Y00642760D01*
X00273960Y00640898D01*
X00276240Y00639582D01*
X00278783Y00638900D01*
X00281416D01*
X00283960Y00639582D01*
X00286240Y00640898D01*
X00288102Y00642760D01*
X00289419Y00645040D01*
X00290100Y00647583D01*
Y00650217D01*
X00289419Y00652760D01*
X00288102Y00655040D01*
X00286240Y00656902D01*
X00283960Y00658219D01*
X00281416Y00658900D01*
D02*
G37*
G36*
X00571000Y00641000D02*
X00559000D01*
Y00629000D01*
X00560681D01*
Y00626000D01*
X00558250D01*
Y00619838D01*
X00556125Y00617714D01*
X00555885Y00617532D01*
X00554824D01*
X00554583Y00617714D01*
X00553750Y00618547D01*
Y00626000D01*
X00550569D01*
Y00628750D01*
X00553000D01*
Y00640750D01*
X00541000D01*
Y00632039D01*
X00494000D01*
X00493220Y00631884D01*
X00492558Y00631442D01*
X00492116Y00630780D01*
X00491961Y00630000D01*
Y00606000D01*
X00492116Y00605220D01*
X00492558Y00604558D01*
X00493220Y00604116D01*
X00494000Y00603961D01*
Y00600706D01*
X00492827Y00600220D01*
X00479523Y00613523D01*
X00478366Y00614297D01*
X00477000Y00614569D01*
X00452000D01*
X00450634Y00614297D01*
X00449477Y00613523D01*
X00442477Y00606523D01*
X00441703Y00605366D01*
X00441431Y00604000D01*
Y00585600D01*
X00441703Y00584234D01*
X00442477Y00583077D01*
X00448732Y00576821D01*
X00448582Y00576560D01*
X00447900Y00574017D01*
Y00571384D01*
X00448582Y00568840D01*
X00449898Y00566560D01*
X00451760Y00564698D01*
X00454040Y00563382D01*
X00456584Y00562700D01*
X00459216D01*
X00461760Y00563382D01*
X00464040Y00564698D01*
X00465902Y00566560D01*
X00467219Y00568840D01*
X00467900Y00571384D01*
Y00574017D01*
X00467219Y00576560D01*
X00465902Y00578840D01*
X00464040Y00580702D01*
X00461760Y00582019D01*
X00459216Y00582700D01*
X00456584D01*
X00454040Y00582019D01*
X00453779Y00581868D01*
X00448569Y00587078D01*
Y00591918D01*
X00449839Y00592349D01*
X00450625Y00591325D01*
X00452609Y00589802D01*
X00454920Y00588845D01*
X00457400Y00588518D01*
X00458400D01*
X00460880Y00588845D01*
X00463191Y00589802D01*
X00465175Y00591325D01*
X00466698Y00593309D01*
X00467205Y00594532D01*
X00477422D01*
X00495000Y00576953D01*
Y00574000D01*
X00495000D01*
Y00566000D01*
X00495000D01*
Y00555750D01*
X00496922D01*
Y00554346D01*
X00496549Y00553974D01*
X00495750Y00552044D01*
Y00549956D01*
X00496549Y00548026D01*
X00498026Y00546549D01*
X00499956Y00545750D01*
X00502044D01*
X00503974Y00546549D01*
X00505451Y00548026D01*
X00506250Y00549956D01*
Y00552044D01*
X00505451Y00553974D01*
X00505078Y00554346D01*
Y00555750D01*
X00507000D01*
Y00566000D01*
X00509000D01*
Y00555750D01*
X00521000D01*
Y00561111D01*
X00521956Y00561750D01*
X00524044D01*
X00525974Y00562549D01*
X00527451Y00564026D01*
X00528250Y00565956D01*
Y00568044D01*
X00527451Y00569974D01*
X00526145Y00571280D01*
X00526298Y00572088D01*
X00526534Y00572550D01*
X00535550D01*
Y00562314D01*
X00535000D01*
X00533732Y00562062D01*
X00532657Y00561343D01*
X00530657Y00559343D01*
X00529939Y00558268D01*
X00529736Y00557250D01*
X00527000D01*
Y00545250D01*
X00539000D01*
Y00555686D01*
X00541750D01*
Y00546000D01*
X00543432D01*
Y00543250D01*
X00541000D01*
Y00531250D01*
X00553000D01*
Y00543250D01*
X00550569D01*
Y00546000D01*
X00553750D01*
Y00553453D01*
X00554583Y00554286D01*
X00554824Y00554468D01*
X00555885D01*
X00556125Y00554286D01*
X00558250Y00552162D01*
Y00546000D01*
X00561431D01*
Y00543250D01*
X00559000D01*
Y00531250D01*
X00571000D01*
Y00543250D01*
X00568569D01*
Y00546000D01*
X00570250D01*
Y00558000D01*
X00562505D01*
X00562173Y00558332D01*
Y00560450D01*
X00562450D01*
Y00572550D01*
X00574550D01*
Y00579182D01*
X00576522D01*
X00577000Y00578703D01*
Y00571750D01*
X00589000D01*
Y00573432D01*
X00591750D01*
Y00571000D01*
X00603750D01*
Y00583000D01*
X00591750D01*
Y00580569D01*
X00589000D01*
Y00583750D01*
X00582047D01*
X00580568Y00585229D01*
X00580386Y00585470D01*
Y00586530D01*
X00580568Y00586771D01*
X00582047Y00588250D01*
X00589000D01*
Y00590681D01*
X00591750D01*
Y00589000D01*
X00603750D01*
Y00601000D01*
X00591750D01*
Y00597819D01*
X00589000D01*
Y00600250D01*
X00577000D01*
Y00593297D01*
X00576522Y00592819D01*
X00574550D01*
Y00599450D01*
X00571238D01*
X00571145Y00600720D01*
X00571451Y00601026D01*
X00572250Y00602956D01*
Y00605044D01*
X00571451Y00606974D01*
X00569974Y00608451D01*
X00568044Y00609250D01*
X00565956D01*
X00564026Y00608451D01*
X00563776Y00608200D01*
X00562506Y00608700D01*
X00562285Y00609812D01*
X00562173Y00609979D01*
Y00613668D01*
X00562505Y00614000D01*
X00570250D01*
Y00626000D01*
X00567818D01*
Y00629000D01*
X00571000D01*
Y00641000D01*
D02*
G37*
G36*
X00660316Y00635300D02*
X00657683D01*
X00655140Y00634619D01*
X00652860Y00633302D01*
X00650998Y00631440D01*
X00649681Y00629160D01*
X00649000Y00626617D01*
Y00623983D01*
X00649681Y00621440D01*
X00650998Y00619160D01*
X00652860Y00617298D01*
X00655140Y00615982D01*
X00657683Y00615300D01*
X00660316D01*
X00662860Y00615982D01*
X00665140Y00617298D01*
X00667002Y00619160D01*
X00668318Y00621440D01*
X00669000Y00623983D01*
Y00626617D01*
X00668318Y00629160D01*
X00667002Y00631440D01*
X00665140Y00633302D01*
X00662860Y00634619D01*
X00660316Y00635300D01*
D02*
G37*
G36*
X00712044Y00670250D02*
X00709956D01*
X00708026Y00669451D01*
X00706549Y00667974D01*
X00705750Y00666044D01*
Y00663956D01*
X00706549Y00662026D01*
X00708026Y00660549D01*
X00709956Y00659750D01*
X00712044D01*
X00713642Y00660412D01*
X00719100D01*
X00727412Y00652100D01*
Y00615642D01*
X00726750Y00614044D01*
Y00611956D01*
X00727549Y00610026D01*
X00729026Y00608549D01*
X00730956Y00607750D01*
X00733044D01*
X00734974Y00608549D01*
X00736451Y00610026D01*
X00737250Y00611956D01*
Y00614044D01*
X00736588Y00615642D01*
Y00654000D01*
X00736239Y00655756D01*
X00735244Y00657244D01*
X00724244Y00668244D01*
X00722756Y00669239D01*
X00721000Y00669588D01*
X00713642D01*
X00712044Y00670250D01*
D02*
G37*
G36*
X00281416Y00608100D02*
X00278783D01*
X00276240Y00607419D01*
X00273960Y00606102D01*
X00272098Y00604240D01*
X00270781Y00601960D01*
X00270100Y00599417D01*
Y00596783D01*
X00270781Y00594240D01*
X00272098Y00591960D01*
X00273960Y00590098D01*
X00276240Y00588782D01*
X00278783Y00588100D01*
X00281416D01*
X00283960Y00588782D01*
X00286240Y00590098D01*
X00288102Y00591960D01*
X00289419Y00594240D01*
X00289470Y00594431D01*
X00364144D01*
X00365026Y00593549D01*
X00366956Y00592750D01*
X00369044D01*
X00370974Y00593549D01*
X00372451Y00595026D01*
X00373250Y00596956D01*
Y00599044D01*
X00372451Y00600974D01*
X00370974Y00602451D01*
X00369044Y00603250D01*
X00366956D01*
X00365026Y00602451D01*
X00364144Y00601569D01*
X00289523D01*
X00289419Y00601960D01*
X00288102Y00604240D01*
X00286240Y00606102D01*
X00283960Y00607419D01*
X00281416Y00608100D01*
D02*
G37*
G36*
Y00582700D02*
X00278783D01*
X00276240Y00582019D01*
X00273960Y00580702D01*
X00272098Y00578840D01*
X00270781Y00576560D01*
X00270100Y00574017D01*
Y00571384D01*
X00270781Y00568840D01*
X00272098Y00566560D01*
X00273960Y00564698D01*
X00276240Y00563382D01*
X00278783Y00562700D01*
X00281416D01*
X00283960Y00563382D01*
X00286240Y00564698D01*
X00288102Y00566560D01*
X00289419Y00568840D01*
X00290100Y00571384D01*
Y00574017D01*
X00289419Y00576560D01*
X00288102Y00578840D01*
X00286240Y00580702D01*
X00283960Y00582019D01*
X00281416Y00582700D01*
D02*
G37*
G36*
X00620250Y00601000D02*
X00608250D01*
Y00589000D01*
X00615203D01*
X00617282Y00586921D01*
X00617440Y00585783D01*
X00617233Y00585279D01*
X00614953Y00583000D01*
X00608250D01*
Y00571000D01*
X00620250D01*
Y00578203D01*
X00621478Y00579431D01*
X00688522D01*
X00693431Y00574522D01*
Y00560856D01*
X00692549Y00559974D01*
X00691750Y00558044D01*
Y00555956D01*
X00692549Y00554026D01*
X00694026Y00552549D01*
X00695956Y00551750D01*
X00698044D01*
X00699974Y00552549D01*
X00701451Y00554026D01*
X00702250Y00555956D01*
Y00558044D01*
X00701731Y00559297D01*
X00702703Y00560269D01*
X00703956Y00559750D01*
X00706044D01*
X00707974Y00560549D01*
X00709451Y00562026D01*
X00710250Y00563956D01*
Y00566044D01*
X00709451Y00567974D01*
X00708569Y00568856D01*
Y00577000D01*
X00708297Y00578366D01*
X00707523Y00579523D01*
X00695523Y00591523D01*
X00694366Y00592297D01*
X00693000Y00592569D01*
X00621728D01*
X00620250Y00594047D01*
Y00601000D01*
D02*
G37*
G36*
X00281416Y00557300D02*
X00278783D01*
X00276240Y00556618D01*
X00273960Y00555302D01*
X00272098Y00553440D01*
X00270781Y00551160D01*
X00270100Y00548617D01*
Y00545984D01*
X00270781Y00543440D01*
X00272098Y00541160D01*
X00273960Y00539298D01*
X00276240Y00537982D01*
X00278783Y00537300D01*
X00281416D01*
X00283960Y00537982D01*
X00286240Y00539298D01*
X00288102Y00541160D01*
X00289419Y00543440D01*
X00290100Y00545984D01*
Y00548617D01*
X00289419Y00551160D01*
X00288102Y00553440D01*
X00286240Y00555302D01*
X00283960Y00556618D01*
X00281416Y00557300D01*
D02*
G37*
G36*
X00539000Y00540750D02*
X00527000D01*
Y00528750D01*
X00527601D01*
X00527717Y00528655D01*
X00528345Y00527480D01*
X00527750Y00526044D01*
Y00523956D01*
X00528549Y00522026D01*
X00530026Y00520549D01*
X00531956Y00519750D01*
X00534044D01*
X00535974Y00520549D01*
X00537451Y00522026D01*
X00538250Y00523956D01*
Y00526044D01*
X00537655Y00527480D01*
X00538283Y00528655D01*
X00538399Y00528750D01*
X00539000D01*
Y00540750D01*
D02*
G37*
G36*
X00571000Y00526750D02*
X00559000D01*
Y00519547D01*
X00556921Y00517468D01*
X00555783Y00517309D01*
X00555279Y00517517D01*
X00553000Y00519797D01*
Y00526750D01*
X00541000D01*
Y00514750D01*
X00547953D01*
X00549431Y00513272D01*
Y00453000D01*
X00549703Y00451634D01*
X00550477Y00450477D01*
X00584477Y00416477D01*
X00585634Y00415703D01*
X00587000Y00415431D01*
X00693144D01*
X00694026Y00414549D01*
X00695956Y00413750D01*
X00698044D01*
X00699974Y00414549D01*
X00701451Y00416026D01*
X00702250Y00417956D01*
Y00420044D01*
X00701731Y00421297D01*
X00702703Y00422269D01*
X00703956Y00421750D01*
X00706044D01*
X00707974Y00422549D01*
X00709451Y00424026D01*
X00710250Y00425956D01*
Y00428044D01*
X00709451Y00429974D01*
X00707974Y00431451D01*
X00706044Y00432250D01*
X00703956D01*
X00702026Y00431451D01*
X00701144Y00430569D01*
X00588478D01*
X00562569Y00456478D01*
Y00513022D01*
X00564297Y00514750D01*
X00571000D01*
Y00526750D01*
D02*
G37*
G36*
X00281416Y00531900D02*
X00278783D01*
X00276240Y00531218D01*
X00273960Y00529902D01*
X00272098Y00528040D01*
X00270781Y00525760D01*
X00270100Y00523217D01*
Y00520583D01*
X00270781Y00518040D01*
X00272098Y00515760D01*
X00273960Y00513898D01*
X00276240Y00512582D01*
X00278783Y00511900D01*
X00281416D01*
X00283960Y00512582D01*
X00286240Y00513898D01*
X00288102Y00515760D01*
X00289419Y00518040D01*
X00290100Y00520583D01*
Y00523217D01*
X00289419Y00525760D01*
X00288102Y00528040D01*
X00286240Y00529902D01*
X00283960Y00531218D01*
X00281416Y00531900D01*
D02*
G37*
G36*
X00663000Y00522818D02*
X00655000D01*
X00652659Y00522352D01*
X00650674Y00521026D01*
X00649348Y00519041D01*
X00648882Y00516700D01*
Y00508700D01*
X00649348Y00506359D01*
X00650674Y00504374D01*
X00652659Y00503048D01*
X00655000Y00502583D01*
X00663000D01*
X00665341Y00503048D01*
X00667326Y00504374D01*
X00668652Y00506359D01*
X00669118Y00508700D01*
Y00516700D01*
X00668652Y00519041D01*
X00667326Y00521026D01*
X00665341Y00522352D01*
X00663000Y00522818D01*
D02*
G37*
G36*
X00459216Y00557300D02*
X00456584D01*
X00454040Y00556618D01*
X00451760Y00555302D01*
X00449898Y00553440D01*
X00448582Y00551160D01*
X00447900Y00548617D01*
Y00545984D01*
X00448582Y00543440D01*
X00449898Y00541160D01*
X00451760Y00539298D01*
X00454040Y00537982D01*
X00456584Y00537300D01*
X00459216D01*
X00461760Y00537982D01*
X00462021Y00538132D01*
X00488431Y00511722D01*
Y00498075D01*
X00487258Y00497589D01*
X00467068Y00517779D01*
X00467219Y00518040D01*
X00467900Y00520583D01*
Y00523217D01*
X00467219Y00525760D01*
X00465902Y00528040D01*
X00464040Y00529902D01*
X00461760Y00531218D01*
X00459216Y00531900D01*
X00456584D01*
X00454040Y00531218D01*
X00451760Y00529902D01*
X00449898Y00528040D01*
X00448582Y00525760D01*
X00447900Y00523217D01*
Y00520583D01*
X00448582Y00518040D01*
X00449898Y00515760D01*
X00451760Y00513898D01*
X00454040Y00512582D01*
X00456584Y00511900D01*
X00459216D01*
X00461760Y00512582D01*
X00462021Y00512732D01*
X00482431Y00492322D01*
Y00453275D01*
X00481258Y00452789D01*
X00467068Y00466979D01*
X00467219Y00467240D01*
X00467900Y00469784D01*
Y00472417D01*
X00467219Y00474960D01*
X00465902Y00477240D01*
X00464040Y00479102D01*
X00461760Y00480419D01*
X00459216Y00481100D01*
X00456584D01*
X00454040Y00480419D01*
X00451760Y00479102D01*
X00449898Y00477240D01*
X00448582Y00474960D01*
X00447900Y00472417D01*
Y00469784D01*
X00448582Y00467240D01*
X00449898Y00464960D01*
X00451760Y00463098D01*
X00454040Y00461782D01*
X00456584Y00461100D01*
X00459216D01*
X00461760Y00461782D01*
X00462021Y00461932D01*
X00476431Y00447522D01*
Y00433875D01*
X00475258Y00433389D01*
X00467068Y00441579D01*
X00467219Y00441840D01*
X00467900Y00444384D01*
Y00447017D01*
X00467219Y00449560D01*
X00465902Y00451840D01*
X00464040Y00453702D01*
X00461760Y00455019D01*
X00459216Y00455700D01*
X00456584D01*
X00454040Y00455019D01*
X00451760Y00453702D01*
X00449898Y00451840D01*
X00448582Y00449560D01*
X00447900Y00447017D01*
Y00444384D01*
X00448582Y00441840D01*
X00449898Y00439560D01*
X00451760Y00437698D01*
X00454040Y00436382D01*
X00456584Y00435700D01*
X00459216D01*
X00461760Y00436382D01*
X00462021Y00436532D01*
X00470431Y00428122D01*
Y00408000D01*
X00470703Y00406634D01*
X00471477Y00405477D01*
X00493477Y00383477D01*
X00494634Y00382703D01*
X00496000Y00382431D01*
X00750522D01*
X00754431Y00378522D01*
Y00248856D01*
X00753549Y00247974D01*
X00752750Y00246044D01*
Y00243956D01*
X00753549Y00242026D01*
X00755026Y00240549D01*
X00756956Y00239750D01*
X00759044D01*
X00760974Y00240549D01*
X00762451Y00242026D01*
X00763250Y00243956D01*
Y00246044D01*
X00762451Y00247974D01*
X00761569Y00248856D01*
Y00380000D01*
X00761297Y00381366D01*
X00760523Y00382523D01*
X00755789Y00387258D01*
X00756275Y00388431D01*
X00782000D01*
X00783366Y00388703D01*
X00784523Y00389477D01*
X00811523Y00416477D01*
X00812297Y00417634D01*
X00812569Y00419000D01*
Y00491144D01*
X00813451Y00492026D01*
X00814250Y00493956D01*
Y00496044D01*
X00813451Y00497974D01*
X00811974Y00499451D01*
X00810044Y00500250D01*
X00807956D01*
X00806026Y00499451D01*
X00804549Y00497974D01*
X00803750Y00496044D01*
Y00493956D01*
X00804549Y00492026D01*
X00805431Y00491144D01*
Y00479672D01*
X00804161Y00479263D01*
X00802974Y00480451D01*
X00801044Y00481250D01*
X00798956D01*
X00797026Y00480451D01*
X00795549Y00478974D01*
X00794750Y00477044D01*
Y00474956D01*
X00795549Y00473026D01*
X00795592Y00472984D01*
X00794872Y00471907D01*
X00794044Y00472250D01*
X00791956D01*
X00790026Y00471451D01*
X00788549Y00469974D01*
X00787750Y00468044D01*
Y00465956D01*
X00788549Y00464026D01*
X00789431Y00463144D01*
Y00420478D01*
X00775522Y00406569D01*
X00505478D01*
X00495569Y00416478D01*
Y00494164D01*
Y00513200D01*
X00495297Y00514566D01*
X00494523Y00515723D01*
X00467068Y00543179D01*
X00467219Y00543440D01*
X00467900Y00545984D01*
Y00548617D01*
X00467219Y00551160D01*
X00465902Y00553440D01*
X00464040Y00555302D01*
X00461760Y00556618D01*
X00459216Y00557300D01*
D02*
G37*
G36*
X00660316Y00497300D02*
X00657683D01*
X00655140Y00496618D01*
X00652860Y00495302D01*
X00650998Y00493440D01*
X00649681Y00491160D01*
X00649000Y00488617D01*
Y00485984D01*
X00649681Y00483440D01*
X00650998Y00481160D01*
X00652860Y00479298D01*
X00655140Y00477981D01*
X00657683Y00477300D01*
X00660316D01*
X00662860Y00477981D01*
X00665140Y00479298D01*
X00667002Y00481160D01*
X00668318Y00483440D01*
X00669000Y00485984D01*
Y00488617D01*
X00668318Y00491160D01*
X00667002Y00493440D01*
X00665140Y00495302D01*
X00662860Y00496618D01*
X00660316Y00497300D01*
D02*
G37*
G36*
X00712044Y00532250D02*
X00709956D01*
X00708026Y00531451D01*
X00706549Y00529974D01*
X00705750Y00528044D01*
Y00525956D01*
X00706549Y00524026D01*
X00708026Y00522549D01*
X00709956Y00521750D01*
X00712044D01*
X00713642Y00522412D01*
X00719100D01*
X00727412Y00514100D01*
Y00477642D01*
X00726750Y00476044D01*
Y00473956D01*
X00727549Y00472026D01*
X00729026Y00470549D01*
X00730956Y00469750D01*
X00733044D01*
X00734974Y00470549D01*
X00736451Y00472026D01*
X00737250Y00473956D01*
Y00476044D01*
X00736588Y00477642D01*
Y00516000D01*
X00736239Y00517756D01*
X00735244Y00519244D01*
X00724244Y00530244D01*
X00722756Y00531239D01*
X00721000Y00531588D01*
X00713642D01*
X00712044Y00532250D01*
D02*
G37*
G36*
X00281416Y00481100D02*
X00278783D01*
X00276240Y00480419D01*
X00273960Y00479102D01*
X00272098Y00477240D01*
X00270781Y00474960D01*
X00270100Y00472417D01*
Y00469784D01*
X00270781Y00467240D01*
X00272098Y00464960D01*
X00273960Y00463098D01*
X00276240Y00461782D01*
X00278783Y00461100D01*
X00281416D01*
X00283960Y00461782D01*
X00286240Y00463098D01*
X00288102Y00464960D01*
X00289419Y00467240D01*
X00290100Y00469784D01*
Y00472417D01*
X00289419Y00474960D01*
X00288102Y00477240D01*
X00286240Y00479102D01*
X00283960Y00480419D01*
X00281416Y00481100D01*
D02*
G37*
G36*
X00851330Y00486598D02*
X00848670D01*
X00848178Y00486500D01*
X00847676D01*
X00845068Y00485981D01*
X00844604Y00485789D01*
X00844111Y00485691D01*
X00841655Y00484673D01*
X00841237Y00484394D01*
X00840773Y00484202D01*
X00838562Y00482725D01*
X00838207Y00482370D01*
X00837790Y00482091D01*
X00835909Y00480210D01*
X00835630Y00479793D01*
X00835275Y00479438D01*
X00833798Y00477227D01*
X00833605Y00476763D01*
X00833327Y00476345D01*
X00832309Y00473889D01*
X00832211Y00473396D01*
X00832019Y00472932D01*
X00831500Y00470324D01*
Y00469822D01*
X00831402Y00469330D01*
Y00466670D01*
X00831500Y00466178D01*
Y00465676D01*
X00832019Y00463068D01*
X00832211Y00462604D01*
X00832309Y00462111D01*
X00833327Y00459654D01*
X00833605Y00459237D01*
X00833798Y00458773D01*
X00835275Y00456562D01*
X00835630Y00456207D01*
X00835909Y00455789D01*
X00837790Y00453909D01*
X00838207Y00453630D01*
X00838562Y00453275D01*
X00840773Y00451798D01*
X00841237Y00451605D01*
X00841655Y00451326D01*
X00844111Y00450309D01*
X00844604Y00450211D01*
X00845068Y00450019D01*
X00847676Y00449500D01*
X00848178D01*
X00848670Y00449402D01*
X00851330D01*
X00851822Y00449500D01*
X00852324D01*
X00854932Y00450019D01*
X00855396Y00450211D01*
X00855889Y00450309D01*
X00858345Y00451326D01*
X00858763Y00451605D01*
X00859227Y00451798D01*
X00861438Y00453275D01*
X00861793Y00453630D01*
X00862210Y00453909D01*
X00864091Y00455789D01*
X00864370Y00456207D01*
X00864725Y00456562D01*
X00866202Y00458773D01*
X00866395Y00459237D01*
X00866673Y00459654D01*
X00867691Y00462111D01*
X00867789Y00462604D01*
X00867981Y00463068D01*
X00868500Y00465676D01*
Y00466178D01*
X00868598Y00466670D01*
Y00469330D01*
X00868500Y00469822D01*
Y00470324D01*
X00867981Y00472932D01*
X00867789Y00473396D01*
X00867691Y00473889D01*
X00866673Y00476345D01*
X00866395Y00476763D01*
X00866202Y00477227D01*
X00864725Y00479438D01*
X00864370Y00479793D01*
X00864091Y00480210D01*
X00862210Y00482091D01*
X00861793Y00482370D01*
X00861438Y00482725D01*
X00859227Y00484202D01*
X00858763Y00484394D01*
X00858345Y00484673D01*
X00855889Y00485691D01*
X00855396Y00485789D01*
X00854932Y00485981D01*
X00852324Y00486500D01*
X00851822D01*
X00851330Y00486598D01*
D02*
G37*
G36*
X00091330D02*
X00088670D01*
X00088178Y00486500D01*
X00087676D01*
X00085068Y00485981D01*
X00084604Y00485789D01*
X00084111Y00485691D01*
X00081654Y00484673D01*
X00081237Y00484394D01*
X00080773Y00484202D01*
X00078562Y00482725D01*
X00078207Y00482370D01*
X00077790Y00482091D01*
X00075909Y00480210D01*
X00075630Y00479793D01*
X00075275Y00479438D01*
X00073798Y00477227D01*
X00073605Y00476763D01*
X00073327Y00476345D01*
X00072309Y00473889D01*
X00072211Y00473396D01*
X00072019Y00472932D01*
X00071500Y00470324D01*
Y00469822D01*
X00071402Y00469330D01*
Y00466670D01*
X00071500Y00466178D01*
Y00465676D01*
X00072019Y00463068D01*
X00072211Y00462604D01*
X00072309Y00462111D01*
X00073327Y00459654D01*
X00073605Y00459237D01*
X00073798Y00458773D01*
X00075275Y00456562D01*
X00075630Y00456207D01*
X00075909Y00455789D01*
X00077790Y00453909D01*
X00078207Y00453630D01*
X00078562Y00453275D01*
X00080773Y00451798D01*
X00081237Y00451605D01*
X00081654Y00451326D01*
X00084111Y00450309D01*
X00084604Y00450211D01*
X00085068Y00450019D01*
X00087676Y00449500D01*
X00088178D01*
X00088670Y00449402D01*
X00091330D01*
X00091822Y00449500D01*
X00092324D01*
X00094932Y00450019D01*
X00095396Y00450211D01*
X00095889Y00450309D01*
X00098345Y00451326D01*
X00098763Y00451605D01*
X00099227Y00451798D01*
X00101438Y00453275D01*
X00101793Y00453630D01*
X00102211Y00453909D01*
X00104091Y00455789D01*
X00104370Y00456207D01*
X00104725Y00456562D01*
X00106202Y00458773D01*
X00106395Y00459237D01*
X00106673Y00459654D01*
X00107691Y00462111D01*
X00107789Y00462604D01*
X00107981Y00463068D01*
X00108500Y00465676D01*
Y00466178D01*
X00108598Y00466670D01*
Y00469330D01*
X00108500Y00469822D01*
Y00470324D01*
X00107981Y00472932D01*
X00107789Y00473396D01*
X00107691Y00473889D01*
X00106673Y00476345D01*
X00106395Y00476763D01*
X00106202Y00477227D01*
X00104725Y00479438D01*
X00104370Y00479793D01*
X00104091Y00480210D01*
X00102211Y00482091D01*
X00101793Y00482370D01*
X00101438Y00482725D01*
X00099227Y00484202D01*
X00098763Y00484394D01*
X00098345Y00484673D01*
X00095889Y00485691D01*
X00095396Y00485789D01*
X00094932Y00485981D01*
X00092324Y00486500D01*
X00091822D01*
X00091330Y00486598D01*
D02*
G37*
G36*
X00281416Y00455700D02*
X00278783D01*
X00276240Y00455019D01*
X00273960Y00453702D01*
X00272098Y00451840D01*
X00270781Y00449560D01*
X00270100Y00447017D01*
Y00444384D01*
X00270781Y00441840D01*
X00272098Y00439560D01*
X00273960Y00437698D01*
X00276240Y00436382D01*
X00278783Y00435700D01*
X00281416D01*
X00283960Y00436382D01*
X00286240Y00437698D01*
X00288102Y00439560D01*
X00289419Y00441840D01*
X00290100Y00444384D01*
Y00447017D01*
X00289419Y00449560D01*
X00288102Y00451840D01*
X00286240Y00453702D01*
X00283960Y00455019D01*
X00281416Y00455700D01*
D02*
G37*
G36*
X00459216Y00430300D02*
X00456584D01*
X00454040Y00429618D01*
X00451760Y00428302D01*
X00449898Y00426440D01*
X00448582Y00424160D01*
X00447900Y00421617D01*
Y00418983D01*
X00448582Y00416440D01*
X00449898Y00414160D01*
X00451760Y00412298D01*
X00454040Y00410982D01*
X00456584Y00410300D01*
X00459216D01*
X00461760Y00410982D01*
X00464040Y00412298D01*
X00465902Y00414160D01*
X00467219Y00416440D01*
X00467900Y00418983D01*
Y00421617D01*
X00467219Y00424160D01*
X00465902Y00426440D01*
X00464040Y00428302D01*
X00461760Y00429618D01*
X00459216Y00430300D01*
D02*
G37*
G36*
X00281416D02*
X00278783D01*
X00276240Y00429618D01*
X00273960Y00428302D01*
X00272098Y00426440D01*
X00270781Y00424160D01*
X00270100Y00421617D01*
Y00418983D01*
X00270781Y00416440D01*
X00272098Y00414160D01*
X00273960Y00412298D01*
X00276240Y00410982D01*
X00278783Y00410300D01*
X00281416D01*
X00283960Y00410982D01*
X00286240Y00412298D01*
X00288102Y00414160D01*
X00289419Y00416440D01*
X00290100Y00418983D01*
Y00421617D01*
X00289419Y00424160D01*
X00288102Y00426440D01*
X00286240Y00428302D01*
X00283960Y00429618D01*
X00281416Y00430300D01*
D02*
G37*
G36*
X00459216Y00404900D02*
X00456584D01*
X00454040Y00404218D01*
X00451760Y00402902D01*
X00449898Y00401040D01*
X00448582Y00398760D01*
X00447900Y00396217D01*
Y00394226D01*
X00443837Y00390163D01*
X00443174Y00389170D01*
X00442941Y00388000D01*
X00442941Y00388000D01*
Y00361000D01*
X00442941Y00361000D01*
X00443174Y00359829D01*
X00443837Y00358837D01*
X00447837Y00354837D01*
X00447837Y00354837D01*
X00448829Y00354174D01*
X00450000Y00353941D01*
X00452406D01*
X00452746Y00352671D01*
X00451760Y00352102D01*
X00449898Y00350240D01*
X00448582Y00347960D01*
X00447900Y00345417D01*
Y00342784D01*
X00448582Y00340240D01*
X00449898Y00337960D01*
X00451760Y00336098D01*
X00454040Y00334782D01*
X00456584Y00334100D01*
X00459216D01*
X00461760Y00334782D01*
X00464040Y00336098D01*
X00465902Y00337960D01*
X00467219Y00340240D01*
X00467433Y00341041D01*
X00471633D01*
X00484837Y00327837D01*
X00484837Y00327837D01*
X00484851Y00327828D01*
X00484466Y00326558D01*
X00464184D01*
X00464040Y00326702D01*
X00461760Y00328018D01*
X00459216Y00328700D01*
X00456584D01*
X00454040Y00328018D01*
X00451760Y00326702D01*
X00449898Y00324840D01*
X00448582Y00322560D01*
X00447900Y00320017D01*
Y00317383D01*
X00448582Y00314840D01*
X00449898Y00312560D01*
X00451760Y00310698D01*
X00454040Y00309382D01*
X00456584Y00308700D01*
X00459216D01*
X00461760Y00309382D01*
X00464040Y00310698D01*
X00465902Y00312560D01*
X00467219Y00314840D01*
X00467900Y00317383D01*
Y00320017D01*
X00468225Y00320440D01*
X00502234D01*
X00502941Y00319733D01*
Y00317283D01*
X00502815Y00316185D01*
X00501717Y00316059D01*
X00494366D01*
X00492974Y00317451D01*
X00491044Y00318250D01*
X00488956D01*
X00487026Y00317451D01*
X00485549Y00315974D01*
X00484750Y00314044D01*
Y00311956D01*
X00485549Y00310026D01*
X00486941Y00308634D01*
Y00282000D01*
X00486941Y00282000D01*
X00487174Y00280830D01*
X00487837Y00279837D01*
X00487837Y00279837D01*
X00494115Y00273560D01*
X00494115Y00273560D01*
X00495107Y00272897D01*
X00496278Y00272664D01*
X00496278Y00272664D01*
X00504664D01*
X00504664Y00258000D01*
X00501750D01*
Y00246000D01*
X00513750D01*
Y00258000D01*
X00510781D01*
Y00261526D01*
X00512051Y00262375D01*
X00512956Y00262000D01*
X00515044D01*
X00516480Y00262595D01*
X00517750Y00261916D01*
Y00260000D01*
X00529750D01*
Y00272000D01*
X00526809D01*
Y00273250D01*
X00526576Y00274421D01*
X00525913Y00275413D01*
X00521059Y00280267D01*
Y00287800D01*
X00521049Y00287849D01*
Y00289026D01*
X00521671Y00289455D01*
X00522941Y00288787D01*
Y00285598D01*
X00522961Y00285500D01*
Y00284600D01*
X00523116Y00283820D01*
X00523558Y00283158D01*
X00524220Y00282716D01*
X00525000Y00282561D01*
X00525892D01*
X00526000Y00282539D01*
X00538838Y00282539D01*
X00539750Y00281628D01*
Y00274000D01*
X00544953D01*
X00551431Y00267522D01*
Y00264856D01*
X00550549Y00263974D01*
X00549750Y00262044D01*
Y00259956D01*
X00550549Y00258026D01*
X00552026Y00256549D01*
X00553956Y00255750D01*
X00556044D01*
X00557974Y00256549D01*
X00559451Y00258026D01*
X00560250Y00259956D01*
Y00262044D01*
X00559451Y00263974D01*
X00558569Y00264856D01*
Y00269000D01*
X00558297Y00270366D01*
X00557523Y00271523D01*
X00556259Y00272787D01*
X00556745Y00273961D01*
X00580000D01*
X00580780Y00274116D01*
X00581442Y00274558D01*
X00581884Y00275220D01*
X00582039Y00276000D01*
Y00303961D01*
X00597000D01*
X00597780Y00304116D01*
X00598442Y00304558D01*
X00598884Y00305220D01*
X00599039Y00306000D01*
Y00333000D01*
X00598884Y00333780D01*
X00598442Y00334442D01*
X00597780Y00334884D01*
X00597000Y00335039D01*
X00568000D01*
X00567220Y00334884D01*
X00566558Y00334442D01*
X00566116Y00333780D01*
X00565961Y00333000D01*
Y00306039D01*
X00537000D01*
X00536400Y00305920D01*
X00536336Y00306068D01*
X00536255Y00306475D01*
X00535991Y00306871D01*
X00535923Y00307028D01*
X00536255Y00307525D01*
X00536449Y00308500D01*
Y00309500D01*
X00536255Y00310475D01*
X00535702Y00311302D01*
X00534875Y00311855D01*
X00534146Y00312000D01*
X00528000D01*
Y00313500D01*
X00528500Y00314000D01*
X00529000D01*
Y00315303D01*
X00529039Y00315500D01*
Y00316102D01*
X00529059Y00316200D01*
Y00320200D01*
X00529039Y00320298D01*
Y00321400D01*
X00528884Y00322180D01*
X00528442Y00322842D01*
X00527780Y00323284D01*
X00527000Y00323439D01*
X00525000D01*
X00524220Y00323284D01*
X00523558Y00322842D01*
X00523116Y00322180D01*
X00522961Y00321400D01*
Y00320298D01*
X00522941Y00320200D01*
Y00317000D01*
X00521049D01*
Y00320900D01*
X00520855Y00321875D01*
X00520302Y00322702D01*
X00519475Y00323255D01*
X00518500Y00323449D01*
X00517500D01*
X00517059Y00323811D01*
Y00330000D01*
X00521750D01*
Y00342000D01*
X00509750D01*
Y00339059D01*
X00489267D01*
X00469163Y00359163D01*
X00468171Y00359826D01*
X00467000Y00360059D01*
X00467000Y00360059D01*
X00451267D01*
X00449059Y00362267D01*
Y00386733D01*
X00450492Y00388166D01*
X00451760Y00386898D01*
X00454040Y00385582D01*
X00456584Y00384900D01*
X00459216D01*
X00461760Y00385582D01*
X00464040Y00386898D01*
X00465902Y00388760D01*
X00467219Y00391040D01*
X00467900Y00393583D01*
Y00396217D01*
X00467219Y00398760D01*
X00465902Y00401040D01*
X00464040Y00402902D01*
X00461760Y00404218D01*
X00459216Y00404900D01*
D02*
G37*
G36*
X00281416D02*
X00278783D01*
X00276240Y00404218D01*
X00273960Y00402902D01*
X00272098Y00401040D01*
X00270781Y00398760D01*
X00270100Y00396217D01*
Y00393583D01*
X00270781Y00391040D01*
X00272098Y00388760D01*
X00273960Y00386898D01*
X00276240Y00385582D01*
X00278783Y00384900D01*
X00281416D01*
X00283960Y00385582D01*
X00286240Y00386898D01*
X00288102Y00388760D01*
X00289419Y00391040D01*
X00290100Y00393583D01*
Y00396217D01*
X00289419Y00398760D01*
X00288102Y00401040D01*
X00286240Y00402902D01*
X00283960Y00404218D01*
X00281416Y00404900D01*
D02*
G37*
G36*
X00851330Y00388598D02*
X00848670D01*
X00848178Y00388500D01*
X00847676D01*
X00845068Y00387981D01*
X00844604Y00387789D01*
X00844111Y00387691D01*
X00841655Y00386673D01*
X00841237Y00386395D01*
X00840773Y00386202D01*
X00838562Y00384725D01*
X00838207Y00384370D01*
X00837790Y00384091D01*
X00835909Y00382211D01*
X00835630Y00381793D01*
X00835275Y00381438D01*
X00833798Y00379227D01*
X00833605Y00378763D01*
X00833327Y00378345D01*
X00832309Y00375889D01*
X00832211Y00375396D01*
X00832019Y00374932D01*
X00831500Y00372324D01*
Y00371822D01*
X00831402Y00371330D01*
Y00368670D01*
X00831500Y00368178D01*
Y00367676D01*
X00832019Y00365068D01*
X00832211Y00364604D01*
X00832309Y00364111D01*
X00833327Y00361654D01*
X00833605Y00361237D01*
X00833798Y00360773D01*
X00835275Y00358562D01*
X00835630Y00358207D01*
X00835909Y00357789D01*
X00837790Y00355909D01*
X00838207Y00355630D01*
X00838562Y00355275D01*
X00840773Y00353798D01*
X00841237Y00353605D01*
X00841655Y00353326D01*
X00844111Y00352309D01*
X00844604Y00352211D01*
X00845068Y00352019D01*
X00847676Y00351500D01*
X00848178D01*
X00848670Y00351402D01*
X00851330D01*
X00851822Y00351500D01*
X00852324D01*
X00854932Y00352019D01*
X00855396Y00352211D01*
X00855889Y00352309D01*
X00858345Y00353326D01*
X00858763Y00353605D01*
X00859227Y00353798D01*
X00861438Y00355275D01*
X00861793Y00355630D01*
X00862210Y00355909D01*
X00864091Y00357789D01*
X00864370Y00358207D01*
X00864725Y00358562D01*
X00866202Y00360773D01*
X00866395Y00361237D01*
X00866673Y00361654D01*
X00867691Y00364111D01*
X00867789Y00364604D01*
X00867981Y00365067D01*
X00868500Y00367676D01*
Y00368178D01*
X00868598Y00368670D01*
Y00371330D01*
X00868500Y00371822D01*
Y00372324D01*
X00867981Y00374932D01*
X00867789Y00375396D01*
X00867691Y00375889D01*
X00866673Y00378345D01*
X00866395Y00378763D01*
X00866202Y00379227D01*
X00864725Y00381438D01*
X00864370Y00381793D01*
X00864091Y00382211D01*
X00862210Y00384091D01*
X00861793Y00384370D01*
X00861438Y00384725D01*
X00859227Y00386202D01*
X00858763Y00386394D01*
X00858345Y00386673D01*
X00855889Y00387691D01*
X00855396Y00387789D01*
X00854932Y00387981D01*
X00852324Y00388500D01*
X00851822D01*
X00851330Y00388598D01*
D02*
G37*
G36*
X00091330D02*
X00088670D01*
X00088178Y00388500D01*
X00087676D01*
X00085068Y00387981D01*
X00084604Y00387789D01*
X00084111Y00387691D01*
X00081654Y00386673D01*
X00081237Y00386395D01*
X00080773Y00386202D01*
X00078562Y00384725D01*
X00078207Y00384370D01*
X00077790Y00384091D01*
X00075909Y00382211D01*
X00075630Y00381793D01*
X00075275Y00381438D01*
X00073798Y00379227D01*
X00073605Y00378763D01*
X00073327Y00378345D01*
X00072309Y00375889D01*
X00072211Y00375396D01*
X00072019Y00374932D01*
X00071500Y00372324D01*
Y00371822D01*
X00071402Y00371330D01*
Y00368670D01*
X00071500Y00368178D01*
Y00367676D01*
X00072019Y00365068D01*
X00072211Y00364604D01*
X00072309Y00364111D01*
X00073327Y00361654D01*
X00073605Y00361237D01*
X00073798Y00360773D01*
X00075275Y00358562D01*
X00075630Y00358207D01*
X00075909Y00357789D01*
X00077790Y00355909D01*
X00078207Y00355630D01*
X00078562Y00355275D01*
X00080773Y00353798D01*
X00081237Y00353605D01*
X00081654Y00353326D01*
X00084111Y00352309D01*
X00084604Y00352211D01*
X00085068Y00352019D01*
X00087676Y00351500D01*
X00088178D01*
X00088670Y00351402D01*
X00091330D01*
X00091822Y00351500D01*
X00092324D01*
X00094932Y00352019D01*
X00095396Y00352211D01*
X00095889Y00352309D01*
X00098345Y00353326D01*
X00098763Y00353605D01*
X00099227Y00353798D01*
X00101438Y00355275D01*
X00101793Y00355630D01*
X00102211Y00355909D01*
X00104091Y00357789D01*
X00104370Y00358207D01*
X00104725Y00358562D01*
X00106202Y00360773D01*
X00106395Y00361237D01*
X00106673Y00361654D01*
X00107691Y00364111D01*
X00107789Y00364604D01*
X00107981Y00365067D01*
X00108500Y00367676D01*
Y00368178D01*
X00108598Y00368670D01*
Y00371330D01*
X00108500Y00371822D01*
Y00372324D01*
X00107981Y00374932D01*
X00107789Y00375396D01*
X00107691Y00375889D01*
X00106673Y00378345D01*
X00106395Y00378763D01*
X00106202Y00379227D01*
X00104725Y00381438D01*
X00104370Y00381793D01*
X00104091Y00382211D01*
X00102211Y00384091D01*
X00101793Y00384370D01*
X00101438Y00384725D01*
X00099227Y00386202D01*
X00098763Y00386394D01*
X00098345Y00386673D01*
X00095889Y00387691D01*
X00095396Y00387789D01*
X00094932Y00387981D01*
X00092324Y00388500D01*
X00091822D01*
X00091330Y00388598D01*
D02*
G37*
G36*
X00281416Y00354100D02*
X00278783D01*
X00276240Y00353419D01*
X00273960Y00352102D01*
X00272098Y00350240D01*
X00270781Y00347960D01*
X00270100Y00345417D01*
Y00342784D01*
X00270781Y00340240D01*
X00272098Y00337960D01*
X00273960Y00336098D01*
X00276240Y00334782D01*
X00278783Y00334100D01*
X00281416D01*
X00283960Y00334782D01*
X00286240Y00336098D01*
X00288102Y00337960D01*
X00289419Y00340240D01*
X00290100Y00342784D01*
Y00345417D01*
X00289419Y00347960D01*
X00288102Y00350240D01*
X00286240Y00352102D01*
X00283960Y00353419D01*
X00281416Y00354100D01*
D02*
G37*
G36*
X00538250Y00342000D02*
X00526250D01*
Y00330000D01*
X00538250D01*
Y00331412D01*
X00540358D01*
X00541956Y00330750D01*
X00544044D01*
X00545974Y00331549D01*
X00547451Y00333026D01*
X00548250Y00334956D01*
Y00337044D01*
X00547451Y00338974D01*
X00545974Y00340451D01*
X00544044Y00341250D01*
X00541956D01*
X00540358Y00340588D01*
X00538250D01*
Y00342000D01*
D02*
G37*
G36*
X00281416Y00328700D02*
X00278783D01*
X00276240Y00328018D01*
X00273960Y00326702D01*
X00272098Y00324840D01*
X00270781Y00322560D01*
X00270100Y00320017D01*
Y00317383D01*
X00270781Y00314840D01*
X00272098Y00312560D01*
X00273960Y00310698D01*
X00276240Y00309382D01*
X00278783Y00308700D01*
X00281416D01*
X00283960Y00309382D01*
X00286240Y00310698D01*
X00288102Y00312560D01*
X00289419Y00314840D01*
X00290100Y00317383D01*
Y00320017D01*
X00289419Y00322560D01*
X00288102Y00324840D01*
X00286240Y00326702D01*
X00283960Y00328018D01*
X00281416Y00328700D01*
D02*
G37*
G36*
X00610330Y00162598D02*
X00607670D01*
X00607178Y00162500D01*
X00606676D01*
X00604068Y00161981D01*
X00603604Y00161789D01*
X00603111Y00161691D01*
X00600654Y00160673D01*
X00600237Y00160394D01*
X00599773Y00160202D01*
X00597562Y00158725D01*
X00597207Y00158370D01*
X00596790Y00158091D01*
X00594909Y00156210D01*
X00594630Y00155793D01*
X00594275Y00155438D01*
X00592798Y00153227D01*
X00592606Y00152763D01*
X00592327Y00152346D01*
X00591309Y00149889D01*
X00591211Y00149396D01*
X00591019Y00148932D01*
X00590500Y00146324D01*
Y00145822D01*
X00590402Y00145330D01*
Y00142670D01*
X00590500Y00142178D01*
Y00141676D01*
X00591019Y00139068D01*
X00591211Y00138604D01*
X00591309Y00138111D01*
X00592327Y00135654D01*
X00592606Y00135237D01*
X00592798Y00134773D01*
X00594275Y00132562D01*
X00594630Y00132207D01*
X00594909Y00131789D01*
X00596790Y00129909D01*
X00597207Y00129630D01*
X00597562Y00129275D01*
X00599773Y00127798D01*
X00600237Y00127605D01*
X00600654Y00127326D01*
X00603111Y00126309D01*
X00603604Y00126211D01*
X00604068Y00126019D01*
X00606676Y00125500D01*
X00607178D01*
X00607670Y00125402D01*
X00610330D01*
X00610822Y00125500D01*
X00611324D01*
X00613932Y00126019D01*
X00614396Y00126211D01*
X00614889Y00126309D01*
X00617346Y00127326D01*
X00617763Y00127605D01*
X00618227Y00127798D01*
X00620438Y00129275D01*
X00620793Y00129630D01*
X00621211Y00129909D01*
X00623091Y00131789D01*
X00623370Y00132207D01*
X00623725Y00132562D01*
X00625202Y00134773D01*
X00625395Y00135237D01*
X00625673Y00135654D01*
X00626691Y00138111D01*
X00626789Y00138604D01*
X00626981Y00139068D01*
X00627500Y00141676D01*
Y00142178D01*
X00627598Y00142670D01*
Y00145330D01*
X00627500Y00145822D01*
Y00146324D01*
X00626981Y00148932D01*
X00626789Y00149396D01*
X00626691Y00149889D01*
X00625673Y00152346D01*
X00625395Y00152763D01*
X00625202Y00153227D01*
X00623725Y00155438D01*
X00623370Y00155793D01*
X00623091Y00156210D01*
X00621211Y00158091D01*
X00620793Y00158370D01*
X00620438Y00158725D01*
X00618227Y00160202D01*
X00617763Y00160394D01*
X00617346Y00160673D01*
X00614889Y00161691D01*
X00614396Y00161789D01*
X00613932Y00161981D01*
X00611324Y00162500D01*
X00610822D01*
X00610330Y00162598D01*
D02*
G37*
G36*
X00512330D02*
X00509670D01*
X00509178Y00162500D01*
X00508676D01*
X00506068Y00161981D01*
X00505604Y00161789D01*
X00505111Y00161691D01*
X00502654Y00160673D01*
X00502237Y00160394D01*
X00501773Y00160202D01*
X00499562Y00158725D01*
X00499207Y00158370D01*
X00498789Y00158091D01*
X00496909Y00156210D01*
X00496630Y00155793D01*
X00496275Y00155438D01*
X00494798Y00153227D01*
X00494605Y00152763D01*
X00494327Y00152346D01*
X00493309Y00149889D01*
X00493211Y00149396D01*
X00493019Y00148932D01*
X00492500Y00146324D01*
Y00145822D01*
X00492402Y00145330D01*
Y00142670D01*
X00492500Y00142178D01*
Y00141676D01*
X00493019Y00139068D01*
X00493211Y00138604D01*
X00493309Y00138111D01*
X00494327Y00135654D01*
X00494605Y00135237D01*
X00494798Y00134773D01*
X00496275Y00132562D01*
X00496630Y00132207D01*
X00496909Y00131789D01*
X00498789Y00129909D01*
X00499207Y00129630D01*
X00499562Y00129275D01*
X00501773Y00127798D01*
X00502237Y00127605D01*
X00502654Y00127326D01*
X00505111Y00126309D01*
X00505604Y00126211D01*
X00506068Y00126019D01*
X00508676Y00125500D01*
X00509178D01*
X00509670Y00125402D01*
X00512330D01*
X00512822Y00125500D01*
X00513324D01*
X00515932Y00126019D01*
X00516396Y00126211D01*
X00516889Y00126309D01*
X00519346Y00127326D01*
X00519763Y00127605D01*
X00520227Y00127798D01*
X00522438Y00129275D01*
X00522793Y00129630D01*
X00523210Y00129909D01*
X00525091Y00131789D01*
X00525370Y00132207D01*
X00525725Y00132562D01*
X00527202Y00134773D01*
X00527394Y00135237D01*
X00527673Y00135654D01*
X00528691Y00138111D01*
X00528789Y00138604D01*
X00528981Y00139068D01*
X00529500Y00141676D01*
Y00142178D01*
X00529598Y00142670D01*
Y00145330D01*
X00529500Y00145822D01*
Y00146324D01*
X00528981Y00148932D01*
X00528789Y00149396D01*
X00528691Y00149889D01*
X00527673Y00152346D01*
X00527394Y00152763D01*
X00527202Y00153227D01*
X00525725Y00155438D01*
X00525370Y00155793D01*
X00525091Y00156210D01*
X00523210Y00158091D01*
X00522793Y00158370D01*
X00522438Y00158725D01*
X00520227Y00160202D01*
X00519763Y00160394D01*
X00519346Y00160673D01*
X00516889Y00161691D01*
X00516396Y00161789D01*
X00515932Y00161981D01*
X00513324Y00162500D01*
X00512822D01*
X00512330Y00162598D01*
D02*
G37*
G36*
X00381044Y00146250D02*
X00378956D01*
X00377026Y00145451D01*
X00375549Y00143974D01*
X00374750Y00142044D01*
Y00139956D01*
X00375549Y00138026D01*
X00377026Y00136549D01*
X00377431Y00136381D01*
Y00112421D01*
X00376161Y00112081D01*
X00374540Y00113702D01*
X00372260Y00115019D01*
X00369716Y00115700D01*
X00367084D01*
X00364540Y00115019D01*
X00362260Y00113702D01*
X00360398Y00111840D01*
X00359081Y00109560D01*
X00358400Y00107016D01*
Y00104383D01*
X00359081Y00101840D01*
X00360398Y00099560D01*
X00362260Y00097698D01*
X00364540Y00096382D01*
X00367084Y00095700D01*
X00369716D01*
X00372260Y00096382D01*
X00374540Y00097698D01*
X00376161Y00099319D01*
X00377431Y00098979D01*
Y00087021D01*
X00376161Y00086681D01*
X00374540Y00088302D01*
X00372260Y00089619D01*
X00369716Y00090300D01*
X00367084D01*
X00364540Y00089619D01*
X00362260Y00088302D01*
X00360398Y00086440D01*
X00359081Y00084160D01*
X00358400Y00081616D01*
Y00078983D01*
X00359081Y00076440D01*
X00360398Y00074160D01*
X00362260Y00072298D01*
X00364540Y00070981D01*
X00367084Y00070300D01*
X00369716D01*
X00372260Y00070981D01*
X00374540Y00072298D01*
X00376161Y00073919D01*
X00377431Y00073579D01*
Y00067478D01*
X00368522Y00058569D01*
X00279478D01*
X00270369Y00067678D01*
Y00070903D01*
X00270660Y00070981D01*
X00272940Y00072298D01*
X00274802Y00074160D01*
X00276119Y00076440D01*
X00276800Y00078983D01*
Y00081616D01*
X00276119Y00084160D01*
X00274802Y00086440D01*
X00272940Y00088302D01*
X00270660Y00089619D01*
X00270369Y00089697D01*
Y00096303D01*
X00270660Y00096382D01*
X00272940Y00097698D01*
X00274802Y00099560D01*
X00276119Y00101840D01*
X00276800Y00104383D01*
Y00107016D01*
X00276119Y00109560D01*
X00274802Y00111840D01*
X00272940Y00113702D01*
X00270660Y00115019D01*
X00268116Y00115700D01*
X00265483D01*
X00262940Y00115019D01*
X00260660Y00113702D01*
X00258798Y00111840D01*
X00257481Y00109560D01*
X00256800Y00107016D01*
Y00104383D01*
X00257481Y00101840D01*
X00258798Y00099560D01*
X00260660Y00097698D01*
X00262940Y00096382D01*
X00263231Y00096303D01*
Y00089697D01*
X00262940Y00089619D01*
X00260660Y00088302D01*
X00258798Y00086440D01*
X00257481Y00084160D01*
X00256800Y00081616D01*
Y00078983D01*
X00257481Y00076440D01*
X00258798Y00074160D01*
X00260660Y00072298D01*
X00262940Y00070981D01*
X00263231Y00070903D01*
Y00066200D01*
X00263503Y00064834D01*
X00264277Y00063677D01*
X00275477Y00052477D01*
X00276634Y00051703D01*
X00278000Y00051431D01*
X00370000D01*
X00371366Y00051703D01*
X00372523Y00052477D01*
X00383523Y00063477D01*
X00384297Y00064634D01*
X00384569Y00066000D01*
Y00138311D01*
X00385250Y00139956D01*
Y00142044D01*
X00384451Y00143974D01*
X00382974Y00145451D01*
X00381044Y00146250D01*
D02*
G37*
G36*
X00776116Y00115700D02*
X00773484D01*
X00770940Y00115019D01*
X00768660Y00113702D01*
X00766798Y00111840D01*
X00765481Y00109560D01*
X00764800Y00107016D01*
Y00104383D01*
X00765481Y00101840D01*
X00766798Y00099560D01*
X00768660Y00097698D01*
X00770940Y00096382D01*
X00773484Y00095700D01*
X00776116D01*
X00778660Y00096382D01*
X00780940Y00097698D01*
X00782802Y00099560D01*
X00784118Y00101840D01*
X00784800Y00104383D01*
Y00107016D01*
X00784118Y00109560D01*
X00782802Y00111840D01*
X00780940Y00113702D01*
X00778660Y00115019D01*
X00776116Y00115700D01*
D02*
G37*
G36*
X00750716D02*
X00748083D01*
X00745540Y00115019D01*
X00743260Y00113702D01*
X00741398Y00111840D01*
X00740081Y00109560D01*
X00739400Y00107016D01*
Y00104383D01*
X00740081Y00101840D01*
X00741398Y00099560D01*
X00743260Y00097698D01*
X00745540Y00096382D01*
X00748083Y00095700D01*
X00750716D01*
X00753260Y00096382D01*
X00755540Y00097698D01*
X00757402Y00099560D01*
X00758718Y00101840D01*
X00759400Y00104383D01*
Y00107016D01*
X00758718Y00109560D01*
X00757402Y00111840D01*
X00755540Y00113702D01*
X00753260Y00115019D01*
X00750716Y00115700D01*
D02*
G37*
G36*
X00725316D02*
X00722683D01*
X00720140Y00115019D01*
X00717860Y00113702D01*
X00715998Y00111840D01*
X00714681Y00109560D01*
X00714000Y00107016D01*
Y00104383D01*
X00714681Y00101840D01*
X00715998Y00099560D01*
X00717860Y00097698D01*
X00720140Y00096382D01*
X00722683Y00095700D01*
X00725316D01*
X00727860Y00096382D01*
X00730140Y00097698D01*
X00732002Y00099560D01*
X00733318Y00101840D01*
X00734000Y00104383D01*
Y00107016D01*
X00733318Y00109560D01*
X00732002Y00111840D01*
X00730140Y00113702D01*
X00727860Y00115019D01*
X00725316Y00115700D01*
D02*
G37*
G36*
X00699917D02*
X00697283D01*
X00694740Y00115019D01*
X00692460Y00113702D01*
X00690598Y00111840D01*
X00689281Y00109560D01*
X00688600Y00107016D01*
Y00104383D01*
X00689281Y00101840D01*
X00690598Y00099560D01*
X00692460Y00097698D01*
X00694740Y00096382D01*
X00697283Y00095700D01*
X00699917D01*
X00702460Y00096382D01*
X00704740Y00097698D01*
X00706602Y00099560D01*
X00707918Y00101840D01*
X00708600Y00104383D01*
Y00107016D01*
X00707918Y00109560D01*
X00706602Y00111840D01*
X00704740Y00113702D01*
X00702460Y00115019D01*
X00699917Y00115700D01*
D02*
G37*
G36*
X00674517D02*
X00671883D01*
X00669340Y00115019D01*
X00667060Y00113702D01*
X00665198Y00111840D01*
X00663882Y00109560D01*
X00663200Y00107016D01*
Y00104383D01*
X00663882Y00101840D01*
X00665198Y00099560D01*
X00667060Y00097698D01*
X00669340Y00096382D01*
X00671883Y00095700D01*
X00674517D01*
X00677060Y00096382D01*
X00679340Y00097698D01*
X00681202Y00099560D01*
X00682518Y00101840D01*
X00683200Y00104383D01*
Y00107016D01*
X00682518Y00109560D01*
X00681202Y00111840D01*
X00679340Y00113702D01*
X00677060Y00115019D01*
X00674517Y00115700D01*
D02*
G37*
G36*
X00649117D02*
X00646484D01*
X00643940Y00115019D01*
X00641660Y00113702D01*
X00639798Y00111840D01*
X00638481Y00109560D01*
X00637800Y00107016D01*
Y00104383D01*
X00638481Y00101840D01*
X00639798Y00099560D01*
X00641660Y00097698D01*
X00643940Y00096382D01*
X00646484Y00095700D01*
X00649117D01*
X00651660Y00096382D01*
X00653940Y00097698D01*
X00655802Y00099560D01*
X00657119Y00101840D01*
X00657800Y00104383D01*
Y00107016D01*
X00657119Y00109560D01*
X00655802Y00111840D01*
X00653940Y00113702D01*
X00651660Y00115019D01*
X00649117Y00115700D01*
D02*
G37*
G36*
X00623717D02*
X00621083D01*
X00618540Y00115019D01*
X00616260Y00113702D01*
X00614398Y00111840D01*
X00613082Y00109560D01*
X00612400Y00107016D01*
Y00104383D01*
X00613082Y00101840D01*
X00614398Y00099560D01*
X00616260Y00097698D01*
X00618540Y00096382D01*
X00621083Y00095700D01*
X00623717D01*
X00626260Y00096382D01*
X00628540Y00097698D01*
X00630402Y00099560D01*
X00631718Y00101840D01*
X00632400Y00104383D01*
Y00107016D01*
X00631718Y00109560D01*
X00630402Y00111840D01*
X00628540Y00113702D01*
X00626260Y00115019D01*
X00623717Y00115700D01*
D02*
G37*
G36*
X00572916D02*
X00570284D01*
X00567740Y00115019D01*
X00565460Y00113702D01*
X00563598Y00111840D01*
X00562281Y00109560D01*
X00561600Y00107016D01*
Y00104383D01*
X00562281Y00101840D01*
X00563598Y00099560D01*
X00565460Y00097698D01*
X00567740Y00096382D01*
X00570284Y00095700D01*
X00572916D01*
X00575460Y00096382D01*
X00577740Y00097698D01*
X00579602Y00099560D01*
X00580919Y00101840D01*
X00581600Y00104383D01*
Y00107016D01*
X00580919Y00109560D01*
X00579602Y00111840D01*
X00577740Y00113702D01*
X00575460Y00115019D01*
X00572916Y00115700D01*
D02*
G37*
G36*
X00547517D02*
X00544883D01*
X00542340Y00115019D01*
X00540060Y00113702D01*
X00538198Y00111840D01*
X00536881Y00109560D01*
X00536200Y00107016D01*
Y00104383D01*
X00536881Y00101840D01*
X00538198Y00099560D01*
X00540060Y00097698D01*
X00542340Y00096382D01*
X00544883Y00095700D01*
X00547517D01*
X00550060Y00096382D01*
X00552340Y00097698D01*
X00554202Y00099560D01*
X00555518Y00101840D01*
X00556200Y00104383D01*
Y00107016D01*
X00555518Y00109560D01*
X00554202Y00111840D01*
X00552340Y00113702D01*
X00550060Y00115019D01*
X00547517Y00115700D01*
D02*
G37*
G36*
X00445916D02*
X00443284D01*
X00440740Y00115019D01*
X00438460Y00113702D01*
X00436598Y00111840D01*
X00435281Y00109560D01*
X00434600Y00107016D01*
Y00104383D01*
X00435281Y00101840D01*
X00436598Y00099560D01*
X00438460Y00097698D01*
X00440740Y00096382D01*
X00443284Y00095700D01*
X00445916D01*
X00448460Y00096382D01*
X00450740Y00097698D01*
X00452602Y00099560D01*
X00453918Y00101840D01*
X00454600Y00104383D01*
Y00107016D01*
X00453918Y00109560D01*
X00452602Y00111840D01*
X00450740Y00113702D01*
X00448460Y00115019D01*
X00445916Y00115700D01*
D02*
G37*
G36*
X00420517D02*
X00417883D01*
X00415340Y00115019D01*
X00413060Y00113702D01*
X00411198Y00111840D01*
X00409882Y00109560D01*
X00409200Y00107016D01*
Y00104383D01*
X00409882Y00101840D01*
X00411198Y00099560D01*
X00413060Y00097698D01*
X00415340Y00096382D01*
X00417883Y00095700D01*
X00420517D01*
X00423060Y00096382D01*
X00425340Y00097698D01*
X00427202Y00099560D01*
X00428518Y00101840D01*
X00429200Y00104383D01*
Y00107016D01*
X00428518Y00109560D01*
X00427202Y00111840D01*
X00425340Y00113702D01*
X00423060Y00115019D01*
X00420517Y00115700D01*
D02*
G37*
G36*
X00776116Y00090300D02*
X00773484D01*
X00770940Y00089619D01*
X00768660Y00088302D01*
X00766798Y00086440D01*
X00765481Y00084160D01*
X00764800Y00081616D01*
Y00078983D01*
X00765481Y00076440D01*
X00766798Y00074160D01*
X00768660Y00072298D01*
X00770940Y00070981D01*
X00773484Y00070300D01*
X00776116D01*
X00778660Y00070981D01*
X00780940Y00072298D01*
X00782802Y00074160D01*
X00784118Y00076440D01*
X00784800Y00078983D01*
Y00081616D01*
X00784118Y00084160D01*
X00782802Y00086440D01*
X00780940Y00088302D01*
X00778660Y00089619D01*
X00776116Y00090300D01*
D02*
G37*
G36*
X00750716D02*
X00748083D01*
X00745540Y00089619D01*
X00743260Y00088302D01*
X00741398Y00086440D01*
X00740081Y00084160D01*
X00739400Y00081616D01*
Y00078983D01*
X00740081Y00076440D01*
X00741398Y00074160D01*
X00743260Y00072298D01*
X00745540Y00070981D01*
X00748083Y00070300D01*
X00750716D01*
X00753260Y00070981D01*
X00755540Y00072298D01*
X00757402Y00074160D01*
X00758718Y00076440D01*
X00759400Y00078983D01*
Y00081616D01*
X00758718Y00084160D01*
X00757402Y00086440D01*
X00755540Y00088302D01*
X00753260Y00089619D01*
X00750716Y00090300D01*
D02*
G37*
G36*
X00725316D02*
X00722683D01*
X00720140Y00089619D01*
X00717860Y00088302D01*
X00715998Y00086440D01*
X00714681Y00084160D01*
X00714000Y00081616D01*
Y00078983D01*
X00714681Y00076440D01*
X00715998Y00074160D01*
X00717860Y00072298D01*
X00720140Y00070981D01*
X00722683Y00070300D01*
X00725316D01*
X00727860Y00070981D01*
X00730140Y00072298D01*
X00732002Y00074160D01*
X00733318Y00076440D01*
X00734000Y00078983D01*
Y00081616D01*
X00733318Y00084160D01*
X00732002Y00086440D01*
X00730140Y00088302D01*
X00727860Y00089619D01*
X00725316Y00090300D01*
D02*
G37*
G36*
X00699917D02*
X00697283D01*
X00694740Y00089619D01*
X00692460Y00088302D01*
X00690598Y00086440D01*
X00689281Y00084160D01*
X00688600Y00081616D01*
Y00078983D01*
X00689281Y00076440D01*
X00690598Y00074160D01*
X00692460Y00072298D01*
X00694740Y00070981D01*
X00697283Y00070300D01*
X00699917D01*
X00702460Y00070981D01*
X00704740Y00072298D01*
X00706602Y00074160D01*
X00707918Y00076440D01*
X00708600Y00078983D01*
Y00081616D01*
X00707918Y00084160D01*
X00706602Y00086440D01*
X00704740Y00088302D01*
X00702460Y00089619D01*
X00699917Y00090300D01*
D02*
G37*
G36*
X00674517D02*
X00671883D01*
X00669340Y00089619D01*
X00667060Y00088302D01*
X00665198Y00086440D01*
X00663882Y00084160D01*
X00663200Y00081616D01*
Y00078983D01*
X00663882Y00076440D01*
X00665198Y00074160D01*
X00667060Y00072298D01*
X00669340Y00070981D01*
X00671883Y00070300D01*
X00674517D01*
X00677060Y00070981D01*
X00679340Y00072298D01*
X00681202Y00074160D01*
X00682518Y00076440D01*
X00683200Y00078983D01*
Y00081616D01*
X00682518Y00084160D01*
X00681202Y00086440D01*
X00679340Y00088302D01*
X00677060Y00089619D01*
X00674517Y00090300D01*
D02*
G37*
G36*
X00649117D02*
X00646484D01*
X00643940Y00089619D01*
X00641660Y00088302D01*
X00639798Y00086440D01*
X00638481Y00084160D01*
X00637800Y00081616D01*
Y00078983D01*
X00638481Y00076440D01*
X00639798Y00074160D01*
X00641660Y00072298D01*
X00643940Y00070981D01*
X00646484Y00070300D01*
X00649117D01*
X00651660Y00070981D01*
X00653940Y00072298D01*
X00655802Y00074160D01*
X00657119Y00076440D01*
X00657800Y00078983D01*
Y00081616D01*
X00657119Y00084160D01*
X00655802Y00086440D01*
X00653940Y00088302D01*
X00651660Y00089619D01*
X00649117Y00090300D01*
D02*
G37*
G36*
X00623717D02*
X00621083D01*
X00618540Y00089619D01*
X00616260Y00088302D01*
X00614398Y00086440D01*
X00613082Y00084160D01*
X00612400Y00081616D01*
Y00078983D01*
X00613082Y00076440D01*
X00614398Y00074160D01*
X00616260Y00072298D01*
X00618540Y00070981D01*
X00621083Y00070300D01*
X00623717D01*
X00626260Y00070981D01*
X00628540Y00072298D01*
X00630402Y00074160D01*
X00631718Y00076440D01*
X00632400Y00078983D01*
Y00081616D01*
X00631718Y00084160D01*
X00630402Y00086440D01*
X00628540Y00088302D01*
X00626260Y00089619D01*
X00623717Y00090300D01*
D02*
G37*
G36*
X00572916D02*
X00570284D01*
X00567740Y00089619D01*
X00565460Y00088302D01*
X00563598Y00086440D01*
X00562281Y00084160D01*
X00561600Y00081616D01*
Y00078983D01*
X00562281Y00076440D01*
X00563598Y00074160D01*
X00565460Y00072298D01*
X00567740Y00070981D01*
X00570284Y00070300D01*
X00572916D01*
X00575460Y00070981D01*
X00577740Y00072298D01*
X00579602Y00074160D01*
X00580919Y00076440D01*
X00581600Y00078983D01*
Y00081616D01*
X00580919Y00084160D01*
X00579602Y00086440D01*
X00577740Y00088302D01*
X00575460Y00089619D01*
X00572916Y00090300D01*
D02*
G37*
G36*
X00547517D02*
X00544883D01*
X00542340Y00089619D01*
X00540060Y00088302D01*
X00538198Y00086440D01*
X00536881Y00084160D01*
X00536200Y00081616D01*
Y00078983D01*
X00536881Y00076440D01*
X00538198Y00074160D01*
X00540060Y00072298D01*
X00542340Y00070981D01*
X00544883Y00070300D01*
X00547517D01*
X00550060Y00070981D01*
X00552340Y00072298D01*
X00554202Y00074160D01*
X00555518Y00076440D01*
X00556200Y00078983D01*
Y00081616D01*
X00555518Y00084160D01*
X00554202Y00086440D01*
X00552340Y00088302D01*
X00550060Y00089619D01*
X00547517Y00090300D01*
D02*
G37*
G36*
X00445916D02*
X00443284D01*
X00440740Y00089619D01*
X00438460Y00088302D01*
X00436598Y00086440D01*
X00435281Y00084160D01*
X00434600Y00081616D01*
Y00078983D01*
X00435281Y00076440D01*
X00436598Y00074160D01*
X00438460Y00072298D01*
X00440740Y00070981D01*
X00443284Y00070300D01*
X00445916D01*
X00448460Y00070981D01*
X00450740Y00072298D01*
X00452602Y00074160D01*
X00453918Y00076440D01*
X00454600Y00078983D01*
Y00081616D01*
X00453918Y00084160D01*
X00452602Y00086440D01*
X00450740Y00088302D01*
X00448460Y00089619D01*
X00445916Y00090300D01*
D02*
G37*
G36*
X00420517D02*
X00417883D01*
X00415340Y00089619D01*
X00413060Y00088302D01*
X00411198Y00086440D01*
X00409882Y00084160D01*
X00409200Y00081616D01*
Y00078983D01*
X00409882Y00076440D01*
X00411198Y00074160D01*
X00413060Y00072298D01*
X00415340Y00070981D01*
X00417883Y00070300D01*
X00420517D01*
X00423060Y00070981D01*
X00425340Y00072298D01*
X00427202Y00074160D01*
X00428518Y00076440D01*
X00429200Y00078983D01*
Y00081616D01*
X00428518Y00084160D01*
X00427202Y00086440D01*
X00425340Y00088302D01*
X00423060Y00089619D01*
X00420517Y00090300D01*
D02*
G37*
G36*
X00242717Y00115700D02*
X00240084D01*
X00237540Y00115019D01*
X00235260Y00113702D01*
X00233398Y00111840D01*
X00232082Y00109560D01*
X00231400Y00107016D01*
Y00104383D01*
X00232082Y00101840D01*
X00233398Y00099560D01*
X00235260Y00097698D01*
X00236812Y00096802D01*
Y00089198D01*
X00235260Y00088302D01*
X00233398Y00086440D01*
X00232082Y00084160D01*
X00231400Y00081616D01*
Y00078983D01*
X00232082Y00076440D01*
X00233398Y00074160D01*
X00235260Y00072298D01*
X00237540Y00070981D01*
X00240084Y00070300D01*
X00242717D01*
X00245260Y00070981D01*
X00247540Y00072298D01*
X00249402Y00074160D01*
X00250718Y00076440D01*
X00251400Y00078983D01*
Y00081616D01*
X00250718Y00084160D01*
X00249402Y00086440D01*
X00247540Y00088302D01*
X00245988Y00089198D01*
Y00096802D01*
X00247540Y00097698D01*
X00249402Y00099560D01*
X00250718Y00101840D01*
X00251400Y00104383D01*
Y00107016D01*
X00250718Y00109560D01*
X00249402Y00111840D01*
X00247540Y00113702D01*
X00245260Y00115019D01*
X00242717Y00115700D01*
D02*
G37*
G36*
X00217316D02*
X00214683D01*
X00212140Y00115019D01*
X00209860Y00113702D01*
X00207998Y00111840D01*
X00206681Y00109560D01*
X00206000Y00107016D01*
Y00104383D01*
X00206681Y00101840D01*
X00207998Y00099560D01*
X00209860Y00097698D01*
X00211412Y00096802D01*
Y00089198D01*
X00209860Y00088302D01*
X00207998Y00086440D01*
X00206681Y00084160D01*
X00206000Y00081616D01*
Y00078983D01*
X00206681Y00076440D01*
X00207998Y00074160D01*
X00209860Y00072298D01*
X00212140Y00070981D01*
X00214683Y00070300D01*
X00217316D01*
X00219860Y00070981D01*
X00222140Y00072298D01*
X00224002Y00074160D01*
X00225319Y00076440D01*
X00226000Y00078983D01*
Y00081616D01*
X00225319Y00084160D01*
X00224002Y00086440D01*
X00222140Y00088302D01*
X00220588Y00089198D01*
Y00096802D01*
X00222140Y00097698D01*
X00224002Y00099560D01*
X00225319Y00101840D01*
X00226000Y00104383D01*
Y00107016D01*
X00225319Y00109560D01*
X00224002Y00111840D01*
X00222140Y00113702D01*
X00219860Y00115019D01*
X00217316Y00115700D01*
D02*
G37*
G36*
X00191917D02*
X00189284D01*
X00186740Y00115019D01*
X00184460Y00113702D01*
X00182598Y00111840D01*
X00181282Y00109560D01*
X00180600Y00107016D01*
Y00104383D01*
X00181282Y00101840D01*
X00182598Y00099560D01*
X00184460Y00097698D01*
X00186012Y00096802D01*
Y00089198D01*
X00184460Y00088302D01*
X00182598Y00086440D01*
X00181282Y00084160D01*
X00180600Y00081616D01*
Y00078983D01*
X00181282Y00076440D01*
X00182598Y00074160D01*
X00184460Y00072298D01*
X00186740Y00070981D01*
X00189284Y00070300D01*
X00191917D01*
X00194460Y00070981D01*
X00196740Y00072298D01*
X00198602Y00074160D01*
X00199918Y00076440D01*
X00200600Y00078983D01*
Y00081616D01*
X00199918Y00084160D01*
X00198602Y00086440D01*
X00196740Y00088302D01*
X00195188Y00089198D01*
Y00096802D01*
X00196740Y00097698D01*
X00198602Y00099560D01*
X00199918Y00101840D01*
X00200600Y00104383D01*
Y00107016D01*
X00199918Y00109560D01*
X00198602Y00111840D01*
X00196740Y00113702D01*
X00194460Y00115019D01*
X00191917Y00115700D01*
D02*
G37*
G36*
X00314000Y00213060D02*
X00312173Y00212820D01*
X00310470Y00212115D01*
X00309008Y00210992D01*
X00307885Y00209530D01*
X00307180Y00207827D01*
X00306940Y00206000D01*
Y00159060D01*
X00174000D01*
X00172173Y00158820D01*
X00170470Y00158115D01*
X00169008Y00156992D01*
X00160208Y00148192D01*
X00159086Y00146730D01*
X00158380Y00145027D01*
X00158140Y00143200D01*
Y00114871D01*
X00156874Y00114026D01*
X00155548Y00112041D01*
X00155083Y00109700D01*
Y00101700D01*
X00155548Y00099359D01*
X00155618Y00099254D01*
Y00083177D01*
X00155200Y00081616D01*
Y00078983D01*
X00155882Y00076440D01*
X00157198Y00074160D01*
X00159060Y00072298D01*
X00161340Y00070981D01*
X00163883Y00070300D01*
X00166516D01*
X00169060Y00070981D01*
X00171340Y00072298D01*
X00173202Y00074160D01*
X00174519Y00076440D01*
X00175200Y00078983D01*
Y00081616D01*
X00174782Y00083177D01*
Y00099254D01*
X00174852Y00099359D01*
X00175317Y00101700D01*
Y00109700D01*
X00174852Y00112041D01*
X00173526Y00114026D01*
X00172260Y00114871D01*
Y00140275D01*
X00176924Y00144940D01*
X00325856D01*
X00326423Y00143670D01*
X00325750Y00142044D01*
Y00139956D01*
X00326549Y00138026D01*
X00327431Y00137144D01*
Y00072478D01*
X00323522Y00068569D01*
X00298478D01*
X00296801Y00070246D01*
X00296967Y00071505D01*
X00298340Y00072298D01*
X00300202Y00074160D01*
X00301518Y00076440D01*
X00302200Y00078983D01*
Y00081616D01*
X00301518Y00084160D01*
X00300202Y00086440D01*
X00298340Y00088302D01*
X00296060Y00089619D01*
X00295769Y00089697D01*
Y00096303D01*
X00296060Y00096382D01*
X00298340Y00097698D01*
X00300202Y00099560D01*
X00301518Y00101840D01*
X00302200Y00104383D01*
Y00107016D01*
X00301518Y00109560D01*
X00300202Y00111840D01*
X00298340Y00113702D01*
X00296060Y00115019D01*
X00293517Y00115700D01*
X00290884D01*
X00288340Y00115019D01*
X00286060Y00113702D01*
X00284198Y00111840D01*
X00282882Y00109560D01*
X00282200Y00107016D01*
Y00104383D01*
X00282882Y00101840D01*
X00284198Y00099560D01*
X00286060Y00097698D01*
X00288340Y00096382D01*
X00288631Y00096303D01*
Y00089697D01*
X00288340Y00089619D01*
X00286060Y00088302D01*
X00284198Y00086440D01*
X00282882Y00084160D01*
X00282200Y00081616D01*
Y00078983D01*
X00282882Y00076440D01*
X00284198Y00074160D01*
X00286060Y00072298D01*
X00288340Y00070981D01*
X00288631Y00070903D01*
Y00069800D01*
X00288903Y00068434D01*
X00289677Y00067277D01*
X00294477Y00062477D01*
X00295634Y00061703D01*
X00297000Y00061431D01*
X00325000D01*
X00326366Y00061703D01*
X00327523Y00062477D01*
X00333523Y00068477D01*
X00334297Y00069634D01*
X00334569Y00071000D01*
Y00072793D01*
X00335839Y00073319D01*
X00336860Y00072298D01*
X00339140Y00070981D01*
X00341684Y00070300D01*
X00344316D01*
X00346860Y00070981D01*
X00349140Y00072298D01*
X00351002Y00074160D01*
X00352318Y00076440D01*
X00353000Y00078983D01*
Y00081616D01*
X00352318Y00084160D01*
X00351002Y00086440D01*
X00349140Y00088302D01*
X00346860Y00089619D01*
X00344316Y00090300D01*
X00341684D01*
X00339140Y00089619D01*
X00336860Y00088302D01*
X00335839Y00087281D01*
X00334569Y00087807D01*
Y00098193D01*
X00335839Y00098719D01*
X00336860Y00097698D01*
X00339140Y00096382D01*
X00341684Y00095700D01*
X00344316D01*
X00346860Y00096382D01*
X00349140Y00097698D01*
X00351002Y00099560D01*
X00352318Y00101840D01*
X00353000Y00104383D01*
Y00107016D01*
X00352318Y00109560D01*
X00351002Y00111840D01*
X00349140Y00113702D01*
X00346860Y00115019D01*
X00344316Y00115700D01*
X00341684D01*
X00339140Y00115019D01*
X00336860Y00113702D01*
X00335839Y00112681D01*
X00334569Y00113207D01*
Y00137144D01*
X00335451Y00138026D01*
X00336250Y00139956D01*
Y00142044D01*
X00335577Y00143670D01*
X00336144Y00144940D01*
X00353000D01*
X00354827Y00145180D01*
X00356530Y00145885D01*
X00357993Y00147008D01*
X00359114Y00148470D01*
X00359820Y00150173D01*
X00360060Y00152000D01*
X00359820Y00153827D01*
X00359114Y00155530D01*
X00357993Y00156992D01*
X00356530Y00158115D01*
X00354827Y00158820D01*
X00353000Y00159060D01*
X00321060D01*
Y00206000D01*
X00320820Y00207827D01*
X00320115Y00209530D01*
X00318993Y00210992D01*
X00317530Y00212115D01*
X00315827Y00212820D01*
X00314000Y00213060D01*
D02*
G37*
%LPD*%
G36*
X00093298Y00885214D02*
X00093506Y00885122D01*
X00093599Y00885076D01*
X00093692Y00884983D01*
X00093738Y00884937D01*
X00093807Y00884821D01*
X00093877Y00884636D01*
X00093923Y00884405D01*
Y00884381D01*
Y00884358D01*
X00093900Y00884220D01*
X00093830Y00884034D01*
X00093692Y00883849D01*
X00093645Y00883803D01*
X00093530Y00883734D01*
X00093344Y00883664D01*
X00093090Y00883618D01*
X00093021D01*
X00092882Y00883641D01*
X00092697Y00883710D01*
X00092512Y00883849D01*
X00092488Y00883895D01*
X00092419Y00884011D01*
X00092326Y00884173D01*
X00092303Y00884405D01*
Y00884428D01*
Y00884451D01*
X00092326Y00884590D01*
X00092396Y00884775D01*
X00092512Y00884983D01*
Y00885006D01*
X00092558Y00885029D01*
X00092674Y00885122D01*
X00092836Y00885191D01*
X00092951Y00885238D01*
X00093159D01*
X00093298Y00885214D01*
D02*
G37*
G36*
X00147028Y00885214D02*
X00147144D01*
X00147306Y00885191D01*
X00147653Y00885122D01*
X00148069Y00885029D01*
X00148532Y00884867D01*
X00148995Y00884659D01*
X00149481Y00884381D01*
X00149504D01*
X00149550Y00884335D01*
X00149689Y00884220D01*
X00149828Y00884011D01*
X00149874Y00883872D01*
X00149897Y00883710D01*
Y00883687D01*
Y00883664D01*
X00149874Y00883549D01*
X00149782Y00883363D01*
X00149735Y00883271D01*
X00149643Y00883155D01*
X00149596Y00883109D01*
X00149481Y00883039D01*
X00149272Y00882947D01*
X00149157Y00882924D01*
X00149041Y00882901D01*
X00148995D01*
X00148902Y00882924D01*
X00148740Y00882970D01*
X00148578Y00883039D01*
X00148532Y00883063D01*
X00148440Y00883132D01*
X00148254Y00883224D01*
X00148046Y00883340D01*
X00147768Y00883456D01*
X00147468Y00883549D01*
X00147121Y00883618D01*
X00146773Y00883641D01*
X00144945Y00883641D01*
X00144783Y00883618D01*
X00144575Y00883572D01*
X00144344Y00883479D01*
X00144089Y00883387D01*
X00143858Y00883224D01*
X00143626Y00883016D01*
X00143603Y00882993D01*
X00143534Y00882900D01*
X00143441Y00882785D01*
X00143349Y00882600D01*
X00143256Y00882392D01*
X00143164Y00882137D01*
X00143094Y00881859D01*
X00143071Y00881559D01*
Y00881512D01*
Y00881420D01*
X00143094Y00881258D01*
X00143140Y00881072D01*
X00143210Y00880841D01*
X00143326Y00880610D01*
X00143464Y00880355D01*
X00143650Y00880124D01*
X00148740Y00875010D01*
X00148763Y00874987D01*
X00148786Y00874964D01*
X00148833Y00874894D01*
X00148902Y00874825D01*
X00149087Y00874594D01*
X00149296Y00874293D01*
X00149481Y00873899D01*
X00149666Y00873460D01*
X00149782Y00872974D01*
X00149828Y00872696D01*
Y00872418D01*
Y00872395D01*
Y00872349D01*
Y00872280D01*
X00149805Y00872187D01*
Y00872048D01*
X00149782Y00871909D01*
X00149712Y00871562D01*
X00149573Y00871169D01*
X00149388Y00870752D01*
X00149157Y00870313D01*
X00148995Y00870105D01*
X00148810Y00869896D01*
Y00869873D01*
X00148763Y00869850D01*
X00148625Y00869734D01*
X00148393Y00869549D01*
X00148092Y00869341D01*
X00147699Y00869133D01*
X00147259Y00868971D01*
X00146727Y00868832D01*
X00146449Y00868809D01*
X00146149Y00868785D01*
X00144344D01*
X00144228Y00868809D01*
X00144112D01*
X00143950Y00868832D01*
X00143603Y00868878D01*
X00143187Y00868994D01*
X00142724Y00869133D01*
X00142261Y00869318D01*
X00141798Y00869595D01*
X00141775Y00869619D01*
X00141752Y00869642D01*
X00141613Y00869781D01*
X00141498Y00869989D01*
X00141451Y00870128D01*
X00141428Y00870266D01*
Y00870290D01*
Y00870313D01*
X00141451Y00870452D01*
X00141521Y00870637D01*
X00141636Y00870822D01*
Y00870845D01*
X00141683Y00870868D01*
X00141798Y00870961D01*
X00141984Y00871030D01*
X00142099Y00871076D01*
X00142261D01*
X00142354Y00871053D01*
X00142516Y00871030D01*
X00142678Y00870938D01*
X00142724Y00870914D01*
X00142817Y00870845D01*
X00142979Y00870752D01*
X00143210Y00870660D01*
X00143464Y00870567D01*
X00143788Y00870475D01*
X00144112Y00870405D01*
X00144483Y00870382D01*
X00146311D01*
X00146426Y00870405D01*
X00146681Y00870452D01*
X00146959Y00870544D01*
X00146982D01*
X00147028Y00870567D01*
X00147097Y00870613D01*
X00147190Y00870660D01*
X00147398Y00870799D01*
X00147606Y00870984D01*
X00147630Y00871007D01*
X00147653Y00871030D01*
X00147768Y00871169D01*
X00147907Y00871377D01*
X00148046Y00871632D01*
Y00871655D01*
X00148069Y00871701D01*
X00148092Y00871770D01*
X00148139Y00871863D01*
X00148185Y00872141D01*
X00148208Y00872442D01*
Y00872465D01*
Y00872511D01*
Y00872580D01*
X00148185Y00872696D01*
X00148162Y00872927D01*
X00148069Y00873205D01*
Y00873228D01*
X00148046Y00873275D01*
X00148000Y00873344D01*
X00147954Y00873437D01*
X00147792Y00873668D01*
X00147560Y00873923D01*
X00142493Y00878990D01*
Y00879013D01*
X00142446Y00879036D01*
X00142331Y00879175D01*
X00142169Y00879407D01*
X00141984Y00879707D01*
X00141775Y00880078D01*
X00141613Y00880517D01*
X00141498Y00881026D01*
X00141475Y00881281D01*
X00141451Y00881559D01*
Y00881582D01*
Y00881628D01*
Y00881697D01*
X00141475Y00881813D01*
Y00881952D01*
X00141498Y00882091D01*
X00141567Y00882438D01*
X00141683Y00882854D01*
X00141868Y00883271D01*
X00142099Y00883687D01*
X00142423Y00884081D01*
X00142446Y00884104D01*
X00142470Y00884127D01*
X00142608Y00884266D01*
X00142840Y00884451D01*
X00143140Y00884659D01*
X00143534Y00884867D01*
X00143997Y00885052D01*
X00144506Y00885191D01*
X00144783Y00885214D01*
X00145084Y00885238D01*
X00146912Y00885238D01*
X00147028Y00885214D01*
D02*
G37*
G36*
X00106025Y00880633D02*
X00106233Y00880610D01*
X00106488Y00880564D01*
X00106765Y00880494D01*
X00107043Y00880402D01*
X00107344Y00880263D01*
X00107390Y00880239D01*
X00107483Y00880193D01*
X00107622Y00880101D01*
X00107807Y00879985D01*
X00108015Y00879846D01*
X00108246Y00879661D01*
X00108455Y00879453D01*
X00108663Y00879198D01*
X00108686Y00879152D01*
X00108755Y00879036D01*
X00108825Y00878874D01*
X00108848Y00878689D01*
Y00878666D01*
Y00878643D01*
X00108825Y00878504D01*
X00108732Y00878319D01*
X00108686Y00878226D01*
X00108593Y00878134D01*
X00108547Y00878088D01*
X00108431Y00878018D01*
X00108246Y00877949D01*
X00108015Y00877902D01*
X00107945D01*
X00107876Y00877926D01*
X00107783Y00877949D01*
X00107575Y00878041D01*
X00107483Y00878111D01*
X00107390Y00878226D01*
X00107367Y00878273D01*
X00107275Y00878365D01*
X00107136Y00878481D01*
X00106927Y00878643D01*
X00106696Y00878805D01*
X00106395Y00878921D01*
X00106071Y00879013D01*
X00105701Y00879059D01*
X00104058D01*
X00103966Y00879036D01*
X00103850Y00879013D01*
X00103618Y00878921D01*
X00103480Y00878851D01*
X00103364Y00878736D01*
Y00878712D01*
X00103318Y00878689D01*
X00103271Y00878620D01*
X00103225Y00878527D01*
X00103132Y00878296D01*
X00103109Y00878134D01*
X00103086Y00877972D01*
Y00877949D01*
Y00877879D01*
X00103109Y00877787D01*
X00103132Y00877671D01*
X00103202Y00877532D01*
X00103271Y00877370D01*
X00103387Y00877231D01*
X00103526Y00877093D01*
X00107853Y00873575D01*
X00107876Y00873552D01*
X00107945Y00873506D01*
X00108038Y00873413D01*
X00108131Y00873298D01*
X00108270Y00873136D01*
X00108385Y00872974D01*
X00108501Y00872789D01*
X00108593Y00872580D01*
X00108617Y00872557D01*
X00108640Y00872488D01*
X00108686Y00872372D01*
X00108732Y00872256D01*
X00108778Y00872071D01*
X00108802Y00871909D01*
X00108848Y00871701D01*
Y00871493D01*
Y00871447D01*
Y00871308D01*
X00108802Y00871123D01*
X00108755Y00870868D01*
X00108663Y00870567D01*
X00108524Y00870266D01*
X00108339Y00869942D01*
X00108084Y00869619D01*
X00108061Y00869572D01*
X00107945Y00869480D01*
X00107783Y00869364D01*
X00107552Y00869202D01*
X00107275Y00869040D01*
X00106951Y00868924D01*
X00106557Y00868832D01*
X00106141Y00868785D01*
X00104405D01*
X00104243Y00868809D01*
X00104012Y00868832D01*
X00103757Y00868878D01*
X00103480Y00868948D01*
X00103202Y00869040D01*
X00102901Y00869156D01*
X00102878Y00869179D01*
X00102785Y00869225D01*
X00102623Y00869318D01*
X00102462Y00869433D01*
X00102253Y00869595D01*
X00102022Y00869781D01*
X00101814Y00869989D01*
X00101605Y00870220D01*
Y00870243D01*
X00101582Y00870266D01*
X00101536Y00870382D01*
X00101490Y00870544D01*
X00101467Y00870729D01*
Y00870752D01*
Y00870776D01*
X00101490Y00870914D01*
X00101559Y00871099D01*
X00101675Y00871285D01*
X00101721Y00871331D01*
X00101837Y00871400D01*
X00102022Y00871470D01*
X00102276Y00871516D01*
X00102346D01*
X00102438Y00871493D01*
X00102531Y00871470D01*
X00102623Y00871423D01*
X00102739Y00871377D01*
X00102832Y00871285D01*
X00102924Y00871169D01*
X00102947Y00871146D01*
X00103040Y00871053D01*
X00103179Y00870914D01*
X00103364Y00870776D01*
X00103595Y00870637D01*
X00103873Y00870498D01*
X00104197Y00870405D01*
X00104567Y00870382D01*
X00106233D01*
X00106303Y00870405D01*
X00106418Y00870428D01*
X00106673Y00870521D01*
X00106812Y00870590D01*
X00106927Y00870706D01*
X00106951Y00870729D01*
X00106974Y00870776D01*
X00107020Y00870822D01*
X00107089Y00870914D01*
X00107182Y00871146D01*
X00107205Y00871285D01*
X00107228Y00871447D01*
Y00871470D01*
Y00871539D01*
X00107205Y00871632D01*
X00107182Y00871747D01*
X00107136Y00871863D01*
X00107043Y00872025D01*
X00106951Y00872141D01*
X00106812Y00872280D01*
X00102462Y00875866D01*
X00102438Y00875889D01*
X00102369Y00875936D01*
X00102276Y00876028D01*
X00102161Y00876144D01*
X00102045Y00876283D01*
X00101906Y00876445D01*
X00101790Y00876630D01*
X00101698Y00876815D01*
Y00876838D01*
X00101652Y00876907D01*
X00101628Y00877023D01*
X00101582Y00877162D01*
X00101536Y00877324D01*
X00101513Y00877509D01*
X00101467Y00877926D01*
Y00877949D01*
Y00877972D01*
X00101490Y00878111D01*
X00101513Y00878319D01*
X00101559Y00878574D01*
X00101628Y00878874D01*
X00101767Y00879175D01*
X00101929Y00879499D01*
X00102161Y00879800D01*
X00102207Y00879846D01*
X00102299Y00879939D01*
X00102462Y00880078D01*
X00102693Y00880239D01*
X00102994Y00880378D01*
X00103318Y00880517D01*
X00103711Y00880610D01*
X00104128Y00880656D01*
X00105840D01*
X00106025Y00880633D01*
D02*
G37*
G36*
X00165239Y00880633D02*
X00165424Y00880564D01*
X00165632Y00880448D01*
X00165655D01*
X00165678Y00880402D01*
X00165771Y00880309D01*
X00165840Y00880124D01*
X00165887Y00880008D01*
Y00879869D01*
Y00879823D01*
Y00879754D01*
X00165863Y00879661D01*
X00165840Y00879592D01*
X00162994Y00869433D01*
Y00869410D01*
X00162948Y00869341D01*
X00162902Y00869225D01*
X00162832Y00869109D01*
X00162717Y00868971D01*
X00162578Y00868878D01*
X00162393Y00868785D01*
X00162184Y00868762D01*
X00162138D01*
X00162045Y00868785D01*
X00161883Y00868832D01*
X00161721Y00868924D01*
X00161698Y00868948D01*
X00161606Y00869040D01*
X00161536Y00869156D01*
X00161490Y00869271D01*
X00158598Y00879592D01*
Y00879615D01*
X00158574Y00879638D01*
X00158551Y00879731D01*
Y00879869D01*
Y00879892D01*
Y00879939D01*
X00158574Y00880078D01*
X00158644Y00880239D01*
X00158783Y00880425D01*
X00158806D01*
X00158829Y00880471D01*
X00158945Y00880540D01*
X00159130Y00880610D01*
X00159361Y00880656D01*
X00159454D01*
X00159546Y00880633D01*
X00159685Y00880587D01*
X00159801Y00880517D01*
X00159940Y00880402D01*
X00160055Y00880263D01*
X00160148Y00880054D01*
X00162207Y00872002D01*
X00164290Y00880054D01*
Y00880078D01*
X00164313Y00880147D01*
X00164359Y00880239D01*
X00164429Y00880355D01*
X00164521Y00880471D01*
X00164660Y00880564D01*
X00164845Y00880633D01*
X00165054Y00880656D01*
X00165100D01*
X00165239Y00880633D01*
D02*
G37*
G36*
X00189905Y00885214D02*
X00190044Y00885191D01*
X00190206Y00885168D01*
X00190576Y00885052D01*
X00190993Y00884891D01*
X00191224Y00884775D01*
X00191456Y00884636D01*
X00191687Y00884474D01*
X00191918Y00884289D01*
X00192127Y00884081D01*
X00192358Y00883826D01*
X00192381D01*
X00192404Y00883803D01*
X00192520Y00883687D01*
X00192682Y00883502D01*
X00192867Y00883271D01*
X00193029Y00882947D01*
X00193191Y00882553D01*
X00193307Y00882091D01*
X00193353Y00881836D01*
Y00881559D01*
Y00872418D01*
Y00872395D01*
Y00872349D01*
Y00872280D01*
X00193330Y00872164D01*
Y00872048D01*
X00193307Y00871886D01*
X00193214Y00871539D01*
X00193099Y00871123D01*
X00192890Y00870706D01*
X00192636Y00870266D01*
X00192451Y00870058D01*
X00192265Y00869850D01*
X00192242D01*
X00192219Y00869804D01*
X00192150Y00869757D01*
X00192080Y00869688D01*
X00191849Y00869503D01*
X00191548Y00869318D01*
X00191155Y00869133D01*
X00190715Y00868948D01*
X00190206Y00868832D01*
X00189928Y00868809D01*
X00189651Y00868785D01*
X00188378D01*
X00188262Y00868809D01*
X00188123D01*
X00187985Y00868832D01*
X00187614Y00868924D01*
X00187221Y00869040D01*
X00186781Y00869225D01*
X00186342Y00869480D01*
X00186133Y00869642D01*
X00185925Y00869827D01*
Y00869850D01*
X00185879Y00869873D01*
X00185833Y00869942D01*
X00185763Y00870012D01*
X00185601Y00870243D01*
X00185416Y00870544D01*
X00185208Y00870938D01*
X00185046Y00871377D01*
X00184930Y00871863D01*
X00184907Y00872141D01*
X00184884Y00872418D01*
Y00881559D01*
Y00881582D01*
Y00881628D01*
Y00881697D01*
X00184907Y00881813D01*
Y00881952D01*
X00184953Y00882091D01*
X00185023Y00882461D01*
X00185162Y00882877D01*
X00185347Y00883317D01*
X00185625Y00883780D01*
X00185786Y00884011D01*
X00185972Y00884220D01*
X00185995Y00884243D01*
X00186018Y00884266D01*
X00186157Y00884381D01*
X00186365Y00884544D01*
X00186666Y00884729D01*
X00187036Y00884914D01*
X00187476Y00885076D01*
X00187962Y00885191D01*
X00188239Y00885238D01*
X00189813D01*
X00189905Y00885214D01*
D02*
G37*
G36*
X00182408Y00870359D02*
X00182524Y00870336D01*
X00182686Y00870290D01*
X00182848Y00870174D01*
X00182963Y00870035D01*
X00183056Y00869850D01*
X00183102Y00869572D01*
Y00869549D01*
Y00869526D01*
X00183079Y00869387D01*
X00183010Y00869202D01*
X00182871Y00869017D01*
X00182825Y00868971D01*
X00182709Y00868901D01*
X00182524Y00868832D01*
X00182269Y00868785D01*
X00182200D01*
X00182061Y00868809D01*
X00181876Y00868878D01*
X00181691Y00868994D01*
X00181668Y00869040D01*
X00181598Y00869156D01*
X00181506Y00869341D01*
X00181483Y00869572D01*
Y00869595D01*
Y00869619D01*
X00181506Y00869757D01*
X00181575Y00869942D01*
X00181691Y00870128D01*
Y00870151D01*
X00181737Y00870174D01*
X00181853Y00870266D01*
X00182015Y00870336D01*
X00182130Y00870382D01*
X00182316D01*
X00182408Y00870359D01*
D02*
G37*
G36*
X00178983Y00885191D02*
X00179169Y00885122D01*
X00179377Y00884983D01*
X00179400D01*
X00179423Y00884937D01*
X00179516Y00884844D01*
X00179585Y00884659D01*
X00179631Y00884544D01*
Y00884405D01*
Y00869572D01*
Y00869549D01*
Y00869503D01*
X00179608Y00869433D01*
Y00869341D01*
X00179516Y00869156D01*
X00179469Y00869063D01*
X00179377Y00868971D01*
X00179331Y00868948D01*
X00179215Y00868878D01*
X00179053Y00868809D01*
X00178822Y00868785D01*
X00178775D01*
X00178613Y00868809D01*
X00178428Y00868878D01*
X00178243Y00868994D01*
X00178197Y00869040D01*
X00178127Y00869156D01*
X00178058Y00869318D01*
X00178012Y00869572D01*
Y00882831D01*
X00175975Y00880425D01*
X00175929Y00880378D01*
X00175813Y00880309D01*
X00175628Y00880239D01*
X00175397Y00880193D01*
X00175351D01*
X00175212Y00880216D01*
X00175027Y00880286D01*
X00174818Y00880425D01*
X00174772Y00880471D01*
X00174703Y00880587D01*
X00174633Y00880772D01*
X00174587Y00881003D01*
Y00881026D01*
Y00881049D01*
X00174610Y00881188D01*
X00174703Y00881373D01*
X00174749Y00881466D01*
X00174841Y00881559D01*
X00178266Y00884983D01*
X00178312Y00885029D01*
X00178405Y00885099D01*
X00178567Y00885168D01*
X00178798Y00885214D01*
X00178845D01*
X00178983Y00885191D01*
D02*
G37*
G36*
X00138883Y00885214D02*
X00138999Y00885191D01*
X00139161Y00885145D01*
X00139323Y00885029D01*
X00139438Y00884891D01*
X00139531Y00884705D01*
X00139577Y00884428D01*
Y00884405D01*
Y00884381D01*
X00139554Y00884243D01*
X00139485Y00884057D01*
X00139346Y00883872D01*
X00139299Y00883826D01*
X00139184Y00883757D01*
X00138999Y00883687D01*
X00138744Y00883641D01*
X00135759D01*
X00135597Y00883618D01*
X00135389Y00883572D01*
X00135181Y00883502D01*
X00134926Y00883387D01*
X00134695Y00883248D01*
X00134463Y00883039D01*
X00134440Y00883016D01*
X00134371Y00882947D01*
X00134278Y00882808D01*
X00134186Y00882646D01*
X00134070Y00882415D01*
X00133977Y00882160D01*
X00133908Y00881882D01*
X00133885Y00881559D01*
Y00872418D01*
Y00872395D01*
Y00872349D01*
Y00872256D01*
X00133908Y00872164D01*
X00133954Y00871886D01*
X00134024Y00871609D01*
Y00871585D01*
X00134047Y00871539D01*
X00134093Y00871470D01*
X00134139Y00871400D01*
X00134278Y00871169D01*
X00134463Y00870961D01*
X00134486D01*
X00134509Y00870914D01*
X00134648Y00870799D01*
X00134857Y00870660D01*
X00135111Y00870521D01*
X00135134D01*
X00135181Y00870498D01*
X00135250Y00870475D01*
X00135343Y00870452D01*
X00135597Y00870405D01*
X00135898Y00870382D01*
X00138790D01*
X00138883Y00870359D01*
X00138999Y00870336D01*
X00139161Y00870290D01*
X00139323Y00870174D01*
X00139438Y00870035D01*
X00139531Y00869850D01*
X00139577Y00869572D01*
Y00869549D01*
Y00869526D01*
X00139554Y00869387D01*
X00139485Y00869202D01*
X00139346Y00869017D01*
X00139299Y00868971D01*
X00139184Y00868901D01*
X00138999Y00868832D01*
X00138744Y00868785D01*
X00135759D01*
X00135643Y00868809D01*
X00135505Y00868832D01*
X00135366Y00868855D01*
X00134995Y00868924D01*
X00134602Y00869063D01*
X00134162Y00869271D01*
X00133931Y00869410D01*
X00133700Y00869572D01*
X00133468Y00869734D01*
X00133260Y00869942D01*
Y00869966D01*
X00133214Y00869989D01*
X00133098Y00870105D01*
X00132936Y00870313D01*
X00132774Y00870613D01*
X00132589Y00870961D01*
X00132427Y00871377D01*
X00132311Y00871863D01*
X00132288Y00872141D01*
X00132265Y00872418D01*
Y00881559D01*
Y00881582D01*
Y00881628D01*
Y00881697D01*
X00132288Y00881813D01*
Y00881952D01*
X00132311Y00882091D01*
X00132404Y00882461D01*
X00132520Y00882854D01*
X00132705Y00883294D01*
X00132959Y00883734D01*
X00133121Y00883942D01*
X00133306Y00884150D01*
X00133329Y00884173D01*
X00133353Y00884196D01*
X00133422Y00884243D01*
X00133491Y00884312D01*
X00133723Y00884497D01*
X00134047Y00884705D01*
X00134417Y00884891D01*
X00134857Y00885076D01*
X00135366Y00885191D01*
X00135620Y00885238D01*
X00138790D01*
X00138883Y00885214D01*
D02*
G37*
G36*
X00127012D02*
X00127151Y00885191D01*
X00127313Y00885168D01*
X00127683Y00885076D01*
X00128100Y00884891D01*
X00128331Y00884798D01*
X00128563Y00884659D01*
X00128794Y00884497D01*
X00129025Y00884312D01*
X00129234Y00884104D01*
X00129465Y00883849D01*
X00129488D01*
X00129511Y00883803D01*
X00129627Y00883710D01*
X00129789Y00883525D01*
X00129974Y00883271D01*
X00130136Y00882947D01*
X00130298Y00882553D01*
X00130414Y00882091D01*
X00130460Y00881836D01*
Y00881559D01*
Y00872418D01*
Y00872395D01*
Y00872349D01*
Y00872280D01*
X00130437Y00872164D01*
Y00872048D01*
X00130414Y00871886D01*
X00130321Y00871539D01*
X00130206Y00871123D01*
X00129997Y00870706D01*
X00129743Y00870266D01*
X00129558Y00870058D01*
X00129373Y00869850D01*
X00129349D01*
X00129326Y00869804D01*
X00129257Y00869757D01*
X00129187Y00869688D01*
X00128956Y00869503D01*
X00128655Y00869318D01*
X00128262Y00869133D01*
X00127822Y00868948D01*
X00127313Y00868832D01*
X00127036Y00868809D01*
X00126758Y00868785D01*
X00122755D01*
X00122662Y00868809D01*
X00122523Y00868832D01*
X00122385Y00868878D01*
X00122246Y00868971D01*
X00122107Y00869109D01*
X00122014Y00869318D01*
X00121991Y00869572D01*
Y00884405D01*
Y00884451D01*
X00122014Y00884543D01*
X00122037Y00884659D01*
X00122084Y00884821D01*
X00122176Y00884983D01*
X00122315Y00885099D01*
X00122523Y00885191D01*
X00122778Y00885238D01*
X00126920D01*
X00127012Y00885214D01*
D02*
G37*
G36*
X00115535Y00885168D02*
X00115674Y00885122D01*
X00115790Y00885052D01*
X00115929Y00884914D01*
X00116044Y00884752D01*
X00116137Y00884520D01*
X00120140Y00869734D01*
Y00869572D01*
Y00869549D01*
Y00869526D01*
X00120117Y00869387D01*
X00120024Y00869202D01*
X00119978Y00869109D01*
X00119885Y00869017D01*
X00119839Y00868971D01*
X00119724Y00868901D01*
X00119538Y00868832D01*
X00119330Y00868785D01*
X00119237D01*
X00119122Y00868809D01*
X00118983Y00868855D01*
X00118844Y00868948D01*
X00118729Y00869040D01*
X00118613Y00869202D01*
X00118543Y00869410D01*
X00117479Y00873367D01*
X00113198D01*
X00112111Y00869318D01*
Y00869295D01*
X00112087Y00869225D01*
X00112018Y00869156D01*
X00111949Y00869063D01*
X00111856Y00868948D01*
X00111717Y00868878D01*
X00111555Y00868809D01*
X00111347Y00868785D01*
X00111301D01*
X00111162Y00868809D01*
X00110977Y00868878D01*
X00110768Y00868994D01*
X00110722Y00869040D01*
X00110653Y00869156D01*
X00110583Y00869341D01*
X00110537Y00869572D01*
Y00869595D01*
Y00869665D01*
X00110560Y00869757D01*
X00110583Y00869827D01*
X00114563Y00884520D01*
Y00884543D01*
X00114610Y00884636D01*
X00114656Y00884752D01*
X00114725Y00884867D01*
X00114841Y00885006D01*
X00114957Y00885099D01*
X00115119Y00885191D01*
X00115327Y00885214D01*
X00115420D01*
X00115535Y00885168D01*
D02*
G37*
G36*
X00096700Y00885214D02*
X00096885Y00885145D01*
X00097093Y00885006D01*
X00097116D01*
X00097139Y00884960D01*
X00097232Y00884844D01*
X00097301Y00884659D01*
X00097348Y00884543D01*
Y00884405D01*
Y00871285D01*
Y00871261D01*
Y00871215D01*
X00097371Y00871146D01*
Y00871053D01*
X00097463Y00870845D01*
X00097510Y00870729D01*
X00097602Y00870637D01*
X00097625D01*
X00097648Y00870590D01*
X00097764Y00870521D01*
X00097972Y00870428D01*
X00098088Y00870405D01*
X00098204Y00870382D01*
X00098829D01*
X00098921Y00870359D01*
X00099060Y00870336D01*
X00099222Y00870290D01*
X00099361Y00870174D01*
X00099500Y00870035D01*
X00099592Y00869850D01*
X00099639Y00869572D01*
Y00869549D01*
Y00869526D01*
X00099615Y00869387D01*
X00099546Y00869202D01*
X00099407Y00869017D01*
X00099361Y00868971D01*
X00099245Y00868901D01*
X00099060Y00868832D01*
X00098782Y00868785D01*
X00098019D01*
X00097903Y00868809D01*
X00097579Y00868855D01*
X00097232Y00868971D01*
X00097209D01*
X00097163Y00869017D01*
X00097070Y00869040D01*
X00096977Y00869109D01*
X00096723Y00869271D01*
X00096445Y00869503D01*
X00096422Y00869526D01*
X00096399Y00869572D01*
X00096329Y00869642D01*
X00096260Y00869734D01*
X00096075Y00869989D01*
X00095913Y00870290D01*
Y00870313D01*
X00095890Y00870382D01*
X00095867Y00870475D01*
X00095821Y00870590D01*
X00095797Y00870752D01*
X00095751Y00870914D01*
X00095728Y00871308D01*
Y00884405D01*
Y00884428D01*
Y00884474D01*
X00095751Y00884613D01*
X00095821Y00884821D01*
X00095936Y00885006D01*
X00095982Y00885052D01*
X00096098Y00885122D01*
X00096283Y00885191D01*
X00096515Y00885238D01*
X00096561D01*
X00096700Y00885214D01*
D02*
G37*
G36*
X00093275Y00880610D02*
X00093460Y00880540D01*
X00093645Y00880425D01*
X00093668D01*
X00093692Y00880402D01*
X00093784Y00880286D01*
X00093877Y00880101D01*
X00093923Y00879985D01*
Y00879846D01*
Y00869572D01*
Y00869549D01*
Y00869526D01*
X00093900Y00869364D01*
X00093807Y00869179D01*
X00093761Y00869086D01*
X00093668Y00868994D01*
X00093622Y00868971D01*
X00093506Y00868901D01*
X00093344Y00868809D01*
X00093113Y00868785D01*
X00093067D01*
X00092905Y00868809D01*
X00092720Y00868878D01*
X00092535Y00868994D01*
X00092488Y00869040D01*
X00092419Y00869156D01*
X00092350Y00869318D01*
X00092303Y00869572D01*
Y00879846D01*
Y00879869D01*
Y00879916D01*
X00092326Y00880078D01*
X00092396Y00880263D01*
X00092535Y00880425D01*
X00092558D01*
X00092581Y00880448D01*
X00092697Y00880540D01*
X00092882Y00880610D01*
X00093113Y00880633D01*
X00093159D01*
X00093275Y00880610D01*
D02*
G37*
G36*
X00088254Y00880633D02*
X00088578Y00880564D01*
X00088925Y00880448D01*
X00088948D01*
X00088994Y00880402D01*
X00089087Y00880355D01*
X00089203Y00880309D01*
X00089457Y00880124D01*
X00089735Y00879892D01*
X00089758Y00879869D01*
X00089804Y00879846D01*
X00089851Y00879777D01*
X00089943Y00879684D01*
X00090105Y00879430D01*
X00090267Y00879106D01*
Y00879082D01*
X00090290Y00879036D01*
X00090336Y00878944D01*
X00090383Y00878805D01*
X00090452Y00878504D01*
X00090475Y00878157D01*
Y00871308D01*
Y00871285D01*
Y00871261D01*
Y00871123D01*
X00090429Y00870938D01*
X00090383Y00870683D01*
X00090290Y00870382D01*
X00090174Y00870081D01*
X00089989Y00869781D01*
X00089735Y00869503D01*
X00089712Y00869480D01*
X00089596Y00869387D01*
X00089457Y00869271D01*
X00089249Y00869156D01*
X00088971Y00869017D01*
X00088670Y00868901D01*
X00088323Y00868809D01*
X00087930Y00868785D01*
X00085593D01*
X00085454Y00868809D01*
X00085269Y00868832D01*
X00085014Y00868878D01*
X00084713Y00868971D01*
X00084413Y00869086D01*
X00084112Y00869271D01*
X00083834Y00869503D01*
X00083811Y00869526D01*
X00083719Y00869642D01*
X00083626Y00869781D01*
X00083487Y00869989D01*
X00083371Y00870266D01*
X00083256Y00870567D01*
X00083163Y00870914D01*
X00083140Y00871308D01*
Y00878157D01*
Y00878180D01*
Y00878250D01*
Y00878342D01*
X00083163Y00878458D01*
X00083209Y00878782D01*
X00083325Y00879106D01*
Y00879129D01*
X00083371Y00879175D01*
X00083395Y00879268D01*
X00083464Y00879383D01*
X00083626Y00879638D01*
X00083834Y00879916D01*
X00083857Y00879939D01*
X00083904Y00879985D01*
X00083973Y00880031D01*
X00084066Y00880124D01*
X00084320Y00880286D01*
X00084621Y00880448D01*
X00084644D01*
X00084713Y00880471D01*
X00084806Y00880517D01*
X00084922Y00880564D01*
X00085084Y00880587D01*
X00085246Y00880633D01*
X00085639Y00880656D01*
X00088115D01*
X00088254Y00880633D01*
D02*
G37*
G36*
X00080618Y00885214D02*
X00080734Y00885191D01*
X00080896Y00885145D01*
X00081058Y00885029D01*
X00081173Y00884891D01*
X00081266Y00884705D01*
X00081312Y00884428D01*
Y00884405D01*
Y00884381D01*
X00081289Y00884243D01*
X00081220Y00884057D01*
X00081081Y00883872D01*
X00081034Y00883826D01*
X00080919Y00883757D01*
X00080734Y00883687D01*
X00080479Y00883641D01*
X00077494D01*
X00077332Y00883618D01*
X00077124Y00883572D01*
X00076916Y00883502D01*
X00076661Y00883387D01*
X00076430Y00883248D01*
X00076198Y00883039D01*
X00076175Y00883016D01*
X00076106Y00882947D01*
X00076013Y00882808D01*
X00075921Y00882646D01*
X00075805Y00882415D01*
X00075712Y00882160D01*
X00075643Y00881882D01*
X00075620Y00881559D01*
Y00872418D01*
Y00872395D01*
Y00872349D01*
Y00872256D01*
X00075643Y00872164D01*
X00075689Y00871886D01*
X00075759Y00871609D01*
Y00871585D01*
X00075782Y00871539D01*
X00075828Y00871470D01*
X00075874Y00871400D01*
X00076013Y00871169D01*
X00076198Y00870961D01*
X00076221D01*
X00076245Y00870914D01*
X00076383Y00870799D01*
X00076592Y00870660D01*
X00076846Y00870521D01*
X00076869D01*
X00076916Y00870498D01*
X00076985Y00870475D01*
X00077077Y00870452D01*
X00077332Y00870405D01*
X00077633Y00870382D01*
X00080525D01*
X00080618Y00870359D01*
X00080734Y00870336D01*
X00080896Y00870290D01*
X00081058Y00870174D01*
X00081173Y00870035D01*
X00081266Y00869850D01*
X00081312Y00869572D01*
Y00869549D01*
Y00869526D01*
X00081289Y00869387D01*
X00081220Y00869202D01*
X00081081Y00869017D01*
X00081034Y00868971D01*
X00080919Y00868901D01*
X00080734Y00868832D01*
X00080479Y00868785D01*
X00077494D01*
X00077378Y00868809D01*
X00077239Y00868832D01*
X00077101Y00868855D01*
X00076730Y00868924D01*
X00076337Y00869063D01*
X00075897Y00869271D01*
X00075666Y00869410D01*
X00075435Y00869572D01*
X00075203Y00869734D01*
X00074995Y00869942D01*
Y00869966D01*
X00074949Y00869989D01*
X00074833Y00870105D01*
X00074671Y00870313D01*
X00074509Y00870613D01*
X00074324Y00870961D01*
X00074162Y00871377D01*
X00074046Y00871863D01*
X00074023Y00872141D01*
X00074000Y00872418D01*
Y00881559D01*
Y00881582D01*
Y00881628D01*
Y00881697D01*
X00074023Y00881813D01*
Y00881952D01*
X00074046Y00882091D01*
X00074139Y00882461D01*
X00074254Y00882854D01*
X00074440Y00883294D01*
X00074694Y00883734D01*
X00074856Y00883942D01*
X00075041Y00884150D01*
X00075064Y00884173D01*
X00075088Y00884196D01*
X00075157Y00884243D01*
X00075226Y00884312D01*
X00075458Y00884497D01*
X00075782Y00884705D01*
X00076152Y00884891D01*
X00076592Y00885076D01*
X00077101Y00885191D01*
X00077355Y00885238D01*
X00080525D01*
X00080618Y00885214D01*
D02*
G37*
%LPC*%
G36*
X00189651Y00883641D02*
X00188355D01*
X00188262Y00883618D01*
X00188008Y00883572D01*
X00187730Y00883479D01*
X00187707D01*
X00187661Y00883456D01*
X00187614Y00883410D01*
X00187522Y00883363D01*
X00187314Y00883224D01*
X00187082Y00883016D01*
Y00882993D01*
X00187036Y00882970D01*
X00186920Y00882831D01*
X00186781Y00882623D01*
X00186643Y00882368D01*
Y00882345D01*
X00186619Y00882299D01*
X00186596Y00882230D01*
X00186573Y00882137D01*
X00186527Y00881882D01*
X00186504Y00881559D01*
Y00872418D01*
Y00872395D01*
Y00872349D01*
Y00872256D01*
X00186527Y00872164D01*
X00186573Y00871886D01*
X00186643Y00871609D01*
Y00871585D01*
X00186666Y00871539D01*
X00186712Y00871470D01*
X00186758Y00871400D01*
X00186897Y00871169D01*
X00187082Y00870961D01*
X00187105D01*
X00187129Y00870914D01*
X00187267Y00870799D01*
X00187476Y00870660D01*
X00187730Y00870521D01*
X00187753D01*
X00187800Y00870498D01*
X00187869Y00870475D01*
X00187962Y00870452D01*
X00188216Y00870405D01*
X00188517Y00870382D01*
X00189813D01*
X00189975Y00870405D01*
X00190183Y00870452D01*
X00190414Y00870521D01*
X00190646Y00870613D01*
X00190900Y00870752D01*
X00191132Y00870938D01*
X00191155Y00870961D01*
X00191224Y00871053D01*
X00191317Y00871169D01*
X00191432Y00871331D01*
X00191548Y00871562D01*
X00191641Y00871817D01*
X00191710Y00872094D01*
X00191733Y00872418D01*
Y00881559D01*
Y00881582D01*
Y00881628D01*
Y00881697D01*
X00191710Y00881813D01*
X00191664Y00882044D01*
X00191571Y00882322D01*
Y00882345D01*
X00191548Y00882392D01*
X00191502Y00882461D01*
X00191456Y00882553D01*
X00191317Y00882762D01*
X00191108Y00882993D01*
X00191085Y00883016D01*
X00191062Y00883039D01*
X00190923Y00883155D01*
X00190715Y00883317D01*
X00190461Y00883456D01*
X00190438D01*
X00190391Y00883479D01*
X00190322Y00883525D01*
X00190229Y00883549D01*
X00189975Y00883618D01*
X00189651Y00883641D01*
D02*
G37*
G36*
X00126758Y00883641D02*
X00123611D01*
Y00870382D01*
X00126920D01*
X00127082Y00870405D01*
X00127290Y00870452D01*
X00127521Y00870521D01*
X00127753Y00870613D01*
X00128007Y00870752D01*
X00128239Y00870938D01*
X00128262Y00870961D01*
X00128331Y00871053D01*
X00128424Y00871169D01*
X00128540Y00871331D01*
X00128655Y00871562D01*
X00128748Y00871817D01*
X00128817Y00872094D01*
X00128840Y00872418D01*
Y00881559D01*
Y00881582D01*
Y00881628D01*
Y00881697D01*
X00128817Y00881813D01*
X00128771Y00882044D01*
X00128678Y00882322D01*
Y00882345D01*
X00128655Y00882392D01*
X00128609Y00882461D01*
X00128563Y00882553D01*
X00128424Y00882762D01*
X00128216Y00882993D01*
X00128193Y00883016D01*
X00128169Y00883039D01*
X00128031Y00883155D01*
X00127822Y00883317D01*
X00127568Y00883456D01*
X00127545D01*
X00127498Y00883479D01*
X00127429Y00883525D01*
X00127336Y00883548D01*
X00127082Y00883618D01*
X00126758Y00883641D01*
D02*
G37*
G36*
X00115327Y00881998D02*
X00113568Y00874964D01*
X00117132D01*
X00115327Y00881998D01*
D02*
G37*
G36*
X00088069Y00879059D02*
X00085570D01*
X00085408Y00879036D01*
X00085223Y00878944D01*
X00085107Y00878874D01*
X00085014Y00878782D01*
X00084968Y00878736D01*
X00084899Y00878620D01*
X00084806Y00878411D01*
X00084783Y00878296D01*
X00084760Y00878157D01*
Y00871285D01*
Y00871261D01*
Y00871215D01*
X00084783Y00871146D01*
Y00871053D01*
X00084875Y00870845D01*
X00084922Y00870729D01*
X00085014Y00870637D01*
X00085037D01*
X00085061Y00870590D01*
X00085176Y00870521D01*
X00085385Y00870428D01*
X00085500Y00870405D01*
X00085616Y00870382D01*
X00087999D01*
X00088069Y00870405D01*
X00088161D01*
X00088370Y00870498D01*
X00088485Y00870544D01*
X00088578Y00870637D01*
X00088601Y00870660D01*
X00088624Y00870683D01*
X00088717Y00870822D01*
X00088809Y00871007D01*
X00088855Y00871146D01*
Y00871285D01*
Y00878157D01*
Y00878180D01*
Y00878226D01*
X00088832Y00878296D01*
Y00878365D01*
X00088740Y00878574D01*
X00088670Y00878689D01*
X00088578Y00878782D01*
Y00878805D01*
X00088532Y00878828D01*
X00088393Y00878921D01*
X00088208Y00879013D01*
X00088069Y00879059D01*
D02*
G37*
%LPD*%
G36*
X00354000Y00822000D02*
X00340000D01*
X00332000Y00830000D01*
X00263000D01*
Y00709000D01*
X00289000D01*
Y00690000D01*
X00205000D01*
X00205000Y00249000D01*
X00213000Y00241000D01*
X00399000Y00241000D01*
Y00228000D01*
X00214000D01*
X00199000Y00213000D01*
X00183000Y00213000D01*
Y00709000D01*
X00245000D01*
Y00848000D01*
X00354000D01*
Y00822000D01*
D02*
G37*
G36*
X00541000Y00628750D02*
Y00600000D01*
X00529000D01*
Y00617000D01*
X00508000D01*
Y00606000D01*
X00494000D01*
Y00630000D01*
X00541000D01*
Y00628750D01*
D02*
G37*
G36*
X00548536Y00604600D02*
X00548550Y00604528D01*
Y00597650D01*
X00555950D01*
X00555950Y00597650D01*
X00557220Y00597729D01*
X00557900Y00597594D01*
X00559600D01*
X00559668Y00597608D01*
X00560650Y00596802D01*
Y00585550D01*
Y00574350D01*
X00537350D01*
Y00585550D01*
Y00597650D01*
X00542950D01*
Y00599552D01*
X00543039Y00600000D01*
Y00609000D01*
X00548536D01*
Y00604600D01*
D02*
G37*
G36*
X00527000Y00315500D02*
X00526500Y00315000D01*
X00525000D01*
Y00321400D01*
X00527000D01*
Y00315500D01*
D02*
G37*
G36*
X00507000Y00315000D02*
X00505500D01*
X00505000Y00315500D01*
Y00321400D01*
X00507000D01*
Y00315000D01*
D02*
G37*
G36*
X00504000Y00313500D02*
Y00312000D01*
X00497600D01*
Y00314000D01*
X00503500D01*
X00504000Y00313500D01*
D02*
G37*
G36*
X00597000Y00306000D02*
X00568000D01*
Y00333000D01*
X00597000D01*
Y00306000D01*
D02*
G37*
G36*
X00504000Y00292500D02*
X00503500Y00292000D01*
X00497600D01*
Y00294000D01*
X00504000D01*
Y00292500D01*
D02*
G37*
G36*
X00527000Y00290500D02*
Y00284600D01*
X00525000D01*
Y00291000D01*
X00526500D01*
X00527000Y00290500D01*
D02*
G37*
G36*
X00507000Y00284600D02*
X00505000D01*
Y00290500D01*
X00505500Y00291000D01*
X00507000D01*
Y00284600D01*
D02*
G37*
G36*
X00568000Y00303961D02*
X00580000D01*
Y00276000D01*
X00554000D01*
Y00289000D01*
X00540000D01*
X00538000Y00291000D01*
X00529000D01*
Y00292000D01*
X00528500D01*
X00528000Y00292500D01*
Y00294000D01*
X00537000D01*
Y00304000D01*
X00567803D01*
X00568000Y00303961D01*
D02*
G37*
D11*
X00510000Y00318450D02*
Y00325000D01*
X00487000Y00330000D02*
X00505000D01*
X00510000Y00325000D01*
X00472900Y00344100D02*
X00487000Y00330000D01*
X00488000Y00336000D02*
X00515750D01*
X00467000Y00357000D02*
X00488000Y00336000D01*
X00514000Y00267250D02*
X00514000D01*
Y00287800D01*
X00446000Y00388000D02*
X00452900Y00394900D01*
X00446000Y00361000D02*
Y00388000D01*
X00452900Y00394900D02*
X00457900D01*
X00526000Y00285598D02*
X00540152Y00285598D01*
X00507723Y00275723D02*
X00507723Y00251723D01*
X00446000Y00361000D02*
X00450000Y00357000D01*
X00467000D01*
X00510000Y00278000D02*
Y00287800D01*
X00507723Y00275723D02*
X00510000Y00278000D01*
X00518000Y00279000D02*
Y00287800D01*
X00540152Y00285598D02*
X00545750Y00280000D01*
X00526000Y00285598D02*
Y00287550D01*
X00490000Y00313000D02*
X00500800D01*
X00457900Y00344100D02*
X00472900D01*
X00490000Y00282000D02*
X00490000Y00282000D01*
X00490000Y00282000D02*
Y00313000D01*
X00457900Y00318700D02*
X00462699Y00323499D01*
X00503501D02*
X00506000Y00321000D01*
X00462699Y00323499D02*
X00503501D01*
X00506000Y00318450D02*
Y00321000D01*
X00496278Y00275723D02*
X00507723D01*
X00490000Y00282000D02*
X00496278Y00275723D01*
X00531450Y00320000D02*
X00533000D01*
X00531450Y00313000D02*
Y00320000D01*
X00531450Y00320000D01*
X00533000D02*
X00545000D01*
Y00311250D02*
Y00320000D01*
X00522000Y00281000D02*
X00527000Y00276000D01*
X00543250Y00293000D02*
X00545000Y00294750D01*
X00531450Y00293000D02*
X00543250D01*
X00527000Y00276000D02*
X00532000D01*
X00522000Y00281000D02*
Y00287550D01*
X00523750Y00266000D02*
Y00273250D01*
X00518000Y00279000D02*
X00523750Y00273250D01*
X00555750Y00326000D02*
X00555750Y00326000D01*
X00522000Y00326000D02*
X00555750D01*
X00514000Y00334250D02*
X00515750Y00336000D01*
X00514000Y00318450D02*
Y00334250D01*
X00522000Y00326000D02*
X00522000Y00326000D01*
X00522000Y00318450D02*
Y00326000D01*
D13*
X00153000Y00305000D02*
X00194000D01*
X00732000Y00751000D02*
Y00792000D01*
X00721000Y00803000D02*
X00732000Y00792000D01*
X00711000Y00803000D02*
X00721000D01*
X00732000Y00613000D02*
Y00654000D01*
X00721000Y00665000D02*
X00732000Y00654000D01*
X00711000Y00665000D02*
X00721000D01*
X00711000Y00527000D02*
X00721000D01*
X00732000Y00516000D01*
Y00475000D02*
Y00516000D01*
X00573000Y00287000D02*
Y00294750D01*
X00190600Y00080300D02*
Y00105700D01*
X00216000Y00080300D02*
Y00105700D01*
X00241400Y00080300D02*
Y00105700D01*
X00087000Y00289000D02*
X00195000D01*
X00563000Y00294750D02*
X00573000D01*
X00559000D02*
X00563000D01*
X00562250Y00294000D02*
X00563000Y00294750D01*
X00562250Y00280000D02*
Y00294000D01*
X00532250Y00336000D02*
X00543000D01*
X00545000Y00294750D02*
X00559000D01*
X00532750Y00637000D02*
X00533000Y00637250D01*
X00524000Y00637000D02*
X00532750D01*
D14*
X00500800Y00293000D02*
D03*
X00531200D02*
D03*
Y00313000D02*
D03*
X00500800D02*
D03*
D15*
X00506000Y00287800D02*
D03*
X00526000D02*
D03*
Y00318200D02*
D03*
X00506000D02*
D03*
D16*
X00500800Y00301000D02*
D03*
Y00309000D02*
D03*
Y00305000D02*
D03*
Y00297000D02*
D03*
X00531200D02*
D03*
Y00301000D02*
D03*
Y00305000D02*
D03*
Y00309000D02*
D03*
D17*
X00510000Y00287800D02*
D03*
X00514000D02*
D03*
X00518000D02*
D03*
X00522000D02*
D03*
Y00318200D02*
D03*
X00518000D02*
D03*
X00514000D02*
D03*
X00510000D02*
D03*
D18*
X00565000Y00651500D02*
D03*
Y00635000D02*
D03*
X00547000Y00651250D02*
D03*
Y00634750D02*
D03*
X00533000Y00637250D02*
D03*
Y00620750D02*
D03*
X00515000Y00593750D02*
D03*
Y00610250D02*
D03*
X00501000Y00593750D02*
D03*
Y00610250D02*
D03*
X00515000Y00578250D02*
D03*
Y00561750D02*
D03*
X00501000Y00578250D02*
D03*
Y00561750D02*
D03*
X00583000Y00577750D02*
D03*
Y00594250D02*
D03*
X00533000Y00551250D02*
D03*
Y00534750D02*
D03*
X00547000Y00520750D02*
D03*
Y00537250D02*
D03*
X00565000Y00520750D02*
D03*
Y00537250D02*
D03*
X00573000Y00294750D02*
D03*
Y00311250D02*
D03*
X00559000D02*
D03*
Y00294750D02*
D03*
X00545000Y00311250D02*
D03*
Y00294750D02*
D03*
D19*
X00564250Y00620000D02*
D03*
X00547750D02*
D03*
X00614250Y00595000D02*
D03*
X00597750D02*
D03*
X00614250Y00577000D02*
D03*
X00597750D02*
D03*
X00547750Y00552000D02*
D03*
X00564250Y00552000D02*
D03*
X00524250Y00252000D02*
D03*
X00507750D02*
D03*
X00540250Y00266000D02*
D03*
X00523750D02*
D03*
X00562250Y00280000D02*
D03*
X00545750D02*
D03*
X00555750Y00326000D02*
D03*
X00572250D02*
D03*
X00532250Y00336000D02*
D03*
X00515750D02*
D03*
D20*
X00530400Y00595750D02*
D03*
Y00589250D02*
D03*
Y00582750D02*
D03*
Y00576250D02*
D03*
X00567600D02*
D03*
Y00582750D02*
D03*
Y00589250D02*
D03*
Y00595750D02*
D03*
D21*
X00558750Y00604600D02*
D03*
D22*
X00552250D02*
D03*
X00545750D02*
D03*
X00539250D02*
D03*
Y00567400D02*
D03*
X00545750D02*
D03*
X00552250D02*
D03*
X00558750D02*
D03*
D23*
X00516000Y00303000D02*
D03*
D24*
X00549000Y00586000D02*
D03*
D25*
X00457900Y00801300D02*
D03*
X00165200Y00105700D02*
D03*
X00659000Y00788700D02*
D03*
X00659000Y00650700D02*
D03*
Y00512700D02*
D03*
D26*
X00457900Y00775900D02*
D03*
Y00750500D02*
D03*
Y00725100D02*
D03*
Y00699700D02*
D03*
Y00674300D02*
D03*
Y00648900D02*
D03*
Y00572700D02*
D03*
Y00547300D02*
D03*
Y00521900D02*
D03*
Y00496500D02*
D03*
Y00471100D02*
D03*
Y00445700D02*
D03*
X00280100Y00471100D02*
D03*
Y00496500D02*
D03*
Y00521900D02*
D03*
Y00547300D02*
D03*
Y00572700D02*
D03*
Y00598100D02*
D03*
Y00623500D02*
D03*
Y00648900D02*
D03*
Y00674300D02*
D03*
Y00725100D02*
D03*
Y00750500D02*
D03*
Y00775900D02*
D03*
Y00801300D02*
D03*
Y00445700D02*
D03*
X00457900Y00420300D02*
D03*
Y00394900D02*
D03*
Y00369500D02*
D03*
Y00344100D02*
D03*
Y00318700D02*
D03*
X00280100Y00420300D02*
D03*
Y00394900D02*
D03*
Y00369500D02*
D03*
Y00344100D02*
D03*
Y00318700D02*
D03*
Y00699700D02*
D03*
X00266800Y00105700D02*
D03*
Y00080300D02*
D03*
X00292200Y00105700D02*
D03*
Y00080300D02*
D03*
X00317600Y00105700D02*
D03*
Y00080300D02*
D03*
X00343000Y00105700D02*
D03*
Y00080300D02*
D03*
X00368400Y00105700D02*
D03*
Y00080300D02*
D03*
X00393800Y00105700D02*
D03*
Y00080300D02*
D03*
X00419200Y00105700D02*
D03*
Y00080300D02*
D03*
X00444600Y00105700D02*
D03*
Y00080300D02*
D03*
X00470000Y00105700D02*
D03*
Y00080300D02*
D03*
X00495400Y00105700D02*
D03*
Y00080300D02*
D03*
X00520800Y00105700D02*
D03*
Y00080300D02*
D03*
X00546200Y00105700D02*
D03*
Y00080300D02*
D03*
X00571600Y00105700D02*
D03*
Y00080300D02*
D03*
X00597000Y00105700D02*
D03*
Y00080300D02*
D03*
X00622400Y00105700D02*
D03*
Y00080300D02*
D03*
X00647800Y00105700D02*
D03*
Y00080300D02*
D03*
X00673200Y00105700D02*
D03*
Y00080300D02*
D03*
X00698600Y00105700D02*
D03*
Y00080300D02*
D03*
X00724000Y00105700D02*
D03*
Y00080300D02*
D03*
X00749400Y00105700D02*
D03*
Y00080300D02*
D03*
X00774800Y00105700D02*
D03*
Y00080300D02*
D03*
X00216000Y00105700D02*
D03*
X00190600D02*
D03*
X00216000Y00080300D02*
D03*
X00190600D02*
D03*
X00165200D02*
D03*
X00241400Y00105700D02*
D03*
Y00080300D02*
D03*
X00659000Y00763300D02*
D03*
Y00625300D02*
D03*
Y00487300D02*
D03*
D27*
X00457900Y00623500D02*
D03*
Y00598100D02*
D03*
D28*
X00894000Y00799500D02*
D03*
Y00724500D02*
D03*
X00844000Y00799500D02*
D03*
X00844000Y00724500D02*
D03*
X00894000Y00095500D02*
D03*
Y00020500D02*
D03*
X00844000Y00095500D02*
D03*
Y00020500D02*
D03*
X00046000D02*
D03*
Y00095500D02*
D03*
X00096000Y00020500D02*
D03*
Y00095500D02*
D03*
X00046000Y00724500D02*
D03*
Y00799500D02*
D03*
X00096000Y00724500D02*
D03*
Y00799500D02*
D03*
D29*
X00821000Y00769000D02*
Y00794000D01*
X00825000Y00743000D02*
Y00765000D01*
X00821000Y00769000D02*
X00825000Y00765000D01*
X00808000Y00771000D02*
Y00790000D01*
X00786000Y00812000D02*
X00808000Y00790000D01*
X00793000Y00822000D02*
X00821000Y00794000D01*
X00814000Y00792000D02*
X00815000Y00791000D01*
Y00763000D02*
Y00791000D01*
X00800000Y00418000D02*
Y00476000D01*
X00809000Y00419000D02*
Y00495000D01*
X00782000Y00392000D02*
X00809000Y00419000D01*
X00331000Y00071000D02*
Y00142000D01*
X00380000D02*
X00381000Y00141000D01*
Y00066000D02*
Y00141000D01*
X00756000Y00682000D02*
X00797000D01*
X00815000Y00664000D01*
Y00625000D02*
Y00664000D01*
X00708000Y00730000D02*
X00756000Y00682000D01*
X00481836Y00730000D02*
X00708000D01*
X00485000Y00724000D02*
X00706000D01*
X00754000Y00676000D02*
X00795000D01*
X00706000Y00724000D02*
X00754000Y00676000D01*
X00489000Y00718000D02*
X00704000D01*
X00752000Y00670000D02*
X00793000D01*
X00704000Y00718000D02*
X00752000Y00670000D01*
X00795000Y00676000D02*
X00808000Y00663000D01*
Y00632808D02*
Y00663000D01*
X00793000Y00670000D02*
X00801000Y00662000D01*
Y00605000D02*
Y00662000D01*
X00555000Y00261000D02*
Y00269000D01*
X00280100Y00598100D02*
X00280200Y00598000D01*
X00368000D01*
X00545750Y00278250D02*
Y00280000D01*
Y00278250D02*
X00555000Y00269000D01*
X00325000Y00065000D02*
X00331000Y00071000D01*
X00216000Y00637000D02*
X00227900Y00648900D01*
X00216000Y00312000D02*
Y00637000D01*
X00227900Y00648900D02*
X00280100D01*
X00515000Y00605000D02*
X00523000D01*
X00515000Y00567000D02*
X00523299D01*
X00515000Y00561750D02*
Y00567000D01*
Y00605000D02*
Y00610250D01*
X00494250Y00593750D02*
X00501000D01*
X00477000Y00611000D02*
X00494250Y00593750D01*
X00452000Y00611000D02*
X00477000D01*
X00478900Y00598100D02*
X00498750Y00578250D01*
X00457900Y00598100D02*
X00478900D01*
X00498750Y00578250D02*
X00501000D01*
X00445000Y00604000D02*
X00452000Y00611000D01*
X00445000Y00585600D02*
Y00604000D01*
Y00585600D02*
X00457900Y00572700D01*
X00620250Y00589000D02*
X00693000D01*
X00705000Y00563327D02*
Y00577000D01*
X00693000Y00589000D02*
X00705000Y00577000D01*
X00614250Y00595000D02*
X00620250Y00589000D01*
X00690000Y00583000D02*
X00697000Y00576000D01*
X00614000Y00577000D02*
X00620000Y00583000D01*
X00690000D01*
X00499000Y00817000D02*
X00789000Y00817000D01*
X00814000Y00792000D01*
X00504000Y00812000D02*
X00786000D01*
X00475000Y00783000D02*
X00504000Y00812000D01*
X00475000Y00742200D02*
Y00783000D01*
X00457900Y00801300D02*
X00473300D01*
X00494000Y00822000D02*
X00793000Y00822000D01*
X00473300Y00801300D02*
X00494000Y00822000D01*
X00475000Y00691400D02*
Y00704000D01*
X00489000Y00718000D01*
X00460700Y00699700D02*
X00485000Y00724000D01*
X00457900Y00699700D02*
X00460700D01*
X00457900Y00674300D02*
X00475000Y00691400D01*
X00463836Y00712000D02*
X00481836Y00730000D01*
X00553000Y00453000D02*
Y00514750D01*
X00587000Y00419000D02*
X00697000D01*
X00553000Y00453000D02*
X00587000Y00419000D01*
X00444000Y00705000D02*
X00451000Y00712000D01*
X00444000Y00662800D02*
X00457900Y00648900D01*
X00444000Y00662800D02*
Y00705000D01*
X00451000Y00712000D02*
X00463836D01*
X00777000Y00403000D02*
X00793000Y00419000D01*
X00504000Y00403000D02*
X00777000D01*
X00793000Y00419000D02*
Y00467000D01*
X00498000Y00392000D02*
X00782000D01*
X00780000Y00398000D02*
X00800000Y00418000D01*
X00500000Y00398000D02*
X00780000D01*
X00457900Y00521900D02*
X00486000Y00493800D01*
Y00412000D02*
X00500000Y00398000D01*
X00486000Y00412000D02*
Y00493800D01*
X00480000Y00410000D02*
X00498000Y00392000D01*
X00480000Y00410000D02*
Y00449000D01*
X00457900Y00471100D02*
X00480000Y00449000D01*
X00457900Y00445700D02*
X00474000Y00429600D01*
Y00408000D02*
X00496000Y00386000D01*
X00474000Y00408000D02*
Y00429600D01*
X00496000Y00386000D02*
X00752000D01*
X00758000Y00380000D01*
X00492000Y00415000D02*
X00504000Y00403000D01*
X00492000Y00415000D02*
Y00494164D01*
X00568000Y00695000D02*
X00705000D01*
X00567000Y00703000D02*
X00697000D01*
X00559000Y00686000D02*
X00568000Y00695000D01*
X00523000Y00599000D02*
Y00605000D01*
Y00599000D02*
X00526250Y00595750D01*
X00530400D01*
X00457900Y00775900D02*
X00499000Y00817000D01*
X00559000Y00657500D02*
Y00686000D01*
X00553000Y00689000D02*
X00567000Y00703000D01*
X00553000Y00657250D02*
Y00689000D01*
X00697000Y00557000D02*
Y00576000D01*
X00559000Y00455000D02*
X00587000Y00427000D01*
X00705000D01*
X00559000Y00455000D02*
Y00514500D01*
X00758000Y00245000D02*
Y00380000D01*
X00492000Y00494164D02*
Y00513200D01*
X00457900Y00547300D02*
X00492000Y00513200D01*
X00457900Y00725100D02*
X00475000Y00742200D01*
X00547000Y00520750D02*
X00553000Y00514750D01*
X00559000Y00514500D02*
X00565000Y00520500D01*
X00559000Y00657500D02*
X00565000Y00651500D01*
X00547000Y00651250D02*
X00553000Y00657250D01*
X00292200Y00069800D02*
X00297000Y00065000D01*
X00325000D01*
X00266800Y00066200D02*
X00278000Y00055000D01*
X00370000D01*
X00266800Y00066200D02*
Y00080300D01*
Y00105700D01*
X00370000Y00055000D02*
X00381000Y00066000D01*
X00292200Y00080300D02*
Y00105700D01*
Y00069800D02*
Y00080300D01*
X00564250Y00634250D02*
X00565000Y00635000D01*
X00564250Y00620000D02*
Y00634250D01*
X00547000Y00620250D02*
X00552104Y00615146D01*
X00547000Y00620250D02*
Y00634750D01*
X00564250Y00552000D02*
X00565000Y00551250D01*
Y00537250D02*
Y00551250D01*
X00547104Y00551854D02*
X00552104Y00556854D01*
X00547000Y00537250D02*
Y00551250D01*
X00547750Y00552000D01*
X00514709Y00577750D02*
X00519708Y00582750D01*
X00501000Y00578250D02*
X00515000D01*
X00514208Y00593750D02*
X00514709Y00594250D01*
X00519708Y00589250D01*
X00501000Y00593750D02*
X00514208D01*
X00597000Y00594250D02*
X00597750Y00595000D01*
X00583000Y00594250D02*
X00597000D01*
X00583000Y00577750D02*
X00583750Y00577000D01*
X00597500D01*
X00552104Y00604600D02*
Y00615146D01*
X00558604Y00604600D02*
Y00615146D01*
X00563604Y00620146D01*
X00558604Y00556854D02*
Y00567400D01*
Y00556854D02*
X00563604Y00551854D01*
X00552104Y00556854D02*
Y00567400D01*
X00519708Y00589250D02*
X00530254D01*
X00519708Y00582750D02*
X00530254D01*
X00578000Y00589250D02*
X00583000Y00594250D01*
X00567454Y00589250D02*
X00578000D01*
Y00582750D02*
X00583000Y00577750D01*
X00567454Y00582750D02*
X00578000D01*
D30*
X00314000Y00152000D02*
X00353000D01*
X00165200Y00143200D02*
X00174000Y00152000D01*
X00314000D01*
Y00206000D01*
X00234000Y00234000D02*
X00234000Y00234000D01*
Y00198000D02*
Y00234000D01*
X00165200Y00105700D02*
Y00143200D01*
D31*
Y00080300D02*
Y00105700D01*
D32*
X00542347Y00559000D02*
X00545604Y00562257D01*
X00535000Y00559000D02*
X00542347D01*
X00545604Y00562257D02*
Y00567400D01*
X00533000Y00557000D02*
X00535000Y00559000D01*
X00533000Y00551250D02*
Y00557000D01*
D33*
X00567000Y00596350D02*
Y00604000D01*
X00533000Y00534750D02*
X00533000Y00534750D01*
X00533000Y00525000D02*
Y00534750D01*
X00501000Y00551000D02*
X00501000Y00551000D01*
Y00561750D01*
D34*
X00164000Y00321000D02*
D03*
X00825000Y00743000D02*
D03*
X00808000Y00771000D02*
D03*
X00815000Y00763000D02*
D03*
X00800000Y00476000D02*
D03*
X00809000Y00495000D02*
D03*
X00224000Y00663000D02*
D03*
X00260000Y00234000D02*
D03*
X00800000Y00512000D02*
D03*
X00238000Y00745000D02*
D03*
X00741000Y00146000D02*
D03*
Y00157000D02*
D03*
Y00168000D02*
D03*
X00797000Y00788000D02*
D03*
X00786000Y00796000D02*
D03*
Y00520000D02*
D03*
X00306000Y00141000D02*
D03*
X00261000D02*
D03*
X00331000D02*
D03*
X00353000D02*
D03*
X00915000Y00780000D02*
D03*
X00900000Y00750000D02*
D03*
Y00690000D02*
D03*
X00915000Y00660000D02*
D03*
X00900000Y00630000D02*
D03*
X00915000Y00600000D02*
D03*
X00900000Y00570000D02*
D03*
X00915000Y00540000D02*
D03*
X00900000Y00510000D02*
D03*
X00915000Y00480000D02*
D03*
X00900000Y00450000D02*
D03*
X00915000Y00420000D02*
D03*
X00900000Y00390000D02*
D03*
X00915000Y00360000D02*
D03*
X00900000Y00330000D02*
D03*
X00915000Y00300000D02*
D03*
X00900000Y00270000D02*
D03*
X00915000Y00240000D02*
D03*
X00900000Y00210000D02*
D03*
X00915000Y00180000D02*
D03*
X00900000Y00150000D02*
D03*
X00915000Y00120000D02*
D03*
Y00060000D02*
D03*
X00870000Y00870000D02*
D03*
Y00810000D02*
D03*
X00885000Y00780000D02*
D03*
X00870000Y00750000D02*
D03*
Y00690000D02*
D03*
X00885000Y00660000D02*
D03*
X00870000Y00630000D02*
D03*
X00885000Y00600000D02*
D03*
X00870000Y00570000D02*
D03*
X00885000Y00540000D02*
D03*
X00870000Y00510000D02*
D03*
X00885000Y00480000D02*
D03*
X00870000Y00450000D02*
D03*
X00885000Y00420000D02*
D03*
X00870000Y00390000D02*
D03*
X00885000Y00360000D02*
D03*
X00870000Y00330000D02*
D03*
X00885000Y00300000D02*
D03*
X00870000Y00270000D02*
D03*
X00885000Y00240000D02*
D03*
X00870000Y00210000D02*
D03*
X00885000Y00180000D02*
D03*
X00870000Y00150000D02*
D03*
X00885000Y00120000D02*
D03*
X00870000Y00090000D02*
D03*
X00885000Y00060000D02*
D03*
X00870000Y00030000D02*
D03*
X00840000Y00870000D02*
D03*
X00855000Y00840000D02*
D03*
Y00780000D02*
D03*
X00840000Y00750000D02*
D03*
Y00690000D02*
D03*
X00855000Y00660000D02*
D03*
X00840000Y00630000D02*
D03*
X00855000Y00600000D02*
D03*
X00840000Y00570000D02*
D03*
X00855000Y00540000D02*
D03*
X00840000Y00510000D02*
D03*
X00855000Y00420000D02*
D03*
X00840000Y00390000D02*
D03*
Y00330000D02*
D03*
X00855000Y00300000D02*
D03*
X00840000Y00270000D02*
D03*
X00855000Y00240000D02*
D03*
X00840000Y00210000D02*
D03*
X00855000Y00180000D02*
D03*
X00840000Y00150000D02*
D03*
X00855000Y00120000D02*
D03*
Y00060000D02*
D03*
X00810000Y00870000D02*
D03*
X00825000Y00840000D02*
D03*
X00810000Y00750000D02*
D03*
Y00690000D02*
D03*
X00825000Y00660000D02*
D03*
Y00600000D02*
D03*
X00810000Y00570000D02*
D03*
X00825000Y00540000D02*
D03*
Y00480000D02*
D03*
Y00420000D02*
D03*
X00810000Y00390000D02*
D03*
X00825000Y00360000D02*
D03*
X00810000Y00330000D02*
D03*
X00825000Y00300000D02*
D03*
X00810000Y00270000D02*
D03*
X00825000Y00240000D02*
D03*
Y00180000D02*
D03*
Y00120000D02*
D03*
Y00060000D02*
D03*
X00780000Y00870000D02*
D03*
X00795000Y00840000D02*
D03*
Y00720000D02*
D03*
X00780000Y00690000D02*
D03*
Y00570000D02*
D03*
X00795000Y00540000D02*
D03*
X00780000Y00450000D02*
D03*
X00795000Y00360000D02*
D03*
X00780000Y00330000D02*
D03*
X00795000Y00300000D02*
D03*
X00780000Y00270000D02*
D03*
X00795000Y00180000D02*
D03*
X00750000Y00870000D02*
D03*
X00765000Y00840000D02*
D03*
Y00720000D02*
D03*
Y00360000D02*
D03*
X00750000Y00330000D02*
D03*
X00765000Y00300000D02*
D03*
Y00120000D02*
D03*
X00720000Y00870000D02*
D03*
X00735000Y00840000D02*
D03*
Y00540000D02*
D03*
Y00360000D02*
D03*
X00720000Y00330000D02*
D03*
X00735000Y00300000D02*
D03*
Y00120000D02*
D03*
X00690000Y00870000D02*
D03*
X00705000Y00840000D02*
D03*
Y00540000D02*
D03*
Y00360000D02*
D03*
X00690000Y00330000D02*
D03*
X00705000Y00300000D02*
D03*
X00690000Y00150000D02*
D03*
X00705000Y00120000D02*
D03*
X00660000Y00870000D02*
D03*
X00675000Y00840000D02*
D03*
Y00540000D02*
D03*
Y00360000D02*
D03*
Y00300000D02*
D03*
X00660000Y00150000D02*
D03*
X00675000Y00120000D02*
D03*
X00645000Y00840000D02*
D03*
X00630000Y00750000D02*
D03*
X00645000Y00120000D02*
D03*
X00615000Y00840000D02*
D03*
Y00780000D02*
D03*
X00600000Y00750000D02*
D03*
Y00630000D02*
D03*
Y00510000D02*
D03*
Y00450000D02*
D03*
Y00210000D02*
D03*
X00615000Y00180000D02*
D03*
Y00120000D02*
D03*
X00570000Y00870000D02*
D03*
X00585000Y00840000D02*
D03*
Y00780000D02*
D03*
X00570000Y00750000D02*
D03*
X00585000Y00660000D02*
D03*
Y00540000D02*
D03*
X00570000Y00510000D02*
D03*
X00585000Y00480000D02*
D03*
Y00360000D02*
D03*
X00570000Y00270000D02*
D03*
X00585000Y00240000D02*
D03*
X00570000Y00210000D02*
D03*
X00585000Y00180000D02*
D03*
X00570000Y00150000D02*
D03*
X00585000Y00120000D02*
D03*
X00540000Y00870000D02*
D03*
X00555000Y00840000D02*
D03*
Y00780000D02*
D03*
X00540000Y00750000D02*
D03*
Y00690000D02*
D03*
Y00510000D02*
D03*
Y00450000D02*
D03*
X00555000Y00420000D02*
D03*
Y00360000D02*
D03*
X00540000Y00210000D02*
D03*
X00555000Y00180000D02*
D03*
X00540000Y00150000D02*
D03*
X00555000Y00120000D02*
D03*
X00525000Y00840000D02*
D03*
Y00780000D02*
D03*
X00510000Y00750000D02*
D03*
Y00690000D02*
D03*
X00525000Y00660000D02*
D03*
X00510000Y00510000D02*
D03*
X00525000Y00480000D02*
D03*
X00510000Y00450000D02*
D03*
X00525000Y00420000D02*
D03*
Y00360000D02*
D03*
X00510000Y00210000D02*
D03*
X00525000Y00180000D02*
D03*
Y00120000D02*
D03*
X00480000Y00870000D02*
D03*
X00495000Y00840000D02*
D03*
Y00780000D02*
D03*
Y00660000D02*
D03*
X00480000Y00630000D02*
D03*
Y00570000D02*
D03*
Y00510000D02*
D03*
Y00390000D02*
D03*
X00495000Y00360000D02*
D03*
X00480000Y00210000D02*
D03*
X00495000Y00180000D02*
D03*
X00480000Y00150000D02*
D03*
X00495000Y00120000D02*
D03*
X00450000Y00870000D02*
D03*
X00465000Y00840000D02*
D03*
X00450000Y00510000D02*
D03*
Y00330000D02*
D03*
Y00270000D02*
D03*
Y00210000D02*
D03*
X00465000Y00180000D02*
D03*
X00450000Y00150000D02*
D03*
X00465000Y00120000D02*
D03*
X00420000Y00870000D02*
D03*
X00435000Y00840000D02*
D03*
X00420000Y00810000D02*
D03*
X00435000Y00780000D02*
D03*
X00420000Y00750000D02*
D03*
X00435000Y00720000D02*
D03*
X00420000Y00690000D02*
D03*
X00435000Y00660000D02*
D03*
X00420000Y00630000D02*
D03*
X00435000Y00600000D02*
D03*
X00420000Y00570000D02*
D03*
X00435000Y00540000D02*
D03*
X00420000Y00510000D02*
D03*
X00435000Y00480000D02*
D03*
X00420000Y00450000D02*
D03*
X00435000Y00420000D02*
D03*
X00420000Y00390000D02*
D03*
X00435000Y00360000D02*
D03*
X00420000Y00330000D02*
D03*
X00390000Y00870000D02*
D03*
X00405000Y00840000D02*
D03*
X00390000Y00810000D02*
D03*
X00405000Y00780000D02*
D03*
X00390000Y00750000D02*
D03*
X00405000Y00720000D02*
D03*
X00390000Y00690000D02*
D03*
X00405000Y00660000D02*
D03*
X00390000Y00630000D02*
D03*
X00405000Y00600000D02*
D03*
X00390000Y00570000D02*
D03*
X00405000Y00540000D02*
D03*
X00390000Y00510000D02*
D03*
X00405000Y00480000D02*
D03*
X00390000Y00450000D02*
D03*
X00405000Y00420000D02*
D03*
X00390000Y00390000D02*
D03*
X00405000Y00360000D02*
D03*
X00390000Y00330000D02*
D03*
X00405000Y00240000D02*
D03*
Y00180000D02*
D03*
X00390000Y00150000D02*
D03*
Y00030000D02*
D03*
X00360000Y00870000D02*
D03*
X00375000Y00840000D02*
D03*
Y00780000D02*
D03*
Y00720000D02*
D03*
Y00660000D02*
D03*
Y00540000D02*
D03*
Y00480000D02*
D03*
Y00420000D02*
D03*
Y00360000D02*
D03*
X00360000Y00030000D02*
D03*
X00330000Y00870000D02*
D03*
Y00030000D02*
D03*
X00300000Y00870000D02*
D03*
Y00030000D02*
D03*
X00270000Y00870000D02*
D03*
Y00510000D02*
D03*
Y00270000D02*
D03*
X00271000Y00210000D02*
D03*
X00270000Y00030000D02*
D03*
X00240000Y00870000D02*
D03*
X00255000Y00660000D02*
D03*
Y00600000D02*
D03*
X00240000Y00570000D02*
D03*
Y00510000D02*
D03*
X00255000Y00480000D02*
D03*
X00240000Y00450000D02*
D03*
X00255000Y00420000D02*
D03*
X00240000Y00390000D02*
D03*
X00255000Y00300000D02*
D03*
X00240000Y00270000D02*
D03*
X00255000Y00060000D02*
D03*
X00240000Y00030000D02*
D03*
X00210000Y00870000D02*
D03*
Y00750000D02*
D03*
X00225000Y00720000D02*
D03*
Y00600000D02*
D03*
Y00480000D02*
D03*
Y00420000D02*
D03*
Y00360000D02*
D03*
Y00300000D02*
D03*
Y00120000D02*
D03*
Y00060000D02*
D03*
X00210000Y00030000D02*
D03*
X00195000Y00780000D02*
D03*
X00180000Y00750000D02*
D03*
X00195000Y00720000D02*
D03*
Y00120000D02*
D03*
Y00060000D02*
D03*
X00180000Y00030000D02*
D03*
X00165000Y00840000D02*
D03*
X00150000Y00810000D02*
D03*
X00165000Y00780000D02*
D03*
X00150000Y00750000D02*
D03*
X00165000Y00720000D02*
D03*
X00150000Y00690000D02*
D03*
X00165000Y00660000D02*
D03*
X00150000Y00630000D02*
D03*
X00165000Y00600000D02*
D03*
X00150000Y00570000D02*
D03*
X00165000Y00540000D02*
D03*
X00150000Y00510000D02*
D03*
X00165000Y00480000D02*
D03*
X00150000Y00450000D02*
D03*
X00165000Y00420000D02*
D03*
X00150000Y00390000D02*
D03*
X00165000Y00360000D02*
D03*
Y00240000D02*
D03*
X00150000Y00212000D02*
D03*
Y00149000D02*
D03*
Y00090000D02*
D03*
X00165000Y00060000D02*
D03*
X00150000Y00030000D02*
D03*
X00135000Y00840000D02*
D03*
X00120000Y00810000D02*
D03*
X00135000Y00780000D02*
D03*
X00120000Y00750000D02*
D03*
X00135000Y00720000D02*
D03*
X00120000Y00690000D02*
D03*
X00135000Y00660000D02*
D03*
X00120000Y00630000D02*
D03*
X00135000Y00600000D02*
D03*
X00120000Y00570000D02*
D03*
X00135000Y00540000D02*
D03*
X00120000Y00510000D02*
D03*
X00135000Y00480000D02*
D03*
X00120000Y00450000D02*
D03*
X00135000Y00420000D02*
D03*
X00120000Y00390000D02*
D03*
X00135000Y00360000D02*
D03*
Y00240000D02*
D03*
Y00180000D02*
D03*
X00120000Y00149000D02*
D03*
X00135000Y00120000D02*
D03*
X00120000Y00090000D02*
D03*
X00135000Y00060000D02*
D03*
X00120000Y00030000D02*
D03*
X00105000Y00840000D02*
D03*
Y00780000D02*
D03*
X00090000Y00750000D02*
D03*
Y00690000D02*
D03*
X00105000Y00660000D02*
D03*
X00090000Y00630000D02*
D03*
X00105000Y00600000D02*
D03*
X00090000Y00570000D02*
D03*
X00105000Y00540000D02*
D03*
X00090000Y00510000D02*
D03*
X00105000Y00420000D02*
D03*
X00090000Y00330000D02*
D03*
X00105000Y00300000D02*
D03*
Y00240000D02*
D03*
Y00120000D02*
D03*
Y00060000D02*
D03*
X00075000Y00840000D02*
D03*
Y00780000D02*
D03*
X00060000Y00750000D02*
D03*
Y00690000D02*
D03*
X00075000Y00660000D02*
D03*
X00060000Y00630000D02*
D03*
X00075000Y00600000D02*
D03*
X00060000Y00570000D02*
D03*
X00075000Y00540000D02*
D03*
X00060000Y00510000D02*
D03*
Y00450000D02*
D03*
X00075000Y00420000D02*
D03*
X00060000Y00390000D02*
D03*
Y00330000D02*
D03*
X00075000Y00300000D02*
D03*
X00062000Y00270000D02*
D03*
X00075000Y00240000D02*
D03*
X00062000Y00149000D02*
D03*
X00075000Y00120000D02*
D03*
Y00060000D02*
D03*
X00045000Y00780000D02*
D03*
X00030000Y00750000D02*
D03*
Y00690000D02*
D03*
X00045000Y00660000D02*
D03*
X00030000Y00630000D02*
D03*
X00045000Y00600000D02*
D03*
X00030000Y00570000D02*
D03*
X00045000Y00540000D02*
D03*
X00030000Y00510000D02*
D03*
X00045000Y00480000D02*
D03*
X00030000Y00450000D02*
D03*
X00045000Y00420000D02*
D03*
X00030000Y00390000D02*
D03*
X00045000Y00360000D02*
D03*
X00030000Y00330000D02*
D03*
X00045000Y00300000D02*
D03*
Y00120000D02*
D03*
Y00060000D02*
D03*
X00380000Y00141000D02*
D03*
X00353000Y00188000D02*
D03*
X00271000Y00167000D02*
D03*
X00353000Y00152000D02*
D03*
X00314000Y00206000D02*
D03*
X00316000Y00234000D02*
D03*
X00711400Y00093000D02*
D03*
X00686000D02*
D03*
X00660600D02*
D03*
X00635200D02*
D03*
X00609700Y00093100D02*
D03*
X00508200Y00093000D02*
D03*
X00482800D02*
D03*
X00178000D02*
D03*
X00203400D02*
D03*
X00228800D02*
D03*
X00254200D02*
D03*
X00279600D02*
D03*
X00305000D02*
D03*
X00447800Y00738000D02*
D03*
X00445400Y00760600D02*
D03*
Y00633600D02*
D03*
X00470400Y00486400D02*
D03*
X00270000Y00534800D02*
D03*
Y00560200D02*
D03*
Y00738000D02*
D03*
X00216000Y00312000D02*
D03*
X00514000Y00267250D02*
D03*
X00672000Y00441000D02*
D03*
X00704000D02*
D03*
Y00469000D02*
D03*
X00672000D02*
D03*
X00688000Y00455000D02*
D03*
X00687000Y00596000D02*
D03*
X00704000Y00607000D02*
D03*
X00672000D02*
D03*
X00302000Y00472000D02*
D03*
Y00502000D02*
D03*
X00555000Y00261000D02*
D03*
X00450000Y00256000D02*
D03*
X00368000Y00598000D02*
D03*
X00360000Y00832000D02*
D03*
Y00802000D02*
D03*
Y00772000D02*
D03*
Y00742000D02*
D03*
Y00712000D02*
D03*
Y00682000D02*
D03*
Y00652000D02*
D03*
Y00622000D02*
D03*
Y00562000D02*
D03*
Y00532000D02*
D03*
Y00502000D02*
D03*
Y00472000D02*
D03*
Y00442000D02*
D03*
Y00412000D02*
D03*
Y00382000D02*
D03*
Y00352000D02*
D03*
Y00322000D02*
D03*
X00196000Y00141000D02*
D03*
X00270000Y00458800D02*
D03*
Y00433400D02*
D03*
Y00408000D02*
D03*
X00368000Y00286000D02*
D03*
X00398000D02*
D03*
X00428000D02*
D03*
X00450000D02*
D03*
X00031000Y00212000D02*
D03*
X00129000D02*
D03*
X00228000Y00184000D02*
D03*
X00298000Y00206000D02*
D03*
X00349000Y00826000D02*
D03*
X00231000Y00639000D02*
D03*
X00246000D02*
D03*
X00193000Y00546000D02*
D03*
X00226000Y00280000D02*
D03*
X00786000Y00658000D02*
D03*
X00302000Y00802000D02*
D03*
Y00772000D02*
D03*
Y00742000D02*
D03*
Y00712000D02*
D03*
Y00682000D02*
D03*
Y00652000D02*
D03*
Y00622000D02*
D03*
Y00562000D02*
D03*
Y00532000D02*
D03*
X00523000Y00567000D02*
D03*
X00338000Y00802000D02*
D03*
Y00772000D02*
D03*
Y00742000D02*
D03*
Y00712000D02*
D03*
Y00682000D02*
D03*
Y00652000D02*
D03*
Y00622000D02*
D03*
Y00562000D02*
D03*
Y00532000D02*
D03*
Y00502000D02*
D03*
Y00472000D02*
D03*
Y00442000D02*
D03*
Y00412000D02*
D03*
Y00382000D02*
D03*
Y00352000D02*
D03*
Y00322000D02*
D03*
Y00286000D02*
D03*
X00461000Y00238000D02*
D03*
X00477000D02*
D03*
X00493000D02*
D03*
X00509000D02*
D03*
X00705000Y00427000D02*
D03*
X00567000Y00604000D02*
D03*
X00801000Y00605000D02*
D03*
X00756000Y00453000D02*
D03*
Y00467000D02*
D03*
Y00439000D02*
D03*
Y00591000D02*
D03*
Y00605000D02*
D03*
Y00577000D02*
D03*
X00761000Y00416000D02*
D03*
Y00428000D02*
D03*
Y00554000D02*
D03*
Y00566000D02*
D03*
Y00704000D02*
D03*
X00756000Y00715000D02*
D03*
X00761000Y00692000D02*
D03*
X00705000Y00695000D02*
D03*
X00697000Y00703000D02*
D03*
X00194000Y00821000D02*
D03*
Y00812000D02*
D03*
Y00830000D02*
D03*
X00302000Y00824000D02*
D03*
X00288000D02*
D03*
X00226000Y00260000D02*
D03*
X00523000Y00605000D02*
D03*
X00490000Y00313000D02*
D03*
X00551000Y00319000D02*
D03*
X00562000D02*
D03*
X00704000Y00217000D02*
D03*
Y00235000D02*
D03*
X00741000Y00179000D02*
D03*
Y00190000D02*
D03*
X00777000Y00142000D02*
D03*
X00741000Y00201000D02*
D03*
X00803000Y00221000D02*
D03*
Y00204000D02*
D03*
X00741000Y00223000D02*
D03*
Y00212000D02*
D03*
X00783000Y00235000D02*
D03*
X00743000Y00250000D02*
D03*
Y00262000D02*
D03*
Y00273000D02*
D03*
Y00284000D02*
D03*
X00697000Y00499000D02*
D03*
Y00637000D02*
D03*
Y00775000D02*
D03*
X00541000Y00238000D02*
D03*
X00525000D02*
D03*
X00349000Y00835000D02*
D03*
Y00844000D02*
D03*
X00711000Y00803000D02*
D03*
X00732000Y00751000D02*
D03*
X00711000Y00665000D02*
D03*
X00732000Y00613000D02*
D03*
Y00475000D02*
D03*
X00711000Y00527000D02*
D03*
X00705000Y00565000D02*
D03*
X00697000Y00557000D02*
D03*
Y00419000D02*
D03*
X00758000Y00245000D02*
D03*
X00562000Y00287000D02*
D03*
X00573000D02*
D03*
X00513000Y00621000D02*
D03*
X00525000D02*
D03*
X00501000Y00621000D02*
D03*
X00756000Y00743000D02*
D03*
Y00729000D02*
D03*
X00793000Y00467000D02*
D03*
X00808000Y00633000D02*
D03*
X00815000Y00625000D02*
D03*
X00756000Y00497000D02*
D03*
X00751000Y00502000D02*
D03*
Y00492000D02*
D03*
X00761000D02*
D03*
Y00502000D02*
D03*
X00756000Y00635000D02*
D03*
X00751000Y00640000D02*
D03*
Y00630000D02*
D03*
X00761000D02*
D03*
Y00640000D02*
D03*
Y00778000D02*
D03*
X00751000Y00768000D02*
D03*
Y00778000D02*
D03*
X00756000Y00773000D02*
D03*
X00187000Y00272000D02*
D03*
X00395000Y00232000D02*
D03*
X00388000Y00236000D02*
D03*
X00078000Y00180000D02*
D03*
Y00149000D02*
D03*
X00062000Y00177000D02*
D03*
Y00249000D02*
D03*
X00222000Y00198000D02*
D03*
X00234000D02*
D03*
X00196000Y00217000D02*
D03*
X00087000Y00289000D02*
D03*
X00153000Y00305000D02*
D03*
X00187000Y00260000D02*
D03*
X00543000Y00336000D02*
D03*
X00533000Y00320000D02*
D03*
X00562000Y00338000D02*
D03*
X00592000Y00312000D02*
D03*
Y00326000D02*
D03*
X00532000Y00276000D02*
D03*
X00522000Y00327000D02*
D03*
X00542000Y00579000D02*
D03*
X00556000D02*
D03*
Y00593000D02*
D03*
X00542000D02*
D03*
X00549000Y00586000D02*
D03*
X00524000Y00637000D02*
D03*
X00533000Y00525000D02*
D03*
X00501000Y00551000D02*
D03*
M02*
