G04*
G04 #@! TF.GenerationSoftware,Altium Limited,Altium Designer,22.1.2 (22)*
G04*
G04 Layer_Color=128*
%FSAX44Y44*%
%MOMM*%
G71*
G04*
G04 #@! TF.SameCoordinates,AEE1FB78-7808-4CFB-96B9-68BC2BEC934A*
G04*
G04*
G04 #@! TF.FilePolarity,Positive*
G04*
G01*
G75*
%ADD18R,0.8000X0.8000*%
%ADD19R,0.8000X0.8000*%
%ADD35R,1.1500X0.4500*%
G04:AMPARAMS|DCode=36|XSize=1.15mm|YSize=0.45mm|CornerRadius=0.1125mm|HoleSize=0mm|Usage=FLASHONLY|Rotation=180.000|XOffset=0mm|YOffset=0mm|HoleType=Round|Shape=RoundedRectangle|*
%AMROUNDEDRECTD36*
21,1,1.1500,0.2250,0,0,180.0*
21,1,0.9250,0.4500,0,0,180.0*
1,1,0.2250,-0.4625,0.1125*
1,1,0.2250,0.4625,0.1125*
1,1,0.2250,0.4625,-0.1125*
1,1,0.2250,-0.4625,-0.1125*
%
%ADD36ROUNDEDRECTD36*%
%ADD37R,2.0000X5.5000*%
G04:AMPARAMS|DCode=38|XSize=0.3mm|YSize=0.9mm|CornerRadius=0.075mm|HoleSize=0mm|Usage=FLASHONLY|Rotation=90.000|XOffset=0mm|YOffset=0mm|HoleType=Round|Shape=RoundedRectangle|*
%AMROUNDEDRECTD38*
21,1,0.3000,0.7500,0,0,90.0*
21,1,0.1500,0.9000,0,0,90.0*
1,1,0.1500,0.3750,0.0750*
1,1,0.1500,0.3750,-0.0750*
1,1,0.1500,-0.3750,-0.0750*
1,1,0.1500,-0.3750,0.0750*
%
%ADD38ROUNDEDRECTD38*%
%ADD39R,0.9000X0.3000*%
%ADD40R,0.3000X0.9000*%
%ADD41R,1.7000X1.7000*%
%ADD42R,1.0000X1.6000*%
%ADD43R,0.8000X1.4000*%
%ADD44R,1.7000X2.3000*%
%ADD45R,1.2000X0.6000*%
G04:AMPARAMS|DCode=46|XSize=0.6mm|YSize=1.2mm|CornerRadius=0.15mm|HoleSize=0mm|Usage=FLASHONLY|Rotation=270.000|XOffset=0mm|YOffset=0mm|HoleType=Round|Shape=RoundedRectangle|*
%AMROUNDEDRECTD46*
21,1,0.6000,0.9000,0,0,270.0*
21,1,0.3000,1.2000,0,0,270.0*
1,1,0.3000,-0.4500,-0.1500*
1,1,0.3000,-0.4500,0.1500*
1,1,0.3000,0.4500,0.1500*
1,1,0.3000,0.4500,-0.1500*
%
%ADD46ROUNDEDRECTD46*%
%ADD47R,1.5000X2.8000*%
%ADD48R,0.8000X0.9500*%
%ADD49R,0.6000X1.5500*%
G04:AMPARAMS|DCode=50|XSize=1.55mm|YSize=0.6mm|CornerRadius=0.15mm|HoleSize=0mm|Usage=FLASHONLY|Rotation=270.000|XOffset=0mm|YOffset=0mm|HoleType=Round|Shape=RoundedRectangle|*
%AMROUNDEDRECTD50*
21,1,1.5500,0.3000,0,0,270.0*
21,1,1.2500,0.6000,0,0,270.0*
1,1,0.3000,-0.1500,-0.6250*
1,1,0.3000,-0.1500,0.6250*
1,1,0.3000,0.1500,0.6250*
1,1,0.3000,0.1500,-0.6250*
%
%ADD50ROUNDEDRECTD50*%
G04:AMPARAMS|DCode=51|XSize=1.9mm|YSize=0.6mm|CornerRadius=0.15mm|HoleSize=0mm|Usage=FLASHONLY|Rotation=90.000|XOffset=0mm|YOffset=0mm|HoleType=Round|Shape=RoundedRectangle|*
%AMROUNDEDRECTD51*
21,1,1.9000,0.3000,0,0,90.0*
21,1,1.6000,0.6000,0,0,90.0*
1,1,0.3000,0.1500,0.8000*
1,1,0.3000,0.1500,-0.8000*
1,1,0.3000,-0.1500,-0.8000*
1,1,0.3000,-0.1500,0.8000*
%
%ADD51ROUNDEDRECTD51*%
%ADD52R,0.6000X1.9000*%
%ADD53R,0.9500X0.8000*%
%ADD54R,0.6000X1.2000*%
G04:AMPARAMS|DCode=55|XSize=0.6mm|YSize=1.2mm|CornerRadius=0.15mm|HoleSize=0mm|Usage=FLASHONLY|Rotation=180.000|XOffset=0mm|YOffset=0mm|HoleType=Round|Shape=RoundedRectangle|*
%AMROUNDEDRECTD55*
21,1,0.6000,0.9000,0,0,180.0*
21,1,0.3000,1.2000,0,0,180.0*
1,1,0.3000,-0.1500,0.4500*
1,1,0.3000,0.1500,0.4500*
1,1,0.3000,0.1500,-0.4500*
1,1,0.3000,-0.1500,-0.4500*
%
%ADD55ROUNDEDRECTD55*%
%ADD56R,2.6500X1.7500*%
D18*
X00196000Y00159750D02*
D03*
Y00176250D02*
D03*
X00786000Y00787250D02*
D03*
X00786000Y00770750D02*
D03*
X00800000Y00779250D02*
D03*
X00800000Y00762750D02*
D03*
X00786000Y00649250D02*
D03*
Y00632750D02*
D03*
X00800000Y00641250D02*
D03*
Y00624750D02*
D03*
X00786000Y00511250D02*
D03*
Y00494750D02*
D03*
X00800000Y00503250D02*
D03*
Y00486750D02*
D03*
X00062000Y00236500D02*
D03*
Y00220000D02*
D03*
Y00187750D02*
D03*
X00062000Y00204250D02*
D03*
X00196000Y00208250D02*
D03*
X00196000Y00191750D02*
D03*
X00297000Y00161750D02*
D03*
X00297000Y00178250D02*
D03*
X00260000Y00208250D02*
D03*
X00260000Y00191750D02*
D03*
X00260000Y00176250D02*
D03*
X00260000Y00159750D02*
D03*
X00314000Y00161750D02*
D03*
Y00178250D02*
D03*
X00392000Y00196250D02*
D03*
X00392000Y00179750D02*
D03*
X00167000Y00296250D02*
D03*
Y00279750D02*
D03*
X00181000Y00279750D02*
D03*
X00181000Y00296250D02*
D03*
X00153000D02*
D03*
Y00279750D02*
D03*
X00246000Y00672250D02*
D03*
Y00655750D02*
D03*
X00303000Y00853250D02*
D03*
Y00836750D02*
D03*
D19*
X00345250Y00210000D02*
D03*
X00328750D02*
D03*
X00718750Y00803000D02*
D03*
X00735250D02*
D03*
X00750750D02*
D03*
X00767250D02*
D03*
X00759750Y00817000D02*
D03*
X00776250D02*
D03*
X00731750Y00743000D02*
D03*
X00748250D02*
D03*
X00731750Y00715000D02*
D03*
X00748250D02*
D03*
X00731750Y00729000D02*
D03*
X00748250D02*
D03*
X00764750Y00743000D02*
D03*
X00781250D02*
D03*
X00759750Y00679000D02*
D03*
X00776250Y00679000D02*
D03*
X00718750Y00665000D02*
D03*
X00735250D02*
D03*
X00750750D02*
D03*
X00767250D02*
D03*
X00731750Y00605000D02*
D03*
X00748250D02*
D03*
X00764750Y00605000D02*
D03*
X00781250Y00605000D02*
D03*
X00731750Y00591000D02*
D03*
X00748250D02*
D03*
X00731750Y00577000D02*
D03*
X00748250D02*
D03*
X00759750Y00541000D02*
D03*
X00776250Y00541000D02*
D03*
X00718750Y00527000D02*
D03*
X00735250D02*
D03*
X00653750Y00699000D02*
D03*
X00670250D02*
D03*
X00750750Y00527000D02*
D03*
X00767250D02*
D03*
X00653750Y00561000D02*
D03*
X00670250D02*
D03*
X00731750Y00467000D02*
D03*
X00748250D02*
D03*
X00764750Y00467000D02*
D03*
X00781250Y00467000D02*
D03*
X00731750Y00453000D02*
D03*
X00748250D02*
D03*
X00731750Y00439000D02*
D03*
X00748250D02*
D03*
X00653750Y00423000D02*
D03*
X00670250D02*
D03*
X00774250Y00235000D02*
D03*
X00757750D02*
D03*
X00775750Y00221000D02*
D03*
X00792250D02*
D03*
X00794250Y00167000D02*
D03*
X00777750D02*
D03*
X00794250Y00153000D02*
D03*
X00777750Y00153000D02*
D03*
X00733250Y00249000D02*
D03*
X00716750D02*
D03*
X00742250Y00235000D02*
D03*
X00725750D02*
D03*
X00693750D02*
D03*
X00710250D02*
D03*
X00360750Y00224000D02*
D03*
X00377250Y00224000D02*
D03*
Y00210000D02*
D03*
X00360750D02*
D03*
X00345250Y00224000D02*
D03*
X00328750Y00224000D02*
D03*
X00314250Y00196000D02*
D03*
X00297750Y00196000D02*
D03*
X00328750Y00166000D02*
D03*
X00345250D02*
D03*
X00377250D02*
D03*
X00360750D02*
D03*
X00345250Y00152000D02*
D03*
X00328750D02*
D03*
X00360750D02*
D03*
X00377250D02*
D03*
X00236250Y00229000D02*
D03*
X00219750Y00229000D02*
D03*
X00196750Y00260000D02*
D03*
X00213250Y00260000D02*
D03*
X00163750Y00311000D02*
D03*
X00180250Y00311000D02*
D03*
X00103250Y00279000D02*
D03*
X00086750Y00279000D02*
D03*
X00228750Y00546000D02*
D03*
X00245250D02*
D03*
Y00688000D02*
D03*
X00228750D02*
D03*
X00228750Y00755000D02*
D03*
X00245250D02*
D03*
X00288250Y00854000D02*
D03*
X00271750D02*
D03*
Y00836000D02*
D03*
X00288250D02*
D03*
D35*
X00331250Y00197750D02*
D03*
Y00191250D02*
D03*
Y00184750D02*
D03*
Y00178250D02*
D03*
X00374750D02*
D03*
Y00184750D02*
D03*
Y00191250D02*
D03*
D36*
Y00197750D02*
D03*
D37*
X00031000Y00166000D02*
D03*
Y00258000D02*
D03*
D38*
X00771500Y00780500D02*
D03*
Y00642500D02*
D03*
Y00504500D02*
D03*
D39*
Y00775500D02*
D03*
Y00770500D02*
D03*
Y00765500D02*
D03*
X00740500D02*
D03*
Y00770500D02*
D03*
Y00775500D02*
D03*
Y00780500D02*
D03*
X00771500Y00637500D02*
D03*
Y00632500D02*
D03*
Y00627500D02*
D03*
X00740500D02*
D03*
Y00632500D02*
D03*
Y00637500D02*
D03*
Y00642500D02*
D03*
X00771500Y00499500D02*
D03*
Y00494500D02*
D03*
Y00489500D02*
D03*
X00740500D02*
D03*
Y00494500D02*
D03*
Y00499500D02*
D03*
Y00504500D02*
D03*
D40*
X00763500Y00757500D02*
D03*
X00758500D02*
D03*
X00753500D02*
D03*
X00748500D02*
D03*
Y00788500D02*
D03*
X00753500D02*
D03*
X00758500D02*
D03*
X00763500D02*
D03*
Y00619500D02*
D03*
X00758500D02*
D03*
X00753500D02*
D03*
X00748500D02*
D03*
Y00650500D02*
D03*
X00753500Y00650500D02*
D03*
X00758500D02*
D03*
X00763500Y00650500D02*
D03*
Y00481500D02*
D03*
X00758500D02*
D03*
X00753500D02*
D03*
X00748500D02*
D03*
Y00512500D02*
D03*
X00753500Y00512500D02*
D03*
X00758500D02*
D03*
X00763500Y00512500D02*
D03*
D41*
X00756000Y00773000D02*
D03*
Y00635000D02*
D03*
Y00497000D02*
D03*
D42*
X00712000Y00775000D02*
D03*
X00682000D02*
D03*
X00686000Y00699000D02*
D03*
X00716000D02*
D03*
X00712000Y00637000D02*
D03*
X00682000D02*
D03*
X00686000Y00561000D02*
D03*
X00716000D02*
D03*
X00712000Y00499000D02*
D03*
X00682000D02*
D03*
X00686000Y00423000D02*
D03*
X00716000D02*
D03*
D43*
X00731000Y00698000D02*
D03*
X00751000D02*
D03*
X00731000Y00560000D02*
D03*
X00751000Y00560000D02*
D03*
X00731000Y00422000D02*
D03*
X00751000Y00422000D02*
D03*
X00775000Y00204000D02*
D03*
X00795000D02*
D03*
X00778000Y00184000D02*
D03*
X00758000Y00184000D02*
D03*
X00691000Y00218000D02*
D03*
X00711000D02*
D03*
X00223000Y00821000D02*
D03*
X00203000D02*
D03*
D44*
X00758500Y00153000D02*
D03*
X00723500Y00153000D02*
D03*
D45*
X00754500Y00202500D02*
D03*
Y00212000D02*
D03*
Y00221500D02*
D03*
X00727500Y00221500D02*
D03*
X00727500Y00212000D02*
D03*
D46*
X00727500Y00202500D02*
D03*
D47*
X00695250Y00273000D02*
D03*
X00730750D02*
D03*
D48*
X00205500Y00280000D02*
D03*
X00215000Y00300000D02*
D03*
X00196000D02*
D03*
D49*
X00234350Y00211000D02*
D03*
X00221650Y00157000D02*
D03*
X00234350D02*
D03*
X00247050D02*
D03*
X00208950Y00211000D02*
D03*
X00221650Y00211000D02*
D03*
X00247050Y00211000D02*
D03*
D50*
X00208950Y00157000D02*
D03*
D51*
X00179800Y00165000D02*
D03*
D52*
X00078200D02*
D03*
X00090900D02*
D03*
X00103600Y00165000D02*
D03*
X00116300Y00165000D02*
D03*
X00129000D02*
D03*
X00141700D02*
D03*
X00154400Y00165000D02*
D03*
X00167100Y00165000D02*
D03*
X00078200Y00259000D02*
D03*
X00103600Y00259000D02*
D03*
X00090900D02*
D03*
X00154400Y00259000D02*
D03*
X00141700Y00259000D02*
D03*
X00129000Y00259000D02*
D03*
X00116300Y00259000D02*
D03*
X00167100Y00259000D02*
D03*
X00179800Y00259000D02*
D03*
D53*
X00231000Y00673500D02*
D03*
X00211000Y00664000D02*
D03*
X00231000Y00654500D02*
D03*
D54*
X00226500Y00774500D02*
D03*
X00236000Y00774500D02*
D03*
X00245500Y00774500D02*
D03*
Y00801500D02*
D03*
X00236000Y00801500D02*
D03*
D55*
X00226500Y00801500D02*
D03*
D56*
X00657500Y00195000D02*
D03*
X00700500D02*
D03*
M02*
