M48
;Layer_Color=9474304
;FILE_FORMAT=4:4
METRIC
;TYPE=PLATED
T1F00S00C0.3000
T2F00S00C1.0000
T3F00S00C1.9000
%
T01
X00045000Y00060000
X00075000
X00105000
X00135000
X00165000
X00195000
X00225000
X00255000
X00254200Y00093000
X00228800
X00203400
X00178000
X00150000Y00090000
X00120000
X00135000Y00120000
X00105000
X00075000
X00045000
X00062000Y00149000
X00078000
Y00180000
X00062000Y00177000
X00031000Y00212000
X00062000Y00249000
Y00270000
X00075000Y00300000
X00087000Y00289000
X00105000Y00300000
X00090000Y00330000
X00060000
X00030000
X00045000Y00360000
X00060000Y00390000
X00030000
X00120000
X00150000
X00165000Y00360000
X00135000
X00164000Y00321000
X00153000Y00305000
X00187000Y00272000
Y00260000
X00226000
Y00280000
X00225000Y00300000
X00216000Y00312000
X00255000Y00300000
X00270000Y00270000
X00240000
X00260000Y00234000
X00271000Y00210000
X00298000Y00206000
X00314000
X00316000Y00234000
X00338000Y00286000
X00368000
X00360000Y00322000
X00338000Y00322000
Y00352000
X00360000Y00352000
X00375000Y00360000
X00360000Y00382000
X00338000Y00382000
X00390000Y00390000
Y00330000
X00388000Y00236000
X00395000Y00232000
X00353000Y00188000
Y00152000
Y00141000
X00331000
X00306000
X00261000
X00271000Y00167000
X00228000Y00184000
X00222000Y00198000
X00234000
X00196000Y00217000
X00150000Y00212000
X00129000
X00135000Y00240000
X00165000
X00105000
X00075000
X00045000Y00300000
X00135000Y00180000
X00150000Y00149000
X00120000
X00196000Y00141000
X00195000Y00120000
X00225000
X00279600Y00093000
X00305000
X00300000Y00030000
X00330000
X00360000
X00390000
Y00150000
X00380000Y00141000
X00270000Y00030000
X00240000
X00210000
X00180000
X00150000
X00120000
X00225000Y00360000
X00240000Y00390000
X00420000
X00435000Y00360000
X00405000
X00420000Y00330000
X00450000
X00450000Y00286000
X00450000Y00270000
X00450000Y00256000
X00461000Y00238000
X00477000
X00493000
X00509000
X00525000
X00541000
X00540000Y00210000
X00570000
X00600000
X00615000Y00180000
X00585000
X00555000
X00525000
X00495000
X00465000
X00480000Y00210000
X00510000
X00450000
Y00150000
X00480000
X00495000Y00120000
X00525000
X00555000
X00585000
X00615000
X00645000
X00675000
X00705000
X00735000
X00765000
X00777000Y00142000
X00741000Y00146000
Y00157000
Y00168000
Y00179000
Y00190000
Y00201000
Y00212000
Y00223000
X00743000Y00250000
Y00262000
Y00273000
Y00284000
X00735000Y00300000
X00765000
X00780000Y00330000
X00750000
X00720000
X00690000
X00705000Y00360000
X00735000
X00765000
X00675000
Y00300000
X00705000
X00704000Y00235000
Y00217000
X00690000Y00150000
X00660000
X00660600Y00093000
X00686000
X00711400
X00635200
X00609700Y00093100
X00570000Y00150000
X00540000
X00508200Y00093000
X00482800
X00465000Y00120000
X00405000Y00180000
Y00240000
X00398000Y00286000
X00428000
X00490000Y00313000
X00522000Y00327000
X00533000Y00320000
X00551000Y00319000
X00562000
Y00338000
X00543000Y00336000
X00555000Y00360000
X00585000
X00592000Y00326000
Y00312000
X00573000Y00287000
X00562000
X00570000Y00270000
X00555000Y00261000
X00532000Y00276000
X00514000Y00267250
X00585000Y00240000
X00758000Y00245000
X00783000Y00235000
X00780000Y00270000
X00525000Y00360000
X00495000
X00480000Y00390000
X00810000
X00840000
X00870000
X00900000
X00915000Y00360000
X00885000
X00900000Y00330000
X00870000
X00840000
X00810000
X00825000Y00360000
X00795000
Y00300000
X00825000
X00855000
X00885000
X00915000
X00900000Y00270000
X00870000
X00840000
X00810000
X00825000Y00240000
X00855000
X00885000
X00915000
X00900000Y00210000
X00870000
X00840000
X00803000Y00204000
Y00221000
X00795000Y00180000
X00825000
X00855000
X00885000
X00915000
X00900000Y00150000
X00870000
X00840000
X00855000Y00120000
X00885000
X00915000
Y00060000
X00885000
X00855000
X00825000
Y00120000
X00870000Y00090000
Y00030000
X00885000Y00420000
X00915000
X00900000Y00450000
X00870000
X00885000Y00480000
X00915000
X00900000Y00510000
X00870000
X00840000
X00800000Y00512000
X00809000Y00495000
X00800000Y00476000
X00825000Y00480000
Y00540000
X00855000
X00885000
X00915000
X00900000Y00570000
X00870000
X00840000
X00810000
X00801000Y00605000
X00825000Y00600000
X00855000
X00885000
X00915000
X00900000Y00630000
X00870000
X00840000
X00815000Y00625000
X00808000Y00633000
X00825000Y00660000
X00855000
X00885000
X00915000
X00900000Y00690000
X00870000
X00840000
X00810000
X00795000Y00720000
X00810000Y00750000
X00815000Y00763000
X00808000Y00771000
X00797000Y00788000
X00855000Y00780000
X00885000
X00915000
X00900000Y00750000
X00870000
X00840000
X00825000Y00743000
X00795000Y00540000
X00825000Y00420000
X00855000
X00761000Y00416000
Y00428000
X00756000Y00439000
Y00453000
Y00467000
X00761000Y00492000
Y00502000
X00756000Y00497000
X00751000Y00502000
Y00492000
X00732000Y00475000
X00704000Y00469000
Y00441000
X00705000Y00427000
X00697000Y00419000
X00688000Y00455000
X00672000Y00441000
Y00469000
X00697000Y00499000
X00711000Y00527000
X00705000Y00540000
X00697000Y00557000
X00705000Y00565000
X00704000Y00607000
X00687000Y00596000
X00672000Y00607000
X00697000Y00637000
X00711000Y00665000
X00705000Y00695000
X00697000Y00703000
X00761000Y00704000
Y00692000
X00780000Y00690000
X00786000Y00658000
X00761000Y00640000
Y00630000
X00756000Y00635000
X00751000Y00640000
Y00630000
X00756000Y00605000
Y00591000
Y00577000
X00761000Y00566000
Y00554000
X00780000Y00570000
X00786000Y00520000
X00793000Y00467000
X00780000Y00450000
X00735000Y00540000
X00675000
X00585000
X00600000Y00510000
X00570000
X00540000
X00533000Y00525000
X00510000Y00510000
X00480000
X00450000
X00420000
X00435000Y00540000
X00405000
X00420000Y00570000
X00435000Y00600000
X00405000
X00420000Y00630000
X00445400Y00633600
X00435000Y00660000
X00405000
X00420000Y00690000
X00435000Y00720000
X00405000
X00420000Y00750000
X00445400Y00760600
X00447800Y00738000
X00435000Y00780000
X00405000
X00495000
X00525000
X00555000
X00585000
X00615000
X00630000Y00750000
X00600000
X00570000
X00540000
X00510000
Y00690000
X00540000
X00525000Y00660000
X00524000Y00637000
X00525000Y00621000
X00513000
X00501000Y00621000
X00480000Y00630000
X00495000Y00660000
X00523000Y00605000
X00542000Y00593000
X00549000Y00586000
X00556000Y00593000
Y00579000
X00542000
X00523000Y00567000
X00501000Y00551000
X00480000Y00570000
X00470400Y00486400
X00435000Y00480000
X00405000
X00420000Y00450000
X00435000Y00420000
X00405000
X00525000
X00555000
X00540000Y00450000
X00510000
X00525000Y00480000
X00585000
X00600000Y00450000
Y00630000
X00585000Y00660000
X00567000Y00604000
X00732000Y00613000
X00756000Y00715000
X00765000Y00720000
X00756000Y00729000
Y00743000
X00756000Y00773000
X00761000Y00778000
X00751000
Y00768000
X00732000Y00751000
X00697000Y00775000
X00375000Y00780000
X00360000Y00772000
X00338000Y00772000
Y00742000
X00360000Y00742000
Y00712000
X00338000Y00712000
Y00682000
X00360000Y00682000
Y00652000
X00338000Y00652000
Y00622000
X00360000Y00622000
X00368000Y00598000
X00360000Y00562000
X00338000Y00562000
Y00532000
X00360000Y00532000
X00375000Y00540000
X00390000Y00570000
Y00630000
X00375000Y00660000
X00390000Y00690000
X00375000Y00720000
X00390000Y00750000
X00302000Y00742000
Y00772000
Y00712000
Y00682000
Y00652000
Y00622000
Y00562000
Y00532000
Y00502000
Y00472000
X00338000Y00472000
X00360000Y00472000
X00375000Y00480000
X00360000Y00502000
X00338000Y00502000
X00390000Y00510000
Y00450000
X00360000Y00442000
X00338000Y00442000
Y00412000
X00360000Y00412000
X00375000Y00420000
X00270000Y00408000
Y00433400
Y00458800
X00255000Y00480000
X00225000
X00240000Y00510000
X00270000
X00270000Y00534800
Y00560200
X00240000Y00570000
X00255000Y00600000
X00225000
X00231000Y00639000
X00246000
X00255000Y00660000
X00224000Y00663000
X00225000Y00720000
X00195000
X00165000
X00135000
X00150000Y00750000
X00180000
X00210000
X00238000Y00745000
X00270000Y00738000
X00195000Y00780000
X00165000
X00135000
X00105000
X00075000
X00045000
X00060000Y00750000
X00090000
X00120000
Y00690000
X00150000
X00165000Y00660000
X00135000
X00105000
X00075000
X00045000
X00060000Y00690000
X00090000
Y00630000
X00120000
X00150000
X00165000Y00600000
X00135000
X00105000
X00075000
X00045000
X00060000Y00630000
X00030000
Y00690000
Y00750000
Y00570000
X00060000
X00090000
X00120000
X00150000
X00165000Y00540000
X00135000
X00105000
X00075000
X00045000
X00060000Y00510000
X00090000
X00120000
X00150000
X00165000Y00480000
X00135000
X00150000Y00450000
X00120000
X00135000Y00420000
X00165000
X00225000
X00255000
X00240000Y00450000
X00193000Y00546000
X00030000Y00510000
X00045000Y00480000
X00060000Y00450000
X00030000
X00045000Y00420000
X00075000
X00105000
X00120000Y00810000
X00150000
X00165000Y00840000
X00135000
X00105000
X00075000
X00194000Y00830000
Y00821000
Y00812000
X00210000Y00870000
X00240000
X00270000
X00300000
X00330000
X00360000
X00390000
X00375000Y00840000
X00360000Y00832000
X00349000Y00835000
Y00826000
Y00844000
X00360000Y00802000
X00338000Y00802000
X00302000Y00802000
Y00824000
X00288000
X00390000Y00810000
X00420000
X00435000Y00840000
X00465000
X00495000
X00525000
X00555000
X00585000
X00615000
X00645000
X00675000
X00705000
X00735000
X00765000
X00780000Y00870000
X00750000
X00720000
X00690000
X00660000
X00570000
X00540000
X00480000
X00450000
X00420000
X00405000Y00840000
X00711000Y00803000
X00786000Y00796000
X00795000Y00840000
X00825000
X00855000
X00870000Y00870000
X00840000
X00810000
X00870000Y00810000
T02
X00165200Y00080300
Y00105700
X00190600
X00216000
Y00080300
X00190600
X00241400
X00266800
Y00105700
X00292200
Y00080300
X00317600
Y00105700
X00343000
Y00080300
X00368400
Y00105700
X00393800
Y00080300
X00241400Y00105700
X00280100Y00318700
Y00344100
Y00369500
Y00394900
X00457900
Y00369500
Y00344100
Y00318700
X00470000Y00105700
X00444600
X00419200
Y00080300
X00444600
X00470000
X00495400
Y00105700
X00520800
Y00080300
X00546200
Y00105700
X00571600
Y00080300
X00597000
Y00105700
X00622400
Y00080300
X00647800
Y00105700
X00673200
Y00080300
X00698600
Y00105700
X00724000
Y00080300
X00749400
Y00105700
X00774800
Y00080300
X00659000Y00487300
X00659000Y00512700
X00659000Y00625300
X00659000Y00650700
X00659000Y00763300
X00659000Y00788700
X00457900Y00775900
Y00750500
Y00725100
Y00699700
Y00674300
Y00648900
Y00623500
Y00598100
Y00572700
Y00547300
Y00521900
Y00496500
Y00471100
Y00445700
Y00420300
X00280100
Y00445700
Y00471100
Y00496500
Y00521900
Y00547300
Y00572700
Y00598100
Y00623500
Y00648900
Y00674300
Y00699700
Y00725100
Y00750500
Y00775900
Y00801300
X00457900
T03
X00046000Y00020500
X00096000
Y00095500
X00046000
X00844000
X00894000
Y00020500
X00844000
X00844000Y00724500
X00894000
X00096000
X00046000
Y00799500
X00096000
X00844000Y00799500
X00894000Y00799500
M30
