G04*
G04 #@! TF.GenerationSoftware,Altium Limited,Altium Designer,22.1.2 (22)*
G04*
G04 Layer_Physical_Order=2*
G04 Layer_Color=16711680*
%FSAX44Y44*%
%MOMM*%
G71*
G04*
G04 #@! TF.SameCoordinates,F43461BC-9A11-44EE-9FD3-1ED57B95CCFA*
G04*
G04*
G04 #@! TF.FilePolarity,Positive*
G04*
G01*
G75*
%ADD12C,0.5000*%
%ADD16R,0.8000X0.8000*%
%ADD17R,0.8000X0.8000*%
%ADD22O,3.6000X2.9000*%
%ADD23C,1.6000*%
%ADD24C,1.5000*%
%ADD25C,0.3000*%
%ADD26C,0.4000*%
%ADD27C,0.6500*%
%ADD28R,1.4000X0.8000*%
%ADD29R,1.5000X0.4500*%
%ADD30R,1.2000X0.6000*%
%ADD31R,2.4000X1.3500*%
%ADD32R,0.3000X0.7000*%
%ADD33R,0.6000X1.2000*%
%ADD34R,1.6000X1.0000*%
%ADD35R,2.6500X1.7500*%
%ADD36R,0.8000X0.9500*%
%ADD37R,7.0000X4.0000*%
%ADD38C,0.7500*%
%ADD39C,0.6500*%
G36*
X00874902Y00843000D02*
X00875290Y00841049D01*
X00876395Y00839395D01*
X00899395Y00816395D01*
X00901049Y00815290D01*
X00903000Y00814902D01*
X00934902D01*
Y00005098D01*
X00005098D01*
Y00814902D01*
X00037000Y00814902D01*
X00038951Y00815290D01*
X00040605Y00816395D01*
X00063605Y00839395D01*
X00064710Y00841049D01*
X00065098Y00843000D01*
Y00892902D01*
X00874902D01*
Y00843000D01*
D02*
G37*
%LPC*%
G36*
X00547500Y00855000D02*
X00528500D01*
Y00846500D01*
X00547500D01*
Y00855000D01*
D02*
G37*
G36*
X00688000Y00868039D02*
X00562000D01*
X00561220Y00867884D01*
X00560558Y00867442D01*
X00560116Y00866780D01*
X00559961Y00866000D01*
Y00835000D01*
X00552338D01*
X00552311Y00835018D01*
X00550750Y00835328D01*
X00550750Y00835328D01*
X00547500D01*
Y00835500D01*
X00528500D01*
Y00827000D01*
X00545512D01*
Y00823500D01*
X00545500D01*
Y00813078D01*
X00544250D01*
X00544250Y00813078D01*
X00542689Y00812768D01*
X00541366Y00811884D01*
X00541366Y00811884D01*
X00537232Y00807750D01*
X00531000D01*
Y00795750D01*
X00543000D01*
Y00801982D01*
X00544230Y00803212D01*
X00545500Y00802686D01*
Y00794500D01*
X00547945D01*
X00548892Y00793230D01*
X00548647Y00792000D01*
X00549055Y00789952D01*
X00550215Y00788215D01*
X00551952Y00787055D01*
X00554000Y00786647D01*
X00556048Y00787055D01*
X00557785Y00788215D01*
X00558945Y00789952D01*
X00559211Y00791288D01*
X00560558Y00791558D01*
X00561220Y00791116D01*
X00562000Y00790961D01*
X00604000D01*
X00604377Y00791036D01*
X00605416Y00790421D01*
X00605647Y00790168D01*
Y00779000D01*
X00606055Y00776952D01*
X00607215Y00775215D01*
X00625215Y00757215D01*
X00626952Y00756055D01*
X00629000Y00755647D01*
X00782783D01*
X00791647Y00746783D01*
Y00303217D01*
X00766173Y00277743D01*
X00765000Y00278229D01*
Y00309000D01*
X00765816Y00309932D01*
X00766442Y00310558D01*
X00766884Y00311220D01*
X00767039Y00312000D01*
X00767039Y00604000D01*
X00766884Y00604780D01*
X00766442Y00605442D01*
X00765780Y00605884D01*
X00765000Y00606039D01*
X00531187Y00606039D01*
X00531057Y00606086D01*
X00530272Y00606698D01*
X00530055Y00607026D01*
X00530039Y00607083D01*
Y00642000D01*
X00529884Y00642780D01*
X00529442Y00643442D01*
X00528780Y00643884D01*
X00528000Y00644039D01*
X00502000D01*
X00501220Y00643884D01*
X00500558Y00643442D01*
X00500116Y00642780D01*
X00499961Y00642000D01*
Y00618183D01*
X00499750Y00617000D01*
X00487750D01*
Y00605000D01*
X00487912D01*
Y00602500D01*
X00487500D01*
Y00586500D01*
X00497000D01*
Y00586500D01*
X00497412D01*
Y00585000D01*
X00497761Y00583244D01*
X00498756Y00581756D01*
X00502756Y00577756D01*
X00504244Y00576761D01*
X00505017Y00576608D01*
X00505241Y00576123D01*
X00505418Y00575233D01*
X00505116Y00574780D01*
X00504961Y00574000D01*
Y00561211D01*
X00504558Y00560942D01*
X00504116Y00560280D01*
X00503961Y00559500D01*
Y00543039D01*
X00366000D01*
X00365220Y00542884D01*
X00365020Y00542751D01*
X00363750Y00543000D01*
Y00543000D01*
X00351750D01*
Y00531000D01*
X00354346D01*
Y00514848D01*
X00350280D01*
X00348914Y00514577D01*
X00347756Y00513803D01*
X00336522Y00502569D01*
X00293478D01*
X00283749Y00512298D01*
X00284256Y00513520D01*
X00284582Y00516000D01*
X00284256Y00518480D01*
X00283298Y00520791D01*
X00281775Y00522775D01*
X00279791Y00524298D01*
X00277480Y00525255D01*
X00275000Y00525582D01*
X00272520Y00525255D01*
X00270209Y00524298D01*
X00268225Y00522775D01*
X00266702Y00520791D01*
X00265745Y00518480D01*
X00265418Y00516000D01*
X00265745Y00513520D01*
X00266702Y00511209D01*
X00268225Y00509225D01*
X00270209Y00507702D01*
X00272520Y00506744D01*
X00275000Y00506418D01*
X00277480Y00506744D01*
X00278702Y00507251D01*
X00286130Y00499823D01*
X00285644Y00498650D01*
X00282000D01*
X00280459Y00498344D01*
X00279311Y00497868D01*
X00278155Y00497095D01*
X00277982Y00497130D01*
X00277484Y00497299D01*
X00275526Y00497557D01*
X00275261Y00497539D01*
X00275000Y00497591D01*
X00274739Y00497539D01*
X00274474Y00497557D01*
X00272516Y00497299D01*
X00272018Y00497130D01*
X00271501Y00497027D01*
X00269677Y00496271D01*
X00269239Y00495979D01*
X00268766Y00495746D01*
X00267200Y00494543D01*
X00266852Y00494147D01*
X00266456Y00493800D01*
X00265254Y00492234D01*
X00265021Y00491761D01*
X00264729Y00491323D01*
X00263973Y00489499D01*
X00263870Y00488982D01*
X00263701Y00488483D01*
X00263443Y00486525D01*
X00263478Y00486000D01*
X00263443Y00485474D01*
X00263701Y00483517D01*
X00263870Y00483018D01*
X00263973Y00482501D01*
X00264729Y00480677D01*
X00265021Y00480239D01*
X00265254Y00479766D01*
X00266456Y00478200D01*
X00266852Y00477852D01*
X00267200Y00477456D01*
X00268766Y00476254D01*
X00269239Y00476021D01*
X00269677Y00475729D01*
X00271501Y00474973D01*
X00272018Y00474870D01*
X00272516Y00474701D01*
X00274474Y00474443D01*
X00275000Y00474478D01*
X00275526Y00474443D01*
X00277484Y00474701D01*
X00277982Y00474870D01*
X00278499Y00474973D01*
X00280323Y00475729D01*
X00280761Y00476021D01*
X00281234Y00476254D01*
X00282800Y00477456D01*
X00283148Y00477852D01*
X00283544Y00478200D01*
X00284746Y00479766D01*
X00284979Y00480239D01*
X00285271Y00480677D01*
X00286027Y00482501D01*
X00286130Y00483018D01*
X00286299Y00483517D01*
X00286557Y00485474D01*
X00286522Y00486000D01*
X00286557Y00486525D01*
X00287280Y00487350D01*
X00345000D01*
X00346541Y00487656D01*
X00347689Y00488132D01*
X00348995Y00489005D01*
X00349868Y00490311D01*
X00350344Y00491459D01*
X00350650Y00493000D01*
X00350344Y00494541D01*
X00349868Y00495689D01*
X00348995Y00496995D01*
X00347689Y00497868D01*
X00346541Y00498344D01*
X00345000Y00498650D01*
X00344356D01*
X00343870Y00499823D01*
X00351758Y00507711D01*
X00358000D01*
Y00503750D01*
X00370000D01*
Y00508905D01*
X00370069Y00509250D01*
Y00512000D01*
X00372961D01*
Y00505000D01*
X00373000Y00504803D01*
Y00503750D01*
X00373430D01*
X00373558Y00503558D01*
X00374220Y00503116D01*
X00375000Y00502961D01*
X00382000D01*
X00382000Y00502961D01*
X00382780Y00503116D01*
X00383442Y00503558D01*
X00392845Y00512961D01*
X00433961D01*
Y00496000D01*
Y00484143D01*
X00433000Y00483039D01*
X00386845D01*
X00383442Y00486442D01*
X00382780Y00486884D01*
X00382000Y00487039D01*
X00375000D01*
X00374803Y00487000D01*
X00363197D01*
X00363000Y00487039D01*
X00352000D01*
X00352000Y00487039D01*
X00351220Y00486884D01*
X00350558Y00486442D01*
X00327155Y00463039D01*
X00175000D01*
X00174220Y00462884D01*
X00173558Y00462442D01*
X00173116Y00461780D01*
X00172961Y00461000D01*
X00172961Y00312000D01*
X00173116Y00311220D01*
X00173558Y00310558D01*
X00173558Y00310558D01*
X00174891Y00309225D01*
X00175000Y00308000D01*
X00175000Y00308000D01*
Y00289229D01*
X00173827Y00288743D01*
X00158353Y00304217D01*
Y00834783D01*
X00165467Y00841897D01*
X00323000D01*
Y00835000D01*
X00323000D01*
Y00825701D01*
X00323000Y00825135D01*
X00322330Y00824377D01*
Y00824377D01*
X00322330Y00824377D01*
X00322330D01*
X00321109Y00824039D01*
X00253000D01*
Y00838000D01*
X00167000D01*
Y00822000D01*
Y00782000D01*
Y00774000D01*
X00253000D01*
Y00779961D01*
X00378000Y00779961D01*
X00378780Y00780116D01*
X00379442Y00780558D01*
X00379884Y00781220D01*
X00380039Y00782000D01*
Y00812493D01*
X00394478D01*
Y00812500D01*
X00411500D01*
Y00821000D01*
X00394478D01*
Y00824500D01*
X00394500D01*
Y00834922D01*
X00395750D01*
X00395750Y00834922D01*
X00397311Y00835232D01*
X00398634Y00836116D01*
X00402768Y00840250D01*
X00409000D01*
Y00852250D01*
X00397000D01*
Y00846018D01*
X00395673Y00844691D01*
X00394500Y00845177D01*
Y00853500D01*
X00391503D01*
X00390824Y00854770D01*
X00390945Y00854952D01*
X00391353Y00857000D01*
X00390945Y00859048D01*
X00389785Y00860785D01*
X00388048Y00861945D01*
X00386000Y00862353D01*
X00383952Y00861945D01*
X00382215Y00860785D01*
X00381055Y00859048D01*
X00380647Y00857000D01*
X00380669Y00856892D01*
X00379472Y00856396D01*
X00379442Y00856442D01*
X00378780Y00856884D01*
X00378000Y00857039D01*
X00336000D01*
X00335220Y00856884D01*
X00334558Y00856442D01*
X00334116Y00855780D01*
X00333961Y00855000D01*
Y00853250D01*
X00323000D01*
Y00852603D01*
X00163250D01*
X00161201Y00852195D01*
X00159465Y00851035D01*
X00149215Y00840785D01*
X00148055Y00839048D01*
X00147647Y00837000D01*
Y00302000D01*
X00148055Y00299952D01*
X00149215Y00298215D01*
X00172215Y00275215D01*
X00173952Y00274055D01*
X00175000Y00273846D01*
Y00240884D01*
X00173558Y00239442D01*
X00173116Y00238780D01*
X00172961Y00238000D01*
Y00220000D01*
X00167000D01*
Y00180000D01*
Y00164000D01*
X00253000D01*
Y00180000D01*
Y00220000D01*
X00247039D01*
Y00238000D01*
X00247039Y00238000D01*
X00246884Y00238780D01*
X00246442Y00239442D01*
X00246442Y00239442D01*
X00245000Y00240884D01*
Y00274000D01*
Y00308000D01*
X00245000Y00308000D01*
X00245109Y00309225D01*
X00246442Y00310558D01*
X00246884Y00311220D01*
X00247039Y00312000D01*
Y00398961D01*
X00405961D01*
Y00233039D01*
X00374000D01*
X00373220Y00232884D01*
X00372558Y00232442D01*
X00372116Y00231780D01*
X00371961Y00231000D01*
Y00197000D01*
Y00160039D01*
X00368039D01*
Y00184755D01*
X00368039Y00185000D01*
X00368039Y00185000D01*
X00367884Y00185780D01*
X00367760Y00185966D01*
X00367760Y00185966D01*
X00367750Y00187148D01*
Y00198000D01*
X00367667D01*
Y00206695D01*
X00367607Y00207000D01*
X00367667Y00207304D01*
Y00233876D01*
X00371041Y00237250D01*
X00388750D01*
Y00258750D01*
X00358250D01*
Y00241041D01*
X00357659Y00240450D01*
X00356388Y00238548D01*
X00355942Y00236305D01*
Y00233750D01*
X00346000D01*
Y00232863D01*
X00338000D01*
X00335756Y00232416D01*
X00333854Y00231145D01*
X00325605Y00222896D01*
X00324334Y00220994D01*
X00323887Y00218750D01*
Y00198000D01*
X00323750D01*
Y00186000D01*
X00331457D01*
X00331943Y00184827D01*
X00330558Y00183442D01*
X00330558Y00183442D01*
X00330116Y00182780D01*
X00329961Y00182000D01*
X00329961Y00161309D01*
X00329961Y00160039D01*
X00330116Y00159259D01*
X00330276Y00159020D01*
X00330116Y00158780D01*
X00329961Y00158000D01*
Y00119000D01*
X00330116Y00118220D01*
X00330558Y00117558D01*
X00331220Y00117116D01*
X00332000Y00116961D01*
X00407961D01*
Y00066000D01*
X00408116Y00065220D01*
X00408558Y00064558D01*
X00409220Y00064116D01*
X00410000Y00063961D01*
X00454000D01*
X00454780Y00064116D01*
X00455442Y00064558D01*
X00455884Y00065220D01*
X00456039Y00066000D01*
Y00116961D01*
X00523155D01*
X00532961Y00107155D01*
Y00066000D01*
X00533116Y00065220D01*
X00533558Y00064558D01*
X00534220Y00064116D01*
X00535000Y00063961D01*
X00586000D01*
X00586780Y00064116D01*
X00587442Y00064558D01*
X00587884Y00065220D01*
X00588039Y00066000D01*
Y00107155D01*
X00598442Y00117558D01*
X00598884Y00118220D01*
X00599039Y00119000D01*
Y00157961D01*
X00615000D01*
X00615780Y00158116D01*
X00616442Y00158558D01*
X00616884Y00159220D01*
X00617039Y00160000D01*
Y00294996D01*
X00618309Y00295381D01*
X00618393Y00295255D01*
X00620255Y00293393D01*
X00620809Y00293023D01*
X00621311Y00292583D01*
X00623591Y00291267D01*
X00624223Y00291052D01*
X00624821Y00290757D01*
X00627364Y00290076D01*
X00628029Y00290032D01*
X00628684Y00289902D01*
X00631316D01*
X00631970Y00290032D01*
X00632636Y00290076D01*
X00635179Y00290757D01*
X00635777Y00291052D01*
X00636409Y00291267D01*
X00638689Y00292583D01*
X00639190Y00293023D01*
X00639745Y00293393D01*
X00641607Y00295255D01*
X00641691Y00295381D01*
X00642961Y00294996D01*
X00642961Y00122000D01*
X00643116Y00121220D01*
X00643558Y00120558D01*
X00644220Y00120116D01*
X00645000Y00119961D01*
X00738961Y00119961D01*
Y00066000D01*
X00739116Y00065220D01*
X00739558Y00064558D01*
X00740220Y00064116D01*
X00741000Y00063961D01*
X00784000D01*
X00784780Y00064116D01*
X00785442Y00064558D01*
X00785884Y00065220D01*
X00786039Y00066000D01*
Y00164000D01*
X00785884Y00164780D01*
X00785442Y00165442D01*
X00784780Y00165884D01*
X00784000Y00166039D01*
X00773000D01*
Y00180000D01*
Y00220000D01*
X00767039D01*
Y00238000D01*
X00767039Y00238000D01*
X00766884Y00238780D01*
X00766442Y00239442D01*
X00766442Y00239442D01*
X00765816Y00240068D01*
X00765000Y00241000D01*
Y00265647D01*
X00767000D01*
X00769048Y00266055D01*
X00770785Y00267215D01*
X00800785Y00297215D01*
X00801945Y00298951D01*
X00802353Y00301000D01*
Y00749000D01*
X00801945Y00751048D01*
X00800785Y00752785D01*
X00788785Y00764785D01*
X00787048Y00765945D01*
X00785000Y00766353D01*
X00631217D01*
X00616353Y00781217D01*
Y00795750D01*
X00617000D01*
Y00807750D01*
X00617000D01*
Y00812250D01*
X00617000D01*
Y00824250D01*
X00605000D01*
X00605000Y00825520D01*
Y00827000D01*
X00605500D01*
Y00833961D01*
X00635961D01*
Y00782000D01*
X00636116Y00781220D01*
X00636558Y00780558D01*
X00637220Y00780116D01*
X00638000Y00779961D01*
X00688000D01*
Y00774000D01*
X00773000D01*
Y00782000D01*
Y00822000D01*
Y00838000D01*
X00690039D01*
Y00866000D01*
X00689884Y00866780D01*
X00689442Y00867442D01*
X00688780Y00867884D01*
X00688000Y00868039D01*
D02*
G37*
G36*
X00411500Y00801500D02*
X00392500D01*
Y00793000D01*
X00411500D01*
Y00801500D01*
D02*
G37*
G36*
X00831317Y00707098D02*
X00828683D01*
X00828029Y00706968D01*
X00827364Y00706924D01*
X00824821Y00706243D01*
X00824222Y00705948D01*
X00823591Y00705733D01*
X00821311Y00704417D01*
X00820809Y00703977D01*
X00820255Y00703607D01*
X00818393Y00701745D01*
X00818023Y00701190D01*
X00817583Y00700689D01*
X00816266Y00698409D01*
X00816052Y00697777D01*
X00815757Y00697179D01*
X00815076Y00694636D01*
X00815032Y00693971D01*
X00814902Y00693316D01*
Y00692000D01*
Y00646000D01*
Y00644684D01*
X00815032Y00644029D01*
X00815076Y00643364D01*
X00815757Y00640821D01*
X00816052Y00640223D01*
X00816266Y00639591D01*
X00817583Y00637311D01*
X00818023Y00636810D01*
X00818393Y00636255D01*
X00820255Y00634393D01*
X00820809Y00634023D01*
X00821311Y00633583D01*
X00823591Y00632267D01*
X00824223Y00632052D01*
X00824821Y00631757D01*
X00827364Y00631076D01*
X00828029Y00631032D01*
X00828683Y00630902D01*
X00831317D01*
X00831971Y00631032D01*
X00832636Y00631076D01*
X00835179Y00631757D01*
X00835777Y00632052D01*
X00836409Y00632267D01*
X00838689Y00633583D01*
X00839190Y00634023D01*
X00839745Y00634393D01*
X00841607Y00636255D01*
X00841977Y00636810D01*
X00842417Y00637311D01*
X00843734Y00639591D01*
X00843948Y00640223D01*
X00844243Y00640821D01*
X00844924Y00643364D01*
X00844968Y00644029D01*
X00845098Y00644684D01*
Y00646000D01*
Y00692000D01*
Y00693316D01*
X00844968Y00693971D01*
X00844924Y00694636D01*
X00844243Y00697179D01*
X00843948Y00697777D01*
X00843734Y00698409D01*
X00842417Y00700689D01*
X00841977Y00701190D01*
X00841607Y00701745D01*
X00839745Y00703607D01*
X00839191Y00703977D01*
X00838689Y00704417D01*
X00836409Y00705733D01*
X00835777Y00705948D01*
X00835179Y00706243D01*
X00832636Y00706924D01*
X00831971Y00706968D01*
X00831317Y00707098D01*
D02*
G37*
G36*
X00631316Y00707098D02*
X00628684D01*
X00628029Y00706968D01*
X00627364Y00706924D01*
X00624821Y00706243D01*
X00624223Y00705948D01*
X00623591Y00705733D01*
X00621311Y00704417D01*
X00620809Y00703977D01*
X00620255Y00703607D01*
X00618393Y00701745D01*
X00618023Y00701191D01*
X00617583Y00700689D01*
X00616267Y00698409D01*
X00616052Y00697777D01*
X00615757Y00697179D01*
X00615076Y00694636D01*
X00615032Y00693971D01*
X00614902Y00693316D01*
Y00692000D01*
Y00646000D01*
Y00644684D01*
X00615032Y00644029D01*
X00615076Y00643364D01*
X00615757Y00640821D01*
X00616052Y00640223D01*
X00616267Y00639591D01*
X00617583Y00637311D01*
X00618023Y00636810D01*
X00618393Y00636255D01*
X00620255Y00634393D01*
X00620810Y00634023D01*
X00621311Y00633583D01*
X00623591Y00632267D01*
X00624223Y00632052D01*
X00624821Y00631757D01*
X00627364Y00631076D01*
X00628030Y00631032D01*
X00628684Y00630902D01*
X00631316D01*
X00631970Y00631032D01*
X00632636Y00631076D01*
X00635179Y00631757D01*
X00635777Y00632052D01*
X00636409Y00632267D01*
X00638689Y00633583D01*
X00639190Y00634023D01*
X00639745Y00634393D01*
X00641607Y00636255D01*
X00641977Y00636810D01*
X00642417Y00637311D01*
X00643734Y00639591D01*
X00643948Y00640223D01*
X00644243Y00640821D01*
X00644924Y00643364D01*
X00644968Y00644029D01*
X00645098Y00644684D01*
Y00646000D01*
X00645098Y00692000D01*
Y00693316D01*
X00644968Y00693971D01*
X00644924Y00694636D01*
X00644243Y00697179D01*
X00643948Y00697777D01*
X00643733Y00698409D01*
X00642417Y00700689D01*
X00641977Y00701191D01*
X00641607Y00701745D01*
X00639745Y00703607D01*
X00639190Y00703977D01*
X00638689Y00704417D01*
X00636409Y00705733D01*
X00635777Y00705948D01*
X00635179Y00706243D01*
X00632636Y00706924D01*
X00631970Y00706968D01*
X00631316Y00707098D01*
D02*
G37*
G36*
X00311317Y00707098D02*
X00308683D01*
X00308029Y00706968D01*
X00307364Y00706924D01*
X00304821Y00706243D01*
X00304223Y00705948D01*
X00303591Y00705733D01*
X00301311Y00704417D01*
X00300809Y00703977D01*
X00300255Y00703607D01*
X00298393Y00701745D01*
X00298023Y00701190D01*
X00297583Y00700689D01*
X00296266Y00698409D01*
X00296052Y00697777D01*
X00295757Y00697179D01*
X00295076Y00694636D01*
X00295032Y00693971D01*
X00294902Y00693316D01*
Y00692000D01*
Y00646000D01*
Y00644684D01*
X00295032Y00644029D01*
X00295076Y00643364D01*
X00295757Y00640821D01*
X00296052Y00640223D01*
X00296266Y00639591D01*
X00297583Y00637311D01*
X00298023Y00636810D01*
X00298393Y00636255D01*
X00300255Y00634393D01*
X00300809Y00634023D01*
X00301311Y00633583D01*
X00303591Y00632267D01*
X00304223Y00632052D01*
X00304821Y00631757D01*
X00307364Y00631076D01*
X00308029Y00631032D01*
X00308683Y00630902D01*
X00311317D01*
X00311971Y00631032D01*
X00312636Y00631076D01*
X00315179Y00631757D01*
X00315777Y00632052D01*
X00316409Y00632267D01*
X00318689Y00633583D01*
X00319190Y00634023D01*
X00319745Y00634393D01*
X00321607Y00636255D01*
X00321977Y00636810D01*
X00322417Y00637311D01*
X00323733Y00639591D01*
X00323948Y00640223D01*
X00324243Y00640821D01*
X00324924Y00643364D01*
X00324968Y00644029D01*
X00325098Y00644684D01*
Y00646000D01*
Y00692000D01*
Y00693316D01*
X00324968Y00693971D01*
X00324924Y00694636D01*
X00324243Y00697179D01*
X00323948Y00697777D01*
X00323733Y00698409D01*
X00322417Y00700689D01*
X00321977Y00701190D01*
X00321607Y00701745D01*
X00319745Y00703607D01*
X00319191Y00703977D01*
X00318689Y00704417D01*
X00316409Y00705733D01*
X00315777Y00705948D01*
X00315179Y00706243D01*
X00312636Y00706924D01*
X00311971Y00706968D01*
X00311317Y00707098D01*
D02*
G37*
G36*
X00111316Y00707098D02*
X00108684D01*
X00108029Y00706968D01*
X00107364Y00706924D01*
X00104821Y00706243D01*
X00104223Y00705948D01*
X00103591Y00705733D01*
X00101311Y00704417D01*
X00100809Y00703977D01*
X00100255Y00703607D01*
X00098393Y00701745D01*
X00098023Y00701191D01*
X00097583Y00700689D01*
X00096266Y00698409D01*
X00096052Y00697777D01*
X00095757Y00697179D01*
X00095076Y00694636D01*
X00095032Y00693971D01*
X00094902Y00693316D01*
Y00692000D01*
Y00646000D01*
Y00644684D01*
X00095032Y00644029D01*
X00095076Y00643364D01*
X00095757Y00640821D01*
X00096052Y00640223D01*
X00096266Y00639591D01*
X00097583Y00637311D01*
X00098023Y00636810D01*
X00098393Y00636255D01*
X00100255Y00634393D01*
X00100809Y00634023D01*
X00101311Y00633583D01*
X00103591Y00632267D01*
X00104223Y00632052D01*
X00104821Y00631757D01*
X00107364Y00631076D01*
X00108029Y00631032D01*
X00108684Y00630902D01*
X00111316D01*
X00111971Y00631032D01*
X00112636Y00631076D01*
X00115179Y00631757D01*
X00115777Y00632052D01*
X00116409Y00632267D01*
X00118689Y00633583D01*
X00119191Y00634023D01*
X00119745Y00634393D01*
X00121607Y00636255D01*
X00121977Y00636810D01*
X00122417Y00637311D01*
X00123734Y00639591D01*
X00123948Y00640223D01*
X00124243Y00640821D01*
X00124924Y00643364D01*
X00124968Y00644029D01*
X00125098Y00644684D01*
Y00646000D01*
X00125098Y00692000D01*
Y00693316D01*
X00124968Y00693971D01*
X00124924Y00694636D01*
X00124243Y00697179D01*
X00123948Y00697777D01*
X00123733Y00698409D01*
X00122417Y00700689D01*
X00121977Y00701191D01*
X00121607Y00701745D01*
X00119745Y00703607D01*
X00119191Y00703977D01*
X00118689Y00704417D01*
X00116409Y00705733D01*
X00115777Y00705948D01*
X00115179Y00706243D01*
X00112636Y00706924D01*
X00111971Y00706968D01*
X00111316Y00707098D01*
D02*
G37*
G36*
X00831317Y00366098D02*
X00828683D01*
X00828029Y00365968D01*
X00827364Y00365924D01*
X00824821Y00365243D01*
X00824222Y00364948D01*
X00823591Y00364734D01*
X00821311Y00363417D01*
X00820809Y00362977D01*
X00820255Y00362607D01*
X00818393Y00360745D01*
X00818023Y00360191D01*
X00817583Y00359689D01*
X00816266Y00357409D01*
X00816052Y00356777D01*
X00815757Y00356179D01*
X00815076Y00353636D01*
X00815032Y00352971D01*
X00814902Y00352317D01*
Y00351000D01*
X00814902Y00305000D01*
Y00303683D01*
X00815032Y00303029D01*
X00815076Y00302364D01*
X00815757Y00299821D01*
X00816052Y00299223D01*
X00816266Y00298591D01*
X00817583Y00296311D01*
X00818023Y00295809D01*
X00818393Y00295255D01*
X00820255Y00293393D01*
X00820809Y00293023D01*
X00821311Y00292583D01*
X00823591Y00291266D01*
X00824223Y00291052D01*
X00824821Y00290757D01*
X00827364Y00290076D01*
X00828029Y00290032D01*
X00828683Y00289902D01*
X00831317D01*
X00831971Y00290032D01*
X00832636Y00290076D01*
X00835179Y00290757D01*
X00835777Y00291052D01*
X00836409Y00291266D01*
X00838689Y00292583D01*
X00839190Y00293023D01*
X00839745Y00293393D01*
X00841607Y00295255D01*
X00841977Y00295809D01*
X00842417Y00296311D01*
X00843734Y00298591D01*
X00843948Y00299223D01*
X00844243Y00299821D01*
X00844924Y00302364D01*
X00844968Y00303029D01*
X00845098Y00303683D01*
Y00305000D01*
X00845098Y00351000D01*
Y00352317D01*
X00844968Y00352971D01*
X00844924Y00353636D01*
X00844243Y00356179D01*
X00843948Y00356777D01*
X00843733Y00357409D01*
X00842417Y00359689D01*
X00841977Y00360191D01*
X00841607Y00360745D01*
X00839745Y00362607D01*
X00839190Y00362977D01*
X00838689Y00363417D01*
X00836409Y00364734D01*
X00835777Y00364948D01*
X00835179Y00365243D01*
X00832636Y00365924D01*
X00831971Y00365968D01*
X00831317Y00366098D01*
D02*
G37*
G36*
X00311317Y00366098D02*
X00308683D01*
X00308029Y00365968D01*
X00307364Y00365924D01*
X00304821Y00365243D01*
X00304223Y00364948D01*
X00303591Y00364734D01*
X00301311Y00363417D01*
X00300809Y00362977D01*
X00300255Y00362607D01*
X00298393Y00360745D01*
X00298023Y00360191D01*
X00297583Y00359689D01*
X00296266Y00357409D01*
X00296052Y00356777D01*
X00295757Y00356179D01*
X00295076Y00353636D01*
X00295032Y00352971D01*
X00294902Y00352317D01*
Y00351000D01*
X00294902Y00305000D01*
Y00303683D01*
X00295032Y00303029D01*
X00295076Y00302364D01*
X00295757Y00299821D01*
X00296052Y00299223D01*
X00296266Y00298591D01*
X00297583Y00296311D01*
X00298023Y00295809D01*
X00298393Y00295255D01*
X00300255Y00293393D01*
X00300809Y00293023D01*
X00301311Y00292583D01*
X00303591Y00291266D01*
X00304223Y00291052D01*
X00304821Y00290757D01*
X00307364Y00290076D01*
X00308029Y00290032D01*
X00308683Y00289902D01*
X00311317D01*
X00311971Y00290032D01*
X00312636Y00290076D01*
X00315179Y00290757D01*
X00315777Y00291052D01*
X00316409Y00291266D01*
X00318689Y00292583D01*
X00319190Y00293023D01*
X00319745Y00293393D01*
X00321607Y00295255D01*
X00321977Y00295809D01*
X00322417Y00296311D01*
X00323733Y00298591D01*
X00323948Y00299223D01*
X00324243Y00299821D01*
X00324924Y00302364D01*
X00324968Y00303029D01*
X00325098Y00303683D01*
Y00305000D01*
X00325098Y00351000D01*
Y00352317D01*
X00324968Y00352971D01*
X00324924Y00353636D01*
X00324243Y00356179D01*
X00323948Y00356777D01*
X00323733Y00357409D01*
X00322417Y00359689D01*
X00321977Y00360191D01*
X00321607Y00360745D01*
X00319745Y00362607D01*
X00319191Y00362977D01*
X00318689Y00363417D01*
X00316409Y00364734D01*
X00315777Y00364948D01*
X00315179Y00365243D01*
X00312636Y00365924D01*
X00311971Y00365968D01*
X00311317Y00366098D01*
D02*
G37*
G36*
X00111316D02*
X00108684D01*
X00108029Y00365968D01*
X00107364Y00365924D01*
X00104821Y00365243D01*
X00104223Y00364948D01*
X00103591Y00364734D01*
X00101311Y00363417D01*
X00100809Y00362977D01*
X00100255Y00362607D01*
X00098393Y00360745D01*
X00098023Y00360191D01*
X00097583Y00359689D01*
X00096266Y00357409D01*
X00096052Y00356777D01*
X00095757Y00356179D01*
X00095076Y00353636D01*
X00095032Y00352971D01*
X00094902Y00352317D01*
Y00351000D01*
Y00305000D01*
Y00303683D01*
X00095032Y00303029D01*
X00095076Y00302364D01*
X00095757Y00299821D01*
X00096052Y00299223D01*
X00096266Y00298591D01*
X00097583Y00296311D01*
X00098023Y00295809D01*
X00098393Y00295255D01*
X00100255Y00293393D01*
X00100809Y00293023D01*
X00101311Y00292583D01*
X00103591Y00291266D01*
X00104223Y00291052D01*
X00104821Y00290757D01*
X00107364Y00290076D01*
X00108029Y00290032D01*
X00108684Y00289902D01*
X00111316D01*
X00111971Y00290032D01*
X00112636Y00290076D01*
X00115179Y00290757D01*
X00115777Y00291052D01*
X00116409Y00291266D01*
X00118689Y00292583D01*
X00119191Y00293023D01*
X00119745Y00293393D01*
X00121607Y00295255D01*
X00121977Y00295809D01*
X00122417Y00296311D01*
X00123734Y00298591D01*
X00123948Y00299223D01*
X00124243Y00299821D01*
X00124924Y00302364D01*
X00124968Y00303029D01*
X00125098Y00303683D01*
Y00305000D01*
X00125098Y00351000D01*
Y00352317D01*
X00124968Y00352971D01*
X00124924Y00353636D01*
X00124243Y00356179D01*
X00123948Y00356777D01*
X00123733Y00357409D01*
X00122417Y00359689D01*
X00121977Y00360191D01*
X00121607Y00360745D01*
X00119745Y00362607D01*
X00119191Y00362977D01*
X00118689Y00363417D01*
X00116409Y00364734D01*
X00115777Y00364948D01*
X00115179Y00365243D01*
X00112636Y00365924D01*
X00111971Y00365968D01*
X00111316Y00366098D01*
D02*
G37*
G36*
X00345750Y00258750D02*
X00315250D01*
Y00241739D01*
X00310756Y00237244D01*
X00309761Y00235756D01*
X00309412Y00234000D01*
Y00138900D01*
X00299100Y00128588D01*
X00260700D01*
X00258944Y00128239D01*
X00257456Y00127244D01*
X00244466Y00114254D01*
X00244011Y00114443D01*
X00241400Y00114786D01*
X00238790Y00114443D01*
X00236357Y00113435D01*
X00234268Y00111832D01*
X00232665Y00109743D01*
X00231657Y00107310D01*
X00231314Y00104700D01*
X00231657Y00102090D01*
X00232665Y00099657D01*
X00234268Y00097568D01*
X00236357Y00095965D01*
X00236812Y00095777D01*
Y00088223D01*
X00236357Y00088035D01*
X00234268Y00086432D01*
X00232665Y00084343D01*
X00231657Y00081910D01*
X00231314Y00079300D01*
X00231657Y00076690D01*
X00232665Y00074257D01*
X00234268Y00072168D01*
X00236357Y00070565D01*
X00238790Y00069557D01*
X00241400Y00069214D01*
X00244011Y00069557D01*
X00246443Y00070565D01*
X00248532Y00072168D01*
X00250135Y00074257D01*
X00251143Y00076690D01*
X00251486Y00079300D01*
X00251143Y00081910D01*
X00250135Y00084343D01*
X00248532Y00086432D01*
X00246443Y00088035D01*
X00245988Y00088223D01*
Y00095777D01*
X00246443Y00095965D01*
X00248532Y00097568D01*
X00250135Y00099657D01*
X00251143Y00102090D01*
X00251486Y00104700D01*
X00251143Y00107310D01*
X00250954Y00107766D01*
X00262600Y00119412D01*
X00301000D01*
X00302756Y00119761D01*
X00304244Y00120756D01*
X00317244Y00133756D01*
X00318239Y00135244D01*
X00318588Y00137000D01*
Y00232099D01*
X00323739Y00237250D01*
X00345750D01*
Y00258750D01*
D02*
G37*
G36*
X00724000Y00114786D02*
X00721389Y00114443D01*
X00718957Y00113435D01*
X00716868Y00111832D01*
X00715265Y00109743D01*
X00714257Y00107310D01*
X00713914Y00104700D01*
X00714257Y00102090D01*
X00715265Y00099657D01*
X00716868Y00097568D01*
X00718957Y00095965D01*
X00721389Y00094957D01*
X00724000Y00094614D01*
X00726610Y00094957D01*
X00729043Y00095965D01*
X00731132Y00097568D01*
X00732735Y00099657D01*
X00733743Y00102090D01*
X00734086Y00104700D01*
X00733743Y00107310D01*
X00732735Y00109743D01*
X00731132Y00111832D01*
X00729043Y00113435D01*
X00726610Y00114443D01*
X00724000Y00114786D01*
D02*
G37*
G36*
X00698600D02*
X00695990Y00114443D01*
X00693557Y00113435D01*
X00691468Y00111832D01*
X00689865Y00109743D01*
X00688857Y00107310D01*
X00688514Y00104700D01*
X00688857Y00102090D01*
X00689865Y00099657D01*
X00691468Y00097568D01*
X00693557Y00095965D01*
X00695990Y00094957D01*
X00698600Y00094614D01*
X00701210Y00094957D01*
X00703643Y00095965D01*
X00705732Y00097568D01*
X00707335Y00099657D01*
X00708343Y00102090D01*
X00708686Y00104700D01*
X00708343Y00107310D01*
X00707335Y00109743D01*
X00705732Y00111832D01*
X00703643Y00113435D01*
X00701210Y00114443D01*
X00698600Y00114786D01*
D02*
G37*
G36*
X00673200D02*
X00670590Y00114443D01*
X00668157Y00113435D01*
X00666068Y00111832D01*
X00664465Y00109743D01*
X00663457Y00107310D01*
X00663114Y00104700D01*
X00663457Y00102090D01*
X00664465Y00099657D01*
X00666068Y00097568D01*
X00668157Y00095965D01*
X00670590Y00094957D01*
X00673200Y00094614D01*
X00675810Y00094957D01*
X00678243Y00095965D01*
X00680332Y00097568D01*
X00681935Y00099657D01*
X00682943Y00102090D01*
X00683286Y00104700D01*
X00682943Y00107310D01*
X00681935Y00109743D01*
X00680332Y00111832D01*
X00678243Y00113435D01*
X00675810Y00114443D01*
X00673200Y00114786D01*
D02*
G37*
G36*
X00647800D02*
X00645190Y00114443D01*
X00642757Y00113435D01*
X00640668Y00111832D01*
X00639065Y00109743D01*
X00638057Y00107310D01*
X00637714Y00104700D01*
X00638057Y00102090D01*
X00639065Y00099657D01*
X00640668Y00097568D01*
X00642757Y00095965D01*
X00645190Y00094957D01*
X00647800Y00094614D01*
X00650411Y00094957D01*
X00652843Y00095965D01*
X00654932Y00097568D01*
X00656535Y00099657D01*
X00657543Y00102090D01*
X00657886Y00104700D01*
X00657543Y00107310D01*
X00656535Y00109743D01*
X00654932Y00111832D01*
X00652843Y00113435D01*
X00650411Y00114443D01*
X00647800Y00114786D01*
D02*
G37*
G36*
X00622400D02*
X00619790Y00114443D01*
X00617357Y00113435D01*
X00615268Y00111832D01*
X00613665Y00109743D01*
X00612657Y00107310D01*
X00612314Y00104700D01*
X00612657Y00102090D01*
X00613665Y00099657D01*
X00615268Y00097568D01*
X00617357Y00095965D01*
X00619790Y00094957D01*
X00622400Y00094614D01*
X00625010Y00094957D01*
X00627443Y00095965D01*
X00629532Y00097568D01*
X00631135Y00099657D01*
X00632143Y00102090D01*
X00632486Y00104700D01*
X00632143Y00107310D01*
X00631135Y00109743D01*
X00629532Y00111832D01*
X00627443Y00113435D01*
X00625010Y00114443D01*
X00622400Y00114786D01*
D02*
G37*
G36*
X00368400D02*
X00365789Y00114443D01*
X00363357Y00113435D01*
X00361268Y00111832D01*
X00359665Y00109743D01*
X00358657Y00107310D01*
X00358314Y00104700D01*
X00358657Y00102090D01*
X00359665Y00099657D01*
X00361268Y00097568D01*
X00363357Y00095965D01*
X00365789Y00094957D01*
X00368400Y00094614D01*
X00371011Y00094957D01*
X00373443Y00095965D01*
X00375532Y00097568D01*
X00377135Y00099657D01*
X00378143Y00102090D01*
X00378486Y00104700D01*
X00378143Y00107310D01*
X00377135Y00109743D01*
X00375532Y00111832D01*
X00373443Y00113435D01*
X00371011Y00114443D01*
X00368400Y00114786D01*
D02*
G37*
G36*
X00343000D02*
X00340390Y00114443D01*
X00337957Y00113435D01*
X00335868Y00111832D01*
X00334265Y00109743D01*
X00333257Y00107310D01*
X00332914Y00104700D01*
X00333257Y00102090D01*
X00334265Y00099657D01*
X00335868Y00097568D01*
X00337957Y00095965D01*
X00340390Y00094957D01*
X00343000Y00094614D01*
X00345611Y00094957D01*
X00348043Y00095965D01*
X00350132Y00097568D01*
X00351735Y00099657D01*
X00352743Y00102090D01*
X00353086Y00104700D01*
X00352743Y00107310D01*
X00351735Y00109743D01*
X00350132Y00111832D01*
X00348043Y00113435D01*
X00345611Y00114443D01*
X00343000Y00114786D01*
D02*
G37*
G36*
X00292200D02*
X00289590Y00114443D01*
X00287157Y00113435D01*
X00285068Y00111832D01*
X00283465Y00109743D01*
X00282457Y00107310D01*
X00282114Y00104700D01*
X00282457Y00102090D01*
X00283465Y00099657D01*
X00285068Y00097568D01*
X00287157Y00095965D01*
X00289590Y00094957D01*
X00292200Y00094614D01*
X00294811Y00094957D01*
X00297243Y00095965D01*
X00299332Y00097568D01*
X00300935Y00099657D01*
X00301943Y00102090D01*
X00302286Y00104700D01*
X00301943Y00107310D01*
X00300935Y00109743D01*
X00299332Y00111832D01*
X00297243Y00113435D01*
X00294811Y00114443D01*
X00292200Y00114786D01*
D02*
G37*
G36*
X00266800D02*
X00264189Y00114443D01*
X00261757Y00113435D01*
X00259668Y00111832D01*
X00258065Y00109743D01*
X00257057Y00107310D01*
X00256714Y00104700D01*
X00257057Y00102090D01*
X00258065Y00099657D01*
X00259668Y00097568D01*
X00261757Y00095965D01*
X00264189Y00094957D01*
X00266800Y00094614D01*
X00269410Y00094957D01*
X00271843Y00095965D01*
X00273932Y00097568D01*
X00275535Y00099657D01*
X00276543Y00102090D01*
X00276886Y00104700D01*
X00276543Y00107310D01*
X00275535Y00109743D01*
X00273932Y00111832D01*
X00271843Y00113435D01*
X00269410Y00114443D01*
X00266800Y00114786D01*
D02*
G37*
G36*
X00216000D02*
X00213389Y00114443D01*
X00210957Y00113435D01*
X00208868Y00111832D01*
X00207265Y00109743D01*
X00206257Y00107310D01*
X00205914Y00104700D01*
X00206257Y00102090D01*
X00207265Y00099657D01*
X00208868Y00097568D01*
X00210957Y00095965D01*
X00213389Y00094957D01*
X00216000Y00094614D01*
X00218610Y00094957D01*
X00221043Y00095965D01*
X00223132Y00097568D01*
X00224735Y00099657D01*
X00225743Y00102090D01*
X00226086Y00104700D01*
X00225743Y00107310D01*
X00224735Y00109743D01*
X00223132Y00111832D01*
X00221043Y00113435D01*
X00218610Y00114443D01*
X00216000Y00114786D01*
D02*
G37*
G36*
X00190600D02*
X00187990Y00114443D01*
X00185557Y00113435D01*
X00183468Y00111832D01*
X00181865Y00109743D01*
X00180857Y00107310D01*
X00180514Y00104700D01*
X00180857Y00102090D01*
X00181865Y00099657D01*
X00183468Y00097568D01*
X00185557Y00095965D01*
X00187990Y00094957D01*
X00190600Y00094614D01*
X00193211Y00094957D01*
X00195643Y00095965D01*
X00197732Y00097568D01*
X00199335Y00099657D01*
X00200343Y00102090D01*
X00200686Y00104700D01*
X00200343Y00107310D01*
X00199335Y00109743D01*
X00197732Y00111832D01*
X00195643Y00113435D01*
X00193211Y00114443D01*
X00190600Y00114786D01*
D02*
G37*
G36*
X00165200D02*
X00162589Y00114443D01*
X00160157Y00113435D01*
X00158068Y00111832D01*
X00156465Y00109743D01*
X00155457Y00107310D01*
X00155114Y00104700D01*
X00155457Y00102090D01*
X00156465Y00099657D01*
X00158068Y00097568D01*
X00160157Y00095965D01*
X00162589Y00094957D01*
X00165200Y00094614D01*
X00167810Y00094957D01*
X00170243Y00095965D01*
X00172332Y00097568D01*
X00173935Y00099657D01*
X00174943Y00102090D01*
X00175286Y00104700D01*
X00174943Y00107310D01*
X00173935Y00109743D01*
X00172332Y00111832D01*
X00170243Y00113435D01*
X00167810Y00114443D01*
X00165200Y00114786D01*
D02*
G37*
G36*
X00724000Y00089386D02*
X00721389Y00089043D01*
X00718957Y00088035D01*
X00716868Y00086432D01*
X00715265Y00084343D01*
X00714257Y00081910D01*
X00713914Y00079300D01*
X00714257Y00076690D01*
X00715265Y00074257D01*
X00716868Y00072168D01*
X00718957Y00070565D01*
X00721389Y00069557D01*
X00724000Y00069214D01*
X00726610Y00069557D01*
X00729043Y00070565D01*
X00731132Y00072168D01*
X00732735Y00074257D01*
X00733743Y00076690D01*
X00734086Y00079300D01*
X00733743Y00081910D01*
X00732735Y00084343D01*
X00731132Y00086432D01*
X00729043Y00088035D01*
X00726610Y00089043D01*
X00724000Y00089386D01*
D02*
G37*
G36*
X00698600D02*
X00695990Y00089043D01*
X00693557Y00088035D01*
X00691468Y00086432D01*
X00689865Y00084343D01*
X00688857Y00081910D01*
X00688514Y00079300D01*
X00688857Y00076690D01*
X00689865Y00074257D01*
X00691468Y00072168D01*
X00693557Y00070565D01*
X00695990Y00069557D01*
X00698600Y00069214D01*
X00701210Y00069557D01*
X00703643Y00070565D01*
X00705732Y00072168D01*
X00707335Y00074257D01*
X00708343Y00076690D01*
X00708686Y00079300D01*
X00708343Y00081910D01*
X00707335Y00084343D01*
X00705732Y00086432D01*
X00703643Y00088035D01*
X00701210Y00089043D01*
X00698600Y00089386D01*
D02*
G37*
G36*
X00673200D02*
X00670590Y00089043D01*
X00668157Y00088035D01*
X00666068Y00086432D01*
X00664465Y00084343D01*
X00663457Y00081910D01*
X00663114Y00079300D01*
X00663457Y00076690D01*
X00664465Y00074257D01*
X00666068Y00072168D01*
X00668157Y00070565D01*
X00670590Y00069557D01*
X00673200Y00069214D01*
X00675810Y00069557D01*
X00678243Y00070565D01*
X00680332Y00072168D01*
X00681935Y00074257D01*
X00682943Y00076690D01*
X00683286Y00079300D01*
X00682943Y00081910D01*
X00681935Y00084343D01*
X00680332Y00086432D01*
X00678243Y00088035D01*
X00675810Y00089043D01*
X00673200Y00089386D01*
D02*
G37*
G36*
X00647800D02*
X00645190Y00089043D01*
X00642757Y00088035D01*
X00640668Y00086432D01*
X00639065Y00084343D01*
X00638057Y00081910D01*
X00637714Y00079300D01*
X00638057Y00076690D01*
X00639065Y00074257D01*
X00640668Y00072168D01*
X00642757Y00070565D01*
X00645190Y00069557D01*
X00647800Y00069214D01*
X00650411Y00069557D01*
X00652843Y00070565D01*
X00654932Y00072168D01*
X00656535Y00074257D01*
X00657543Y00076690D01*
X00657886Y00079300D01*
X00657543Y00081910D01*
X00656535Y00084343D01*
X00654932Y00086432D01*
X00652843Y00088035D01*
X00650411Y00089043D01*
X00647800Y00089386D01*
D02*
G37*
G36*
X00622400D02*
X00619790Y00089043D01*
X00617357Y00088035D01*
X00615268Y00086432D01*
X00613665Y00084343D01*
X00612657Y00081910D01*
X00612314Y00079300D01*
X00612657Y00076690D01*
X00613665Y00074257D01*
X00615268Y00072168D01*
X00617357Y00070565D01*
X00619790Y00069557D01*
X00622400Y00069214D01*
X00625010Y00069557D01*
X00627443Y00070565D01*
X00629532Y00072168D01*
X00631135Y00074257D01*
X00632143Y00076690D01*
X00632486Y00079300D01*
X00632143Y00081910D01*
X00631135Y00084343D01*
X00629532Y00086432D01*
X00627443Y00088035D01*
X00625010Y00089043D01*
X00622400Y00089386D01*
D02*
G37*
G36*
X00368400D02*
X00365789Y00089043D01*
X00363357Y00088035D01*
X00361268Y00086432D01*
X00359665Y00084343D01*
X00358657Y00081910D01*
X00358314Y00079300D01*
X00358657Y00076690D01*
X00359665Y00074257D01*
X00361268Y00072168D01*
X00363357Y00070565D01*
X00365789Y00069557D01*
X00368400Y00069214D01*
X00371011Y00069557D01*
X00373443Y00070565D01*
X00375532Y00072168D01*
X00377135Y00074257D01*
X00378143Y00076690D01*
X00378486Y00079300D01*
X00378143Y00081910D01*
X00377135Y00084343D01*
X00375532Y00086432D01*
X00373443Y00088035D01*
X00371011Y00089043D01*
X00368400Y00089386D01*
D02*
G37*
G36*
X00343000D02*
X00340390Y00089043D01*
X00337957Y00088035D01*
X00335868Y00086432D01*
X00334265Y00084343D01*
X00333257Y00081910D01*
X00332914Y00079300D01*
X00333257Y00076690D01*
X00334265Y00074257D01*
X00335868Y00072168D01*
X00337957Y00070565D01*
X00340390Y00069557D01*
X00343000Y00069214D01*
X00345611Y00069557D01*
X00348043Y00070565D01*
X00350132Y00072168D01*
X00351735Y00074257D01*
X00352743Y00076690D01*
X00353086Y00079300D01*
X00352743Y00081910D01*
X00351735Y00084343D01*
X00350132Y00086432D01*
X00348043Y00088035D01*
X00345611Y00089043D01*
X00343000Y00089386D01*
D02*
G37*
G36*
X00292200D02*
X00289590Y00089043D01*
X00287157Y00088035D01*
X00285068Y00086432D01*
X00283465Y00084343D01*
X00282457Y00081910D01*
X00282114Y00079300D01*
X00282457Y00076690D01*
X00283465Y00074257D01*
X00285068Y00072168D01*
X00287157Y00070565D01*
X00289590Y00069557D01*
X00292200Y00069214D01*
X00294811Y00069557D01*
X00297243Y00070565D01*
X00299332Y00072168D01*
X00300935Y00074257D01*
X00301943Y00076690D01*
X00302286Y00079300D01*
X00301943Y00081910D01*
X00300935Y00084343D01*
X00299332Y00086432D01*
X00297243Y00088035D01*
X00294811Y00089043D01*
X00292200Y00089386D01*
D02*
G37*
G36*
X00266800D02*
X00264189Y00089043D01*
X00261757Y00088035D01*
X00259668Y00086432D01*
X00258065Y00084343D01*
X00257057Y00081910D01*
X00256714Y00079300D01*
X00257057Y00076690D01*
X00258065Y00074257D01*
X00259668Y00072168D01*
X00261757Y00070565D01*
X00264189Y00069557D01*
X00266800Y00069214D01*
X00269410Y00069557D01*
X00271843Y00070565D01*
X00273932Y00072168D01*
X00275535Y00074257D01*
X00276543Y00076690D01*
X00276886Y00079300D01*
X00276543Y00081910D01*
X00275535Y00084343D01*
X00273932Y00086432D01*
X00271843Y00088035D01*
X00269410Y00089043D01*
X00266800Y00089386D01*
D02*
G37*
G36*
X00216000D02*
X00213389Y00089043D01*
X00210957Y00088035D01*
X00208868Y00086432D01*
X00207265Y00084343D01*
X00206257Y00081910D01*
X00205914Y00079300D01*
X00206257Y00076690D01*
X00207265Y00074257D01*
X00208868Y00072168D01*
X00210957Y00070565D01*
X00213389Y00069557D01*
X00216000Y00069214D01*
X00218610Y00069557D01*
X00221043Y00070565D01*
X00223132Y00072168D01*
X00224735Y00074257D01*
X00225743Y00076690D01*
X00226086Y00079300D01*
X00225743Y00081910D01*
X00224735Y00084343D01*
X00223132Y00086432D01*
X00221043Y00088035D01*
X00218610Y00089043D01*
X00216000Y00089386D01*
D02*
G37*
G36*
X00190600D02*
X00187990Y00089043D01*
X00185557Y00088035D01*
X00183468Y00086432D01*
X00181865Y00084343D01*
X00180857Y00081910D01*
X00180514Y00079300D01*
X00180857Y00076690D01*
X00181865Y00074257D01*
X00183468Y00072168D01*
X00185557Y00070565D01*
X00187990Y00069557D01*
X00190600Y00069214D01*
X00193211Y00069557D01*
X00195643Y00070565D01*
X00197732Y00072168D01*
X00199335Y00074257D01*
X00200343Y00076690D01*
X00200686Y00079300D01*
X00200343Y00081910D01*
X00199335Y00084343D01*
X00197732Y00086432D01*
X00195643Y00088035D01*
X00193211Y00089043D01*
X00190600Y00089386D01*
D02*
G37*
G36*
X00165200D02*
X00162589Y00089043D01*
X00160157Y00088035D01*
X00158068Y00086432D01*
X00156465Y00084343D01*
X00155457Y00081910D01*
X00155114Y00079300D01*
X00155457Y00076690D01*
X00156465Y00074257D01*
X00158068Y00072168D01*
X00160157Y00070565D01*
X00162589Y00069557D01*
X00165200Y00069214D01*
X00167810Y00069557D01*
X00170243Y00070565D01*
X00172332Y00072168D01*
X00173935Y00074257D01*
X00174943Y00076690D01*
X00175286Y00079300D01*
X00174943Y00081910D01*
X00173935Y00084343D01*
X00172332Y00086432D01*
X00170243Y00088035D01*
X00167810Y00089043D01*
X00165200Y00089386D01*
D02*
G37*
%LPD*%
G36*
X00378000Y00782000D02*
X00253000Y00782000D01*
Y00782000D01*
X00175000D01*
Y00822000D01*
X00322000D01*
X00332000Y00812000D01*
X00368000Y00812000D01*
X00368000Y00844000D01*
X00367500D01*
Y00844000D01*
X00351500D01*
Y00844000D01*
X00336000Y00844000D01*
Y00855000D01*
X00378000D01*
X00378000Y00782000D01*
D02*
G37*
G36*
X00688000Y00832955D02*
X00687790Y00832448D01*
X00687595Y00831468D01*
X00687402Y00830497D01*
Y00829503D01*
X00687556Y00828727D01*
X00687790Y00827552D01*
X00688000Y00827045D01*
Y00822000D01*
Y00822000D01*
X00765000Y00822000D01*
Y00782000D01*
X00688000D01*
Y00782000D01*
X00638000D01*
Y00836000D01*
X00572000D01*
Y00804000D01*
X00604000D01*
Y00793000D01*
X00562000D01*
Y00866000D01*
X00688000D01*
Y00832955D01*
D02*
G37*
G36*
X00528000Y00604197D02*
X00527961Y00604000D01*
Y00588000D01*
X00507000D01*
Y00603000D01*
X00502000Y00608000D01*
Y00642000D01*
X00528000D01*
Y00604197D01*
D02*
G37*
G36*
X00765000Y00604000D02*
X00765000Y00312000D01*
X00738000Y00285000D01*
X00722000D01*
X00695000Y00312000D01*
Y00544000D01*
X00612000D01*
X00588000Y00520000D01*
X00579000D01*
Y00520000D01*
X00577000D01*
Y00523655D01*
X00577068Y00524000D01*
Y00534860D01*
X00578048Y00535055D01*
X00579785Y00536215D01*
X00580945Y00537952D01*
X00581353Y00540000D01*
X00580945Y00542048D01*
X00579785Y00543785D01*
X00578048Y00544945D01*
X00576000Y00545353D01*
X00573952Y00544945D01*
X00572215Y00543785D01*
X00571351Y00542492D01*
X00569882Y00542165D01*
X00565302Y00546745D01*
X00565353Y00547000D01*
X00564945Y00549048D01*
X00563785Y00550785D01*
X00562048Y00551945D01*
X00560000Y00552353D01*
X00557952Y00551945D01*
X00556215Y00550785D01*
X00555055Y00549048D01*
X00554647Y00547000D01*
X00555055Y00544952D01*
X00556215Y00543215D01*
X00557952Y00542055D01*
X00560000Y00541647D01*
X00560255Y00541698D01*
X00564931Y00537022D01*
Y00524000D01*
X00565000Y00523656D01*
Y00520000D01*
X00558000D01*
X00554000Y00524000D01*
X00506039D01*
Y00540799D01*
X00506039Y00540799D01*
Y00541000D01*
X00506000Y00541197D01*
Y00559500D01*
X00507000D01*
Y00574000D01*
X00519500D01*
Y00559500D01*
X00529500D01*
Y00567557D01*
X00529588Y00568000D01*
Y00574000D01*
X00530000D01*
Y00602730D01*
X00531187Y00604000D01*
X00765000Y00604000D01*
D02*
G37*
G36*
X00692961Y00312000D02*
X00692961Y00312000D01*
X00693116Y00311220D01*
X00693558Y00310558D01*
X00693558Y00310558D01*
X00694184Y00309932D01*
X00695000Y00309000D01*
Y00275000D01*
Y00241000D01*
X00694184Y00240068D01*
X00693558Y00239442D01*
X00693116Y00238780D01*
X00692961Y00238000D01*
Y00220000D01*
X00689039D01*
Y00461000D01*
X00688884Y00461780D01*
X00688442Y00462442D01*
X00687780Y00462884D01*
X00687000Y00463039D01*
X00588250D01*
Y00474000D01*
X00585818D01*
Y00490225D01*
X00589793D01*
X00591159Y00490496D01*
X00592317Y00491270D01*
X00600478Y00499431D01*
X00646522D01*
X00656251Y00489702D01*
X00655744Y00488480D01*
X00655418Y00486000D01*
X00655744Y00483520D01*
X00656702Y00481209D01*
X00658224Y00479225D01*
X00660209Y00477702D01*
X00662520Y00476745D01*
X00665000Y00476418D01*
X00667480Y00476745D01*
X00669791Y00477702D01*
X00671775Y00479225D01*
X00673298Y00481209D01*
X00674255Y00483520D01*
X00674582Y00486000D01*
X00674255Y00488480D01*
X00673298Y00490791D01*
X00671775Y00492775D01*
X00669791Y00494298D01*
X00667480Y00495256D01*
X00665000Y00495582D01*
X00662520Y00495256D01*
X00661298Y00494749D01*
X00653870Y00502177D01*
X00654356Y00503350D01*
X00658000D01*
X00659541Y00503656D01*
X00660689Y00504132D01*
X00661845Y00504905D01*
X00662018Y00504870D01*
X00662516Y00504701D01*
X00664474Y00504443D01*
X00665000Y00504478D01*
X00665526Y00504443D01*
X00667484Y00504701D01*
X00667982Y00504870D01*
X00668499Y00504973D01*
X00670323Y00505729D01*
X00670761Y00506021D01*
X00671234Y00506254D01*
X00672800Y00507457D01*
X00673148Y00507853D01*
X00673544Y00508200D01*
X00674746Y00509767D01*
X00674979Y00510239D01*
X00675271Y00510677D01*
X00676027Y00512501D01*
X00676130Y00513018D01*
X00676299Y00513517D01*
X00676557Y00515475D01*
X00676522Y00516000D01*
X00676557Y00516526D01*
X00676299Y00518484D01*
X00676130Y00518982D01*
X00676027Y00519499D01*
X00675271Y00521323D01*
X00674979Y00521761D01*
X00674746Y00522234D01*
X00673544Y00523800D01*
X00673148Y00524148D01*
X00672800Y00524544D01*
X00671234Y00525746D01*
X00670761Y00525979D01*
X00670323Y00526271D01*
X00668499Y00527027D01*
X00667982Y00527130D01*
X00667484Y00527299D01*
X00665526Y00527557D01*
X00665260Y00527539D01*
X00665000Y00527591D01*
X00664740Y00527539D01*
X00664474Y00527557D01*
X00662516Y00527299D01*
X00662018Y00527130D01*
X00661501Y00527027D01*
X00659677Y00526271D01*
X00659239Y00525979D01*
X00658766Y00525746D01*
X00657200Y00524544D01*
X00656852Y00524148D01*
X00656456Y00523800D01*
X00655254Y00522234D01*
X00655021Y00521761D01*
X00654729Y00521323D01*
X00653973Y00519499D01*
X00653870Y00518982D01*
X00653701Y00518484D01*
X00653443Y00516526D01*
X00653478Y00516000D01*
X00653443Y00515475D01*
X00652720Y00514650D01*
X00595000D01*
X00593459Y00514344D01*
X00592311Y00513868D01*
X00591005Y00512995D01*
X00590132Y00511689D01*
X00589656Y00510541D01*
X00589350Y00509000D01*
X00589656Y00507459D01*
X00590132Y00506311D01*
X00591005Y00505005D01*
X00592311Y00504132D01*
X00593003Y00503845D01*
X00593436Y00502483D01*
X00588315Y00497362D01*
X00582000D01*
Y00501250D01*
X00570000D01*
Y00496095D01*
X00569931Y00495750D01*
Y00493000D01*
X00567039D01*
Y00500000D01*
X00567000Y00500197D01*
Y00501250D01*
X00566570D01*
X00566442Y00501442D01*
X00565780Y00501884D01*
X00565000Y00502039D01*
X00558000Y00502039D01*
X00557220Y00501884D01*
X00556558Y00501442D01*
X00556558Y00501442D01*
X00550155Y00495039D01*
X00506039D01*
Y00521961D01*
X00553155D01*
X00556558Y00518558D01*
X00556558Y00518558D01*
X00557220Y00518116D01*
X00558000Y00517961D01*
X00565000D01*
X00565197Y00518000D01*
X00576803D01*
X00577000Y00517961D01*
X00579000D01*
X00579000Y00517961D01*
X00588000D01*
X00588780Y00518116D01*
X00589442Y00518558D01*
X00589442Y00518558D01*
X00612845Y00541961D01*
X00692961D01*
Y00312000D01*
D02*
G37*
G36*
X00363000Y00481095D02*
X00362931Y00480750D01*
Y00473261D01*
X00362000Y00472353D01*
X00359952Y00471945D01*
X00358215Y00470785D01*
X00357055Y00469048D01*
X00356647Y00467000D01*
X00357055Y00464952D01*
X00358215Y00463215D01*
X00359952Y00462055D01*
X00362000Y00461647D01*
X00364048Y00462055D01*
X00365785Y00463215D01*
X00366661Y00464527D01*
X00367238Y00464515D01*
X00367986Y00464224D01*
X00368203Y00463134D01*
X00368977Y00461977D01*
X00369698Y00461255D01*
X00369647Y00461000D01*
X00370055Y00458952D01*
X00371215Y00457215D01*
X00372952Y00456055D01*
X00375000Y00455647D01*
X00377048Y00456055D01*
X00378785Y00457215D01*
X00379945Y00458952D01*
X00380353Y00461000D01*
X00379945Y00463049D01*
X00378785Y00464785D01*
X00377048Y00465945D01*
X00375069Y00466339D01*
Y00480750D01*
X00375000Y00481095D01*
Y00485000D01*
X00382000D01*
X00386000Y00481000D01*
X00433000D01*
Y00431000D01*
X00420500Y00431000D01*
Y00445500D01*
X00410500D01*
Y00437443D01*
X00410412Y00437000D01*
Y00431000D01*
X00410000D01*
Y00417197D01*
X00409961Y00417000D01*
Y00401039D01*
X00408000D01*
X00407803Y00401000D01*
X00245000D01*
Y00312000D01*
X00218000Y00285000D01*
X00202000D01*
X00175000Y00312000D01*
X00175000Y00461000D01*
X00328000D01*
X00352000Y00485000D01*
X00363000D01*
Y00481095D01*
D02*
G37*
G36*
X00642961Y00361004D02*
X00641691Y00360619D01*
X00641607Y00360745D01*
X00639745Y00362607D01*
X00639190Y00362977D01*
X00638689Y00363417D01*
X00636409Y00364734D01*
X00635777Y00364948D01*
X00635179Y00365243D01*
X00632636Y00365924D01*
X00631970Y00365968D01*
X00631316Y00366098D01*
X00628684D01*
X00628029Y00365968D01*
X00627364Y00365924D01*
X00624821Y00365243D01*
X00624222Y00364948D01*
X00623591Y00364734D01*
X00621311Y00363417D01*
X00620810Y00362977D01*
X00620255Y00362607D01*
X00618393Y00360745D01*
X00618309Y00360619D01*
X00617039Y00361004D01*
Y00408961D01*
X00642961D01*
X00642961Y00361004D01*
D02*
G37*
G36*
X00483961Y00411000D02*
X00484116Y00410220D01*
X00484558Y00409558D01*
X00485220Y00409116D01*
X00486000Y00408961D01*
X00570961Y00408961D01*
Y00385000D01*
X00571116Y00384220D01*
X00571558Y00383558D01*
X00572220Y00383116D01*
X00573000Y00382961D01*
X00586961D01*
Y00258750D01*
X00558250D01*
Y00248270D01*
X00558196Y00248000D01*
Y00234939D01*
X00558000Y00233750D01*
X00546000D01*
Y00232863D01*
X00538000D01*
X00535756Y00232416D01*
X00533854Y00231145D01*
X00525605Y00222896D01*
X00524334Y00220994D01*
X00523887Y00218750D01*
Y00198000D01*
X00523750D01*
Y00186000D01*
X00532320D01*
X00532846Y00184730D01*
X00530558Y00182442D01*
X00530558Y00182442D01*
X00530116Y00181780D01*
X00529961Y00181000D01*
Y00160039D01*
X00400039D01*
Y00178961D01*
X00446000D01*
X00446780Y00179116D01*
X00447442Y00179558D01*
X00447884Y00180220D01*
X00448039Y00181000D01*
Y00229961D01*
X00494961D01*
Y00205000D01*
X00495116Y00204220D01*
X00495558Y00203558D01*
X00496220Y00203116D01*
X00497000Y00202961D01*
X00518000D01*
X00518780Y00203116D01*
X00519442Y00203558D01*
X00519884Y00204220D01*
X00520039Y00205000D01*
Y00218000D01*
X00520039Y00218000D01*
X00519884Y00218780D01*
X00519442Y00219442D01*
X00519442Y00219442D01*
X00516039Y00222845D01*
Y00237250D01*
X00545750D01*
Y00241895D01*
X00546732Y00242701D01*
X00547000Y00242647D01*
X00549048Y00243055D01*
X00550785Y00244215D01*
X00551945Y00245952D01*
X00552353Y00248000D01*
X00551945Y00250048D01*
X00550785Y00251785D01*
X00549048Y00252945D01*
X00547000Y00253353D01*
X00546732Y00253300D01*
X00545750Y00254105D01*
Y00258750D01*
X00516039D01*
Y00275961D01*
X00543000D01*
X00543780Y00276116D01*
X00544442Y00276558D01*
X00544884Y00277220D01*
X00545039Y00278000D01*
Y00291000D01*
X00544884Y00291780D01*
X00544442Y00292442D01*
X00543780Y00292884D01*
X00543000Y00293039D01*
X00502000D01*
X00501220Y00292884D01*
X00500558Y00292442D01*
X00500116Y00291780D01*
X00499961Y00291000D01*
Y00248039D01*
X00448039D01*
Y00285253D01*
X00449309Y00285984D01*
X00451000Y00285647D01*
X00453048Y00286055D01*
X00454785Y00287215D01*
X00454930Y00287431D01*
X00485070D01*
X00485215Y00287215D01*
X00486952Y00286055D01*
X00489000Y00285647D01*
X00491048Y00286055D01*
X00492785Y00287215D01*
X00493945Y00288952D01*
X00494353Y00291000D01*
X00493945Y00293048D01*
X00492785Y00294785D01*
X00491048Y00295945D01*
X00489000Y00296353D01*
X00486952Y00295945D01*
X00485215Y00294785D01*
X00485070Y00294569D01*
X00454930D01*
X00454785Y00294785D01*
X00453048Y00295945D01*
X00451000Y00296353D01*
X00449309Y00296017D01*
X00448039Y00296747D01*
Y00320961D01*
X00459000D01*
X00459780Y00321116D01*
X00460442Y00321558D01*
X00460884Y00322220D01*
X00461039Y00323000D01*
X00461039Y00337000D01*
X00460884Y00337780D01*
X00460442Y00338442D01*
X00459780Y00338884D01*
X00459000Y00339039D01*
X00435039D01*
Y00388000D01*
X00452250D01*
Y00400000D01*
X00452088D01*
Y00402500D01*
X00452500D01*
Y00418500D01*
X00442588D01*
Y00420000D01*
X00442239Y00421756D01*
X00441244Y00423244D01*
X00437244Y00427244D01*
X00435756Y00428239D01*
X00434983Y00428392D01*
X00434759Y00428876D01*
X00434582Y00429767D01*
X00434884Y00430220D01*
X00435039Y00431000D01*
Y00448000D01*
X00435750D01*
Y00460000D01*
X00435750D01*
X00435502Y00460897D01*
X00436348Y00461961D01*
X00483961D01*
Y00411000D01*
D02*
G37*
G36*
X00459000Y00323000D02*
X00446000D01*
Y00292648D01*
X00445750Y00292044D01*
Y00289956D01*
X00446000Y00289352D01*
Y00246000D01*
X00502000D01*
Y00291000D01*
X00543000D01*
Y00278000D01*
X00514000D01*
Y00222000D01*
X00518000Y00218000D01*
Y00205000D01*
X00497000D01*
Y00232000D01*
X00446000D01*
Y00181000D01*
X00400039D01*
Y00207961D01*
X00433000D01*
X00433197Y00208000D01*
X00435000D01*
Y00209803D01*
X00435039Y00210000D01*
Y00337000D01*
X00459000D01*
X00459000Y00323000D01*
D02*
G37*
G36*
X00586961Y00201039D02*
X00568000D01*
X00567613Y00201357D01*
Y00204750D01*
X00567500Y00205316D01*
Y00213750D01*
X00567373D01*
Y00237250D01*
X00586961D01*
Y00201039D01*
D02*
G37*
G36*
X00546000Y00220250D02*
X00558000D01*
X00558196Y00219061D01*
Y00213750D01*
X00555500D01*
Y00201931D01*
X00555356Y00201721D01*
X00554230Y00200993D01*
X00554000Y00201039D01*
X00536000D01*
X00535613Y00201357D01*
Y00216322D01*
X00540428Y00221137D01*
X00546000D01*
Y00220250D01*
D02*
G37*
G36*
X00346000D02*
X00355942D01*
Y00213750D01*
X00355500D01*
Y00201931D01*
X00355356Y00201721D01*
X00354230Y00200993D01*
X00354000Y00201039D01*
X00336000D01*
X00335613Y00201357D01*
Y00216322D01*
X00340428Y00221137D01*
X00346000D01*
Y00220250D01*
D02*
G37*
G36*
X00765000Y00238000D02*
Y00180000D01*
X00695000D01*
Y00238000D01*
X00722000Y00265000D01*
X00738000D01*
X00765000Y00238000D01*
D02*
G37*
G36*
X00245000D02*
Y00180000D01*
X00175000D01*
Y00238000D01*
X00202000Y00265000D01*
X00218000D01*
X00245000Y00238000D01*
D02*
G37*
G36*
X00554000Y00185000D02*
X00566000D01*
Y00160039D01*
X00532000D01*
Y00181000D01*
X00536000Y00185000D01*
Y00199000D01*
X00554000D01*
Y00185000D01*
D02*
G37*
G36*
X00354000D02*
X00366000D01*
Y00160039D01*
X00332000D01*
X00332000Y00161309D01*
X00332000Y00182000D01*
X00336000Y00186000D01*
X00336000Y00199000D01*
X00354000D01*
Y00185000D01*
D02*
G37*
G36*
X00615000Y00408961D02*
Y00352809D01*
X00614902Y00352317D01*
Y00351000D01*
X00614902Y00305000D01*
Y00303683D01*
X00615000Y00303191D01*
Y00160000D01*
X00597197D01*
X00597000Y00160039D01*
X00568039D01*
Y00185000D01*
X00568000Y00185197D01*
Y00199000D01*
X00589000D01*
Y00385000D01*
X00573000D01*
Y00408961D01*
X00615000Y00408961D01*
D02*
G37*
G36*
X00433000Y00210000D02*
X00398000D01*
Y00160000D01*
X00374000D01*
Y00197000D01*
Y00231000D01*
X00408000D01*
Y00399000D01*
X00412000D01*
Y00417000D01*
X00433000D01*
Y00210000D01*
D02*
G37*
G36*
X00597000Y00158000D02*
Y00119000D01*
X00586000Y00108000D01*
Y00066000D01*
X00535000D01*
Y00108000D01*
X00524000Y00119000D01*
X00332000D01*
Y00158000D01*
X00373803D01*
X00374000Y00157961D01*
X00398000D01*
X00398197Y00158000D01*
X00597000D01*
D01*
D02*
G37*
G36*
X00504000Y00541000D02*
Y00540799D01*
X00504000Y00540799D01*
Y00524000D01*
Y00493000D01*
X00551000D01*
X00558000Y00500000D01*
X00565000Y00500000D01*
Y00475000D01*
X00575000D01*
Y00461000D01*
X00687000D01*
Y00220000D01*
X00687000D01*
Y00180000D01*
Y00164000D01*
X00784000D01*
Y00066000D01*
X00741000D01*
Y00122000D01*
X00645000Y00122000D01*
X00645000Y00303191D01*
X00645098Y00303683D01*
Y00305000D01*
X00645098Y00351000D01*
X00645098Y00351000D01*
Y00352317D01*
X00645000Y00352809D01*
X00645000Y00411000D01*
X00604231D01*
X00573000Y00411000D01*
X00573000Y00411000D01*
X00486000Y00411000D01*
Y00464000D01*
X00436000D01*
Y00496000D01*
Y00515000D01*
X00392000D01*
X00382000Y00505000D01*
X00375000D01*
Y00530000D01*
X00366000D01*
Y00541000D01*
X00504000D01*
D01*
D02*
G37*
G36*
X00454000Y00066000D02*
X00410000D01*
Y00116961D01*
X00454000D01*
Y00066000D01*
D02*
G37*
%LPC*%
G36*
X00353500Y00801500D02*
X00334500D01*
Y00793000D01*
X00353500D01*
Y00801500D01*
D02*
G37*
G36*
X00605500Y00855000D02*
X00586500D01*
Y00846500D01*
X00605500D01*
Y00855000D01*
D02*
G37*
%LPD*%
D12*
X00260700Y00124000D02*
X00301000D01*
X00241400Y00104700D02*
X00260700Y00124000D01*
X00301000D02*
X00314000Y00137000D01*
X00205000Y00260000D02*
Y00279000D01*
X00215000Y00271000D02*
Y00285000D01*
X00210000Y00290000D02*
X00215000Y00285000D01*
X00530500Y00248000D02*
X00547000D01*
X00314000Y00137000D02*
Y00234000D01*
X00328000Y00248000D01*
X00561500Y00207000D02*
X00562784Y00208284D01*
Y00248000D02*
X00573500D01*
X00562784Y00208284D02*
Y00248000D01*
X00733000Y00263000D02*
Y00271000D01*
X00728000Y00279000D02*
Y00288000D01*
X00328000Y00248000D02*
X00330500D01*
X00241400Y00079300D02*
Y00104700D01*
X00492500Y00609750D02*
X00493750Y00611000D01*
X00492500Y00594500D02*
Y00609750D01*
X00502000Y00585000D02*
Y00594500D01*
Y00585000D02*
X00506000Y00581000D01*
X00523000D01*
X00525000Y00579000D01*
Y00568000D02*
Y00579000D01*
X00524500Y00567500D02*
X00525000Y00568000D01*
X00415000Y00437000D02*
X00415500Y00437500D01*
X00415000Y00426000D02*
Y00437000D01*
Y00426000D02*
X00417000Y00424000D01*
X00434000D01*
X00438000Y00420000D01*
Y00410500D02*
Y00420000D01*
X00447500Y00395250D02*
Y00410500D01*
X00446250Y00394000D02*
X00447500Y00395250D01*
D16*
X00597000Y00818250D02*
D03*
Y00801750D02*
D03*
X00611000D02*
D03*
Y00818250D02*
D03*
X00537000Y00801750D02*
D03*
Y00818250D02*
D03*
X00329000Y00847250D02*
D03*
Y00830750D02*
D03*
X00343000Y00830750D02*
D03*
Y00847250D02*
D03*
X00403000Y00846250D02*
D03*
Y00829750D02*
D03*
X00547000Y00485750D02*
D03*
Y00502250D02*
D03*
X00533000Y00534250D02*
D03*
Y00517750D02*
D03*
X00547000Y00534250D02*
D03*
Y00517750D02*
D03*
X00393000Y00519250D02*
D03*
Y00502750D02*
D03*
Y00470750D02*
D03*
Y00487250D02*
D03*
X00407000Y00470750D02*
D03*
Y00487250D02*
D03*
X00340000Y00153750D02*
D03*
Y00170250D02*
D03*
X00540000Y00153750D02*
D03*
Y00170250D02*
D03*
D17*
X00573750Y00482000D02*
D03*
X00590250Y00482000D02*
D03*
X00582250Y00468000D02*
D03*
X00565750Y00468000D02*
D03*
X00510250Y00551000D02*
D03*
X00493750D02*
D03*
X00510250Y00611000D02*
D03*
X00493750D02*
D03*
X00357750Y00537000D02*
D03*
X00374250D02*
D03*
X00366250Y00523000D02*
D03*
X00349750D02*
D03*
X00429750Y00454000D02*
D03*
X00446250D02*
D03*
X00429750Y00394000D02*
D03*
X00446250D02*
D03*
X00346250Y00192000D02*
D03*
X00329750D02*
D03*
X00378250D02*
D03*
X00361750D02*
D03*
X00378250Y00178000D02*
D03*
X00361750D02*
D03*
X00546250Y00192000D02*
D03*
X00529750D02*
D03*
X00578250D02*
D03*
X00561750D02*
D03*
X00578250Y00178000D02*
D03*
X00561750D02*
D03*
D22*
X00894000Y00094500D02*
D03*
Y00019500D02*
D03*
X00844000Y00094500D02*
D03*
Y00019500D02*
D03*
X00894000Y00798500D02*
D03*
Y00723500D02*
D03*
X00844000Y00798500D02*
D03*
Y00723500D02*
D03*
X00046000D02*
D03*
Y00798500D02*
D03*
X00096000Y00723500D02*
D03*
Y00798500D02*
D03*
X00046000Y00094500D02*
D03*
X00096000Y00019500D02*
D03*
Y00094500D02*
D03*
X00046000Y00019500D02*
D03*
D23*
X00266800Y00104700D02*
D03*
Y00079300D02*
D03*
X00292200Y00104700D02*
D03*
Y00079300D02*
D03*
X00317600Y00104700D02*
D03*
Y00079300D02*
D03*
X00343000Y00104700D02*
D03*
Y00079300D02*
D03*
X00368400Y00104700D02*
D03*
Y00079300D02*
D03*
X00393800Y00104700D02*
D03*
Y00079300D02*
D03*
X00419200Y00104700D02*
D03*
Y00079300D02*
D03*
X00444600Y00104700D02*
D03*
Y00079300D02*
D03*
X00470000Y00104700D02*
D03*
Y00079300D02*
D03*
X00495400Y00104700D02*
D03*
Y00079300D02*
D03*
X00520800Y00104700D02*
D03*
Y00079300D02*
D03*
X00546200Y00104700D02*
D03*
Y00079300D02*
D03*
X00571600Y00104700D02*
D03*
Y00079300D02*
D03*
X00597000Y00104700D02*
D03*
Y00079300D02*
D03*
X00622400Y00104700D02*
D03*
Y00079300D02*
D03*
X00647800Y00104700D02*
D03*
Y00079300D02*
D03*
X00673200Y00104700D02*
D03*
Y00079300D02*
D03*
X00698600Y00104700D02*
D03*
Y00079300D02*
D03*
X00724000Y00104700D02*
D03*
Y00079300D02*
D03*
X00749400Y00104700D02*
D03*
Y00079300D02*
D03*
X00774800Y00104700D02*
D03*
Y00079300D02*
D03*
X00216000Y00104700D02*
D03*
X00190600D02*
D03*
X00165200D02*
D03*
X00216000Y00079300D02*
D03*
X00190600D02*
D03*
X00165200D02*
D03*
X00241400Y00104700D02*
D03*
Y00079300D02*
D03*
D24*
X00665000Y00486000D02*
D03*
X00275000Y00516000D02*
D03*
X00665000Y00516000D02*
D03*
X00275000Y00486000D02*
D03*
D25*
X00560000Y00547000D02*
X00568500Y00538500D01*
Y00524000D02*
Y00538500D01*
X00573500Y00537500D02*
X00576000Y00540000D01*
X00573500Y00524000D02*
Y00537500D01*
X00361889Y00466889D02*
X00362000Y00467000D01*
X00366500Y00471500D01*
Y00480750D01*
X00350280Y00511280D02*
X00357914D01*
X00292000Y00499000D02*
X00338000D01*
X00350280Y00511280D01*
X00582250Y00493793D02*
X00589793D01*
X00599000Y00503000D01*
X00648000D01*
X00665000Y00486000D01*
X00582250Y00468000D02*
Y00493793D01*
X00578500D02*
X00582250D01*
X00578500D02*
Y00495750D01*
X00367000Y00493000D02*
X00369000Y00495000D01*
X00275000Y00516000D02*
X00292000Y00499000D01*
X00357914Y00511280D02*
Y00536836D01*
X00361500Y00509250D02*
Y00511280D01*
X00357914D02*
X00361500D01*
X00282000Y00493000D02*
X00367000D01*
X00658000Y00509000D02*
X00665000Y00516000D01*
X00571000Y00509000D02*
X00658000D01*
X00275000Y00486000D02*
X00282000Y00493000D01*
X00573500Y00482250D02*
Y00495750D01*
Y00482250D02*
X00573750Y00482000D01*
X00371500Y00464500D02*
X00375000Y00461000D01*
X00371500Y00464500D02*
Y00480750D01*
X00366500Y00509250D02*
Y00522750D01*
X00366250Y00523000D02*
X00366500Y00522750D01*
X00451000Y00291000D02*
X00489000D01*
D26*
X00343000Y00830750D02*
Y00831483D01*
X00349508Y00837991D02*
X00358491D01*
X00343000Y00831483D02*
X00349508Y00837991D01*
X00358491D02*
X00359500Y00839000D01*
X00581504Y00810004D02*
X00589840D01*
X00580500Y00809000D02*
X00581504Y00810004D01*
X00589840D02*
X00597000Y00817164D01*
Y00817250D02*
X00597000Y00817250D01*
X00584250Y00831250D02*
X00596000D01*
X00583000Y00830000D02*
X00584250Y00831250D01*
X00554000Y00792000D02*
Y00799000D01*
X00553500Y00799500D02*
X00554000Y00799000D01*
X00210000Y00802000D02*
X00219250D01*
X00226500Y00809250D01*
X00544250Y00809000D02*
X00553500D01*
X00537000Y00801750D02*
X00544250Y00809000D01*
X00554500Y00818500D02*
Y00827500D01*
X00538000Y00831250D02*
X00550750D01*
X00554500Y00827500D01*
X00597000Y00817250D02*
X00611000D01*
X00386000Y00849000D02*
X00386500Y00848500D01*
X00386000Y00849000D02*
Y00856000D01*
X00355750Y00816750D02*
X00357000Y00818000D01*
X00344000Y00816750D02*
X00355750D01*
X00395750Y00839000D02*
X00403000Y00846250D01*
X00386500Y00839000D02*
X00395750D01*
X00343000Y00830750D02*
X00343000Y00830750D01*
X00329000Y00830750D02*
X00343000D01*
X00385500Y00820500D02*
X00389250Y00816750D01*
X00402000D01*
X00385500Y00820500D02*
Y00829500D01*
D27*
X00560000Y00547000D02*
D03*
X00576000Y00540000D02*
D03*
X00375000Y00461000D02*
D03*
X00362000Y00467000D02*
D03*
X00547000Y00248000D02*
D03*
X00577000Y00217000D02*
D03*
X00543000Y00215000D02*
D03*
X00514000Y00209000D02*
D03*
X00684000Y00776000D02*
D03*
X00644000D02*
D03*
X00915000Y00780000D02*
D03*
X00900000Y00750000D02*
D03*
Y00690000D02*
D03*
X00915000Y00660000D02*
D03*
X00900000Y00630000D02*
D03*
X00915000Y00600000D02*
D03*
X00900000Y00570000D02*
D03*
X00915000Y00540000D02*
D03*
X00900000Y00510000D02*
D03*
X00915000Y00480000D02*
D03*
X00900000Y00450000D02*
D03*
X00915000Y00420000D02*
D03*
X00900000Y00390000D02*
D03*
X00915000Y00360000D02*
D03*
X00900000Y00330000D02*
D03*
X00915000Y00300000D02*
D03*
X00900000Y00270000D02*
D03*
X00915000Y00240000D02*
D03*
X00900000Y00210000D02*
D03*
X00915000Y00180000D02*
D03*
X00900000Y00150000D02*
D03*
X00915000Y00120000D02*
D03*
Y00060000D02*
D03*
X00870000Y00870000D02*
D03*
Y00810000D02*
D03*
X00885000Y00780000D02*
D03*
X00870000Y00750000D02*
D03*
Y00690000D02*
D03*
X00885000Y00660000D02*
D03*
X00870000Y00630000D02*
D03*
X00885000Y00600000D02*
D03*
X00870000Y00570000D02*
D03*
X00885000Y00540000D02*
D03*
X00870000Y00510000D02*
D03*
X00885000Y00480000D02*
D03*
X00870000Y00450000D02*
D03*
X00885000Y00420000D02*
D03*
X00870000Y00390000D02*
D03*
X00885000Y00360000D02*
D03*
X00870000Y00330000D02*
D03*
X00885000Y00300000D02*
D03*
X00870000Y00270000D02*
D03*
X00885000Y00240000D02*
D03*
X00870000Y00210000D02*
D03*
X00885000Y00180000D02*
D03*
X00870000Y00150000D02*
D03*
X00885000Y00120000D02*
D03*
X00870000Y00090000D02*
D03*
X00885000Y00060000D02*
D03*
X00870000Y00030000D02*
D03*
X00840000Y00870000D02*
D03*
X00855000Y00840000D02*
D03*
Y00780000D02*
D03*
X00840000Y00750000D02*
D03*
X00855000Y00660000D02*
D03*
X00840000Y00630000D02*
D03*
X00855000Y00600000D02*
D03*
X00840000Y00570000D02*
D03*
X00855000Y00540000D02*
D03*
X00840000Y00510000D02*
D03*
X00855000Y00480000D02*
D03*
X00840000Y00450000D02*
D03*
X00855000Y00420000D02*
D03*
X00840000Y00390000D02*
D03*
X00855000Y00360000D02*
D03*
Y00300000D02*
D03*
X00840000Y00270000D02*
D03*
X00855000Y00240000D02*
D03*
X00840000Y00210000D02*
D03*
X00855000Y00180000D02*
D03*
X00840000Y00150000D02*
D03*
X00855000Y00120000D02*
D03*
Y00060000D02*
D03*
X00810000Y00870000D02*
D03*
X00825000Y00840000D02*
D03*
X00810000Y00810000D02*
D03*
X00825000Y00780000D02*
D03*
X00810000Y00750000D02*
D03*
Y00690000D02*
D03*
Y00630000D02*
D03*
X00825000Y00600000D02*
D03*
X00810000Y00570000D02*
D03*
X00825000Y00540000D02*
D03*
X00810000Y00510000D02*
D03*
X00825000Y00480000D02*
D03*
X00810000Y00450000D02*
D03*
X00825000Y00420000D02*
D03*
X00810000Y00390000D02*
D03*
Y00330000D02*
D03*
Y00270000D02*
D03*
X00825000Y00240000D02*
D03*
X00810000Y00210000D02*
D03*
X00825000Y00180000D02*
D03*
X00810000Y00150000D02*
D03*
X00825000Y00120000D02*
D03*
X00810000Y00090000D02*
D03*
X00825000Y00060000D02*
D03*
X00810000Y00030000D02*
D03*
X00780000Y00870000D02*
D03*
X00795000Y00840000D02*
D03*
X00780000Y00810000D02*
D03*
X00795000Y00780000D02*
D03*
X00780000Y00750000D02*
D03*
Y00690000D02*
D03*
Y00630000D02*
D03*
Y00570000D02*
D03*
Y00510000D02*
D03*
Y00450000D02*
D03*
Y00390000D02*
D03*
Y00330000D02*
D03*
Y00270000D02*
D03*
X00795000Y00240000D02*
D03*
X00780000Y00210000D02*
D03*
X00795000Y00180000D02*
D03*
Y00120000D02*
D03*
Y00060000D02*
D03*
X00780000Y00030000D02*
D03*
X00750000Y00870000D02*
D03*
Y00750000D02*
D03*
X00765000Y00720000D02*
D03*
X00750000Y00690000D02*
D03*
X00765000Y00660000D02*
D03*
X00750000Y00630000D02*
D03*
Y00030000D02*
D03*
X00720000Y00870000D02*
D03*
Y00750000D02*
D03*
X00735000Y00720000D02*
D03*
X00720000Y00690000D02*
D03*
X00735000Y00660000D02*
D03*
X00720000Y00630000D02*
D03*
X00735000Y00060000D02*
D03*
X00720000Y00030000D02*
D03*
X00690000Y00750000D02*
D03*
X00705000Y00720000D02*
D03*
X00690000Y00690000D02*
D03*
X00705000Y00660000D02*
D03*
X00690000Y00630000D02*
D03*
Y00090000D02*
D03*
X00705000Y00060000D02*
D03*
X00690000Y00030000D02*
D03*
X00660000Y00750000D02*
D03*
X00675000Y00720000D02*
D03*
X00660000Y00690000D02*
D03*
X00675000Y00660000D02*
D03*
X00660000Y00630000D02*
D03*
Y00090000D02*
D03*
X00675000Y00060000D02*
D03*
X00660000Y00030000D02*
D03*
X00630000Y00810000D02*
D03*
Y00750000D02*
D03*
X00645000Y00720000D02*
D03*
Y00480000D02*
D03*
X00630000Y00390000D02*
D03*
Y00210000D02*
D03*
Y00150000D02*
D03*
X00645000Y00060000D02*
D03*
X00630000Y00030000D02*
D03*
X00600000Y00750000D02*
D03*
X00615000Y00720000D02*
D03*
X00600000Y00690000D02*
D03*
Y00630000D02*
D03*
X00615000Y00480000D02*
D03*
Y00120000D02*
D03*
Y00060000D02*
D03*
X00600000Y00030000D02*
D03*
X00585000Y00780000D02*
D03*
X00570000Y00750000D02*
D03*
X00585000Y00720000D02*
D03*
X00570000Y00690000D02*
D03*
X00585000Y00660000D02*
D03*
X00570000Y00630000D02*
D03*
Y00270000D02*
D03*
Y00030000D02*
D03*
X00540000Y00870000D02*
D03*
X00555000Y00780000D02*
D03*
X00540000Y00750000D02*
D03*
X00555000Y00720000D02*
D03*
X00540000Y00690000D02*
D03*
X00555000Y00660000D02*
D03*
X00540000Y00630000D02*
D03*
X00555000Y00360000D02*
D03*
Y00300000D02*
D03*
X00540000Y00270000D02*
D03*
Y00030000D02*
D03*
X00510000Y00870000D02*
D03*
Y00810000D02*
D03*
X00525000Y00780000D02*
D03*
X00510000Y00750000D02*
D03*
X00525000Y00720000D02*
D03*
X00510000Y00690000D02*
D03*
X00525000Y00660000D02*
D03*
Y00360000D02*
D03*
X00510000Y00090000D02*
D03*
X00525000Y00060000D02*
D03*
X00510000Y00030000D02*
D03*
X00480000Y00870000D02*
D03*
X00495000Y00840000D02*
D03*
X00480000Y00810000D02*
D03*
X00495000Y00780000D02*
D03*
X00480000Y00750000D02*
D03*
X00495000Y00720000D02*
D03*
X00480000Y00690000D02*
D03*
X00495000Y00660000D02*
D03*
X00480000Y00630000D02*
D03*
Y00450000D02*
D03*
Y00090000D02*
D03*
X00495000Y00060000D02*
D03*
X00480000Y00030000D02*
D03*
X00450000Y00870000D02*
D03*
X00465000Y00840000D02*
D03*
X00450000Y00810000D02*
D03*
X00465000Y00780000D02*
D03*
X00450000Y00750000D02*
D03*
X00465000Y00720000D02*
D03*
X00450000Y00690000D02*
D03*
X00465000Y00660000D02*
D03*
X00450000Y00630000D02*
D03*
X00465000Y00600000D02*
D03*
X00450000Y00570000D02*
D03*
X00465000Y00420000D02*
D03*
Y00180000D02*
D03*
Y00060000D02*
D03*
X00450000Y00030000D02*
D03*
X00420000Y00870000D02*
D03*
X00435000Y00840000D02*
D03*
Y00780000D02*
D03*
X00420000Y00750000D02*
D03*
X00435000Y00720000D02*
D03*
X00420000Y00690000D02*
D03*
X00435000Y00660000D02*
D03*
X00420000Y00630000D02*
D03*
X00435000Y00600000D02*
D03*
X00420000Y00570000D02*
D03*
X00435000Y00060000D02*
D03*
X00420000Y00030000D02*
D03*
X00390000Y00870000D02*
D03*
X00405000Y00780000D02*
D03*
X00390000Y00750000D02*
D03*
X00405000Y00720000D02*
D03*
X00390000Y00690000D02*
D03*
X00405000Y00660000D02*
D03*
X00390000Y00630000D02*
D03*
X00405000Y00600000D02*
D03*
X00390000Y00570000D02*
D03*
Y00390000D02*
D03*
X00401000Y00360000D02*
D03*
X00402000Y00300000D02*
D03*
X00390000Y00270000D02*
D03*
X00402000Y00240000D02*
D03*
X00405000Y00060000D02*
D03*
X00390000Y00030000D02*
D03*
X00360000Y00870000D02*
D03*
Y00750000D02*
D03*
X00375000Y00720000D02*
D03*
X00360000Y00690000D02*
D03*
X00375000Y00660000D02*
D03*
X00360000Y00630000D02*
D03*
X00375000Y00600000D02*
D03*
X00360000Y00570000D02*
D03*
Y00390000D02*
D03*
X00375000Y00360000D02*
D03*
X00360000Y00330000D02*
D03*
X00375000Y00300000D02*
D03*
X00360000Y00270000D02*
D03*
Y00090000D02*
D03*
X00375000Y00060000D02*
D03*
X00360000Y00030000D02*
D03*
X00330000Y00870000D02*
D03*
Y00750000D02*
D03*
X00345000Y00720000D02*
D03*
X00330000Y00690000D02*
D03*
X00345000Y00660000D02*
D03*
X00330000Y00630000D02*
D03*
X00345000Y00600000D02*
D03*
X00330000Y00570000D02*
D03*
X00345000Y00540000D02*
D03*
X00330000Y00510000D02*
D03*
Y00390000D02*
D03*
X00345000Y00360000D02*
D03*
X00330000Y00330000D02*
D03*
Y00090000D02*
D03*
X00345000Y00060000D02*
D03*
X00330000Y00030000D02*
D03*
X00300000Y00870000D02*
D03*
Y00750000D02*
D03*
X00315000Y00720000D02*
D03*
X00300000Y00630000D02*
D03*
X00315000Y00600000D02*
D03*
X00300000Y00570000D02*
D03*
X00315000Y00540000D02*
D03*
X00300000Y00510000D02*
D03*
X00315000Y00480000D02*
D03*
X00300000Y00390000D02*
D03*
Y00210000D02*
D03*
X00315000Y00060000D02*
D03*
X00300000Y00030000D02*
D03*
X00270000Y00870000D02*
D03*
Y00750000D02*
D03*
X00285000Y00720000D02*
D03*
X00270000Y00690000D02*
D03*
X00285000Y00660000D02*
D03*
X00270000Y00630000D02*
D03*
X00285000Y00600000D02*
D03*
X00270000Y00570000D02*
D03*
X00285000Y00540000D02*
D03*
X00270000Y00390000D02*
D03*
X00285000Y00360000D02*
D03*
X00270000Y00330000D02*
D03*
X00285000Y00300000D02*
D03*
Y00240000D02*
D03*
X00270000Y00210000D02*
D03*
X00285000Y00180000D02*
D03*
Y00060000D02*
D03*
X00270000Y00030000D02*
D03*
X00240000Y00870000D02*
D03*
Y00750000D02*
D03*
X00255000Y00720000D02*
D03*
X00240000Y00690000D02*
D03*
X00255000Y00660000D02*
D03*
X00240000Y00630000D02*
D03*
X00255000Y00600000D02*
D03*
X00240000Y00570000D02*
D03*
X00255000Y00540000D02*
D03*
X00240000Y00510000D02*
D03*
X00255000Y00480000D02*
D03*
Y00360000D02*
D03*
Y00300000D02*
D03*
Y00240000D02*
D03*
Y00060000D02*
D03*
X00240000Y00030000D02*
D03*
X00210000Y00870000D02*
D03*
Y00750000D02*
D03*
X00225000Y00720000D02*
D03*
X00210000Y00690000D02*
D03*
X00225000Y00660000D02*
D03*
X00210000Y00630000D02*
D03*
X00225000Y00600000D02*
D03*
X00210000Y00570000D02*
D03*
X00225000Y00540000D02*
D03*
X00210000Y00510000D02*
D03*
X00225000Y00480000D02*
D03*
Y00060000D02*
D03*
X00210000Y00030000D02*
D03*
X00180000Y00870000D02*
D03*
Y00750000D02*
D03*
X00195000Y00720000D02*
D03*
X00180000Y00690000D02*
D03*
X00195000Y00660000D02*
D03*
X00180000Y00630000D02*
D03*
X00195000Y00600000D02*
D03*
X00180000Y00570000D02*
D03*
X00195000Y00540000D02*
D03*
X00180000Y00510000D02*
D03*
X00195000Y00480000D02*
D03*
Y00060000D02*
D03*
X00180000Y00030000D02*
D03*
X00165000Y00720000D02*
D03*
Y00660000D02*
D03*
Y00600000D02*
D03*
Y00540000D02*
D03*
Y00480000D02*
D03*
Y00420000D02*
D03*
Y00360000D02*
D03*
X00150000Y00270000D02*
D03*
X00165000Y00240000D02*
D03*
X00150000Y00210000D02*
D03*
X00165000Y00060000D02*
D03*
X00150000Y00030000D02*
D03*
X00135000Y00840000D02*
D03*
X00120000Y00810000D02*
D03*
X00135000Y00780000D02*
D03*
X00120000Y00750000D02*
D03*
X00135000Y00720000D02*
D03*
Y00660000D02*
D03*
X00120000Y00630000D02*
D03*
X00135000Y00600000D02*
D03*
X00120000Y00570000D02*
D03*
X00135000Y00540000D02*
D03*
X00120000Y00510000D02*
D03*
X00135000Y00480000D02*
D03*
X00120000Y00450000D02*
D03*
X00135000Y00420000D02*
D03*
X00120000Y00390000D02*
D03*
X00135000Y00360000D02*
D03*
Y00300000D02*
D03*
X00120000Y00270000D02*
D03*
X00135000Y00240000D02*
D03*
X00120000Y00210000D02*
D03*
X00135000Y00180000D02*
D03*
X00120000Y00150000D02*
D03*
X00135000Y00120000D02*
D03*
X00120000Y00090000D02*
D03*
X00135000Y00060000D02*
D03*
X00120000Y00030000D02*
D03*
X00105000Y00840000D02*
D03*
Y00780000D02*
D03*
X00090000Y00750000D02*
D03*
Y00690000D02*
D03*
Y00630000D02*
D03*
X00105000Y00600000D02*
D03*
X00090000Y00570000D02*
D03*
X00105000Y00540000D02*
D03*
X00090000Y00510000D02*
D03*
X00105000Y00480000D02*
D03*
X00090000Y00450000D02*
D03*
X00105000Y00420000D02*
D03*
X00090000Y00390000D02*
D03*
Y00330000D02*
D03*
Y00270000D02*
D03*
X00105000Y00240000D02*
D03*
X00090000Y00210000D02*
D03*
X00105000Y00180000D02*
D03*
X00090000Y00150000D02*
D03*
X00105000Y00120000D02*
D03*
Y00060000D02*
D03*
X00075000Y00840000D02*
D03*
Y00780000D02*
D03*
X00060000Y00750000D02*
D03*
Y00690000D02*
D03*
X00075000Y00660000D02*
D03*
X00060000Y00630000D02*
D03*
X00075000Y00600000D02*
D03*
X00060000Y00570000D02*
D03*
X00075000Y00540000D02*
D03*
X00060000Y00510000D02*
D03*
X00075000Y00480000D02*
D03*
X00060000Y00450000D02*
D03*
X00075000Y00420000D02*
D03*
X00060000Y00390000D02*
D03*
X00075000Y00360000D02*
D03*
X00060000Y00330000D02*
D03*
X00075000Y00300000D02*
D03*
X00060000Y00270000D02*
D03*
X00075000Y00240000D02*
D03*
X00060000Y00210000D02*
D03*
X00075000Y00180000D02*
D03*
X00060000Y00150000D02*
D03*
X00075000Y00120000D02*
D03*
Y00060000D02*
D03*
X00030000Y00750000D02*
D03*
Y00690000D02*
D03*
X00045000Y00660000D02*
D03*
X00030000Y00630000D02*
D03*
X00045000Y00600000D02*
D03*
X00030000Y00570000D02*
D03*
X00045000Y00540000D02*
D03*
X00030000Y00510000D02*
D03*
X00045000Y00480000D02*
D03*
X00030000Y00450000D02*
D03*
X00045000Y00420000D02*
D03*
X00030000Y00390000D02*
D03*
X00045000Y00360000D02*
D03*
X00030000Y00330000D02*
D03*
X00045000Y00300000D02*
D03*
X00030000Y00270000D02*
D03*
X00045000Y00240000D02*
D03*
X00030000Y00210000D02*
D03*
X00045000Y00180000D02*
D03*
X00030000Y00150000D02*
D03*
X00045000Y00120000D02*
D03*
Y00060000D02*
D03*
X00493000Y00345000D02*
D03*
X00550000Y00858000D02*
D03*
X00526000D02*
D03*
X00414000Y00790000D02*
D03*
X00390000D02*
D03*
X00338000Y00480000D02*
D03*
X00352000Y00503000D02*
D03*
X00600000Y00520000D02*
D03*
X00588000Y00502000D02*
D03*
X00547000Y00510000D02*
D03*
X00533000D02*
D03*
X00407000Y00504000D02*
D03*
X00424000Y00495000D02*
D03*
X00407000D02*
D03*
X00215000Y00271000D02*
D03*
X00205000Y00279000D02*
D03*
X00733000Y00271000D02*
D03*
X00728000Y00279000D02*
D03*
X00639000Y00371000D02*
D03*
X00622000D02*
D03*
X00639000Y00405000D02*
D03*
X00622000D02*
D03*
X00487000Y00263000D02*
D03*
X00453000D02*
D03*
X00470000Y00253000D02*
D03*
X00600000Y00482000D02*
D03*
X00456000Y00438000D02*
D03*
Y00454000D02*
D03*
X00393000Y00495000D02*
D03*
X00533000Y00499000D02*
D03*
X00484000Y00568000D02*
D03*
Y00551000D02*
D03*
X00343000Y00215000D02*
D03*
X00535000Y00287000D02*
D03*
X00402000Y00344000D02*
D03*
X00507000Y00622000D02*
D03*
X00523000D02*
D03*
X00507000Y00638000D02*
D03*
X00523000D02*
D03*
X00515000Y00630000D02*
D03*
X00585000Y00397000D02*
D03*
X00593000Y00389000D02*
D03*
X00577000D02*
D03*
X00593000Y00405000D02*
D03*
X00577000D02*
D03*
X00427000Y00164000D02*
D03*
Y00174000D02*
D03*
X00526000Y00180000D02*
D03*
X00412000Y00186000D02*
D03*
X00404000Y00192000D02*
D03*
X00412000Y00198000D02*
D03*
X00404000Y00204000D02*
D03*
X00498500Y00238000D02*
D03*
X00442000D02*
D03*
X00439000Y00291000D02*
D03*
X00452000Y00329000D02*
D03*
X00463000Y00303000D02*
D03*
X00477000D02*
D03*
Y00317000D02*
D03*
X00470000Y00310000D02*
D03*
X00463000Y00317000D02*
D03*
X00548000Y00473000D02*
D03*
X00392000Y00532000D02*
D03*
X00489000Y00291000D02*
D03*
X00451000D02*
D03*
X00526000Y00818000D02*
D03*
X00550000Y00841000D02*
D03*
X00526000D02*
D03*
X00414000Y00807000D02*
D03*
X00554000Y00792000D02*
D03*
X00386000Y00857000D02*
D03*
X00583000Y00830000D02*
D03*
X00390000Y00807000D02*
D03*
X00414000Y00830000D02*
D03*
X00357000Y00818000D02*
D03*
D28*
X00516000Y00517000D02*
D03*
Y00537000D02*
D03*
X00424000Y00488000D02*
D03*
Y00468000D02*
D03*
X00516000Y00503000D02*
D03*
Y00483000D02*
D03*
X00424000Y00502000D02*
D03*
Y00522000D02*
D03*
D29*
X00538000Y00831250D02*
D03*
X00538000Y00837750D02*
D03*
Y00844250D02*
D03*
Y00850750D02*
D03*
X00596000Y00831250D02*
D03*
Y00837750D02*
D03*
X00596000Y00844250D02*
D03*
X00596000Y00850750D02*
D03*
X00402000Y00816750D02*
D03*
Y00810250D02*
D03*
Y00803750D02*
D03*
Y00797250D02*
D03*
X00344000Y00816750D02*
D03*
Y00810250D02*
D03*
Y00803750D02*
D03*
X00344000Y00797250D02*
D03*
D30*
X00580500Y00799500D02*
D03*
Y00809000D02*
D03*
Y00818500D02*
D03*
X00553500D02*
D03*
Y00809000D02*
D03*
Y00799500D02*
D03*
X00359500Y00848500D02*
D03*
Y00839000D02*
D03*
Y00829500D02*
D03*
X00386500D02*
D03*
Y00839000D02*
D03*
Y00848500D02*
D03*
X00383500Y00145500D02*
D03*
X00383500Y00155000D02*
D03*
X00383500Y00164500D02*
D03*
X00356500D02*
D03*
X00356500Y00155000D02*
D03*
X00356500Y00145500D02*
D03*
X00583500D02*
D03*
X00583500Y00155000D02*
D03*
X00583500Y00164500D02*
D03*
X00556500D02*
D03*
X00556500Y00155000D02*
D03*
X00556500Y00145500D02*
D03*
D31*
X00571000Y00510000D02*
D03*
X00369000Y00495000D02*
D03*
D32*
X00578500Y00524250D02*
D03*
X00573500D02*
D03*
X00568500D02*
D03*
X00563500D02*
D03*
Y00495750D02*
D03*
X00568500D02*
D03*
X00578500D02*
D03*
X00573500D02*
D03*
X00361500Y00480750D02*
D03*
X00366500D02*
D03*
X00371500D02*
D03*
X00376500D02*
D03*
Y00509250D02*
D03*
X00371500D02*
D03*
X00361500D02*
D03*
X00366500D02*
D03*
D33*
X00511500Y00594500D02*
D03*
X00502000Y00594500D02*
D03*
X00492500Y00594500D02*
D03*
Y00567500D02*
D03*
X00502000Y00567500D02*
D03*
X00511500Y00567500D02*
D03*
X00543500Y00594500D02*
D03*
X00534000Y00594500D02*
D03*
X00524500Y00594500D02*
D03*
Y00567500D02*
D03*
X00534000Y00567500D02*
D03*
X00543500Y00567500D02*
D03*
X00396500Y00410500D02*
D03*
X00406000D02*
D03*
X00415500D02*
D03*
Y00437500D02*
D03*
X00406000D02*
D03*
X00396500Y00437500D02*
D03*
X00428500Y00410500D02*
D03*
X00438000D02*
D03*
X00447500D02*
D03*
Y00437500D02*
D03*
X00438000Y00437500D02*
D03*
X00428500Y00437500D02*
D03*
D34*
X00210000Y00260000D02*
D03*
Y00290000D02*
D03*
X00730000Y00260000D02*
D03*
Y00290000D02*
D03*
D35*
X00330500Y00248000D02*
D03*
X00373500D02*
D03*
X00573500D02*
D03*
X00530500D02*
D03*
D36*
X00561500Y00207000D02*
D03*
X00552000Y00227000D02*
D03*
X00542500Y00207000D02*
D03*
X00342500D02*
D03*
X00352000Y00227000D02*
D03*
X00361500Y00207000D02*
D03*
D37*
X00210000Y00200000D02*
D03*
Y00802000D02*
D03*
X00730000Y00200000D02*
D03*
Y00802000D02*
D03*
D38*
X00361805Y00192055D02*
Y00206695D01*
Y00236305D02*
X00373500Y00248000D01*
X00361805Y00207304D02*
Y00236305D01*
X00529750Y00218750D02*
X00538000Y00227000D01*
X00552000D01*
X00338000D02*
X00352000D01*
X00329750Y00218750D02*
X00338000Y00227000D01*
X00529750Y00192000D02*
Y00218750D01*
X00561750Y00192000D02*
Y00204750D01*
X00329750Y00192000D02*
Y00218750D01*
D39*
X00176000Y00279000D02*
X00205000D01*
X00611000Y00779000D02*
X00629000Y00761000D01*
X00785000D02*
X00797000Y00749000D01*
X00629000Y00761000D02*
X00785000D01*
X00797000Y00301000D02*
Y00749000D01*
X00611000Y00779000D02*
Y00801750D01*
X00153000Y00302000D02*
Y00837000D01*
Y00302000D02*
X00176000Y00279000D01*
X00163250Y00847250D02*
X00329000D01*
X00153000Y00837000D02*
X00163250Y00847250D01*
X00733000Y00271000D02*
X00767000D01*
X00797000Y00301000D01*
X00730000Y00260000D02*
X00733000Y00263000D01*
X00728000Y00288000D02*
X00730000Y00290000D01*
M02*
