G04*
G04 #@! TF.GenerationSoftware,Altium Limited,Altium Designer,22.1.2 (22)*
G04*
G04 Layer_Color=8388736*
%FSAX44Y44*%
%MOMM*%
G71*
G04*
G04 #@! TF.SameCoordinates,F43461BC-9A11-44EE-9FD3-1ED57B95CCFA*
G04*
G04*
G04 #@! TF.FilePolarity,Positive*
G04*
G01*
G75*
%ADD42C,0.1000*%
D42*
X00840000Y00351000D02*
G03*
X00820000Y00351000I-00010000J00000000D01*
G01*
X00820000Y00305000D02*
G03*
X00840000Y00305000I00010000J00000000D01*
G01*
X00640000Y00351000D02*
G03*
X00620000Y00351000I-00010000J00000000D01*
G01*
Y00305000D02*
G03*
X00640000Y00305000I00010000J00000000D01*
G01*
X00620000Y00646000D02*
G03*
X00640000Y00646000I00010000J00000000D01*
G01*
Y00692000D02*
G03*
X00620000Y00692000I-00010000J00000000D01*
G01*
X00320000Y00351000D02*
G03*
X00300000Y00351000I-00010000J00000000D01*
G01*
X00300000Y00305000D02*
G03*
X00320000Y00305000I00010000J00000000D01*
G01*
X00820000Y00646000D02*
G03*
X00840000Y00646000I00010000J00000000D01*
G01*
Y00692000D02*
G03*
X00820000Y00692000I-00010000J00000000D01*
G01*
X00175000Y00832500D02*
G03*
X00175000Y00827500I00000000J-00002500D01*
G01*
X00245000D02*
G03*
X00245000Y00832500I00000000J00002500D01*
G01*
X00175000Y00174500D02*
G03*
X00175000Y00169500I00000000J-00002500D01*
G01*
X00245000D02*
G03*
X00245000Y00174500I00000000J00002500D01*
G01*
X00765000Y00169500D02*
G03*
X00765000Y00174500I00000000J00002500D01*
G01*
X00695000D02*
G03*
X00695000Y00169500I00000000J-00002500D01*
G01*
X00100000Y00646000D02*
G03*
X00120000Y00646000I00010000J00000000D01*
G01*
Y00692000D02*
G03*
X00100000Y00692000I-00010000J00000000D01*
G01*
X00300000Y00646000D02*
G03*
X00320000Y00646000I00010000J00000000D01*
G01*
Y00692000D02*
G03*
X00300000Y00692000I-00010000J00000000D01*
G01*
X00120000Y00351000D02*
G03*
X00100000Y00351000I-00010000J00000000D01*
G01*
Y00305000D02*
G03*
X00120000Y00305000I00010000J00000000D01*
G01*
X00765000Y00827500D02*
G03*
X00765000Y00832500I00000000J00002500D01*
G01*
X00695000D02*
G03*
X00695000Y00827500I00000000J-00002500D01*
G01*
X00820000Y00305000D02*
X00820000Y00351000D01*
X00840000Y00305000D02*
Y00351000D01*
X00620000D02*
X00620000Y00305000D01*
X00640000Y00305000D02*
Y00351000D01*
Y00646000D02*
Y00692000D01*
X00620000Y00646000D02*
Y00692000D01*
X00300000Y00305000D02*
Y00351000D01*
X00320000Y00305000D02*
Y00351000D01*
X00840000Y00646000D02*
Y00692000D01*
X00820000Y00646000D02*
Y00692000D01*
X00175000Y00827500D02*
X00245000D01*
X00175000Y00832500D02*
X00245000D01*
X00175000Y00169500D02*
X00245000D01*
X00175000Y00174500D02*
X00245000Y00174500D01*
X00695000Y00174500D02*
X00765000D01*
X00695000Y00169500D02*
X00765000D01*
X00120000Y00646000D02*
Y00692000D01*
X00100000Y00646000D02*
Y00692000D01*
X00320000Y00646000D02*
Y00692000D01*
X00300000Y00646000D02*
Y00692000D01*
X00100000Y00305000D02*
X00100000Y00351000D01*
X00120000D02*
X00120000Y00305000D01*
X00695000Y00832500D02*
X00765000D01*
X00695000Y00827500D02*
X00765000D01*
X00940000Y00000000D02*
Y00820000D01*
X00060000Y00898000D02*
X00880000D01*
X00000000Y00000000D02*
Y00820000D01*
X00037000Y00820000D02*
X00060000Y00843000D01*
X00000000Y00820000D02*
X00037000Y00820000D01*
X00000000Y00000000D02*
X00940000D01*
X00903000Y00820000D02*
X00940000D01*
X00880000Y00843000D02*
X00903000Y00820000D01*
X00880000Y00843000D02*
Y00898000D01*
X00060000Y00843000D02*
Y00898000D01*
M02*
