M48
;Layer_Color=9474304
;FILE_FORMAT=4:4
METRIC
;TYPE=PLATED
T1F00S00C0.3000
T2F00S00C1.0000
T3F00S00C1.9000
%
T01
X00045000Y00060000
X00075000
X00105000
X00135000
X00165000
X00195000
X00225000
X00255000
X00285000
X00315000
X00345000
X00375000
X00390000Y00030000
X00360000
X00330000
X00300000
X00270000
X00240000
X00210000
X00180000
X00150000
X00120000
Y00090000
X00135000Y00120000
X00105000
X00075000
X00045000
X00060000Y00150000
X00090000
X00120000
X00135000Y00180000
X00105000
X00075000
X00045000
X00060000Y00210000
X00090000
X00120000
X00150000
X00165000Y00240000
X00135000
X00105000
X00075000
X00045000
X00060000Y00270000
X00090000
X00120000
X00150000
X00135000Y00300000
Y00360000
X00165000
X00120000Y00390000
X00090000
X00060000
X00030000
X00045000Y00360000
X00075000
X00090000Y00330000
X00060000
X00030000
X00045000Y00300000
X00075000
X00030000Y00270000
Y00210000
Y00150000
X00285000Y00180000
X00300000Y00210000
X00270000
X00285000Y00240000
X00255000
Y00300000
X00285000
X00270000Y00330000
X00285000Y00360000
X00255000
X00270000Y00390000
X00300000
X00330000
X00360000
X00390000
X00375000Y00360000
X00345000
X00360000Y00330000
X00330000
X00375000Y00300000
X00390000Y00270000
X00360000
X00343000Y00215000
X00330000Y00090000
X00360000
X00215000Y00271000
X00205000Y00279000
X00402000Y00300000
X00402000Y00344000
X00401000Y00360000
X00452000Y00329000
X00463000Y00317000
Y00303000
X00477000
Y00317000
X00470000Y00310000
X00489000Y00291000
X00487000Y00263000
X00470000Y00253000
X00453000Y00263000
X00451000Y00291000
X00439000
X00442000Y00238000
X00402000Y00240000
X00404000Y00204000
Y00192000
X00412000Y00186000
Y00198000
X00427000Y00174000
Y00164000
X00465000Y00180000
X00526000Y00180000
X00514000Y00209000
X00543000Y00215000
X00577000Y00217000
X00630000Y00210000
Y00150000
X00615000Y00120000
Y00060000
X00645000
X00675000
X00705000
X00735000
X00750000Y00030000
X00780000
X00720000
X00690000
X00660000
X00630000
X00600000
X00570000
X00540000
X00510000
X00480000
X00450000
X00420000
X00435000Y00060000
X00465000
X00495000
X00525000
X00510000Y00090000
X00480000
X00405000Y00060000
X00498500Y00238000
X00547000Y00248000
X00540000Y00270000
X00535000Y00287000
X00555000Y00300000
X00570000Y00270000
X00555000Y00360000
X00525000
X00493000Y00345000
X00577000Y00389000
X00593000
X00630000Y00390000
X00622000Y00371000
X00639000
X00780000Y00390000
Y00330000
Y00270000
X00733000Y00271000
X00728000Y00279000
X00780000Y00210000
X00690000Y00090000
X00660000
X00810000
X00825000Y00120000
X00855000
X00885000
X00915000
X00900000Y00150000
X00870000
X00840000
X00810000
X00825000Y00180000
X00855000
X00885000
X00915000
X00900000Y00210000
X00870000
X00840000
X00810000
X00825000Y00240000
X00855000
X00885000
X00915000
X00900000Y00270000
X00870000
X00840000
X00810000
X00795000Y00240000
Y00180000
Y00120000
Y00060000
X00825000
X00855000
X00885000
X00915000
X00870000Y00090000
Y00030000
X00810000
Y00330000
X00870000
X00900000
X00915000Y00360000
X00885000
X00855000
X00870000Y00390000
X00900000
X00840000
X00810000
X00855000Y00300000
X00885000
X00915000
Y00420000
X00885000
X00855000
X00825000
X00840000Y00450000
X00870000
X00900000
X00915000Y00480000
X00885000
X00855000
X00825000
X00840000Y00510000
X00870000
X00900000
X00915000Y00540000
X00885000
X00855000
X00825000
X00840000Y00570000
X00870000
X00900000
X00915000Y00600000
X00885000
X00855000
X00825000
X00840000Y00630000
X00870000
X00900000
X00915000Y00660000
X00885000
X00855000
X00870000Y00690000
X00900000
Y00750000
X00870000
X00840000
X00810000
X00825000Y00780000
X00855000
X00885000
X00915000
X00795000
X00810000Y00690000
Y00630000
Y00570000
Y00510000
Y00450000
X00780000
Y00510000
Y00570000
Y00630000
X00750000
X00720000
X00690000
X00660000
X00675000Y00660000
X00705000
X00735000
X00765000
X00780000Y00690000
X00750000
X00720000
X00690000
X00660000
X00675000Y00720000
X00705000
X00735000
X00765000
X00780000Y00750000
X00750000
X00720000
X00690000
X00660000
X00630000
X00600000
X00570000
X00540000
X00510000
X00480000
X00450000
X00420000
X00435000Y00780000
X00465000
X00495000
X00525000
X00555000
X00554000Y00792000
X00585000Y00780000
Y00720000
X00615000
X00645000
X00644000Y00776000
X00684000
X00600000Y00690000
X00570000
X00540000
X00510000
X00480000
X00450000
X00420000
X00435000Y00720000
X00465000
X00495000
X00525000
X00555000
Y00660000
X00585000
X00600000Y00630000
X00570000
X00540000
X00523000Y00622000
X00507000
Y00638000
X00523000
X00515000Y00630000
X00480000Y00630000
X00450000
X00420000
X00435000Y00660000
X00465000
X00495000
X00525000
X00465000Y00600000
X00435000
X00405000
X00420000Y00570000
X00450000
X00484000Y00568000
Y00551000
X00560000Y00547000
X00576000Y00540000
X00600000Y00520000
X00588000Y00502000
X00600000Y00482000
X00615000Y00480000
X00645000
X00639000Y00405000
X00622000
X00593000
X00585000Y00397000
X00577000Y00405000
X00548000Y00473000
X00547000Y00510000
X00533000
Y00499000
X00480000Y00450000
X00456000Y00454000
Y00438000
X00465000Y00420000
X00424000Y00495000
X00407000
Y00504000
X00405000Y00660000
Y00720000
Y00780000
X00414000Y00790000
X00390000
X00390000Y00750000
X00360000
X00330000
X00300000
X00270000
X00240000
X00210000
X00180000
X00195000Y00720000
X00225000
X00255000
X00285000
X00315000
X00345000
X00375000
X00390000Y00690000
X00360000
X00330000
X00345000Y00660000
X00375000
X00390000Y00630000
X00360000
X00330000
X00300000
X00270000
X00240000
X00210000
X00180000
X00195000Y00660000
X00225000
X00255000
X00285000
X00270000Y00690000
X00240000
X00210000
X00180000
X00165000Y00720000
X00135000
X00120000Y00750000
X00090000
X00060000
X00030000
Y00690000
X00060000
X00090000
X00075000Y00660000
X00045000
X00060000Y00630000
X00090000
X00120000
X00135000Y00660000
X00165000
Y00600000
X00195000
X00225000
X00255000
X00285000
X00315000
X00345000
X00375000
X00390000Y00570000
X00360000
X00330000
X00300000
X00270000
X00240000
X00210000
X00180000
X00195000Y00540000
X00225000
X00255000
X00285000
X00315000
X00345000
X00352000Y00503000
X00330000Y00510000
X00300000
X00315000Y00480000
X00338000Y00480000
X00362000Y00467000
X00375000Y00461000
X00393000Y00495000
X00392000Y00532000
X00240000Y00510000
X00210000
X00180000
X00195000Y00480000
X00225000
X00255000
X00165000
X00135000
X00105000
X00075000
X00045000
X00060000Y00510000
X00090000
X00120000
X00135000Y00540000
X00165000
X00105000
X00075000
X00045000
X00060000Y00570000
X00090000
X00120000
X00135000Y00600000
X00105000
X00075000
X00045000
X00030000Y00630000
Y00570000
Y00510000
Y00450000
X00060000
X00090000
X00120000
X00135000Y00420000
X00165000
X00105000
X00075000
X00045000
X00075000Y00780000
X00105000
X00135000
X00120000Y00810000
X00135000Y00840000
X00105000
X00075000
X00180000Y00870000
X00210000
X00240000
X00270000
X00300000
X00330000
X00360000
X00390000
X00386000Y00857000
X00390000Y00807000
X00357000Y00818000
X00414000Y00807000
Y00830000
X00435000Y00840000
X00465000
X00495000
X00526000Y00841000
X00526000Y00858000
X00550000
X00550000Y00841000
X00540000Y00870000
X00510000
X00480000
X00450000
X00420000
X00450000Y00810000
X00480000
X00510000
X00526000Y00818000
X00583000Y00830000
X00630000Y00810000
X00780000
Y00870000
X00750000
X00720000
X00810000
X00840000
X00870000
X00855000Y00840000
X00825000
X00795000
X00810000Y00810000
X00870000
T02
X00165200Y00079300
Y00104700
X00190600
X00216000
Y00079300
X00190600
X00241400
X00266800
Y00104700
X00292200
Y00079300
X00317600
Y00104700
X00343000
Y00079300
X00368400
Y00104700
X00393800
Y00079300
X00241400Y00104700
X00419200
Y00079300
X00444600
Y00104700
X00470000
Y00079300
X00495400
Y00104700
X00520800
Y00079300
X00546200
Y00104700
X00571600
Y00079300
X00597000
Y00104700
X00622400
Y00079300
X00647800
Y00104700
X00673200
Y00079300
X00698600
Y00104700
X00724000
Y00079300
X00749400
Y00104700
X00774800
Y00079300
X00665000Y00486000
Y00516000
X00275000Y00516000
Y00486000
T03
X00046000Y00019500
X00096000
Y00094500
X00046000
X00844000
X00894000
Y00019500
X00844000
Y00723500
X00894000
X00096000
X00046000
Y00798500
X00096000
X00844000
X00894000
M30
