G04*
G04 #@! TF.GenerationSoftware,Altium Limited,Altium Designer,22.1.2 (22)*
G04*
G04 Layer_Color=65535*
%FSAX44Y44*%
%MOMM*%
G71*
G04*
G04 #@! TF.SameCoordinates,FD085C4F-33D3-4CAD-8C95-339AC6E91DDF*
G04*
G04*
G04 #@! TF.FilePolarity,Positive*
G04*
G01*
G75*
%ADD10C,0.1530*%
%ADD11C,0.2000*%
%ADD12C,0.2540*%
D10*
X00312000Y00493000D02*
X00326000D01*
Y00525000D01*
X00312000D02*
X00326000D01*
X00312000Y00493000D02*
Y00525000D01*
X00312000Y00461000D02*
Y00493000D01*
X00326000D01*
Y00461000D02*
Y00493000D01*
X00312000Y00461000D02*
X00326000D01*
X00066800Y00689300D02*
X00076550Y00699050D01*
X00277000Y00699050D01*
X00066800Y00175000D02*
X00277000D01*
X00066800Y00689300D02*
X00066800Y00175000D01*
X00277000Y00699050D02*
X00277000Y00175000D01*
X00035000Y00424000D02*
X00067000D01*
Y00410000D02*
Y00424000D01*
X00035000Y00410000D02*
X00067000D01*
X00035000D02*
Y00424000D01*
Y00399000D02*
X00067000D01*
Y00385000D02*
Y00399000D01*
X00035000Y00385000D02*
X00067000D01*
X00035000D02*
Y00399000D01*
X00378000Y00530000D02*
X00392000D01*
X00378000D02*
X00378000Y00498000D01*
X00392000Y00498000D01*
Y00530000D01*
X00360000Y00498000D02*
X00392000D01*
X00360000D02*
X00360000Y00484000D01*
X00392000D02*
X00392000Y00498000D01*
X00360000Y00484000D02*
X00392000D01*
X00360000Y00530000D02*
X00374000Y00530000D01*
X00360000Y00498000D02*
Y00530000D01*
Y00498000D02*
X00374000Y00498000D01*
Y00530000D01*
X00328000Y00470000D02*
X00360000D01*
X00360000Y00516000D02*
X00360000Y00470000D01*
X00328000D02*
X00328000Y00516000D01*
X00360000D01*
X00328000D02*
Y00530000D01*
Y00516000D02*
X00360000D01*
Y00530000D01*
X00328000D02*
X00360000D01*
X00873000Y00616000D02*
Y00636000D01*
X00907000D01*
Y00616000D02*
Y00636000D01*
X00873000Y00616000D02*
X00907000D01*
X00152000Y00066000D02*
Y00120000D01*
X00788000D01*
Y00066000D02*
Y00120000D01*
X00152000Y00066000D02*
X00788000D01*
X00873250Y00573000D02*
X00905250D01*
X00873250D02*
Y00587000D01*
X00905250D01*
Y00573000D02*
Y00587000D01*
X00672550Y00699050D02*
X00873000D01*
X00662800Y00689300D02*
X00672550Y00699050D01*
X00873000D02*
X00873000Y00175000D01*
X00805000Y00683000D02*
Y00715000D01*
X00791000Y00683000D02*
X00805000Y00683000D01*
X00791000Y00683000D02*
Y00715000D01*
X00805000D01*
X00873000Y00541000D02*
Y00573000D01*
X00887000Y00573000D01*
Y00541000D02*
Y00573000D01*
X00873000Y00541000D02*
X00887000Y00541000D01*
X00912000Y00570500D02*
X00918000D01*
Y00563000D02*
Y00570500D01*
X00912000Y00542000D02*
X00918000D01*
Y00549000D01*
X00791000Y00701000D02*
Y00715000D01*
X00759000D02*
X00791000D01*
X00759000Y00701000D02*
X00759000Y00715000D01*
X00759000Y00701000D02*
X00791000D01*
X00759000Y00697000D02*
X00791000Y00697000D01*
X00759000Y00683000D02*
Y00697000D01*
X00791000Y00697000D02*
X00791000Y00683000D01*
X00759000Y00683000D02*
X00791000Y00683000D01*
X00805000Y00715000D02*
X00819000Y00715000D01*
X00805000Y00683000D02*
Y00715000D01*
Y00683000D02*
X00819000Y00683000D01*
Y00715000D01*
X00873000Y00411000D02*
X00905000D01*
X00873000D02*
Y00425000D01*
X00905000D01*
Y00411000D02*
Y00425000D01*
X00875000Y00636000D02*
X00907000D01*
Y00682000D01*
X00875000Y00636000D02*
Y00682000D01*
X00907000D01*
X00662800Y00175000D02*
Y00689300D01*
Y00175000D02*
X00873000D01*
X00069000Y00724000D02*
X00074000D01*
X00069000Y00800000D02*
X00074000D01*
X00015000Y00779000D02*
X00032000D01*
Y00745000D02*
Y00779000D01*
X00015000Y00745000D02*
X00032000D01*
X00015000Y00724000D02*
X00021000D01*
X00015000Y00800000D02*
X00021000D01*
X00015000Y00724000D02*
Y00800000D01*
X00866000Y00096000D02*
X00871000D01*
X00866000Y00020000D02*
X00871000D01*
X00908000Y00041000D02*
X00925000D01*
X00908000D02*
Y00075000D01*
X00925000D01*
X00919000Y00096000D02*
X00925000D01*
X00919000Y00020000D02*
X00925000D01*
Y00096000D01*
X00069000Y00020000D02*
X00074000D01*
X00069000Y00096000D02*
X00074000D01*
X00015000Y00075000D02*
X00032000D01*
Y00041000D02*
Y00075000D01*
X00015000Y00041000D02*
X00032000D01*
X00015000Y00020000D02*
X00021000D01*
X00015000Y00096000D02*
X00021000D01*
X00015000Y00020000D02*
Y00096000D01*
X00925000Y00724000D02*
Y00800000D01*
X00919000Y00724000D02*
X00925000D01*
X00919000Y00800000D02*
X00925000D01*
X00908000Y00779000D02*
X00925000D01*
X00908000Y00745000D02*
Y00779000D01*
Y00745000D02*
X00925000D01*
X00866000Y00724000D02*
X00871000D01*
X00866000Y00800000D02*
X00871000D01*
D11*
X00356665Y00628000D02*
X00350000D01*
X00356665Y00634664D01*
Y00636331D01*
X00354998Y00637997D01*
X00351666D01*
X00350000Y00636331D01*
Y00603000D02*
X00353332D01*
X00351666D01*
Y00612997D01*
X00350000Y00611331D01*
X00584502Y00629000D02*
X00587835D01*
X00586169D01*
Y00638997D01*
X00584502Y00637331D01*
X00592833D02*
X00594499Y00638997D01*
X00597831D01*
X00599498Y00637331D01*
Y00635664D01*
X00597831Y00633998D01*
X00599498Y00632332D01*
Y00630666D01*
X00597831Y00629000D01*
X00594499D01*
X00592833Y00630666D01*
Y00632332D01*
X00594499Y00633998D01*
X00592833Y00635664D01*
Y00637331D01*
X00594499Y00633998D02*
X00597831D01*
X00584502Y00602000D02*
X00587835D01*
X00586169D01*
Y00611997D01*
X00584502Y00610331D01*
X00592833Y00611997D02*
X00599498D01*
Y00610331D01*
X00592833Y00603666D01*
Y00602000D01*
X00144000Y00108000D02*
X00147332D01*
X00145666D01*
Y00117997D01*
X00144000Y00116331D01*
X00798664Y00077997D02*
X00792000D01*
Y00072998D01*
X00795332Y00074665D01*
X00796998D01*
X00798664Y00072998D01*
Y00069666D01*
X00796998Y00068000D01*
X00793666D01*
X00792000Y00069666D01*
X00801997Y00076331D02*
X00803663Y00077997D01*
X00806995D01*
X00808661Y00076331D01*
Y00069666D01*
X00806995Y00068000D01*
X00803663D01*
X00801997Y00069666D01*
Y00076331D01*
X00017507Y00371002D02*
Y00380998D01*
X00022506D01*
X00024172Y00379332D01*
Y00376000D01*
X00022506Y00374334D01*
X00017507D01*
X00020840D02*
X00024172Y00371002D01*
X00027504D02*
X00030836D01*
X00029170D01*
Y00380998D01*
X00027504Y00379332D01*
X00035835D02*
X00037501Y00380998D01*
X00040833D01*
X00042499Y00379332D01*
Y00372668D01*
X00040833Y00371002D01*
X00037501D01*
X00035835Y00372668D01*
Y00379332D01*
X00045831D02*
X00047498Y00380998D01*
X00050830D01*
X00052496Y00379332D01*
Y00372668D01*
X00050830Y00371002D01*
X00047498D01*
X00045831Y00372668D01*
Y00379332D01*
X00055828Y00380998D02*
X00062493D01*
Y00379332D01*
X00055828Y00372668D01*
Y00371002D01*
X00017507Y00428002D02*
Y00437998D01*
X00022506D01*
X00024172Y00436332D01*
Y00433000D01*
X00022506Y00431334D01*
X00017507D01*
X00020840D02*
X00024172Y00428002D01*
X00027504D02*
X00030836D01*
X00029170D01*
Y00437998D01*
X00027504Y00436332D01*
X00035835D02*
X00037501Y00437998D01*
X00040833D01*
X00042499Y00436332D01*
Y00429668D01*
X00040833Y00428002D01*
X00037501D01*
X00035835Y00429668D01*
Y00436332D01*
X00045831D02*
X00047498Y00437998D01*
X00050830D01*
X00052496Y00436332D01*
Y00429668D01*
X00050830Y00428002D01*
X00047498D01*
X00045831Y00429668D01*
Y00436332D01*
X00062493Y00437998D02*
X00059160Y00436332D01*
X00055828Y00433000D01*
Y00429668D01*
X00057494Y00428002D01*
X00060827D01*
X00062493Y00429668D01*
Y00431334D01*
X00060827Y00433000D01*
X00055828D01*
X00327002Y00448327D02*
X00336998D01*
Y00443329D01*
X00335332Y00441663D01*
X00332000D01*
X00330334Y00443329D01*
Y00448327D01*
Y00444995D02*
X00327002Y00441663D01*
X00336998Y00438331D02*
Y00431666D01*
X00335332D01*
X00328668Y00438331D01*
X00327002D01*
X00335332Y00428334D02*
X00336998Y00426668D01*
Y00423335D01*
X00335332Y00421669D01*
X00328668D01*
X00327002Y00423335D01*
Y00426668D01*
X00328668Y00428334D01*
X00335332D01*
Y00418337D02*
X00336998Y00416671D01*
Y00413339D01*
X00335332Y00411673D01*
X00333666D01*
X00332000Y00413339D01*
X00330334Y00411673D01*
X00328668D01*
X00327002Y00413339D01*
Y00416671D01*
X00328668Y00418337D01*
X00330334D01*
X00332000Y00416671D01*
X00333666Y00418337D01*
X00335332D01*
X00332000Y00416671D02*
Y00413339D01*
X00326002Y00407327D02*
X00335998D01*
Y00402329D01*
X00334332Y00400663D01*
X00331000D01*
X00329334Y00402329D01*
Y00407327D01*
Y00403995D02*
X00326002Y00400663D01*
X00335998Y00397331D02*
Y00390666D01*
X00334332D01*
X00327668Y00397331D01*
X00326002D01*
X00334332Y00387334D02*
X00335998Y00385668D01*
Y00382336D01*
X00334332Y00380669D01*
X00327668D01*
X00326002Y00382336D01*
Y00385668D01*
X00327668Y00387334D01*
X00334332D01*
X00335998Y00377337D02*
Y00370673D01*
X00334332D01*
X00327668Y00377337D01*
X00326002D01*
X00352003Y00405668D02*
Y00412332D01*
X00350337Y00413998D01*
X00347005D01*
X00345339Y00412332D01*
Y00405668D01*
X00347005Y00404002D01*
X00350337D01*
X00348671Y00407334D02*
X00352003Y00404002D01*
X00350337D02*
X00352003Y00405668D01*
X00355336Y00413998D02*
X00362000D01*
Y00412332D01*
X00355336Y00405668D01*
Y00404002D01*
X00365332Y00412332D02*
X00366998Y00413998D01*
X00370331D01*
X00371997Y00412332D01*
Y00405668D01*
X00370331Y00404002D01*
X00366998D01*
X00365332Y00405668D01*
Y00412332D01*
X00375329Y00404002D02*
X00378661D01*
X00376995D01*
Y00413998D01*
X00375329Y00412332D01*
X00390337Y00394998D02*
X00383673D01*
Y00385002D01*
X00390337D01*
X00383673Y00390000D02*
X00387005D01*
X00393669Y00394998D02*
X00400334D01*
Y00393332D01*
X00393669Y00386668D01*
Y00385002D01*
X00403666Y00393332D02*
X00405332Y00394998D01*
X00408665D01*
X00410331Y00393332D01*
Y00386668D01*
X00408665Y00385002D01*
X00405332D01*
X00403666Y00386668D01*
Y00393332D01*
X00420327Y00385002D02*
X00413663D01*
X00420327Y00391666D01*
Y00393332D01*
X00418661Y00394998D01*
X00415329D01*
X00413663Y00393332D01*
X00418332Y00441663D02*
X00419999Y00443329D01*
Y00446661D01*
X00418332Y00448327D01*
X00411668D01*
X00410002Y00446661D01*
Y00443329D01*
X00411668Y00441663D01*
X00419999Y00438331D02*
Y00431666D01*
X00418332D01*
X00411668Y00438331D01*
X00410002D01*
X00418332Y00428334D02*
X00419999Y00426668D01*
Y00423335D01*
X00418332Y00421669D01*
X00411668D01*
X00410002Y00423335D01*
Y00426668D01*
X00411668Y00428334D01*
X00418332D01*
X00419999Y00411673D02*
X00418332Y00415005D01*
X00415000Y00418337D01*
X00411668D01*
X00410002Y00416671D01*
Y00413339D01*
X00411668Y00411673D01*
X00413334D01*
X00415000Y00413339D01*
Y00418337D01*
X00394332Y00441663D02*
X00395998Y00443329D01*
Y00446661D01*
X00394332Y00448327D01*
X00387668D01*
X00386002Y00446661D01*
Y00443329D01*
X00387668Y00441663D01*
X00395998Y00438331D02*
Y00431666D01*
X00394332D01*
X00387668Y00438331D01*
X00386002D01*
X00394332Y00428334D02*
X00395998Y00426668D01*
Y00423335D01*
X00394332Y00421669D01*
X00387668D01*
X00386002Y00423335D01*
Y00426668D01*
X00387668Y00428334D01*
X00394332D01*
X00395998Y00411673D02*
Y00418337D01*
X00391000D01*
X00392666Y00415005D01*
Y00413339D01*
X00391000Y00411673D01*
X00387668D01*
X00386002Y00413339D01*
Y00416671D01*
X00387668Y00418337D01*
X00350337Y00446332D02*
X00348671Y00447998D01*
X00345339D01*
X00343673Y00446332D01*
Y00439668D01*
X00345339Y00438002D01*
X00348671D01*
X00350337Y00439668D01*
X00353669Y00447998D02*
X00360334D01*
Y00446332D01*
X00353669Y00439668D01*
Y00438002D01*
X00363666Y00446332D02*
X00365332Y00447998D01*
X00368665D01*
X00370331Y00446332D01*
Y00439668D01*
X00368665Y00438002D01*
X00365332D01*
X00363666Y00439668D01*
Y00446332D01*
X00378661Y00438002D02*
Y00447998D01*
X00373663Y00443000D01*
X00380327D01*
X00123173Y00713998D02*
Y00705668D01*
X00124839Y00704002D01*
X00128172D01*
X00129838Y00705668D01*
Y00713998D01*
X00133170Y00704002D02*
X00136502D01*
X00134836D01*
Y00713998D01*
X00133170Y00712332D01*
X00141501D02*
X00143167Y00713998D01*
X00146499D01*
X00148165Y00712332D01*
Y00705668D01*
X00146499Y00704002D01*
X00143167D01*
X00141501Y00705668D01*
Y00712332D01*
X00151498D02*
X00153164Y00713998D01*
X00156496D01*
X00158162Y00712332D01*
Y00705668D01*
X00156496Y00704002D01*
X00153164D01*
X00151498Y00705668D01*
Y00712332D01*
X00161494Y00704002D02*
X00164827D01*
X00163160D01*
Y00713998D01*
X00161494Y00712332D01*
X00904002Y00534658D02*
X00913998D01*
Y00529660D01*
X00912332Y00527994D01*
X00909000D01*
X00907334Y00529660D01*
Y00534658D01*
Y00531326D02*
X00904002Y00527994D01*
X00913998Y00517997D02*
Y00524661D01*
X00904002D01*
Y00517997D01*
X00909000Y00524661D02*
Y00521329D01*
X00913998Y00508000D02*
Y00514664D01*
X00909000D01*
Y00511332D01*
Y00514664D01*
X00904002D01*
X00912332Y00504668D02*
X00913998Y00503002D01*
Y00499669D01*
X00912332Y00498003D01*
X00910666D01*
X00909000Y00499669D01*
Y00501335D01*
Y00499669D01*
X00907334Y00498003D01*
X00905668D01*
X00904002Y00499669D01*
Y00503002D01*
X00905668Y00504668D01*
X00912332Y00494671D02*
X00913998Y00493005D01*
Y00489673D01*
X00912332Y00488006D01*
X00905668D01*
X00904002Y00489673D01*
Y00493005D01*
X00905668Y00494671D01*
X00912332D01*
X00904002Y00484674D02*
Y00481342D01*
Y00483008D01*
X00913998D01*
X00912332Y00484674D01*
X00801332Y00749663D02*
X00802998Y00751329D01*
Y00754661D01*
X00801332Y00756327D01*
X00794668D01*
X00793002Y00754661D01*
Y00751329D01*
X00794668Y00749663D01*
X00801332Y00746331D02*
X00802998Y00744665D01*
Y00741332D01*
X00801332Y00739666D01*
X00799666D01*
X00798000Y00741332D01*
Y00742998D01*
Y00741332D01*
X00796334Y00739666D01*
X00794668D01*
X00793002Y00741332D01*
Y00744665D01*
X00794668Y00746331D01*
X00801332Y00736334D02*
X00802998Y00734668D01*
Y00731335D01*
X00801332Y00729669D01*
X00794668D01*
X00793002Y00731335D01*
Y00734668D01*
X00794668Y00736334D01*
X00801332D01*
X00793002Y00726337D02*
Y00723005D01*
Y00724671D01*
X00802998D01*
X00801332Y00726337D01*
X00758337Y00730998D02*
X00751673D01*
Y00721002D01*
X00758337D01*
X00751673Y00726000D02*
X00755005D01*
X00761669Y00729332D02*
X00763335Y00730998D01*
X00766668D01*
X00768334Y00729332D01*
Y00727666D01*
X00766668Y00726000D01*
X00765002D01*
X00766668D01*
X00768334Y00724334D01*
Y00722668D01*
X00766668Y00721002D01*
X00763335D01*
X00761669Y00722668D01*
X00771666Y00729332D02*
X00773332Y00730998D01*
X00776665D01*
X00778331Y00729332D01*
Y00722668D01*
X00776665Y00721002D01*
X00773332D01*
X00771666Y00722668D01*
Y00729332D01*
X00781663Y00721002D02*
X00784995D01*
X00783329D01*
Y00730998D01*
X00781663Y00729332D01*
X00672339Y00712998D02*
Y00704668D01*
X00674005Y00703002D01*
X00677337D01*
X00679003Y00704668D01*
Y00712998D01*
X00682336Y00711332D02*
X00684002Y00712998D01*
X00687334D01*
X00689000Y00711332D01*
Y00709666D01*
X00687334Y00708000D01*
X00685668D01*
X00687334D01*
X00689000Y00706334D01*
Y00704668D01*
X00687334Y00703002D01*
X00684002D01*
X00682336Y00704668D01*
X00692332Y00711332D02*
X00693998Y00712998D01*
X00697331D01*
X00698997Y00711332D01*
Y00704668D01*
X00697331Y00703002D01*
X00693998D01*
X00692332Y00704668D01*
Y00711332D01*
X00702329Y00703002D02*
X00705661D01*
X00703995D01*
Y00712998D01*
X00702329Y00711332D01*
X00877506Y00397002D02*
Y00406998D01*
X00882504D01*
X00884170Y00405332D01*
Y00402000D01*
X00882504Y00400334D01*
X00877506D01*
X00880838D02*
X00884170Y00397002D01*
X00887502Y00405332D02*
X00889169Y00406998D01*
X00892501D01*
X00894167Y00405332D01*
Y00403666D01*
X00892501Y00402000D01*
X00890835D01*
X00892501D01*
X00894167Y00400334D01*
Y00398668D01*
X00892501Y00397002D01*
X00889169D01*
X00887502Y00398668D01*
X00897499Y00397002D02*
X00900831D01*
X00899165D01*
Y00406998D01*
X00897499Y00405332D01*
X00905830D02*
X00907496Y00406998D01*
X00910828D01*
X00912494Y00405332D01*
Y00398668D01*
X00910828Y00397002D01*
X00907496D01*
X00905830Y00398668D01*
Y00405332D01*
X00910002Y00607828D02*
X00919998D01*
Y00602830D01*
X00918332Y00601164D01*
X00915000D01*
X00913334Y00602830D01*
Y00607828D01*
Y00604496D02*
X00910002Y00601164D01*
X00918332Y00597831D02*
X00919998Y00596165D01*
Y00592833D01*
X00918332Y00591167D01*
X00916666D01*
X00915000Y00592833D01*
Y00594499D01*
Y00592833D01*
X00913334Y00591167D01*
X00911668D01*
X00910002Y00592833D01*
Y00596165D01*
X00911668Y00597831D01*
X00910002Y00587835D02*
Y00584502D01*
Y00586169D01*
X00919998D01*
X00918332Y00587835D01*
X00910002Y00579504D02*
Y00576172D01*
Y00577838D01*
X00919998D01*
X00918332Y00579504D01*
X00884003Y00687668D02*
Y00694332D01*
X00882337Y00695998D01*
X00879005D01*
X00877339Y00694332D01*
Y00687668D01*
X00879005Y00686002D01*
X00882337D01*
X00880671Y00689334D02*
X00884003Y00686002D01*
X00882337D02*
X00884003Y00687668D01*
X00887336Y00694332D02*
X00889002Y00695998D01*
X00892334D01*
X00894000Y00694332D01*
Y00692666D01*
X00892334Y00691000D01*
X00890668D01*
X00892334D01*
X00894000Y00689334D01*
Y00687668D01*
X00892334Y00686002D01*
X00889002D01*
X00887336Y00687668D01*
X00897332Y00694332D02*
X00898998Y00695998D01*
X00902331D01*
X00903997Y00694332D01*
Y00687668D01*
X00902331Y00686002D01*
X00898998D01*
X00897332Y00687668D01*
Y00694332D01*
X00907329Y00686002D02*
X00910661D01*
X00908995D01*
Y00695998D01*
X00907329Y00694332D01*
X00885332Y00524663D02*
X00886998Y00526329D01*
Y00529661D01*
X00885332Y00531327D01*
X00878668D01*
X00877002Y00529661D01*
Y00526329D01*
X00878668Y00524663D01*
X00885332Y00521331D02*
X00886998Y00519664D01*
Y00516332D01*
X00885332Y00514666D01*
X00883666D01*
X00882000Y00516332D01*
Y00517998D01*
Y00516332D01*
X00880334Y00514666D01*
X00878668D01*
X00877002Y00516332D01*
Y00519664D01*
X00878668Y00521331D01*
X00885332Y00511334D02*
X00886998Y00509668D01*
Y00506335D01*
X00885332Y00504669D01*
X00878668D01*
X00877002Y00506335D01*
Y00509668D01*
X00878668Y00511334D01*
X00885332D01*
Y00501337D02*
X00886998Y00499671D01*
Y00496339D01*
X00885332Y00494673D01*
X00883666D01*
X00882000Y00496339D01*
X00880334Y00494673D01*
X00878668D01*
X00877002Y00496339D01*
Y00499671D01*
X00878668Y00501337D01*
X00880334D01*
X00882000Y00499671D01*
X00883666Y00501337D01*
X00885332D01*
X00882000Y00499671D02*
Y00496339D01*
X00919332Y00646663D02*
X00920998Y00648329D01*
Y00651661D01*
X00919332Y00653327D01*
X00912668D01*
X00911002Y00651661D01*
Y00648329D01*
X00912668Y00646663D01*
X00919332Y00643331D02*
X00920998Y00641665D01*
Y00638332D01*
X00919332Y00636666D01*
X00917666D01*
X00916000Y00638332D01*
Y00639998D01*
Y00638332D01*
X00914334Y00636666D01*
X00912668D01*
X00911002Y00638332D01*
Y00641665D01*
X00912668Y00643331D01*
X00919332Y00633334D02*
X00920998Y00631668D01*
Y00628335D01*
X00919332Y00626669D01*
X00912668D01*
X00911002Y00628335D01*
Y00631668D01*
X00912668Y00633334D01*
X00919332D01*
X00911002Y00616673D02*
Y00623337D01*
X00917666Y00616673D01*
X00919332D01*
X00920998Y00618339D01*
Y00621671D01*
X00919332Y00623337D01*
X00815332Y00749663D02*
X00816998Y00751329D01*
Y00754661D01*
X00815332Y00756327D01*
X00808668D01*
X00807002Y00754661D01*
Y00751329D01*
X00808668Y00749663D01*
X00815332Y00746331D02*
X00816998Y00744665D01*
Y00741332D01*
X00815332Y00739666D01*
X00813666D01*
X00812000Y00741332D01*
Y00742998D01*
Y00741332D01*
X00810334Y00739666D01*
X00808668D01*
X00807002Y00741332D01*
Y00744665D01*
X00808668Y00746331D01*
X00815332Y00736334D02*
X00816998Y00734668D01*
Y00731336D01*
X00815332Y00729669D01*
X00808668D01*
X00807002Y00731336D01*
Y00734668D01*
X00808668Y00736334D01*
X00815332D01*
Y00726337D02*
X00816998Y00724671D01*
Y00721339D01*
X00815332Y00719673D01*
X00813666D01*
X00812000Y00721339D01*
Y00723005D01*
Y00721339D01*
X00810334Y00719673D01*
X00808668D01*
X00807002Y00721339D01*
Y00724671D01*
X00808668Y00726337D01*
X00758337Y00754661D02*
X00756671Y00756327D01*
X00753339D01*
X00751673Y00754661D01*
Y00747997D01*
X00753339Y00746331D01*
X00756671D01*
X00758337Y00747997D01*
X00761669Y00754661D02*
X00763335Y00756327D01*
X00766668D01*
X00768334Y00754661D01*
Y00752995D01*
X00766668Y00751329D01*
X00765002D01*
X00766668D01*
X00768334Y00749663D01*
Y00747997D01*
X00766668Y00746331D01*
X00763335D01*
X00761669Y00747997D01*
X00771666Y00754661D02*
X00773332Y00756327D01*
X00776665D01*
X00778331Y00754661D01*
Y00747997D01*
X00776665Y00746331D01*
X00773332D01*
X00771666Y00747997D01*
Y00754661D01*
X00786661Y00746331D02*
Y00756327D01*
X00781663Y00751329D01*
X00788327D01*
X00154000Y00062000D02*
X00160665Y00052003D01*
Y00062000D02*
X00154000Y00052003D01*
X00163997D02*
Y00062000D01*
X00168995D01*
X00170661Y00060334D01*
Y00057002D01*
X00168995Y00055335D01*
X00163997D01*
X00180658Y00052003D02*
X00173994D01*
X00180658Y00058668D01*
Y00060334D01*
X00178992Y00062000D01*
X00175660D01*
X00173994Y00060334D01*
X00183990D02*
X00185657Y00062000D01*
X00188989D01*
X00190655Y00060334D01*
Y00053669D01*
X00188989Y00052003D01*
X00185657D01*
X00183990Y00053669D01*
Y00060334D01*
X00193987Y00052003D02*
X00197319D01*
X00195653D01*
Y00062000D01*
X00193987Y00060334D01*
X00047674Y00062998D02*
X00054339Y00053002D01*
Y00062998D02*
X00047674Y00053002D01*
X00057671D02*
Y00062998D01*
X00062669D01*
X00064335Y00061332D01*
Y00058000D01*
X00062669Y00056334D01*
X00057671D01*
X00074332Y00053002D02*
X00067668D01*
X00074332Y00059666D01*
Y00061332D01*
X00072666Y00062998D01*
X00069334D01*
X00067668Y00061332D01*
X00077664D02*
X00079331Y00062998D01*
X00082663D01*
X00084329Y00061332D01*
Y00054668D01*
X00082663Y00053002D01*
X00079331D01*
X00077664Y00054668D01*
Y00061332D01*
X00094326Y00053002D02*
X00087661D01*
X00094326Y00059666D01*
Y00061332D01*
X00092660Y00062998D01*
X00089327D01*
X00087661Y00061332D01*
X00047674Y00766998D02*
X00054339Y00757002D01*
Y00766998D02*
X00047674Y00757002D01*
X00057671D02*
Y00766998D01*
X00062669D01*
X00064335Y00765332D01*
Y00762000D01*
X00062669Y00760334D01*
X00057671D01*
X00074332Y00757002D02*
X00067668D01*
X00074332Y00763666D01*
Y00765332D01*
X00072666Y00766998D01*
X00069334D01*
X00067668Y00765332D01*
X00077665D02*
X00079331Y00766998D01*
X00082663D01*
X00084329Y00765332D01*
Y00758668D01*
X00082663Y00757002D01*
X00079331D01*
X00077665Y00758668D01*
Y00765332D01*
X00087661D02*
X00089327Y00766998D01*
X00092660D01*
X00094326Y00765332D01*
Y00763666D01*
X00092660Y00762000D01*
X00090994D01*
X00092660D01*
X00094326Y00760334D01*
Y00758668D01*
X00092660Y00757002D01*
X00089327D01*
X00087661Y00758668D01*
X00845674Y00766998D02*
X00852339Y00757002D01*
Y00766998D02*
X00845674Y00757002D01*
X00855671D02*
Y00766998D01*
X00860669D01*
X00862336Y00765332D01*
Y00762000D01*
X00860669Y00760334D01*
X00855671D01*
X00872332Y00757002D02*
X00865668D01*
X00872332Y00763666D01*
Y00765332D01*
X00870666Y00766998D01*
X00867334D01*
X00865668Y00765332D01*
X00875665D02*
X00877331Y00766998D01*
X00880663D01*
X00882329Y00765332D01*
Y00758668D01*
X00880663Y00757002D01*
X00877331D01*
X00875665Y00758668D01*
Y00765332D01*
X00890660Y00757002D02*
Y00766998D01*
X00885661Y00762000D01*
X00892326D01*
X00845674Y00062998D02*
X00852339Y00053002D01*
Y00062998D02*
X00845674Y00053002D01*
X00855671D02*
Y00062998D01*
X00860669D01*
X00862336Y00061332D01*
Y00058000D01*
X00860669Y00056334D01*
X00855671D01*
X00872332Y00053002D02*
X00865668D01*
X00872332Y00059666D01*
Y00061332D01*
X00870666Y00062998D01*
X00867334D01*
X00865668Y00061332D01*
X00875665D02*
X00877331Y00062998D01*
X00880663D01*
X00882329Y00061332D01*
Y00054668D01*
X00880663Y00053002D01*
X00877331D01*
X00875665Y00054668D01*
Y00061332D01*
X00892326Y00062998D02*
X00885661D01*
Y00058000D01*
X00888994Y00059666D01*
X00890660D01*
X00892326Y00058000D01*
Y00054668D01*
X00890660Y00053002D01*
X00887327D01*
X00885661Y00054668D01*
D12*
X00354540Y00537460D02*
X00357079D01*
Y00534921D01*
X00354540D01*
Y00537460D01*
X00911540Y00675460D02*
X00914079D01*
Y00672921D01*
X00911540D01*
Y00675460D01*
M02*
