G04*
G04 #@! TF.GenerationSoftware,Altium Limited,Altium Designer,22.1.2 (22)*
G04*
G04 Layer_Physical_Order=1*
G04 Layer_Color=255*
%FSAX44Y44*%
%MOMM*%
G71*
G04*
G04 #@! TF.SameCoordinates,FD085C4F-33D3-4CAD-8C95-339AC6E91DDF*
G04*
G04*
G04 #@! TF.FilePolarity,Positive*
G04*
G01*
G75*
%ADD13R,2.0000X2.5000*%
%ADD14R,0.8000X0.8000*%
%ADD15R,0.8000X0.8000*%
%ADD16R,0.6000X1.2000*%
G04:AMPARAMS|DCode=17|XSize=0.6mm|YSize=1.2mm|CornerRadius=0.15mm|HoleSize=0mm|Usage=FLASHONLY|Rotation=0.000|XOffset=0mm|YOffset=0mm|HoleType=Round|Shape=RoundedRectangle|*
%AMROUNDEDRECTD17*
21,1,0.6000,0.9000,0,0,0.0*
21,1,0.3000,1.2000,0,0,0.0*
1,1,0.3000,0.1500,-0.4500*
1,1,0.3000,-0.1500,-0.4500*
1,1,0.3000,-0.1500,0.4500*
1,1,0.3000,0.1500,0.4500*
%
%ADD17ROUNDEDRECTD17*%
%ADD18R,0.8000X1.4000*%
%ADD19R,0.9500X0.8000*%
%ADD20C,1.5000*%
G04:AMPARAMS|DCode=21|XSize=1.5mm|YSize=1.5mm|CornerRadius=0.375mm|HoleSize=0mm|Usage=FLASHONLY|Rotation=0.000|XOffset=0mm|YOffset=0mm|HoleType=Round|Shape=RoundedRectangle|*
%AMROUNDEDRECTD21*
21,1,1.5000,0.7500,0,0,0.0*
21,1,0.7500,1.5000,0,0,0.0*
1,1,0.7500,0.3750,-0.3750*
1,1,0.7500,-0.3750,-0.3750*
1,1,0.7500,-0.3750,0.3750*
1,1,0.7500,0.3750,0.3750*
%
%ADD21ROUNDEDRECTD21*%
%ADD22O,3.8000X2.9000*%
%ADD23C,1.0000*%
%ADD24C,1.0000*%
%ADD25C,0.3000*%
%ADD26C,0.3300*%
%ADD27C,0.8000*%
%ADD28C,0.5000*%
%ADD29C,1.5000*%
%ADD30C,0.4000*%
%ADD31C,0.6500*%
%ADD32C,5.8000*%
G36*
X00874902Y00894902D02*
X00874902Y00844000D01*
X00875290Y00842049D01*
X00876395Y00840395D01*
X00899395Y00817395D01*
X00901049Y00816290D01*
X00903000Y00815902D01*
X00934902D01*
X00934902Y00005098D01*
X00005098Y00005098D01*
X00005098Y00347254D01*
X00006368Y00347640D01*
X00006477Y00347477D01*
X00040777Y00313177D01*
X00041934Y00312403D01*
X00043300Y00312131D01*
X00074221D01*
X00074247Y00312033D01*
X00075498Y00309867D01*
X00077267Y00308098D01*
X00079433Y00306847D01*
X00081849Y00306200D01*
X00084351D01*
X00086767Y00306847D01*
X00088933Y00308098D01*
X00090702Y00309867D01*
X00091952Y00312033D01*
X00092600Y00314449D01*
Y00316951D01*
X00091952Y00319367D01*
X00090702Y00321533D01*
X00088933Y00323302D01*
X00086767Y00324553D01*
X00084351Y00325200D01*
X00081849D01*
X00079433Y00324553D01*
X00077267Y00323302D01*
X00075498Y00321533D01*
X00074247Y00319367D01*
X00074221Y00319269D01*
X00044778D01*
X00012569Y00351478D01*
Y00374725D01*
X00013742Y00375211D01*
X00050377Y00338577D01*
X00051534Y00337803D01*
X00052900Y00337531D01*
X00074221D01*
X00074247Y00337433D01*
X00075498Y00335267D01*
X00077267Y00333498D01*
X00079433Y00332247D01*
X00081849Y00331600D01*
X00084351D01*
X00086767Y00332247D01*
X00088933Y00333498D01*
X00090702Y00335267D01*
X00091952Y00337433D01*
X00092600Y00339849D01*
Y00342351D01*
X00091952Y00344767D01*
X00090702Y00346933D01*
X00088933Y00348702D01*
X00086767Y00349953D01*
X00084351Y00350600D01*
X00081849D01*
X00079433Y00349953D01*
X00077267Y00348702D01*
X00075498Y00346933D01*
X00074247Y00344767D01*
X00074221Y00344669D01*
X00054378D01*
X00018569Y00380478D01*
Y00438348D01*
X00019742Y00438834D01*
X00020026Y00438549D01*
X00021956Y00437750D01*
X00024044D01*
X00025974Y00438549D01*
X00027451Y00440026D01*
X00028250Y00441956D01*
Y00444044D01*
X00027451Y00445974D01*
X00025974Y00447451D01*
X00024044Y00448250D01*
X00023569D01*
Y00743522D01*
X00035478Y00755431D01*
X00164000D01*
X00165366Y00755703D01*
X00166523Y00756477D01*
X00175797Y00765750D01*
X00177044D01*
X00178974Y00766549D01*
X00180451Y00768026D01*
X00181250Y00769956D01*
Y00772044D01*
X00180451Y00773974D01*
X00178974Y00775451D01*
X00177044Y00776250D01*
X00174956D01*
X00173026Y00775451D01*
X00171549Y00773974D01*
X00170750Y00772044D01*
Y00770797D01*
X00162522Y00762569D01*
X00122789D01*
X00122303Y00763742D01*
X00131523Y00772962D01*
X00132297Y00774120D01*
X00132569Y00775485D01*
Y00847522D01*
X00162478Y00877431D01*
X00324597D01*
X00325316Y00876161D01*
X00324750Y00874794D01*
Y00872706D01*
X00325549Y00870776D01*
X00326278Y00870047D01*
Y00854703D01*
X00325549Y00853974D01*
X00324750Y00852044D01*
Y00849956D01*
X00325549Y00848026D01*
X00327026Y00846549D01*
X00328956Y00845750D01*
X00331044D01*
X00332974Y00846549D01*
X00334451Y00848026D01*
X00335250Y00849956D01*
Y00852044D01*
X00334451Y00853974D01*
X00333722Y00854703D01*
Y00870047D01*
X00334451Y00870776D01*
X00335250Y00872706D01*
Y00874794D01*
X00334684Y00876161D01*
X00335403Y00877431D01*
X00660522D01*
X00672720Y00865234D01*
X00672234Y00864060D01*
X00600000D01*
X00598173Y00863820D01*
X00596470Y00863114D01*
X00595008Y00861992D01*
X00593885Y00860530D01*
X00593180Y00858827D01*
X00592940Y00857000D01*
X00593180Y00855173D01*
X00593885Y00853470D01*
X00595008Y00852008D01*
X00596470Y00850885D01*
X00598173Y00850180D01*
X00600000Y00849940D01*
X00729075D01*
X00743008Y00836008D01*
X00744470Y00834885D01*
X00746173Y00834180D01*
X00748000Y00833940D01*
X00749827Y00834180D01*
X00751530Y00834885D01*
X00752992Y00836008D01*
X00754115Y00837470D01*
X00754820Y00839173D01*
X00755060Y00841000D01*
X00754820Y00842827D01*
X00754115Y00844530D01*
X00752992Y00845992D01*
X00737823Y00861161D01*
X00738350Y00862431D01*
X00743522D01*
X00776432Y00829522D01*
Y00774856D01*
X00775549Y00773974D01*
X00774750Y00772044D01*
Y00769956D01*
X00775549Y00768026D01*
X00777026Y00766549D01*
X00778956Y00765750D01*
X00781044D01*
X00782974Y00766549D01*
X00784451Y00768026D01*
X00785250Y00769956D01*
Y00772044D01*
X00784451Y00773974D01*
X00783569Y00774856D01*
Y00831000D01*
X00783297Y00832366D01*
X00782523Y00833523D01*
X00747523Y00868523D01*
X00746366Y00869297D01*
X00745000Y00869569D01*
X00685636D01*
X00684787Y00870839D01*
X00685250Y00871956D01*
Y00874044D01*
X00684451Y00875974D01*
X00682974Y00877451D01*
X00681044Y00878250D01*
X00679797D01*
X00668523Y00889523D01*
X00667366Y00890297D01*
X00666000Y00890569D01*
X00158000D01*
X00156634Y00890297D01*
X00155477Y00889523D01*
X00120477Y00854523D01*
X00119703Y00853366D01*
X00119431Y00852000D01*
Y00779449D01*
X00114551Y00774569D01*
X00029030D01*
X00027664Y00774297D01*
X00026506Y00773523D01*
X00006477Y00753494D01*
X00006368Y00753331D01*
X00005098Y00753716D01*
Y00815902D01*
X00037000Y00815902D01*
X00038951Y00816290D01*
X00040605Y00817395D01*
X00063605Y00840395D01*
X00064710Y00842049D01*
X00065098Y00844000D01*
Y00894902D01*
X00874902Y00894902D01*
D02*
G37*
%LPC*%
G36*
X00870375Y00889738D02*
X00762500D01*
Y00864262D01*
X00870375D01*
Y00889738D01*
D02*
G37*
G36*
X00311044Y00872250D02*
X00308956D01*
X00307026Y00871451D01*
X00305549Y00869974D01*
X00304750Y00868044D01*
Y00865956D01*
X00305549Y00864026D01*
X00306431Y00863144D01*
Y00854856D01*
X00305549Y00853974D01*
X00304750Y00852044D01*
Y00849956D01*
X00305549Y00848026D01*
X00307026Y00846549D01*
X00308956Y00845750D01*
X00311044D01*
X00312974Y00846549D01*
X00314451Y00848026D01*
X00315250Y00849956D01*
Y00852044D01*
X00314451Y00853974D01*
X00313569Y00854856D01*
Y00863144D01*
X00314451Y00864026D01*
X00315250Y00865956D01*
Y00868044D01*
X00314451Y00869974D01*
X00312974Y00871451D01*
X00311044Y00872250D01*
D02*
G37*
G36*
X00680922Y00827000D02*
X00679078D01*
X00677298Y00826523D01*
X00675702Y00825601D01*
X00675199Y00825098D01*
X00664801D01*
X00664298Y00825601D01*
X00662702Y00826523D01*
X00660922Y00827000D01*
X00659078D01*
X00657298Y00826523D01*
X00655702Y00825601D01*
X00655199Y00825098D01*
X00644801D01*
X00644298Y00825601D01*
X00642702Y00826523D01*
X00640922Y00827000D01*
X00639078D01*
X00637298Y00826523D01*
X00635702Y00825601D01*
X00635199Y00825098D01*
X00604801D01*
X00604298Y00825601D01*
X00602702Y00826523D01*
X00600922Y00827000D01*
X00599078D01*
X00597298Y00826523D01*
X00595702Y00825601D01*
X00595199Y00825098D01*
X00557005D01*
X00555055Y00824710D01*
X00553217Y00823949D01*
X00551563Y00822844D01*
X00550156Y00821437D01*
X00550156Y00821437D01*
X00549051Y00819783D01*
X00548290Y00817945D01*
X00547902Y00815994D01*
Y00815000D01*
X00547902Y00815000D01*
X00547902Y00804006D01*
X00548290Y00802055D01*
X00549051Y00800217D01*
X00550156Y00798563D01*
X00551563Y00797157D01*
X00551563Y00797156D01*
X00553217Y00796051D01*
X00555055Y00795290D01*
X00557005Y00794902D01*
X00558000D01*
X00558000Y00794902D01*
X00722000Y00794902D01*
X00722995D01*
X00724945Y00795290D01*
X00726783Y00796051D01*
X00728437Y00797156D01*
X00729844Y00798563D01*
X00730949Y00800217D01*
X00731710Y00802055D01*
X00732098Y00804005D01*
Y00805000D01*
X00732098Y00805000D01*
X00732098Y00815994D01*
X00731710Y00817945D01*
X00730949Y00819783D01*
X00729844Y00821437D01*
X00728437Y00822843D01*
X00726783Y00823949D01*
X00724945Y00824710D01*
X00722995Y00825098D01*
X00722000D01*
X00722000Y00825098D01*
X00684802D01*
X00684298Y00825601D01*
X00682702Y00826523D01*
X00680922Y00827000D01*
D02*
G37*
G36*
X00330922D02*
X00329078D01*
X00327298Y00826523D01*
X00325702Y00825601D01*
X00325199Y00825098D01*
X00314802D01*
X00314298Y00825601D01*
X00312702Y00826523D01*
X00310922Y00827000D01*
X00309078D01*
X00307298Y00826523D01*
X00305702Y00825601D01*
X00305198Y00825098D01*
X00274802D01*
X00274298Y00825601D01*
X00272702Y00826523D01*
X00270922Y00827000D01*
X00269078D01*
X00267298Y00826523D01*
X00265702Y00825601D01*
X00265198Y00825098D01*
X00217006D01*
X00215054Y00824710D01*
X00213217Y00823949D01*
X00211563Y00822844D01*
X00210156Y00821437D01*
X00210156Y00821437D01*
X00209051Y00819783D01*
X00208290Y00817945D01*
X00207902Y00815994D01*
Y00815000D01*
X00207902Y00815000D01*
X00207902Y00804005D01*
X00208290Y00802055D01*
X00209051Y00800217D01*
X00210156Y00798563D01*
X00211563Y00797156D01*
X00211563Y00797156D01*
X00213217Y00796051D01*
X00215055Y00795290D01*
X00217005Y00794902D01*
X00218000D01*
X00218000Y00794902D01*
X00382000Y00794902D01*
X00382994D01*
X00384945Y00795290D01*
X00386783Y00796051D01*
X00388437Y00797156D01*
X00389843Y00798563D01*
X00390949Y00800217D01*
X00391710Y00802055D01*
X00392098Y00804005D01*
Y00805000D01*
X00392098Y00805000D01*
X00392098Y00815994D01*
X00391710Y00817945D01*
X00390949Y00819783D01*
X00389844Y00821437D01*
X00388437Y00822843D01*
X00386783Y00823949D01*
X00384945Y00824710D01*
X00382995Y00825098D01*
X00382000D01*
X00382000Y00825098D01*
X00334801D01*
X00334298Y00825601D01*
X00332702Y00826523D01*
X00330922Y00827000D01*
D02*
G37*
G36*
X00639000Y00707098D02*
X00301000Y00707098D01*
X00300005D01*
X00298055Y00706710D01*
X00296217Y00705949D01*
X00294563Y00704844D01*
X00293156Y00703437D01*
X00293156Y00703437D01*
X00292051Y00701783D01*
X00291290Y00699945D01*
X00290902Y00697995D01*
Y00697000D01*
X00290902Y00697000D01*
X00290902Y00676005D01*
X00291290Y00674055D01*
X00292051Y00672217D01*
X00293156Y00670563D01*
X00294563Y00669156D01*
X00294563Y00669156D01*
X00296217Y00668051D01*
X00298055Y00667290D01*
X00300005Y00666902D01*
X00301000D01*
X00301000Y00666902D01*
X00639000Y00666902D01*
X00639995D01*
X00641945Y00667290D01*
X00643783Y00668051D01*
X00645437Y00669156D01*
X00646843Y00670563D01*
X00647949Y00672217D01*
X00648710Y00674054D01*
X00648710Y00674055D01*
X00648710Y00674055D01*
X00649098Y00676005D01*
X00649098Y00676005D01*
X00649098Y00676006D01*
X00649098Y00677000D01*
X00649098Y00677000D01*
X00649098Y00697995D01*
X00648710Y00699946D01*
X00647949Y00701783D01*
X00646843Y00703437D01*
X00645437Y00704844D01*
X00643783Y00705949D01*
X00641945Y00706710D01*
X00639995Y00707098D01*
X00639000D01*
X00639000Y00707098D01*
D02*
G37*
G36*
X00262151Y00680800D02*
X00259649D01*
X00257233Y00680153D01*
X00255067Y00678902D01*
X00253298Y00677133D01*
X00252047Y00674967D01*
X00251400Y00672551D01*
Y00670049D01*
X00252047Y00667633D01*
X00253298Y00665467D01*
X00255067Y00663698D01*
X00257233Y00662447D01*
X00259649Y00661800D01*
X00262151D01*
X00264567Y00662447D01*
X00266733Y00663698D01*
X00268502Y00665467D01*
X00269753Y00667633D01*
X00270400Y00670049D01*
Y00672551D01*
X00269753Y00674967D01*
X00268502Y00677133D01*
X00266733Y00678902D01*
X00264567Y00680153D01*
X00262151Y00680800D01*
D02*
G37*
G36*
X00682850Y00680913D02*
X00675350D01*
X00673107Y00680466D01*
X00671205Y00679195D01*
X00669934Y00677294D01*
X00669487Y00675050D01*
Y00667550D01*
X00669934Y00665306D01*
X00671205Y00663405D01*
X00673107Y00662134D01*
X00675350Y00661687D01*
X00682850D01*
X00685094Y00662134D01*
X00686995Y00663405D01*
X00688266Y00665306D01*
X00688713Y00667550D01*
Y00675050D01*
X00688266Y00677294D01*
X00686995Y00679195D01*
X00685094Y00680466D01*
X00682850Y00680913D01*
D02*
G37*
G36*
X00680351Y00655400D02*
X00677849D01*
X00675433Y00654753D01*
X00673267Y00653502D01*
X00671498Y00651733D01*
X00670247Y00649567D01*
X00669600Y00647151D01*
Y00644649D01*
X00670247Y00642233D01*
X00671498Y00640067D01*
X00673267Y00638298D01*
X00675433Y00637048D01*
X00677849Y00636400D01*
X00680351D01*
X00682767Y00637048D01*
X00684933Y00638298D01*
X00686702Y00640067D01*
X00687953Y00642233D01*
X00688600Y00644649D01*
Y00647151D01*
X00687953Y00649567D01*
X00686702Y00651733D01*
X00684933Y00653502D01*
X00682767Y00654753D01*
X00680351Y00655400D01*
D02*
G37*
G36*
X00262151Y00655400D02*
X00259649D01*
X00257233Y00654753D01*
X00255067Y00653502D01*
X00253298Y00651733D01*
X00252047Y00649567D01*
X00251400Y00647151D01*
Y00644649D01*
X00252047Y00642233D01*
X00253298Y00640067D01*
X00255067Y00638298D01*
X00257233Y00637047D01*
X00259649Y00636400D01*
X00262151D01*
X00264567Y00637047D01*
X00266733Y00638298D01*
X00268502Y00640067D01*
X00269753Y00642233D01*
X00270400Y00644649D01*
Y00647151D01*
X00269753Y00649567D01*
X00268502Y00651733D01*
X00266733Y00653502D01*
X00264567Y00654753D01*
X00262151Y00655400D01*
D02*
G37*
G36*
X00572851Y00642200D02*
X00570349D01*
X00567933Y00641553D01*
X00565767Y00640302D01*
X00563998Y00638533D01*
X00562747Y00636367D01*
X00562100Y00633951D01*
Y00631449D01*
X00562747Y00629033D01*
X00563998Y00626867D01*
X00565767Y00625098D01*
X00567933Y00623848D01*
X00570349Y00623200D01*
X00572851D01*
X00575267Y00623848D01*
X00577433Y00625098D01*
X00579202Y00626867D01*
X00580452Y00629033D01*
X00581100Y00631449D01*
Y00633951D01*
X00580452Y00636367D01*
X00579202Y00638533D01*
X00577433Y00640302D01*
X00575267Y00641553D01*
X00572851Y00642200D01*
D02*
G37*
G36*
X00547451D02*
X00544949D01*
X00542533Y00641553D01*
X00540367Y00640302D01*
X00538598Y00638533D01*
X00537347Y00636367D01*
X00536700Y00633951D01*
Y00631449D01*
X00537347Y00629033D01*
X00538598Y00626867D01*
X00540367Y00625098D01*
X00542533Y00623848D01*
X00544949Y00623200D01*
X00547451D01*
X00549867Y00623848D01*
X00552033Y00625098D01*
X00553802Y00626867D01*
X00555052Y00629033D01*
X00555700Y00631449D01*
Y00633951D01*
X00555052Y00636367D01*
X00553802Y00638533D01*
X00552033Y00640302D01*
X00549867Y00641553D01*
X00547451Y00642200D01*
D02*
G37*
G36*
X00522051D02*
X00519549D01*
X00517133Y00641553D01*
X00514967Y00640302D01*
X00513198Y00638533D01*
X00511947Y00636367D01*
X00511300Y00633951D01*
Y00631449D01*
X00511947Y00629033D01*
X00513198Y00626867D01*
X00514967Y00625098D01*
X00517133Y00623848D01*
X00519549Y00623200D01*
X00522051D01*
X00524467Y00623848D01*
X00526633Y00625098D01*
X00528402Y00626867D01*
X00529652Y00629033D01*
X00530300Y00631449D01*
Y00633951D01*
X00529652Y00636367D01*
X00528402Y00638533D01*
X00526633Y00640302D01*
X00524467Y00641553D01*
X00522051Y00642200D01*
D02*
G37*
G36*
X00496651D02*
X00494149D01*
X00491733Y00641553D01*
X00489567Y00640302D01*
X00487798Y00638533D01*
X00486547Y00636367D01*
X00485900Y00633951D01*
Y00631449D01*
X00486547Y00629033D01*
X00487798Y00626867D01*
X00489567Y00625098D01*
X00491733Y00623848D01*
X00494149Y00623200D01*
X00496651D01*
X00499067Y00623848D01*
X00501233Y00625098D01*
X00503002Y00626867D01*
X00504253Y00629033D01*
X00504900Y00631449D01*
Y00633951D01*
X00504253Y00636367D01*
X00503002Y00638533D01*
X00501233Y00640302D01*
X00499067Y00641553D01*
X00496651Y00642200D01*
D02*
G37*
G36*
X00471251D02*
X00468749D01*
X00466333Y00641553D01*
X00464167Y00640302D01*
X00462398Y00638533D01*
X00461147Y00636367D01*
X00460500Y00633951D01*
Y00631449D01*
X00461147Y00629033D01*
X00462398Y00626867D01*
X00464167Y00625098D01*
X00466333Y00623848D01*
X00468749Y00623200D01*
X00471251D01*
X00473667Y00623848D01*
X00475833Y00625098D01*
X00477602Y00626867D01*
X00478853Y00629033D01*
X00479500Y00631449D01*
Y00633951D01*
X00478853Y00636367D01*
X00477602Y00638533D01*
X00475833Y00640302D01*
X00473667Y00641553D01*
X00471251Y00642200D01*
D02*
G37*
G36*
X00445851D02*
X00443349D01*
X00440933Y00641553D01*
X00438767Y00640302D01*
X00436998Y00638533D01*
X00435747Y00636367D01*
X00435100Y00633951D01*
Y00631449D01*
X00435747Y00629033D01*
X00436998Y00626867D01*
X00438767Y00625098D01*
X00440933Y00623848D01*
X00443349Y00623200D01*
X00445851D01*
X00448267Y00623848D01*
X00450433Y00625098D01*
X00452202Y00626867D01*
X00453452Y00629033D01*
X00454100Y00631449D01*
Y00633951D01*
X00453452Y00636367D01*
X00452202Y00638533D01*
X00450433Y00640302D01*
X00448267Y00641553D01*
X00445851Y00642200D01*
D02*
G37*
G36*
X00272000Y00741721D02*
X00187000D01*
X00185576Y00741438D01*
X00184368Y00740631D01*
X00184368Y00740631D01*
X00136459Y00692721D01*
X00058000D01*
X00058000Y00692721D01*
X00056576Y00692438D01*
X00055368Y00691631D01*
X00047368Y00683632D01*
X00046562Y00682424D01*
X00046279Y00681000D01*
Y00537000D01*
X00046562Y00535576D01*
X00047368Y00534369D01*
X00055368Y00526368D01*
X00056576Y00525562D01*
X00058000Y00525279D01*
X00058000Y00525279D01*
X00071459D01*
X00074231Y00522506D01*
X00073600Y00520151D01*
Y00517649D01*
X00074247Y00515233D01*
X00075498Y00513067D01*
X00077267Y00511298D01*
X00079433Y00510047D01*
X00081849Y00509400D01*
X00084351D01*
X00086767Y00510047D01*
X00088933Y00511298D01*
X00090702Y00513067D01*
X00091952Y00515233D01*
X00092600Y00517649D01*
Y00520151D01*
X00091952Y00522567D01*
X00090702Y00524733D01*
X00088933Y00526502D01*
X00086767Y00527753D01*
X00084351Y00528400D01*
X00081849D01*
X00079494Y00527769D01*
X00075631Y00531632D01*
X00075618Y00531771D01*
X00079345Y00535498D01*
X00079433Y00535447D01*
X00081849Y00534800D01*
X00084351D01*
X00086767Y00535447D01*
X00088933Y00536698D01*
X00090702Y00538467D01*
X00091952Y00540633D01*
X00092600Y00543049D01*
Y00545551D01*
X00091952Y00547967D01*
X00090702Y00550133D01*
X00088933Y00551902D01*
X00086767Y00553153D01*
X00084351Y00553800D01*
X00081849D01*
X00079433Y00553153D01*
X00077267Y00551902D01*
X00075498Y00550133D01*
X00074247Y00547967D01*
X00073600Y00545551D01*
Y00543049D01*
X00074247Y00540633D01*
X00074298Y00540545D01*
X00071472Y00537719D01*
X00062328D01*
X00059569Y00540478D01*
Y00676522D01*
X00062478Y00679431D01*
X00073835D01*
X00074514Y00678161D01*
X00073934Y00677293D01*
X00073487Y00675050D01*
Y00667550D01*
X00073934Y00665306D01*
X00075205Y00663404D01*
X00077106Y00662134D01*
X00079350Y00661687D01*
X00086850D01*
X00087530Y00661823D01*
X00127431Y00621922D01*
Y00608275D01*
X00126258Y00607789D01*
X00091902Y00642145D01*
X00091952Y00642233D01*
X00092600Y00644649D01*
Y00647151D01*
X00091952Y00649567D01*
X00090702Y00651733D01*
X00088933Y00653502D01*
X00086767Y00654753D01*
X00084351Y00655400D01*
X00081849D01*
X00079433Y00654753D01*
X00077267Y00653502D01*
X00075498Y00651733D01*
X00074247Y00649567D01*
X00073600Y00647151D01*
Y00644649D01*
X00074247Y00642233D01*
X00075498Y00640067D01*
X00077267Y00638298D01*
X00079433Y00637047D01*
X00081849Y00636400D01*
X00084351D01*
X00086767Y00637047D01*
X00086855Y00637098D01*
X00121431Y00602522D01*
Y00476000D01*
X00121703Y00474634D01*
X00122477Y00473477D01*
X00163431Y00432522D01*
Y00349856D01*
X00162549Y00348974D01*
X00161750Y00347044D01*
Y00344956D01*
X00162549Y00343026D01*
X00164026Y00341549D01*
X00165956Y00340750D01*
X00168044D01*
X00169974Y00341549D01*
X00171451Y00343026D01*
X00172250Y00344956D01*
Y00347044D01*
X00171451Y00348974D01*
X00171193Y00349231D01*
X00171265Y00349594D01*
X00171318Y00349661D01*
X00172695Y00350272D01*
X00173956Y00349750D01*
X00176044D01*
X00177974Y00350549D01*
X00179451Y00352026D01*
X00180250Y00353956D01*
Y00356044D01*
X00179451Y00357974D01*
X00178569Y00358856D01*
Y00434000D01*
X00178297Y00435366D01*
X00177523Y00436523D01*
X00134569Y00479478D01*
Y00623400D01*
X00134297Y00624766D01*
X00133523Y00625923D01*
X00092577Y00666870D01*
X00092713Y00667550D01*
Y00675050D01*
X00092266Y00677293D01*
X00091686Y00678161D01*
X00092365Y00679431D01*
X00140000D01*
X00141366Y00679703D01*
X00142523Y00680477D01*
X00190478Y00728431D01*
X00268522D01*
X00275431Y00721522D01*
Y00664000D01*
X00275703Y00662634D01*
X00276477Y00661477D01*
X00288477Y00649477D01*
X00289634Y00648703D01*
X00291000Y00648431D01*
X00383522D01*
X00389373Y00642580D01*
X00389164Y00640993D01*
X00387967Y00640302D01*
X00386198Y00638533D01*
X00384947Y00636367D01*
X00384300Y00633951D01*
Y00631449D01*
X00384947Y00629033D01*
X00386198Y00626867D01*
X00387967Y00625098D01*
X00390133Y00623848D01*
X00392549Y00623200D01*
X00395051D01*
X00397467Y00623848D01*
X00399633Y00625098D01*
X00401008Y00626474D01*
X00402279Y00625948D01*
Y00621042D01*
X00397406Y00616169D01*
X00395051Y00616800D01*
X00392549D01*
X00390133Y00616153D01*
X00387967Y00614902D01*
X00386198Y00613133D01*
X00384947Y00610967D01*
X00384300Y00608551D01*
Y00606049D01*
X00384947Y00603633D01*
X00386198Y00601467D01*
X00387967Y00599698D01*
X00390133Y00598447D01*
X00392549Y00597800D01*
X00395051D01*
X00397467Y00598447D01*
X00399633Y00599698D01*
X00401402Y00601467D01*
X00402653Y00603633D01*
X00403300Y00606049D01*
Y00608551D01*
X00402669Y00610906D01*
X00408632Y00616869D01*
X00409438Y00618076D01*
X00409721Y00619500D01*
Y00627577D01*
X00410992Y00627918D01*
X00411598Y00626867D01*
X00413367Y00625098D01*
X00415533Y00623848D01*
X00417949Y00623200D01*
X00420451D01*
X00422867Y00623848D01*
X00425033Y00625098D01*
X00426802Y00626867D01*
X00428052Y00629033D01*
X00428700Y00631449D01*
Y00633951D01*
X00428052Y00636367D01*
X00426802Y00638533D01*
X00425033Y00640302D01*
X00422867Y00641553D01*
X00420451Y00642200D01*
X00417949D01*
X00415533Y00641553D01*
X00413367Y00640302D01*
X00411598Y00638533D01*
X00410992Y00637482D01*
X00409721Y00637823D01*
Y00639000D01*
X00409438Y00640424D01*
X00408632Y00641631D01*
X00389632Y00660631D01*
X00388424Y00661438D01*
X00387000Y00661721D01*
X00295541D01*
X00288722Y00668541D01*
Y00725000D01*
X00288438Y00726424D01*
X00287631Y00727632D01*
X00274632Y00740631D01*
X00273424Y00741438D01*
X00272000Y00741721D01*
D02*
G37*
G36*
X00547451Y00616800D02*
X00544949D01*
X00542533Y00616153D01*
X00540367Y00614902D01*
X00538598Y00613133D01*
X00537347Y00610967D01*
X00536700Y00608551D01*
Y00606049D01*
X00537347Y00603633D01*
X00538598Y00601467D01*
X00540367Y00599698D01*
X00542533Y00598447D01*
X00544949Y00597800D01*
X00547451D01*
X00549867Y00598447D01*
X00552033Y00599698D01*
X00553802Y00601467D01*
X00555052Y00603633D01*
X00555700Y00606049D01*
Y00608551D01*
X00555052Y00610967D01*
X00553802Y00613133D01*
X00552033Y00614902D01*
X00549867Y00616153D01*
X00547451Y00616800D01*
D02*
G37*
G36*
X00522051D02*
X00519549D01*
X00517133Y00616153D01*
X00514967Y00614902D01*
X00513198Y00613133D01*
X00511947Y00610967D01*
X00511300Y00608551D01*
Y00606049D01*
X00511947Y00603633D01*
X00513198Y00601467D01*
X00514967Y00599698D01*
X00517133Y00598447D01*
X00519549Y00597800D01*
X00522051D01*
X00524467Y00598447D01*
X00526633Y00599698D01*
X00528402Y00601467D01*
X00529652Y00603633D01*
X00530300Y00606049D01*
Y00608551D01*
X00529652Y00610967D01*
X00528402Y00613133D01*
X00526633Y00614902D01*
X00524467Y00616153D01*
X00522051Y00616800D01*
D02*
G37*
G36*
X00496651D02*
X00494149D01*
X00491733Y00616153D01*
X00489567Y00614902D01*
X00487798Y00613133D01*
X00486547Y00610967D01*
X00485900Y00608551D01*
Y00606049D01*
X00486547Y00603633D01*
X00487798Y00601467D01*
X00489567Y00599698D01*
X00491733Y00598447D01*
X00494149Y00597800D01*
X00496651D01*
X00499067Y00598447D01*
X00501233Y00599698D01*
X00503002Y00601467D01*
X00504253Y00603633D01*
X00504900Y00606049D01*
Y00608551D01*
X00504253Y00610967D01*
X00503002Y00613133D01*
X00501233Y00614902D01*
X00499067Y00616153D01*
X00496651Y00616800D01*
D02*
G37*
G36*
X00445851D02*
X00443349D01*
X00440933Y00616153D01*
X00438767Y00614902D01*
X00436998Y00613133D01*
X00435747Y00610967D01*
X00435100Y00608551D01*
Y00606049D01*
X00435747Y00603633D01*
X00436998Y00601467D01*
X00438767Y00599698D01*
X00440933Y00598447D01*
X00443349Y00597800D01*
X00445851D01*
X00448267Y00598447D01*
X00450433Y00599698D01*
X00452202Y00601467D01*
X00453452Y00603633D01*
X00454100Y00606049D01*
Y00608551D01*
X00453452Y00610967D01*
X00452202Y00613133D01*
X00450433Y00614902D01*
X00448267Y00616153D01*
X00445851Y00616800D01*
D02*
G37*
G36*
X00420451D02*
X00417949D01*
X00415533Y00616153D01*
X00413367Y00614902D01*
X00411598Y00613133D01*
X00410347Y00610967D01*
X00409700Y00608551D01*
Y00606049D01*
X00410347Y00603633D01*
X00411598Y00601467D01*
X00413367Y00599698D01*
X00415533Y00598447D01*
X00417949Y00597800D01*
X00420451D01*
X00422867Y00598447D01*
X00425033Y00599698D01*
X00426802Y00601467D01*
X00428052Y00603633D01*
X00428700Y00606049D01*
Y00608551D01*
X00428052Y00610967D01*
X00426802Y00613133D01*
X00425033Y00614902D01*
X00422867Y00616153D01*
X00420451Y00616800D01*
D02*
G37*
G36*
X00572851Y00616800D02*
X00570349D01*
X00567933Y00616153D01*
X00565767Y00614902D01*
X00563998Y00613133D01*
X00562747Y00610967D01*
X00562100Y00608551D01*
Y00606049D01*
X00562747Y00603633D01*
X00563998Y00601467D01*
X00565767Y00599698D01*
X00567933Y00598447D01*
X00570349Y00597800D01*
X00572851D01*
X00575267Y00598447D01*
X00577433Y00599698D01*
X00579202Y00601467D01*
X00580452Y00603633D01*
X00581100Y00606049D01*
Y00608551D01*
X00580452Y00610967D01*
X00579202Y00613133D01*
X00577433Y00614902D01*
X00575267Y00616153D01*
X00572851Y00616800D01*
D02*
G37*
G36*
X00471251D02*
X00468749D01*
X00466333Y00616153D01*
X00464167Y00614902D01*
X00462398Y00613133D01*
X00461147Y00610967D01*
X00460500Y00608551D01*
Y00606049D01*
X00461147Y00603633D01*
X00462398Y00601467D01*
X00464167Y00599698D01*
X00466333Y00598447D01*
X00468749Y00597800D01*
X00471251D01*
X00473667Y00598447D01*
X00475833Y00599698D01*
X00477602Y00601467D01*
X00478853Y00603633D01*
X00479500Y00606049D01*
Y00608551D01*
X00478853Y00610967D01*
X00477602Y00613133D01*
X00475833Y00614902D01*
X00473667Y00616153D01*
X00471251Y00616800D01*
D02*
G37*
G36*
X00858151Y00604600D02*
X00855649D01*
X00853233Y00603953D01*
X00851067Y00602702D01*
X00849298Y00600933D01*
X00848047Y00598767D01*
X00847400Y00596351D01*
Y00593849D01*
X00848047Y00591433D01*
X00849298Y00589267D01*
X00851067Y00587498D01*
X00853233Y00586247D01*
X00855649Y00585600D01*
X00858151D01*
X00860567Y00586247D01*
X00862733Y00587498D01*
X00864502Y00589267D01*
X00865753Y00591433D01*
X00866400Y00593849D01*
Y00596351D01*
X00865753Y00598767D01*
X00864502Y00600933D01*
X00862733Y00602702D01*
X00860567Y00603953D01*
X00858151Y00604600D01*
D02*
G37*
G36*
X00680351Y00604600D02*
X00677849D01*
X00675433Y00603953D01*
X00673267Y00602702D01*
X00671498Y00600933D01*
X00670247Y00598767D01*
X00669600Y00596351D01*
Y00593849D01*
X00670247Y00591433D01*
X00671498Y00589267D01*
X00673267Y00587498D01*
X00675433Y00586247D01*
X00677849Y00585600D01*
X00680351D01*
X00682767Y00586247D01*
X00684933Y00587498D01*
X00686702Y00589267D01*
X00687953Y00591433D01*
X00688600Y00593849D01*
Y00596351D01*
X00687953Y00598767D01*
X00686702Y00600933D01*
X00684933Y00602702D01*
X00682767Y00603953D01*
X00680351Y00604600D01*
D02*
G37*
G36*
X00262151Y00604600D02*
X00259649D01*
X00257233Y00603953D01*
X00255067Y00602702D01*
X00253298Y00600933D01*
X00252047Y00598767D01*
X00251400Y00596351D01*
Y00593849D01*
X00252047Y00591433D01*
X00253298Y00589267D01*
X00255067Y00587498D01*
X00257233Y00586247D01*
X00259649Y00585600D01*
X00262151D01*
X00264567Y00586247D01*
X00266733Y00587498D01*
X00268502Y00589267D01*
X00269753Y00591433D01*
X00270400Y00593849D01*
Y00596351D01*
X00269753Y00598767D01*
X00268502Y00600933D01*
X00266733Y00602702D01*
X00264567Y00603953D01*
X00262151Y00604600D01*
D02*
G37*
G36*
X00897500Y00586118D02*
X00896909Y00586000D01*
X00891500D01*
Y00580591D01*
X00891382Y00580000D01*
Y00571401D01*
X00881000D01*
Y00573882D01*
X00881591Y00574000D01*
X00887000D01*
Y00579409D01*
X00887117Y00580000D01*
X00887000Y00580591D01*
Y00586000D01*
X00881591D01*
X00881000Y00586118D01*
X00867200D01*
X00864859Y00585652D01*
X00862874Y00584326D01*
X00857748Y00579200D01*
X00855649D01*
X00853233Y00578553D01*
X00851067Y00577302D01*
X00849298Y00575533D01*
X00848047Y00573367D01*
X00847400Y00570951D01*
Y00568449D01*
X00848047Y00566033D01*
X00849298Y00563867D01*
X00851067Y00562098D01*
X00853233Y00560848D01*
X00854000Y00560642D01*
Y00553358D01*
X00853233Y00553153D01*
X00851067Y00551902D01*
X00849298Y00550133D01*
X00848047Y00547967D01*
X00847400Y00545551D01*
Y00543049D01*
X00848047Y00540633D01*
X00849298Y00538467D01*
X00851067Y00536698D01*
X00853233Y00535448D01*
X00855649Y00534800D01*
X00858151D01*
X00860567Y00535448D01*
X00862733Y00536698D01*
X00864502Y00538467D01*
X00865753Y00540633D01*
X00866400Y00543049D01*
Y00545149D01*
X00880418Y00559166D01*
X00898784D01*
X00900462Y00559500D01*
X00905750D01*
Y00571500D01*
X00903617D01*
Y00580000D01*
X00903500Y00580591D01*
Y00586000D01*
X00898091D01*
X00897500Y00586118D01*
D02*
G37*
G36*
X00262151Y00579200D02*
X00259649D01*
X00257233Y00578553D01*
X00255067Y00577302D01*
X00253298Y00575533D01*
X00252047Y00573367D01*
X00251400Y00570951D01*
Y00568449D01*
X00252047Y00566033D01*
X00253298Y00563867D01*
X00255067Y00562098D01*
X00257233Y00560847D01*
X00259649Y00560200D01*
X00262151D01*
X00264567Y00560847D01*
X00266733Y00562098D01*
X00268502Y00563867D01*
X00269753Y00566033D01*
X00270400Y00568449D01*
Y00570951D01*
X00269753Y00573367D01*
X00268502Y00575533D01*
X00266733Y00577302D01*
X00264567Y00578553D01*
X00262151Y00579200D01*
D02*
G37*
G36*
X00925750Y00562000D02*
X00912250D01*
Y00550000D01*
X00925750D01*
Y00562000D01*
D02*
G37*
G36*
X00084351Y00604600D02*
X00081849D01*
X00079433Y00603953D01*
X00077267Y00602702D01*
X00075498Y00600933D01*
X00074247Y00598767D01*
X00073600Y00596351D01*
Y00593849D01*
X00074247Y00591433D01*
X00075498Y00589267D01*
X00077267Y00587498D01*
X00079433Y00586247D01*
X00081849Y00585600D01*
X00084351D01*
X00086767Y00586247D01*
X00086855Y00586298D01*
X00109431Y00563722D01*
Y00550075D01*
X00108258Y00549589D01*
X00091902Y00565945D01*
X00091952Y00566033D01*
X00092600Y00568449D01*
Y00570951D01*
X00091952Y00573367D01*
X00090702Y00575533D01*
X00088933Y00577302D01*
X00086767Y00578553D01*
X00084351Y00579200D01*
X00081849D01*
X00079433Y00578553D01*
X00077267Y00577302D01*
X00075498Y00575533D01*
X00074247Y00573367D01*
X00073600Y00570951D01*
Y00568449D01*
X00074247Y00566033D01*
X00075498Y00563867D01*
X00077267Y00562098D01*
X00079433Y00560847D01*
X00081849Y00560200D01*
X00084351D01*
X00086767Y00560847D01*
X00086855Y00560898D01*
X00104431Y00543322D01*
Y00387856D01*
X00103549Y00386974D01*
X00102750Y00385044D01*
Y00382956D01*
X00103549Y00381026D01*
X00105026Y00379549D01*
X00106956Y00378750D01*
X00109044D01*
X00110974Y00379549D01*
X00112451Y00381026D01*
X00113250Y00382956D01*
Y00384907D01*
X00113600Y00385189D01*
X00114423Y00385530D01*
X00115750Y00384203D01*
Y00382956D01*
X00116549Y00381026D01*
X00118026Y00379549D01*
X00119956Y00378750D01*
X00122044D01*
X00123974Y00379549D01*
X00125451Y00381026D01*
X00126250Y00382956D01*
Y00385044D01*
X00125451Y00386974D01*
X00123974Y00388451D01*
X00122044Y00389250D01*
X00120797D01*
X00116569Y00393478D01*
Y00546871D01*
Y00565200D01*
X00116297Y00566566D01*
X00115523Y00567723D01*
X00091902Y00591345D01*
X00091952Y00591433D01*
X00092600Y00593849D01*
Y00596351D01*
X00091952Y00598767D01*
X00090702Y00600933D01*
X00088933Y00602702D01*
X00086767Y00603953D01*
X00084351Y00604600D01*
D02*
G37*
G36*
X00279000Y00761569D02*
X00183000D01*
X00181634Y00761297D01*
X00180477Y00760523D01*
X00128522Y00708569D01*
X00050000D01*
X00048634Y00708297D01*
X00047477Y00707523D01*
X00031477Y00691523D01*
X00030703Y00690366D01*
X00030431Y00689000D01*
Y00400750D01*
X00030703Y00399384D01*
X00031477Y00398227D01*
X00036750Y00392953D01*
Y00386000D01*
X00048750D01*
Y00398000D01*
X00041797D01*
X00037569Y00402228D01*
Y00411000D01*
X00048750D01*
Y00423000D01*
X00044225D01*
X00042569Y00671014D01*
Y00684522D01*
X00054478Y00696431D01*
X00133000D01*
X00134366Y00696703D01*
X00135523Y00697477D01*
X00186478Y00748431D01*
X00275037D01*
X00306991Y00716477D01*
X00308149Y00715703D01*
X00309515Y00715431D01*
X00648036Y00715431D01*
X00653431Y00710036D01*
Y00545000D01*
X00653703Y00543634D01*
X00654477Y00542477D01*
X00667477Y00529477D01*
X00668634Y00528703D01*
X00670000Y00528431D01*
X00674069D01*
X00674409Y00527161D01*
X00673267Y00526502D01*
X00671498Y00524733D01*
X00670247Y00522567D01*
X00669600Y00520151D01*
Y00517649D01*
X00670247Y00515233D01*
X00671498Y00513067D01*
X00673267Y00511298D01*
X00675433Y00510047D01*
X00677849Y00509400D01*
X00680351D01*
X00682767Y00510047D01*
X00684933Y00511298D01*
X00686702Y00513067D01*
X00687953Y00515233D01*
X00688600Y00517649D01*
Y00519557D01*
X00689870Y00520083D01*
X00693477Y00516477D01*
X00694634Y00515703D01*
X00696000Y00515431D01*
X00728144D01*
X00729026Y00514549D01*
X00730956Y00513750D01*
X00733044D01*
X00734974Y00514549D01*
X00736451Y00516026D01*
X00737250Y00517956D01*
Y00520044D01*
X00736451Y00521974D01*
X00734974Y00523451D01*
X00733044Y00524250D01*
X00730956D01*
X00729026Y00523451D01*
X00728144Y00522569D01*
X00697478D01*
X00685523Y00534523D01*
X00684681Y00535086D01*
X00684557Y00536167D01*
X00684637Y00536527D01*
X00684933Y00536698D01*
X00686702Y00538467D01*
X00687953Y00540633D01*
X00688600Y00543049D01*
Y00545551D01*
X00688598Y00545560D01*
X00689736Y00546217D01*
X00694477Y00541477D01*
X00695634Y00540703D01*
X00697000Y00540431D01*
X00728144D01*
X00729026Y00539549D01*
X00730956Y00538750D01*
X00733044D01*
X00734974Y00539549D01*
X00736451Y00541026D01*
X00737250Y00542956D01*
Y00545044D01*
X00736451Y00546974D01*
X00734974Y00548451D01*
X00733044Y00549250D01*
X00730956D01*
X00729026Y00548451D01*
X00728144Y00547569D01*
X00698478D01*
X00686523Y00559523D01*
X00685366Y00560297D01*
X00684613Y00560447D01*
X00684392Y00561786D01*
X00684933Y00562098D01*
X00686702Y00563867D01*
X00687953Y00566033D01*
X00688600Y00568449D01*
Y00570951D01*
X00687953Y00573367D01*
X00686702Y00575533D01*
X00684933Y00577302D01*
X00682767Y00578553D01*
X00680351Y00579200D01*
X00677849D01*
X00675433Y00578553D01*
X00673267Y00577302D01*
X00671498Y00575533D01*
X00670247Y00573367D01*
X00669600Y00570951D01*
Y00568449D01*
X00670042Y00566801D01*
X00668903Y00566144D01*
X00666569Y00568478D01*
Y00714000D01*
X00666297Y00715366D01*
X00665523Y00716523D01*
X00654523Y00727523D01*
X00653366Y00728297D01*
X00652000Y00728568D01*
X00313478Y00728569D01*
X00281523Y00760523D01*
X00280366Y00761297D01*
X00279000Y00761569D01*
D02*
G37*
G36*
X00617440Y00598700D02*
X00612560D01*
X00607741Y00597937D01*
X00603100Y00596429D01*
X00598752Y00594214D01*
X00594805Y00591345D01*
X00591354Y00587895D01*
X00588486Y00583948D01*
X00586271Y00579600D01*
X00584763Y00574959D01*
X00584000Y00570140D01*
Y00565260D01*
X00584763Y00560441D01*
X00586271Y00555800D01*
X00588486Y00551452D01*
X00591354Y00547505D01*
X00594805Y00544055D01*
X00598752Y00541186D01*
X00603100Y00538971D01*
X00607741Y00537463D01*
X00612560Y00536700D01*
X00617440D01*
X00622259Y00537463D01*
X00626900Y00538971D01*
X00631247Y00541186D01*
X00635195Y00544055D01*
X00638645Y00547505D01*
X00641514Y00551452D01*
X00643729Y00555800D01*
X00645237Y00560441D01*
X00646000Y00565260D01*
Y00570140D01*
X00645237Y00574959D01*
X00643729Y00579600D01*
X00641514Y00583948D01*
X00638645Y00587895D01*
X00635195Y00591345D01*
X00631247Y00594214D01*
X00626900Y00596429D01*
X00622259Y00597937D01*
X00617440Y00598700D01*
D02*
G37*
G36*
X00327440D02*
X00322560D01*
X00317741Y00597937D01*
X00313100Y00596429D01*
X00308752Y00594214D01*
X00304805Y00591345D01*
X00301355Y00587895D01*
X00298486Y00583948D01*
X00296271Y00579600D01*
X00294763Y00574959D01*
X00294000Y00570140D01*
Y00565260D01*
X00294763Y00560441D01*
X00296271Y00555800D01*
X00298486Y00551452D01*
X00301355Y00547505D01*
X00304805Y00544055D01*
X00308752Y00541186D01*
X00313100Y00538971D01*
X00317741Y00537463D01*
X00322560Y00536700D01*
X00327440D01*
X00332259Y00537463D01*
X00336900Y00538971D01*
X00341247Y00541186D01*
X00345195Y00544055D01*
X00348645Y00547505D01*
X00351513Y00551452D01*
X00353729Y00555800D01*
X00355237Y00560441D01*
X00356000Y00565260D01*
Y00570140D01*
X00355237Y00574959D01*
X00353729Y00579600D01*
X00351513Y00583948D01*
X00348645Y00587895D01*
X00345195Y00591345D01*
X00341247Y00594214D01*
X00336900Y00596429D01*
X00332259Y00597937D01*
X00327440Y00598700D01*
D02*
G37*
G36*
X00262151Y00553800D02*
X00259649D01*
X00257233Y00553153D01*
X00255067Y00551902D01*
X00253298Y00550133D01*
X00252047Y00547967D01*
X00251400Y00545551D01*
Y00543049D01*
X00252047Y00540633D01*
X00253298Y00538467D01*
X00255067Y00536698D01*
X00257233Y00535447D01*
X00259649Y00534800D01*
X00262151D01*
X00264567Y00535447D01*
X00266733Y00536698D01*
X00268502Y00538467D01*
X00269753Y00540633D01*
X00270400Y00543049D01*
Y00545551D01*
X00269753Y00547967D01*
X00268502Y00550133D01*
X00266733Y00551902D01*
X00264567Y00553153D01*
X00262151Y00553800D01*
D02*
G37*
G36*
X00372150Y00616913D02*
X00364650D01*
X00362406Y00616466D01*
X00360504Y00615196D01*
X00359234Y00613293D01*
X00358787Y00611050D01*
Y00603550D01*
X00359234Y00601306D01*
X00360504Y00599404D01*
X00361340Y00598847D01*
Y00574600D01*
X00361580Y00572773D01*
X00362285Y00571070D01*
X00363408Y00569608D01*
X00395940Y00537076D01*
Y00514039D01*
X00380000D01*
X00379220Y00513884D01*
X00378558Y00513442D01*
X00377442D01*
X00376780Y00513884D01*
X00376000Y00514039D01*
X00362039D01*
Y00527000D01*
X00361884Y00527780D01*
X00361442Y00528442D01*
X00360780Y00528884D01*
X00360000Y00529039D01*
X00344000D01*
X00343220Y00528884D01*
X00343020Y00528751D01*
X00341750Y00529000D01*
Y00529000D01*
X00336341D01*
X00335750Y00529118D01*
X00335159Y00529000D01*
X00329750D01*
Y00525441D01*
X00328848Y00524091D01*
X00328382Y00521750D01*
Y00506868D01*
X00319000D01*
X00318409Y00506750D01*
X00313000D01*
Y00501341D01*
X00312882Y00500750D01*
Y00485250D01*
X00313000Y00484659D01*
Y00479309D01*
X00312857Y00478039D01*
X00296000Y00478039D01*
X00295220Y00477884D01*
X00294558Y00477442D01*
X00294116Y00476780D01*
X00293961Y00476000D01*
Y00461000D01*
X00294116Y00460220D01*
X00294558Y00459558D01*
X00295220Y00459116D01*
X00296000Y00458961D01*
X00331000D01*
X00331000Y00458961D01*
X00331780Y00459116D01*
X00332442Y00459558D01*
X00332442Y00459558D01*
X00340442Y00467558D01*
X00340884Y00468220D01*
X00341039Y00469000D01*
Y00470961D01*
X00376000D01*
X00376780Y00471116D01*
X00377442Y00471558D01*
X00377884Y00472220D01*
X00378039Y00473000D01*
Y00483377D01*
X00379181Y00484092D01*
X00379309Y00484098D01*
X00380000Y00483961D01*
X00410000D01*
X00410780Y00484116D01*
X00411442Y00484558D01*
X00411884Y00485220D01*
X00412039Y00486000D01*
Y00488662D01*
X00544608Y00488662D01*
X00546206Y00488000D01*
X00548294D01*
X00550224Y00488799D01*
X00551701Y00490276D01*
X00552500Y00492206D01*
Y00494294D01*
X00551701Y00496224D01*
X00550224Y00497701D01*
X00548294Y00498500D01*
X00546206D01*
X00544608Y00497838D01*
X00412039Y00497838D01*
Y00512000D01*
X00411884Y00512780D01*
X00411442Y00513442D01*
X00410780Y00513884D01*
X00410060Y00514027D01*
Y00540000D01*
X00409820Y00541827D01*
X00409114Y00543530D01*
X00407993Y00544992D01*
X00375460Y00577525D01*
Y00598847D01*
X00376295Y00599404D01*
X00377566Y00601306D01*
X00378013Y00603550D01*
Y00611050D01*
X00377566Y00613293D01*
X00376295Y00615196D01*
X00374394Y00616466D01*
X00372150Y00616913D01*
D02*
G37*
G36*
X00262151Y00528400D02*
X00259649D01*
X00257233Y00527753D01*
X00255067Y00526502D01*
X00253298Y00524733D01*
X00252047Y00522567D01*
X00251400Y00520151D01*
Y00517649D01*
X00252047Y00515233D01*
X00253298Y00513067D01*
X00255067Y00511298D01*
X00257233Y00510047D01*
X00259649Y00509400D01*
X00262151D01*
X00264567Y00510047D01*
X00266733Y00511298D01*
X00268097Y00512662D01*
X00313000D01*
Y00511250D01*
X00325000D01*
Y00523250D01*
X00313000D01*
Y00521838D01*
X00269948D01*
X00269753Y00522567D01*
X00268502Y00524733D01*
X00266733Y00526502D01*
X00264567Y00527753D01*
X00262151Y00528400D01*
D02*
G37*
G36*
X00858151D02*
X00855649D01*
X00853233Y00527753D01*
X00851067Y00526502D01*
X00849298Y00524733D01*
X00848047Y00522567D01*
X00847400Y00520151D01*
Y00517649D01*
X00848047Y00515233D01*
X00849298Y00513067D01*
X00851067Y00511298D01*
X00853233Y00510047D01*
X00855649Y00509400D01*
X00858151D01*
X00860567Y00510047D01*
X00862733Y00511298D01*
X00864502Y00513067D01*
X00865753Y00515233D01*
X00866400Y00517649D01*
Y00520151D01*
X00865753Y00522567D01*
X00864502Y00524733D01*
X00862733Y00526502D01*
X00860567Y00527753D01*
X00858151Y00528400D01*
D02*
G37*
G36*
X00858151Y00477600D02*
X00855649D01*
X00853233Y00476953D01*
X00851067Y00475702D01*
X00849298Y00473933D01*
X00848047Y00471767D01*
X00847400Y00469351D01*
Y00466849D01*
X00848047Y00464433D01*
X00849298Y00462267D01*
X00851067Y00460498D01*
X00853233Y00459248D01*
X00855649Y00458600D01*
X00858151D01*
X00860567Y00459248D01*
X00862733Y00460498D01*
X00864502Y00462267D01*
X00865753Y00464433D01*
X00866400Y00466849D01*
Y00469351D01*
X00865753Y00471767D01*
X00864502Y00473933D01*
X00862733Y00475702D01*
X00860567Y00476953D01*
X00858151Y00477600D01*
D02*
G37*
G36*
X00680351D02*
X00677849D01*
X00675433Y00476953D01*
X00673267Y00475702D01*
X00671498Y00473933D01*
X00670247Y00471767D01*
X00669600Y00469351D01*
Y00466849D01*
X00670247Y00464433D01*
X00671498Y00462267D01*
X00673267Y00460498D01*
X00675433Y00459248D01*
X00677849Y00458600D01*
X00680351D01*
X00682767Y00459248D01*
X00684933Y00460498D01*
X00686702Y00462267D01*
X00687953Y00464433D01*
X00688600Y00466849D01*
Y00469351D01*
X00687953Y00471767D01*
X00686702Y00473933D01*
X00684933Y00475702D01*
X00682767Y00476953D01*
X00680351Y00477600D01*
D02*
G37*
G36*
X00084351Y00477600D02*
X00081849D01*
X00079433Y00476953D01*
X00077267Y00475702D01*
X00075498Y00473933D01*
X00074247Y00471767D01*
X00073600Y00469351D01*
Y00466849D01*
X00074247Y00464433D01*
X00075498Y00462267D01*
X00077267Y00460498D01*
X00079433Y00459247D01*
X00081849Y00458600D01*
X00084351D01*
X00086767Y00459247D01*
X00088933Y00460498D01*
X00090702Y00462267D01*
X00091952Y00464433D01*
X00092600Y00466849D01*
Y00469351D01*
X00091952Y00471767D01*
X00090702Y00473933D01*
X00088933Y00475702D01*
X00086767Y00476953D01*
X00084351Y00477600D01*
D02*
G37*
G36*
X00548044Y00539250D02*
X00545956D01*
X00544026Y00538451D01*
X00542549Y00536974D01*
X00541750Y00535044D01*
Y00532956D01*
X00542549Y00531026D01*
X00544026Y00529549D01*
X00545956Y00528750D01*
X00548044D01*
X00549974Y00529549D01*
X00550856Y00530432D01*
X00576522D01*
X00587431Y00519522D01*
Y00483478D01*
X00553522Y00449569D01*
X00284478D01*
X00269702Y00464345D01*
X00269753Y00464433D01*
X00270400Y00466849D01*
Y00469351D01*
X00269753Y00471767D01*
X00268502Y00473933D01*
X00266733Y00475702D01*
X00264567Y00476953D01*
X00262151Y00477600D01*
X00259649D01*
X00257233Y00476953D01*
X00255067Y00475702D01*
X00253298Y00473933D01*
X00252047Y00471767D01*
X00251400Y00469351D01*
Y00466849D01*
X00252047Y00464433D01*
X00253298Y00462267D01*
X00255067Y00460498D01*
X00257233Y00459247D01*
X00259649Y00458600D01*
X00262151D01*
X00264567Y00459247D01*
X00264655Y00459298D01*
X00280477Y00443477D01*
X00281634Y00442703D01*
X00283000Y00442431D01*
X00555000D01*
X00556366Y00442703D01*
X00557523Y00443477D01*
X00593523Y00479477D01*
X00594297Y00480634D01*
X00594569Y00482000D01*
Y00521000D01*
X00594297Y00522366D01*
X00593523Y00523523D01*
X00580523Y00536523D01*
X00579366Y00537297D01*
X00578000Y00537569D01*
X00550856D01*
X00549974Y00538451D01*
X00548044Y00539250D01*
D02*
G37*
G36*
X00680351Y00452200D02*
X00677849D01*
X00675433Y00451553D01*
X00673267Y00450302D01*
X00671498Y00448533D01*
X00670247Y00446367D01*
X00669600Y00443951D01*
Y00441449D01*
X00670247Y00439033D01*
X00671498Y00436867D01*
X00673267Y00435098D01*
X00675433Y00433848D01*
X00677849Y00433200D01*
X00680351D01*
X00682767Y00433848D01*
X00684933Y00435098D01*
X00686702Y00436867D01*
X00687953Y00439033D01*
X00688600Y00441449D01*
Y00443951D01*
X00687953Y00446367D01*
X00686702Y00448533D01*
X00684933Y00450302D01*
X00682767Y00451553D01*
X00680351Y00452200D01*
D02*
G37*
G36*
X00858151Y00452200D02*
X00855649D01*
X00853233Y00451553D01*
X00851067Y00450302D01*
X00849298Y00448533D01*
X00848047Y00446367D01*
X00847400Y00443951D01*
Y00441449D01*
X00848047Y00439033D01*
X00849298Y00436867D01*
X00851067Y00435098D01*
X00853233Y00433848D01*
X00855649Y00433200D01*
X00858151D01*
X00860567Y00433848D01*
X00862733Y00435098D01*
X00864502Y00436867D01*
X00865753Y00439033D01*
X00866400Y00441449D01*
Y00443951D01*
X00865753Y00446367D01*
X00864502Y00448533D01*
X00862733Y00450302D01*
X00860567Y00451553D01*
X00858151Y00452200D01*
D02*
G37*
G36*
X00262151Y00452200D02*
X00259649D01*
X00257233Y00451553D01*
X00255067Y00450302D01*
X00253298Y00448533D01*
X00252047Y00446367D01*
X00251400Y00443951D01*
Y00441449D01*
X00252047Y00439033D01*
X00253298Y00436867D01*
X00255067Y00435098D01*
X00257233Y00433847D01*
X00259649Y00433200D01*
X00262151D01*
X00264567Y00433847D01*
X00266733Y00435098D01*
X00268502Y00436867D01*
X00269753Y00439033D01*
X00270400Y00441449D01*
Y00443951D01*
X00269753Y00446367D01*
X00268502Y00448533D01*
X00266733Y00450302D01*
X00264567Y00451553D01*
X00262151Y00452200D01*
D02*
G37*
G36*
X00084351D02*
X00081849D01*
X00079433Y00451553D01*
X00077267Y00450302D01*
X00075498Y00448533D01*
X00074247Y00446367D01*
X00073600Y00443951D01*
Y00441449D01*
X00074247Y00439033D01*
X00075498Y00436867D01*
X00077267Y00435098D01*
X00079433Y00433847D01*
X00081849Y00433200D01*
X00084351D01*
X00086767Y00433847D01*
X00088933Y00435098D01*
X00090702Y00436867D01*
X00091952Y00439033D01*
X00092600Y00441449D01*
Y00443951D01*
X00091952Y00446367D01*
X00090702Y00448533D01*
X00088933Y00450302D01*
X00086767Y00451553D01*
X00084351Y00452200D01*
D02*
G37*
G36*
Y00426800D02*
X00081849D01*
X00079433Y00426153D01*
X00077267Y00424902D01*
X00075498Y00423133D01*
X00074247Y00420967D01*
X00074141Y00420569D01*
X00065250D01*
Y00423000D01*
X00053250D01*
Y00411000D01*
X00065250D01*
Y00413432D01*
X00074364D01*
X00075498Y00411467D01*
X00077267Y00409698D01*
X00079433Y00408447D01*
X00081849Y00407800D01*
X00084351D01*
X00086767Y00408447D01*
X00088933Y00409698D01*
X00090702Y00411467D01*
X00091952Y00413633D01*
X00092600Y00416049D01*
Y00418551D01*
X00091952Y00420967D01*
X00090702Y00423133D01*
X00088933Y00424902D01*
X00086767Y00426153D01*
X00084351Y00426800D01*
D02*
G37*
G36*
X00858151Y00426800D02*
X00855649D01*
X00853233Y00426153D01*
X00851067Y00424902D01*
X00849298Y00423133D01*
X00848047Y00420967D01*
X00847400Y00418551D01*
Y00416049D01*
X00848047Y00413633D01*
X00849298Y00411467D01*
X00851067Y00409698D01*
X00853233Y00408447D01*
X00855649Y00407800D01*
X00858151D01*
X00860567Y00408447D01*
X00862733Y00409698D01*
X00864502Y00411467D01*
X00865221Y00412712D01*
X00874750D01*
Y00412000D01*
X00886750D01*
Y00424000D01*
X00874750D01*
Y00421888D01*
X00865221D01*
X00864502Y00423133D01*
X00862733Y00424902D01*
X00860567Y00426153D01*
X00858151Y00426800D01*
D02*
G37*
G36*
X00680351Y00426800D02*
X00677849D01*
X00675433Y00426153D01*
X00673267Y00424902D01*
X00671498Y00423133D01*
X00670247Y00420967D01*
X00669600Y00418551D01*
Y00416049D01*
X00670247Y00413633D01*
X00671498Y00411467D01*
X00673267Y00409698D01*
X00675433Y00408447D01*
X00677849Y00407800D01*
X00680351D01*
X00682767Y00408447D01*
X00684933Y00409698D01*
X00686702Y00411467D01*
X00687953Y00413633D01*
X00688600Y00416049D01*
Y00418551D01*
X00687953Y00420967D01*
X00686702Y00423133D01*
X00684933Y00424902D01*
X00682767Y00426153D01*
X00680351Y00426800D01*
D02*
G37*
G36*
X00262151Y00426800D02*
X00259649D01*
X00257233Y00426153D01*
X00255067Y00424902D01*
X00253298Y00423133D01*
X00252047Y00420967D01*
X00251400Y00418551D01*
Y00416049D01*
X00252047Y00413633D01*
X00253298Y00411467D01*
X00255067Y00409698D01*
X00257233Y00408447D01*
X00259649Y00407800D01*
X00262151D01*
X00264567Y00408447D01*
X00266733Y00409698D01*
X00268502Y00411467D01*
X00269753Y00413633D01*
X00270400Y00416049D01*
Y00418551D01*
X00269753Y00420967D01*
X00268502Y00423133D01*
X00266733Y00424902D01*
X00264567Y00426153D01*
X00262151Y00426800D01*
D02*
G37*
G36*
X00897250Y00424118D02*
X00896659Y00424000D01*
X00891250D01*
Y00418591D01*
X00891132Y00418000D01*
Y00408250D01*
X00891598Y00405909D01*
X00892924Y00403924D01*
X00894909Y00402598D01*
X00897250Y00402132D01*
X00899591Y00402598D01*
X00901576Y00403924D01*
X00902902Y00405909D01*
X00903367Y00408250D01*
Y00418000D01*
X00903250Y00418591D01*
Y00424000D01*
X00897841D01*
X00897250Y00424118D01*
D02*
G37*
G36*
X00084351Y00401400D02*
X00081849D01*
X00079433Y00400753D01*
X00077267Y00399502D01*
X00075498Y00397733D01*
X00074248Y00395569D01*
X00065250D01*
Y00398000D01*
X00053250D01*
Y00386000D01*
X00065250D01*
Y00388432D01*
X00074194D01*
X00074247Y00388233D01*
X00075498Y00386067D01*
X00077267Y00384298D01*
X00079433Y00383047D01*
X00081849Y00382400D01*
X00084351D01*
X00086767Y00383047D01*
X00088933Y00384298D01*
X00090702Y00386067D01*
X00091952Y00388233D01*
X00092600Y00390649D01*
Y00393151D01*
X00091952Y00395567D01*
X00090702Y00397733D01*
X00088933Y00399502D01*
X00086767Y00400753D01*
X00084351Y00401400D01*
D02*
G37*
G36*
X00858151Y00401400D02*
X00855649D01*
X00853233Y00400753D01*
X00851067Y00399502D01*
X00849298Y00397733D01*
X00848047Y00395567D01*
X00847400Y00393151D01*
Y00390649D01*
X00848047Y00388233D01*
X00849298Y00386067D01*
X00851067Y00384298D01*
X00853233Y00383047D01*
X00855649Y00382400D01*
X00858151D01*
X00860567Y00383047D01*
X00862733Y00384298D01*
X00864502Y00386067D01*
X00865752Y00388233D01*
X00866400Y00390649D01*
Y00393151D01*
X00865752Y00395567D01*
X00864502Y00397733D01*
X00862733Y00399502D01*
X00860567Y00400753D01*
X00858151Y00401400D01*
D02*
G37*
G36*
X00680351D02*
X00677849D01*
X00675433Y00400753D01*
X00673267Y00399502D01*
X00671498Y00397733D01*
X00670247Y00395567D01*
X00669600Y00393151D01*
Y00390649D01*
X00670247Y00388233D01*
X00670298Y00388145D01*
X00660477Y00378323D01*
X00659703Y00377166D01*
X00659431Y00375800D01*
Y00220478D01*
X00647522Y00208569D01*
X00603856D01*
X00602974Y00209451D01*
X00601044Y00210250D01*
X00598956D01*
X00597026Y00209451D01*
X00595549Y00207974D01*
X00594750Y00206044D01*
Y00203956D01*
X00595549Y00202026D01*
X00597026Y00200549D01*
X00598956Y00199750D01*
X00601044D01*
X00602974Y00200549D01*
X00603856Y00201431D01*
X00649000D01*
X00650366Y00201703D01*
X00651523Y00202477D01*
X00665523Y00216477D01*
X00666297Y00217634D01*
X00666569Y00219000D01*
Y00374322D01*
X00675345Y00383098D01*
X00675433Y00383047D01*
X00677849Y00382400D01*
X00680351D01*
X00682767Y00383047D01*
X00684933Y00384298D01*
X00686702Y00386067D01*
X00687953Y00388233D01*
X00688600Y00390649D01*
Y00393151D01*
X00687953Y00395567D01*
X00686702Y00397733D01*
X00684933Y00399502D01*
X00682767Y00400753D01*
X00680351Y00401400D01*
D02*
G37*
G36*
X00262151Y00401400D02*
X00259649D01*
X00257233Y00400753D01*
X00255067Y00399502D01*
X00253298Y00397733D01*
X00252047Y00395567D01*
X00251400Y00393151D01*
Y00390649D01*
X00252047Y00388233D01*
X00253298Y00386067D01*
X00255067Y00384298D01*
X00257233Y00383047D01*
X00259649Y00382400D01*
X00262151D01*
X00264567Y00383047D01*
X00266733Y00384298D01*
X00268502Y00386067D01*
X00269753Y00388233D01*
X00270400Y00390649D01*
Y00393151D01*
X00269753Y00395567D01*
X00268502Y00397733D01*
X00266733Y00399502D01*
X00264567Y00400753D01*
X00262151Y00401400D01*
D02*
G37*
G36*
X00760044Y00365250D02*
X00757956D01*
X00756358Y00364588D01*
X00703642D01*
X00702044Y00365250D01*
X00699956D01*
X00698026Y00364451D01*
X00696549Y00362974D01*
X00695750Y00361044D01*
Y00358956D01*
X00696412Y00357358D01*
Y00298642D01*
X00695750Y00297044D01*
Y00294956D01*
X00696549Y00293026D01*
X00698026Y00291549D01*
X00699956Y00290750D01*
X00702044D01*
X00703974Y00291549D01*
X00705451Y00293026D01*
X00706250Y00294956D01*
Y00297044D01*
X00705588Y00298642D01*
Y00355412D01*
X00756358D01*
X00757956Y00354750D01*
X00760044D01*
X00761974Y00355549D01*
X00763451Y00357026D01*
X00764250Y00358956D01*
Y00361044D01*
X00763451Y00362974D01*
X00761974Y00364451D01*
X00760044Y00365250D01*
D02*
G37*
G36*
X00858151Y00350600D02*
X00855649D01*
X00853233Y00349953D01*
X00851067Y00348702D01*
X00849298Y00346933D01*
X00848047Y00344767D01*
X00847400Y00342351D01*
Y00339849D01*
X00848047Y00337433D01*
X00849298Y00335267D01*
X00851067Y00333498D01*
X00853233Y00332248D01*
X00855649Y00331600D01*
X00858151D01*
X00860567Y00332248D01*
X00862733Y00333498D01*
X00864502Y00335267D01*
X00865753Y00337433D01*
X00866400Y00339849D01*
Y00342351D01*
X00865753Y00344767D01*
X00864502Y00346933D01*
X00862733Y00348702D01*
X00860567Y00349953D01*
X00858151Y00350600D01*
D02*
G37*
G36*
X00680351D02*
X00677849D01*
X00675433Y00349953D01*
X00673267Y00348702D01*
X00671498Y00346933D01*
X00670247Y00344767D01*
X00669600Y00342351D01*
Y00339849D01*
X00670247Y00337433D01*
X00671498Y00335267D01*
X00673267Y00333498D01*
X00675433Y00332248D01*
X00677849Y00331600D01*
X00680351D01*
X00682767Y00332248D01*
X00684933Y00333498D01*
X00686702Y00335267D01*
X00687953Y00337433D01*
X00688600Y00339849D01*
Y00342351D01*
X00687953Y00344767D01*
X00686702Y00346933D01*
X00684933Y00348702D01*
X00682767Y00349953D01*
X00680351Y00350600D01*
D02*
G37*
G36*
X00262151Y00350600D02*
X00259649D01*
X00257233Y00349953D01*
X00255067Y00348702D01*
X00253298Y00346933D01*
X00252047Y00344767D01*
X00251400Y00342351D01*
Y00339849D01*
X00252047Y00337433D01*
X00253298Y00335267D01*
X00255067Y00333498D01*
X00257233Y00332247D01*
X00259649Y00331600D01*
X00262151D01*
X00264567Y00332247D01*
X00266733Y00333498D01*
X00268502Y00335267D01*
X00269753Y00337433D01*
X00270400Y00339849D01*
Y00342351D01*
X00269753Y00344767D01*
X00268502Y00346933D01*
X00266733Y00348702D01*
X00264567Y00349953D01*
X00262151Y00350600D01*
D02*
G37*
G36*
X00152044Y00414250D02*
X00149956D01*
X00148026Y00413451D01*
X00146549Y00411974D01*
X00145750Y00410044D01*
Y00407956D01*
X00146412Y00406358D01*
Y00364642D01*
X00145750Y00363044D01*
Y00360956D01*
X00146412Y00359358D01*
Y00323642D01*
X00145750Y00322044D01*
Y00319956D01*
X00146549Y00318026D01*
X00148026Y00316549D01*
X00149956Y00315750D01*
X00152044D01*
X00153974Y00316549D01*
X00155451Y00318026D01*
X00156250Y00319956D01*
Y00322044D01*
X00155588Y00323642D01*
Y00359358D01*
X00156250Y00360956D01*
Y00363044D01*
X00155588Y00364642D01*
Y00406358D01*
X00156250Y00407956D01*
Y00410044D01*
X00155451Y00411974D01*
X00153974Y00413451D01*
X00152044Y00414250D01*
D02*
G37*
G36*
X00680351Y00325200D02*
X00677849D01*
X00675433Y00324553D01*
X00673267Y00323302D01*
X00671498Y00321533D01*
X00670247Y00319367D01*
X00669600Y00316951D01*
Y00314449D01*
X00670247Y00312033D01*
X00671498Y00309867D01*
X00673267Y00308098D01*
X00675433Y00306847D01*
X00677849Y00306200D01*
X00680351D01*
X00682767Y00306847D01*
X00684933Y00308098D01*
X00686702Y00309867D01*
X00687953Y00312033D01*
X00688600Y00314449D01*
Y00316951D01*
X00687953Y00319367D01*
X00686702Y00321533D01*
X00684933Y00323302D01*
X00682767Y00324553D01*
X00680351Y00325200D01*
D02*
G37*
G36*
X00858151Y00325200D02*
X00855649D01*
X00853233Y00324553D01*
X00851067Y00323302D01*
X00849298Y00321533D01*
X00848047Y00319367D01*
X00847400Y00316951D01*
Y00314449D01*
X00848047Y00312033D01*
X00849298Y00309867D01*
X00851067Y00308098D01*
X00853233Y00306847D01*
X00855649Y00306200D01*
X00858151D01*
X00860567Y00306847D01*
X00862733Y00308098D01*
X00864502Y00309867D01*
X00865753Y00312033D01*
X00866400Y00314449D01*
Y00316951D01*
X00865753Y00319367D01*
X00864502Y00321533D01*
X00862733Y00323302D01*
X00860567Y00324553D01*
X00858151Y00325200D01*
D02*
G37*
G36*
X00262151Y00325200D02*
X00259649D01*
X00257233Y00324553D01*
X00255067Y00323302D01*
X00253298Y00321533D01*
X00252047Y00319367D01*
X00251400Y00316951D01*
Y00314449D01*
X00252047Y00312033D01*
X00253298Y00309867D01*
X00255067Y00308098D01*
X00257233Y00306847D01*
X00259649Y00306200D01*
X00262151D01*
X00264567Y00306847D01*
X00266733Y00308098D01*
X00268502Y00309867D01*
X00269753Y00312033D01*
X00270400Y00314449D01*
Y00316951D01*
X00269753Y00319367D01*
X00268502Y00321533D01*
X00266733Y00323302D01*
X00264567Y00324553D01*
X00262151Y00325200D01*
D02*
G37*
G36*
X00858151Y00299800D02*
X00855649D01*
X00853233Y00299153D01*
X00851067Y00297902D01*
X00849298Y00296133D01*
X00848047Y00293967D01*
X00847400Y00291551D01*
Y00289049D01*
X00848047Y00286633D01*
X00849298Y00284467D01*
X00851067Y00282698D01*
X00853233Y00281448D01*
X00855649Y00280800D01*
X00858151D01*
X00860567Y00281448D01*
X00862733Y00282698D01*
X00864502Y00284467D01*
X00865753Y00286633D01*
X00866400Y00289049D01*
Y00291551D01*
X00865753Y00293967D01*
X00864502Y00296133D01*
X00862733Y00297902D01*
X00860567Y00299153D01*
X00858151Y00299800D01*
D02*
G37*
G36*
X00680351D02*
X00677849D01*
X00675433Y00299153D01*
X00673267Y00297902D01*
X00671498Y00296133D01*
X00670247Y00293967D01*
X00669600Y00291551D01*
Y00289049D01*
X00670247Y00286633D01*
X00671498Y00284467D01*
X00673267Y00282698D01*
X00675433Y00281448D01*
X00677849Y00280800D01*
X00680351D01*
X00682767Y00281448D01*
X00684933Y00282698D01*
X00686702Y00284467D01*
X00687953Y00286633D01*
X00688600Y00289049D01*
Y00291551D01*
X00687953Y00293967D01*
X00686702Y00296133D01*
X00684933Y00297902D01*
X00682767Y00299153D01*
X00680351Y00299800D01*
D02*
G37*
G36*
X00262151Y00299800D02*
X00259649D01*
X00257233Y00299153D01*
X00255067Y00297902D01*
X00253298Y00296133D01*
X00252047Y00293967D01*
X00251400Y00291551D01*
Y00289049D01*
X00252047Y00286633D01*
X00253298Y00284467D01*
X00255067Y00282698D01*
X00257233Y00281447D01*
X00259649Y00280800D01*
X00262151D01*
X00264567Y00281447D01*
X00266733Y00282698D01*
X00268502Y00284467D01*
X00269753Y00286633D01*
X00270400Y00289049D01*
Y00291551D01*
X00269753Y00293967D01*
X00268502Y00296133D01*
X00266733Y00297902D01*
X00264567Y00299153D01*
X00262151Y00299800D01*
D02*
G37*
G36*
X00084351D02*
X00081849D01*
X00079433Y00299153D01*
X00077267Y00297902D01*
X00075498Y00296133D01*
X00074247Y00293967D01*
X00073600Y00291551D01*
Y00289049D01*
X00074247Y00286633D01*
X00075498Y00284467D01*
X00077267Y00282698D01*
X00079433Y00281447D01*
X00081849Y00280800D01*
X00084351D01*
X00086767Y00281447D01*
X00088933Y00282698D01*
X00090702Y00284467D01*
X00091952Y00286633D01*
X00092600Y00289049D01*
Y00291551D01*
X00091952Y00293967D01*
X00090702Y00296133D01*
X00088933Y00297902D01*
X00086767Y00299153D01*
X00084351Y00299800D01*
D02*
G37*
G36*
X00858151Y00274400D02*
X00855649D01*
X00853233Y00273753D01*
X00851067Y00272502D01*
X00849298Y00270733D01*
X00848047Y00268567D01*
X00847400Y00266151D01*
Y00263649D01*
X00848047Y00261233D01*
X00849298Y00259067D01*
X00851067Y00257298D01*
X00853233Y00256047D01*
X00855649Y00255400D01*
X00858151D01*
X00860567Y00256047D01*
X00862733Y00257298D01*
X00864502Y00259067D01*
X00865753Y00261233D01*
X00866400Y00263649D01*
Y00266151D01*
X00865753Y00268567D01*
X00864502Y00270733D01*
X00862733Y00272502D01*
X00860567Y00273753D01*
X00858151Y00274400D01*
D02*
G37*
G36*
X00680351Y00274400D02*
X00677849D01*
X00675433Y00273753D01*
X00673267Y00272502D01*
X00671498Y00270733D01*
X00670247Y00268567D01*
X00669600Y00266151D01*
Y00263649D01*
X00670247Y00261233D01*
X00671498Y00259067D01*
X00673267Y00257298D01*
X00675433Y00256047D01*
X00677849Y00255400D01*
X00680351D01*
X00682767Y00256047D01*
X00684933Y00257298D01*
X00686702Y00259067D01*
X00687953Y00261233D01*
X00688600Y00263649D01*
Y00266151D01*
X00687953Y00268567D01*
X00686702Y00270733D01*
X00684933Y00272502D01*
X00682767Y00273753D01*
X00680351Y00274400D01*
D02*
G37*
G36*
X00262151Y00274400D02*
X00259649D01*
X00257233Y00273753D01*
X00255067Y00272502D01*
X00253298Y00270733D01*
X00252047Y00268567D01*
X00251400Y00266151D01*
Y00263649D01*
X00252047Y00261233D01*
X00253298Y00259067D01*
X00255067Y00257298D01*
X00257233Y00256047D01*
X00259649Y00255400D01*
X00262151D01*
X00264567Y00256047D01*
X00266733Y00257298D01*
X00268502Y00259067D01*
X00269753Y00261233D01*
X00270400Y00263649D01*
Y00266151D01*
X00269753Y00268567D01*
X00268502Y00270733D01*
X00266733Y00272502D01*
X00264567Y00273753D01*
X00262151Y00274400D01*
D02*
G37*
G36*
X00084351D02*
X00081849D01*
X00079433Y00273753D01*
X00077267Y00272502D01*
X00075498Y00270733D01*
X00074247Y00268567D01*
X00073600Y00266151D01*
Y00263649D01*
X00074247Y00261233D01*
X00075498Y00259067D01*
X00077267Y00257298D01*
X00079433Y00256047D01*
X00081849Y00255400D01*
X00084351D01*
X00086767Y00256047D01*
X00088933Y00257298D01*
X00090702Y00259067D01*
X00091952Y00261233D01*
X00092600Y00263649D01*
Y00266151D01*
X00091952Y00268567D01*
X00090702Y00270733D01*
X00088933Y00272502D01*
X00086767Y00273753D01*
X00084351Y00274400D01*
D02*
G37*
G36*
X00680351Y00223600D02*
X00677849D01*
X00675433Y00222953D01*
X00673267Y00221702D01*
X00671498Y00219933D01*
X00670247Y00217767D01*
X00669600Y00215351D01*
Y00212849D01*
X00670247Y00210433D01*
X00671498Y00208267D01*
X00673267Y00206498D01*
X00675433Y00205247D01*
X00677849Y00204600D01*
X00680351D01*
X00682767Y00205247D01*
X00684933Y00206498D01*
X00686702Y00208267D01*
X00687953Y00210433D01*
X00688600Y00212849D01*
Y00215351D01*
X00687953Y00217767D01*
X00686702Y00219933D01*
X00684933Y00221702D01*
X00682767Y00222953D01*
X00680351Y00223600D01*
D02*
G37*
G36*
X00858151Y00223600D02*
X00855649D01*
X00853233Y00222953D01*
X00851067Y00221702D01*
X00849298Y00219933D01*
X00848047Y00217767D01*
X00847400Y00215351D01*
Y00212849D01*
X00848047Y00210433D01*
X00849298Y00208267D01*
X00851067Y00206498D01*
X00853233Y00205247D01*
X00855649Y00204600D01*
X00858151D01*
X00860567Y00205247D01*
X00862733Y00206498D01*
X00864502Y00208267D01*
X00865753Y00210433D01*
X00866400Y00212849D01*
Y00215351D01*
X00865753Y00217767D01*
X00864502Y00219933D01*
X00862733Y00221702D01*
X00860567Y00222953D01*
X00858151Y00223600D01*
D02*
G37*
G36*
X00262151Y00223600D02*
X00259649D01*
X00257233Y00222953D01*
X00255067Y00221702D01*
X00253298Y00219933D01*
X00252047Y00217767D01*
X00251400Y00215351D01*
Y00212849D01*
X00252047Y00210433D01*
X00253298Y00208267D01*
X00255067Y00206498D01*
X00257233Y00205247D01*
X00259649Y00204600D01*
X00262151D01*
X00264567Y00205247D01*
X00266733Y00206498D01*
X00268502Y00208267D01*
X00269753Y00210433D01*
X00270400Y00212849D01*
Y00215351D01*
X00269753Y00217767D01*
X00268502Y00219933D01*
X00266733Y00221702D01*
X00264567Y00222953D01*
X00262151Y00223600D01*
D02*
G37*
G36*
X00084351D02*
X00081849D01*
X00079433Y00222953D01*
X00077267Y00221702D01*
X00075498Y00219933D01*
X00074247Y00217767D01*
X00073600Y00215351D01*
Y00212849D01*
X00074247Y00210433D01*
X00075498Y00208267D01*
X00077267Y00206498D01*
X00079433Y00205247D01*
X00081849Y00204600D01*
X00084351D01*
X00086767Y00205247D01*
X00088933Y00206498D01*
X00090702Y00208267D01*
X00091952Y00210433D01*
X00092600Y00212849D01*
Y00215351D01*
X00091952Y00217767D01*
X00090702Y00219933D01*
X00088933Y00221702D01*
X00086767Y00222953D01*
X00084351Y00223600D01*
D02*
G37*
G36*
X00680351Y00198200D02*
X00677849D01*
X00675433Y00197553D01*
X00673267Y00196302D01*
X00671498Y00194533D01*
X00670247Y00192367D01*
X00669600Y00189951D01*
Y00187449D01*
X00670247Y00185033D01*
X00671498Y00182867D01*
X00673267Y00181098D01*
X00675433Y00179848D01*
X00677849Y00179200D01*
X00680351D01*
X00682767Y00179848D01*
X00684933Y00181098D01*
X00686702Y00182867D01*
X00687953Y00185033D01*
X00688600Y00187449D01*
Y00189951D01*
X00687953Y00192367D01*
X00686702Y00194533D01*
X00684933Y00196302D01*
X00682767Y00197553D01*
X00680351Y00198200D01*
D02*
G37*
G36*
X00858151Y00198200D02*
X00855649D01*
X00853233Y00197553D01*
X00851067Y00196302D01*
X00849298Y00194533D01*
X00848047Y00192367D01*
X00847400Y00189951D01*
Y00187449D01*
X00848047Y00185033D01*
X00849298Y00182867D01*
X00851067Y00181098D01*
X00853233Y00179848D01*
X00855649Y00179200D01*
X00858151D01*
X00860567Y00179848D01*
X00862733Y00181098D01*
X00864502Y00182867D01*
X00865753Y00185033D01*
X00866400Y00187449D01*
Y00189951D01*
X00865753Y00192367D01*
X00864502Y00194533D01*
X00862733Y00196302D01*
X00860567Y00197553D01*
X00858151Y00198200D01*
D02*
G37*
G36*
X00262151Y00198200D02*
X00259649D01*
X00257233Y00197553D01*
X00255067Y00196302D01*
X00253298Y00194533D01*
X00252047Y00192367D01*
X00251400Y00189951D01*
Y00187449D01*
X00252047Y00185033D01*
X00253298Y00182867D01*
X00255067Y00181098D01*
X00257233Y00179847D01*
X00259649Y00179200D01*
X00262151D01*
X00264567Y00179847D01*
X00266733Y00181098D01*
X00268502Y00182867D01*
X00269753Y00185033D01*
X00270400Y00187449D01*
Y00189951D01*
X00269753Y00192367D01*
X00268502Y00194533D01*
X00266733Y00196302D01*
X00264567Y00197553D01*
X00262151Y00198200D01*
D02*
G37*
G36*
X00084351D02*
X00081849D01*
X00079433Y00197553D01*
X00077267Y00196302D01*
X00075498Y00194533D01*
X00074247Y00192367D01*
X00073600Y00189951D01*
Y00187449D01*
X00074247Y00185033D01*
X00075498Y00182867D01*
X00077267Y00181098D01*
X00079433Y00179847D01*
X00081849Y00179200D01*
X00084351D01*
X00086767Y00179847D01*
X00088933Y00181098D01*
X00090702Y00182867D01*
X00091952Y00185033D01*
X00092600Y00187449D01*
Y00189951D01*
X00091952Y00192367D01*
X00090702Y00194533D01*
X00088933Y00196302D01*
X00086767Y00197553D01*
X00084351Y00198200D01*
D02*
G37*
G36*
X00799044Y00192250D02*
X00796956D01*
X00795026Y00191451D01*
X00793549Y00189974D01*
X00792750Y00188044D01*
Y00185956D01*
X00793549Y00184026D01*
X00794431Y00183144D01*
Y00162856D01*
X00793549Y00161974D01*
X00792750Y00160044D01*
Y00157956D01*
X00793549Y00156026D01*
X00795026Y00154549D01*
X00796956Y00153750D01*
X00799044D01*
X00800974Y00154549D01*
X00802451Y00156026D01*
X00803250Y00157956D01*
Y00160044D01*
X00802451Y00161974D01*
X00801569Y00162856D01*
Y00183144D01*
X00802451Y00184026D01*
X00803250Y00185956D01*
Y00188044D01*
X00802451Y00189974D01*
X00800974Y00191451D01*
X00799044Y00192250D01*
D02*
G37*
G36*
X00775000Y00717039D02*
X00755000D01*
X00754220Y00716884D01*
X00753558Y00716442D01*
X00753116Y00715780D01*
X00752961Y00715000D01*
Y00660000D01*
X00753116Y00659220D01*
X00753558Y00658558D01*
X00754220Y00658116D01*
X00755000Y00657961D01*
X00810960D01*
X00810961Y00142039D01*
X00754178D01*
X00753904Y00142847D01*
X00753860Y00143309D01*
X00785776Y00175224D01*
X00787298Y00177209D01*
X00788255Y00179520D01*
X00788582Y00182000D01*
Y00525600D01*
Y00540300D01*
Y00555000D01*
Y00570000D01*
X00788255Y00572480D01*
X00787298Y00574791D01*
X00785775Y00576776D01*
X00783791Y00578298D01*
X00781480Y00579255D01*
X00779000Y00579582D01*
X00776520Y00579255D01*
X00774209Y00578298D01*
X00772225Y00576776D01*
X00770702Y00574791D01*
X00769744Y00572480D01*
X00769418Y00570000D01*
Y00555000D01*
Y00540300D01*
Y00525600D01*
Y00185969D01*
X00743031Y00159582D01*
X00483969D01*
X00459582Y00183969D01*
Y00209000D01*
Y00218418D01*
X00575000D01*
X00577480Y00218745D01*
X00579791Y00219702D01*
X00581775Y00221225D01*
X00600775Y00240225D01*
X00602298Y00242209D01*
X00603256Y00244520D01*
X00603582Y00247000D01*
Y00298000D01*
X00603256Y00300480D01*
X00602298Y00302791D01*
X00600775Y00304776D01*
X00598791Y00306298D01*
X00596480Y00307255D01*
X00594000Y00307582D01*
X00591520Y00307255D01*
X00589209Y00306298D01*
X00587225Y00304776D01*
X00585702Y00302791D01*
X00584745Y00300480D01*
X00584418Y00298000D01*
Y00250969D01*
X00571031Y00237582D01*
X00356000D01*
X00353520Y00237255D01*
X00351209Y00236298D01*
X00349225Y00234776D01*
X00347702Y00232791D01*
X00346745Y00230480D01*
X00346418Y00228000D01*
X00346745Y00225520D01*
X00347702Y00223209D01*
X00349225Y00221225D01*
X00351209Y00219702D01*
X00353520Y00218745D01*
X00356000Y00218418D01*
X00440418D01*
Y00209000D01*
Y00204000D01*
Y00180000D01*
X00440745Y00177520D01*
X00441702Y00175209D01*
X00443225Y00173225D01*
X00473140Y00143309D01*
X00473097Y00142847D01*
X00472822Y00142039D01*
X00428000D01*
X00427220Y00141884D01*
X00426558Y00141442D01*
X00426558Y00141442D01*
X00425423Y00140307D01*
X00423991Y00140670D01*
X00423451Y00141974D01*
X00421974Y00143451D01*
X00420044Y00144250D01*
X00417956D01*
X00416026Y00143451D01*
X00414549Y00141974D01*
X00413750Y00140044D01*
Y00138797D01*
X00410522Y00135569D01*
X00376636D01*
X00375787Y00136839D01*
X00376250Y00137956D01*
Y00140044D01*
X00375451Y00141974D01*
X00373974Y00143451D01*
X00372044Y00144250D01*
X00369956D01*
X00368026Y00143451D01*
X00367144Y00142569D01*
X00313000D01*
X00311634Y00142297D01*
X00310477Y00141523D01*
X00289677Y00120723D01*
X00288903Y00119566D01*
X00288631Y00118200D01*
Y00114579D01*
X00288533Y00114553D01*
X00286367Y00113302D01*
X00284598Y00111533D01*
X00283347Y00109367D01*
X00282700Y00106951D01*
Y00104449D01*
X00283347Y00102033D01*
X00284598Y00099867D01*
X00286367Y00098098D01*
X00288533Y00096847D01*
X00288631Y00096821D01*
Y00089179D01*
X00288533Y00089153D01*
X00286367Y00087902D01*
X00284598Y00086133D01*
X00283347Y00083967D01*
X00282700Y00081551D01*
Y00079049D01*
X00283347Y00076633D01*
X00284598Y00074467D01*
X00286227Y00072839D01*
X00286028Y00071569D01*
X00280578D01*
X00275602Y00076545D01*
X00275653Y00076633D01*
X00276300Y00079049D01*
Y00081551D01*
X00275653Y00083967D01*
X00274402Y00086133D01*
X00272633Y00087902D01*
X00270467Y00089153D01*
X00270369Y00089179D01*
Y00096821D01*
X00270467Y00096847D01*
X00272633Y00098098D01*
X00274402Y00099867D01*
X00275653Y00102033D01*
X00276300Y00104449D01*
Y00106951D01*
X00275653Y00109367D01*
X00274402Y00111533D01*
X00272633Y00113302D01*
X00270467Y00114553D01*
X00268051Y00115200D01*
X00265549D01*
X00263133Y00114553D01*
X00260967Y00113302D01*
X00259198Y00111533D01*
X00257947Y00109367D01*
X00257300Y00106951D01*
Y00104449D01*
X00257947Y00102033D01*
X00259198Y00099867D01*
X00260967Y00098098D01*
X00263133Y00096847D01*
X00263231Y00096821D01*
Y00089179D01*
X00263133Y00089153D01*
X00260967Y00087902D01*
X00259198Y00086133D01*
X00257947Y00083967D01*
X00257300Y00081551D01*
Y00079049D01*
X00257947Y00076633D01*
X00259198Y00074467D01*
X00260967Y00072698D01*
X00263133Y00071448D01*
X00265549Y00070800D01*
X00268051D01*
X00270467Y00071448D01*
X00270555Y00071498D01*
X00276577Y00065477D01*
X00277734Y00064703D01*
X00279100Y00064431D01*
X00298000D01*
X00299366Y00064703D01*
X00300523Y00065477D01*
X00307523Y00072477D01*
X00308297Y00073634D01*
X00308569Y00075000D01*
Y00120522D01*
X00316478Y00128431D01*
X00411752D01*
X00412153Y00127835D01*
X00412315Y00127199D01*
X00409558Y00124442D01*
X00409116Y00123780D01*
X00408961Y00123000D01*
X00408961Y00058039D01*
X00144039D01*
Y00137961D01*
X00235000D01*
X00235780Y00138116D01*
X00236442Y00138558D01*
X00236884Y00139220D01*
X00237039Y00140000D01*
Y00688961D01*
X00269000D01*
X00269780Y00689116D01*
X00270442Y00689558D01*
X00270884Y00690220D01*
X00271039Y00691000D01*
Y00715000D01*
X00270884Y00715780D01*
X00270442Y00716442D01*
X00269780Y00716884D01*
X00269000Y00717039D01*
X00215000D01*
X00214220Y00716884D01*
X00213558Y00716442D01*
X00213116Y00715780D01*
X00212961Y00715000D01*
Y00162039D01*
X00122000D01*
X00121220Y00161884D01*
X00120558Y00161442D01*
X00120116Y00160780D01*
X00119961Y00160000D01*
Y00036000D01*
X00120116Y00035220D01*
X00120558Y00034558D01*
X00121220Y00034116D01*
X00122000Y00033961D01*
X00453000D01*
X00453780Y00034116D01*
X00454442Y00034558D01*
X00454884Y00035220D01*
X00455039Y00036000D01*
Y00110155D01*
X00462845Y00117961D01*
X00833000Y00117961D01*
X00833780Y00118116D01*
X00834442Y00118558D01*
X00834884Y00119220D01*
X00835039Y00120000D01*
Y00679961D01*
X00845961D01*
Y00660000D01*
X00846116Y00659220D01*
X00846558Y00658558D01*
Y00657442D01*
X00846116Y00656780D01*
X00845961Y00656000D01*
Y00636000D01*
X00846116Y00635220D01*
X00846558Y00634558D01*
X00847220Y00634116D01*
X00848000Y00633961D01*
X00885000D01*
X00885961Y00632857D01*
X00885961Y00619000D01*
X00886116Y00618220D01*
X00886558Y00617558D01*
X00887220Y00617116D01*
X00888000Y00616961D01*
X00907000D01*
X00907780Y00617116D01*
X00908442Y00617558D01*
X00908884Y00618220D01*
X00909039Y00619000D01*
Y00701000D01*
X00908884Y00701780D01*
X00908442Y00702442D01*
X00907780Y00702884D01*
X00907000Y00703039D01*
X00777039D01*
Y00715000D01*
X00776884Y00715780D01*
X00776442Y00716442D01*
X00775780Y00716884D01*
X00775000Y00717039D01*
D02*
G37*
G36*
X00356000Y00206060D02*
X00354173Y00205820D01*
X00352470Y00205114D01*
X00351008Y00203993D01*
X00349886Y00202530D01*
X00349180Y00200827D01*
X00348940Y00199000D01*
Y00165060D01*
X00297000D01*
X00295173Y00164820D01*
X00293470Y00164114D01*
X00292008Y00162992D01*
X00262076Y00133060D01*
X00183000D01*
X00181173Y00132820D01*
X00179470Y00132114D01*
X00178008Y00130992D01*
X00162328Y00115313D01*
X00161450D01*
X00159206Y00114866D01*
X00157304Y00113596D01*
X00156034Y00111693D01*
X00155587Y00109450D01*
Y00101950D01*
X00156034Y00099706D01*
X00157304Y00097804D01*
X00158140Y00097247D01*
Y00086675D01*
X00157598Y00086133D01*
X00156347Y00083967D01*
X00155700Y00081551D01*
Y00079049D01*
X00156347Y00076633D01*
X00157598Y00074467D01*
X00159367Y00072698D01*
X00161533Y00071448D01*
X00163949Y00070800D01*
X00166451D01*
X00168867Y00071448D01*
X00171033Y00072698D01*
X00172802Y00074467D01*
X00174053Y00076633D01*
X00174700Y00079049D01*
Y00081551D01*
X00174053Y00083967D01*
X00172802Y00086133D01*
X00172260Y00086675D01*
Y00097247D01*
X00173095Y00097804D01*
X00174366Y00099706D01*
X00174813Y00101950D01*
Y00107828D01*
X00185924Y00118940D01*
X00265000D01*
X00266827Y00119180D01*
X00268530Y00119886D01*
X00269992Y00121008D01*
X00299925Y00150940D01*
X00381076D01*
X00390008Y00142008D01*
X00391470Y00140886D01*
X00393173Y00140180D01*
X00395000Y00139940D01*
X00396827Y00140180D01*
X00398530Y00140886D01*
X00399992Y00142008D01*
X00401115Y00143470D01*
X00401820Y00145173D01*
X00402060Y00147000D01*
X00401820Y00148827D01*
X00401115Y00150530D01*
X00399992Y00151993D01*
X00388993Y00162992D01*
X00387530Y00164114D01*
X00385827Y00164820D01*
X00384000Y00165060D01*
X00363060D01*
Y00199000D01*
X00362820Y00200827D01*
X00362114Y00202530D01*
X00360993Y00203993D01*
X00359530Y00205114D01*
X00357827Y00205820D01*
X00356000Y00206060D01*
D02*
G37*
G36*
X00776051Y00115200D02*
X00773549D01*
X00771133Y00114553D01*
X00768967Y00113302D01*
X00767198Y00111533D01*
X00765947Y00109367D01*
X00765300Y00106951D01*
Y00104449D01*
X00765947Y00102033D01*
X00767198Y00099867D01*
X00768967Y00098098D01*
X00771133Y00096847D01*
X00773549Y00096200D01*
X00776051D01*
X00778467Y00096847D01*
X00780633Y00098098D01*
X00782402Y00099867D01*
X00783653Y00102033D01*
X00784300Y00104449D01*
Y00106951D01*
X00783653Y00109367D01*
X00782402Y00111533D01*
X00780633Y00113302D01*
X00778467Y00114553D01*
X00776051Y00115200D01*
D02*
G37*
G36*
X00750651D02*
X00748149D01*
X00745733Y00114553D01*
X00743567Y00113302D01*
X00741798Y00111533D01*
X00740547Y00109367D01*
X00739900Y00106951D01*
Y00104449D01*
X00740547Y00102033D01*
X00741798Y00099867D01*
X00743567Y00098098D01*
X00745733Y00096847D01*
X00748149Y00096200D01*
X00750651D01*
X00753067Y00096847D01*
X00755233Y00098098D01*
X00757002Y00099867D01*
X00758253Y00102033D01*
X00758900Y00104449D01*
Y00106951D01*
X00758253Y00109367D01*
X00757002Y00111533D01*
X00755233Y00113302D01*
X00753067Y00114553D01*
X00750651Y00115200D01*
D02*
G37*
G36*
X00725251D02*
X00722749D01*
X00720333Y00114553D01*
X00718167Y00113302D01*
X00716398Y00111533D01*
X00715147Y00109367D01*
X00714500Y00106951D01*
Y00104449D01*
X00715147Y00102033D01*
X00716398Y00099867D01*
X00718167Y00098098D01*
X00720333Y00096847D01*
X00722749Y00096200D01*
X00725251D01*
X00727667Y00096847D01*
X00729833Y00098098D01*
X00731602Y00099867D01*
X00732853Y00102033D01*
X00733500Y00104449D01*
Y00106951D01*
X00732853Y00109367D01*
X00731602Y00111533D01*
X00729833Y00113302D01*
X00727667Y00114553D01*
X00725251Y00115200D01*
D02*
G37*
G36*
X00699851D02*
X00697349D01*
X00694933Y00114553D01*
X00692767Y00113302D01*
X00690998Y00111533D01*
X00689747Y00109367D01*
X00689100Y00106951D01*
Y00104449D01*
X00689747Y00102033D01*
X00690998Y00099867D01*
X00692767Y00098098D01*
X00694933Y00096847D01*
X00697349Y00096200D01*
X00699851D01*
X00702267Y00096847D01*
X00704433Y00098098D01*
X00706202Y00099867D01*
X00707453Y00102033D01*
X00708100Y00104449D01*
Y00106951D01*
X00707453Y00109367D01*
X00706202Y00111533D01*
X00704433Y00113302D01*
X00702267Y00114553D01*
X00699851Y00115200D01*
D02*
G37*
G36*
X00674451D02*
X00671949D01*
X00669533Y00114553D01*
X00667367Y00113302D01*
X00665598Y00111533D01*
X00664347Y00109367D01*
X00663700Y00106951D01*
Y00104449D01*
X00664347Y00102033D01*
X00665598Y00099867D01*
X00667367Y00098098D01*
X00669533Y00096847D01*
X00671949Y00096200D01*
X00674451D01*
X00676867Y00096847D01*
X00679033Y00098098D01*
X00680802Y00099867D01*
X00682053Y00102033D01*
X00682700Y00104449D01*
Y00106951D01*
X00682053Y00109367D01*
X00680802Y00111533D01*
X00679033Y00113302D01*
X00676867Y00114553D01*
X00674451Y00115200D01*
D02*
G37*
G36*
X00649051D02*
X00646549D01*
X00644133Y00114553D01*
X00641967Y00113302D01*
X00640198Y00111533D01*
X00638947Y00109367D01*
X00638300Y00106951D01*
Y00104449D01*
X00638947Y00102033D01*
X00640198Y00099867D01*
X00641967Y00098098D01*
X00644133Y00096847D01*
X00646549Y00096200D01*
X00649051D01*
X00651467Y00096847D01*
X00653633Y00098098D01*
X00655402Y00099867D01*
X00656653Y00102033D01*
X00657300Y00104449D01*
Y00106951D01*
X00656653Y00109367D01*
X00655402Y00111533D01*
X00653633Y00113302D01*
X00651467Y00114553D01*
X00649051Y00115200D01*
D02*
G37*
G36*
X00623651D02*
X00621149D01*
X00618733Y00114553D01*
X00616567Y00113302D01*
X00614798Y00111533D01*
X00613547Y00109367D01*
X00612900Y00106951D01*
Y00104449D01*
X00613547Y00102033D01*
X00614798Y00099867D01*
X00616567Y00098098D01*
X00618733Y00096847D01*
X00621149Y00096200D01*
X00623651D01*
X00626067Y00096847D01*
X00628233Y00098098D01*
X00630002Y00099867D01*
X00631253Y00102033D01*
X00631900Y00104449D01*
Y00106951D01*
X00631253Y00109367D01*
X00630002Y00111533D01*
X00628233Y00113302D01*
X00626067Y00114553D01*
X00623651Y00115200D01*
D02*
G37*
G36*
X00572851D02*
X00570349D01*
X00567933Y00114553D01*
X00565767Y00113302D01*
X00563998Y00111533D01*
X00562747Y00109367D01*
X00562100Y00106951D01*
Y00104449D01*
X00562747Y00102033D01*
X00563998Y00099867D01*
X00565767Y00098098D01*
X00567933Y00096847D01*
X00570349Y00096200D01*
X00572851D01*
X00575267Y00096847D01*
X00577433Y00098098D01*
X00579202Y00099867D01*
X00580453Y00102033D01*
X00581100Y00104449D01*
Y00106951D01*
X00580453Y00109367D01*
X00579202Y00111533D01*
X00577433Y00113302D01*
X00575267Y00114553D01*
X00572851Y00115200D01*
D02*
G37*
G36*
X00547451D02*
X00544949D01*
X00542533Y00114553D01*
X00540367Y00113302D01*
X00538598Y00111533D01*
X00537347Y00109367D01*
X00536700Y00106951D01*
Y00104449D01*
X00537347Y00102033D01*
X00538598Y00099867D01*
X00540367Y00098098D01*
X00542533Y00096847D01*
X00544949Y00096200D01*
X00547451D01*
X00549867Y00096847D01*
X00552033Y00098098D01*
X00553802Y00099867D01*
X00555053Y00102033D01*
X00555700Y00104449D01*
Y00106951D01*
X00555053Y00109367D01*
X00553802Y00111533D01*
X00552033Y00113302D01*
X00549867Y00114553D01*
X00547451Y00115200D01*
D02*
G37*
G36*
X00369651D02*
X00367149D01*
X00364733Y00114553D01*
X00362567Y00113302D01*
X00360798Y00111533D01*
X00359547Y00109367D01*
X00358900Y00106951D01*
Y00104449D01*
X00359547Y00102033D01*
X00360798Y00099867D01*
X00362567Y00098098D01*
X00364733Y00096847D01*
X00367149Y00096200D01*
X00369651D01*
X00372067Y00096847D01*
X00374233Y00098098D01*
X00376002Y00099867D01*
X00377253Y00102033D01*
X00377900Y00104449D01*
Y00106951D01*
X00377253Y00109367D01*
X00376002Y00111533D01*
X00374233Y00113302D01*
X00372067Y00114553D01*
X00369651Y00115200D01*
D02*
G37*
G36*
X00344251D02*
X00341749D01*
X00339333Y00114553D01*
X00337167Y00113302D01*
X00335398Y00111533D01*
X00334147Y00109367D01*
X00333500Y00106951D01*
Y00104449D01*
X00334147Y00102033D01*
X00335398Y00099867D01*
X00337167Y00098098D01*
X00339333Y00096847D01*
X00341749Y00096200D01*
X00344251D01*
X00346667Y00096847D01*
X00348833Y00098098D01*
X00350602Y00099867D01*
X00351853Y00102033D01*
X00352500Y00104449D01*
Y00106951D01*
X00351853Y00109367D01*
X00350602Y00111533D01*
X00348833Y00113302D01*
X00346667Y00114553D01*
X00344251Y00115200D01*
D02*
G37*
G36*
X00776051Y00089800D02*
X00773549D01*
X00771133Y00089153D01*
X00768967Y00087902D01*
X00767198Y00086133D01*
X00765947Y00083967D01*
X00765300Y00081551D01*
Y00079049D01*
X00765947Y00076633D01*
X00767198Y00074467D01*
X00768967Y00072698D01*
X00771133Y00071448D01*
X00773549Y00070800D01*
X00776051D01*
X00778467Y00071448D01*
X00780633Y00072698D01*
X00782402Y00074467D01*
X00783653Y00076633D01*
X00784300Y00079049D01*
Y00081551D01*
X00783653Y00083967D01*
X00782402Y00086133D01*
X00780633Y00087902D01*
X00778467Y00089153D01*
X00776051Y00089800D01*
D02*
G37*
G36*
X00750651D02*
X00748149D01*
X00745733Y00089153D01*
X00743567Y00087902D01*
X00741798Y00086133D01*
X00740547Y00083967D01*
X00739900Y00081551D01*
Y00079049D01*
X00740547Y00076633D01*
X00741798Y00074467D01*
X00743567Y00072698D01*
X00745733Y00071448D01*
X00748149Y00070800D01*
X00750651D01*
X00753067Y00071448D01*
X00755233Y00072698D01*
X00757002Y00074467D01*
X00758253Y00076633D01*
X00758900Y00079049D01*
Y00081551D01*
X00758253Y00083967D01*
X00757002Y00086133D01*
X00755233Y00087902D01*
X00753067Y00089153D01*
X00750651Y00089800D01*
D02*
G37*
G36*
X00725251D02*
X00722749D01*
X00720333Y00089153D01*
X00718167Y00087902D01*
X00716398Y00086133D01*
X00715147Y00083967D01*
X00714500Y00081551D01*
Y00079049D01*
X00715147Y00076633D01*
X00716398Y00074467D01*
X00718167Y00072698D01*
X00720333Y00071448D01*
X00722749Y00070800D01*
X00725251D01*
X00727667Y00071448D01*
X00729833Y00072698D01*
X00731602Y00074467D01*
X00732853Y00076633D01*
X00733500Y00079049D01*
Y00081551D01*
X00732853Y00083967D01*
X00731602Y00086133D01*
X00729833Y00087902D01*
X00727667Y00089153D01*
X00725251Y00089800D01*
D02*
G37*
G36*
X00699851D02*
X00697349D01*
X00694933Y00089153D01*
X00692767Y00087902D01*
X00690998Y00086133D01*
X00689747Y00083967D01*
X00689100Y00081551D01*
Y00079049D01*
X00689747Y00076633D01*
X00690998Y00074467D01*
X00692767Y00072698D01*
X00694933Y00071448D01*
X00697349Y00070800D01*
X00699851D01*
X00702267Y00071448D01*
X00704433Y00072698D01*
X00706202Y00074467D01*
X00707453Y00076633D01*
X00708100Y00079049D01*
Y00081551D01*
X00707453Y00083967D01*
X00706202Y00086133D01*
X00704433Y00087902D01*
X00702267Y00089153D01*
X00699851Y00089800D01*
D02*
G37*
G36*
X00674451D02*
X00671949D01*
X00669533Y00089153D01*
X00667367Y00087902D01*
X00665598Y00086133D01*
X00664347Y00083967D01*
X00663700Y00081551D01*
Y00079049D01*
X00664347Y00076633D01*
X00665598Y00074467D01*
X00667367Y00072698D01*
X00669533Y00071448D01*
X00671949Y00070800D01*
X00674451D01*
X00676867Y00071448D01*
X00679033Y00072698D01*
X00680802Y00074467D01*
X00682053Y00076633D01*
X00682700Y00079049D01*
Y00081551D01*
X00682053Y00083967D01*
X00680802Y00086133D01*
X00679033Y00087902D01*
X00676867Y00089153D01*
X00674451Y00089800D01*
D02*
G37*
G36*
X00649051D02*
X00646549D01*
X00644133Y00089153D01*
X00641967Y00087902D01*
X00640198Y00086133D01*
X00638947Y00083967D01*
X00638300Y00081551D01*
Y00079049D01*
X00638947Y00076633D01*
X00640198Y00074467D01*
X00641967Y00072698D01*
X00644133Y00071448D01*
X00646549Y00070800D01*
X00649051D01*
X00651467Y00071448D01*
X00653633Y00072698D01*
X00655402Y00074467D01*
X00656653Y00076633D01*
X00657300Y00079049D01*
Y00081551D01*
X00656653Y00083967D01*
X00655402Y00086133D01*
X00653633Y00087902D01*
X00651467Y00089153D01*
X00649051Y00089800D01*
D02*
G37*
G36*
X00623651D02*
X00621149D01*
X00618733Y00089153D01*
X00616567Y00087902D01*
X00614798Y00086133D01*
X00613547Y00083967D01*
X00612900Y00081551D01*
Y00079049D01*
X00613547Y00076633D01*
X00614798Y00074467D01*
X00616567Y00072698D01*
X00618733Y00071448D01*
X00621149Y00070800D01*
X00623651D01*
X00626067Y00071448D01*
X00628233Y00072698D01*
X00630002Y00074467D01*
X00631253Y00076633D01*
X00631900Y00079049D01*
Y00081551D01*
X00631253Y00083967D01*
X00630002Y00086133D01*
X00628233Y00087902D01*
X00626067Y00089153D01*
X00623651Y00089800D01*
D02*
G37*
G36*
X00572851D02*
X00570349D01*
X00567933Y00089153D01*
X00565767Y00087902D01*
X00563998Y00086133D01*
X00562747Y00083967D01*
X00562100Y00081551D01*
Y00079049D01*
X00562747Y00076633D01*
X00563998Y00074467D01*
X00565767Y00072698D01*
X00567933Y00071448D01*
X00570349Y00070800D01*
X00572851D01*
X00575267Y00071448D01*
X00577433Y00072698D01*
X00579202Y00074467D01*
X00580453Y00076633D01*
X00581100Y00079049D01*
Y00081551D01*
X00580453Y00083967D01*
X00579202Y00086133D01*
X00577433Y00087902D01*
X00575267Y00089153D01*
X00572851Y00089800D01*
D02*
G37*
G36*
X00547451D02*
X00544949D01*
X00542533Y00089153D01*
X00540367Y00087902D01*
X00538598Y00086133D01*
X00537347Y00083967D01*
X00536700Y00081551D01*
Y00079049D01*
X00537347Y00076633D01*
X00538598Y00074467D01*
X00540367Y00072698D01*
X00542533Y00071448D01*
X00544949Y00070800D01*
X00547451D01*
X00549867Y00071448D01*
X00552033Y00072698D01*
X00553802Y00074467D01*
X00555053Y00076633D01*
X00555700Y00079049D01*
Y00081551D01*
X00555053Y00083967D01*
X00553802Y00086133D01*
X00552033Y00087902D01*
X00549867Y00089153D01*
X00547451Y00089800D01*
D02*
G37*
G36*
X00369651D02*
X00367149D01*
X00364733Y00089153D01*
X00362567Y00087902D01*
X00360798Y00086133D01*
X00359547Y00083967D01*
X00358900Y00081551D01*
Y00079049D01*
X00359547Y00076633D01*
X00360798Y00074467D01*
X00362567Y00072698D01*
X00364733Y00071448D01*
X00367149Y00070800D01*
X00369651D01*
X00372067Y00071448D01*
X00374233Y00072698D01*
X00376002Y00074467D01*
X00377253Y00076633D01*
X00377900Y00079049D01*
Y00081551D01*
X00377253Y00083967D01*
X00376002Y00086133D01*
X00374233Y00087902D01*
X00372067Y00089153D01*
X00369651Y00089800D01*
D02*
G37*
G36*
X00344251D02*
X00341749D01*
X00339333Y00089153D01*
X00337167Y00087902D01*
X00335398Y00086133D01*
X00334147Y00083967D01*
X00333500Y00081551D01*
Y00079049D01*
X00334147Y00076633D01*
X00335398Y00074467D01*
X00337167Y00072698D01*
X00339333Y00071448D01*
X00341749Y00070800D01*
X00344251D01*
X00346667Y00071448D01*
X00348833Y00072698D01*
X00350602Y00074467D01*
X00351853Y00076633D01*
X00352500Y00079049D01*
Y00081551D01*
X00351853Y00083967D01*
X00350602Y00086133D01*
X00348833Y00087902D01*
X00346667Y00089153D01*
X00344251Y00089800D01*
D02*
G37*
G36*
X00242651Y00115200D02*
X00240149D01*
X00237733Y00114553D01*
X00235567Y00113302D01*
X00233798Y00111533D01*
X00232547Y00109367D01*
X00231900Y00106951D01*
Y00104449D01*
X00232547Y00102033D01*
X00233798Y00099867D01*
X00235567Y00098098D01*
X00236812Y00097379D01*
Y00088621D01*
X00235567Y00087902D01*
X00233798Y00086133D01*
X00232547Y00083967D01*
X00231900Y00081551D01*
Y00079049D01*
X00232547Y00076633D01*
X00233798Y00074467D01*
X00235567Y00072698D01*
X00237733Y00071448D01*
X00240149Y00070800D01*
X00242651D01*
X00245067Y00071448D01*
X00247233Y00072698D01*
X00249002Y00074467D01*
X00250253Y00076633D01*
X00250900Y00079049D01*
Y00081551D01*
X00250253Y00083967D01*
X00249002Y00086133D01*
X00247233Y00087902D01*
X00245988Y00088621D01*
Y00097379D01*
X00247233Y00098098D01*
X00249002Y00099867D01*
X00250253Y00102033D01*
X00250900Y00104449D01*
Y00106951D01*
X00250253Y00109367D01*
X00249002Y00111533D01*
X00247233Y00113302D01*
X00245067Y00114553D01*
X00242651Y00115200D01*
D02*
G37*
G36*
X00217251D02*
X00214749D01*
X00212333Y00114553D01*
X00210167Y00113302D01*
X00208398Y00111533D01*
X00207147Y00109367D01*
X00206500Y00106951D01*
Y00104449D01*
X00207147Y00102033D01*
X00208398Y00099867D01*
X00210167Y00098098D01*
X00211412Y00097379D01*
Y00088621D01*
X00210167Y00087902D01*
X00208398Y00086133D01*
X00207147Y00083967D01*
X00206500Y00081551D01*
Y00079049D01*
X00207147Y00076633D01*
X00208398Y00074467D01*
X00210167Y00072698D01*
X00212333Y00071448D01*
X00214749Y00070800D01*
X00217251D01*
X00219667Y00071448D01*
X00221833Y00072698D01*
X00223602Y00074467D01*
X00224853Y00076633D01*
X00225500Y00079049D01*
Y00081551D01*
X00224853Y00083967D01*
X00223602Y00086133D01*
X00221833Y00087902D01*
X00220588Y00088621D01*
Y00097379D01*
X00221833Y00098098D01*
X00223602Y00099867D01*
X00224853Y00102033D01*
X00225500Y00104449D01*
Y00106951D01*
X00224853Y00109367D01*
X00223602Y00111533D01*
X00221833Y00113302D01*
X00219667Y00114553D01*
X00217251Y00115200D01*
D02*
G37*
G36*
X00191851D02*
X00189349D01*
X00186933Y00114553D01*
X00184767Y00113302D01*
X00182998Y00111533D01*
X00181747Y00109367D01*
X00181100Y00106951D01*
Y00104449D01*
X00181747Y00102033D01*
X00182998Y00099867D01*
X00184767Y00098098D01*
X00186012Y00097379D01*
Y00088621D01*
X00184767Y00087902D01*
X00182998Y00086133D01*
X00181747Y00083967D01*
X00181100Y00081551D01*
Y00079049D01*
X00181747Y00076633D01*
X00182998Y00074467D01*
X00184767Y00072698D01*
X00186933Y00071448D01*
X00189349Y00070800D01*
X00191851D01*
X00194267Y00071448D01*
X00196433Y00072698D01*
X00198202Y00074467D01*
X00199453Y00076633D01*
X00200100Y00079049D01*
Y00081551D01*
X00199453Y00083967D01*
X00198202Y00086133D01*
X00196433Y00087902D01*
X00195188Y00088621D01*
Y00097379D01*
X00196433Y00098098D01*
X00198202Y00099867D01*
X00199453Y00102033D01*
X00200100Y00104449D01*
Y00106951D01*
X00199453Y00109367D01*
X00198202Y00111533D01*
X00196433Y00113302D01*
X00194267Y00114553D01*
X00191851Y00115200D01*
D02*
G37*
%LPD*%
G36*
X00810942Y00880633D02*
X00811150Y00880587D01*
X00811381Y00880540D01*
X00811636Y00880448D01*
X00811914Y00880332D01*
X00812168Y00880170D01*
X00812191Y00880147D01*
X00812284Y00880078D01*
X00812400Y00879985D01*
X00812561Y00879846D01*
X00812723Y00879661D01*
X00812885Y00879453D01*
X00813024Y00879198D01*
X00813140Y00878944D01*
Y00878921D01*
X00813163Y00878874D01*
Y00878782D01*
Y00878643D01*
Y00878620D01*
Y00878597D01*
X00813140Y00878458D01*
X00813047Y00878273D01*
X00813001Y00878180D01*
X00812909Y00878088D01*
X00812862Y00878064D01*
X00812747Y00877995D01*
X00812561Y00877902D01*
X00812330Y00877879D01*
X00812237D01*
X00812145Y00877902D01*
X00812029Y00877949D01*
X00811890Y00878018D01*
X00811775Y00878111D01*
X00811659Y00878226D01*
X00811566Y00878411D01*
Y00878435D01*
X00811543Y00878458D01*
X00811497Y00878574D01*
X00811358Y00878759D01*
X00811243Y00878851D01*
X00811127Y00878944D01*
X00811104Y00878967D01*
X00811011Y00879013D01*
X00810849Y00879036D01*
X00810641Y00879059D01*
X00808651D01*
Y00869572D01*
Y00869549D01*
X00808628Y00869457D01*
X00808605Y00869318D01*
X00808558Y00869179D01*
X00808443Y00869040D01*
X00808304Y00868901D01*
X00808096Y00868809D01*
X00807818Y00868785D01*
X00807772D01*
X00807610Y00868809D01*
X00807424Y00868878D01*
X00807239Y00868994D01*
X00807216Y00869040D01*
X00807147Y00869156D01*
X00807054Y00869318D01*
X00807031Y00869572D01*
Y00879846D01*
Y00879892D01*
X00807054Y00879985D01*
X00807077Y00880101D01*
X00807124Y00880263D01*
X00807216Y00880402D01*
X00807355Y00880540D01*
X00807563Y00880633D01*
X00807818Y00880656D01*
X00810780D01*
X00810942Y00880633D01*
D02*
G37*
G36*
X00837760D02*
X00837945Y00880564D01*
X00838154Y00880448D01*
X00838177D01*
X00838200Y00880402D01*
X00838292Y00880309D01*
X00838362Y00880124D01*
X00838408Y00880008D01*
Y00879869D01*
Y00879823D01*
Y00879754D01*
X00838385Y00879661D01*
X00838362Y00879592D01*
X00835516Y00869433D01*
Y00869410D01*
X00835470Y00869341D01*
X00835423Y00869225D01*
X00835354Y00869109D01*
X00835238Y00868971D01*
X00835099Y00868878D01*
X00834914Y00868785D01*
X00834706Y00868762D01*
X00834660D01*
X00834567Y00868785D01*
X00834405Y00868832D01*
X00834243Y00868924D01*
X00834220Y00868948D01*
X00834127Y00869040D01*
X00834058Y00869156D01*
X00834012Y00869271D01*
X00831119Y00879592D01*
Y00879615D01*
X00831096Y00879638D01*
X00831073Y00879730D01*
Y00879869D01*
Y00879892D01*
Y00879939D01*
X00831096Y00880078D01*
X00831166Y00880239D01*
X00831304Y00880425D01*
X00831328D01*
X00831351Y00880471D01*
X00831466Y00880540D01*
X00831652Y00880610D01*
X00831883Y00880656D01*
X00831975D01*
X00832068Y00880633D01*
X00832207Y00880587D01*
X00832322Y00880517D01*
X00832461Y00880402D01*
X00832577Y00880263D01*
X00832670Y00880054D01*
X00834729Y00872002D01*
X00836812Y00880054D01*
Y00880078D01*
X00836835Y00880147D01*
X00836881Y00880239D01*
X00836950Y00880355D01*
X00837043Y00880471D01*
X00837182Y00880564D01*
X00837367Y00880633D01*
X00837575Y00880656D01*
X00837622D01*
X00837760Y00880633D01*
D02*
G37*
G36*
X00862427Y00885214D02*
X00862566Y00885191D01*
X00862728Y00885168D01*
X00863098Y00885052D01*
X00863514Y00884891D01*
X00863746Y00884775D01*
X00863977Y00884636D01*
X00864209Y00884474D01*
X00864440Y00884289D01*
X00864648Y00884081D01*
X00864880Y00883826D01*
X00864903D01*
X00864926Y00883803D01*
X00865042Y00883687D01*
X00865204Y00883502D01*
X00865389Y00883271D01*
X00865551Y00882947D01*
X00865713Y00882553D01*
X00865828Y00882091D01*
X00865875Y00881836D01*
Y00881559D01*
Y00872418D01*
Y00872395D01*
Y00872349D01*
Y00872280D01*
X00865852Y00872164D01*
Y00872048D01*
X00865828Y00871886D01*
X00865736Y00871539D01*
X00865620Y00871123D01*
X00865412Y00870706D01*
X00865157Y00870266D01*
X00864972Y00870058D01*
X00864787Y00869850D01*
X00864764D01*
X00864741Y00869804D01*
X00864671Y00869757D01*
X00864602Y00869688D01*
X00864371Y00869503D01*
X00864070Y00869318D01*
X00863676Y00869133D01*
X00863237Y00868948D01*
X00862728Y00868832D01*
X00862450Y00868809D01*
X00862172Y00868785D01*
X00860900D01*
X00860784Y00868809D01*
X00860645D01*
X00860506Y00868832D01*
X00860136Y00868924D01*
X00859743Y00869040D01*
X00859303Y00869225D01*
X00858863Y00869480D01*
X00858655Y00869642D01*
X00858447Y00869827D01*
Y00869850D01*
X00858401Y00869873D01*
X00858354Y00869942D01*
X00858285Y00870012D01*
X00858123Y00870243D01*
X00857938Y00870544D01*
X00857730Y00870938D01*
X00857568Y00871377D01*
X00857452Y00871863D01*
X00857429Y00872141D01*
X00857406Y00872418D01*
Y00881559D01*
Y00881582D01*
Y00881628D01*
Y00881697D01*
X00857429Y00881813D01*
Y00881952D01*
X00857475Y00882091D01*
X00857544Y00882461D01*
X00857683Y00882877D01*
X00857868Y00883317D01*
X00858146Y00883780D01*
X00858308Y00884011D01*
X00858493Y00884220D01*
X00858516Y00884243D01*
X00858540Y00884266D01*
X00858678Y00884381D01*
X00858887Y00884544D01*
X00859187Y00884729D01*
X00859558Y00884914D01*
X00859997Y00885076D01*
X00860483Y00885191D01*
X00860761Y00885238D01*
X00862334D01*
X00862427Y00885214D01*
D02*
G37*
G36*
X00854930Y00870359D02*
X00855045Y00870336D01*
X00855207Y00870290D01*
X00855369Y00870174D01*
X00855485Y00870035D01*
X00855578Y00869850D01*
X00855624Y00869572D01*
Y00869549D01*
Y00869526D01*
X00855601Y00869387D01*
X00855531Y00869202D01*
X00855393Y00869017D01*
X00855346Y00868971D01*
X00855230Y00868901D01*
X00855045Y00868832D01*
X00854791Y00868785D01*
X00854722D01*
X00854583Y00868809D01*
X00854398Y00868878D01*
X00854212Y00868994D01*
X00854189Y00869040D01*
X00854120Y00869156D01*
X00854027Y00869341D01*
X00854004Y00869572D01*
Y00869595D01*
Y00869619D01*
X00854027Y00869757D01*
X00854097Y00869942D01*
X00854212Y00870128D01*
Y00870151D01*
X00854259Y00870174D01*
X00854374Y00870266D01*
X00854536Y00870336D01*
X00854652Y00870382D01*
X00854837D01*
X00854930Y00870359D01*
D02*
G37*
G36*
X00851505Y00885191D02*
X00851690Y00885122D01*
X00851898Y00884983D01*
X00851922D01*
X00851945Y00884937D01*
X00852037Y00884844D01*
X00852107Y00884659D01*
X00852153Y00884544D01*
Y00884405D01*
Y00869572D01*
Y00869549D01*
Y00869503D01*
X00852130Y00869433D01*
Y00869341D01*
X00852037Y00869156D01*
X00851991Y00869063D01*
X00851898Y00868971D01*
X00851852Y00868948D01*
X00851737Y00868878D01*
X00851574Y00868809D01*
X00851343Y00868785D01*
X00851297D01*
X00851135Y00868809D01*
X00850950Y00868878D01*
X00850765Y00868994D01*
X00850718Y00869040D01*
X00850649Y00869156D01*
X00850580Y00869318D01*
X00850533Y00869572D01*
Y00882831D01*
X00848497Y00880425D01*
X00848451Y00880378D01*
X00848335Y00880309D01*
X00848150Y00880239D01*
X00847918Y00880193D01*
X00847872D01*
X00847733Y00880216D01*
X00847548Y00880286D01*
X00847340Y00880425D01*
X00847294Y00880471D01*
X00847224Y00880587D01*
X00847155Y00880772D01*
X00847109Y00881003D01*
Y00881026D01*
Y00881049D01*
X00847132Y00881188D01*
X00847224Y00881373D01*
X00847271Y00881466D01*
X00847363Y00881559D01*
X00850788Y00884983D01*
X00850834Y00885029D01*
X00850927Y00885099D01*
X00851089Y00885168D01*
X00851320Y00885214D01*
X00851366D01*
X00851505Y00885191D01*
D02*
G37*
G36*
X00803051Y00880610D02*
X00803283Y00880564D01*
X00803583Y00880471D01*
X00803884Y00880355D01*
X00804185Y00880170D01*
X00804463Y00879916D01*
X00804486Y00879892D01*
X00804578Y00879777D01*
X00804694Y00879638D01*
X00804833Y00879430D01*
X00804972Y00879152D01*
X00805088Y00878851D01*
X00805180Y00878504D01*
X00805203Y00878111D01*
Y00874709D01*
Y00874686D01*
X00805180Y00874594D01*
X00805157Y00874455D01*
X00805088Y00874316D01*
X00804995Y00874177D01*
X00804833Y00874038D01*
X00804625Y00873946D01*
X00804347Y00873923D01*
X00799488D01*
Y00871285D01*
Y00871261D01*
Y00871215D01*
X00799511Y00871146D01*
Y00871053D01*
X00799603Y00870845D01*
X00799650Y00870729D01*
X00799742Y00870637D01*
X00799765D01*
X00799789Y00870590D01*
X00799904Y00870521D01*
X00800113Y00870428D01*
X00800228Y00870405D01*
X00800344Y00870382D01*
X00804393D01*
X00804486Y00870359D01*
X00804602Y00870336D01*
X00804763Y00870290D01*
X00804926Y00870174D01*
X00805041Y00870035D01*
X00805134Y00869850D01*
X00805180Y00869572D01*
Y00869549D01*
Y00869526D01*
X00805157Y00869387D01*
X00805088Y00869202D01*
X00804972Y00869017D01*
X00804926Y00868971D01*
X00804810Y00868901D01*
X00804625Y00868832D01*
X00804347Y00868785D01*
X00800321D01*
X00800182Y00868809D01*
X00799997Y00868832D01*
X00799742Y00868878D01*
X00799442Y00868971D01*
X00799141Y00869086D01*
X00798840Y00869271D01*
X00798562Y00869503D01*
X00798539Y00869526D01*
X00798447Y00869642D01*
X00798354Y00869781D01*
X00798215Y00869989D01*
X00798099Y00870266D01*
X00797984Y00870567D01*
X00797891Y00870914D01*
X00797868Y00871308D01*
Y00878134D01*
Y00878157D01*
Y00878226D01*
Y00878319D01*
X00797891Y00878435D01*
X00797937Y00878736D01*
X00798053Y00879082D01*
Y00879106D01*
X00798099Y00879152D01*
X00798122Y00879245D01*
X00798192Y00879360D01*
X00798354Y00879615D01*
X00798562Y00879892D01*
X00798585Y00879916D01*
X00798632Y00879962D01*
X00798701Y00880008D01*
X00798794Y00880101D01*
X00799048Y00880263D01*
X00799349Y00880448D01*
X00799372D01*
X00799442Y00880471D01*
X00799534Y00880517D01*
X00799650Y00880564D01*
X00799812Y00880587D01*
X00799974Y00880633D01*
X00800367Y00880656D01*
X00802843D01*
X00803051Y00880610D01*
D02*
G37*
G36*
X00793865Y00880633D02*
X00794166Y00880564D01*
X00794513Y00880448D01*
X00794536D01*
X00794582Y00880402D01*
X00794675Y00880355D01*
X00794790Y00880309D01*
X00795045Y00880124D01*
X00795323Y00879892D01*
X00795346Y00879869D01*
X00795392Y00879846D01*
X00795438Y00879777D01*
X00795531Y00879684D01*
X00795693Y00879430D01*
X00795855Y00879106D01*
Y00879082D01*
X00795878Y00879036D01*
X00795924Y00878944D01*
X00795971Y00878805D01*
X00796040Y00878504D01*
X00796063Y00878157D01*
Y00869572D01*
Y00869549D01*
X00796040Y00869457D01*
X00796017Y00869318D01*
X00795971Y00869179D01*
X00795855Y00869040D01*
X00795716Y00868901D01*
X00795531Y00868809D01*
X00795253Y00868785D01*
X00795207D01*
X00795045Y00868809D01*
X00794860Y00868878D01*
X00794675Y00868994D01*
X00794629Y00869040D01*
X00794559Y00869156D01*
X00794490Y00869318D01*
X00794443Y00869572D01*
Y00878157D01*
Y00878180D01*
Y00878226D01*
X00794420Y00878296D01*
Y00878365D01*
X00794328Y00878574D01*
X00794258Y00878689D01*
X00794166Y00878782D01*
Y00878805D01*
X00794119Y00878828D01*
X00794004Y00878921D01*
X00793795Y00879013D01*
X00793680Y00879059D01*
X00791505D01*
Y00869572D01*
Y00869549D01*
Y00869503D01*
X00791481Y00869433D01*
Y00869341D01*
X00791389Y00869156D01*
X00791343Y00869063D01*
X00791250Y00868971D01*
X00791204Y00868948D01*
X00791088Y00868878D01*
X00790926Y00868809D01*
X00790695Y00868785D01*
X00790648D01*
X00790487Y00868809D01*
X00790301Y00868878D01*
X00790116Y00868994D01*
X00790070Y00869040D01*
X00790001Y00869156D01*
X00789931Y00869318D01*
X00789885Y00869572D01*
Y00879059D01*
X00786946D01*
Y00869572D01*
Y00869549D01*
X00786923Y00869457D01*
X00786900Y00869318D01*
X00786854Y00869179D01*
X00786738Y00869040D01*
X00786599Y00868901D01*
X00786391Y00868809D01*
X00786113Y00868785D01*
X00786067D01*
X00785905Y00868809D01*
X00785720Y00868878D01*
X00785535Y00868994D01*
X00785511Y00869040D01*
X00785442Y00869156D01*
X00785350Y00869318D01*
X00785326Y00869572D01*
Y00879846D01*
Y00879892D01*
X00785350Y00879985D01*
X00785373Y00880101D01*
X00785419Y00880263D01*
X00785511Y00880402D01*
X00785650Y00880540D01*
X00785859Y00880633D01*
X00786113Y00880656D01*
X00793726D01*
X00793865Y00880633D01*
D02*
G37*
G36*
X00773618Y00885214D02*
X00773734Y00885191D01*
X00773896Y00885145D01*
X00774057Y00885029D01*
X00774173Y00884891D01*
X00774266Y00884705D01*
X00774312Y00884428D01*
Y00884405D01*
Y00884381D01*
X00774289Y00884243D01*
X00774220Y00884057D01*
X00774081Y00883872D01*
X00774034Y00883826D01*
X00773919Y00883757D01*
X00773734Y00883687D01*
X00773479Y00883641D01*
X00770494D01*
X00770332Y00883618D01*
X00770124Y00883572D01*
X00769916Y00883502D01*
X00769661Y00883387D01*
X00769430Y00883248D01*
X00769198Y00883039D01*
X00769175Y00883016D01*
X00769106Y00882947D01*
X00769013Y00882808D01*
X00768921Y00882646D01*
X00768805Y00882415D01*
X00768712Y00882160D01*
X00768643Y00881882D01*
X00768620Y00881559D01*
Y00872418D01*
Y00872395D01*
Y00872349D01*
Y00872256D01*
X00768643Y00872164D01*
X00768689Y00871886D01*
X00768759Y00871609D01*
Y00871585D01*
X00768782Y00871539D01*
X00768828Y00871470D01*
X00768874Y00871400D01*
X00769013Y00871169D01*
X00769198Y00870961D01*
X00769221D01*
X00769245Y00870914D01*
X00769383Y00870799D01*
X00769592Y00870660D01*
X00769846Y00870521D01*
X00769869D01*
X00769916Y00870498D01*
X00769985Y00870475D01*
X00770078Y00870452D01*
X00770332Y00870405D01*
X00770633Y00870382D01*
X00773525D01*
X00773618Y00870359D01*
X00773734Y00870336D01*
X00773896Y00870290D01*
X00774057Y00870174D01*
X00774173Y00870035D01*
X00774266Y00869850D01*
X00774312Y00869572D01*
Y00869549D01*
Y00869526D01*
X00774289Y00869387D01*
X00774220Y00869202D01*
X00774081Y00869017D01*
X00774034Y00868971D01*
X00773919Y00868901D01*
X00773734Y00868832D01*
X00773479Y00868785D01*
X00770494D01*
X00770378Y00868809D01*
X00770239Y00868832D01*
X00770101Y00868855D01*
X00769731Y00868924D01*
X00769337Y00869063D01*
X00768897Y00869271D01*
X00768666Y00869410D01*
X00768435Y00869572D01*
X00768203Y00869734D01*
X00767995Y00869942D01*
Y00869966D01*
X00767949Y00869989D01*
X00767833Y00870105D01*
X00767671Y00870313D01*
X00767509Y00870613D01*
X00767324Y00870961D01*
X00767162Y00871377D01*
X00767046Y00871863D01*
X00767023Y00872141D01*
X00767000Y00872418D01*
Y00881559D01*
Y00881582D01*
Y00881628D01*
Y00881697D01*
X00767023Y00881813D01*
Y00881952D01*
X00767046Y00882091D01*
X00767139Y00882461D01*
X00767254Y00882854D01*
X00767440Y00883294D01*
X00767694Y00883734D01*
X00767856Y00883942D01*
X00768041Y00884150D01*
X00768064Y00884173D01*
X00768088Y00884196D01*
X00768157Y00884243D01*
X00768226Y00884312D01*
X00768458Y00884497D01*
X00768782Y00884705D01*
X00769152Y00884891D01*
X00769592Y00885076D01*
X00770101Y00885191D01*
X00770355Y00885238D01*
X00773525D01*
X00773618Y00885214D01*
D02*
G37*
G36*
X00821540Y00880633D02*
X00821655Y00880610D01*
X00821817Y00880564D01*
X00821979Y00880448D01*
X00822095Y00880309D01*
X00822188Y00880124D01*
X00822234Y00879846D01*
Y00871308D01*
Y00871285D01*
Y00871261D01*
X00822257Y00871099D01*
X00822303Y00870891D01*
X00822396Y00870683D01*
X00822442Y00870637D01*
X00822535Y00870521D01*
X00822697Y00870405D01*
X00822928Y00870290D01*
X00822951D01*
X00822997Y00870266D01*
X00823090Y00870220D01*
X00823183Y00870151D01*
X00823252Y00870035D01*
X00823344Y00869919D01*
X00823391Y00869757D01*
X00823414Y00869572D01*
Y00869549D01*
Y00869526D01*
X00823391Y00869387D01*
X00823321Y00869202D01*
X00823183Y00868994D01*
X00823136Y00868948D01*
X00823044Y00868878D01*
X00822859Y00868809D01*
X00822627Y00868762D01*
X00822396D01*
X00822326Y00868785D01*
X00822280Y00868809D01*
X00822188Y00868855D01*
X00822002Y00868948D01*
X00821887Y00869040D01*
X00821748Y00869133D01*
X00821725D01*
X00821702Y00869156D01*
X00821586Y00869248D01*
X00821470Y00869387D01*
X00821424Y00869457D01*
X00821401Y00869549D01*
X00821378Y00869526D01*
X00821308Y00869433D01*
X00821169Y00869318D01*
X00820984Y00869179D01*
X00820730Y00869017D01*
X00820452Y00868901D01*
X00820105Y00868809D01*
X00819688Y00868785D01*
X00817351D01*
X00817213Y00868809D01*
X00817027Y00868832D01*
X00816773Y00868878D01*
X00816472Y00868971D01*
X00816171Y00869086D01*
X00815870Y00869271D01*
X00815593Y00869503D01*
X00815570Y00869526D01*
X00815477Y00869642D01*
X00815361Y00869781D01*
X00815246Y00869989D01*
X00815107Y00870266D01*
X00814991Y00870567D01*
X00814899Y00870914D01*
X00814875Y00871308D01*
Y00878157D01*
Y00878180D01*
Y00878250D01*
Y00878342D01*
X00814899Y00878458D01*
X00814945Y00878782D01*
X00815061Y00879106D01*
Y00879129D01*
X00815107Y00879175D01*
X00815130Y00879268D01*
X00815199Y00879383D01*
X00815361Y00879638D01*
X00815593Y00879916D01*
X00815616Y00879939D01*
X00815662Y00879985D01*
X00815732Y00880031D01*
X00815824Y00880124D01*
X00816079Y00880286D01*
X00816403Y00880448D01*
X00816426D01*
X00816495Y00880471D01*
X00816588Y00880517D01*
X00816703Y00880564D01*
X00816842Y00880587D01*
X00817027Y00880633D01*
X00817398Y00880656D01*
X00821447D01*
X00821540Y00880633D01*
D02*
G37*
G36*
X00782665D02*
X00782781Y00880610D01*
X00782943Y00880564D01*
X00783105Y00880448D01*
X00783221Y00880309D01*
X00783313Y00880124D01*
X00783360Y00879846D01*
Y00871308D01*
Y00871285D01*
Y00871261D01*
X00783383Y00871099D01*
X00783429Y00870891D01*
X00783521Y00870683D01*
X00783568Y00870637D01*
X00783660Y00870521D01*
X00783822Y00870405D01*
X00784054Y00870290D01*
X00784077D01*
X00784123Y00870266D01*
X00784216Y00870220D01*
X00784308Y00870151D01*
X00784378Y00870035D01*
X00784470Y00869919D01*
X00784517Y00869757D01*
X00784540Y00869572D01*
Y00869549D01*
Y00869526D01*
X00784517Y00869387D01*
X00784447Y00869202D01*
X00784308Y00868994D01*
X00784262Y00868948D01*
X00784169Y00868878D01*
X00783984Y00868809D01*
X00783753Y00868762D01*
X00783521D01*
X00783452Y00868785D01*
X00783406Y00868809D01*
X00783313Y00868855D01*
X00783128Y00868948D01*
X00783012Y00869040D01*
X00782874Y00869133D01*
X00782850D01*
X00782827Y00869156D01*
X00782712Y00869248D01*
X00782596Y00869387D01*
X00782550Y00869457D01*
X00782527Y00869549D01*
X00782503Y00869526D01*
X00782434Y00869433D01*
X00782295Y00869318D01*
X00782110Y00869179D01*
X00781855Y00869017D01*
X00781578Y00868901D01*
X00781231Y00868809D01*
X00780814Y00868785D01*
X00778477D01*
X00778338Y00868809D01*
X00778153Y00868832D01*
X00777899Y00868878D01*
X00777598Y00868971D01*
X00777297Y00869086D01*
X00776996Y00869271D01*
X00776719Y00869503D01*
X00776695Y00869526D01*
X00776603Y00869642D01*
X00776487Y00869781D01*
X00776372Y00869989D01*
X00776233Y00870266D01*
X00776117Y00870567D01*
X00776024Y00870914D01*
X00776001Y00871308D01*
Y00878157D01*
Y00878180D01*
Y00878250D01*
Y00878342D01*
X00776024Y00878458D01*
X00776071Y00878782D01*
X00776186Y00879106D01*
Y00879129D01*
X00776233Y00879175D01*
X00776256Y00879268D01*
X00776325Y00879383D01*
X00776487Y00879638D01*
X00776719Y00879916D01*
X00776742Y00879939D01*
X00776788Y00879985D01*
X00776857Y00880031D01*
X00776950Y00880124D01*
X00777205Y00880286D01*
X00777528Y00880448D01*
X00777552D01*
X00777621Y00880471D01*
X00777714Y00880517D01*
X00777829Y00880564D01*
X00777968Y00880587D01*
X00778153Y00880633D01*
X00778523Y00880656D01*
X00782573D01*
X00782665Y00880633D01*
D02*
G37*
%LPC*%
G36*
X00862172Y00883641D02*
X00860877D01*
X00860784Y00883618D01*
X00860529Y00883572D01*
X00860252Y00883479D01*
X00860229D01*
X00860182Y00883456D01*
X00860136Y00883410D01*
X00860043Y00883363D01*
X00859835Y00883224D01*
X00859604Y00883016D01*
Y00882993D01*
X00859558Y00882970D01*
X00859442Y00882831D01*
X00859303Y00882623D01*
X00859164Y00882368D01*
Y00882345D01*
X00859141Y00882299D01*
X00859118Y00882230D01*
X00859095Y00882137D01*
X00859048Y00881882D01*
X00859025Y00881559D01*
Y00872418D01*
Y00872395D01*
Y00872349D01*
Y00872256D01*
X00859048Y00872164D01*
X00859095Y00871886D01*
X00859164Y00871609D01*
Y00871585D01*
X00859187Y00871539D01*
X00859234Y00871470D01*
X00859280Y00871400D01*
X00859419Y00871169D01*
X00859604Y00870961D01*
X00859627D01*
X00859650Y00870914D01*
X00859789Y00870799D01*
X00859997Y00870660D01*
X00860252Y00870521D01*
X00860275D01*
X00860321Y00870498D01*
X00860391Y00870475D01*
X00860483Y00870452D01*
X00860738Y00870405D01*
X00861039Y00870382D01*
X00862334D01*
X00862496Y00870405D01*
X00862705Y00870452D01*
X00862936Y00870521D01*
X00863167Y00870613D01*
X00863422Y00870752D01*
X00863653Y00870938D01*
X00863676Y00870961D01*
X00863746Y00871053D01*
X00863838Y00871169D01*
X00863954Y00871331D01*
X00864070Y00871562D01*
X00864162Y00871817D01*
X00864232Y00872094D01*
X00864255Y00872418D01*
Y00881559D01*
Y00881582D01*
Y00881628D01*
Y00881697D01*
X00864232Y00881813D01*
X00864185Y00882044D01*
X00864093Y00882322D01*
Y00882345D01*
X00864070Y00882392D01*
X00864024Y00882461D01*
X00863977Y00882553D01*
X00863838Y00882762D01*
X00863630Y00882993D01*
X00863607Y00883016D01*
X00863584Y00883039D01*
X00863445Y00883155D01*
X00863237Y00883317D01*
X00862982Y00883456D01*
X00862959D01*
X00862913Y00883479D01*
X00862843Y00883525D01*
X00862751Y00883549D01*
X00862496Y00883618D01*
X00862172Y00883641D01*
D02*
G37*
G36*
X00802797Y00879059D02*
X00800298D01*
X00800136Y00879036D01*
X00799950Y00878944D01*
X00799835Y00878874D01*
X00799742Y00878782D01*
X00799696Y00878736D01*
X00799627Y00878597D01*
X00799534Y00878411D01*
X00799511Y00878273D01*
X00799488Y00878134D01*
Y00875519D01*
X00803583D01*
Y00878134D01*
Y00878157D01*
Y00878203D01*
X00803560Y00878273D01*
Y00878365D01*
X00803468Y00878574D01*
X00803398Y00878689D01*
X00803306Y00878782D01*
Y00878805D01*
X00803260Y00878828D01*
X00803121Y00878921D01*
X00802935Y00879013D01*
X00802797Y00879059D01*
D02*
G37*
G36*
X00820614D02*
X00817328D01*
X00817166Y00879036D01*
X00816958Y00878944D01*
X00816865Y00878874D01*
X00816750Y00878782D01*
X00816703Y00878736D01*
X00816634Y00878620D01*
X00816542Y00878411D01*
X00816518Y00878296D01*
X00816495Y00878157D01*
Y00871285D01*
Y00871261D01*
Y00871215D01*
X00816518Y00871146D01*
Y00871053D01*
X00816611Y00870845D01*
X00816657Y00870729D01*
X00816750Y00870637D01*
X00816773D01*
X00816796Y00870590D01*
X00816935Y00870521D01*
X00817120Y00870428D01*
X00817259Y00870405D01*
X00817374Y00870382D01*
X00819758D01*
X00819827Y00870405D01*
X00819920D01*
X00820128Y00870498D01*
X00820221Y00870544D01*
X00820336Y00870637D01*
X00820359Y00870660D01*
X00820383Y00870683D01*
X00820475Y00870822D01*
X00820568Y00871007D01*
X00820614Y00871146D01*
Y00871285D01*
Y00879059D01*
D02*
G37*
G36*
X00781740D02*
X00778454D01*
X00778292Y00879036D01*
X00778084Y00878944D01*
X00777991Y00878874D01*
X00777876Y00878782D01*
X00777829Y00878736D01*
X00777760Y00878620D01*
X00777667Y00878411D01*
X00777644Y00878296D01*
X00777621Y00878157D01*
Y00871285D01*
Y00871261D01*
Y00871215D01*
X00777644Y00871146D01*
Y00871053D01*
X00777737Y00870845D01*
X00777783Y00870729D01*
X00777876Y00870637D01*
X00777899D01*
X00777922Y00870590D01*
X00778061Y00870521D01*
X00778246Y00870428D01*
X00778385Y00870405D01*
X00778500Y00870382D01*
X00780884D01*
X00780953Y00870405D01*
X00781046D01*
X00781254Y00870498D01*
X00781346Y00870544D01*
X00781462Y00870637D01*
X00781485Y00870660D01*
X00781508Y00870683D01*
X00781601Y00870822D01*
X00781693Y00871007D01*
X00781740Y00871146D01*
Y00871285D01*
Y00879059D01*
D02*
G37*
%LPD*%
G36*
X00410000Y00486000D02*
X00380000D01*
Y00512000D01*
X00410000D01*
Y00486000D01*
D02*
G37*
G36*
X00339000Y00469000D02*
X00331000Y00461000D01*
X00296000D01*
Y00476000D01*
X00326000Y00476000D01*
X00329000Y00479000D01*
Y00486000D01*
X00339000D01*
Y00469000D01*
D02*
G37*
G36*
X00360000Y00512000D02*
X00376000D01*
Y00473000D01*
X00341039D01*
Y00486000D01*
X00341000Y00486197D01*
Y00513000D01*
X00344000D01*
Y00527000D01*
X00360000D01*
Y00512000D01*
D02*
G37*
G36*
X00885000Y00660000D02*
X00848000D01*
Y00680000D01*
X00885000D01*
Y00660000D01*
D02*
G37*
G36*
Y00636000D02*
X00848000D01*
Y00656000D01*
X00885000D01*
Y00636000D01*
D02*
G37*
G36*
X00907000Y00619000D02*
X00888000D01*
X00888000Y00682000D01*
X00885197D01*
X00885000Y00682039D01*
X00848000D01*
X00847803Y00682000D01*
X00833197D01*
X00833000Y00682039D01*
X00777039D01*
Y00701000D01*
X00907000D01*
Y00619000D01*
D02*
G37*
G36*
X00775000Y00680000D02*
X00833000D01*
Y00120000D01*
X00462000Y00120000D01*
X00453000Y00111000D01*
Y00036000D01*
X00122000D01*
Y00160000D01*
X00215000D01*
Y00715000D01*
X00269000D01*
Y00691000D01*
X00235000D01*
Y00140000D01*
X00142000D01*
Y00056000D01*
X00411000D01*
X00411000Y00123000D01*
X00428000Y00140000D01*
X00813000D01*
X00812999Y00660000D01*
X00755000D01*
Y00715000D01*
X00775000D01*
Y00680000D01*
D02*
G37*
D13*
X00239000Y00832000D02*
D03*
X00361000Y00788000D02*
D03*
X00239000Y00788000D02*
D03*
X00361000Y00832000D02*
D03*
X00710000Y00788000D02*
D03*
X00570000D02*
D03*
Y00832000D02*
D03*
X00710000D02*
D03*
D14*
X00319000Y00500750D02*
D03*
X00319000Y00517250D02*
D03*
X00319000Y00485250D02*
D03*
Y00468750D02*
D03*
X00385000Y00522250D02*
D03*
Y00505750D02*
D03*
X00367000Y00522250D02*
D03*
Y00505750D02*
D03*
X00798000Y00690750D02*
D03*
X00798000Y00707250D02*
D03*
X00880000Y00565250D02*
D03*
Y00548750D02*
D03*
X00812000Y00707250D02*
D03*
Y00690750D02*
D03*
D15*
X00059250Y00417000D02*
D03*
X00042750D02*
D03*
X00059250Y00392000D02*
D03*
X00042750D02*
D03*
X00384250Y00491000D02*
D03*
X00367750D02*
D03*
X00335750Y00523000D02*
D03*
X00352250D02*
D03*
X00897250Y00418000D02*
D03*
X00881000Y00580000D02*
D03*
X00897500D02*
D03*
X00783250Y00708000D02*
D03*
X00766750D02*
D03*
X00783250Y00690000D02*
D03*
X00766750D02*
D03*
X00880750Y00418000D02*
D03*
D16*
X00353500Y00479500D02*
D03*
X00344000Y00479500D02*
D03*
X00334500Y00479500D02*
D03*
Y00506500D02*
D03*
X00344000Y00506500D02*
D03*
X00900500Y00645500D02*
D03*
X00891000Y00645500D02*
D03*
X00881500Y00645500D02*
D03*
Y00672500D02*
D03*
X00891000Y00672500D02*
D03*
X00900500Y00672500D02*
D03*
D17*
X00353500Y00506500D02*
D03*
D18*
X00900000Y00626000D02*
D03*
X00880000D02*
D03*
D19*
X00899000Y00565500D02*
D03*
X00919000Y00556000D02*
D03*
X00899000Y00546500D02*
D03*
D20*
X00546200Y00607300D02*
D03*
X00520800Y00632700D02*
D03*
X00520800Y00607300D02*
D03*
X00495400Y00632700D02*
D03*
Y00607300D02*
D03*
X00470000Y00632700D02*
D03*
Y00607300D02*
D03*
X00444600Y00632700D02*
D03*
Y00607300D02*
D03*
X00419200Y00632700D02*
D03*
X00419200Y00607300D02*
D03*
X00393800Y00632700D02*
D03*
Y00607300D02*
D03*
X00368400Y00632700D02*
D03*
X00546200D02*
D03*
X00571600Y00607300D02*
D03*
Y00632700D02*
D03*
X00260900Y00188700D02*
D03*
Y00214100D02*
D03*
Y00239500D02*
D03*
Y00264900D02*
D03*
Y00290300D02*
D03*
X00083100Y00188700D02*
D03*
Y00214100D02*
D03*
Y00239500D02*
D03*
Y00264900D02*
D03*
Y00290300D02*
D03*
X00260900Y00315700D02*
D03*
Y00671300D02*
D03*
Y00645900D02*
D03*
Y00620500D02*
D03*
Y00569700D02*
D03*
Y00544300D02*
D03*
Y00518900D02*
D03*
Y00493500D02*
D03*
Y00468100D02*
D03*
Y00442700D02*
D03*
Y00417300D02*
D03*
Y00391900D02*
D03*
Y00366500D02*
D03*
Y00341100D02*
D03*
X00083100Y00315700D02*
D03*
Y00341100D02*
D03*
Y00366500D02*
D03*
Y00391900D02*
D03*
Y00417300D02*
D03*
Y00442700D02*
D03*
Y00468100D02*
D03*
Y00493500D02*
D03*
Y00518900D02*
D03*
Y00544300D02*
D03*
Y00569700D02*
D03*
Y00595100D02*
D03*
Y00620500D02*
D03*
Y00645900D02*
D03*
X00260900Y00595100D02*
D03*
X00679100Y00468100D02*
D03*
X00679100Y00518900D02*
D03*
X00679100Y00544300D02*
D03*
Y00595100D02*
D03*
X00679100Y00569700D02*
D03*
Y00645900D02*
D03*
X00856900Y00569700D02*
D03*
X00266800Y00105700D02*
D03*
Y00080300D02*
D03*
X00292200Y00105700D02*
D03*
Y00080300D02*
D03*
X00317600Y00105700D02*
D03*
Y00080300D02*
D03*
X00343000Y00105700D02*
D03*
Y00080300D02*
D03*
X00368400Y00105700D02*
D03*
Y00080300D02*
D03*
X00393800Y00105700D02*
D03*
Y00080300D02*
D03*
X00419200Y00105700D02*
D03*
Y00080300D02*
D03*
X00444600Y00105700D02*
D03*
Y00080300D02*
D03*
X00470000Y00105700D02*
D03*
Y00080300D02*
D03*
X00495400Y00105700D02*
D03*
Y00080300D02*
D03*
X00520800Y00105700D02*
D03*
Y00080300D02*
D03*
X00546200Y00105700D02*
D03*
Y00080300D02*
D03*
X00571600Y00105700D02*
D03*
Y00080300D02*
D03*
X00597000Y00105700D02*
D03*
Y00080300D02*
D03*
X00622400Y00105700D02*
D03*
Y00080300D02*
D03*
X00647800Y00105700D02*
D03*
Y00080300D02*
D03*
X00673200Y00105700D02*
D03*
Y00080300D02*
D03*
X00698600Y00105700D02*
D03*
Y00080300D02*
D03*
X00724000Y00105700D02*
D03*
Y00080300D02*
D03*
X00749400Y00105700D02*
D03*
Y00080300D02*
D03*
X00774800Y00105700D02*
D03*
Y00080300D02*
D03*
X00216000Y00105700D02*
D03*
X00190600D02*
D03*
X00216000Y00080300D02*
D03*
X00190600D02*
D03*
X00165200D02*
D03*
X00241400Y00105700D02*
D03*
Y00080300D02*
D03*
X00679100Y00620500D02*
D03*
Y00442700D02*
D03*
Y00493500D02*
D03*
X00856900Y00620500D02*
D03*
X00679100Y00239500D02*
D03*
Y00214100D02*
D03*
Y00315700D02*
D03*
Y00264900D02*
D03*
Y00391900D02*
D03*
Y00366500D02*
D03*
X00679100Y00417300D02*
D03*
X00856900Y00391900D02*
D03*
X00679100Y00290300D02*
D03*
Y00188700D02*
D03*
Y00341100D02*
D03*
X00856900Y00493500D02*
D03*
Y00366500D02*
D03*
Y00341100D02*
D03*
Y00442700D02*
D03*
Y00417300D02*
D03*
Y00645900D02*
D03*
Y00671300D02*
D03*
X00856900Y00595100D02*
D03*
X00856900Y00544300D02*
D03*
Y00518900D02*
D03*
X00856900Y00468100D02*
D03*
X00856900Y00214100D02*
D03*
Y00188700D02*
D03*
Y00315700D02*
D03*
Y00290300D02*
D03*
Y00264900D02*
D03*
X00856900Y00239500D02*
D03*
D21*
X00368400Y00607300D02*
D03*
X00083100Y00671300D02*
D03*
X00679100Y00671300D02*
D03*
X00165200Y00105700D02*
D03*
D22*
X00046000Y00095500D02*
D03*
Y00020500D02*
D03*
X00096000D02*
D03*
Y00095500D02*
D03*
X00046000Y00799500D02*
D03*
Y00724500D02*
D03*
X00096000D02*
D03*
Y00799500D02*
D03*
X00894000Y00724500D02*
D03*
Y00799500D02*
D03*
X00844000D02*
D03*
Y00724500D02*
D03*
X00894000Y00020500D02*
D03*
Y00095500D02*
D03*
X00844000D02*
D03*
Y00020500D02*
D03*
D23*
X00620000Y00820000D02*
D03*
X00565000Y00800000D02*
D03*
X00575000D02*
D03*
X00705000D02*
D03*
X00715000D02*
D03*
X00705000Y00820000D02*
D03*
X00715000D02*
D03*
X00565000D02*
D03*
X00575000D02*
D03*
X00680000D02*
D03*
X00660000D02*
D03*
X00640000D02*
D03*
X00600000D02*
D03*
X00330000D02*
D03*
X00310000D02*
D03*
X00290000D02*
D03*
X00270000D02*
D03*
X00234000Y00800000D02*
D03*
X00244000D02*
D03*
X00356000Y00800000D02*
D03*
X00366000D02*
D03*
X00356000Y00820000D02*
D03*
X00366000D02*
D03*
X00244000D02*
D03*
X00234000D02*
D03*
D24*
X00290000D02*
Y00825000D01*
X00285000Y00830000D02*
X00295000D01*
X00281000Y00834000D02*
X00285000Y00830000D01*
X00295000D02*
X00299000Y00834000D01*
X00625000Y00830000D02*
X00629000Y00834000D01*
X00611000D02*
X00615000Y00830000D01*
X00625000D01*
X00620000Y00820000D02*
Y00825000D01*
X00702000Y00857000D02*
X00732000D01*
X00600000D02*
X00702000D01*
X00732000D02*
X00748000Y00841000D01*
X00403000Y00492000D02*
Y00540000D01*
X00368400Y00574600D02*
Y00607300D01*
Y00574600D02*
X00403000Y00540000D01*
X00356000Y00158000D02*
X00384000D01*
X00395000Y00147000D01*
X00265000Y00126000D02*
X00297000Y00158000D01*
X00165200Y00108200D02*
X00183000Y00126000D01*
X00265000D01*
X00297000Y00158000D02*
X00356000D01*
Y00199000D01*
X00165200Y00080300D02*
Y00105700D01*
X00165200Y00105700D02*
Y00108200D01*
D25*
X00677000Y00866000D02*
X00745000D01*
X00310000Y00851000D02*
Y00867000D01*
X00745000Y00866000D02*
X00780000Y00831000D01*
Y00771000D02*
Y00831000D01*
X00118515Y00765000D02*
X00129000Y00775485D01*
Y00849000D01*
X00161000Y00881000D01*
X00233000D01*
X00123000Y00852000D02*
X00158000Y00887000D01*
X00123000Y00777971D02*
Y00852000D01*
X00158000Y00887000D02*
X00231000D01*
X00116030Y00771000D02*
X00123000Y00777971D01*
X00233000Y00881000D02*
X00662000D01*
X00031515Y00765000D02*
X00118515D01*
X00231000Y00887000D02*
X00666000D01*
X00029030Y00771000D02*
X00116030D01*
X00260900Y00468100D02*
X00283000Y00446000D01*
X00555000D02*
X00591000Y00482000D01*
X00283000Y00446000D02*
X00555000D01*
X00053000Y00700000D02*
X00133000D01*
X00185000Y00752000D02*
X00276515D01*
X00133000Y00700000D02*
X00185000Y00752000D01*
X00183000Y00758000D02*
X00279000D01*
X00050000Y00705000D02*
X00130000D01*
X00183000Y00758000D01*
X00039000Y00686000D02*
X00053000Y00700000D01*
X00040697Y00417000D02*
X00042750D01*
X00039000Y00671002D02*
X00040697Y00417000D01*
X00039000Y00671002D02*
Y00686000D01*
X00034000Y00400750D02*
Y00689000D01*
X00050000Y00705000D01*
X00657000Y00711515D02*
Y00711515D01*
X00412000Y00132000D02*
X00419000Y00139000D01*
X00315000Y00132000D02*
X00412000D01*
X00140000Y00683000D02*
X00189000Y00732000D01*
X00061000Y00683000D02*
X00140000D01*
X00189000Y00732000D02*
X00270000D01*
X00113000Y00392000D02*
X00121000Y00384000D01*
X00113000Y00392000D02*
Y00546871D01*
X00578000Y00534000D02*
X00591000Y00521000D01*
X00547000Y00534000D02*
X00578000D01*
X00591000Y00482000D02*
Y00521000D01*
X00697000Y00544000D02*
X00733363D01*
X00696000Y00519000D02*
X00732000D01*
X00683000Y00532000D02*
X00696000Y00519000D01*
X00670000Y00532000D02*
X00683000D01*
X00657000Y00545000D02*
X00670000Y00532000D01*
X00684000Y00557000D02*
X00697000Y00544000D01*
X00673000Y00557000D02*
X00684000D01*
X00663000Y00567000D02*
X00673000Y00557000D01*
X00056000Y00678000D02*
X00061000Y00683000D01*
X00034000Y00400750D02*
X00042750Y00392000D01*
X00056000Y00539000D02*
Y00678000D01*
Y00539000D02*
X00060850Y00534150D01*
X00072950D01*
X00059250Y00392000D02*
X00083000D01*
X00298000Y00068000D02*
X00305000Y00075000D01*
X00279100Y00068000D02*
X00298000D01*
X00266800Y00080300D02*
X00279100Y00068000D01*
X00072950Y00534150D02*
X00083100Y00544300D01*
X00108000Y00386000D02*
Y00544800D01*
X00125000Y00476000D02*
X00167000Y00434000D01*
X00125000Y00476000D02*
Y00604000D01*
X00083100Y00645900D02*
X00125000Y00604000D01*
X00083100Y00671300D02*
X00131000Y00623400D01*
Y00478000D02*
X00175000Y00434000D01*
X00131000Y00478000D02*
Y00623400D01*
X00083100Y00595100D02*
X00113000Y00565200D01*
Y00546871D02*
Y00565200D01*
X00083100Y00569700D02*
X00108000Y00544800D01*
X00082800Y00417000D02*
X00083100Y00417300D01*
X00059250Y00417000D02*
X00082800D01*
X00020000Y00446000D02*
Y00745000D01*
Y00446000D02*
X00023000Y00443000D01*
X00175000Y00357000D02*
Y00434000D01*
X00167000Y00348000D02*
Y00434000D01*
X00020000Y00745000D02*
X00034000Y00759000D01*
X00291000Y00652000D02*
X00385000D01*
X00279000Y00664000D02*
Y00723000D01*
Y00664000D02*
X00291000Y00652000D01*
X00270000Y00732000D02*
X00279000Y00723000D01*
X00393800Y00632700D02*
Y00643200D01*
X00385000Y00652000D02*
X00393800Y00643200D01*
X00276515Y00752000D02*
X00309515Y00719000D01*
X00279000Y00758000D02*
X00312000Y00725000D01*
X00052900Y00341100D02*
X00083100D01*
X00015000Y00379000D02*
X00052900Y00341100D01*
X00015000Y00379000D02*
Y00748485D01*
X00043300Y00315700D02*
X00083100D01*
X00009000Y00350000D02*
X00043300Y00315700D01*
X00009000Y00350000D02*
Y00750971D01*
X00015000Y00748485D02*
X00031515Y00765000D01*
X00009000Y00750971D02*
X00029030Y00771000D01*
X00666000Y00887000D02*
X00680000Y00873000D01*
X00662000Y00881000D02*
X00677000Y00866000D01*
X00034000Y00759000D02*
X00164000D01*
X00176000Y00771000D01*
X00309515Y00719000D02*
X00649515Y00719000D01*
X00657000Y00545000D02*
Y00711515D01*
X00312000Y00725000D02*
X00652000Y00725000D01*
X00663000Y00567000D02*
Y00714000D01*
X00652000Y00725000D02*
X00663000Y00714000D01*
X00649515Y00719000D02*
X00657000Y00711515D01*
X00305000Y00122000D02*
X00315000Y00132000D01*
X00663000Y00219000D02*
Y00375800D01*
X00679100Y00391900D01*
X00313000Y00139000D02*
X00371000D01*
X00292200Y00118200D02*
X00313000Y00139000D01*
X00305000Y00075000D02*
Y00122000D01*
X00292200Y00105700D02*
Y00118200D01*
X00266800Y00080300D02*
Y00105700D01*
X00798000Y00159000D02*
Y00187000D01*
X00292200Y00080300D02*
Y00105700D01*
X00649000Y00205000D02*
X00663000Y00219000D01*
X00600000Y00205000D02*
X00649000D01*
D26*
X00330000Y00851000D02*
Y00873750D01*
X00058000Y00689000D02*
X00138000D01*
X00187000Y00738000D02*
X00272000D01*
X00138000Y00689000D02*
X00187000Y00738000D01*
X00050000Y00681000D02*
X00058000Y00689000D01*
X00050000Y00537000D02*
Y00681000D01*
Y00537000D02*
X00058000Y00529000D01*
X00073000D01*
X00083100Y00518900D01*
X00294000Y00658000D02*
X00387000D01*
X00285000Y00667000D02*
X00294000Y00658000D01*
X00285000Y00667000D02*
Y00725000D01*
X00272000Y00738000D02*
X00285000Y00725000D01*
X00406000Y00619500D02*
Y00639000D01*
X00393800Y00607300D02*
X00406000Y00619500D01*
X00387000Y00658000D02*
X00406000Y00639000D01*
D27*
X00334500Y00500750D02*
Y00506500D01*
X00319000Y00500750D02*
X00334500D01*
X00319000Y00485250D02*
Y00500750D01*
X00334500Y00506500D02*
Y00521750D01*
X00335750Y00523000D01*
X00897250Y00408250D02*
Y00418000D01*
X00856900Y00569700D02*
X00867200Y00580000D01*
X00881000D01*
X00880034Y00565284D02*
X00898784D01*
X00877850Y00565250D02*
X00880000D01*
X00856900Y00544300D02*
X00877850Y00565250D01*
X00897500Y00567000D02*
Y00580000D01*
Y00567000D02*
X00899000Y00565500D01*
D28*
X00384250Y00491000D02*
X00403000D01*
Y00493250D02*
X00547250Y00493250D01*
X00260900Y00518900D02*
X00262550Y00517250D01*
X00319000D01*
X00151000Y00323000D02*
Y00362000D01*
Y00364000D02*
Y00409000D01*
Y00362000D02*
Y00364000D01*
X00701000Y00296000D02*
Y00360000D01*
X00759000D01*
X00241400Y00080300D02*
Y00105700D01*
X00216000Y00080300D02*
Y00105700D01*
X00190600Y00105700D02*
X00190600Y00105700D01*
X00190600Y00080300D02*
Y00105700D01*
X00881000Y00418000D02*
X00881616Y00417384D01*
X00856900Y00417300D02*
X00878450D01*
X00571600Y00080300D02*
X00572250Y00080950D01*
D29*
X00450000Y00180000D02*
X00480000Y00150000D01*
X00747000D01*
X00779000Y00182000D01*
Y00555000D02*
Y00570000D01*
Y00540300D02*
Y00555000D01*
Y00525600D02*
Y00540300D01*
X00431000Y00228000D02*
X00575000D01*
X00450000Y00180000D02*
Y00209000D01*
Y00204000D02*
Y00228000D01*
X00779000Y00182000D02*
Y00525600D01*
X00450000Y00228000D02*
X00450000Y00228000D01*
X00431000Y00228000D02*
X00450000D01*
X00575000D02*
X00594000Y00247000D01*
Y00298000D01*
X00356000Y00228000D02*
X00431000D01*
D30*
X00857000Y00646000D02*
X00857100Y00645900D01*
D31*
X00702000Y00857000D02*
D03*
X00330000Y00851000D02*
D03*
X00310000D02*
D03*
X00738000Y00880000D02*
D03*
X00027000Y00622000D02*
D03*
Y00418000D02*
D03*
Y00472000D02*
D03*
X00303000Y00483000D02*
D03*
Y00508000D02*
D03*
X00569000Y00542000D02*
D03*
X00147000Y00840000D02*
D03*
X00160000Y00851000D02*
D03*
X00224000Y00829000D02*
D03*
X00254000D02*
D03*
X00367000Y00532000D02*
D03*
X00346000Y00833000D02*
D03*
X00376000D02*
D03*
X00346000Y00787000D02*
D03*
X00376000D02*
D03*
X00224000Y00787000D02*
D03*
X00254000D02*
D03*
X00695000Y00787000D02*
D03*
X00725000D02*
D03*
X00555000D02*
D03*
X00585000D02*
D03*
X00555000Y00833000D02*
D03*
X00585000D02*
D03*
X00725000D02*
D03*
X00695000D02*
D03*
X00395000Y00147000D02*
D03*
X00222000Y00722000D02*
D03*
X00207792D02*
D03*
X00194000D02*
D03*
X00299000Y00834000D02*
D03*
X00281000D02*
D03*
X00611000Y00834000D02*
D03*
X00629000D02*
D03*
X00569000Y00526000D02*
D03*
X00547000Y00534000D02*
D03*
X00300000Y00468000D02*
D03*
X00310000D02*
D03*
X00547250Y00493250D02*
D03*
X00732000Y00544000D02*
D03*
Y00519000D02*
D03*
X00926000Y00772000D02*
D03*
X00911000Y00742000D02*
D03*
X00926000Y00712000D02*
D03*
Y00652000D02*
D03*
Y00592000D02*
D03*
Y00532000D02*
D03*
X00911000Y00502000D02*
D03*
X00926000Y00472000D02*
D03*
X00911000Y00442000D02*
D03*
X00926000Y00412000D02*
D03*
X00911000Y00382000D02*
D03*
X00926000Y00352000D02*
D03*
X00911000Y00322000D02*
D03*
X00926000Y00292000D02*
D03*
X00911000Y00262000D02*
D03*
X00926000Y00232000D02*
D03*
X00911000Y00202000D02*
D03*
X00926000Y00172000D02*
D03*
X00911000Y00142000D02*
D03*
X00926000Y00112000D02*
D03*
Y00052000D02*
D03*
X00896000Y00772000D02*
D03*
X00881000Y00742000D02*
D03*
X00896000Y00592000D02*
D03*
X00881000Y00502000D02*
D03*
Y00442000D02*
D03*
Y00382000D02*
D03*
X00896000Y00352000D02*
D03*
X00881000Y00322000D02*
D03*
X00896000Y00292000D02*
D03*
X00881000Y00262000D02*
D03*
X00896000Y00232000D02*
D03*
X00881000Y00202000D02*
D03*
X00896000Y00172000D02*
D03*
X00881000Y00142000D02*
D03*
X00896000Y00052000D02*
D03*
X00866000Y00832000D02*
D03*
Y00772000D02*
D03*
Y00712000D02*
D03*
Y00532000D02*
D03*
Y00352000D02*
D03*
X00851000Y00142000D02*
D03*
X00866000Y00112000D02*
D03*
Y00052000D02*
D03*
X00836000Y00832000D02*
D03*
Y00772000D02*
D03*
X00821000Y00742000D02*
D03*
Y00082000D02*
D03*
X00836000Y00052000D02*
D03*
X00806000Y00772000D02*
D03*
X00791000Y00742000D02*
D03*
Y00622000D02*
D03*
X00806000Y00112000D02*
D03*
X00791000Y00082000D02*
D03*
X00806000Y00052000D02*
D03*
X00791000Y00022000D02*
D03*
X00761000Y00742000D02*
D03*
X00776000Y00652000D02*
D03*
X00761000Y00622000D02*
D03*
X00776000Y00592000D02*
D03*
X00761000Y00562000D02*
D03*
Y00502000D02*
D03*
Y00442000D02*
D03*
Y00202000D02*
D03*
X00776000Y00052000D02*
D03*
X00761000Y00022000D02*
D03*
X00746000Y00712000D02*
D03*
X00731000Y00682000D02*
D03*
X00746000Y00652000D02*
D03*
X00731000Y00622000D02*
D03*
X00746000Y00592000D02*
D03*
X00731000Y00562000D02*
D03*
X00746000Y00532000D02*
D03*
X00731000Y00502000D02*
D03*
X00746000Y00472000D02*
D03*
X00731000Y00442000D02*
D03*
X00746000Y00412000D02*
D03*
X00731000Y00322000D02*
D03*
X00746000Y00232000D02*
D03*
X00731000Y00202000D02*
D03*
X00746000Y00052000D02*
D03*
X00731000Y00022000D02*
D03*
X00716000Y00772000D02*
D03*
Y00712000D02*
D03*
X00701000Y00682000D02*
D03*
X00716000Y00652000D02*
D03*
X00701000Y00622000D02*
D03*
X00716000Y00592000D02*
D03*
X00701000Y00562000D02*
D03*
Y00502000D02*
D03*
X00716000Y00472000D02*
D03*
X00701000Y00442000D02*
D03*
X00716000Y00412000D02*
D03*
Y00232000D02*
D03*
X00701000Y00202000D02*
D03*
X00716000Y00052000D02*
D03*
X00701000Y00022000D02*
D03*
X00686000Y00772000D02*
D03*
Y00112000D02*
D03*
Y00052000D02*
D03*
X00671000Y00022000D02*
D03*
X00656000Y00772000D02*
D03*
X00641000Y00622000D02*
D03*
X00656000Y00532000D02*
D03*
X00641000Y00502000D02*
D03*
X00656000Y00472000D02*
D03*
X00641000Y00442000D02*
D03*
X00656000Y00412000D02*
D03*
X00641000Y00382000D02*
D03*
Y00322000D02*
D03*
X00656000Y00052000D02*
D03*
X00641000Y00022000D02*
D03*
X00626000Y00772000D02*
D03*
Y00712000D02*
D03*
Y00652000D02*
D03*
X00611000Y00622000D02*
D03*
X00626000Y00532000D02*
D03*
X00611000Y00502000D02*
D03*
X00626000Y00472000D02*
D03*
X00611000Y00442000D02*
D03*
Y00382000D02*
D03*
X00626000Y00352000D02*
D03*
X00611000Y00322000D02*
D03*
X00626000Y00292000D02*
D03*
Y00052000D02*
D03*
X00611000Y00022000D02*
D03*
X00581000Y00862000D02*
D03*
X00596000Y00772000D02*
D03*
Y00712000D02*
D03*
Y00652000D02*
D03*
Y00532000D02*
D03*
Y00472000D02*
D03*
X00581000Y00442000D02*
D03*
X00596000Y00352000D02*
D03*
X00581000Y00322000D02*
D03*
X00596000Y00172000D02*
D03*
Y00052000D02*
D03*
X00581000Y00022000D02*
D03*
X00551000Y00862000D02*
D03*
X00566000Y00772000D02*
D03*
Y00712000D02*
D03*
Y00652000D02*
D03*
Y00352000D02*
D03*
Y00052000D02*
D03*
X00551000Y00022000D02*
D03*
X00536000Y00832000D02*
D03*
X00521000Y00802000D02*
D03*
X00536000Y00772000D02*
D03*
Y00712000D02*
D03*
Y00652000D02*
D03*
Y00352000D02*
D03*
X00521000Y00322000D02*
D03*
Y00262000D02*
D03*
X00536000Y00052000D02*
D03*
X00521000Y00022000D02*
D03*
X00506000Y00832000D02*
D03*
X00491000Y00802000D02*
D03*
X00506000Y00772000D02*
D03*
Y00712000D02*
D03*
Y00652000D02*
D03*
X00491000Y00382000D02*
D03*
X00506000Y00292000D02*
D03*
X00491000Y00262000D02*
D03*
X00506000Y00112000D02*
D03*
Y00052000D02*
D03*
X00491000Y00022000D02*
D03*
X00476000Y00832000D02*
D03*
X00461000Y00802000D02*
D03*
X00476000Y00772000D02*
D03*
Y00712000D02*
D03*
Y00652000D02*
D03*
Y00352000D02*
D03*
Y00052000D02*
D03*
X00461000Y00022000D02*
D03*
X00446000Y00832000D02*
D03*
X00431000Y00802000D02*
D03*
X00446000Y00772000D02*
D03*
Y00712000D02*
D03*
Y00652000D02*
D03*
Y00352000D02*
D03*
X00431000Y00322000D02*
D03*
Y00262000D02*
D03*
Y00022000D02*
D03*
X00416000Y00832000D02*
D03*
X00401000Y00802000D02*
D03*
X00416000Y00772000D02*
D03*
Y00712000D02*
D03*
Y00652000D02*
D03*
Y00292000D02*
D03*
X00401000Y00022000D02*
D03*
X00386000Y00772000D02*
D03*
Y00712000D02*
D03*
Y00592000D02*
D03*
X00371000Y00022000D02*
D03*
X00356000Y00772000D02*
D03*
Y00712000D02*
D03*
X00341000Y00622000D02*
D03*
X00356000Y00592000D02*
D03*
X00341000Y00022000D02*
D03*
X00326000Y00772000D02*
D03*
Y00712000D02*
D03*
X00311000Y00622000D02*
D03*
X00326000Y00532000D02*
D03*
X00311000Y00022000D02*
D03*
X00296000Y00772000D02*
D03*
Y00592000D02*
D03*
Y00532000D02*
D03*
X00281000Y00022000D02*
D03*
X00266000Y00772000D02*
D03*
Y00532000D02*
D03*
X00251000Y00142000D02*
D03*
Y00022000D02*
D03*
X00236000Y00772000D02*
D03*
X00221000Y00022000D02*
D03*
X00206000Y00772000D02*
D03*
X00191000Y00622000D02*
D03*
X00206000Y00532000D02*
D03*
X00191000Y00502000D02*
D03*
Y00442000D02*
D03*
Y00322000D02*
D03*
Y00262000D02*
D03*
Y00202000D02*
D03*
Y00022000D02*
D03*
X00176000Y00652000D02*
D03*
Y00592000D02*
D03*
X00161000Y00562000D02*
D03*
Y00502000D02*
D03*
Y00322000D02*
D03*
X00176000Y00292000D02*
D03*
X00161000Y00262000D02*
D03*
X00176000Y00232000D02*
D03*
X00161000Y00202000D02*
D03*
Y00022000D02*
D03*
X00131000Y00742000D02*
D03*
X00146000Y00652000D02*
D03*
Y00592000D02*
D03*
Y00532000D02*
D03*
X00131000Y00442000D02*
D03*
X00146000Y00292000D02*
D03*
X00131000Y00262000D02*
D03*
X00146000Y00232000D02*
D03*
X00131000Y00202000D02*
D03*
Y00022000D02*
D03*
X00101000Y00862000D02*
D03*
X00116000Y00712000D02*
D03*
Y00652000D02*
D03*
Y00592000D02*
D03*
X00101000Y00562000D02*
D03*
Y00502000D02*
D03*
X00116000Y00292000D02*
D03*
X00101000Y00262000D02*
D03*
X00116000Y00232000D02*
D03*
X00101000Y00202000D02*
D03*
Y00142000D02*
D03*
X00116000Y00112000D02*
D03*
Y00052000D02*
D03*
X00071000Y00862000D02*
D03*
X00086000Y00832000D02*
D03*
X00071000Y00802000D02*
D03*
Y00742000D02*
D03*
Y00622000D02*
D03*
Y00562000D02*
D03*
Y00502000D02*
D03*
Y00382000D02*
D03*
Y00142000D02*
D03*
Y00082000D02*
D03*
X00086000Y00052000D02*
D03*
X00071000Y00022000D02*
D03*
X00056000Y00472000D02*
D03*
X00041000Y00382000D02*
D03*
X00056000Y00352000D02*
D03*
Y00292000D02*
D03*
X00041000Y00262000D02*
D03*
Y00202000D02*
D03*
Y00142000D02*
D03*
X00056000Y00052000D02*
D03*
X00011000Y00802000D02*
D03*
X00026000Y00352000D02*
D03*
X00011000Y00322000D02*
D03*
X00026000Y00292000D02*
D03*
X00011000Y00262000D02*
D03*
X00026000Y00232000D02*
D03*
X00011000Y00202000D02*
D03*
X00026000Y00172000D02*
D03*
X00011000Y00142000D02*
D03*
X00026000Y00112000D02*
D03*
X00011000Y00082000D02*
D03*
X00026000Y00052000D02*
D03*
X00011000Y00022000D02*
D03*
X00272000Y00483000D02*
D03*
X00880000Y00538000D02*
D03*
Y00612000D02*
D03*
X00701000Y00373000D02*
D03*
X00434000Y00147000D02*
D03*
X00501000Y00272000D02*
D03*
X00809000Y00826000D02*
D03*
X00796000Y00840000D02*
D03*
X00106000Y00607000D02*
D03*
X00208000Y00492000D02*
D03*
Y00462000D02*
D03*
X00127000Y00370000D02*
D03*
X00143000Y00383000D02*
D03*
X00108000Y00309000D02*
D03*
Y00330000D02*
D03*
Y00356000D02*
D03*
X00151000Y00409000D02*
D03*
X00807000Y00222000D02*
D03*
Y00252000D02*
D03*
Y00312000D02*
D03*
Y00282000D02*
D03*
X00121000Y00384000D02*
D03*
X00108000D02*
D03*
X00151000Y00321000D02*
D03*
X00175000Y00355000D02*
D03*
X00208000Y00432000D02*
D03*
X00023000Y00443000D02*
D03*
X00151000Y00362000D02*
D03*
X00330000Y00873750D02*
D03*
X00680000Y00873000D02*
D03*
X00600000Y00857000D02*
D03*
X00748000Y00841000D02*
D03*
X00381000Y00068000D02*
D03*
X00355600D02*
D03*
X00330200D02*
D03*
X00152400Y00118400D02*
D03*
Y00093000D02*
D03*
Y00068000D02*
D03*
X00177800D02*
D03*
X00203200D02*
D03*
X00228600D02*
D03*
X00780000Y00771000D02*
D03*
X00176000D02*
D03*
X00208000Y00582000D02*
D03*
X00257000Y00703000D02*
D03*
X00263000Y00695000D02*
D03*
X00251000D02*
D03*
X00263000Y00711000D02*
D03*
X00251000D02*
D03*
X00310000Y00867000D02*
D03*
X00167000Y00346000D02*
D03*
X00187000Y00369000D02*
D03*
X00406213Y00419213D02*
D03*
X00779000Y00555000D02*
D03*
Y00540300D02*
D03*
X00562000Y00163250D02*
D03*
X00434000Y00164000D02*
D03*
X00419000Y00139000D02*
D03*
X00793000Y00368000D02*
D03*
X00779000Y00525600D02*
D03*
Y00570000D02*
D03*
X00839000Y00583000D02*
D03*
X00807000D02*
D03*
X00243000Y00252000D02*
D03*
X00208000D02*
D03*
Y00192000D02*
D03*
Y00222000D02*
D03*
Y00282000D02*
D03*
Y00312000D02*
D03*
Y00342000D02*
D03*
Y00372000D02*
D03*
Y00402000D02*
D03*
Y00612000D02*
D03*
X00243000D02*
D03*
Y00582000D02*
D03*
Y00492000D02*
D03*
Y00462000D02*
D03*
Y00432000D02*
D03*
Y00192000D02*
D03*
Y00222000D02*
D03*
Y00282000D02*
D03*
Y00312000D02*
D03*
Y00402000D02*
D03*
Y00372000D02*
D03*
Y00342000D02*
D03*
X00608000Y00236000D02*
D03*
X00385000Y00398000D02*
D03*
X00371000Y00139000D02*
D03*
X00356000Y00146000D02*
D03*
X00405000Y00368000D02*
D03*
Y00338000D02*
D03*
Y00308000D02*
D03*
Y00278000D02*
D03*
Y00248000D02*
D03*
X00586213Y00419213D02*
D03*
X00556213D02*
D03*
X00526213D02*
D03*
X00496213D02*
D03*
X00466213D02*
D03*
X00436213D02*
D03*
X00385000Y00248000D02*
D03*
Y00278000D02*
D03*
Y00308000D02*
D03*
Y00338000D02*
D03*
Y00368000D02*
D03*
X00356000Y00199000D02*
D03*
X00340000Y00200000D02*
D03*
X00701000Y00296000D02*
D03*
Y00360000D02*
D03*
X00759000D02*
D03*
X00717000Y00383000D02*
D03*
X00594000Y00247000D02*
D03*
Y00298000D02*
D03*
X00897000Y00408000D02*
D03*
X00356000Y00228000D02*
D03*
X00450000Y00180000D02*
D03*
Y00192000D02*
D03*
Y00204000D02*
D03*
X00521000Y00398000D02*
D03*
X00421000Y00378000D02*
D03*
Y00368000D02*
D03*
Y00358000D02*
D03*
Y00348000D02*
D03*
Y00388000D02*
D03*
Y00398000D02*
D03*
X00431000D02*
D03*
X00441000D02*
D03*
X00451000D02*
D03*
X00461000D02*
D03*
X00471000D02*
D03*
X00481000D02*
D03*
X00491000D02*
D03*
X00501000D02*
D03*
X00511000D02*
D03*
X00531000D02*
D03*
X00541000D02*
D03*
X00551000D02*
D03*
X00561000D02*
D03*
X00571000D02*
D03*
X00581000D02*
D03*
Y00348000D02*
D03*
Y00358000D02*
D03*
Y00368000D02*
D03*
Y00378000D02*
D03*
Y00388000D02*
D03*
X00177800Y00093000D02*
D03*
X00203200D02*
D03*
X00228600D02*
D03*
X00254000D02*
D03*
X00279400D02*
D03*
X00330200D02*
D03*
X00381000D02*
D03*
X00482600D02*
D03*
X00508000D02*
D03*
X00609600D02*
D03*
X00711200D02*
D03*
X00685800D02*
D03*
X00660400D02*
D03*
X00635000D02*
D03*
X00910000Y00547000D02*
D03*
X00254000Y00068000D02*
D03*
X00395000Y00183000D02*
D03*
X00812000Y00717000D02*
D03*
X00798000D02*
D03*
X00783000D02*
D03*
X00722000Y00259000D02*
D03*
X00712000Y00269000D02*
D03*
X00704000Y00283000D02*
D03*
X00714000Y00313000D02*
D03*
X00756000Y00320000D02*
D03*
Y00336000D02*
D03*
X00529000Y00214000D02*
D03*
Y00198000D02*
D03*
X00495000Y00215000D02*
D03*
X00469000Y00214000D02*
D03*
X00440000Y00323000D02*
D03*
X00468000D02*
D03*
Y00339000D02*
D03*
X00534000D02*
D03*
X00798000Y00187000D02*
D03*
Y00159000D02*
D03*
X00839000Y00282000D02*
D03*
X00600000Y00205000D02*
D03*
X00807000Y00642000D02*
D03*
Y00612000D02*
D03*
Y00552000D02*
D03*
Y00522000D02*
D03*
Y00492000D02*
D03*
Y00462000D02*
D03*
Y00432000D02*
D03*
Y00402000D02*
D03*
Y00372000D02*
D03*
Y00342000D02*
D03*
X00839000D02*
D03*
Y00372000D02*
D03*
Y00402000D02*
D03*
Y00432000D02*
D03*
Y00462000D02*
D03*
Y00492000D02*
D03*
Y00522000D02*
D03*
Y00552000D02*
D03*
Y00612000D02*
D03*
Y00642000D02*
D03*
Y00672000D02*
D03*
D32*
X00325000Y00567700D02*
D03*
X00615000D02*
D03*
M02*
