G04*
G04 #@! TF.GenerationSoftware,Altium Limited,Altium Designer,22.1.2 (22)*
G04*
G04 Layer_Physical_Order=2*
G04 Layer_Color=16711680*
%FSAX44Y44*%
%MOMM*%
G71*
G04*
G04 #@! TF.SameCoordinates,FD085C4F-33D3-4CAD-8C95-339AC6E91DDF*
G04*
G04*
G04 #@! TF.FilePolarity,Positive*
G04*
G01*
G75*
%ADD14R,0.8000X0.8000*%
%ADD15R,0.8000X0.8000*%
%ADD16R,0.6000X1.2000*%
G04:AMPARAMS|DCode=17|XSize=0.6mm|YSize=1.2mm|CornerRadius=0.15mm|HoleSize=0mm|Usage=FLASHONLY|Rotation=0.000|XOffset=0mm|YOffset=0mm|HoleType=Round|Shape=RoundedRectangle|*
%AMROUNDEDRECTD17*
21,1,0.6000,0.9000,0,0,0.0*
21,1,0.3000,1.2000,0,0,0.0*
1,1,0.3000,0.1500,-0.4500*
1,1,0.3000,-0.1500,-0.4500*
1,1,0.3000,-0.1500,0.4500*
1,1,0.3000,0.1500,0.4500*
%
%ADD17ROUNDEDRECTD17*%
%ADD18R,0.8000X1.4000*%
%ADD19R,0.9500X0.8000*%
%ADD20C,1.5000*%
G04:AMPARAMS|DCode=21|XSize=1.5mm|YSize=1.5mm|CornerRadius=0.375mm|HoleSize=0mm|Usage=FLASHONLY|Rotation=0.000|XOffset=0mm|YOffset=0mm|HoleType=Round|Shape=RoundedRectangle|*
%AMROUNDEDRECTD21*
21,1,1.5000,0.7500,0,0,0.0*
21,1,0.7500,1.5000,0,0,0.0*
1,1,0.7500,0.3750,-0.3750*
1,1,0.7500,-0.3750,-0.3750*
1,1,0.7500,-0.3750,0.3750*
1,1,0.7500,0.3750,0.3750*
%
%ADD21ROUNDEDRECTD21*%
%ADD22O,3.8000X2.9000*%
%ADD23C,1.0000*%
%ADD24C,1.0000*%
%ADD25C,0.3000*%
%ADD26C,0.3300*%
%ADD27C,0.8000*%
%ADD28C,0.5000*%
%ADD29C,1.5000*%
%ADD30C,0.4000*%
%ADD31C,0.6500*%
%ADD32C,5.8000*%
%ADD33R,1.0000X2.7000*%
G04:AMPARAMS|DCode=34|XSize=1mm|YSize=2.7mm|CornerRadius=0.25mm|HoleSize=0mm|Usage=FLASHONLY|Rotation=180.000|XOffset=0mm|YOffset=0mm|HoleType=Round|Shape=RoundedRectangle|*
%AMROUNDEDRECTD34*
21,1,1.0000,2.2000,0,0,180.0*
21,1,0.5000,2.7000,0,0,180.0*
1,1,0.5000,-0.2500,1.1000*
1,1,0.5000,0.2500,1.1000*
1,1,0.5000,0.2500,-1.1000*
1,1,0.5000,-0.2500,-1.1000*
%
%ADD34ROUNDEDRECTD34*%
%ADD35R,1.2000X0.6000*%
G04:AMPARAMS|DCode=36|XSize=0.6mm|YSize=1.2mm|CornerRadius=0.15mm|HoleSize=0mm|Usage=FLASHONLY|Rotation=90.000|XOffset=0mm|YOffset=0mm|HoleType=Round|Shape=RoundedRectangle|*
%AMROUNDEDRECTD36*
21,1,0.6000,0.9000,0,0,90.0*
21,1,0.3000,1.2000,0,0,90.0*
1,1,0.3000,0.4500,0.1500*
1,1,0.3000,0.4500,-0.1500*
1,1,0.3000,-0.4500,-0.1500*
1,1,0.3000,-0.4500,0.1500*
%
%ADD36ROUNDEDRECTD36*%
%ADD37R,0.6000X1.5500*%
G04:AMPARAMS|DCode=38|XSize=1.55mm|YSize=0.6mm|CornerRadius=0.15mm|HoleSize=0mm|Usage=FLASHONLY|Rotation=90.000|XOffset=0mm|YOffset=0mm|HoleType=Round|Shape=RoundedRectangle|*
%AMROUNDEDRECTD38*
21,1,1.5500,0.3000,0,0,90.0*
21,1,1.2500,0.6000,0,0,90.0*
1,1,0.3000,0.1500,0.6250*
1,1,0.3000,0.1500,-0.6250*
1,1,0.3000,-0.1500,-0.6250*
1,1,0.3000,-0.1500,0.6250*
%
%ADD38ROUNDEDRECTD38*%
%ADD39R,1.9000X0.6000*%
G04:AMPARAMS|DCode=40|XSize=1.15mm|YSize=0.45mm|CornerRadius=0.1125mm|HoleSize=0mm|Usage=FLASHONLY|Rotation=180.000|XOffset=0mm|YOffset=0mm|HoleType=Round|Shape=RoundedRectangle|*
%AMROUNDEDRECTD40*
21,1,1.1500,0.2250,0,0,180.0*
21,1,0.9250,0.4500,0,0,180.0*
1,1,0.2250,-0.4625,0.1125*
1,1,0.2250,0.4625,0.1125*
1,1,0.2250,0.4625,-0.1125*
1,1,0.2250,-0.4625,-0.1125*
%
%ADD40ROUNDEDRECTD40*%
%ADD41R,1.1500X0.4500*%
%ADD42R,5.5000X2.0000*%
G04:AMPARAMS|DCode=43|XSize=1.9mm|YSize=0.6mm|CornerRadius=0.15mm|HoleSize=0mm|Usage=FLASHONLY|Rotation=0.000|XOffset=0mm|YOffset=0mm|HoleType=Round|Shape=RoundedRectangle|*
%AMROUNDEDRECTD43*
21,1,1.9000,0.3000,0,0,0.0*
21,1,1.6000,0.6000,0,0,0.0*
1,1,0.3000,0.8000,-0.1500*
1,1,0.3000,-0.8000,-0.1500*
1,1,0.3000,-0.8000,0.1500*
1,1,0.3000,0.8000,0.1500*
%
%ADD43ROUNDEDRECTD43*%
%ADD44C,0.4500*%
%ADD45C,0.7500*%
G36*
X00874902Y00894902D02*
X00874902Y00844000D01*
X00875290Y00842049D01*
X00876395Y00840395D01*
X00899395Y00817395D01*
X00901049Y00816290D01*
X00903000Y00815902D01*
X00934902D01*
X00934902Y00005098D01*
X00005098Y00005098D01*
X00005098Y00552183D01*
X00006368Y00552568D01*
X00006477Y00552406D01*
X00032406Y00526477D01*
X00033563Y00525703D01*
X00034929Y00525431D01*
X00071522D01*
X00074351Y00522602D01*
X00073844Y00521380D01*
X00073518Y00518900D01*
X00073844Y00516420D01*
X00074802Y00514109D01*
X00076325Y00512125D01*
X00078309Y00510602D01*
X00080620Y00509645D01*
X00083100Y00509318D01*
X00085580Y00509645D01*
X00087891Y00510602D01*
X00089875Y00512125D01*
X00091398Y00514109D01*
X00091883Y00515279D01*
X00099750D01*
Y00513000D01*
X00111750D01*
Y00525000D01*
X00099750D01*
Y00522721D01*
X00091800D01*
X00091398Y00523691D01*
X00089875Y00525676D01*
X00087891Y00527198D01*
X00085580Y00528156D01*
X00083100Y00528482D01*
X00080620Y00528156D01*
X00079398Y00527649D01*
X00075523Y00531523D01*
X00075510Y00531663D01*
X00079398Y00535551D01*
X00080620Y00535045D01*
X00083100Y00534718D01*
X00085580Y00535045D01*
X00087891Y00536002D01*
X00089875Y00537525D01*
X00091398Y00539509D01*
X00091904Y00540731D01*
X00099750D01*
Y00538000D01*
X00111750D01*
Y00550000D01*
X00099750D01*
Y00547869D01*
X00091904D01*
X00091398Y00549091D01*
X00089875Y00551076D01*
X00087891Y00552598D01*
X00085580Y00553555D01*
X00083100Y00553882D01*
X00080620Y00553555D01*
X00078309Y00552598D01*
X00076325Y00551076D01*
X00074802Y00549091D01*
X00073844Y00546780D01*
X00073518Y00544300D01*
X00073844Y00541820D01*
X00074351Y00540598D01*
X00071322Y00537569D01*
X00038478D01*
X00018569Y00557478D01*
Y00746522D01*
X00032478Y00760431D01*
X00118000D01*
X00119366Y00760703D01*
X00120523Y00761477D01*
X00131523Y00772477D01*
X00132297Y00773634D01*
X00132569Y00775000D01*
Y00847522D01*
X00148478Y00863431D01*
X00306070D01*
X00306215Y00863215D01*
X00307952Y00862055D01*
X00310000Y00861647D01*
X00312048Y00862055D01*
X00313785Y00863215D01*
X00313930Y00863431D01*
X00526000D01*
X00527366Y00863703D01*
X00528523Y00864477D01*
X00540478Y00876431D01*
X00632522D01*
X00643431Y00865522D01*
Y00849478D01*
X00642453Y00848500D01*
X00633000D01*
Y00825098D01*
X00607000D01*
Y00832541D01*
X00607060Y00833000D01*
Y00857000D01*
X00606820Y00858827D01*
X00606115Y00860530D01*
X00604992Y00861992D01*
X00603530Y00863114D01*
X00601827Y00863820D01*
X00600000Y00864060D01*
X00598173Y00863820D01*
X00596470Y00863114D01*
X00595008Y00861992D01*
X00593885Y00860530D01*
X00593180Y00858827D01*
X00592940Y00857000D01*
Y00833000D01*
X00593000Y00832541D01*
Y00825098D01*
X00557005D01*
X00555055Y00824710D01*
X00553217Y00823949D01*
X00551563Y00822844D01*
X00550156Y00821437D01*
X00550156Y00821437D01*
X00549051Y00819783D01*
X00548290Y00817945D01*
X00547902Y00815994D01*
Y00815000D01*
X00547902Y00815000D01*
X00547902Y00804006D01*
X00548290Y00802055D01*
X00549051Y00800217D01*
X00550156Y00798563D01*
X00551563Y00797157D01*
X00551563Y00797156D01*
X00553217Y00796051D01*
X00555055Y00795290D01*
X00557005Y00794902D01*
X00558000D01*
X00558000Y00794902D01*
X00722000Y00794902D01*
X00722995D01*
X00724945Y00795290D01*
X00726783Y00796051D01*
X00728437Y00797156D01*
X00729844Y00798563D01*
X00730949Y00800217D01*
X00731710Y00802055D01*
X00732098Y00804005D01*
Y00805000D01*
X00732098Y00805000D01*
X00732098Y00815994D01*
X00731710Y00817945D01*
X00730949Y00819783D01*
X00729844Y00821437D01*
X00728437Y00822843D01*
X00726783Y00823949D01*
X00724945Y00824710D01*
X00722995Y00825098D01*
X00722000D01*
X00722000Y00825098D01*
X00687088D01*
Y00844000D01*
X00686739Y00845756D01*
X00685744Y00847244D01*
X00684256Y00848239D01*
X00683569Y00848376D01*
Y00869070D01*
X00683785Y00869215D01*
X00684097Y00869681D01*
X00687000D01*
Y00868250D01*
X00699000D01*
Y00880250D01*
X00687000D01*
Y00876818D01*
X00683735D01*
X00682048Y00877945D01*
X00680000Y00878353D01*
X00677952Y00877945D01*
X00676215Y00876785D01*
X00675055Y00875048D01*
X00674647Y00873000D01*
X00675055Y00870952D01*
X00676215Y00869215D01*
X00676431Y00869070D01*
Y00848376D01*
X00675744Y00848239D01*
X00674256Y00847244D01*
X00673261Y00845756D01*
X00672912Y00844000D01*
Y00825098D01*
X00667000D01*
Y00848500D01*
X00657763D01*
X00656721Y00849541D01*
Y00871000D01*
X00656721Y00871000D01*
X00656438Y00872424D01*
X00655631Y00873632D01*
X00640631Y00888632D01*
X00639424Y00889438D01*
X00638000Y00889722D01*
X00535000D01*
X00533576Y00889438D01*
X00532369Y00888632D01*
X00532369Y00888631D01*
X00521459Y00877721D01*
X00333506D01*
X00332048Y00878695D01*
X00330000Y00879103D01*
X00327952Y00878695D01*
X00326494Y00877721D01*
X00145000D01*
X00145000Y00877721D01*
X00143576Y00877438D01*
X00142368Y00876631D01*
X00120368Y00854632D01*
X00119562Y00853424D01*
X00119278Y00852000D01*
Y00779269D01*
X00113731Y00773721D01*
X00028272D01*
X00026848Y00773438D01*
X00025641Y00772631D01*
X00006368Y00753359D01*
X00006368Y00753358D01*
X00005098Y00753744D01*
Y00815902D01*
X00037000Y00815902D01*
X00038951Y00816290D01*
X00040605Y00817395D01*
X00063605Y00840395D01*
X00064710Y00842049D01*
X00065098Y00844000D01*
Y00894902D01*
X00874902Y00894902D01*
D02*
G37*
%LPC*%
G36*
X00701250Y00863868D02*
X00693000D01*
X00692409Y00863750D01*
X00687000D01*
Y00858341D01*
X00686882Y00857750D01*
X00687000Y00857159D01*
Y00851750D01*
X00692409D01*
X00693000Y00851633D01*
X00699233D01*
X00699659Y00851348D01*
X00702000Y00850882D01*
X00704341Y00851348D01*
X00706326Y00852674D01*
X00707652Y00854659D01*
X00708118Y00857000D01*
X00707652Y00859341D01*
X00706326Y00861326D01*
X00705576Y00862076D01*
X00703591Y00863402D01*
X00701250Y00863868D01*
D02*
G37*
G36*
X00330000Y00856353D02*
X00327952Y00855945D01*
X00326215Y00854785D01*
X00325055Y00853048D01*
X00324647Y00851000D01*
X00324892Y00849770D01*
X00323945Y00848500D01*
X00323000D01*
Y00825098D01*
X00317000D01*
Y00848500D01*
X00316055D01*
X00315108Y00849770D01*
X00315353Y00851000D01*
X00314945Y00853048D01*
X00313785Y00854785D01*
X00312048Y00855945D01*
X00310000Y00856353D01*
X00307952Y00855945D01*
X00306215Y00854785D01*
X00305055Y00853048D01*
X00304647Y00851000D01*
X00304892Y00849770D01*
X00303945Y00848500D01*
X00303000D01*
Y00825098D01*
X00277088D01*
Y00844000D01*
X00276739Y00845756D01*
X00275744Y00847244D01*
X00274256Y00848239D01*
X00272500Y00848588D01*
X00267500D01*
X00265744Y00848239D01*
X00264256Y00847244D01*
X00263503Y00846117D01*
X00176250D01*
X00175860Y00846040D01*
X00172000D01*
X00171799Y00846000D01*
X00170250D01*
Y00844982D01*
X00170116Y00844781D01*
X00169961Y00844001D01*
Y00836000D01*
X00170098Y00835309D01*
X00170091Y00835162D01*
X00169605Y00834039D01*
X00156000D01*
X00155220Y00833884D01*
X00154558Y00833442D01*
X00154116Y00832780D01*
X00153961Y00832000D01*
Y00826845D01*
X00146558Y00819442D01*
X00146116Y00818780D01*
X00145961Y00818000D01*
Y00800000D01*
X00146116Y00799220D01*
X00146500Y00798645D01*
Y00798355D01*
X00146116Y00797780D01*
X00145961Y00797000D01*
Y00773000D01*
X00146116Y00772220D01*
X00146558Y00771558D01*
X00147220Y00771116D01*
X00148000Y00770961D01*
X00152690D01*
Y00750000D01*
Y00589250D01*
X00152930Y00587423D01*
X00153636Y00585720D01*
X00154758Y00584258D01*
X00172940Y00566076D01*
Y00550117D01*
X00122250D01*
X00121659Y00550000D01*
X00116250D01*
Y00544591D01*
X00116132Y00544000D01*
Y00519000D01*
X00116250Y00518409D01*
Y00513000D01*
X00121659D01*
X00122250Y00512882D01*
X00122841Y00513000D01*
X00128250D01*
Y00518409D01*
X00128368Y00519000D01*
Y00537882D01*
X00172940D01*
Y00430000D01*
X00173180Y00428173D01*
X00173885Y00426470D01*
X00175007Y00425008D01*
X00175803Y00424212D01*
X00175317Y00423039D01*
X00143000D01*
X00142220Y00422884D01*
X00141558Y00422442D01*
X00141116Y00421780D01*
X00140961Y00421000D01*
Y00391000D01*
X00141050Y00390551D01*
Y00387250D01*
X00151050D01*
Y00388961D01*
X00153000D01*
Y00388250D01*
X00165000D01*
Y00388961D01*
X00167000D01*
Y00388250D01*
X00179000D01*
Y00389359D01*
X00180270Y00389723D01*
X00181000Y00389057D01*
Y00388250D01*
X00193000D01*
Y00388961D01*
X00194000D01*
X00194780Y00389116D01*
X00195442Y00389558D01*
X00195884Y00390220D01*
X00196039Y00391000D01*
Y00409940D01*
X00217750D01*
X00219577Y00410180D01*
X00221280Y00410886D01*
X00221429Y00411000D01*
X00223750D01*
Y00413321D01*
X00223864Y00413470D01*
X00224570Y00415173D01*
X00224810Y00417000D01*
X00224570Y00418827D01*
X00223864Y00420530D01*
X00223750Y00420679D01*
Y00423000D01*
X00221429D01*
X00221280Y00423115D01*
X00219577Y00423820D01*
X00217750Y00424060D01*
X00196027D01*
X00195884Y00424780D01*
X00195442Y00425442D01*
X00194780Y00425884D01*
X00194000Y00426039D01*
X00193946D01*
X00187060Y00432924D01*
Y00562640D01*
X00211632D01*
Y00546087D01*
X00211750Y00545496D01*
Y00539000D01*
X00223750D01*
Y00545496D01*
X00223868Y00546087D01*
Y00562640D01*
X00254496D01*
X00256109Y00561402D01*
X00258420Y00560444D01*
X00260900Y00560118D01*
X00263380Y00560444D01*
X00265691Y00561402D01*
X00267304Y00562640D01*
X00269375D01*
X00276940Y00555075D01*
Y00478000D01*
X00277180Y00476173D01*
X00277885Y00474470D01*
X00279007Y00473008D01*
X00289008Y00463008D01*
X00290470Y00461885D01*
X00292173Y00461180D01*
X00294000Y00460940D01*
X00310000D01*
X00311827Y00461180D01*
X00313530Y00461885D01*
X00314992Y00463008D01*
X00316115Y00464470D01*
X00316820Y00466173D01*
X00317060Y00468000D01*
X00316820Y00469827D01*
X00316115Y00471530D01*
X00314992Y00472992D01*
X00313530Y00474114D01*
X00311827Y00474820D01*
X00310000Y00475060D01*
X00296924D01*
X00291060Y00480924D01*
Y00558000D01*
X00290820Y00559827D01*
X00290114Y00561530D01*
X00288992Y00562992D01*
X00277292Y00574692D01*
X00275830Y00575815D01*
X00274127Y00576520D01*
X00272300Y00576760D01*
X00267304D01*
X00265691Y00577998D01*
X00263380Y00578955D01*
X00260900Y00579282D01*
X00258420Y00578955D01*
X00256109Y00577998D01*
X00254496Y00576760D01*
X00182225D01*
X00166810Y00592174D01*
Y00742940D01*
X00733750D01*
X00735577Y00743180D01*
X00737280Y00743885D01*
X00738743Y00745007D01*
X00764696Y00770961D01*
X00772000D01*
X00772780Y00771116D01*
X00773442Y00771558D01*
X00773472Y00771604D01*
X00774669Y00771108D01*
X00774647Y00771000D01*
X00775055Y00768952D01*
X00776215Y00767215D01*
X00777952Y00766055D01*
X00780000Y00765647D01*
X00782048Y00766055D01*
X00783785Y00767215D01*
X00784945Y00768952D01*
X00785353Y00771000D01*
X00785009Y00772730D01*
X00785636Y00773849D01*
X00785766Y00774000D01*
X00786250D01*
Y00780050D01*
X00786588Y00781750D01*
Y00788500D01*
X00793500D01*
Y00798500D01*
X00793884Y00799220D01*
X00793956Y00799581D01*
X00794039Y00800000D01*
Y00818000D01*
X00793884Y00818780D01*
X00793442Y00819442D01*
X00786039Y00826845D01*
Y00832000D01*
X00785884Y00832780D01*
X00785442Y00833442D01*
X00784780Y00833884D01*
X00784000Y00834039D01*
X00770395D01*
X00769909Y00835162D01*
X00769902Y00835309D01*
X00770039Y00836000D01*
Y00845000D01*
X00769884Y00845780D01*
X00769750Y00845981D01*
Y00846000D01*
X00769737D01*
X00769442Y00846442D01*
X00768780Y00846884D01*
X00768000Y00847039D01*
X00746000D01*
X00745220Y00846884D01*
X00744558Y00846442D01*
X00744558Y00846442D01*
X00741558Y00843442D01*
X00741116Y00842780D01*
X00740961Y00842000D01*
Y00822000D01*
X00741116Y00821220D01*
X00741558Y00820558D01*
X00741750Y00820430D01*
Y00820000D01*
X00742803D01*
X00743000Y00819961D01*
X00749377D01*
X00750092Y00818819D01*
X00750098Y00818691D01*
X00749961Y00818000D01*
Y00800000D01*
X00750116Y00799220D01*
X00750500Y00798500D01*
Y00798355D01*
X00750116Y00797780D01*
X00749961Y00797000D01*
Y00776196D01*
X00730826Y00757060D01*
X00166810D01*
Y00770961D01*
X00168000D01*
X00168780Y00771116D01*
X00169442Y00771558D01*
X00169472Y00771604D01*
X00170669Y00771108D01*
X00170647Y00771000D01*
X00171055Y00768952D01*
X00172215Y00767215D01*
X00173952Y00766055D01*
X00176000Y00765647D01*
X00178048Y00766055D01*
X00179785Y00767215D01*
X00180945Y00768952D01*
X00181353Y00771000D01*
X00181009Y00772730D01*
X00181636Y00773849D01*
X00181766Y00774000D01*
X00182250D01*
Y00780050D01*
X00182588Y00781750D01*
Y00788500D01*
X00189500D01*
Y00798000D01*
X00189500D01*
Y00798645D01*
X00189884Y00799220D01*
X00190039Y00800000D01*
Y00818000D01*
X00189902Y00818691D01*
X00189908Y00818819D01*
X00190623Y00819961D01*
X00191856D01*
X00192250Y00819883D01*
X00192644Y00819961D01*
X00197000D01*
X00197197Y00820000D01*
X00198250D01*
Y00820430D01*
X00198442Y00820558D01*
X00198884Y00821220D01*
X00199039Y00822000D01*
Y00833883D01*
X00262912D01*
Y00825098D01*
X00217006D01*
X00215054Y00824710D01*
X00213217Y00823949D01*
X00211563Y00822844D01*
X00210156Y00821437D01*
X00210156Y00821437D01*
X00209051Y00819783D01*
X00208290Y00817945D01*
X00207902Y00815994D01*
Y00815000D01*
X00207902Y00815000D01*
X00207902Y00804005D01*
X00208290Y00802055D01*
X00209051Y00800217D01*
X00210156Y00798563D01*
X00211563Y00797156D01*
X00211563Y00797156D01*
X00213217Y00796051D01*
X00215055Y00795290D01*
X00217005Y00794902D01*
X00218000D01*
X00218000Y00794902D01*
X00382000Y00794902D01*
X00382994D01*
X00384945Y00795290D01*
X00386783Y00796051D01*
X00388437Y00797156D01*
X00389843Y00798563D01*
X00390949Y00800217D01*
X00391710Y00802055D01*
X00392098Y00804005D01*
Y00805000D01*
X00392098Y00805000D01*
X00392098Y00815994D01*
X00391710Y00817945D01*
X00390949Y00819783D01*
X00389844Y00821437D01*
X00388437Y00822843D01*
X00386783Y00823949D01*
X00384945Y00824710D01*
X00382995Y00825098D01*
X00382000D01*
X00382000Y00825098D01*
X00337000D01*
Y00848500D01*
X00336055D01*
X00335108Y00849770D01*
X00335353Y00851000D01*
X00334945Y00853048D01*
X00333785Y00854785D01*
X00332048Y00855945D01*
X00330000Y00856353D01*
D02*
G37*
G36*
X00639000Y00707098D02*
X00301000Y00707098D01*
X00300005D01*
X00298055Y00706710D01*
X00296217Y00705949D01*
X00294563Y00704844D01*
X00293156Y00703437D01*
X00293156Y00703437D01*
X00292051Y00701783D01*
X00291290Y00699945D01*
X00290902Y00697995D01*
Y00697000D01*
X00290902Y00697000D01*
X00290902Y00676005D01*
X00291290Y00674055D01*
X00292051Y00672217D01*
X00293156Y00670563D01*
X00294563Y00669156D01*
X00294563Y00669156D01*
X00296217Y00668051D01*
X00298055Y00667290D01*
X00300005Y00666902D01*
X00301000D01*
X00301000Y00666902D01*
X00639000Y00666902D01*
X00639995D01*
X00641945Y00667290D01*
X00643783Y00668051D01*
X00645437Y00669156D01*
X00646843Y00670563D01*
X00647949Y00672217D01*
X00648710Y00674054D01*
X00648710Y00674055D01*
X00648710Y00674055D01*
X00649098Y00676005D01*
X00649098Y00676005D01*
X00649098Y00676006D01*
X00649098Y00677000D01*
X00649098Y00677000D01*
X00649098Y00697995D01*
X00648710Y00699946D01*
X00647949Y00701783D01*
X00646843Y00703437D01*
X00645437Y00704844D01*
X00643783Y00705949D01*
X00641945Y00706710D01*
X00639995Y00707098D01*
X00639000D01*
X00639000Y00707098D01*
D02*
G37*
G36*
X00856900Y00680882D02*
X00854420Y00680555D01*
X00852109Y00679598D01*
X00850125Y00678075D01*
X00848602Y00676091D01*
X00847645Y00673780D01*
X00847318Y00671300D01*
X00847645Y00668820D01*
X00848602Y00666509D01*
X00850125Y00664525D01*
X00852109Y00663002D01*
X00854420Y00662045D01*
X00856900Y00661718D01*
X00859380Y00662045D01*
X00861691Y00663002D01*
X00863676Y00664525D01*
X00865198Y00666509D01*
X00866155Y00668820D01*
X00866482Y00671300D01*
X00866155Y00673780D01*
X00865198Y00676091D01*
X00863676Y00678075D01*
X00861691Y00679598D01*
X00859380Y00680555D01*
X00856900Y00680882D01*
D02*
G37*
G36*
X00666000Y00728588D02*
X00301000D01*
X00299244Y00728239D01*
X00297756Y00727244D01*
X00278756Y00708244D01*
X00277761Y00706756D01*
X00277412Y00705000D01*
Y00618101D01*
X00263583Y00604271D01*
X00263380Y00604356D01*
X00260900Y00604682D01*
X00258420Y00604356D01*
X00256109Y00603398D01*
X00254125Y00601875D01*
X00252602Y00599891D01*
X00252518Y00599688D01*
X00240250D01*
Y00601000D01*
X00228250D01*
Y00589000D01*
X00240250D01*
Y00590512D01*
X00252518D01*
X00252602Y00590309D01*
X00254125Y00588325D01*
X00256109Y00586802D01*
X00258420Y00585844D01*
X00260900Y00585518D01*
X00263380Y00585844D01*
X00265691Y00586802D01*
X00267675Y00588325D01*
X00269198Y00590309D01*
X00270155Y00592620D01*
X00270482Y00595100D01*
X00270155Y00597580D01*
X00270071Y00597783D01*
X00285244Y00612956D01*
X00286239Y00614444D01*
X00286588Y00616200D01*
Y00703100D01*
X00302901Y00719412D01*
X00664100D01*
X00674512Y00708999D01*
Y00680746D01*
X00673107Y00680466D01*
X00671205Y00679195D01*
X00669934Y00677294D01*
X00669487Y00675050D01*
Y00667550D01*
X00669934Y00665306D01*
X00671205Y00663405D01*
X00673107Y00662134D01*
X00675350Y00661687D01*
X00682850D01*
X00685094Y00662134D01*
X00686995Y00663405D01*
X00688266Y00665306D01*
X00688713Y00667550D01*
Y00675050D01*
X00688266Y00677294D01*
X00686995Y00679195D01*
X00685094Y00680466D01*
X00683688Y00680746D01*
Y00710900D01*
X00683339Y00712656D01*
X00682344Y00714144D01*
X00669244Y00727244D01*
X00667756Y00728239D01*
X00666000Y00728588D01*
D02*
G37*
G36*
X00086850Y00680913D02*
X00079350D01*
X00077106Y00680466D01*
X00075205Y00679195D01*
X00073934Y00677293D01*
X00073487Y00675050D01*
Y00667550D01*
X00073934Y00665306D01*
X00075205Y00663404D01*
X00077106Y00662134D01*
X00079350Y00661687D01*
X00086850D01*
X00089094Y00662134D01*
X00090996Y00663404D01*
X00092266Y00665306D01*
X00092713Y00667550D01*
Y00675050D01*
X00092266Y00677293D01*
X00090996Y00679195D01*
X00089094Y00680466D01*
X00086850Y00680913D01*
D02*
G37*
G36*
X00679100Y00655482D02*
X00676620Y00655155D01*
X00674309Y00654198D01*
X00672325Y00652675D01*
X00670802Y00650691D01*
X00669845Y00648380D01*
X00669518Y00645900D01*
X00669845Y00643420D01*
X00670802Y00641109D01*
X00672325Y00639125D01*
X00674309Y00637602D01*
X00676620Y00636645D01*
X00679100Y00636318D01*
X00681580Y00636645D01*
X00683891Y00637602D01*
X00685875Y00639125D01*
X00687398Y00641109D01*
X00688355Y00643420D01*
X00688682Y00645900D01*
X00688355Y00648380D01*
X00687398Y00650691D01*
X00685875Y00652675D01*
X00683891Y00654198D01*
X00681580Y00655155D01*
X00679100Y00655482D01*
D02*
G37*
G36*
X00856900Y00655482D02*
X00854420Y00655155D01*
X00852109Y00654198D01*
X00850125Y00652675D01*
X00848602Y00650691D01*
X00847645Y00648380D01*
X00847318Y00645900D01*
X00847645Y00643420D01*
X00848602Y00641109D01*
X00850125Y00639125D01*
X00852109Y00637602D01*
X00854420Y00636645D01*
X00856900Y00636318D01*
X00859380Y00636645D01*
X00861691Y00637602D01*
X00863676Y00639125D01*
X00865198Y00641109D01*
X00866155Y00643420D01*
X00866482Y00645900D01*
X00866155Y00648380D01*
X00865198Y00650691D01*
X00863676Y00652675D01*
X00861691Y00654198D01*
X00859380Y00655155D01*
X00856900Y00655482D01*
D02*
G37*
G36*
X00083100Y00655482D02*
X00080620Y00655155D01*
X00078309Y00654198D01*
X00076325Y00652675D01*
X00074802Y00650691D01*
X00073844Y00648380D01*
X00073518Y00645900D01*
X00073844Y00643420D01*
X00074802Y00641109D01*
X00076325Y00639125D01*
X00078309Y00637602D01*
X00080620Y00636645D01*
X00083100Y00636318D01*
X00085580Y00636645D01*
X00087891Y00637602D01*
X00089875Y00639125D01*
X00091398Y00641109D01*
X00092355Y00643420D01*
X00092682Y00645900D01*
X00092355Y00648380D01*
X00091398Y00650691D01*
X00089875Y00652675D01*
X00087891Y00654198D01*
X00085580Y00655155D01*
X00083100Y00655482D01*
D02*
G37*
G36*
X00393800Y00642282D02*
X00391320Y00641955D01*
X00389009Y00640998D01*
X00387024Y00639476D01*
X00385502Y00637491D01*
X00384544Y00635180D01*
X00384218Y00632700D01*
X00384544Y00630220D01*
X00385502Y00627909D01*
X00387024Y00625925D01*
X00389009Y00624402D01*
X00391320Y00623445D01*
X00393800Y00623118D01*
X00396280Y00623445D01*
X00398591Y00624402D01*
X00400575Y00625925D01*
X00402098Y00627909D01*
X00403055Y00630220D01*
X00403382Y00632700D01*
X00403055Y00635180D01*
X00402098Y00637491D01*
X00400575Y00639476D01*
X00398591Y00640998D01*
X00396280Y00641955D01*
X00393800Y00642282D01*
D02*
G37*
G36*
X00269000Y00721039D02*
X00229000D01*
X00228220Y00720884D01*
X00227558Y00720442D01*
X00227116Y00719780D01*
X00226961Y00719000D01*
Y00701039D01*
X00187000D01*
X00186220Y00700884D01*
X00185558Y00700442D01*
X00185116Y00699780D01*
X00184961Y00699000D01*
Y00679000D01*
X00185116Y00678220D01*
X00185558Y00677558D01*
X00186220Y00677116D01*
X00187000Y00676961D01*
X00204961D01*
Y00619000D01*
X00205116Y00618220D01*
X00205558Y00617558D01*
X00206220Y00617116D01*
X00207000Y00616961D01*
X00227000D01*
X00227780Y00617116D01*
X00228442Y00617558D01*
X00228884Y00618220D01*
X00229039Y00619000D01*
Y00633961D01*
X00269000D01*
X00269780Y00634116D01*
X00270442Y00634558D01*
X00270884Y00635220D01*
X00271039Y00636000D01*
Y00657000D01*
X00270884Y00657780D01*
X00270442Y00658442D01*
Y00659558D01*
X00270884Y00660220D01*
X00271039Y00661000D01*
Y00685000D01*
X00270884Y00685780D01*
X00270724Y00686020D01*
X00270884Y00686259D01*
X00271039Y00687039D01*
Y00719000D01*
X00270884Y00719780D01*
X00270442Y00720442D01*
X00269780Y00720884D01*
X00269000Y00721039D01*
D02*
G37*
G36*
X00571600Y00642282D02*
X00569120Y00641955D01*
X00566809Y00640998D01*
X00564824Y00639476D01*
X00563302Y00637491D01*
X00562345Y00635180D01*
X00562018Y00632700D01*
X00562345Y00630220D01*
X00563302Y00627909D01*
X00564824Y00625925D01*
X00566809Y00624402D01*
X00569120Y00623445D01*
X00571600Y00623118D01*
X00574080Y00623445D01*
X00575302Y00623951D01*
X00581431Y00617822D01*
Y00611708D01*
X00580161Y00611455D01*
X00579898Y00612091D01*
X00578375Y00614076D01*
X00576391Y00615598D01*
X00574080Y00616555D01*
X00571600Y00616882D01*
X00569120Y00616555D01*
X00566809Y00615598D01*
X00564824Y00614076D01*
X00563302Y00612091D01*
X00562839Y00610973D01*
X00561569Y00611225D01*
Y00620900D01*
X00561297Y00622266D01*
X00560523Y00623423D01*
X00554949Y00628998D01*
X00555455Y00630220D01*
X00555782Y00632700D01*
X00555455Y00635180D01*
X00554498Y00637491D01*
X00552975Y00639476D01*
X00550991Y00640998D01*
X00548680Y00641955D01*
X00546200Y00642282D01*
X00543720Y00641955D01*
X00541409Y00640998D01*
X00539425Y00639476D01*
X00537902Y00637491D01*
X00536945Y00635180D01*
X00536618Y00632700D01*
X00536945Y00630220D01*
X00537902Y00627909D01*
X00539425Y00625925D01*
X00541409Y00624402D01*
X00543720Y00623445D01*
X00546200Y00623118D01*
X00548680Y00623445D01*
X00549902Y00623951D01*
X00554431Y00619422D01*
Y00614154D01*
X00553229Y00613745D01*
X00552975Y00614076D01*
X00550991Y00615598D01*
X00548680Y00616555D01*
X00546200Y00616882D01*
X00543720Y00616555D01*
X00541409Y00615598D01*
X00539425Y00614076D01*
X00537902Y00612091D01*
X00537839Y00611939D01*
X00536569Y00612191D01*
Y00620500D01*
X00536297Y00621866D01*
X00535523Y00623023D01*
X00529549Y00628998D01*
X00530055Y00630220D01*
X00530382Y00632700D01*
X00530055Y00635180D01*
X00529098Y00637491D01*
X00527575Y00639476D01*
X00525591Y00640998D01*
X00523280Y00641955D01*
X00520800Y00642282D01*
X00518320Y00641955D01*
X00516009Y00640998D01*
X00514025Y00639476D01*
X00512502Y00637491D01*
X00511544Y00635180D01*
X00511218Y00632700D01*
X00511544Y00630220D01*
X00512502Y00627909D01*
X00514025Y00625925D01*
X00516009Y00624402D01*
X00518320Y00623445D01*
X00520800Y00623118D01*
X00523280Y00623445D01*
X00524502Y00623951D01*
X00529431Y00619022D01*
Y00613743D01*
X00528161Y00613312D01*
X00527575Y00614076D01*
X00525591Y00615598D01*
X00523280Y00616555D01*
X00520800Y00616882D01*
X00518320Y00616555D01*
X00516009Y00615598D01*
X00514025Y00614076D01*
X00512839Y00612530D01*
X00511569Y00612961D01*
Y00620100D01*
X00511297Y00621466D01*
X00510523Y00622623D01*
X00504149Y00628998D01*
X00504655Y00630220D01*
X00504982Y00632700D01*
X00504655Y00635180D01*
X00503698Y00637491D01*
X00502175Y00639476D01*
X00500191Y00640998D01*
X00497880Y00641955D01*
X00495400Y00642282D01*
X00492920Y00641955D01*
X00490609Y00640998D01*
X00488624Y00639476D01*
X00487102Y00637491D01*
X00486144Y00635180D01*
X00485818Y00632700D01*
X00486144Y00630220D01*
X00487102Y00627909D01*
X00488624Y00625925D01*
X00490609Y00624402D01*
X00492920Y00623445D01*
X00495400Y00623118D01*
X00497880Y00623445D01*
X00499102Y00623951D01*
X00504431Y00618622D01*
Y00613222D01*
X00503161Y00612790D01*
X00502175Y00614076D01*
X00500191Y00615598D01*
X00497880Y00616555D01*
X00495400Y00616882D01*
X00492920Y00616555D01*
X00490609Y00615598D01*
X00488624Y00614076D01*
X00487102Y00612091D01*
X00486839Y00611456D01*
X00485569Y00611708D01*
Y00620700D01*
X00485297Y00622066D01*
X00484523Y00623223D01*
X00478749Y00628998D01*
X00479255Y00630220D01*
X00479582Y00632700D01*
X00479255Y00635180D01*
X00478298Y00637491D01*
X00476775Y00639476D01*
X00474791Y00640998D01*
X00472480Y00641955D01*
X00470000Y00642282D01*
X00467520Y00641955D01*
X00465209Y00640998D01*
X00463224Y00639476D01*
X00461702Y00637491D01*
X00460745Y00635180D01*
X00460418Y00632700D01*
X00460745Y00630220D01*
X00461702Y00627909D01*
X00463224Y00625925D01*
X00465209Y00624402D01*
X00467520Y00623445D01*
X00470000Y00623118D01*
X00472480Y00623445D01*
X00473702Y00623951D01*
X00478431Y00619222D01*
Y00614003D01*
X00477161Y00613572D01*
X00476775Y00614076D01*
X00474791Y00615598D01*
X00472480Y00616555D01*
X00470000Y00616882D01*
X00467520Y00616555D01*
X00465209Y00615598D01*
X00463224Y00614076D01*
X00461839Y00612269D01*
X00461176Y00612335D01*
X00460569Y00612617D01*
Y00620300D01*
X00460297Y00621666D01*
X00459523Y00622823D01*
X00453349Y00628998D01*
X00453855Y00630220D01*
X00454182Y00632700D01*
X00453855Y00635180D01*
X00452898Y00637491D01*
X00451375Y00639476D01*
X00449391Y00640998D01*
X00447080Y00641955D01*
X00444600Y00642282D01*
X00442120Y00641955D01*
X00439809Y00640998D01*
X00437825Y00639476D01*
X00436302Y00637491D01*
X00435345Y00635180D01*
X00435018Y00632700D01*
X00435345Y00630220D01*
X00436302Y00627909D01*
X00437825Y00625925D01*
X00439809Y00624402D01*
X00442120Y00623445D01*
X00444600Y00623118D01*
X00447080Y00623445D01*
X00448302Y00623951D01*
X00453431Y00618822D01*
Y00613482D01*
X00452161Y00613051D01*
X00451375Y00614076D01*
X00449391Y00615598D01*
X00447080Y00616555D01*
X00444600Y00616882D01*
X00442120Y00616555D01*
X00439809Y00615598D01*
X00437825Y00614076D01*
X00436839Y00612791D01*
X00435569Y00613222D01*
Y00619900D01*
X00435297Y00621266D01*
X00434523Y00622423D01*
X00427949Y00628998D01*
X00428455Y00630220D01*
X00428782Y00632700D01*
X00428455Y00635180D01*
X00427498Y00637491D01*
X00425975Y00639476D01*
X00423991Y00640998D01*
X00421680Y00641955D01*
X00419200Y00642282D01*
X00416720Y00641955D01*
X00414409Y00640998D01*
X00412425Y00639476D01*
X00410902Y00637491D01*
X00409944Y00635180D01*
X00409618Y00632700D01*
X00409944Y00630220D01*
X00410902Y00627909D01*
X00412425Y00625925D01*
X00414409Y00624402D01*
X00416720Y00623445D01*
X00419200Y00623118D01*
X00421680Y00623445D01*
X00422902Y00623951D01*
X00428431Y00618422D01*
Y00612961D01*
X00427161Y00612530D01*
X00425975Y00614076D01*
X00423991Y00615598D01*
X00421680Y00616555D01*
X00419200Y00616882D01*
X00416720Y00616555D01*
X00414409Y00615598D01*
X00412425Y00614076D01*
X00410902Y00612091D01*
X00409944Y00609780D01*
X00409618Y00607300D01*
X00409944Y00604820D01*
X00410902Y00602509D01*
X00412425Y00600525D01*
X00414409Y00599002D01*
X00415631Y00598495D01*
Y00596678D01*
X00376477Y00557523D01*
X00375703Y00556366D01*
X00375432Y00555000D01*
Y00532250D01*
X00373000D01*
Y00520250D01*
X00385000D01*
Y00532250D01*
X00382569D01*
Y00553522D01*
X00421723Y00592677D01*
X00422497Y00593834D01*
X00422769Y00595200D01*
Y00598495D01*
X00423991Y00599002D01*
X00425975Y00600525D01*
X00427161Y00602070D01*
X00428431Y00601639D01*
Y00594478D01*
X00390477Y00556523D01*
X00389703Y00555366D01*
X00389431Y00554000D01*
Y00532250D01*
X00387000D01*
Y00520250D01*
X00399000D01*
Y00532250D01*
X00396569D01*
Y00552522D01*
X00434523Y00590477D01*
X00435297Y00591634D01*
X00435569Y00593000D01*
Y00601378D01*
X00436839Y00601810D01*
X00437825Y00600525D01*
X00439809Y00599002D01*
X00441031Y00598495D01*
Y00594078D01*
X00404477Y00557523D01*
X00403703Y00556366D01*
X00403432Y00555000D01*
Y00532250D01*
X00401000D01*
Y00520250D01*
X00413000D01*
Y00532250D01*
X00410569D01*
Y00553522D01*
X00447123Y00590077D01*
X00447897Y00591234D01*
X00448168Y00592600D01*
Y00598495D01*
X00449391Y00599002D01*
X00451375Y00600525D01*
X00452161Y00601549D01*
X00453431Y00601118D01*
Y00592478D01*
X00418477Y00557523D01*
X00417703Y00556366D01*
X00417431Y00555000D01*
Y00516000D01*
X00373000D01*
Y00504000D01*
X00373000D01*
Y00503750D01*
X00375432D01*
Y00502478D01*
X00319222Y00446269D01*
X00269704D01*
X00269198Y00447491D01*
X00267675Y00449476D01*
X00265691Y00450998D01*
X00263380Y00451955D01*
X00260900Y00452282D01*
X00258420Y00451955D01*
X00256109Y00450998D01*
X00254125Y00449476D01*
X00252602Y00447491D01*
X00251644Y00445180D01*
X00251318Y00442700D01*
X00251644Y00440220D01*
X00252602Y00437909D01*
X00254125Y00435925D01*
X00256109Y00434402D01*
X00258420Y00433445D01*
X00260900Y00433118D01*
X00263380Y00433445D01*
X00265691Y00434402D01*
X00267675Y00435925D01*
X00269198Y00437909D01*
X00269704Y00439131D01*
X00318425D01*
X00318911Y00437958D01*
X00276422Y00395469D01*
X00269704D01*
X00269198Y00396691D01*
X00267675Y00398675D01*
X00265691Y00400198D01*
X00263380Y00401156D01*
X00260900Y00401482D01*
X00258420Y00401156D01*
X00256109Y00400198D01*
X00254125Y00398675D01*
X00252602Y00396691D01*
X00251644Y00394380D01*
X00251318Y00391900D01*
X00251644Y00389420D01*
X00252602Y00387109D01*
X00254125Y00385125D01*
X00256109Y00383602D01*
X00258420Y00382645D01*
X00260900Y00382318D01*
X00263380Y00382645D01*
X00265691Y00383602D01*
X00267675Y00385125D01*
X00269198Y00387109D01*
X00269704Y00388331D01*
X00277900D01*
X00279266Y00388603D01*
X00280423Y00389377D01*
X00290161Y00399115D01*
X00291431Y00398589D01*
Y00358478D01*
X00277622Y00344669D01*
X00269704D01*
X00269198Y00345891D01*
X00267675Y00347876D01*
X00265691Y00349398D01*
X00263380Y00350355D01*
X00260900Y00350682D01*
X00258420Y00350355D01*
X00256109Y00349398D01*
X00254125Y00347876D01*
X00252602Y00345891D01*
X00251644Y00343580D01*
X00251318Y00341100D01*
X00251644Y00338620D01*
X00252602Y00336309D01*
X00254125Y00334325D01*
X00256109Y00332802D01*
X00258420Y00331844D01*
X00260900Y00331518D01*
X00263380Y00331844D01*
X00265691Y00332802D01*
X00267675Y00334325D01*
X00269198Y00336309D01*
X00269704Y00337531D01*
X00279100D01*
X00280466Y00337803D01*
X00281623Y00338577D01*
X00296411Y00353365D01*
X00297681Y00352839D01*
Y00322000D01*
X00295250D01*
Y00310000D01*
X00307250D01*
Y00322000D01*
X00304818D01*
Y00395772D01*
X00308161Y00399115D01*
X00309431Y00398589D01*
Y00303478D01*
X00299822Y00293869D01*
X00269704D01*
X00269198Y00295091D01*
X00267675Y00297076D01*
X00265691Y00298598D01*
X00263380Y00299555D01*
X00260900Y00299882D01*
X00258420Y00299555D01*
X00256109Y00298598D01*
X00254125Y00297076D01*
X00252602Y00295091D01*
X00251644Y00292780D01*
X00251318Y00290300D01*
X00251644Y00287820D01*
X00252602Y00285509D01*
X00254125Y00283525D01*
X00256109Y00282002D01*
X00258420Y00281045D01*
X00260900Y00280718D01*
X00263380Y00281045D01*
X00265691Y00282002D01*
X00267675Y00283525D01*
X00269198Y00285509D01*
X00269704Y00286731D01*
X00299889D01*
X00300415Y00285461D01*
X00283422Y00268469D01*
X00269704D01*
X00269198Y00269691D01*
X00267675Y00271675D01*
X00265691Y00273198D01*
X00263380Y00274156D01*
X00260900Y00274482D01*
X00258420Y00274156D01*
X00256109Y00273198D01*
X00254125Y00271675D01*
X00252602Y00269691D01*
X00251644Y00267380D01*
X00251318Y00264900D01*
X00251644Y00262420D01*
X00252602Y00260109D01*
X00254125Y00258125D01*
X00256109Y00256602D01*
X00258420Y00255644D01*
X00260900Y00255318D01*
X00263380Y00255644D01*
X00265691Y00256602D01*
X00267675Y00258125D01*
X00269198Y00260109D01*
X00269704Y00261331D01*
X00283489D01*
X00284015Y00260061D01*
X00274977Y00251023D01*
X00274203Y00249866D01*
X00273931Y00248500D01*
Y00226978D01*
X00267819Y00220866D01*
X00267675Y00220875D01*
X00265691Y00222398D01*
X00263380Y00223356D01*
X00260900Y00223682D01*
X00258420Y00223356D01*
X00256109Y00222398D01*
X00254125Y00220875D01*
X00252602Y00218891D01*
X00251644Y00216580D01*
X00251318Y00214100D01*
X00251644Y00211620D01*
X00252602Y00209309D01*
X00254125Y00207325D01*
X00256109Y00205802D01*
X00258420Y00204844D01*
X00260900Y00204518D01*
X00263380Y00204844D01*
X00265691Y00205802D01*
X00267675Y00207325D01*
X00269198Y00209309D01*
X00270155Y00211620D01*
X00270381Y00213334D01*
X00278258Y00221211D01*
X00279431Y00220725D01*
Y00212278D01*
X00264602Y00197449D01*
X00263380Y00197955D01*
X00260900Y00198282D01*
X00258420Y00197955D01*
X00256109Y00196998D01*
X00254125Y00195476D01*
X00252602Y00193491D01*
X00251644Y00191180D01*
X00251318Y00188700D01*
X00251644Y00186220D01*
X00252602Y00183909D01*
X00254125Y00181925D01*
X00256109Y00180402D01*
X00258420Y00179445D01*
X00260900Y00179118D01*
X00263380Y00179445D01*
X00265691Y00180402D01*
X00267675Y00181925D01*
X00269198Y00183909D01*
X00270155Y00186220D01*
X00270482Y00188700D01*
X00270155Y00191180D01*
X00269649Y00192402D01*
X00284258Y00207011D01*
X00285431Y00206525D01*
Y00194478D01*
X00266522Y00175569D01*
X00101278D01*
X00091849Y00184998D01*
X00092355Y00186220D01*
X00092682Y00188700D01*
X00092355Y00191180D01*
X00091398Y00193491D01*
X00089875Y00195476D01*
X00087891Y00196998D01*
X00085580Y00197955D01*
X00083100Y00198282D01*
X00080620Y00197955D01*
X00078309Y00196998D01*
X00076325Y00195476D01*
X00075839Y00194842D01*
X00074569Y00195273D01*
Y00200522D01*
X00079398Y00205351D01*
X00080620Y00204844D01*
X00083100Y00204518D01*
X00085580Y00204844D01*
X00087891Y00205802D01*
X00089875Y00207325D01*
X00091398Y00209309D01*
X00092355Y00211620D01*
X00092682Y00214100D01*
X00092355Y00216580D01*
X00091398Y00218891D01*
X00089875Y00220875D01*
X00087891Y00222398D01*
X00085580Y00223356D01*
X00083100Y00223682D01*
X00080620Y00223356D01*
X00078309Y00222398D01*
X00076325Y00220875D01*
X00074802Y00218891D01*
X00073844Y00216580D01*
X00073518Y00214100D01*
X00073844Y00211620D01*
X00074351Y00210398D01*
X00069742Y00205789D01*
X00068569Y00206275D01*
Y00245322D01*
X00079398Y00256151D01*
X00080620Y00255644D01*
X00083100Y00255318D01*
X00085580Y00255644D01*
X00087891Y00256602D01*
X00089875Y00258125D01*
X00091398Y00260109D01*
X00092355Y00262420D01*
X00092682Y00264900D01*
X00092355Y00267380D01*
X00091398Y00269691D01*
X00089875Y00271675D01*
X00087891Y00273198D01*
X00085580Y00274156D01*
X00083100Y00274482D01*
X00080620Y00274156D01*
X00078309Y00273198D01*
X00076325Y00271675D01*
X00074802Y00269691D01*
X00073844Y00267380D01*
X00073518Y00264900D01*
X00073844Y00262420D01*
X00074351Y00261198D01*
X00063742Y00250589D01*
X00062569Y00251075D01*
Y00264722D01*
X00079398Y00281551D01*
X00080620Y00281045D01*
X00083100Y00280718D01*
X00085580Y00281045D01*
X00087891Y00282002D01*
X00089875Y00283525D01*
X00091398Y00285509D01*
X00092355Y00287820D01*
X00092682Y00290300D01*
X00092355Y00292780D01*
X00091398Y00295091D01*
X00089875Y00297076D01*
X00087891Y00298598D01*
X00085580Y00299555D01*
X00083100Y00299882D01*
X00080620Y00299555D01*
X00078309Y00298598D01*
X00076325Y00297076D01*
X00074802Y00295091D01*
X00073844Y00292780D01*
X00073518Y00290300D01*
X00073844Y00287820D01*
X00074351Y00286598D01*
X00056477Y00268723D01*
X00055703Y00267566D01*
X00055431Y00266200D01*
Y00176000D01*
X00055703Y00174634D01*
X00056477Y00173477D01*
X00078477Y00151477D01*
X00079634Y00150703D01*
X00081000Y00150431D01*
X00277000D01*
X00278366Y00150703D01*
X00279523Y00151477D01*
X00309523Y00181477D01*
X00310297Y00182634D01*
X00310569Y00184000D01*
Y00231522D01*
X00327523Y00248477D01*
X00357523Y00278477D01*
X00358297Y00279634D01*
X00358569Y00281000D01*
Y00377522D01*
X00404478Y00423431D01*
X00467000D01*
X00468366Y00423703D01*
X00469523Y00424477D01*
X00535523Y00490477D01*
X00536297Y00491634D01*
X00536569Y00493000D01*
Y00503750D01*
X00539000D01*
Y00504000D01*
X00540882D01*
Y00493500D01*
X00541348Y00491159D01*
X00542674Y00489174D01*
X00542924Y00488924D01*
X00544909Y00487598D01*
X00547250Y00487132D01*
X00561000D01*
X00561591Y00487250D01*
X00567000D01*
Y00492659D01*
X00567118Y00493250D01*
X00567000Y00493841D01*
Y00499250D01*
X00561591D01*
X00561000Y00499368D01*
X00553118D01*
Y00504000D01*
X00555000D01*
Y00503750D01*
X00567000D01*
Y00504000D01*
X00568000D01*
Y00506181D01*
X00569750D01*
X00571116Y00506453D01*
X00572273Y00507227D01*
X00580523Y00515477D01*
X00581297Y00516634D01*
X00581569Y00518000D01*
Y00591522D01*
X00587523Y00597477D01*
X00588297Y00598634D01*
X00588569Y00600000D01*
Y00619300D01*
X00588297Y00620666D01*
X00587523Y00621823D01*
X00580349Y00628998D01*
X00580855Y00630220D01*
X00581182Y00632700D01*
X00580855Y00635180D01*
X00579898Y00637491D01*
X00578375Y00639476D01*
X00576391Y00640998D01*
X00574080Y00641955D01*
X00571600Y00642282D01*
D02*
G37*
G36*
X00393800Y00616882D02*
X00391320Y00616555D01*
X00389009Y00615598D01*
X00387024Y00614076D01*
X00385502Y00612091D01*
X00384544Y00609780D01*
X00384218Y00607300D01*
X00384544Y00604820D01*
X00385502Y00602509D01*
X00387024Y00600525D01*
X00389009Y00599002D01*
X00391320Y00598045D01*
X00393800Y00597718D01*
X00396280Y00598045D01*
X00398591Y00599002D01*
X00400575Y00600525D01*
X00402098Y00602509D01*
X00403055Y00604820D01*
X00403382Y00607300D01*
X00403055Y00609780D01*
X00402098Y00612091D01*
X00400575Y00614076D01*
X00398591Y00615598D01*
X00396280Y00616555D01*
X00393800Y00616882D01*
D02*
G37*
G36*
X00372150Y00616913D02*
X00364650D01*
X00362406Y00616466D01*
X00360504Y00615196D01*
X00359234Y00613293D01*
X00358787Y00611050D01*
Y00603550D01*
X00359234Y00601306D01*
X00360504Y00599404D01*
X00362406Y00598134D01*
X00364650Y00597687D01*
X00372150D01*
X00374394Y00598134D01*
X00376295Y00599404D01*
X00377566Y00601306D01*
X00378013Y00603550D01*
Y00611050D01*
X00377566Y00613293D01*
X00376295Y00615196D01*
X00374394Y00616466D01*
X00372150Y00616913D01*
D02*
G37*
G36*
X00856900Y00604682D02*
X00854420Y00604356D01*
X00852109Y00603398D01*
X00850125Y00601875D01*
X00848602Y00599891D01*
X00847645Y00597580D01*
X00847318Y00595100D01*
X00847645Y00592620D01*
X00848602Y00590309D01*
X00850125Y00588325D01*
X00852109Y00586802D01*
X00854420Y00585845D01*
X00856900Y00585518D01*
X00859380Y00585845D01*
X00861691Y00586802D01*
X00863676Y00588325D01*
X00865198Y00590309D01*
X00866155Y00592620D01*
X00866482Y00595100D01*
X00866155Y00597580D01*
X00865198Y00599891D01*
X00863676Y00601875D01*
X00861691Y00603398D01*
X00859380Y00604356D01*
X00856900Y00604682D01*
D02*
G37*
G36*
X00679100Y00604682D02*
X00676620Y00604356D01*
X00674309Y00603398D01*
X00672325Y00601875D01*
X00670802Y00599891D01*
X00669845Y00597580D01*
X00669518Y00595100D01*
X00669845Y00592620D01*
X00670802Y00590309D01*
X00672325Y00588325D01*
X00674309Y00586802D01*
X00676620Y00585845D01*
X00679100Y00585518D01*
X00681580Y00585845D01*
X00683891Y00586802D01*
X00685875Y00588325D01*
X00687398Y00590309D01*
X00688355Y00592620D01*
X00688682Y00595100D01*
X00688355Y00597580D01*
X00687398Y00599891D01*
X00685875Y00601875D01*
X00683891Y00603398D01*
X00681580Y00604356D01*
X00679100Y00604682D01*
D02*
G37*
G36*
X00083100Y00604682D02*
X00080620Y00604356D01*
X00078309Y00603398D01*
X00076325Y00601875D01*
X00074802Y00599891D01*
X00073844Y00597580D01*
X00073518Y00595100D01*
X00073844Y00592620D01*
X00074802Y00590309D01*
X00076325Y00588325D01*
X00078309Y00586802D01*
X00080620Y00585844D01*
X00083100Y00585518D01*
X00085580Y00585844D01*
X00087891Y00586802D01*
X00089875Y00588325D01*
X00091398Y00590309D01*
X00092355Y00592620D01*
X00092682Y00595100D01*
X00092355Y00597580D01*
X00091398Y00599891D01*
X00089875Y00601875D01*
X00087891Y00603398D01*
X00085580Y00604356D01*
X00083100Y00604682D01*
D02*
G37*
G36*
X00679100Y00579282D02*
X00676620Y00578955D01*
X00674309Y00577998D01*
X00672325Y00576475D01*
X00670802Y00574491D01*
X00669845Y00572180D01*
X00669518Y00569700D01*
X00669845Y00567220D01*
X00670802Y00564909D01*
X00672325Y00562925D01*
X00674309Y00561402D01*
X00676620Y00560445D01*
X00679100Y00560118D01*
X00681580Y00560445D01*
X00683891Y00561402D01*
X00685875Y00562925D01*
X00687398Y00564909D01*
X00688355Y00567220D01*
X00688682Y00569700D01*
X00688355Y00572180D01*
X00687398Y00574491D01*
X00685875Y00576475D01*
X00683891Y00577998D01*
X00681580Y00578955D01*
X00679100Y00579282D01*
D02*
G37*
G36*
X00083100Y00579282D02*
X00080620Y00578955D01*
X00078309Y00577998D01*
X00076325Y00576475D01*
X00074802Y00574491D01*
X00073844Y00572180D01*
X00073518Y00569700D01*
X00073844Y00567220D01*
X00074802Y00564909D01*
X00076325Y00562925D01*
X00078309Y00561402D01*
X00080620Y00560444D01*
X00083100Y00560118D01*
X00085580Y00560444D01*
X00087891Y00561402D01*
X00089875Y00562925D01*
X00091398Y00564909D01*
X00092355Y00567220D01*
X00092682Y00569700D01*
X00092355Y00572180D01*
X00091398Y00574491D01*
X00089875Y00576475D01*
X00087891Y00577998D01*
X00085580Y00578955D01*
X00083100Y00579282D01*
D02*
G37*
G36*
X00727250Y00550000D02*
X00715250D01*
Y00538000D01*
X00727250D01*
Y00539449D01*
X00727480Y00539631D01*
X00728520Y00540011D01*
X00729951Y00539055D01*
X00732000Y00538647D01*
X00734048Y00539055D01*
X00735785Y00540215D01*
X00736945Y00541952D01*
X00737353Y00544000D01*
X00736945Y00546048D01*
X00735785Y00547785D01*
X00734048Y00548945D01*
X00732000Y00549353D01*
X00729951Y00548945D01*
X00728520Y00547989D01*
X00727480Y00548369D01*
X00727250Y00548551D01*
Y00550000D01*
D02*
G37*
G36*
X00679100Y00553882D02*
X00676620Y00553555D01*
X00674309Y00552598D01*
X00672325Y00551076D01*
X00670802Y00549091D01*
X00669845Y00546780D01*
X00669518Y00544300D01*
X00669845Y00541820D01*
X00670802Y00539509D01*
X00672325Y00537525D01*
X00674309Y00536002D01*
X00676620Y00535045D01*
X00679100Y00534718D01*
X00681580Y00535045D01*
X00683891Y00536002D01*
X00685875Y00537525D01*
X00687398Y00539509D01*
X00687905Y00540732D01*
X00698750D01*
Y00538000D01*
X00710750D01*
Y00550000D01*
X00698750D01*
Y00547869D01*
X00687905D01*
X00687398Y00549091D01*
X00685875Y00551076D01*
X00683891Y00552598D01*
X00681580Y00553555D01*
X00679100Y00553882D01*
D02*
G37*
G36*
X00615000Y00598796D02*
X00610135Y00598413D01*
X00605391Y00597274D01*
X00600883Y00595407D01*
X00596722Y00592857D01*
X00593012Y00589688D01*
X00589843Y00585978D01*
X00587293Y00581817D01*
X00585426Y00577309D01*
X00584287Y00572565D01*
X00583904Y00567700D01*
X00584287Y00562836D01*
X00585426Y00558091D01*
X00587293Y00553583D01*
X00589843Y00549422D01*
X00593012Y00545712D01*
X00596722Y00542543D01*
X00600883Y00539994D01*
X00605391Y00538126D01*
X00610135Y00536987D01*
X00615000Y00536604D01*
X00619864Y00536987D01*
X00624609Y00538126D01*
X00629117Y00539994D01*
X00633278Y00542543D01*
X00636988Y00545712D01*
X00640157Y00549422D01*
X00642707Y00553583D01*
X00644574Y00558091D01*
X00645713Y00562836D01*
X00646096Y00567700D01*
X00645713Y00572565D01*
X00644574Y00577309D01*
X00642707Y00581817D01*
X00640157Y00585978D01*
X00636988Y00589688D01*
X00633278Y00592857D01*
X00629117Y00595407D01*
X00624609Y00597274D01*
X00619864Y00598413D01*
X00615000Y00598796D01*
D02*
G37*
G36*
X00325000D02*
X00320135Y00598413D01*
X00315391Y00597274D01*
X00310883Y00595407D01*
X00306722Y00592857D01*
X00303012Y00589688D01*
X00299843Y00585978D01*
X00297293Y00581817D01*
X00295426Y00577309D01*
X00294287Y00572565D01*
X00293904Y00567700D01*
X00294287Y00562836D01*
X00295426Y00558091D01*
X00297293Y00553583D01*
X00299843Y00549422D01*
X00303012Y00545712D01*
X00306722Y00542543D01*
X00310883Y00539994D01*
X00315391Y00538126D01*
X00320135Y00536987D01*
X00325000Y00536604D01*
X00329864Y00536987D01*
X00334609Y00538126D01*
X00339117Y00539994D01*
X00343278Y00542543D01*
X00346988Y00545712D01*
X00350157Y00549422D01*
X00352707Y00553583D01*
X00354574Y00558091D01*
X00355713Y00562836D01*
X00356096Y00567700D01*
X00355713Y00572565D01*
X00354574Y00577309D01*
X00352707Y00581817D01*
X00350157Y00585978D01*
X00346988Y00589688D01*
X00343278Y00592857D01*
X00339117Y00595407D01*
X00334609Y00597274D01*
X00329864Y00598413D01*
X00325000Y00598796D01*
D02*
G37*
G36*
X00856900Y00553882D02*
X00854420Y00553555D01*
X00852109Y00552598D01*
X00850125Y00551076D01*
X00848602Y00549091D01*
X00847645Y00546780D01*
X00847318Y00544300D01*
X00847645Y00541820D01*
X00848602Y00539509D01*
X00850125Y00537525D01*
X00852109Y00536002D01*
X00854420Y00535045D01*
X00856900Y00534718D01*
X00859380Y00535045D01*
X00861691Y00536002D01*
X00863676Y00537525D01*
X00865198Y00539509D01*
X00866155Y00541820D01*
X00866482Y00544300D01*
X00866155Y00546780D01*
X00865198Y00549091D01*
X00863676Y00551076D01*
X00861691Y00552598D01*
X00859380Y00553555D01*
X00856900Y00553882D01*
D02*
G37*
G36*
X00260900Y00553882D02*
X00258420Y00553555D01*
X00256109Y00552598D01*
X00254179Y00551118D01*
X00234250D01*
X00233659Y00551000D01*
X00228250D01*
Y00545591D01*
X00228132Y00545000D01*
X00228150Y00544910D01*
Y00536549D01*
X00220255D01*
X00220008Y00536500D01*
X00213437D01*
Y00524500D01*
X00219320D01*
X00220255Y00524314D01*
X00229000D01*
Y00523250D01*
X00234409D01*
X00235000Y00523132D01*
X00235591Y00523250D01*
X00241000D01*
Y00528659D01*
X00241117Y00529250D01*
X00241000Y00529841D01*
Y00535250D01*
X00240385D01*
Y00538882D01*
X00253083D01*
X00254125Y00537525D01*
X00256109Y00536002D01*
X00258420Y00535045D01*
X00260900Y00534718D01*
X00263380Y00535045D01*
X00265691Y00536002D01*
X00267675Y00537525D01*
X00269198Y00539509D01*
X00270155Y00541820D01*
X00270482Y00544300D01*
X00270155Y00546780D01*
X00269198Y00549091D01*
X00267675Y00551076D01*
X00265691Y00552598D01*
X00263380Y00553555D01*
X00260900Y00553882D01*
D02*
G37*
G36*
X00206936Y00527000D02*
X00193437D01*
Y00515000D01*
X00206936D01*
Y00527000D01*
D02*
G37*
G36*
X00727250Y00525000D02*
X00715250D01*
Y00513000D01*
X00727250D01*
Y00514449D01*
X00727480Y00514631D01*
X00728520Y00515011D01*
X00729951Y00514055D01*
X00732000Y00513647D01*
X00734048Y00514055D01*
X00735785Y00515215D01*
X00736945Y00516952D01*
X00737353Y00519000D01*
X00736945Y00521048D01*
X00735785Y00522785D01*
X00734048Y00523945D01*
X00732000Y00524353D01*
X00729951Y00523945D01*
X00728520Y00522989D01*
X00727480Y00523369D01*
X00727250Y00523551D01*
Y00525000D01*
D02*
G37*
G36*
X00679100Y00528482D02*
X00676620Y00528156D01*
X00674309Y00527198D01*
X00672325Y00525676D01*
X00670802Y00523691D01*
X00669845Y00521380D01*
X00669518Y00518900D01*
X00669845Y00516420D01*
X00670802Y00514109D01*
X00672325Y00512125D01*
X00674309Y00510602D01*
X00676620Y00509645D01*
X00679100Y00509318D01*
X00681580Y00509645D01*
X00683891Y00510602D01*
X00685875Y00512125D01*
X00687398Y00514109D01*
X00687905Y00515331D01*
X00698750D01*
Y00513000D01*
X00710750D01*
Y00525000D01*
X00698750D01*
Y00522469D01*
X00687905D01*
X00687398Y00523691D01*
X00685875Y00525676D01*
X00683891Y00527198D01*
X00681580Y00528156D01*
X00679100Y00528482D01*
D02*
G37*
G36*
X00856900D02*
X00854420Y00528156D01*
X00852109Y00527198D01*
X00850125Y00525676D01*
X00848602Y00523691D01*
X00847645Y00521380D01*
X00847318Y00518900D01*
X00847645Y00516420D01*
X00848602Y00514109D01*
X00850125Y00512125D01*
X00852109Y00510602D01*
X00854420Y00509645D01*
X00856900Y00509318D01*
X00859380Y00509645D01*
X00861691Y00510602D01*
X00863676Y00512125D01*
X00865198Y00514109D01*
X00866155Y00516420D01*
X00866482Y00518900D01*
X00866155Y00521380D01*
X00865198Y00523691D01*
X00863676Y00525676D01*
X00861691Y00527198D01*
X00859380Y00528156D01*
X00856900Y00528482D01*
D02*
G37*
G36*
X00260900D02*
X00258420Y00528156D01*
X00256109Y00527198D01*
X00254125Y00525676D01*
X00252602Y00523691D01*
X00251644Y00521380D01*
X00251318Y00518900D01*
X00251644Y00516420D01*
X00252602Y00514109D01*
X00254125Y00512125D01*
X00256109Y00510602D01*
X00258420Y00509645D01*
X00260900Y00509318D01*
X00263380Y00509645D01*
X00265691Y00510602D01*
X00267675Y00512125D01*
X00269198Y00514109D01*
X00270155Y00516420D01*
X00270482Y00518900D01*
X00270155Y00521380D01*
X00269198Y00523691D01*
X00267675Y00525676D01*
X00265691Y00527198D01*
X00263380Y00528156D01*
X00260900Y00528482D01*
D02*
G37*
G36*
X00856900Y00477682D02*
X00854420Y00477355D01*
X00852109Y00476398D01*
X00850125Y00474875D01*
X00848602Y00472891D01*
X00847645Y00470580D01*
X00847318Y00468100D01*
X00847645Y00465620D01*
X00848602Y00463309D01*
X00850125Y00461325D01*
X00852109Y00459802D01*
X00854420Y00458845D01*
X00856900Y00458518D01*
X00859380Y00458845D01*
X00861691Y00459802D01*
X00863676Y00461325D01*
X00865198Y00463309D01*
X00866155Y00465620D01*
X00866482Y00468100D01*
X00866155Y00470580D01*
X00865198Y00472891D01*
X00863676Y00474875D01*
X00861691Y00476398D01*
X00859380Y00477355D01*
X00856900Y00477682D01*
D02*
G37*
G36*
X00679100D02*
X00676620Y00477355D01*
X00674309Y00476398D01*
X00672325Y00474875D01*
X00670802Y00472891D01*
X00669845Y00470580D01*
X00669518Y00468100D01*
X00669845Y00465620D01*
X00670802Y00463309D01*
X00672325Y00461325D01*
X00674309Y00459802D01*
X00676620Y00458845D01*
X00679100Y00458518D01*
X00681580Y00458845D01*
X00683891Y00459802D01*
X00685875Y00461325D01*
X00687398Y00463309D01*
X00688355Y00465620D01*
X00688682Y00468100D01*
X00688355Y00470580D01*
X00687398Y00472891D01*
X00685875Y00474875D01*
X00683891Y00476398D01*
X00681580Y00477355D01*
X00679100Y00477682D01*
D02*
G37*
G36*
X00260900Y00477682D02*
X00258420Y00477355D01*
X00256109Y00476398D01*
X00254125Y00474875D01*
X00252602Y00472891D01*
X00251644Y00470580D01*
X00251318Y00468100D01*
X00251644Y00465620D01*
X00252602Y00463309D01*
X00254125Y00461325D01*
X00256109Y00459802D01*
X00258420Y00458844D01*
X00260900Y00458518D01*
X00263380Y00458844D01*
X00265691Y00459802D01*
X00267675Y00461325D01*
X00269198Y00463309D01*
X00270155Y00465620D01*
X00270482Y00468100D01*
X00270155Y00470580D01*
X00269198Y00472891D01*
X00267675Y00474875D01*
X00265691Y00476398D01*
X00263380Y00477355D01*
X00260900Y00477682D01*
D02*
G37*
G36*
X00083100D02*
X00080620Y00477355D01*
X00078309Y00476398D01*
X00076325Y00474875D01*
X00074802Y00472891D01*
X00073844Y00470580D01*
X00073518Y00468100D01*
X00073844Y00465620D01*
X00074802Y00463309D01*
X00076325Y00461325D01*
X00078309Y00459802D01*
X00080620Y00458844D01*
X00083100Y00458518D01*
X00085580Y00458844D01*
X00086802Y00459351D01*
X00092431Y00453722D01*
Y00448168D01*
X00091161Y00447799D01*
X00089875Y00449476D01*
X00087891Y00450998D01*
X00085580Y00451955D01*
X00083100Y00452282D01*
X00080620Y00451955D01*
X00078309Y00450998D01*
X00076325Y00449476D01*
X00074802Y00447491D01*
X00074420Y00446569D01*
X00026930D01*
X00026785Y00446785D01*
X00025048Y00447945D01*
X00023000Y00448353D01*
X00020952Y00447945D01*
X00019215Y00446785D01*
X00018055Y00445048D01*
X00017647Y00443000D01*
X00018055Y00440952D01*
X00019215Y00439215D01*
X00020952Y00438055D01*
X00023000Y00437647D01*
X00025048Y00438055D01*
X00026785Y00439215D01*
X00026930Y00439431D01*
X00074171D01*
X00074802Y00437909D01*
X00076325Y00435925D01*
X00078309Y00434402D01*
X00080620Y00433445D01*
X00083100Y00433118D01*
X00085580Y00433445D01*
X00087891Y00434402D01*
X00089875Y00435925D01*
X00091161Y00437601D01*
X00092431Y00437232D01*
Y00426000D01*
X00092703Y00424634D01*
X00093477Y00423477D01*
X00102477Y00414477D01*
X00103634Y00413703D01*
X00105000Y00413431D01*
X00126750D01*
Y00411000D01*
X00129781D01*
Y00406750D01*
X00128350D01*
Y00387250D01*
X00138350D01*
Y00406750D01*
X00136919D01*
Y00411000D01*
X00138750D01*
Y00423000D01*
X00126750D01*
Y00420569D01*
X00106478D01*
X00099569Y00427478D01*
Y00455200D01*
X00099297Y00456566D01*
X00098523Y00457723D01*
X00091849Y00464398D01*
X00092355Y00465620D01*
X00092682Y00468100D01*
X00092355Y00470580D01*
X00091398Y00472891D01*
X00089875Y00474875D01*
X00087891Y00476398D01*
X00085580Y00477355D01*
X00083100Y00477682D01*
D02*
G37*
G36*
X00679100Y00452282D02*
X00676620Y00451955D01*
X00674309Y00450998D01*
X00672325Y00449476D01*
X00670802Y00447491D01*
X00669845Y00445180D01*
X00669518Y00442700D01*
X00669845Y00440220D01*
X00670802Y00437909D01*
X00672325Y00435925D01*
X00674309Y00434402D01*
X00676620Y00433445D01*
X00679100Y00433118D01*
X00681580Y00433445D01*
X00683891Y00434402D01*
X00685875Y00435925D01*
X00687398Y00437909D01*
X00688355Y00440220D01*
X00688682Y00442700D01*
X00688355Y00445180D01*
X00687398Y00447491D01*
X00685875Y00449476D01*
X00683891Y00450998D01*
X00681580Y00451955D01*
X00679100Y00452282D01*
D02*
G37*
G36*
X00856900Y00452282D02*
X00854420Y00451955D01*
X00852109Y00450998D01*
X00850125Y00449476D01*
X00848602Y00447491D01*
X00847645Y00445180D01*
X00847318Y00442700D01*
X00847645Y00440220D01*
X00848602Y00437909D01*
X00850125Y00435925D01*
X00852109Y00434402D01*
X00854420Y00433445D01*
X00856900Y00433118D01*
X00859380Y00433445D01*
X00861691Y00434402D01*
X00863676Y00435925D01*
X00865198Y00437909D01*
X00866155Y00440220D01*
X00866482Y00442700D01*
X00866155Y00445180D01*
X00865198Y00447491D01*
X00863676Y00449476D01*
X00861691Y00450998D01*
X00859380Y00451955D01*
X00856900Y00452282D01*
D02*
G37*
G36*
X00260900Y00426882D02*
X00258420Y00426555D01*
X00256109Y00425598D01*
X00254125Y00424076D01*
X00252602Y00422091D01*
X00252518Y00421888D01*
X00240250D01*
Y00423000D01*
X00228250D01*
Y00411000D01*
X00240250D01*
Y00412712D01*
X00252518D01*
X00252602Y00412509D01*
X00254125Y00410525D01*
X00256109Y00409002D01*
X00258420Y00408045D01*
X00260900Y00407718D01*
X00263380Y00408045D01*
X00265691Y00409002D01*
X00267675Y00410525D01*
X00269198Y00412509D01*
X00270155Y00414820D01*
X00270482Y00417300D01*
X00270155Y00419780D01*
X00269198Y00422091D01*
X00267675Y00424076D01*
X00265691Y00425598D01*
X00263380Y00426555D01*
X00260900Y00426882D01*
D02*
G37*
G36*
X00679100Y00426882D02*
X00676620Y00426555D01*
X00674309Y00425598D01*
X00672325Y00424076D01*
X00670802Y00422091D01*
X00669845Y00419780D01*
X00669518Y00417300D01*
X00669845Y00414820D01*
X00670802Y00412509D01*
X00672325Y00410525D01*
X00674309Y00409002D01*
X00676620Y00408045D01*
X00679100Y00407718D01*
X00681580Y00408045D01*
X00683891Y00409002D01*
X00685875Y00410525D01*
X00687398Y00412509D01*
X00688355Y00414820D01*
X00688682Y00417300D01*
X00688355Y00419780D01*
X00687398Y00422091D01*
X00685875Y00424076D01*
X00683891Y00425598D01*
X00681580Y00426555D01*
X00679100Y00426882D01*
D02*
G37*
G36*
X00856900Y00426882D02*
X00854420Y00426555D01*
X00852109Y00425598D01*
X00850125Y00424076D01*
X00848602Y00422091D01*
X00847645Y00419780D01*
X00847318Y00417300D01*
X00847645Y00414820D01*
X00848602Y00412509D01*
X00850125Y00410525D01*
X00852109Y00409002D01*
X00854420Y00408045D01*
X00856900Y00407718D01*
X00859380Y00408045D01*
X00861691Y00409002D01*
X00863676Y00410525D01*
X00865198Y00412509D01*
X00866155Y00414820D01*
X00866482Y00417300D01*
X00866155Y00419780D01*
X00865198Y00422091D01*
X00863676Y00424076D01*
X00861691Y00425598D01*
X00859380Y00426555D01*
X00856900Y00426882D01*
D02*
G37*
G36*
X00083100Y00426882D02*
X00080620Y00426555D01*
X00078309Y00425598D01*
X00076325Y00424076D01*
X00074802Y00422091D01*
X00073844Y00419780D01*
X00073518Y00417300D01*
X00073844Y00414820D01*
X00074802Y00412509D01*
X00076325Y00410525D01*
X00078309Y00409002D01*
X00080620Y00408045D01*
X00083100Y00407718D01*
X00085580Y00408045D01*
X00087891Y00409002D01*
X00089875Y00410525D01*
X00091398Y00412509D01*
X00092355Y00414820D01*
X00092682Y00417300D01*
X00092355Y00419780D01*
X00091398Y00422091D01*
X00089875Y00424076D01*
X00087891Y00425598D01*
X00085580Y00426555D01*
X00083100Y00426882D01*
D02*
G37*
G36*
X00856900Y00579282D02*
X00779000D01*
X00776520Y00578955D01*
X00774209Y00577998D01*
X00772225Y00576475D01*
X00770702Y00574491D01*
X00769744Y00572180D01*
X00769418Y00569700D01*
Y00555000D01*
Y00540300D01*
Y00525600D01*
Y00391310D01*
X00765000D01*
X00763173Y00391070D01*
X00761470Y00390364D01*
X00761321Y00390250D01*
X00759000D01*
Y00387929D01*
X00758886Y00387780D01*
X00758180Y00386077D01*
X00757940Y00384250D01*
X00758180Y00382423D01*
X00758886Y00380720D01*
X00759000Y00380571D01*
Y00379039D01*
X00745000D01*
X00744803Y00379000D01*
X00743750D01*
Y00378570D01*
X00743558Y00378442D01*
X00743116Y00377780D01*
X00742961Y00377000D01*
Y00370082D01*
X00742420Y00369754D01*
X00741691Y00369606D01*
X00739250Y00372047D01*
Y00379000D01*
X00727250D01*
Y00367000D01*
X00734203D01*
X00735183Y00366020D01*
X00734657Y00364750D01*
X00734350D01*
Y00345250D01*
X00744019D01*
X00744220Y00345116D01*
X00745000Y00344961D01*
X00782961D01*
Y00330039D01*
X00772000D01*
X00771220Y00329884D01*
X00770558Y00329442D01*
X00770116Y00328780D01*
X00769961Y00328000D01*
Y00309750D01*
X00759000D01*
Y00306819D01*
X00757119D01*
Y00307250D01*
X00756847Y00308616D01*
X00756073Y00309773D01*
X00754916Y00310547D01*
X00753550Y00310819D01*
X00750550D01*
X00749184Y00310547D01*
X00748027Y00309773D01*
X00747253Y00308616D01*
X00746981Y00307250D01*
Y00294750D01*
X00747069Y00294309D01*
X00746073Y00293039D01*
X00744350D01*
Y00310750D01*
X00734350D01*
Y00291250D01*
X00735431D01*
Y00289000D01*
X00730219D01*
Y00291250D01*
X00731650D01*
Y00310750D01*
X00721650D01*
Y00291250D01*
X00723081D01*
Y00286850D01*
X00723353Y00285484D01*
X00724127Y00284327D01*
X00724250Y00284203D01*
Y00277000D01*
X00735431D01*
Y00275000D01*
X00732250D01*
Y00263000D01*
X00744250D01*
Y00263230D01*
X00745520Y00263615D01*
X00745558Y00263558D01*
X00746220Y00263116D01*
X00747000Y00262961D01*
X00774000D01*
X00774780Y00263116D01*
X00775442Y00263558D01*
X00783442Y00271558D01*
X00783884Y00272220D01*
X00784039Y00273000D01*
Y00312155D01*
X00796442Y00324558D01*
X00796884Y00325220D01*
X00797039Y00326000D01*
Y00360000D01*
X00796884Y00360780D01*
X00796442Y00361442D01*
X00795780Y00361884D01*
X00795000Y00362039D01*
X00771039D01*
Y00377000D01*
X00771195Y00377190D01*
X00772596D01*
X00774209Y00375952D01*
X00776520Y00374995D01*
X00779000Y00374668D01*
X00781480Y00374995D01*
X00783791Y00375952D01*
X00785775Y00377475D01*
X00787298Y00379459D01*
X00788255Y00381770D01*
X00788582Y00384250D01*
Y00525600D01*
Y00540300D01*
Y00555000D01*
Y00560118D01*
X00856900D01*
X00859380Y00560445D01*
X00861691Y00561402D01*
X00863304Y00562640D01*
X00872375D01*
X00889940Y00545075D01*
Y00408000D01*
X00890180Y00406173D01*
X00890885Y00404470D01*
X00892008Y00403008D01*
X00893470Y00401885D01*
X00895173Y00401180D01*
X00897000Y00400940D01*
X00898827Y00401180D01*
X00900530Y00401885D01*
X00901992Y00403008D01*
X00903114Y00404470D01*
X00903820Y00406173D01*
X00904060Y00408000D01*
Y00548000D01*
X00903820Y00549827D01*
X00903114Y00551530D01*
X00901992Y00552992D01*
X00880292Y00574692D01*
X00878830Y00575815D01*
X00877127Y00576520D01*
X00875300Y00576760D01*
X00863304D01*
X00861691Y00577998D01*
X00859380Y00578955D01*
X00856900Y00579282D01*
D02*
G37*
G36*
X00125650Y00406750D02*
X00115650D01*
Y00387250D01*
X00115650D01*
X00116057Y00386488D01*
X00116041Y00385980D01*
X00115647Y00384000D01*
X00116055Y00381952D01*
X00117215Y00380215D01*
X00118952Y00379055D01*
X00121000Y00378647D01*
X00123048Y00379055D01*
X00124785Y00380215D01*
X00125945Y00381952D01*
X00126353Y00384000D01*
X00125945Y00386048D01*
X00125424Y00386828D01*
X00125650Y00387250D01*
X00125650D01*
Y00406750D01*
D02*
G37*
G36*
X00112950D02*
X00102950D01*
Y00387250D01*
X00102950D01*
X00103074Y00387018D01*
X00103041Y00385980D01*
X00102647Y00384000D01*
X00103055Y00381952D01*
X00104215Y00380215D01*
X00105952Y00379055D01*
X00108000Y00378647D01*
X00110048Y00379055D01*
X00111785Y00380215D01*
X00112945Y00381952D01*
X00113353Y00384000D01*
X00112958Y00385984D01*
X00112921Y00387195D01*
X00112950Y00387250D01*
X00112950D01*
Y00406750D01*
D02*
G37*
G36*
X00636000Y00414569D02*
X00407515D01*
X00406149Y00414297D01*
X00404991Y00413523D01*
X00389477Y00398009D01*
X00388703Y00396851D01*
X00388432Y00395485D01*
Y00233478D01*
X00387147Y00232194D01*
X00374625D01*
X00373259Y00231922D01*
X00372102Y00231148D01*
X00368227Y00227273D01*
X00367453Y00226116D01*
X00367231Y00225000D01*
X00364750D01*
Y00225000D01*
X00361837D01*
X00361548Y00225309D01*
X00361009Y00226270D01*
X00361353Y00228000D01*
X00360945Y00230048D01*
X00359785Y00231785D01*
X00358049Y00232945D01*
X00356000Y00233353D01*
X00353952Y00232945D01*
X00352215Y00231785D01*
X00351055Y00230048D01*
X00350647Y00228000D01*
X00351055Y00225952D01*
X00351412Y00225417D01*
Y00216588D01*
X00330000D01*
X00328244Y00216239D01*
X00326756Y00215244D01*
X00320756Y00209244D01*
X00319761Y00207756D01*
X00319412Y00206000D01*
Y00162000D01*
X00319761Y00160244D01*
X00320756Y00158756D01*
X00326006Y00153506D01*
X00327494Y00152511D01*
X00329250Y00152162D01*
X00333000D01*
Y00150750D01*
X00345000D01*
Y00162750D01*
X00333000D01*
Y00161338D01*
X00331150D01*
X00328588Y00163901D01*
Y00204100D01*
X00331900Y00207412D01*
X00354100D01*
X00355953Y00205559D01*
X00355468Y00204247D01*
X00353952Y00203945D01*
X00352215Y00202785D01*
X00351055Y00201048D01*
X00350647Y00199000D01*
X00350890Y00197780D01*
X00350250Y00197000D01*
X00350250D01*
Y00185000D01*
X00362250D01*
Y00188417D01*
X00365500D01*
Y00176819D01*
X00362000D01*
Y00179250D01*
X00350000D01*
Y00176819D01*
X00345000D01*
Y00179250D01*
X00333000D01*
Y00167250D01*
X00345000D01*
Y00169681D01*
X00350000D01*
Y00167250D01*
X00362000D01*
Y00169681D01*
X00365500D01*
Y00169000D01*
X00381000D01*
Y00175157D01*
X00381796Y00175615D01*
X00382270Y00175683D01*
X00383681Y00174272D01*
Y00167000D01*
X00381250D01*
Y00155000D01*
X00393250D01*
Y00167000D01*
X00390819D01*
Y00175750D01*
X00390547Y00177116D01*
X00389773Y00178273D01*
X00385818Y00182229D01*
X00385636Y00182470D01*
Y00183530D01*
X00385818Y00183771D01*
X00389773Y00187727D01*
X00390547Y00188884D01*
X00390819Y00190250D01*
Y00195000D01*
X00399182D01*
Y00190250D01*
X00399453Y00188884D01*
X00400227Y00187727D01*
X00404182Y00183771D01*
X00404364Y00183530D01*
Y00182470D01*
X00404182Y00182229D01*
X00400227Y00178273D01*
X00399453Y00177116D01*
X00399182Y00175750D01*
Y00167000D01*
X00396750D01*
Y00155000D01*
X00408750D01*
Y00167000D01*
X00406319D01*
Y00174272D01*
X00407730Y00175683D01*
X00409000Y00175500D01*
Y00175500D01*
X00424500D01*
Y00179856D01*
X00424984Y00180177D01*
X00425770Y00180417D01*
X00426220Y00180116D01*
X00427000Y00179961D01*
X00440155D01*
X00449558Y00170558D01*
X00450220Y00170116D01*
X00451000Y00169961D01*
X00462961D01*
Y00160000D01*
X00463000Y00159804D01*
Y00158250D01*
X00464019D01*
X00464220Y00158116D01*
X00465000Y00157961D01*
X00476950D01*
Y00152569D01*
X00475000D01*
Y00153750D01*
X00463000D01*
Y00152569D01*
X00457000D01*
Y00153750D01*
X00445000D01*
Y00141750D01*
X00457000D01*
Y00145431D01*
X00463000D01*
Y00141750D01*
X00475000D01*
Y00145431D01*
X00476950D01*
Y00139250D01*
X00486950D01*
Y00157707D01*
X00488220Y00157825D01*
X00489153Y00156750D01*
Y00141250D01*
X00489343Y00140294D01*
X00489650Y00139835D01*
Y00139250D01*
X00490235D01*
X00490694Y00138943D01*
X00491650Y00138753D01*
X00493214D01*
Y00135821D01*
X00492429Y00135036D01*
X00424193D01*
X00423514Y00136306D01*
X00423945Y00136952D01*
X00424353Y00139000D01*
X00424150Y00140018D01*
X00424956Y00141000D01*
X00425250D01*
Y00153000D01*
X00422569D01*
Y00155000D01*
X00425250D01*
Y00167000D01*
X00413250D01*
Y00155000D01*
X00415431D01*
Y00153000D01*
X00413250D01*
Y00141000D01*
X00413250D01*
X00413890Y00140220D01*
X00413647Y00139000D01*
X00414055Y00136952D01*
X00414486Y00136306D01*
X00413807Y00135036D01*
X00376193D01*
X00375514Y00136306D01*
X00375945Y00136952D01*
X00376353Y00139000D01*
X00376110Y00140220D01*
X00376750Y00141000D01*
X00376750D01*
Y00153000D01*
X00374569D01*
Y00155000D01*
X00376750D01*
Y00167000D01*
X00364750D01*
Y00155000D01*
X00367431D01*
Y00153000D01*
X00364750D01*
Y00141000D01*
X00365044D01*
X00365850Y00140018D01*
X00365647Y00139000D01*
X00366055Y00136952D01*
X00366486Y00136306D01*
X00365807Y00135036D01*
X00360308D01*
X00360066Y00134988D01*
X00359820D01*
X00359040Y00134833D01*
X00358140Y00134460D01*
X00357478Y00134018D01*
X00357304Y00133844D01*
X00357100Y00133708D01*
X00349292Y00125900D01*
X00349156Y00125696D01*
X00348982Y00125522D01*
X00348540Y00124860D01*
X00348167Y00123960D01*
X00348012Y00123180D01*
Y00122934D01*
X00347964Y00122692D01*
Y00116304D01*
X00346867Y00115460D01*
X00346044Y00115801D01*
X00345724Y00115865D01*
X00345414Y00115970D01*
X00343326Y00116245D01*
X00343000Y00116223D01*
X00342674Y00116245D01*
X00340586Y00115970D01*
X00340276Y00115865D01*
X00339956Y00115801D01*
X00338010Y00114995D01*
X00337738Y00114814D01*
X00337445Y00114669D01*
X00335774Y00113387D01*
X00335559Y00113141D01*
X00335313Y00112926D01*
X00334031Y00111255D01*
X00333886Y00110962D01*
X00333705Y00110690D01*
X00332899Y00108744D01*
X00332835Y00108424D01*
X00332730Y00108114D01*
X00332455Y00106026D01*
X00332477Y00105700D01*
X00332455Y00105374D01*
X00332730Y00103286D01*
X00332835Y00102976D01*
X00332899Y00102656D01*
X00333705Y00100710D01*
X00333886Y00100438D01*
X00334031Y00100145D01*
X00335313Y00098474D01*
X00335559Y00098259D01*
X00335774Y00098013D01*
X00337445Y00096731D01*
X00337738Y00096586D01*
X00338010Y00096405D01*
X00339956Y00095599D01*
X00340276Y00095535D01*
X00340586Y00095430D01*
X00342674Y00095155D01*
X00343000Y00095176D01*
X00343326Y00095155D01*
X00345414Y00095430D01*
X00345724Y00095535D01*
X00346044Y00095599D01*
X00346498Y00095787D01*
X00347914Y00094371D01*
Y00091629D01*
X00346498Y00090213D01*
X00346044Y00090401D01*
X00345724Y00090465D01*
X00345414Y00090570D01*
X00343326Y00090845D01*
X00343000Y00090823D01*
X00342674Y00090845D01*
X00340586Y00090570D01*
X00340276Y00090465D01*
X00339956Y00090401D01*
X00338010Y00089595D01*
X00337738Y00089414D01*
X00337445Y00089269D01*
X00335774Y00087987D01*
X00335559Y00087741D01*
X00335313Y00087526D01*
X00334031Y00085855D01*
X00333886Y00085562D01*
X00333705Y00085290D01*
X00332899Y00083344D01*
X00332835Y00083024D01*
X00332730Y00082714D01*
X00332455Y00080626D01*
X00332477Y00080300D01*
X00332455Y00079974D01*
X00332730Y00077886D01*
X00332835Y00077576D01*
X00332899Y00077256D01*
X00333705Y00075310D01*
X00333886Y00075038D01*
X00334031Y00074745D01*
X00335313Y00073074D01*
X00335559Y00072859D01*
X00335774Y00072613D01*
X00337445Y00071331D01*
X00337738Y00071186D01*
X00338010Y00071005D01*
X00339956Y00070199D01*
X00340276Y00070135D01*
X00340586Y00070030D01*
X00342674Y00069755D01*
X00343000Y00069777D01*
X00343326Y00069755D01*
X00345414Y00070030D01*
X00345724Y00070135D01*
X00346044Y00070199D01*
X00347990Y00071005D01*
X00348262Y00071186D01*
X00348555Y00071331D01*
X00350226Y00072613D01*
X00350441Y00072859D01*
X00350687Y00073074D01*
X00351969Y00074745D01*
X00352114Y00075038D01*
X00352295Y00075310D01*
X00353101Y00077256D01*
X00353165Y00077576D01*
X00353270Y00077886D01*
X00353545Y00079974D01*
X00353523Y00080300D01*
X00353545Y00080626D01*
X00353270Y00082714D01*
X00353165Y00083024D01*
X00353101Y00083344D01*
X00352913Y00083798D01*
X00354846Y00085730D01*
X00355700Y00086504D01*
X00356554Y00085730D01*
X00358487Y00083798D01*
X00358299Y00083344D01*
X00358235Y00083024D01*
X00358130Y00082714D01*
X00357855Y00080626D01*
X00357877Y00080300D01*
X00357855Y00079974D01*
X00358130Y00077886D01*
X00358235Y00077576D01*
X00358299Y00077256D01*
X00359105Y00075310D01*
X00359286Y00075038D01*
X00359431Y00074745D01*
X00360713Y00073074D01*
X00360959Y00072859D01*
X00361174Y00072613D01*
X00362845Y00071331D01*
X00363138Y00071186D01*
X00363410Y00071005D01*
X00365356Y00070199D01*
X00365676Y00070135D01*
X00365986Y00070030D01*
X00368074Y00069755D01*
X00368400Y00069777D01*
X00368726Y00069755D01*
X00370814Y00070030D01*
X00371124Y00070135D01*
X00371444Y00070199D01*
X00373390Y00071005D01*
X00373662Y00071186D01*
X00373955Y00071331D01*
X00375626Y00072613D01*
X00375841Y00072859D01*
X00376087Y00073074D01*
X00377369Y00074745D01*
X00377514Y00075038D01*
X00377695Y00075310D01*
X00378501Y00077256D01*
X00378565Y00077576D01*
X00378670Y00077886D01*
X00378945Y00079974D01*
X00378923Y00080300D01*
X00378945Y00080626D01*
X00378670Y00082714D01*
X00378565Y00083024D01*
X00378501Y00083344D01*
X00377695Y00085290D01*
X00377514Y00085562D01*
X00377369Y00085855D01*
X00376087Y00087526D01*
X00375841Y00087741D01*
X00375626Y00087987D01*
X00373955Y00089269D01*
X00373662Y00089414D01*
X00373390Y00089595D01*
X00371444Y00090401D01*
X00371124Y00090465D01*
X00370814Y00090570D01*
X00368726Y00090845D01*
X00368400Y00090823D01*
X00368074Y00090845D01*
X00365986Y00090570D01*
X00365676Y00090465D01*
X00365356Y00090401D01*
X00364902Y00090213D01*
X00363486Y00091629D01*
Y00094371D01*
X00364902Y00095787D01*
X00365356Y00095599D01*
X00365676Y00095535D01*
X00365986Y00095430D01*
X00368074Y00095155D01*
X00368400Y00095176D01*
X00368726Y00095155D01*
X00370814Y00095430D01*
X00371124Y00095535D01*
X00371444Y00095599D01*
X00373390Y00096405D01*
X00373662Y00096587D01*
X00373955Y00096731D01*
X00375626Y00098013D01*
X00375841Y00098259D01*
X00376087Y00098474D01*
X00377369Y00100145D01*
X00377514Y00100438D01*
X00377695Y00100710D01*
X00378501Y00102656D01*
X00378565Y00102976D01*
X00378670Y00103286D01*
X00378945Y00105374D01*
X00378923Y00105700D01*
X00378945Y00106026D01*
X00378670Y00108114D01*
X00378565Y00108424D01*
X00378501Y00108744D01*
X00377695Y00110690D01*
X00377514Y00110962D01*
X00377369Y00111255D01*
X00376087Y00112926D01*
X00375841Y00113141D01*
X00375626Y00113387D01*
X00373955Y00114669D01*
X00373662Y00114814D01*
X00373390Y00114995D01*
X00371444Y00115801D01*
X00371124Y00115865D01*
X00370814Y00115970D01*
X00368726Y00116245D01*
X00368400Y00116223D01*
X00368074Y00116245D01*
X00365986Y00115970D01*
X00365676Y00115865D01*
X00365356Y00115801D01*
X00364654Y00115510D01*
X00363536Y00116362D01*
Y00118121D01*
X00364879Y00119464D01*
X00497000D01*
X00497241Y00119512D01*
X00497487D01*
X00498268Y00119667D01*
X00499168Y00120040D01*
X00499829Y00120482D01*
X00500003Y00120656D01*
X00500208Y00120792D01*
X00507458Y00128042D01*
X00507594Y00128246D01*
X00507768Y00128420D01*
X00508210Y00129082D01*
X00508455Y00129673D01*
X00508583Y00129982D01*
X00508738Y00130763D01*
Y00131009D01*
X00508786Y00131250D01*
Y00138753D01*
X00510350D01*
X00511306Y00138943D01*
X00511765Y00139250D01*
X00512350D01*
Y00139835D01*
X00512657Y00140294D01*
X00512847Y00141250D01*
Y00156750D01*
X00513780Y00157825D01*
X00515050Y00157707D01*
Y00139250D01*
X00525050D01*
Y00143932D01*
X00527000D01*
Y00141750D01*
X00539000D01*
Y00143932D01*
X00545000D01*
Y00141500D01*
X00557000D01*
Y00153500D01*
X00545000D01*
Y00151069D01*
X00539000D01*
Y00153750D01*
X00529000D01*
Y00157961D01*
X00537000D01*
X00537780Y00158116D01*
X00537981Y00158250D01*
X00539000D01*
Y00159802D01*
X00539039Y00160000D01*
Y00169961D01*
X00574000D01*
X00574780Y00170116D01*
X00575442Y00170558D01*
X00575884Y00171220D01*
X00576039Y00172000D01*
Y00225000D01*
X00575884Y00225780D01*
X00575442Y00226442D01*
X00574750Y00227000D01*
Y00239000D01*
X00562750D01*
Y00237469D01*
X00559500D01*
Y00238900D01*
X00536500D01*
Y00228900D01*
X00538000D01*
Y00227039D01*
X00537220Y00226884D01*
X00536558Y00226442D01*
X00536116Y00225780D01*
X00535961Y00225000D01*
Y00217000D01*
X00536116Y00216220D01*
X00536558Y00215558D01*
X00542961Y00209155D01*
Y00194039D01*
X00525050D01*
Y00212750D01*
X00524128D01*
Y00222950D01*
X00524128Y00222950D01*
X00523818Y00224511D01*
X00522934Y00225834D01*
X00522934Y00225834D01*
X00511984Y00236784D01*
X00510661Y00237668D01*
X00509100Y00237978D01*
X00509100Y00237978D01*
X00465500D01*
Y00238900D01*
X00442500D01*
Y00228900D01*
X00465500D01*
Y00229822D01*
X00507411D01*
X00515971Y00221261D01*
Y00213590D01*
X00514701Y00212783D01*
X00513828Y00212865D01*
X00513442Y00213442D01*
X00512780Y00213884D01*
X00512000Y00214039D01*
X00503000D01*
X00502220Y00213884D01*
X00501558Y00213442D01*
X00501116Y00212780D01*
X00500961Y00212000D01*
Y00194039D01*
X00487375D01*
X00486697Y00195309D01*
X00486747Y00195384D01*
X00487018Y00196750D01*
Y00209250D01*
X00486747Y00210616D01*
X00485973Y00211773D01*
X00485518Y00212077D01*
Y00217050D01*
X00485247Y00218416D01*
X00484473Y00219573D01*
X00480323Y00223723D01*
X00479166Y00224497D01*
X00477800Y00224769D01*
X00464827D01*
X00464523Y00225223D01*
X00463366Y00225997D01*
X00462000Y00226269D01*
X00446000D01*
X00444634Y00225997D01*
X00443476Y00225223D01*
X00442703Y00224066D01*
X00442431Y00222700D01*
Y00219700D01*
X00442703Y00218334D01*
X00443476Y00217177D01*
X00444634Y00216403D01*
X00446000Y00216131D01*
X00462000D01*
X00463366Y00216403D01*
X00464523Y00217177D01*
X00464827Y00217631D01*
X00476322D01*
X00478381Y00215572D01*
Y00212077D01*
X00477926Y00211773D01*
X00477153Y00210616D01*
X00476881Y00209250D01*
Y00196750D01*
X00477153Y00195384D01*
X00477203Y00195309D01*
X00476524Y00194039D01*
X00468845D01*
X00452442Y00210442D01*
X00451780Y00210884D01*
X00451000Y00211039D01*
X00411000Y00211039D01*
Y00224556D01*
X00413250D01*
Y00213000D01*
X00425250D01*
Y00225000D01*
X00422819D01*
Y00225750D01*
X00422547Y00227116D01*
X00421773Y00228273D01*
X00419398Y00230648D01*
X00418241Y00231422D01*
X00416875Y00231694D01*
X00403353D01*
X00401569Y00233478D01*
Y00391522D01*
X00412478Y00402431D01*
X00630522D01*
X00653431Y00379522D01*
X00653431Y00183000D01*
X00653703Y00181634D01*
X00654477Y00180477D01*
X00667477Y00167477D01*
X00668634Y00166703D01*
X00670000Y00166431D01*
X00803000D01*
X00804366Y00166703D01*
X00805523Y00167477D01*
X00823523Y00185477D01*
X00824297Y00186634D01*
X00824569Y00188000D01*
Y00292522D01*
X00831478Y00299431D01*
X00851109D01*
X00851540Y00298161D01*
X00850125Y00297076D01*
X00848602Y00295091D01*
X00847645Y00292780D01*
X00847318Y00290300D01*
X00847645Y00287820D01*
X00848602Y00285509D01*
X00850125Y00283525D01*
X00852109Y00282002D01*
X00854420Y00281045D01*
X00856900Y00280718D01*
X00859380Y00281045D01*
X00860602Y00281551D01*
X00869431Y00272722D01*
Y00259478D01*
X00865522Y00255569D01*
X00862368D01*
X00862000Y00256839D01*
X00863676Y00258125D01*
X00865198Y00260109D01*
X00866155Y00262420D01*
X00866482Y00264900D01*
X00866155Y00267380D01*
X00865198Y00269691D01*
X00863676Y00271675D01*
X00861691Y00273198D01*
X00859380Y00274156D01*
X00856900Y00274482D01*
X00854420Y00274156D01*
X00852109Y00273198D01*
X00850125Y00271675D01*
X00848602Y00269691D01*
X00847645Y00267380D01*
X00847318Y00264900D01*
X00847497Y00263543D01*
X00833477Y00249523D01*
X00832703Y00248366D01*
X00832431Y00247000D01*
Y00182478D01*
X00805522Y00155569D01*
X00803368D01*
X00802770Y00156689D01*
X00802945Y00156952D01*
X00803353Y00159000D01*
X00802945Y00161048D01*
X00801785Y00162785D01*
X00800048Y00163945D01*
X00798000Y00164353D01*
X00795952Y00163945D01*
X00794215Y00162785D01*
X00794070Y00162569D01*
X00664478D01*
X00643569Y00183478D01*
Y00255000D01*
X00643297Y00256366D01*
X00642523Y00257523D01*
X00609523Y00290523D01*
X00608366Y00291297D01*
X00607000Y00291569D01*
X00597000D01*
Y00293690D01*
X00597785Y00294215D01*
X00598945Y00295952D01*
X00599353Y00298000D01*
X00598945Y00300048D01*
X00597785Y00301785D01*
X00596048Y00302945D01*
X00594000Y00303353D01*
X00592520Y00303058D01*
X00592213Y00303259D01*
X00591250Y00304000D01*
X00591250Y00304000D01*
X00591250Y00304000D01*
X00579250D01*
Y00302000D01*
X00574750D01*
Y00304000D01*
X00562750D01*
Y00302000D01*
X00559500D01*
Y00302400D01*
X00536500D01*
Y00292400D01*
X00558000D01*
Y00289700D01*
X00536500D01*
Y00279700D01*
X00558000D01*
Y00277000D01*
X00536500D01*
Y00267000D01*
X00558000D01*
Y00264300D01*
X00536500D01*
Y00254300D01*
X00558000D01*
Y00251600D01*
X00536500D01*
Y00241600D01*
X00559500D01*
Y00243431D01*
X00562750D01*
Y00241000D01*
X00574750D01*
Y00247953D01*
X00577797Y00251000D01*
X00579250D01*
Y00241000D01*
X00591250D01*
X00592213Y00241741D01*
X00592520Y00241942D01*
X00594000Y00241647D01*
X00596048Y00242055D01*
X00597785Y00243215D01*
X00598945Y00244952D01*
X00599353Y00247000D01*
X00598945Y00249048D01*
X00597785Y00250785D01*
X00597222Y00251161D01*
X00597374Y00252431D01*
X00605522D01*
X00612431Y00245522D01*
X00612431Y00172059D01*
X00612703Y00170693D01*
X00613477Y00169535D01*
X00650536Y00132477D01*
X00651693Y00131703D01*
X00653059Y00131431D01*
X00814000Y00131431D01*
X00815366Y00131703D01*
X00816523Y00132477D01*
X00854478Y00170431D01*
X00863000D01*
X00864366Y00170703D01*
X00865523Y00171477D01*
X00874523Y00180477D01*
X00875297Y00181634D01*
X00875569Y00183000D01*
Y00199000D01*
X00875297Y00200366D01*
X00874523Y00201523D01*
X00865649Y00210398D01*
X00866155Y00211620D01*
X00866482Y00214100D01*
X00866155Y00216580D01*
X00865198Y00218891D01*
X00863676Y00220875D01*
X00861691Y00222398D01*
X00859380Y00223356D01*
X00856900Y00223682D01*
X00854420Y00223356D01*
X00852109Y00222398D01*
X00850125Y00220875D01*
X00848602Y00218891D01*
X00847839Y00217048D01*
X00846569Y00217301D01*
Y00243522D01*
X00851478Y00248431D01*
X00867000D01*
X00868366Y00248703D01*
X00869523Y00249477D01*
X00875523Y00255477D01*
X00876297Y00256634D01*
X00876569Y00258000D01*
Y00274200D01*
X00876297Y00275566D01*
X00875523Y00276723D01*
X00865649Y00286598D01*
X00866155Y00287820D01*
X00866482Y00290300D01*
X00866155Y00292780D01*
X00865198Y00295091D01*
X00863676Y00297076D01*
X00862260Y00298161D01*
X00862691Y00299431D01*
X00864000D01*
X00865366Y00299703D01*
X00866523Y00300477D01*
X00871523Y00305477D01*
X00872297Y00306634D01*
X00872569Y00308000D01*
Y00329000D01*
X00872297Y00330366D01*
X00871523Y00331523D01*
X00865649Y00337398D01*
X00866155Y00338620D01*
X00866482Y00341100D01*
X00866155Y00343580D01*
X00865198Y00345891D01*
X00863676Y00347876D01*
X00861691Y00349398D01*
X00859380Y00350355D01*
X00856900Y00350682D01*
X00854420Y00350355D01*
X00852109Y00349398D01*
X00850125Y00347876D01*
X00848602Y00345891D01*
X00847645Y00343580D01*
X00847318Y00341100D01*
X00847645Y00338620D01*
X00848602Y00336309D01*
X00850125Y00334325D01*
X00850382Y00334127D01*
X00850000Y00333000D01*
X00850000D01*
Y00323000D01*
X00850000Y00323000D01*
X00849660Y00321871D01*
X00848602Y00320491D01*
X00848220Y00319569D01*
X00831000D01*
X00829634Y00319297D01*
X00828477Y00318523D01*
X00812477Y00302523D01*
X00811703Y00301366D01*
X00811431Y00300000D01*
Y00191478D01*
X00803603Y00183650D01*
X00802616Y00184459D01*
X00802945Y00184952D01*
X00803353Y00187000D01*
X00802945Y00189048D01*
X00801785Y00190785D01*
X00801569Y00190930D01*
Y00313522D01*
X00825523Y00337477D01*
X00826297Y00338634D01*
X00826569Y00340000D01*
Y00378522D01*
X00836378Y00388331D01*
X00848095D01*
X00848602Y00387109D01*
X00850125Y00385125D01*
X00852109Y00383602D01*
X00854420Y00382645D01*
X00856900Y00382318D01*
X00859380Y00382645D01*
X00861691Y00383602D01*
X00863675Y00385125D01*
X00865198Y00387109D01*
X00866155Y00389420D01*
X00866482Y00391900D01*
X00866155Y00394380D01*
X00865198Y00396691D01*
X00863675Y00398675D01*
X00861691Y00400198D01*
X00859380Y00401156D01*
X00856900Y00401482D01*
X00854420Y00401156D01*
X00852109Y00400198D01*
X00850125Y00398675D01*
X00848602Y00396691D01*
X00848095Y00395469D01*
X00834900D01*
X00833534Y00395197D01*
X00832377Y00394423D01*
X00820477Y00382523D01*
X00819703Y00381366D01*
X00819431Y00380000D01*
Y00341478D01*
X00795477Y00317523D01*
X00794703Y00316366D01*
X00794431Y00315000D01*
Y00190930D01*
X00794215Y00190785D01*
X00793055Y00189048D01*
X00792647Y00187000D01*
X00793055Y00184952D01*
X00794215Y00183215D01*
X00795952Y00182055D01*
X00798000Y00181647D01*
X00800048Y00182055D01*
X00800541Y00182384D01*
X00801350Y00181397D01*
X00799522Y00179569D01*
X00684891D01*
X00684460Y00180839D01*
X00685875Y00181925D01*
X00687398Y00183909D01*
X00688355Y00186220D01*
X00688682Y00188700D01*
X00688355Y00191180D01*
X00687398Y00193491D01*
X00685875Y00195476D01*
X00683891Y00196998D01*
X00681580Y00197955D01*
X00679100Y00198282D01*
X00676620Y00197955D01*
X00674309Y00196998D01*
X00673207Y00196152D01*
X00672000Y00196000D01*
X00672000Y00196000D01*
X00672000Y00196000D01*
X00666569D01*
X00666568Y00384000D01*
X00666297Y00385366D01*
X00665523Y00386524D01*
X00638523Y00413523D01*
X00637366Y00414297D01*
X00636000Y00414569D01*
D02*
G37*
G36*
X00679100Y00401482D02*
X00676620Y00401156D01*
X00674309Y00400198D01*
X00672325Y00398675D01*
X00670802Y00396691D01*
X00669845Y00394380D01*
X00669518Y00391900D01*
X00669845Y00389420D01*
X00670802Y00387109D01*
X00672325Y00385125D01*
X00674309Y00383602D01*
X00676620Y00382645D01*
X00679100Y00382318D01*
X00681580Y00382645D01*
X00683891Y00383602D01*
X00685875Y00385125D01*
X00687398Y00387109D01*
X00688355Y00389420D01*
X00688682Y00391900D01*
X00688355Y00394380D01*
X00687398Y00396691D01*
X00685875Y00398675D01*
X00683891Y00400198D01*
X00681580Y00401156D01*
X00679100Y00401482D01*
D02*
G37*
G36*
X00083100Y00401482D02*
X00080620Y00401156D01*
X00078309Y00400198D01*
X00076325Y00398675D01*
X00074802Y00396691D01*
X00073844Y00394380D01*
X00073518Y00391900D01*
X00073844Y00389420D01*
X00074802Y00387109D01*
X00076325Y00385125D01*
X00078309Y00383602D01*
X00080620Y00382645D01*
X00083100Y00382318D01*
X00085580Y00382645D01*
X00087891Y00383602D01*
X00089875Y00385125D01*
X00091398Y00387109D01*
X00092355Y00389420D01*
X00092682Y00391900D01*
X00092355Y00394380D01*
X00091398Y00396691D01*
X00089875Y00398675D01*
X00087891Y00400198D01*
X00085580Y00401156D01*
X00083100Y00401482D01*
D02*
G37*
G36*
X00165000Y00368250D02*
X00153000D01*
Y00367956D01*
X00152018Y00367150D01*
X00151000Y00367353D01*
X00148952Y00366945D01*
X00147215Y00365785D01*
X00146055Y00364048D01*
X00145647Y00362000D01*
X00146055Y00359952D01*
X00147215Y00358215D01*
X00148952Y00357055D01*
X00151000Y00356647D01*
X00152220Y00356890D01*
X00153000Y00356250D01*
Y00356250D01*
X00165000D01*
Y00368250D01*
D02*
G37*
G36*
X00576500Y00382000D02*
X00517500D01*
Y00372569D01*
X00514000D01*
X00512634Y00372297D01*
X00511477Y00371523D01*
X00506227Y00366273D01*
X00505453Y00365116D01*
X00505181Y00363750D01*
Y00345000D01*
X00502750D01*
Y00333000D01*
X00505182D01*
Y00312228D01*
X00493922Y00300969D01*
X00465500D01*
Y00302400D01*
X00442500D01*
Y00292400D01*
X00465500D01*
Y00293832D01*
X00495400D01*
X00496766Y00294103D01*
X00497923Y00294877D01*
X00511273Y00308227D01*
X00512047Y00309384D01*
X00512319Y00310750D01*
Y00333000D01*
X00514750D01*
Y00345000D01*
X00512318D01*
Y00362272D01*
X00515478Y00365431D01*
X00517500D01*
Y00358000D01*
X00576500D01*
Y00382000D01*
D02*
G37*
G36*
X00175000Y00360353D02*
X00172952Y00359945D01*
X00171215Y00358785D01*
X00170055Y00357048D01*
X00169647Y00355000D01*
X00170055Y00352952D01*
X00170728Y00351944D01*
X00170626Y00351419D01*
X00169218Y00350832D01*
X00169048Y00350945D01*
X00167000Y00351353D01*
X00165780Y00351110D01*
X00165000Y00351750D01*
Y00351750D01*
X00155000D01*
Y00351777D01*
X00150069D01*
X00148916Y00352547D01*
X00147550Y00352819D01*
X00144550D01*
X00143184Y00352547D01*
X00142027Y00351773D01*
X00141253Y00350616D01*
X00140981Y00349250D01*
Y00336861D01*
X00140724Y00336646D01*
X00139783Y00336263D01*
X00138350Y00337697D01*
Y00352750D01*
X00128350D01*
Y00333250D01*
X00132703D01*
X00137477Y00328477D01*
X00137786Y00328270D01*
X00137401Y00327000D01*
X00137250D01*
Y00315000D01*
X00149250D01*
Y00315000D01*
X00150226Y00315801D01*
X00151000Y00315647D01*
X00153048Y00316055D01*
X00154785Y00317215D01*
X00155945Y00318952D01*
X00156353Y00321000D01*
X00155945Y00323048D01*
X00154785Y00324785D01*
X00153048Y00325945D01*
X00151962Y00326161D01*
X00152087Y00327431D01*
X00171000D01*
X00172366Y00327703D01*
X00173523Y00328477D01*
X00177523Y00332477D01*
X00178297Y00333634D01*
X00178569Y00335000D01*
Y00351070D01*
X00178785Y00351215D01*
X00179945Y00352952D01*
X00180353Y00355000D01*
X00179945Y00357048D01*
X00178785Y00358785D01*
X00177048Y00359945D01*
X00175000Y00360353D01*
D02*
G37*
G36*
X00701000Y00365353D02*
X00698952Y00364945D01*
X00697215Y00363785D01*
X00696055Y00362048D01*
X00695647Y00360000D01*
X00695801Y00359226D01*
X00695000Y00358250D01*
X00695000D01*
Y00346250D01*
X00707000D01*
Y00358250D01*
X00707000D01*
X00706199Y00359226D01*
X00706353Y00360000D01*
X00705945Y00362048D01*
X00704785Y00363785D01*
X00703048Y00364945D01*
X00701000Y00365353D01*
D02*
G37*
G36*
X00718950Y00364750D02*
X00708950D01*
Y00345250D01*
X00710381D01*
Y00340428D01*
X00709272Y00339319D01*
X00707000D01*
Y00341750D01*
X00695000D01*
Y00339319D01*
X00689410D01*
X00688573Y00340273D01*
X00688682Y00341100D01*
X00688355Y00343580D01*
X00687398Y00345891D01*
X00685875Y00347876D01*
X00683891Y00349398D01*
X00681580Y00350355D01*
X00679100Y00350682D01*
X00676620Y00350355D01*
X00674309Y00349398D01*
X00672325Y00347876D01*
X00670802Y00345891D01*
X00669845Y00343580D01*
X00669518Y00341100D01*
X00669845Y00338620D01*
X00670802Y00336309D01*
X00672325Y00334325D01*
X00674309Y00332802D01*
X00676620Y00331845D01*
X00679100Y00331518D01*
X00681580Y00331845D01*
X00683071Y00332462D01*
X00683084Y00332453D01*
X00684450Y00332181D01*
X00695000D01*
Y00329750D01*
X00707000D01*
Y00332181D01*
X00710750D01*
X00712116Y00332453D01*
X00713273Y00333227D01*
X00716473Y00336427D01*
X00717247Y00337584D01*
X00717519Y00338950D01*
Y00345250D01*
X00718950D01*
Y00364750D01*
D02*
G37*
G36*
X00083100Y00350682D02*
X00080620Y00350355D01*
X00078309Y00349398D01*
X00076325Y00347876D01*
X00074802Y00345891D01*
X00073844Y00343580D01*
X00073518Y00341100D01*
X00073844Y00338620D01*
X00074802Y00336309D01*
X00076325Y00334325D01*
X00078309Y00332802D01*
X00080620Y00331844D01*
X00083100Y00331518D01*
X00085580Y00331844D01*
X00087891Y00332802D01*
X00089875Y00334325D01*
X00091398Y00336309D01*
X00092355Y00338620D01*
X00092682Y00341100D01*
X00092355Y00343580D01*
X00091398Y00345891D01*
X00089875Y00347876D01*
X00087891Y00349398D01*
X00085580Y00350355D01*
X00083100Y00350682D01*
D02*
G37*
G36*
X00731650Y00364750D02*
X00721650D01*
Y00345250D01*
X00723081D01*
Y00338128D01*
X00708772Y00323819D01*
X00707000D01*
Y00326250D01*
X00695000D01*
Y00323819D01*
X00684125D01*
X00683891Y00323998D01*
X00681580Y00324955D01*
X00679100Y00325282D01*
X00676620Y00324955D01*
X00674309Y00323998D01*
X00672325Y00322476D01*
X00670802Y00320491D01*
X00669845Y00318180D01*
X00669518Y00315700D01*
X00669845Y00313220D01*
X00670802Y00310909D01*
X00672325Y00308925D01*
X00674309Y00307402D01*
X00676620Y00306445D01*
X00679100Y00306118D01*
X00681580Y00306445D01*
X00683891Y00307402D01*
X00685875Y00308925D01*
X00687398Y00310909D01*
X00688355Y00313220D01*
X00688682Y00315700D01*
X00688679Y00315727D01*
X00689516Y00316681D01*
X00695000D01*
Y00314250D01*
X00707000D01*
Y00316681D01*
X00710250D01*
X00711616Y00316953D01*
X00712773Y00317727D01*
X00729173Y00334127D01*
X00729947Y00335284D01*
X00730219Y00336650D01*
Y00345250D01*
X00731650D01*
Y00364750D01*
D02*
G37*
G36*
X00559500Y00327800D02*
X00536500D01*
Y00317800D01*
X00559500D01*
Y00327800D01*
D02*
G37*
G36*
X00125650Y00352750D02*
X00115650D01*
Y00333250D01*
X00116062D01*
Y00327100D01*
X00116411Y00325344D01*
X00117406Y00323856D01*
X00120750Y00320511D01*
Y00315000D01*
X00132750D01*
Y00327000D01*
X00127239D01*
X00125238Y00329001D01*
Y00333250D01*
X00125650D01*
Y00352750D01*
D02*
G37*
G36*
X00484500Y00382000D02*
X00425500D01*
Y00358000D01*
X00484500D01*
Y00365431D01*
X00486522D01*
X00489682Y00362272D01*
Y00345000D01*
X00487250D01*
Y00333000D01*
X00489682D01*
Y00322728D01*
X00480622Y00313669D01*
X00465500D01*
Y00315100D01*
X00442500D01*
Y00305100D01*
X00465500D01*
Y00306531D01*
X00482100D01*
X00483466Y00306803D01*
X00484623Y00307577D01*
X00495773Y00318727D01*
X00496547Y00319884D01*
X00496819Y00321250D01*
Y00333000D01*
X00499250D01*
Y00345000D01*
X00496819D01*
Y00363750D01*
X00496547Y00365116D01*
X00495773Y00366273D01*
X00490523Y00371523D01*
X00489366Y00372297D01*
X00488000Y00372569D01*
X00484500D01*
Y00382000D01*
D02*
G37*
G36*
X00260900Y00325282D02*
X00258420Y00324955D01*
X00256109Y00323998D01*
X00254125Y00322476D01*
X00252602Y00320491D01*
X00251644Y00318180D01*
X00251318Y00315700D01*
X00251644Y00313220D01*
X00252602Y00310909D01*
X00254125Y00308925D01*
X00256109Y00307402D01*
X00258420Y00306444D01*
X00260900Y00306118D01*
X00263380Y00306444D01*
X00265691Y00307402D01*
X00267675Y00308925D01*
X00269198Y00310909D01*
X00269829Y00312431D01*
X00278750D01*
Y00310000D01*
X00290750D01*
Y00322000D01*
X00278750D01*
Y00319569D01*
X00269580D01*
X00269198Y00320491D01*
X00267675Y00322476D01*
X00265691Y00323998D01*
X00263380Y00324955D01*
X00260900Y00325282D01*
D02*
G37*
G36*
X00083100D02*
X00080620Y00324955D01*
X00078309Y00323998D01*
X00076325Y00322476D01*
X00074802Y00320491D01*
X00073844Y00318180D01*
X00073518Y00315700D01*
X00073844Y00313220D01*
X00074802Y00310909D01*
X00076325Y00308925D01*
X00078309Y00307402D01*
X00080620Y00306444D01*
X00083100Y00306118D01*
X00085580Y00306444D01*
X00087891Y00307402D01*
X00089875Y00308925D01*
X00091398Y00310909D01*
X00092355Y00313220D01*
X00092682Y00315700D01*
X00092355Y00318180D01*
X00091398Y00320491D01*
X00089875Y00322476D01*
X00087891Y00323998D01*
X00085580Y00324955D01*
X00083100Y00325282D01*
D02*
G37*
G36*
X00559500Y00315100D02*
X00536500D01*
Y00305100D01*
X00559500D01*
Y00315100D01*
D02*
G37*
G36*
X00707000Y00309750D02*
X00695000D01*
Y00297750D01*
X00695000D01*
X00695801Y00296774D01*
X00695647Y00296000D01*
X00696055Y00293952D01*
X00697215Y00292215D01*
X00698952Y00291055D01*
X00701000Y00290647D01*
X00703048Y00291055D01*
X00704785Y00292215D01*
X00705945Y00293952D01*
X00706353Y00296000D01*
X00706199Y00296774D01*
X00707000Y00297750D01*
X00707000D01*
Y00309750D01*
D02*
G37*
G36*
X00679100Y00299882D02*
X00676620Y00299555D01*
X00674309Y00298598D01*
X00672325Y00297076D01*
X00670802Y00295091D01*
X00669845Y00292780D01*
X00669518Y00290300D01*
X00669845Y00287820D01*
X00670802Y00285509D01*
X00672325Y00283525D01*
X00674309Y00282002D01*
X00676620Y00281045D01*
X00679100Y00280718D01*
X00681580Y00281045D01*
X00683891Y00282002D01*
X00685875Y00283525D01*
X00687398Y00285509D01*
X00688355Y00287820D01*
X00688682Y00290300D01*
X00688355Y00292780D01*
X00687398Y00295091D01*
X00685875Y00297076D01*
X00683891Y00298598D01*
X00681580Y00299555D01*
X00679100Y00299882D01*
D02*
G37*
G36*
X00465500Y00289700D02*
X00442500D01*
Y00279700D01*
X00465500D01*
Y00289700D01*
D02*
G37*
G36*
X00465500Y00277000D02*
X00442500D01*
Y00267000D01*
X00465500D01*
Y00277000D01*
D02*
G37*
G36*
X00679100Y00274482D02*
X00676620Y00274156D01*
X00674309Y00273198D01*
X00672325Y00271675D01*
X00670802Y00269691D01*
X00669845Y00267380D01*
X00669518Y00264900D01*
X00669845Y00262420D01*
X00670802Y00260109D01*
X00672325Y00258125D01*
X00674309Y00256602D01*
X00676620Y00255645D01*
X00679100Y00255318D01*
X00681580Y00255645D01*
X00683891Y00256602D01*
X00685875Y00258125D01*
X00687398Y00260109D01*
X00688355Y00262420D01*
X00688682Y00264900D01*
X00688355Y00267380D01*
X00687398Y00269691D01*
X00685875Y00271675D01*
X00683891Y00273198D01*
X00681580Y00274156D01*
X00679100Y00274482D01*
D02*
G37*
G36*
X00465500Y00264300D02*
X00442500D01*
Y00254300D01*
X00465500D01*
Y00264300D01*
D02*
G37*
G36*
Y00251600D02*
X00442500D01*
Y00241600D01*
X00465500D01*
Y00251600D01*
D02*
G37*
G36*
X00679100Y00223682D02*
X00676620Y00223356D01*
X00674309Y00222398D01*
X00672325Y00220875D01*
X00670802Y00218891D01*
X00669845Y00216580D01*
X00669518Y00214100D01*
X00669845Y00211620D01*
X00670802Y00209309D01*
X00672325Y00207325D01*
X00674309Y00205802D01*
X00676620Y00204845D01*
X00679100Y00204518D01*
X00681580Y00204845D01*
X00683891Y00205802D01*
X00685875Y00207325D01*
X00687398Y00209309D01*
X00688355Y00211620D01*
X00688682Y00214100D01*
X00688355Y00216580D01*
X00687398Y00218891D01*
X00685875Y00220875D01*
X00683891Y00222398D01*
X00681580Y00223356D01*
X00679100Y00223682D01*
D02*
G37*
G36*
X00591250Y00239000D02*
X00579250D01*
Y00227000D01*
X00580662D01*
Y00225000D01*
X00579250D01*
Y00213000D01*
X00584412D01*
Y00210500D01*
X00582250D01*
Y00198500D01*
X00595750D01*
Y00199998D01*
X00597020Y00200677D01*
X00597952Y00200055D01*
X00600000Y00199647D01*
X00602048Y00200055D01*
X00603785Y00201215D01*
X00604945Y00202952D01*
X00605353Y00205000D01*
X00604945Y00207048D01*
X00603785Y00208785D01*
X00602048Y00209945D01*
X00600000Y00210353D01*
X00597952Y00209945D01*
X00597020Y00209323D01*
X00595750Y00210002D01*
Y00210500D01*
X00593588D01*
Y00212651D01*
X00594000Y00213750D01*
X00606000D01*
Y00225750D01*
X00594000D01*
Y00224338D01*
X00591250D01*
Y00225000D01*
X00589838D01*
Y00227000D01*
X00591250D01*
Y00239000D01*
D02*
G37*
G36*
X00595750Y00191500D02*
X00582250D01*
Y00179500D01*
X00595750D01*
Y00191500D01*
D02*
G37*
G36*
X00408750Y00153000D02*
X00396750D01*
Y00152863D01*
X00393250D01*
Y00153000D01*
X00381250D01*
Y00141000D01*
X00393250D01*
Y00141137D01*
X00396750D01*
Y00141000D01*
X00408750D01*
Y00153000D01*
D02*
G37*
G36*
X00724000Y00115282D02*
X00721520Y00114956D01*
X00719209Y00113998D01*
X00717225Y00112476D01*
X00715702Y00110491D01*
X00714744Y00108180D01*
X00714418Y00105700D01*
X00714744Y00103220D01*
X00715702Y00100909D01*
X00717225Y00098925D01*
X00719209Y00097402D01*
X00721520Y00096445D01*
X00724000Y00096118D01*
X00726480Y00096445D01*
X00728791Y00097402D01*
X00730775Y00098925D01*
X00732298Y00100909D01*
X00733255Y00103220D01*
X00733582Y00105700D01*
X00733255Y00108180D01*
X00732298Y00110491D01*
X00730775Y00112476D01*
X00728791Y00113998D01*
X00726480Y00114956D01*
X00724000Y00115282D01*
D02*
G37*
G36*
X00698600D02*
X00696120Y00114956D01*
X00693809Y00113998D01*
X00691824Y00112476D01*
X00690302Y00110491D01*
X00689344Y00108180D01*
X00689018Y00105700D01*
X00689344Y00103220D01*
X00690302Y00100909D01*
X00691824Y00098925D01*
X00693809Y00097402D01*
X00696120Y00096445D01*
X00698600Y00096118D01*
X00701080Y00096445D01*
X00703391Y00097402D01*
X00705375Y00098925D01*
X00706898Y00100909D01*
X00707856Y00103220D01*
X00708182Y00105700D01*
X00707856Y00108180D01*
X00706898Y00110491D01*
X00705375Y00112476D01*
X00703391Y00113998D01*
X00701080Y00114956D01*
X00698600Y00115282D01*
D02*
G37*
G36*
X00673200D02*
X00670720Y00114956D01*
X00668409Y00113998D01*
X00666424Y00112476D01*
X00664902Y00110491D01*
X00663944Y00108180D01*
X00663618Y00105700D01*
X00663944Y00103220D01*
X00664902Y00100909D01*
X00666424Y00098925D01*
X00668409Y00097402D01*
X00670720Y00096445D01*
X00673200Y00096118D01*
X00675680Y00096445D01*
X00677991Y00097402D01*
X00679975Y00098925D01*
X00681498Y00100909D01*
X00682456Y00103220D01*
X00682782Y00105700D01*
X00682456Y00108180D01*
X00681498Y00110491D01*
X00679975Y00112476D01*
X00677991Y00113998D01*
X00675680Y00114956D01*
X00673200Y00115282D01*
D02*
G37*
G36*
X00647800D02*
X00645320Y00114956D01*
X00643009Y00113998D01*
X00641024Y00112476D01*
X00639502Y00110491D01*
X00638545Y00108180D01*
X00638218Y00105700D01*
X00638545Y00103220D01*
X00639502Y00100909D01*
X00641024Y00098925D01*
X00643009Y00097402D01*
X00645320Y00096445D01*
X00647800Y00096118D01*
X00650280Y00096445D01*
X00652591Y00097402D01*
X00654575Y00098925D01*
X00656098Y00100909D01*
X00657056Y00103220D01*
X00657382Y00105700D01*
X00657056Y00108180D01*
X00656098Y00110491D01*
X00654575Y00112476D01*
X00652591Y00113998D01*
X00650280Y00114956D01*
X00647800Y00115282D01*
D02*
G37*
G36*
X00622400D02*
X00619920Y00114956D01*
X00617609Y00113998D01*
X00615625Y00112476D01*
X00614102Y00110491D01*
X00613144Y00108180D01*
X00612818Y00105700D01*
X00613144Y00103220D01*
X00614102Y00100909D01*
X00615625Y00098925D01*
X00617609Y00097402D01*
X00619920Y00096445D01*
X00622400Y00096118D01*
X00624880Y00096445D01*
X00627191Y00097402D01*
X00629175Y00098925D01*
X00630698Y00100909D01*
X00631656Y00103220D01*
X00631982Y00105700D01*
X00631656Y00108180D01*
X00630698Y00110491D01*
X00629175Y00112476D01*
X00627191Y00113998D01*
X00624880Y00114956D01*
X00622400Y00115282D01*
D02*
G37*
G36*
X00292200D02*
X00289720Y00114956D01*
X00287409Y00113998D01*
X00285424Y00112476D01*
X00283902Y00110491D01*
X00282945Y00108180D01*
X00282618Y00105700D01*
X00282945Y00103220D01*
X00283902Y00100909D01*
X00285424Y00098925D01*
X00287409Y00097402D01*
X00289720Y00096445D01*
X00292200Y00096118D01*
X00294680Y00096445D01*
X00296991Y00097402D01*
X00298975Y00098925D01*
X00300498Y00100909D01*
X00301455Y00103220D01*
X00301782Y00105700D01*
X00301455Y00108180D01*
X00300498Y00110491D01*
X00298975Y00112476D01*
X00296991Y00113998D01*
X00294680Y00114956D01*
X00292200Y00115282D01*
D02*
G37*
G36*
X00724000Y00089882D02*
X00721520Y00089556D01*
X00719209Y00088598D01*
X00717225Y00087076D01*
X00715702Y00085091D01*
X00714744Y00082780D01*
X00714418Y00080300D01*
X00714744Y00077820D01*
X00715702Y00075509D01*
X00717225Y00073525D01*
X00719209Y00072002D01*
X00721520Y00071045D01*
X00724000Y00070718D01*
X00726480Y00071045D01*
X00728791Y00072002D01*
X00730775Y00073525D01*
X00732298Y00075509D01*
X00733255Y00077820D01*
X00733582Y00080300D01*
X00733255Y00082780D01*
X00732298Y00085091D01*
X00730775Y00087076D01*
X00728791Y00088598D01*
X00726480Y00089556D01*
X00724000Y00089882D01*
D02*
G37*
G36*
X00698600D02*
X00696120Y00089556D01*
X00693809Y00088598D01*
X00691824Y00087076D01*
X00690302Y00085091D01*
X00689344Y00082780D01*
X00689018Y00080300D01*
X00689344Y00077820D01*
X00690302Y00075509D01*
X00691824Y00073525D01*
X00693809Y00072002D01*
X00696120Y00071045D01*
X00698600Y00070718D01*
X00701080Y00071045D01*
X00703391Y00072002D01*
X00705375Y00073525D01*
X00706898Y00075509D01*
X00707856Y00077820D01*
X00708182Y00080300D01*
X00707856Y00082780D01*
X00706898Y00085091D01*
X00705375Y00087076D01*
X00703391Y00088598D01*
X00701080Y00089556D01*
X00698600Y00089882D01*
D02*
G37*
G36*
X00673200D02*
X00670720Y00089556D01*
X00668409Y00088598D01*
X00666424Y00087076D01*
X00664902Y00085091D01*
X00663944Y00082780D01*
X00663618Y00080300D01*
X00663944Y00077820D01*
X00664902Y00075509D01*
X00666424Y00073525D01*
X00668409Y00072002D01*
X00670720Y00071045D01*
X00673200Y00070718D01*
X00675680Y00071045D01*
X00677991Y00072002D01*
X00679975Y00073525D01*
X00681498Y00075509D01*
X00682456Y00077820D01*
X00682782Y00080300D01*
X00682456Y00082780D01*
X00681498Y00085091D01*
X00679975Y00087076D01*
X00677991Y00088598D01*
X00675680Y00089556D01*
X00673200Y00089882D01*
D02*
G37*
G36*
X00647800D02*
X00645320Y00089556D01*
X00643009Y00088598D01*
X00641024Y00087076D01*
X00639502Y00085091D01*
X00638545Y00082780D01*
X00638218Y00080300D01*
X00638545Y00077820D01*
X00639502Y00075509D01*
X00641024Y00073525D01*
X00643009Y00072002D01*
X00645320Y00071045D01*
X00647800Y00070718D01*
X00650280Y00071045D01*
X00652591Y00072002D01*
X00654575Y00073525D01*
X00656098Y00075509D01*
X00657056Y00077820D01*
X00657382Y00080300D01*
X00657056Y00082780D01*
X00656098Y00085091D01*
X00654575Y00087076D01*
X00652591Y00088598D01*
X00650280Y00089556D01*
X00647800Y00089882D01*
D02*
G37*
G36*
X00622400D02*
X00619920Y00089556D01*
X00617609Y00088598D01*
X00615625Y00087076D01*
X00614102Y00085091D01*
X00613144Y00082780D01*
X00612818Y00080300D01*
X00613144Y00077820D01*
X00614102Y00075509D01*
X00615625Y00073525D01*
X00617609Y00072002D01*
X00619920Y00071045D01*
X00622400Y00070718D01*
X00624880Y00071045D01*
X00627191Y00072002D01*
X00629175Y00073525D01*
X00630698Y00075509D01*
X00631656Y00077820D01*
X00631982Y00080300D01*
X00631656Y00082780D01*
X00630698Y00085091D01*
X00629175Y00087076D01*
X00627191Y00088598D01*
X00624880Y00089556D01*
X00622400Y00089882D01*
D02*
G37*
G36*
X00292200D02*
X00289720Y00089556D01*
X00287409Y00088598D01*
X00285424Y00087076D01*
X00283902Y00085091D01*
X00282945Y00082780D01*
X00282618Y00080300D01*
X00282945Y00077820D01*
X00283902Y00075509D01*
X00285424Y00073525D01*
X00287409Y00072002D01*
X00289720Y00071045D01*
X00292200Y00070718D01*
X00294680Y00071045D01*
X00296991Y00072002D01*
X00298975Y00073525D01*
X00300498Y00075509D01*
X00301455Y00077820D01*
X00301782Y00080300D01*
X00301455Y00082780D01*
X00300498Y00085091D01*
X00298975Y00087076D01*
X00296991Y00088598D01*
X00294680Y00089556D01*
X00292200Y00089882D01*
D02*
G37*
G36*
X00266800Y00115282D02*
X00264320Y00114956D01*
X00262009Y00113998D01*
X00260025Y00112476D01*
X00258502Y00110491D01*
X00257544Y00108180D01*
X00257218Y00105700D01*
X00257544Y00103220D01*
X00258502Y00100909D01*
X00260025Y00098925D01*
X00262009Y00097402D01*
X00263231Y00096896D01*
Y00089105D01*
X00262009Y00088598D01*
X00260025Y00087076D01*
X00258502Y00085091D01*
X00257544Y00082780D01*
X00257218Y00080300D01*
X00257544Y00077820D01*
X00258502Y00075509D01*
X00260025Y00073525D01*
X00262009Y00072002D01*
X00264320Y00071045D01*
X00266800Y00070718D01*
X00269280Y00071045D01*
X00271591Y00072002D01*
X00273575Y00073525D01*
X00275098Y00075509D01*
X00276056Y00077820D01*
X00276382Y00080300D01*
X00276056Y00082780D01*
X00275098Y00085091D01*
X00273575Y00087076D01*
X00271591Y00088598D01*
X00270369Y00089105D01*
Y00096896D01*
X00271591Y00097402D01*
X00273575Y00098925D01*
X00275098Y00100909D01*
X00276056Y00103220D01*
X00276382Y00105700D01*
X00276056Y00108180D01*
X00275098Y00110491D01*
X00273575Y00112476D01*
X00271591Y00113998D01*
X00269280Y00114956D01*
X00266800Y00115282D01*
D02*
G37*
G36*
X00241400D02*
X00238920Y00114956D01*
X00236609Y00113998D01*
X00234625Y00112476D01*
X00233102Y00110491D01*
X00232145Y00108180D01*
X00231818Y00105700D01*
X00232145Y00103220D01*
X00233102Y00100909D01*
X00234625Y00098925D01*
X00236609Y00097402D01*
X00236812Y00097318D01*
Y00088682D01*
X00236609Y00088598D01*
X00234625Y00087076D01*
X00233102Y00085091D01*
X00232145Y00082780D01*
X00231818Y00080300D01*
X00232145Y00077820D01*
X00233102Y00075509D01*
X00234625Y00073525D01*
X00236609Y00072002D01*
X00238920Y00071045D01*
X00241400Y00070718D01*
X00243880Y00071045D01*
X00246191Y00072002D01*
X00248175Y00073525D01*
X00249698Y00075509D01*
X00250655Y00077820D01*
X00250982Y00080300D01*
X00250655Y00082780D01*
X00249698Y00085091D01*
X00248175Y00087076D01*
X00246191Y00088598D01*
X00245988Y00088682D01*
Y00097318D01*
X00246191Y00097402D01*
X00248175Y00098925D01*
X00249698Y00100909D01*
X00250655Y00103220D01*
X00250982Y00105700D01*
X00250655Y00108180D01*
X00249698Y00110491D01*
X00248175Y00112476D01*
X00246191Y00113998D01*
X00243880Y00114956D01*
X00241400Y00115282D01*
D02*
G37*
G36*
X00216000D02*
X00213520Y00114956D01*
X00211209Y00113998D01*
X00209224Y00112476D01*
X00207702Y00110491D01*
X00206744Y00108180D01*
X00206418Y00105700D01*
X00206744Y00103220D01*
X00207702Y00100909D01*
X00209224Y00098925D01*
X00211209Y00097402D01*
X00211412Y00097318D01*
Y00088682D01*
X00211209Y00088598D01*
X00209224Y00087076D01*
X00207702Y00085091D01*
X00206744Y00082780D01*
X00206418Y00080300D01*
X00206744Y00077820D01*
X00207702Y00075509D01*
X00209224Y00073525D01*
X00211209Y00072002D01*
X00213520Y00071045D01*
X00216000Y00070718D01*
X00218480Y00071045D01*
X00220791Y00072002D01*
X00222775Y00073525D01*
X00224298Y00075509D01*
X00225256Y00077820D01*
X00225582Y00080300D01*
X00225256Y00082780D01*
X00224298Y00085091D01*
X00222775Y00087076D01*
X00220791Y00088598D01*
X00220588Y00088682D01*
Y00097318D01*
X00220791Y00097402D01*
X00222775Y00098925D01*
X00224298Y00100909D01*
X00225256Y00103220D01*
X00225582Y00105700D01*
X00225256Y00108180D01*
X00224298Y00110491D01*
X00222775Y00112476D01*
X00220791Y00113998D01*
X00218480Y00114956D01*
X00216000Y00115282D01*
D02*
G37*
G36*
X00190600D02*
X00188120Y00114956D01*
X00185809Y00113998D01*
X00183825Y00112476D01*
X00182302Y00110491D01*
X00181345Y00108180D01*
X00181018Y00105700D01*
X00181345Y00103220D01*
X00182302Y00100909D01*
X00183825Y00098925D01*
X00185809Y00097402D01*
X00186012Y00097318D01*
Y00088682D01*
X00185809Y00088598D01*
X00183825Y00087076D01*
X00182302Y00085091D01*
X00181345Y00082780D01*
X00181018Y00080300D01*
X00181345Y00077820D01*
X00182302Y00075509D01*
X00183825Y00073525D01*
X00185809Y00072002D01*
X00188120Y00071045D01*
X00190600Y00070718D01*
X00193080Y00071045D01*
X00195391Y00072002D01*
X00197375Y00073525D01*
X00198898Y00075509D01*
X00199855Y00077820D01*
X00200182Y00080300D01*
X00199855Y00082780D01*
X00198898Y00085091D01*
X00197375Y00087076D01*
X00195391Y00088598D01*
X00195188Y00088682D01*
Y00097318D01*
X00195391Y00097402D01*
X00197375Y00098925D01*
X00198898Y00100909D01*
X00199855Y00103220D01*
X00200182Y00105700D01*
X00199855Y00108180D01*
X00198898Y00110491D01*
X00197375Y00112476D01*
X00195391Y00113998D01*
X00193080Y00114956D01*
X00190600Y00115282D01*
D02*
G37*
G36*
X00168950Y00115313D02*
X00161450D01*
X00159206Y00114866D01*
X00157304Y00113596D01*
X00156034Y00111693D01*
X00155587Y00109450D01*
Y00101950D01*
X00156034Y00099706D01*
X00157304Y00097804D01*
X00158140Y00097247D01*
Y00086704D01*
X00156902Y00085091D01*
X00155944Y00082780D01*
X00155618Y00080300D01*
X00155944Y00077820D01*
X00156902Y00075509D01*
X00158425Y00073525D01*
X00160409Y00072002D01*
X00162720Y00071045D01*
X00165200Y00070718D01*
X00167680Y00071045D01*
X00169991Y00072002D01*
X00171975Y00073525D01*
X00173498Y00075509D01*
X00174456Y00077820D01*
X00174782Y00080300D01*
X00174456Y00082780D01*
X00173498Y00085091D01*
X00172260Y00086704D01*
Y00097247D01*
X00173095Y00097804D01*
X00174366Y00099706D01*
X00174813Y00101950D01*
Y00109450D01*
X00174366Y00111693D01*
X00173095Y00113596D01*
X00171194Y00114866D01*
X00168950Y00115313D01*
D02*
G37*
G36*
X00783000Y00116039D02*
X00741000D01*
X00740220Y00115884D01*
X00739558Y00115442D01*
X00739116Y00114780D01*
X00738961Y00114000D01*
Y00072000D01*
X00739116Y00071220D01*
X00739558Y00070558D01*
X00740220Y00070116D01*
X00741000Y00069961D01*
X00783000D01*
X00783780Y00070116D01*
X00784442Y00070558D01*
X00784884Y00071220D01*
X00785039Y00072000D01*
Y00114000D01*
X00784884Y00114780D01*
X00784442Y00115442D01*
X00783780Y00115884D01*
X00783000Y00116039D01*
D02*
G37*
G36*
X00579800D02*
X00537800D01*
X00537020Y00115884D01*
X00536358Y00115442D01*
X00535916Y00114780D01*
X00535761Y00114000D01*
Y00072000D01*
X00535916Y00071220D01*
X00536358Y00070558D01*
X00537020Y00070116D01*
X00537800Y00069961D01*
X00579800D01*
X00580580Y00070116D01*
X00581242Y00070558D01*
X00581684Y00071220D01*
X00581839Y00072000D01*
Y00114000D01*
X00581684Y00114780D01*
X00581242Y00115442D01*
X00580580Y00115884D01*
X00579800Y00116039D01*
D02*
G37*
G36*
X00452800D02*
X00410800D01*
X00410020Y00115884D01*
X00409358Y00115442D01*
X00408916Y00114780D01*
X00408761Y00114000D01*
Y00072000D01*
X00408916Y00071220D01*
X00409358Y00070558D01*
X00410020Y00070116D01*
X00410800Y00069961D01*
X00452800D01*
X00453580Y00070116D01*
X00454242Y00070558D01*
X00454684Y00071220D01*
X00454839Y00072000D01*
Y00114000D01*
X00454684Y00114780D01*
X00454242Y00115442D01*
X00453580Y00115884D01*
X00452800Y00116039D01*
D02*
G37*
%LPD*%
G36*
X00768000Y00836000D02*
X00758000D01*
X00752000Y00830000D01*
X00752000Y00822898D01*
X00751102Y00822000D01*
X00743000D01*
Y00842000D01*
X00746000Y00845000D01*
Y00845000D01*
X00768000D01*
Y00836000D01*
D02*
G37*
G36*
X00194999Y00844001D02*
X00197000Y00842000D01*
Y00822000D01*
X00188898D01*
X00188000Y00822898D01*
X00188000Y00830000D01*
X00182000Y00836000D01*
X00172000D01*
Y00844001D01*
X00194999Y00844001D01*
D02*
G37*
G36*
X00784000Y00826000D02*
X00792000Y00818000D01*
Y00800000D01*
X00752000D01*
Y00818000D01*
X00760000Y00826000D01*
Y00832000D01*
X00784000D01*
Y00826000D01*
D02*
G37*
G36*
X00180000D02*
X00188000Y00818000D01*
Y00800000D01*
X00148000D01*
Y00818000D01*
X00156000Y00826000D01*
Y00832000D01*
X00180000D01*
Y00826000D01*
D02*
G37*
G36*
X00772000Y00773000D02*
X00752000D01*
Y00797000D01*
X00772000D01*
Y00773000D01*
D02*
G37*
G36*
X00168000D02*
X00148000D01*
Y00797000D01*
X00168000D01*
Y00773000D01*
D02*
G37*
G36*
X00194000Y00391000D02*
X00182000D01*
Y00424000D01*
X00194000D01*
Y00391000D01*
D02*
G37*
G36*
X00177000D02*
X00143000D01*
Y00421000D01*
X00177000D01*
Y00391000D01*
D02*
G37*
G36*
X00269000Y00687039D02*
X00229039D01*
Y00699000D01*
X00229000Y00699197D01*
Y00719000D01*
X00269000D01*
Y00687039D01*
D02*
G37*
G36*
Y00661000D02*
X00229000D01*
Y00685000D01*
X00269000D01*
Y00661000D01*
D02*
G37*
G36*
Y00636000D02*
X00229000D01*
Y00657000D01*
X00269000D01*
Y00636000D01*
D02*
G37*
G36*
X00227000Y00685197D02*
X00226961Y00685000D01*
Y00661000D01*
X00227000Y00660803D01*
Y00657197D01*
X00226961Y00657000D01*
Y00636000D01*
X00227000Y00635803D01*
Y00619000D01*
X00207000D01*
Y00679000D01*
X00187000D01*
Y00699000D01*
X00227000D01*
Y00685197D01*
D02*
G37*
G36*
X00563302Y00602509D02*
X00564824Y00600525D01*
X00566809Y00599002D01*
X00568031Y00598495D01*
Y00560078D01*
X00547255Y00539302D01*
X00547000Y00539353D01*
X00544952Y00538945D01*
X00543215Y00537785D01*
X00542055Y00536049D01*
X00541647Y00534000D01*
X00541801Y00533226D01*
X00541000Y00532250D01*
X00541000D01*
Y00520250D01*
X00553000D01*
Y00532250D01*
X00553000D01*
X00552199Y00533226D01*
X00552353Y00534000D01*
X00552302Y00534255D01*
X00573161Y00555115D01*
X00574431Y00554589D01*
Y00519478D01*
X00569270Y00514317D01*
X00568000Y00514843D01*
Y00516000D01*
X00424569D01*
Y00553522D01*
X00459523Y00588477D01*
X00460297Y00589634D01*
X00460569Y00591000D01*
Y00601983D01*
X00461176Y00602265D01*
X00461839Y00602331D01*
X00463224Y00600525D01*
X00465209Y00599002D01*
X00466431Y00598495D01*
Y00591478D01*
X00432477Y00557523D01*
X00431703Y00556366D01*
X00431432Y00555000D01*
Y00532250D01*
X00429000D01*
Y00520250D01*
X00441000D01*
Y00532250D01*
X00438569D01*
Y00553522D01*
X00472523Y00587477D01*
X00473297Y00588634D01*
X00473568Y00590000D01*
Y00598495D01*
X00474791Y00599002D01*
X00476775Y00600525D01*
X00477161Y00601028D01*
X00478431Y00600597D01*
Y00587478D01*
X00446477Y00555523D01*
X00445703Y00554366D01*
X00445432Y00553000D01*
Y00532250D01*
X00443000D01*
Y00520250D01*
X00455000D01*
Y00532250D01*
X00452569D01*
Y00551522D01*
X00484523Y00583477D01*
X00485297Y00584634D01*
X00485569Y00586000D01*
Y00602892D01*
X00486839Y00603144D01*
X00487102Y00602509D01*
X00488624Y00600525D01*
X00490609Y00599002D01*
X00491431Y00598661D01*
Y00582478D01*
X00460477Y00551523D01*
X00459703Y00550366D01*
X00459431Y00549000D01*
Y00532250D01*
X00457000D01*
Y00520250D01*
X00469000D01*
Y00532250D01*
X00466569D01*
Y00547522D01*
X00497523Y00578477D01*
X00498297Y00579634D01*
X00498569Y00581000D01*
Y00598330D01*
X00500191Y00599002D01*
X00502175Y00600525D01*
X00503161Y00601810D01*
X00504431Y00601379D01*
Y00578478D01*
X00474477Y00548523D01*
X00473703Y00547366D01*
X00473432Y00546000D01*
Y00532250D01*
X00471000D01*
Y00520250D01*
X00483000D01*
Y00532250D01*
X00480569D01*
Y00544522D01*
X00510523Y00574477D01*
X00511297Y00575634D01*
X00511569Y00577000D01*
Y00601639D01*
X00512839Y00602070D01*
X00514025Y00600525D01*
X00516009Y00599002D01*
X00517431Y00598413D01*
Y00573478D01*
X00488477Y00544523D01*
X00487703Y00543366D01*
X00487431Y00542000D01*
Y00532250D01*
X00485000D01*
Y00520250D01*
X00497000D01*
Y00532250D01*
X00494569D01*
Y00540522D01*
X00523523Y00569477D01*
X00524297Y00570634D01*
X00524569Y00572000D01*
Y00598578D01*
X00525591Y00599002D01*
X00527575Y00600525D01*
X00528161Y00601288D01*
X00529431Y00600857D01*
Y00567478D01*
X00502477Y00540523D01*
X00501703Y00539366D01*
X00501432Y00538000D01*
Y00532250D01*
X00499000D01*
Y00520250D01*
X00511000D01*
Y00532250D01*
X00508569D01*
Y00536522D01*
X00535523Y00563477D01*
X00536297Y00564634D01*
X00536569Y00566000D01*
Y00602409D01*
X00537839Y00602662D01*
X00537902Y00602509D01*
X00539425Y00600525D01*
X00541409Y00599002D01*
X00542431Y00598578D01*
Y00563478D01*
X00516477Y00537523D01*
X00515703Y00536366D01*
X00515432Y00535000D01*
Y00532250D01*
X00513000D01*
Y00520250D01*
X00525000D01*
Y00532250D01*
X00522569D01*
Y00533522D01*
X00548523Y00559477D01*
X00549297Y00560634D01*
X00549569Y00562000D01*
Y00598413D01*
X00550991Y00599002D01*
X00552975Y00600525D01*
X00553229Y00600855D01*
X00554431Y00600447D01*
Y00562478D01*
X00530477Y00538523D01*
X00529703Y00537366D01*
X00529431Y00536000D01*
Y00532250D01*
X00527000D01*
Y00520250D01*
X00539000D01*
Y00532250D01*
X00536569D01*
Y00534522D01*
X00560523Y00558477D01*
X00561297Y00559634D01*
X00561569Y00561000D01*
Y00603375D01*
X00562839Y00603627D01*
X00563302Y00602509D01*
D02*
G37*
G36*
X00769000Y00360000D02*
X00795000D01*
Y00326000D01*
X00782000Y00313000D01*
Y00273000D01*
X00774000Y00265000D01*
X00747000D01*
Y00276000D01*
X00743000D01*
Y00291000D01*
X00772000D01*
Y00328000D01*
X00785000D01*
Y00347000D01*
X00745000D01*
Y00377000D01*
X00769000D01*
Y00360000D01*
D02*
G37*
G36*
X00574000Y00172000D02*
X00537000D01*
Y00160000D01*
X00465000D01*
Y00172000D01*
X00451000D01*
X00441000Y00182000D01*
X00427000D01*
Y00191000D01*
X00411000D01*
Y00195000D01*
X00411000D01*
Y00209000D01*
X00451000Y00209000D01*
X00468000Y00192000D01*
X00503000D01*
Y00212000D01*
X00512000D01*
Y00192000D01*
X00545000D01*
Y00210000D01*
X00538000Y00217000D01*
Y00225000D01*
X00574000D01*
Y00172000D01*
D02*
G37*
G36*
X00783000Y00072000D02*
X00741000D01*
Y00114000D01*
X00783000D01*
Y00072000D01*
D02*
G37*
G36*
X00579800D02*
X00537800D01*
Y00114000D01*
X00579800D01*
Y00072000D01*
D02*
G37*
G36*
X00452800D02*
X00410800D01*
Y00114000D01*
X00452800D01*
Y00072000D01*
D02*
G37*
D14*
X00561000Y00493250D02*
D03*
Y00509750D02*
D03*
Y00526250D02*
D03*
X00519000D02*
D03*
Y00509750D02*
D03*
X00505000Y00526250D02*
D03*
Y00509750D02*
D03*
X00491000Y00526250D02*
D03*
Y00509750D02*
D03*
X00463000Y00526250D02*
D03*
Y00509750D02*
D03*
X00477000Y00526250D02*
D03*
Y00509750D02*
D03*
X00449000Y00526250D02*
D03*
Y00509750D02*
D03*
X00435000Y00526250D02*
D03*
Y00509750D02*
D03*
X00407000D02*
D03*
Y00526250D02*
D03*
X00393000D02*
D03*
Y00509750D02*
D03*
X00379000Y00509750D02*
D03*
Y00526250D02*
D03*
X00533000Y00526250D02*
D03*
X00533000Y00509750D02*
D03*
X00693000Y00857750D02*
D03*
Y00874250D02*
D03*
X00187000Y00377750D02*
D03*
Y00394250D02*
D03*
X00701000Y00352250D02*
D03*
Y00335750D02*
D03*
Y00303750D02*
D03*
Y00320250D02*
D03*
X00547000Y00526250D02*
D03*
Y00509750D02*
D03*
X00207792Y00711250D02*
D03*
Y00694750D02*
D03*
X00194000Y00711250D02*
D03*
Y00694750D02*
D03*
X00235000Y00512750D02*
D03*
Y00529250D02*
D03*
X00159000Y00377750D02*
D03*
X00159000Y00394250D02*
D03*
X00173000Y00377750D02*
D03*
Y00394250D02*
D03*
X00159000Y00345750D02*
D03*
Y00362250D02*
D03*
X00533000Y00164250D02*
D03*
X00469000Y00164250D02*
D03*
X00765000Y00384250D02*
D03*
X00779000Y00384250D02*
D03*
X00434000Y00191250D02*
D03*
X00339000Y00156750D02*
D03*
X00469000Y00187750D02*
D03*
Y00204250D02*
D03*
X00356000Y00173250D02*
D03*
Y00156750D02*
D03*
X00339000Y00173250D02*
D03*
X00434000Y00174750D02*
D03*
X00600000Y00236250D02*
D03*
Y00219750D02*
D03*
X00779000Y00367750D02*
D03*
X00765000D02*
D03*
X00779000Y00352250D02*
D03*
Y00335750D02*
D03*
X00765000Y00320250D02*
D03*
Y00303750D02*
D03*
Y00287250D02*
D03*
Y00335750D02*
D03*
Y00352250D02*
D03*
X00451000Y00164250D02*
D03*
Y00147750D02*
D03*
X00469000Y00147750D02*
D03*
X00551000Y00164000D02*
D03*
Y00147500D02*
D03*
X00533000Y00147750D02*
D03*
D15*
X00721250Y00544000D02*
D03*
X00704750D02*
D03*
X00721250Y00519000D02*
D03*
X00704750D02*
D03*
X00284750Y00316000D02*
D03*
X00301250D02*
D03*
X00159750Y00840000D02*
D03*
X00176250D02*
D03*
X00192250Y00826000D02*
D03*
X00175750D02*
D03*
X00143750D02*
D03*
X00160250D02*
D03*
X00176250Y00780000D02*
D03*
X00159750D02*
D03*
X00780250Y00840000D02*
D03*
X00763750D02*
D03*
X00747750Y00826000D02*
D03*
X00764250D02*
D03*
X00779750D02*
D03*
X00796250D02*
D03*
X00780250Y00780000D02*
D03*
X00763750D02*
D03*
X00105750Y00544000D02*
D03*
X00122250D02*
D03*
X00217750Y00545000D02*
D03*
X00234250D02*
D03*
X00122250Y00519000D02*
D03*
X00105750D02*
D03*
X00222750Y00712000D02*
D03*
X00239250Y00712000D02*
D03*
X00234250Y00417000D02*
D03*
X00217750D02*
D03*
Y00595000D02*
D03*
X00234250D02*
D03*
X00222750Y00694000D02*
D03*
X00239250D02*
D03*
X00169750Y00417000D02*
D03*
X00186250D02*
D03*
X00132750Y00417000D02*
D03*
X00149250D02*
D03*
X00143250Y00321000D02*
D03*
X00126750D02*
D03*
X00110250D02*
D03*
X00585250Y00298000D02*
D03*
X00568750Y00219000D02*
D03*
X00585250Y00247000D02*
D03*
X00553250Y00205000D02*
D03*
X00370750Y00205000D02*
D03*
X00419250D02*
D03*
X00402750Y00219000D02*
D03*
X00419250D02*
D03*
X00476750Y00339000D02*
D03*
X00493250Y00339000D02*
D03*
X00370750Y00147000D02*
D03*
X00387250D02*
D03*
X00356250Y00191000D02*
D03*
X00339750D02*
D03*
X00402750Y00205000D02*
D03*
Y00161000D02*
D03*
X00419250D02*
D03*
X00419250Y00147000D02*
D03*
X00402750D02*
D03*
X00387250Y00161000D02*
D03*
X00370750D02*
D03*
X00370750Y00219000D02*
D03*
X00387250D02*
D03*
Y00205000D02*
D03*
X00536750Y00205000D02*
D03*
X00568750Y00233000D02*
D03*
X00585250D02*
D03*
X00568750Y00247000D02*
D03*
X00585250Y00219000D02*
D03*
X00568750Y00298000D02*
D03*
X00525250Y00339000D02*
D03*
X00508750D02*
D03*
X00716750Y00373000D02*
D03*
X00733250D02*
D03*
X00749750D02*
D03*
X00721750Y00269000D02*
D03*
X00738250D02*
D03*
X00754750D02*
D03*
X00713750Y00283000D02*
D03*
X00730250Y00283000D02*
D03*
X00746750Y00283000D02*
D03*
D16*
X00214500Y00645500D02*
D03*
X00224000Y00645500D02*
D03*
X00233500Y00645500D02*
D03*
Y00672500D02*
D03*
X00224000Y00672500D02*
D03*
D17*
X00214500Y00672500D02*
D03*
D18*
X00215000Y00626000D02*
D03*
X00235000D02*
D03*
D19*
X00220187Y00511500D02*
D03*
X00200187Y00521000D02*
D03*
X00220187Y00530500D02*
D03*
X00569000Y00195000D02*
D03*
X00589000Y00204500D02*
D03*
X00589000Y00185500D02*
D03*
D20*
X00546200Y00607300D02*
D03*
X00520800Y00632700D02*
D03*
X00520800Y00607300D02*
D03*
X00495400Y00632700D02*
D03*
Y00607300D02*
D03*
X00470000Y00632700D02*
D03*
Y00607300D02*
D03*
X00444600Y00632700D02*
D03*
Y00607300D02*
D03*
X00419200Y00632700D02*
D03*
X00419200Y00607300D02*
D03*
X00393800Y00632700D02*
D03*
Y00607300D02*
D03*
X00368400Y00632700D02*
D03*
X00546200D02*
D03*
X00571600Y00607300D02*
D03*
Y00632700D02*
D03*
X00260900Y00188700D02*
D03*
Y00214100D02*
D03*
Y00239500D02*
D03*
Y00264900D02*
D03*
Y00290300D02*
D03*
X00083100Y00188700D02*
D03*
Y00214100D02*
D03*
Y00239500D02*
D03*
Y00264900D02*
D03*
Y00290300D02*
D03*
X00260900Y00315700D02*
D03*
Y00671300D02*
D03*
Y00645900D02*
D03*
Y00620500D02*
D03*
Y00569700D02*
D03*
Y00544300D02*
D03*
Y00518900D02*
D03*
Y00493500D02*
D03*
Y00468100D02*
D03*
Y00442700D02*
D03*
Y00417300D02*
D03*
Y00391900D02*
D03*
Y00366500D02*
D03*
Y00341100D02*
D03*
X00083100Y00315700D02*
D03*
Y00341100D02*
D03*
Y00366500D02*
D03*
Y00391900D02*
D03*
Y00417300D02*
D03*
Y00442700D02*
D03*
Y00468100D02*
D03*
Y00493500D02*
D03*
Y00518900D02*
D03*
Y00544300D02*
D03*
Y00569700D02*
D03*
Y00595100D02*
D03*
Y00620500D02*
D03*
Y00645900D02*
D03*
X00260900Y00595100D02*
D03*
X00679100Y00468100D02*
D03*
X00679100Y00518900D02*
D03*
X00679100Y00544300D02*
D03*
Y00595100D02*
D03*
X00679100Y00569700D02*
D03*
Y00645900D02*
D03*
X00856900Y00569700D02*
D03*
X00266800Y00105700D02*
D03*
Y00080300D02*
D03*
X00292200Y00105700D02*
D03*
Y00080300D02*
D03*
X00317600Y00105700D02*
D03*
Y00080300D02*
D03*
X00343000Y00105700D02*
D03*
Y00080300D02*
D03*
X00368400Y00105700D02*
D03*
Y00080300D02*
D03*
X00393800Y00105700D02*
D03*
Y00080300D02*
D03*
X00419200Y00105700D02*
D03*
Y00080300D02*
D03*
X00444600Y00105700D02*
D03*
Y00080300D02*
D03*
X00470000Y00105700D02*
D03*
Y00080300D02*
D03*
X00495400Y00105700D02*
D03*
Y00080300D02*
D03*
X00520800Y00105700D02*
D03*
Y00080300D02*
D03*
X00546200Y00105700D02*
D03*
Y00080300D02*
D03*
X00571600Y00105700D02*
D03*
Y00080300D02*
D03*
X00597000Y00105700D02*
D03*
Y00080300D02*
D03*
X00622400Y00105700D02*
D03*
Y00080300D02*
D03*
X00647800Y00105700D02*
D03*
Y00080300D02*
D03*
X00673200Y00105700D02*
D03*
Y00080300D02*
D03*
X00698600Y00105700D02*
D03*
Y00080300D02*
D03*
X00724000Y00105700D02*
D03*
Y00080300D02*
D03*
X00749400Y00105700D02*
D03*
Y00080300D02*
D03*
X00774800Y00105700D02*
D03*
Y00080300D02*
D03*
X00216000Y00105700D02*
D03*
X00190600D02*
D03*
X00216000Y00080300D02*
D03*
X00190600D02*
D03*
X00165200D02*
D03*
X00241400Y00105700D02*
D03*
Y00080300D02*
D03*
X00679100Y00620500D02*
D03*
Y00442700D02*
D03*
Y00493500D02*
D03*
X00856900Y00620500D02*
D03*
X00679100Y00239500D02*
D03*
Y00214100D02*
D03*
Y00315700D02*
D03*
Y00264900D02*
D03*
Y00391900D02*
D03*
Y00366500D02*
D03*
X00679100Y00417300D02*
D03*
X00856900Y00391900D02*
D03*
X00679100Y00290300D02*
D03*
Y00188700D02*
D03*
Y00341100D02*
D03*
X00856900Y00493500D02*
D03*
Y00366500D02*
D03*
Y00341100D02*
D03*
Y00442700D02*
D03*
Y00417300D02*
D03*
Y00645900D02*
D03*
Y00671300D02*
D03*
X00856900Y00595100D02*
D03*
X00856900Y00544300D02*
D03*
Y00518900D02*
D03*
X00856900Y00468100D02*
D03*
X00856900Y00214100D02*
D03*
Y00188700D02*
D03*
Y00315700D02*
D03*
Y00290300D02*
D03*
Y00264900D02*
D03*
X00856900Y00239500D02*
D03*
D21*
X00368400Y00607300D02*
D03*
X00083100Y00671300D02*
D03*
X00679100Y00671300D02*
D03*
X00165200Y00105700D02*
D03*
D22*
X00046000Y00095500D02*
D03*
Y00020500D02*
D03*
X00096000D02*
D03*
Y00095500D02*
D03*
X00046000Y00799500D02*
D03*
Y00724500D02*
D03*
X00096000D02*
D03*
Y00799500D02*
D03*
X00894000Y00724500D02*
D03*
Y00799500D02*
D03*
X00844000D02*
D03*
Y00724500D02*
D03*
X00894000Y00020500D02*
D03*
Y00095500D02*
D03*
X00844000D02*
D03*
Y00020500D02*
D03*
D23*
X00620000Y00820000D02*
D03*
X00565000Y00800000D02*
D03*
X00575000D02*
D03*
X00705000D02*
D03*
X00715000D02*
D03*
X00705000Y00820000D02*
D03*
X00715000D02*
D03*
X00565000D02*
D03*
X00575000D02*
D03*
X00680000D02*
D03*
X00660000D02*
D03*
X00640000D02*
D03*
X00600000D02*
D03*
X00330000D02*
D03*
X00310000D02*
D03*
X00290000D02*
D03*
X00270000D02*
D03*
X00234000Y00800000D02*
D03*
X00244000D02*
D03*
X00356000Y00800000D02*
D03*
X00366000D02*
D03*
X00356000Y00820000D02*
D03*
X00366000D02*
D03*
X00244000D02*
D03*
X00234000D02*
D03*
D24*
Y00829000D01*
X00244000Y00820000D02*
Y00829000D01*
X00565000Y00832000D02*
X00565000Y00832000D01*
X00564000Y00833000D02*
X00565000Y00832000D01*
X00555000Y00833000D02*
X00564000D01*
X00565000Y00820000D02*
Y00832000D01*
X00575000Y00820000D02*
Y00832000D01*
X00576000Y00833000D02*
X00585000D01*
X00575000Y00832000D02*
X00576000Y00833000D01*
X00575000Y00832000D02*
X00575000Y00832000D01*
X00356000D02*
X00356000Y00832000D01*
X00355000Y00833000D02*
X00356000Y00832000D01*
X00346000Y00833000D02*
X00355000D01*
X00356000Y00820000D02*
Y00832000D01*
X00366000Y00820000D02*
Y00832000D01*
X00367000Y00833000D02*
X00376000D01*
X00366000Y00832000D02*
X00367000Y00833000D01*
X00366000Y00832000D02*
X00366000Y00832000D01*
X00234000Y00788000D02*
X00234000Y00788000D01*
X00233000Y00787000D02*
X00234000Y00788000D01*
X00224000Y00787000D02*
X00233000D01*
X00234000Y00788000D02*
Y00800000D01*
X00244000Y00788000D02*
Y00800000D01*
X00245000Y00787000D02*
X00254000D01*
X00244000Y00788000D02*
X00245000Y00787000D01*
X00244000Y00788000D02*
X00244000Y00788000D01*
X00356000Y00788000D02*
X00356000Y00788000D01*
X00355000Y00787000D02*
X00356000Y00788000D01*
X00346000Y00787000D02*
X00355000D01*
X00356000Y00788000D02*
Y00800000D01*
X00366000Y00788000D02*
Y00800000D01*
X00367000Y00787000D02*
X00376000D01*
X00366000Y00788000D02*
X00367000Y00787000D01*
X00366000Y00788000D02*
X00366000Y00788000D01*
X00565000Y00788000D02*
X00565000Y00788000D01*
X00564000Y00787000D02*
X00565000Y00788000D01*
X00555000Y00787000D02*
X00564000D01*
X00565000Y00788000D02*
Y00800000D01*
X00575000Y00788000D02*
Y00800000D01*
X00576000Y00787000D02*
X00585000D01*
X00575000Y00788000D02*
X00576000Y00787000D01*
X00575000Y00788000D02*
X00575000Y00788000D01*
X00705000D02*
X00705000Y00788000D01*
X00704000Y00787000D02*
X00705000Y00788000D01*
X00695000Y00787000D02*
X00704000D01*
X00705000Y00788000D02*
Y00800000D01*
X00715000Y00788000D02*
Y00800000D01*
X00716000Y00787000D02*
X00725000D01*
X00715000Y00788000D02*
X00716000Y00787000D01*
X00715000Y00788000D02*
X00715000Y00788000D01*
X00715000Y00832000D02*
X00715000Y00832000D01*
X00715000Y00832000D02*
X00716000Y00833000D01*
X00725000D01*
X00715000Y00820000D02*
Y00832000D01*
X00705000Y00820000D02*
Y00832000D01*
X00695000Y00833000D02*
X00704000D01*
X00705000Y00832000D01*
X00705000Y00832000D02*
X00705000Y00832000D01*
X00179300Y00569700D02*
X00185000D01*
X00218000D01*
X00180000Y00430000D02*
X00193000Y00417000D01*
X00180000Y00569700D02*
X00185000D01*
X00260900D02*
X00272300D01*
X00284000Y00478000D02*
Y00558000D01*
X00272300Y00569700D02*
X00284000Y00558000D01*
Y00478000D02*
X00294000Y00468000D01*
X00300000D01*
X00310000D01*
X00180000Y00430000D02*
Y00569700D01*
X00159750Y00589250D02*
Y00750000D01*
Y00589250D02*
X00179300Y00569700D01*
X00193000Y00417000D02*
X00217750D01*
X00733750Y00750000D02*
X00763750Y00780000D01*
X00159750Y00750000D02*
X00733750D01*
X00159750D02*
Y00780000D01*
X00600000Y00833000D02*
Y00857000D01*
X00218000Y00569700D02*
X00260900D01*
X00217750Y00569450D02*
X00218000Y00569700D01*
X00897000Y00408000D02*
Y00548000D01*
X00875300Y00569700D02*
X00897000Y00548000D01*
X00765000Y00384250D02*
X00779000D01*
X00856900Y00569700D02*
X00875300D01*
X00165200Y00080300D02*
Y00105700D01*
D25*
X00640000Y00833000D02*
Y00841000D01*
X00647000Y00848000D02*
Y00867000D01*
X00640000Y00841000D02*
X00647000Y00848000D01*
X00310000Y00833000D02*
Y00851000D01*
X00558000Y00561000D02*
Y00620900D01*
X00533000Y00526250D02*
Y00536000D01*
X00558000Y00561000D01*
X00585000Y00600000D02*
Y00619300D01*
X00571600Y00632700D02*
X00585000Y00619300D01*
X00578000Y00593000D02*
X00585000Y00600000D01*
X00260900Y00264900D02*
X00284900D01*
X00304000Y00284000D01*
X00277500Y00225500D02*
Y00248500D01*
X00307000Y00278000D02*
X00307000D01*
X00277500Y00248500D02*
X00307000Y00278000D01*
X00283000Y00210800D02*
Y00246000D01*
X00309000Y00272000D01*
X00289000Y00193000D02*
Y00243000D01*
X00313000Y00267000D01*
X00295000Y00240000D02*
X00316000Y00261000D01*
X00337000Y00291000D02*
Y00388000D01*
X00295000Y00190000D02*
Y00240000D01*
X00316000Y00261000D02*
X00343000Y00288000D01*
X00313000Y00267000D02*
X00337000Y00291000D01*
X00301000Y00187000D02*
Y00237000D01*
X00320000Y00256000D01*
X00307000Y00184000D02*
Y00233000D01*
X00325000Y00251000D01*
X00261200Y00316000D02*
X00284750D01*
X00547000Y00526250D02*
Y00534000D01*
X00571600Y00558600D02*
Y00607300D01*
X00547000Y00534000D02*
X00571600Y00558600D01*
X00578000Y00518000D02*
Y00593000D01*
X00569750Y00509750D02*
X00578000Y00518000D01*
X00432000Y00593000D02*
Y00619900D01*
X00393000Y00554000D02*
X00432000Y00593000D01*
X00393000Y00526250D02*
Y00554000D01*
X00379000Y00555000D02*
X00419200Y00595200D01*
Y00607300D01*
X00379000Y00526250D02*
Y00555000D01*
X00467000Y00427000D02*
X00533000Y00493000D01*
X00459000Y00433000D02*
X00519000Y00493000D01*
X00451000Y00439000D02*
X00505000Y00493000D01*
X00443000Y00445000D02*
X00491000Y00493000D01*
X00435000Y00451000D02*
X00477000Y00493000D01*
X00427000Y00457000D02*
X00463000Y00493000D01*
X00463000D02*
Y00509750D01*
X00388000Y00457000D02*
X00427000D01*
X00419000Y00463000D02*
X00449000Y00493000D01*
X00411000Y00469000D02*
X00435000Y00493000D01*
X00403000Y00475000D02*
X00421000Y00493000D01*
X00395000Y00481000D02*
X00407000Y00493000D01*
X00387000Y00487000D02*
X00393000Y00493000D01*
X00533000D02*
Y00509750D01*
X00403000Y00427000D02*
X00467000D01*
X00561000Y00509750D02*
X00569750D01*
X00546200Y00632700D02*
X00558000Y00620900D01*
X00546000Y00607100D02*
X00546200Y00607300D01*
X00546000Y00562000D02*
Y00607100D01*
X00519000Y00535000D02*
X00546000Y00562000D01*
X00519000Y00526250D02*
Y00535000D01*
X00520800Y00632700D02*
X00533000Y00620500D01*
Y00566000D02*
Y00620500D01*
X00505000Y00538000D02*
X00533000Y00566000D01*
X00505000Y00526250D02*
Y00538000D01*
X00520800Y00607300D02*
X00521000Y00607100D01*
Y00572000D02*
Y00607100D01*
X00491000Y00542000D02*
X00521000Y00572000D01*
X00491000Y00526250D02*
Y00542000D01*
X00495400Y00632700D02*
X00508000Y00620100D01*
Y00577000D02*
Y00620100D01*
X00477000Y00546000D02*
X00508000Y00577000D01*
X00477000Y00526250D02*
Y00546000D01*
X00519000Y00493000D02*
Y00509750D01*
X00505000Y00493000D02*
Y00509750D01*
X00491000Y00493000D02*
Y00509750D01*
X00477000Y00493000D02*
Y00509750D01*
X00463000D02*
Y00509779D01*
X00449000Y00493000D02*
Y00509750D01*
Y00509829D01*
X00435000Y00493000D02*
Y00509750D01*
Y00509879D01*
X00407000Y00493000D02*
Y00509750D01*
X00393000Y00493000D02*
Y00509750D01*
Y00509929D01*
X00379000Y00501000D02*
Y00509750D01*
Y00509829D01*
X00391000Y00451000D02*
X00435000D01*
X00463000Y00549000D02*
X00495000Y00581000D01*
X00463000Y00526250D02*
Y00549000D01*
X00495000Y00581000D02*
Y00606900D01*
X00495400Y00607300D01*
X00421000Y00493000D02*
Y00555000D01*
X00457000Y00591000D01*
X00419200Y00632700D02*
X00432000Y00619900D01*
X00470000Y00632700D02*
X00482000Y00620700D01*
Y00586000D02*
Y00620700D01*
X00457000Y00591000D02*
Y00620300D01*
X00444600Y00632700D02*
X00457000Y00620300D01*
X00470000Y00590000D02*
Y00607300D01*
X00435000Y00555000D02*
X00470000Y00590000D01*
X00435000Y00526250D02*
Y00555000D01*
X00449000Y00553000D02*
X00482000Y00586000D01*
X00449000Y00526250D02*
Y00553000D01*
X00407000Y00526250D02*
Y00555000D01*
X00444600Y00592600D02*
Y00607300D01*
X00407000Y00555000D02*
X00444600Y00592600D01*
X00385000Y00463000D02*
X00419000D01*
X00382000Y00469000D02*
X00411000D01*
X00379000Y00475000D02*
X00403000D01*
X00376000Y00481000D02*
X00395000D01*
X00373000Y00487000D02*
X00387000D01*
X00320700Y00442700D02*
X00379000Y00501000D01*
X00260900Y00442700D02*
X00320700D01*
X00295000Y00357000D02*
Y00400000D01*
X00279100Y00341100D02*
X00295000Y00357000D01*
X00260900Y00341100D02*
X00279100D01*
X00295000Y00400000D02*
X00376000Y00481000D01*
X00325000Y00251000D02*
X00355000Y00281000D01*
Y00379000D01*
X00320000Y00256000D02*
X00349000Y00285000D01*
Y00382000D01*
X00343000Y00288000D02*
Y00385000D01*
X00309000Y00272000D02*
X00331000Y00294000D01*
Y00391000D01*
X00307000Y00278000D02*
X00325000Y00296000D01*
Y00394000D01*
X00355000Y00379000D02*
X00403000Y00427000D01*
X00349000Y00382000D02*
X00400000Y00433000D01*
X00343000Y00385000D02*
X00397000Y00439000D01*
X00337000Y00388000D02*
X00394000Y00445000D01*
X00331000Y00391000D02*
X00391000Y00451000D01*
X00325000Y00394000D02*
X00388000Y00457000D01*
X00266100Y00214100D02*
X00277500Y00225500D01*
X00304000Y00284000D02*
X00319000Y00299000D01*
Y00397000D01*
X00301300Y00290300D02*
X00313000Y00302000D01*
X00260900Y00290300D02*
X00301300D01*
X00313000Y00302000D02*
Y00400000D01*
X00319000Y00397000D02*
X00385000Y00463000D01*
X00313000Y00400000D02*
X00382000Y00469000D01*
X00301250Y00316000D02*
Y00397250D01*
X00379000Y00475000D01*
X00260900Y00214100D02*
X00266100D01*
X00721250Y00519000D02*
X00732000D01*
X00721250Y00544000D02*
X00732000D01*
X00704650Y00518900D02*
X00704750Y00519000D01*
X00679100Y00518900D02*
X00704650D01*
X00704450Y00544300D02*
X00704750Y00544000D01*
X00679100Y00544300D02*
X00704450D01*
X00657000Y00381000D02*
X00657000Y00183000D01*
X00670000Y00170000D02*
X00803000D01*
X00657000Y00183000D02*
X00670000Y00170000D01*
X00663000Y00384000D02*
X00663000Y00186000D01*
X00673000Y00176000D02*
X00801000D01*
X00663000Y00186000D02*
X00673000Y00176000D01*
X00099800Y00172000D02*
X00268000D01*
X00083100Y00188700D02*
X00099800Y00172000D01*
X00268000D02*
X00289000Y00193000D01*
X00271000Y00166000D02*
X00295000Y00190000D01*
X00085000Y00166000D02*
X00271000D01*
X00071000Y00180000D02*
X00085000Y00166000D01*
X00274000Y00160000D02*
X00301000Y00187000D01*
X00065000Y00178000D02*
X00083000Y00160000D01*
X00274000D01*
X00059000Y00176000D02*
X00081000Y00154000D01*
X00277000D01*
X00307000Y00184000D01*
X00803000Y00170000D02*
X00821000Y00188000D01*
Y00294000D01*
X00830000Y00303000D01*
X00815000Y00190000D02*
Y00300000D01*
X00831000Y00316000D01*
X00801000Y00176000D02*
X00815000Y00190000D01*
X00798000Y00315000D02*
X00823000Y00340000D01*
X00798000Y00187000D02*
Y00315000D01*
X00132750Y00417000D02*
X00133350Y00416400D01*
Y00399000D02*
Y00416400D01*
X00096000Y00426000D02*
Y00455200D01*
X00083100Y00468100D02*
X00096000Y00455200D01*
X00105000Y00417000D02*
X00132750D01*
X00096000Y00426000D02*
X00105000Y00417000D01*
X00120650Y00384350D02*
Y00397000D01*
Y00384350D02*
X00121000Y00384000D01*
X00107950Y00384050D02*
Y00397000D01*
Y00384050D02*
X00108000Y00384000D01*
X00140000Y00331000D02*
X00171000D01*
X00175000Y00335000D01*
Y00355000D01*
X00133350Y00337650D02*
X00140000Y00331000D01*
X00133350Y00337650D02*
Y00343000D01*
X00146050Y00345750D02*
X00159000D01*
X00023000Y00443000D02*
X00082800D01*
X00083100Y00442700D01*
X00015000Y00748000D02*
X00031000Y00764000D01*
X00015000Y00556000D02*
X00037000Y00534000D01*
X00015000Y00556000D02*
Y00748000D01*
X00009000Y00554929D02*
X00034929Y00529000D01*
X00009000Y00554929D02*
Y00750728D01*
X00034929Y00529000D02*
X00073000D01*
X00037000Y00534000D02*
X00072800D01*
X00083100Y00544300D01*
X00073000Y00529000D02*
X00083100Y00518900D01*
X00105450Y00544300D02*
X00105750Y00544000D01*
X00083100Y00544300D02*
X00105450D01*
X00680000Y00833000D02*
Y00873000D01*
X00680250Y00873250D01*
X00693000D01*
X00539000Y00880000D02*
X00634000D01*
X00647000Y00867000D01*
X00310000Y00867000D02*
X00526000D01*
X00539000Y00880000D01*
X00680000Y00833000D02*
X00680000Y00833000D01*
X00118000Y00764000D02*
X00129000Y00775000D01*
Y00849000D02*
X00147000Y00867000D01*
X00129000Y00775000D02*
Y00849000D01*
X00146050Y00343000D02*
Y00345750D01*
X00277900Y00391900D02*
X00373000Y00487000D01*
X00260900Y00391900D02*
X00277900D01*
X00147000Y00867000D02*
X00310000D01*
X00394000Y00445000D02*
X00443000D01*
X00397000Y00439000D02*
X00451000D01*
X00159000Y00345750D02*
X00159250Y00346000D01*
X00167000D01*
X00400000Y00433000D02*
X00459000D01*
X00398000Y00393000D02*
X00411000Y00406000D01*
X00632000D01*
X00392000Y00395485D02*
X00407515Y00411000D01*
X00636000D01*
X00388625Y00228625D02*
X00392000Y00232000D01*
X00419000Y00139000D02*
Y00160750D01*
X00260900Y00188700D02*
X00283000Y00210800D01*
X00371000Y00139000D02*
Y00160750D01*
X00636000Y00411000D02*
X00663000Y00384000D01*
X00632000Y00406000D02*
X00657000Y00381000D01*
X00640000Y00182000D02*
X00663000Y00159000D01*
X00607000Y00288000D02*
X00640000Y00255000D01*
Y00182000D02*
Y00255000D01*
X00634000Y00178100D02*
X00660100Y00152000D01*
X00634000Y00178100D02*
Y00253000D01*
X00607000Y00280000D02*
X00634000Y00253000D01*
X00628000Y00175615D02*
X00657615Y00146000D01*
X00607000Y00272000D02*
X00628000Y00251000D01*
Y00175615D02*
Y00251000D01*
X00607000Y00264000D02*
X00622000Y00249000D01*
X00622000D02*
X00622000Y00173130D01*
X00655130Y00140000D01*
X00616000Y00247000D02*
X00616000Y00172059D01*
X00607000Y00256000D02*
X00616000Y00247000D01*
X00577750Y00256000D02*
X00607000D01*
X00568750Y00247000D02*
X00577750Y00256000D01*
X00570000Y00264000D02*
X00607000D01*
X00565300Y00259300D02*
X00570000Y00264000D01*
X00568750Y00298000D02*
X00578750Y00288000D01*
X00607000D01*
X00616000Y00172059D02*
X00653059Y00135000D01*
X00398000Y00232000D02*
Y00393000D01*
X00392000Y00232000D02*
Y00395485D01*
X00059000Y00176000D02*
Y00266200D01*
X00065000Y00178000D02*
Y00246800D01*
X00059000Y00266200D02*
X00083100Y00290300D01*
X00065000Y00246800D02*
X00083100Y00264900D01*
X00071000Y00180000D02*
Y00202000D01*
X00083100Y00214100D01*
X00374625Y00228625D02*
X00388625D01*
X00684450Y00335750D02*
X00701000D01*
X00710750D02*
X00713950Y00338950D01*
X00701000Y00335750D02*
X00710750D01*
X00679100Y00341100D02*
X00684450Y00335750D01*
X00031000Y00764000D02*
X00118000D01*
X00310000Y00833000D02*
X00310000Y00833000D01*
X00419000Y00160750D02*
X00419250Y00161000D01*
X00370750D02*
X00371000Y00160750D01*
X00683650Y00320250D02*
X00710250D01*
X00419250Y00219000D02*
Y00225750D01*
X00401875Y00228125D02*
X00416875D01*
X00419250Y00225750D01*
X00370750Y00219000D02*
Y00224750D01*
X00374625Y00228625D01*
X00398000Y00232000D02*
X00401875Y00228125D01*
X00339000Y00173250D02*
X00373250D01*
X00339000Y00173250D02*
X00339000Y00173250D01*
X00402750Y00205000D02*
Y00219000D01*
Y00190250D02*
Y00205000D01*
X00406750Y00186250D02*
X00418750D01*
X00387250Y00205000D02*
Y00219000D01*
Y00190250D02*
Y00205000D01*
X00371250Y00186250D02*
X00383250D01*
X00387250Y00190250D01*
X00402750D02*
X00406750Y00186250D01*
X00402750Y00175750D02*
X00406750Y00179750D01*
X00418750D01*
X00402750Y00161000D02*
Y00175750D01*
X00387250Y00161000D02*
Y00175750D01*
X00371250Y00179750D02*
X00383250D01*
X00387250Y00175750D01*
X00869000Y00308000D02*
Y00329000D01*
X00856900Y00341100D02*
X00869000Y00329000D01*
X00864000Y00303000D02*
X00869000Y00308000D01*
X00830000Y00303000D02*
X00864000D01*
X00739350Y00355000D02*
Y00366900D01*
X00733250Y00373000D02*
X00739350Y00366900D01*
X00856900Y00214100D02*
X00872000Y00199000D01*
Y00183000D02*
Y00199000D01*
X00853000Y00174000D02*
X00863000D01*
X00872000Y00183000D01*
X00814000Y00135000D02*
X00853000Y00174000D01*
X00653059Y00135000D02*
X00814000Y00135000D01*
X00655130Y00140000D02*
X00811000Y00140000D01*
X00856900Y00185900D02*
Y00188700D01*
X00811000Y00140000D02*
X00856900Y00185900D01*
X00657615Y00146000D02*
X00809000Y00146000D01*
X00843000Y00180000D02*
Y00245000D01*
X00809000Y00146000D02*
X00843000Y00180000D01*
X00836000Y00181000D02*
Y00247000D01*
X00660100Y00152000D02*
X00807000Y00152000D01*
X00836000Y00181000D01*
X00663000Y00159000D02*
X00798000D01*
X00831000Y00316000D02*
X00856600D01*
X00266800Y00080300D02*
Y00105700D01*
X00508750Y00310750D02*
Y00339000D01*
X00495400Y00297400D02*
X00508750Y00310750D01*
X00514000Y00369000D02*
X00546000D01*
X00508750Y00339000D02*
Y00363750D01*
X00514000Y00369000D01*
X00482100Y00310100D02*
X00493250Y00321250D01*
Y00339000D01*
X00488000Y00369000D02*
X00493250Y00363750D01*
Y00339000D02*
Y00363750D01*
X00455000Y00370000D02*
X00456000Y00369000D01*
X00488000D01*
X00454000Y00297400D02*
X00495400D01*
X00454000Y00310100D02*
X00482100D01*
X00710250Y00320250D02*
X00726650Y00336650D01*
Y00355000D01*
X00589500Y00205000D02*
X00600000D01*
X00589000Y00204500D02*
X00589500Y00205000D01*
X00548000Y00259300D02*
X00565300D01*
X00823000Y00340000D02*
Y00380000D01*
X00834900Y00391900D01*
X00856900D01*
X00856600Y00316000D02*
X00856900Y00315700D01*
X00569000Y00280000D02*
X00607000D01*
X00548000Y00272000D02*
X00607000D01*
X00452250Y00149000D02*
X00481950D01*
X00451000Y00147750D02*
X00452250Y00149000D01*
X00521550Y00147500D02*
X00551000D01*
X00520050Y00149000D02*
X00521550Y00147500D01*
X00850000Y00252000D02*
X00867000D01*
X00548000Y00284700D02*
X00564300D01*
X00569000Y00280000D01*
X00568150Y00297400D02*
X00568750Y00298000D01*
X00548000Y00297400D02*
X00568150D01*
X00567850Y00233900D02*
X00568750Y00233000D01*
X00548000Y00233900D02*
X00567850D01*
X00548000Y00246600D02*
X00548400Y00247000D01*
X00568750D01*
X00477800Y00221200D02*
X00481950Y00217050D01*
X00454000Y00221200D02*
X00477800D01*
X00481950Y00203000D02*
Y00217050D01*
X00836000Y00247000D02*
X00853900Y00264900D01*
X00856900D01*
X00843000Y00245000D02*
X00850000Y00252000D01*
X00856900Y00290300D02*
X00873000Y00274200D01*
Y00258000D02*
Y00274200D01*
X00867000Y00252000D02*
X00873000Y00258000D01*
X00713950Y00338950D02*
Y00355000D01*
X00679100Y00315700D02*
X00683650Y00320250D01*
X00726650Y00286850D02*
Y00301000D01*
Y00286850D02*
X00730500Y00283000D01*
X00739000Y00300650D02*
X00739350Y00301000D01*
X00739000Y00269000D02*
Y00300650D01*
X00754300Y00303250D02*
X00765000D01*
X00752050Y00301000D02*
X00754300Y00303250D01*
D26*
X00660000Y00833000D02*
Y00841000D01*
X00653000Y00848000D02*
Y00871000D01*
Y00848000D02*
X00660000Y00841000D01*
X00638000Y00886000D02*
X00653000Y00871000D01*
X00330000Y00833000D02*
Y00851000D01*
X00009000Y00750728D02*
X00028272Y00770000D01*
X00330000Y00874000D02*
X00523000D01*
X00145000D02*
X00330000D01*
X00083100Y00518900D02*
X00083200Y00519000D01*
X00105750D01*
X00330000Y00873750D02*
Y00874000D01*
X00523000D02*
X00535000Y00886000D01*
X00638000D01*
X00123000Y00777728D02*
Y00852000D01*
X00115272Y00770000D02*
X00123000Y00777728D01*
Y00852000D02*
X00145000Y00874000D01*
X00028272Y00770000D02*
X00115272D01*
D27*
X00192000Y00840000D02*
X00270000D01*
X00701250Y00857750D02*
X00702000Y00857000D01*
X00693000Y00857750D02*
X00701250D01*
X00217750Y00546087D02*
Y00569700D01*
X00547000Y00493500D02*
X00547250Y00493250D01*
X00547000Y00493500D02*
Y00509750D01*
X00547250Y00493250D02*
X00561000D01*
X00122250Y00544000D02*
X00177000D01*
X00122250Y00519000D02*
Y00544000D01*
X00176250Y00840000D02*
X00192000D01*
X00192250Y00839750D01*
Y00826000D02*
Y00839750D01*
X00270000Y00840000D02*
X00270000Y00840000D01*
Y00833000D02*
Y00840000D01*
X00234268Y00529982D02*
X00235000Y00529250D01*
X00234268Y00529982D02*
Y00544982D01*
X00220255Y00530432D02*
X00233818D01*
X00235000Y00529250D01*
X00234250Y00545000D02*
X00260200D01*
X00260900Y00544300D01*
X00765000Y00384250D02*
X00765000Y00384250D01*
X00774250Y00079750D02*
X00774800Y00080300D01*
X00444250Y00079950D02*
X00444600Y00080300D01*
X00571250Y00079950D02*
X00571600Y00080300D01*
D28*
X00224000Y00829000D02*
X00234000D01*
X00244000D02*
X00254000D01*
X00260900Y00315700D02*
X00261200Y00316000D01*
X00282000Y00705000D02*
X00301000Y00724000D01*
X00282000Y00616200D02*
Y00705000D01*
X00260900Y00595100D02*
X00282000Y00616200D01*
X00120650Y00327100D02*
X00126750Y00321000D01*
X00126829Y00320921D01*
X00120650Y00327100D02*
Y00343000D01*
X00143250Y00321000D02*
X00143250Y00321000D01*
X00151000D01*
X00178000Y00781750D02*
Y00793500D01*
X00151000Y00362000D02*
X00151250Y00362250D01*
X00151000Y00362000D02*
Y00362000D01*
X00151250Y00362250D02*
X00159000D01*
X00666000Y00724000D02*
X00679100Y00710900D01*
Y00671300D02*
Y00710900D01*
X00234350Y00595100D02*
X00260900D01*
X00234250Y00595000D02*
X00234350Y00595100D01*
X00301000Y00724000D02*
X00666000D01*
X00782000Y00781750D02*
Y00793500D01*
X00330000Y00212000D02*
X00356000D01*
X00324000Y00206000D02*
X00330000Y00212000D01*
X00324000Y00162000D02*
Y00206000D01*
Y00162000D02*
X00329250Y00156750D01*
X00339000D01*
X00780250Y00771250D02*
Y00780000D01*
X00780000Y00771000D02*
X00780250Y00771250D01*
X00176250Y00771250D02*
Y00780000D01*
X00176000Y00771000D02*
X00176250Y00771250D01*
X00780250Y00780000D02*
X00782000Y00781750D01*
Y00793500D02*
X00785500D01*
X00178000Y00793500D02*
X00181500D01*
X00176250Y00780000D02*
X00178000Y00781750D01*
X00234250Y00417000D02*
X00234550Y00417300D01*
X00260900D01*
X00701000Y00296000D02*
Y00303750D01*
Y00352250D02*
Y00360000D01*
X00585250Y00247000D02*
X00585250Y00247000D01*
X00585250Y00298000D02*
X00594000D01*
X00585250Y00247000D02*
X00594000D01*
X00363000Y00205000D02*
X00370750D01*
X00356000Y00212000D02*
X00363000Y00205000D01*
X00356000Y00212000D02*
Y00228000D01*
X00589000Y00204500D02*
Y00219000D01*
X00585250D02*
X00589000D01*
X00585250D02*
X00586000Y00219750D01*
X00600000D01*
X00585250Y00219000D02*
Y00233000D01*
X00190600Y00080400D02*
Y00105700D01*
X00216000Y00080300D02*
Y00105700D01*
X00241400Y00080300D02*
Y00105700D01*
D29*
X00779000Y00569700D02*
X00856900D01*
X00779000Y00555000D02*
Y00569700D01*
Y00540300D02*
Y00555000D01*
Y00525600D02*
Y00540300D01*
Y00384250D02*
Y00525600D01*
D30*
X00363000Y00124000D02*
X00497000D01*
X00360308Y00130500D02*
X00494308D01*
X00190600Y00080400D02*
X00192000Y00079000D01*
X00678000Y00392000D02*
X00682447D01*
X00454000Y00233900D02*
X00509100D01*
X00520050Y00222950D01*
Y00203000D02*
Y00222950D01*
X00494650Y00149000D02*
X00497750Y00145900D01*
Y00133942D02*
Y00145900D01*
X00494308Y00130500D02*
X00497750Y00133942D01*
X00352500Y00122692D02*
X00360308Y00130500D01*
X00352500Y00114000D02*
Y00122692D01*
X00343000Y00105700D02*
X00344200D01*
X00352500Y00114000D01*
X00504250Y00145900D02*
X00507350Y00149000D01*
X00504250Y00131250D02*
Y00145900D01*
X00497000Y00124000D02*
X00504250Y00131250D01*
X00359000Y00114000D02*
X00367300Y00105700D01*
X00359000Y00120000D02*
X00363000Y00124000D01*
X00359000Y00114000D02*
Y00120000D01*
X00367300Y00105700D02*
X00368400D01*
X00343000Y00080300D02*
X00352450Y00089750D01*
X00358950Y00089750D02*
X00368400Y00080300D01*
X00358950Y00089750D02*
Y00096250D01*
X00368400Y00105700D01*
X00352450Y00089750D02*
Y00096250D01*
X00343000Y00105700D02*
X00352450Y00096250D01*
X00216000Y00079000D02*
Y00080300D01*
X00241400Y00079600D02*
Y00080300D01*
Y00079600D02*
X00242000Y00079000D01*
X00544900Y00107000D02*
X00547000D01*
X00749400Y00105700D02*
X00750000Y00105100D01*
Y00105000D02*
Y00105100D01*
D31*
X00702000Y00857000D02*
D03*
X00330000Y00851000D02*
D03*
X00310000D02*
D03*
X00738000Y00880000D02*
D03*
X00027000Y00622000D02*
D03*
Y00418000D02*
D03*
Y00472000D02*
D03*
X00303000Y00483000D02*
D03*
Y00508000D02*
D03*
X00569000Y00542000D02*
D03*
X00147000Y00840000D02*
D03*
X00160000Y00851000D02*
D03*
X00224000Y00829000D02*
D03*
X00254000D02*
D03*
X00367000Y00532000D02*
D03*
X00346000Y00833000D02*
D03*
X00376000D02*
D03*
X00346000Y00787000D02*
D03*
X00376000D02*
D03*
X00224000Y00787000D02*
D03*
X00254000D02*
D03*
X00695000Y00787000D02*
D03*
X00725000D02*
D03*
X00555000D02*
D03*
X00585000D02*
D03*
X00555000Y00833000D02*
D03*
X00585000D02*
D03*
X00725000D02*
D03*
X00695000D02*
D03*
X00395000Y00147000D02*
D03*
X00222000Y00722000D02*
D03*
X00207792D02*
D03*
X00194000D02*
D03*
X00299000Y00834000D02*
D03*
X00281000D02*
D03*
X00611000Y00834000D02*
D03*
X00629000D02*
D03*
X00569000Y00526000D02*
D03*
X00547000Y00534000D02*
D03*
X00300000Y00468000D02*
D03*
X00310000D02*
D03*
X00547250Y00493250D02*
D03*
X00732000Y00544000D02*
D03*
Y00519000D02*
D03*
X00926000Y00772000D02*
D03*
X00911000Y00742000D02*
D03*
X00926000Y00712000D02*
D03*
Y00652000D02*
D03*
Y00592000D02*
D03*
Y00532000D02*
D03*
X00911000Y00502000D02*
D03*
X00926000Y00472000D02*
D03*
X00911000Y00442000D02*
D03*
X00926000Y00412000D02*
D03*
X00911000Y00382000D02*
D03*
X00926000Y00352000D02*
D03*
X00911000Y00322000D02*
D03*
X00926000Y00292000D02*
D03*
X00911000Y00262000D02*
D03*
X00926000Y00232000D02*
D03*
X00911000Y00202000D02*
D03*
X00926000Y00172000D02*
D03*
X00911000Y00142000D02*
D03*
X00926000Y00112000D02*
D03*
Y00052000D02*
D03*
X00896000Y00772000D02*
D03*
X00881000Y00742000D02*
D03*
X00896000Y00592000D02*
D03*
X00881000Y00502000D02*
D03*
Y00442000D02*
D03*
Y00382000D02*
D03*
X00896000Y00352000D02*
D03*
X00881000Y00322000D02*
D03*
X00896000Y00292000D02*
D03*
X00881000Y00262000D02*
D03*
X00896000Y00232000D02*
D03*
X00881000Y00202000D02*
D03*
X00896000Y00172000D02*
D03*
X00881000Y00142000D02*
D03*
X00896000Y00052000D02*
D03*
X00866000Y00832000D02*
D03*
Y00772000D02*
D03*
Y00712000D02*
D03*
Y00532000D02*
D03*
Y00352000D02*
D03*
X00851000Y00142000D02*
D03*
X00866000Y00112000D02*
D03*
Y00052000D02*
D03*
X00836000Y00832000D02*
D03*
Y00772000D02*
D03*
X00821000Y00742000D02*
D03*
Y00082000D02*
D03*
X00836000Y00052000D02*
D03*
X00806000Y00772000D02*
D03*
X00791000Y00742000D02*
D03*
Y00622000D02*
D03*
X00806000Y00112000D02*
D03*
X00791000Y00082000D02*
D03*
X00806000Y00052000D02*
D03*
X00791000Y00022000D02*
D03*
X00761000Y00742000D02*
D03*
X00776000Y00652000D02*
D03*
X00761000Y00622000D02*
D03*
X00776000Y00592000D02*
D03*
X00761000Y00562000D02*
D03*
Y00502000D02*
D03*
Y00442000D02*
D03*
Y00202000D02*
D03*
X00776000Y00052000D02*
D03*
X00761000Y00022000D02*
D03*
X00746000Y00712000D02*
D03*
X00731000Y00682000D02*
D03*
X00746000Y00652000D02*
D03*
X00731000Y00622000D02*
D03*
X00746000Y00592000D02*
D03*
X00731000Y00562000D02*
D03*
X00746000Y00532000D02*
D03*
X00731000Y00502000D02*
D03*
X00746000Y00472000D02*
D03*
X00731000Y00442000D02*
D03*
X00746000Y00412000D02*
D03*
X00731000Y00322000D02*
D03*
X00746000Y00232000D02*
D03*
X00731000Y00202000D02*
D03*
X00746000Y00052000D02*
D03*
X00731000Y00022000D02*
D03*
X00716000Y00772000D02*
D03*
Y00712000D02*
D03*
X00701000Y00682000D02*
D03*
X00716000Y00652000D02*
D03*
X00701000Y00622000D02*
D03*
X00716000Y00592000D02*
D03*
X00701000Y00562000D02*
D03*
Y00502000D02*
D03*
X00716000Y00472000D02*
D03*
X00701000Y00442000D02*
D03*
X00716000Y00412000D02*
D03*
Y00232000D02*
D03*
X00701000Y00202000D02*
D03*
X00716000Y00052000D02*
D03*
X00701000Y00022000D02*
D03*
X00686000Y00772000D02*
D03*
Y00112000D02*
D03*
Y00052000D02*
D03*
X00671000Y00022000D02*
D03*
X00656000Y00772000D02*
D03*
X00641000Y00622000D02*
D03*
X00656000Y00532000D02*
D03*
X00641000Y00502000D02*
D03*
X00656000Y00472000D02*
D03*
X00641000Y00442000D02*
D03*
X00656000Y00412000D02*
D03*
X00641000Y00382000D02*
D03*
Y00322000D02*
D03*
X00656000Y00052000D02*
D03*
X00641000Y00022000D02*
D03*
X00626000Y00772000D02*
D03*
Y00712000D02*
D03*
Y00652000D02*
D03*
X00611000Y00622000D02*
D03*
X00626000Y00532000D02*
D03*
X00611000Y00502000D02*
D03*
X00626000Y00472000D02*
D03*
X00611000Y00442000D02*
D03*
Y00382000D02*
D03*
X00626000Y00352000D02*
D03*
X00611000Y00322000D02*
D03*
X00626000Y00292000D02*
D03*
Y00052000D02*
D03*
X00611000Y00022000D02*
D03*
X00581000Y00862000D02*
D03*
X00596000Y00772000D02*
D03*
Y00712000D02*
D03*
Y00652000D02*
D03*
Y00532000D02*
D03*
Y00472000D02*
D03*
X00581000Y00442000D02*
D03*
X00596000Y00352000D02*
D03*
X00581000Y00322000D02*
D03*
X00596000Y00172000D02*
D03*
Y00052000D02*
D03*
X00581000Y00022000D02*
D03*
X00551000Y00862000D02*
D03*
X00566000Y00772000D02*
D03*
Y00712000D02*
D03*
Y00652000D02*
D03*
Y00352000D02*
D03*
Y00052000D02*
D03*
X00551000Y00022000D02*
D03*
X00536000Y00832000D02*
D03*
X00521000Y00802000D02*
D03*
X00536000Y00772000D02*
D03*
Y00712000D02*
D03*
Y00652000D02*
D03*
Y00352000D02*
D03*
X00521000Y00322000D02*
D03*
Y00262000D02*
D03*
X00536000Y00052000D02*
D03*
X00521000Y00022000D02*
D03*
X00506000Y00832000D02*
D03*
X00491000Y00802000D02*
D03*
X00506000Y00772000D02*
D03*
Y00712000D02*
D03*
Y00652000D02*
D03*
X00491000Y00382000D02*
D03*
X00506000Y00292000D02*
D03*
X00491000Y00262000D02*
D03*
X00506000Y00112000D02*
D03*
Y00052000D02*
D03*
X00491000Y00022000D02*
D03*
X00476000Y00832000D02*
D03*
X00461000Y00802000D02*
D03*
X00476000Y00772000D02*
D03*
Y00712000D02*
D03*
Y00652000D02*
D03*
Y00352000D02*
D03*
Y00052000D02*
D03*
X00461000Y00022000D02*
D03*
X00446000Y00832000D02*
D03*
X00431000Y00802000D02*
D03*
X00446000Y00772000D02*
D03*
Y00712000D02*
D03*
Y00652000D02*
D03*
Y00352000D02*
D03*
X00431000Y00322000D02*
D03*
Y00262000D02*
D03*
Y00022000D02*
D03*
X00416000Y00832000D02*
D03*
X00401000Y00802000D02*
D03*
X00416000Y00772000D02*
D03*
Y00712000D02*
D03*
Y00652000D02*
D03*
Y00292000D02*
D03*
X00401000Y00022000D02*
D03*
X00386000Y00772000D02*
D03*
Y00712000D02*
D03*
Y00592000D02*
D03*
X00371000Y00022000D02*
D03*
X00356000Y00772000D02*
D03*
Y00712000D02*
D03*
X00341000Y00622000D02*
D03*
X00356000Y00592000D02*
D03*
X00341000Y00022000D02*
D03*
X00326000Y00772000D02*
D03*
Y00712000D02*
D03*
X00311000Y00622000D02*
D03*
X00326000Y00532000D02*
D03*
X00311000Y00022000D02*
D03*
X00296000Y00772000D02*
D03*
Y00592000D02*
D03*
Y00532000D02*
D03*
X00281000Y00022000D02*
D03*
X00266000Y00772000D02*
D03*
Y00532000D02*
D03*
X00251000Y00142000D02*
D03*
Y00022000D02*
D03*
X00236000Y00772000D02*
D03*
X00221000Y00022000D02*
D03*
X00206000Y00772000D02*
D03*
X00191000Y00622000D02*
D03*
X00206000Y00532000D02*
D03*
X00191000Y00502000D02*
D03*
Y00442000D02*
D03*
Y00322000D02*
D03*
Y00262000D02*
D03*
Y00202000D02*
D03*
Y00022000D02*
D03*
X00176000Y00652000D02*
D03*
Y00592000D02*
D03*
X00161000Y00562000D02*
D03*
Y00502000D02*
D03*
Y00322000D02*
D03*
X00176000Y00292000D02*
D03*
X00161000Y00262000D02*
D03*
X00176000Y00232000D02*
D03*
X00161000Y00202000D02*
D03*
Y00022000D02*
D03*
X00131000Y00742000D02*
D03*
X00146000Y00652000D02*
D03*
Y00592000D02*
D03*
Y00532000D02*
D03*
X00131000Y00442000D02*
D03*
X00146000Y00292000D02*
D03*
X00131000Y00262000D02*
D03*
X00146000Y00232000D02*
D03*
X00131000Y00202000D02*
D03*
Y00022000D02*
D03*
X00101000Y00862000D02*
D03*
X00116000Y00712000D02*
D03*
Y00652000D02*
D03*
Y00592000D02*
D03*
X00101000Y00562000D02*
D03*
Y00502000D02*
D03*
X00116000Y00292000D02*
D03*
X00101000Y00262000D02*
D03*
X00116000Y00232000D02*
D03*
X00101000Y00202000D02*
D03*
Y00142000D02*
D03*
X00116000Y00112000D02*
D03*
Y00052000D02*
D03*
X00071000Y00862000D02*
D03*
X00086000Y00832000D02*
D03*
X00071000Y00802000D02*
D03*
Y00742000D02*
D03*
Y00622000D02*
D03*
Y00562000D02*
D03*
Y00502000D02*
D03*
Y00382000D02*
D03*
Y00142000D02*
D03*
Y00082000D02*
D03*
X00086000Y00052000D02*
D03*
X00071000Y00022000D02*
D03*
X00056000Y00472000D02*
D03*
X00041000Y00382000D02*
D03*
X00056000Y00352000D02*
D03*
Y00292000D02*
D03*
X00041000Y00262000D02*
D03*
Y00202000D02*
D03*
Y00142000D02*
D03*
X00056000Y00052000D02*
D03*
X00011000Y00802000D02*
D03*
X00026000Y00352000D02*
D03*
X00011000Y00322000D02*
D03*
X00026000Y00292000D02*
D03*
X00011000Y00262000D02*
D03*
X00026000Y00232000D02*
D03*
X00011000Y00202000D02*
D03*
X00026000Y00172000D02*
D03*
X00011000Y00142000D02*
D03*
X00026000Y00112000D02*
D03*
X00011000Y00082000D02*
D03*
X00026000Y00052000D02*
D03*
X00011000Y00022000D02*
D03*
X00272000Y00483000D02*
D03*
X00880000Y00538000D02*
D03*
Y00612000D02*
D03*
X00701000Y00373000D02*
D03*
X00434000Y00147000D02*
D03*
X00501000Y00272000D02*
D03*
X00809000Y00826000D02*
D03*
X00796000Y00840000D02*
D03*
X00106000Y00607000D02*
D03*
X00208000Y00492000D02*
D03*
Y00462000D02*
D03*
X00127000Y00370000D02*
D03*
X00143000Y00383000D02*
D03*
X00108000Y00309000D02*
D03*
Y00330000D02*
D03*
Y00356000D02*
D03*
X00151000Y00409000D02*
D03*
X00807000Y00222000D02*
D03*
Y00252000D02*
D03*
Y00312000D02*
D03*
Y00282000D02*
D03*
X00121000Y00384000D02*
D03*
X00108000D02*
D03*
X00151000Y00321000D02*
D03*
X00175000Y00355000D02*
D03*
X00208000Y00432000D02*
D03*
X00023000Y00443000D02*
D03*
X00151000Y00362000D02*
D03*
X00330000Y00873750D02*
D03*
X00680000Y00873000D02*
D03*
X00600000Y00857000D02*
D03*
X00748000Y00841000D02*
D03*
X00381000Y00068000D02*
D03*
X00355600D02*
D03*
X00330200D02*
D03*
X00152400Y00118400D02*
D03*
Y00093000D02*
D03*
Y00068000D02*
D03*
X00177800D02*
D03*
X00203200D02*
D03*
X00228600D02*
D03*
X00780000Y00771000D02*
D03*
X00176000D02*
D03*
X00208000Y00582000D02*
D03*
X00257000Y00703000D02*
D03*
X00263000Y00695000D02*
D03*
X00251000D02*
D03*
X00263000Y00711000D02*
D03*
X00251000D02*
D03*
X00310000Y00867000D02*
D03*
X00167000Y00346000D02*
D03*
X00187000Y00369000D02*
D03*
X00406213Y00419213D02*
D03*
X00779000Y00555000D02*
D03*
Y00540300D02*
D03*
X00562000Y00163250D02*
D03*
X00434000Y00164000D02*
D03*
X00419000Y00139000D02*
D03*
X00793000Y00368000D02*
D03*
X00779000Y00525600D02*
D03*
Y00570000D02*
D03*
X00839000Y00583000D02*
D03*
X00807000D02*
D03*
X00243000Y00252000D02*
D03*
X00208000D02*
D03*
Y00192000D02*
D03*
Y00222000D02*
D03*
Y00282000D02*
D03*
Y00312000D02*
D03*
Y00342000D02*
D03*
Y00372000D02*
D03*
Y00402000D02*
D03*
Y00612000D02*
D03*
X00243000D02*
D03*
Y00582000D02*
D03*
Y00492000D02*
D03*
Y00462000D02*
D03*
Y00432000D02*
D03*
Y00192000D02*
D03*
Y00222000D02*
D03*
Y00282000D02*
D03*
Y00312000D02*
D03*
Y00402000D02*
D03*
Y00372000D02*
D03*
Y00342000D02*
D03*
X00608000Y00236000D02*
D03*
X00385000Y00398000D02*
D03*
X00371000Y00139000D02*
D03*
X00356000Y00146000D02*
D03*
X00405000Y00368000D02*
D03*
Y00338000D02*
D03*
Y00308000D02*
D03*
Y00278000D02*
D03*
Y00248000D02*
D03*
X00586213Y00419213D02*
D03*
X00556213D02*
D03*
X00526213D02*
D03*
X00496213D02*
D03*
X00466213D02*
D03*
X00436213D02*
D03*
X00385000Y00248000D02*
D03*
Y00278000D02*
D03*
Y00308000D02*
D03*
Y00338000D02*
D03*
Y00368000D02*
D03*
X00356000Y00199000D02*
D03*
X00340000Y00200000D02*
D03*
X00701000Y00296000D02*
D03*
Y00360000D02*
D03*
X00759000D02*
D03*
X00717000Y00383000D02*
D03*
X00594000Y00247000D02*
D03*
Y00298000D02*
D03*
X00897000Y00408000D02*
D03*
X00356000Y00228000D02*
D03*
X00450000Y00180000D02*
D03*
Y00192000D02*
D03*
Y00204000D02*
D03*
X00521000Y00398000D02*
D03*
X00421000Y00378000D02*
D03*
Y00368000D02*
D03*
Y00358000D02*
D03*
Y00348000D02*
D03*
Y00388000D02*
D03*
Y00398000D02*
D03*
X00431000D02*
D03*
X00441000D02*
D03*
X00451000D02*
D03*
X00461000D02*
D03*
X00471000D02*
D03*
X00481000D02*
D03*
X00491000D02*
D03*
X00501000D02*
D03*
X00511000D02*
D03*
X00531000D02*
D03*
X00541000D02*
D03*
X00551000D02*
D03*
X00561000D02*
D03*
X00571000D02*
D03*
X00581000D02*
D03*
Y00348000D02*
D03*
Y00358000D02*
D03*
Y00368000D02*
D03*
Y00378000D02*
D03*
Y00388000D02*
D03*
X00177800Y00093000D02*
D03*
X00203200D02*
D03*
X00228600D02*
D03*
X00254000D02*
D03*
X00279400D02*
D03*
X00330200D02*
D03*
X00381000D02*
D03*
X00482600D02*
D03*
X00508000D02*
D03*
X00609600D02*
D03*
X00711200D02*
D03*
X00685800D02*
D03*
X00660400D02*
D03*
X00635000D02*
D03*
X00910000Y00547000D02*
D03*
X00254000Y00068000D02*
D03*
X00395000Y00183000D02*
D03*
X00812000Y00717000D02*
D03*
X00798000D02*
D03*
X00783000D02*
D03*
X00722000Y00259000D02*
D03*
X00712000Y00269000D02*
D03*
X00704000Y00283000D02*
D03*
X00714000Y00313000D02*
D03*
X00756000Y00320000D02*
D03*
Y00336000D02*
D03*
X00529000Y00214000D02*
D03*
Y00198000D02*
D03*
X00495000Y00215000D02*
D03*
X00469000Y00214000D02*
D03*
X00440000Y00323000D02*
D03*
X00468000D02*
D03*
Y00339000D02*
D03*
X00534000D02*
D03*
X00798000Y00187000D02*
D03*
Y00159000D02*
D03*
X00839000Y00282000D02*
D03*
X00600000Y00205000D02*
D03*
X00807000Y00642000D02*
D03*
Y00612000D02*
D03*
Y00552000D02*
D03*
Y00522000D02*
D03*
Y00492000D02*
D03*
Y00462000D02*
D03*
Y00432000D02*
D03*
Y00402000D02*
D03*
Y00372000D02*
D03*
Y00342000D02*
D03*
X00839000D02*
D03*
Y00372000D02*
D03*
Y00402000D02*
D03*
Y00432000D02*
D03*
Y00462000D02*
D03*
Y00492000D02*
D03*
Y00522000D02*
D03*
Y00552000D02*
D03*
Y00612000D02*
D03*
Y00642000D02*
D03*
Y00672000D02*
D03*
D32*
X00325000Y00567700D02*
D03*
X00615000D02*
D03*
D33*
X00330000Y00833000D02*
D03*
X00310000D02*
D03*
X00290000D02*
D03*
X00660000Y00833000D02*
D03*
X00640000D02*
D03*
X00620000D02*
D03*
X00600000D02*
D03*
D34*
X00270000D02*
D03*
X00680000D02*
D03*
D35*
X00758500Y00812500D02*
D03*
X00758500Y00803000D02*
D03*
X00758500Y00793500D02*
D03*
X00785500D02*
D03*
X00785500Y00803000D02*
D03*
X00154500Y00812500D02*
D03*
Y00803000D02*
D03*
Y00793500D02*
D03*
X00181500Y00793500D02*
D03*
X00181500Y00803000D02*
D03*
D36*
X00785500Y00812500D02*
D03*
X00181500D02*
D03*
D37*
X00107950Y00343000D02*
D03*
X00120650D02*
D03*
X00133350Y00343000D02*
D03*
X00107950Y00397000D02*
D03*
X00120650D02*
D03*
X00133350D02*
D03*
X00146050D02*
D03*
X00507350Y00203000D02*
D03*
X00481950Y00149000D02*
D03*
X00494650D02*
D03*
X00507350D02*
D03*
X00520050D02*
D03*
X00494650Y00203000D02*
D03*
X00520050D02*
D03*
X00752050Y00355000D02*
D03*
X00739350Y00355000D02*
D03*
X00726650D02*
D03*
X00713950Y00355000D02*
D03*
X00739350Y00301000D02*
D03*
X00726650D02*
D03*
X00713950D02*
D03*
D38*
X00146050Y00343000D02*
D03*
X00481950Y00203000D02*
D03*
X00752050Y00301000D02*
D03*
D39*
X00548000Y00221200D02*
D03*
X00548000Y00233900D02*
D03*
X00548000Y00284700D02*
D03*
X00548000Y00272000D02*
D03*
X00548000Y00259300D02*
D03*
Y00246600D02*
D03*
Y00310100D02*
D03*
Y00297400D02*
D03*
Y00322800D02*
D03*
X00454000Y00233900D02*
D03*
Y00246600D02*
D03*
Y00259300D02*
D03*
X00454000Y00272000D02*
D03*
X00454000Y00284700D02*
D03*
Y00297400D02*
D03*
Y00310100D02*
D03*
Y00322800D02*
D03*
D40*
X00416750Y00192750D02*
D03*
D41*
X00373250D02*
D03*
Y00186250D02*
D03*
Y00179750D02*
D03*
Y00173250D02*
D03*
X00416750D02*
D03*
Y00179750D02*
D03*
Y00186250D02*
D03*
D42*
X00547000Y00370000D02*
D03*
X00455000D02*
D03*
D43*
X00454000Y00221200D02*
D03*
D44*
X00356250Y00191000D02*
Y00192750D01*
X00356000Y00199000D02*
X00356250Y00198750D01*
Y00192750D02*
Y00198750D01*
Y00191000D02*
X00358000Y00192750D01*
X00373250D01*
X00432500Y00173250D02*
X00434000Y00174750D01*
X00416750Y00173250D02*
X00432500D01*
D45*
X00387250Y00147000D02*
X00402750D01*
M02*
