G04*
G04 #@! TF.GenerationSoftware,Altium Limited,Altium Designer,22.1.2 (22)*
G04*
G04 Layer_Color=128*
%FSAX44Y44*%
%MOMM*%
G71*
G04*
G04 #@! TF.SameCoordinates,FD085C4F-33D3-4CAD-8C95-339AC6E91DDF*
G04*
G04*
G04 #@! TF.FilePolarity,Positive*
G04*
G01*
G75*
%ADD14R,0.8000X0.8000*%
%ADD15R,0.8000X0.8000*%
%ADD16R,0.6000X1.2000*%
G04:AMPARAMS|DCode=17|XSize=0.6mm|YSize=1.2mm|CornerRadius=0.15mm|HoleSize=0mm|Usage=FLASHONLY|Rotation=0.000|XOffset=0mm|YOffset=0mm|HoleType=Round|Shape=RoundedRectangle|*
%AMROUNDEDRECTD17*
21,1,0.6000,0.9000,0,0,0.0*
21,1,0.3000,1.2000,0,0,0.0*
1,1,0.3000,0.1500,-0.4500*
1,1,0.3000,-0.1500,-0.4500*
1,1,0.3000,-0.1500,0.4500*
1,1,0.3000,0.1500,0.4500*
%
%ADD17ROUNDEDRECTD17*%
%ADD18R,0.8000X1.4000*%
%ADD19R,0.9500X0.8000*%
%ADD33R,1.0000X2.7000*%
G04:AMPARAMS|DCode=34|XSize=1mm|YSize=2.7mm|CornerRadius=0.25mm|HoleSize=0mm|Usage=FLASHONLY|Rotation=180.000|XOffset=0mm|YOffset=0mm|HoleType=Round|Shape=RoundedRectangle|*
%AMROUNDEDRECTD34*
21,1,1.0000,2.2000,0,0,180.0*
21,1,0.5000,2.7000,0,0,180.0*
1,1,0.5000,-0.2500,1.1000*
1,1,0.5000,0.2500,1.1000*
1,1,0.5000,0.2500,-1.1000*
1,1,0.5000,-0.2500,-1.1000*
%
%ADD34ROUNDEDRECTD34*%
%ADD35R,1.2000X0.6000*%
G04:AMPARAMS|DCode=36|XSize=0.6mm|YSize=1.2mm|CornerRadius=0.15mm|HoleSize=0mm|Usage=FLASHONLY|Rotation=90.000|XOffset=0mm|YOffset=0mm|HoleType=Round|Shape=RoundedRectangle|*
%AMROUNDEDRECTD36*
21,1,0.6000,0.9000,0,0,90.0*
21,1,0.3000,1.2000,0,0,90.0*
1,1,0.3000,0.4500,0.1500*
1,1,0.3000,0.4500,-0.1500*
1,1,0.3000,-0.4500,-0.1500*
1,1,0.3000,-0.4500,0.1500*
%
%ADD36ROUNDEDRECTD36*%
%ADD37R,0.6000X1.5500*%
G04:AMPARAMS|DCode=38|XSize=1.55mm|YSize=0.6mm|CornerRadius=0.15mm|HoleSize=0mm|Usage=FLASHONLY|Rotation=90.000|XOffset=0mm|YOffset=0mm|HoleType=Round|Shape=RoundedRectangle|*
%AMROUNDEDRECTD38*
21,1,1.5500,0.3000,0,0,90.0*
21,1,1.2500,0.6000,0,0,90.0*
1,1,0.3000,0.1500,0.6250*
1,1,0.3000,0.1500,-0.6250*
1,1,0.3000,-0.1500,-0.6250*
1,1,0.3000,-0.1500,0.6250*
%
%ADD38ROUNDEDRECTD38*%
%ADD39R,1.9000X0.6000*%
G04:AMPARAMS|DCode=40|XSize=1.15mm|YSize=0.45mm|CornerRadius=0.1125mm|HoleSize=0mm|Usage=FLASHONLY|Rotation=180.000|XOffset=0mm|YOffset=0mm|HoleType=Round|Shape=RoundedRectangle|*
%AMROUNDEDRECTD40*
21,1,1.1500,0.2250,0,0,180.0*
21,1,0.9250,0.4500,0,0,180.0*
1,1,0.2250,-0.4625,0.1125*
1,1,0.2250,0.4625,0.1125*
1,1,0.2250,0.4625,-0.1125*
1,1,0.2250,-0.4625,-0.1125*
%
%ADD40ROUNDEDRECTD40*%
%ADD41R,1.1500X0.4500*%
%ADD42R,5.5000X2.0000*%
G04:AMPARAMS|DCode=43|XSize=1.9mm|YSize=0.6mm|CornerRadius=0.15mm|HoleSize=0mm|Usage=FLASHONLY|Rotation=0.000|XOffset=0mm|YOffset=0mm|HoleType=Round|Shape=RoundedRectangle|*
%AMROUNDEDRECTD43*
21,1,1.9000,0.3000,0,0,0.0*
21,1,1.6000,0.6000,0,0,0.0*
1,1,0.3000,0.8000,-0.1500*
1,1,0.3000,-0.8000,-0.1500*
1,1,0.3000,-0.8000,0.1500*
1,1,0.3000,0.8000,0.1500*
%
%ADD43ROUNDEDRECTD43*%
D14*
X00561000Y00493250D02*
D03*
Y00509750D02*
D03*
Y00526250D02*
D03*
X00519000D02*
D03*
Y00509750D02*
D03*
X00505000Y00526250D02*
D03*
Y00509750D02*
D03*
X00491000Y00526250D02*
D03*
Y00509750D02*
D03*
X00463000Y00526250D02*
D03*
Y00509750D02*
D03*
X00477000Y00526250D02*
D03*
Y00509750D02*
D03*
X00449000Y00526250D02*
D03*
Y00509750D02*
D03*
X00435000Y00526250D02*
D03*
Y00509750D02*
D03*
X00407000D02*
D03*
Y00526250D02*
D03*
X00393000D02*
D03*
Y00509750D02*
D03*
X00379000Y00509750D02*
D03*
Y00526250D02*
D03*
X00533000Y00526250D02*
D03*
X00533000Y00509750D02*
D03*
X00693000Y00857750D02*
D03*
Y00874250D02*
D03*
X00187000Y00377750D02*
D03*
Y00394250D02*
D03*
X00701000Y00352250D02*
D03*
Y00335750D02*
D03*
Y00303750D02*
D03*
Y00320250D02*
D03*
X00547000Y00526250D02*
D03*
Y00509750D02*
D03*
X00207792Y00711250D02*
D03*
Y00694750D02*
D03*
X00194000Y00711250D02*
D03*
Y00694750D02*
D03*
X00235000Y00512750D02*
D03*
Y00529250D02*
D03*
X00159000Y00377750D02*
D03*
X00159000Y00394250D02*
D03*
X00173000Y00377750D02*
D03*
Y00394250D02*
D03*
X00159000Y00345750D02*
D03*
Y00362250D02*
D03*
X00533000Y00164250D02*
D03*
X00469000Y00164250D02*
D03*
X00765000Y00384250D02*
D03*
X00779000Y00384250D02*
D03*
X00434000Y00191250D02*
D03*
X00339000Y00156750D02*
D03*
X00469000Y00187750D02*
D03*
Y00204250D02*
D03*
X00356000Y00173250D02*
D03*
Y00156750D02*
D03*
X00339000Y00173250D02*
D03*
X00434000Y00174750D02*
D03*
X00600000Y00236250D02*
D03*
Y00219750D02*
D03*
X00779000Y00367750D02*
D03*
X00765000D02*
D03*
X00779000Y00352250D02*
D03*
Y00335750D02*
D03*
X00765000Y00320250D02*
D03*
Y00303750D02*
D03*
Y00287250D02*
D03*
Y00335750D02*
D03*
Y00352250D02*
D03*
X00451000Y00164250D02*
D03*
Y00147750D02*
D03*
X00469000Y00147750D02*
D03*
X00551000Y00164000D02*
D03*
Y00147500D02*
D03*
X00533000Y00147750D02*
D03*
D15*
X00721250Y00544000D02*
D03*
X00704750D02*
D03*
X00721250Y00519000D02*
D03*
X00704750D02*
D03*
X00284750Y00316000D02*
D03*
X00301250D02*
D03*
X00159750Y00840000D02*
D03*
X00176250D02*
D03*
X00192250Y00826000D02*
D03*
X00175750D02*
D03*
X00143750D02*
D03*
X00160250D02*
D03*
X00176250Y00780000D02*
D03*
X00159750D02*
D03*
X00780250Y00840000D02*
D03*
X00763750D02*
D03*
X00747750Y00826000D02*
D03*
X00764250D02*
D03*
X00779750D02*
D03*
X00796250D02*
D03*
X00780250Y00780000D02*
D03*
X00763750D02*
D03*
X00105750Y00544000D02*
D03*
X00122250D02*
D03*
X00217750Y00545000D02*
D03*
X00234250D02*
D03*
X00122250Y00519000D02*
D03*
X00105750D02*
D03*
X00222750Y00712000D02*
D03*
X00239250Y00712000D02*
D03*
X00234250Y00417000D02*
D03*
X00217750D02*
D03*
Y00595000D02*
D03*
X00234250D02*
D03*
X00222750Y00694000D02*
D03*
X00239250D02*
D03*
X00169750Y00417000D02*
D03*
X00186250D02*
D03*
X00132750Y00417000D02*
D03*
X00149250D02*
D03*
X00143250Y00321000D02*
D03*
X00126750D02*
D03*
X00110250D02*
D03*
X00585250Y00298000D02*
D03*
X00568750Y00219000D02*
D03*
X00585250Y00247000D02*
D03*
X00553250Y00205000D02*
D03*
X00370750Y00205000D02*
D03*
X00419250D02*
D03*
X00402750Y00219000D02*
D03*
X00419250D02*
D03*
X00476750Y00339000D02*
D03*
X00493250Y00339000D02*
D03*
X00370750Y00147000D02*
D03*
X00387250D02*
D03*
X00356250Y00191000D02*
D03*
X00339750D02*
D03*
X00402750Y00205000D02*
D03*
Y00161000D02*
D03*
X00419250D02*
D03*
X00419250Y00147000D02*
D03*
X00402750D02*
D03*
X00387250Y00161000D02*
D03*
X00370750D02*
D03*
X00370750Y00219000D02*
D03*
X00387250D02*
D03*
Y00205000D02*
D03*
X00536750Y00205000D02*
D03*
X00568750Y00233000D02*
D03*
X00585250D02*
D03*
X00568750Y00247000D02*
D03*
X00585250Y00219000D02*
D03*
X00568750Y00298000D02*
D03*
X00525250Y00339000D02*
D03*
X00508750D02*
D03*
X00716750Y00373000D02*
D03*
X00733250D02*
D03*
X00749750D02*
D03*
X00721750Y00269000D02*
D03*
X00738250D02*
D03*
X00754750D02*
D03*
X00713750Y00283000D02*
D03*
X00730250Y00283000D02*
D03*
X00746750Y00283000D02*
D03*
D16*
X00214500Y00645500D02*
D03*
X00224000Y00645500D02*
D03*
X00233500Y00645500D02*
D03*
Y00672500D02*
D03*
X00224000Y00672500D02*
D03*
D17*
X00214500Y00672500D02*
D03*
D18*
X00215000Y00626000D02*
D03*
X00235000D02*
D03*
D19*
X00220187Y00511500D02*
D03*
X00200187Y00521000D02*
D03*
X00220187Y00530500D02*
D03*
X00569000Y00195000D02*
D03*
X00589000Y00204500D02*
D03*
X00589000Y00185500D02*
D03*
D33*
X00330000Y00833000D02*
D03*
X00310000D02*
D03*
X00290000D02*
D03*
X00660000Y00833000D02*
D03*
X00640000D02*
D03*
X00620000D02*
D03*
X00600000D02*
D03*
D34*
X00270000D02*
D03*
X00680000D02*
D03*
D35*
X00758500Y00812500D02*
D03*
X00758500Y00803000D02*
D03*
X00758500Y00793500D02*
D03*
X00785500D02*
D03*
X00785500Y00803000D02*
D03*
X00154500Y00812500D02*
D03*
Y00803000D02*
D03*
Y00793500D02*
D03*
X00181500Y00793500D02*
D03*
X00181500Y00803000D02*
D03*
D36*
X00785500Y00812500D02*
D03*
X00181500D02*
D03*
D37*
X00107950Y00343000D02*
D03*
X00120650D02*
D03*
X00133350Y00343000D02*
D03*
X00107950Y00397000D02*
D03*
X00120650D02*
D03*
X00133350D02*
D03*
X00146050D02*
D03*
X00507350Y00203000D02*
D03*
X00481950Y00149000D02*
D03*
X00494650D02*
D03*
X00507350D02*
D03*
X00520050D02*
D03*
X00494650Y00203000D02*
D03*
X00520050D02*
D03*
X00752050Y00355000D02*
D03*
X00739350Y00355000D02*
D03*
X00726650D02*
D03*
X00713950Y00355000D02*
D03*
X00739350Y00301000D02*
D03*
X00726650D02*
D03*
X00713950D02*
D03*
D38*
X00146050Y00343000D02*
D03*
X00481950Y00203000D02*
D03*
X00752050Y00301000D02*
D03*
D39*
X00548000Y00221200D02*
D03*
X00548000Y00233900D02*
D03*
X00548000Y00284700D02*
D03*
X00548000Y00272000D02*
D03*
X00548000Y00259300D02*
D03*
Y00246600D02*
D03*
Y00310100D02*
D03*
Y00297400D02*
D03*
Y00322800D02*
D03*
X00454000Y00233900D02*
D03*
Y00246600D02*
D03*
Y00259300D02*
D03*
X00454000Y00272000D02*
D03*
X00454000Y00284700D02*
D03*
Y00297400D02*
D03*
Y00310100D02*
D03*
Y00322800D02*
D03*
D40*
X00416750Y00192750D02*
D03*
D41*
X00373250D02*
D03*
Y00186250D02*
D03*
Y00179750D02*
D03*
Y00173250D02*
D03*
X00416750D02*
D03*
Y00179750D02*
D03*
Y00186250D02*
D03*
D42*
X00547000Y00370000D02*
D03*
X00455000D02*
D03*
D43*
X00454000Y00221200D02*
D03*
M02*
