G04*
G04 #@! TF.GenerationSoftware,Altium Limited,Altium Designer,22.1.2 (22)*
G04*
G04 Layer_Color=32896*
%FSAX44Y44*%
%MOMM*%
G71*
G04*
G04 #@! TF.SameCoordinates,FD085C4F-33D3-4CAD-8C95-339AC6E91DDF*
G04*
G04*
G04 #@! TF.FilePolarity,Positive*
G04*
G01*
G75*
%ADD10C,0.1530*%
%ADD11C,0.2000*%
%ADD12C,0.2540*%
D10*
X00729193Y00822026D02*
G03*
X00701193Y00850026I-00028000J00000000D01*
G01*
X00579000Y00850000D02*
G03*
X00551000Y00822000I00000000J-00028000D01*
G01*
X00389193Y00822026D02*
G03*
X00361194Y00850026I-00028000J00000000D01*
G01*
X00239000Y00850000D02*
G03*
X00211000Y00822000I00000000J-00028000D01*
G01*
X00579000Y00850000D02*
X00701193D01*
X00729000Y00537000D02*
Y00551000D01*
X00697000Y00537000D02*
X00729000D01*
X00697000D02*
Y00551000D01*
X00729000D01*
Y00512000D02*
Y00526000D01*
X00697000Y00512000D02*
X00729000D01*
X00697000D02*
Y00526000D01*
X00729000D01*
X00568000Y00485500D02*
Y00502000D01*
X00554000Y00485500D02*
Y00502000D01*
Y00485500D02*
X00568000D01*
X00554000Y00502000D02*
Y00534000D01*
Y00502000D02*
X00568000D01*
Y00534000D01*
X00554000D02*
X00568000D01*
X00512000D02*
X00526000D01*
Y00502000D02*
Y00534000D01*
X00512000Y00502000D02*
X00526000D01*
X00512000D02*
Y00534000D01*
X00498000D02*
X00512000D01*
Y00502000D02*
Y00534000D01*
X00498000Y00502000D02*
X00512000D01*
X00498000D02*
Y00534000D01*
X00484000Y00534000D02*
X00498000D01*
Y00502000D02*
Y00534000D01*
X00484000Y00502000D02*
X00498000D01*
X00484000D02*
Y00534000D01*
X00456000D02*
X00470000D01*
Y00502000D02*
Y00534000D01*
X00456000Y00502000D02*
X00470000D01*
X00456000D02*
Y00534000D01*
X00277000Y00309000D02*
Y00323000D01*
X00309000D01*
Y00309000D02*
Y00323000D01*
X00277000Y00309000D02*
X00309000D01*
X00470000Y00534000D02*
X00484000D01*
Y00502000D02*
Y00534000D01*
X00470000Y00502000D02*
X00484000D01*
X00470000D02*
Y00534000D01*
X00442000D02*
X00456000D01*
Y00502000D02*
Y00534000D01*
X00442000Y00502000D02*
X00456000D01*
X00442000D02*
Y00534000D01*
X00428000D02*
X00442000D01*
Y00502000D02*
Y00534000D01*
X00428000Y00502000D02*
X00442000D01*
X00428000D02*
Y00534000D01*
X00400000Y00502000D02*
X00414000D01*
X00400000D02*
Y00534000D01*
X00414000D01*
Y00502000D02*
Y00534000D01*
X00386000D02*
X00400000D01*
Y00502000D02*
Y00534000D01*
X00386000Y00502000D02*
X00400000D01*
X00386000D02*
Y00534000D01*
X00372000Y00502000D02*
X00386000D01*
X00372000D02*
Y00534000D01*
X00386000D01*
Y00502000D02*
Y00534000D01*
X00526000Y00534000D02*
X00540000D01*
Y00502000D02*
Y00534000D01*
X00526000Y00502000D02*
X00540000Y00502000D01*
X00526000Y00502000D02*
Y00534000D01*
X00152000Y00833000D02*
Y00847000D01*
X00184000D01*
Y00833000D02*
Y00847000D01*
X00152000Y00833000D02*
X00184000D01*
X00168000Y00819000D02*
X00200000D01*
X00168000D02*
Y00833000D01*
X00200000Y00819000D02*
Y00833000D01*
X00168000D02*
X00200000D01*
X00136000Y00819000D02*
Y00833000D01*
X00168000D01*
Y00819000D02*
Y00833000D01*
X00136000Y00819000D02*
X00168000D01*
X00152000Y00773000D02*
X00184000D01*
Y00787000D01*
X00152000D02*
X00184000D01*
X00152000Y00773000D02*
Y00787000D01*
X00348000Y00544000D02*
X00593000D01*
X00300000Y00588000D02*
Y00653000D01*
X00640000Y00588000D02*
Y00653000D01*
X00300000Y00653000D02*
X00640000Y00653000D01*
X00686000Y00850000D02*
Y00882000D01*
Y00850000D02*
X00700000D01*
Y00882000D01*
X00686000D02*
X00700000D01*
X00214000Y00792000D02*
X00386000D01*
X00239000Y00850000D02*
X00361194D01*
X00554000Y00792000D02*
X00726000D01*
X00788000Y00833000D02*
Y00847000D01*
X00756000Y00833000D02*
X00788000D01*
X00756000D02*
Y00847000D01*
X00788000D01*
X00740000Y00833000D02*
X00772000D01*
Y00819000D02*
Y00833000D01*
X00740000Y00819000D02*
Y00833000D01*
Y00819000D02*
X00772000D01*
Y00833000D02*
X00804000D01*
X00772000Y00819000D02*
Y00833000D01*
Y00819000D02*
X00804000D01*
Y00833000D01*
X00749000Y00787000D02*
Y00819000D01*
X00795000D01*
X00749000Y00787000D02*
X00795000D01*
Y00819000D01*
X00756000Y00773000D02*
X00788000D01*
Y00787000D01*
X00756000D02*
X00788000D01*
X00756000Y00773000D02*
Y00787000D01*
X00098000Y00537000D02*
Y00551000D01*
X00130000D01*
Y00537000D02*
Y00551000D01*
X00098000Y00537000D02*
X00130000D01*
X00210000Y00552000D02*
X00242000D01*
X00210000D02*
X00210000Y00538000D01*
X00242000D01*
X00242000Y00552000D01*
X00098000Y00512000D02*
X00130000D01*
Y00526000D01*
X00098000D02*
X00130000D01*
X00098000Y00512000D02*
Y00526000D01*
X00145000Y00787000D02*
Y00819000D01*
X00191000D01*
X00145000Y00787000D02*
X00191000D01*
Y00819000D01*
X00215000Y00719000D02*
X00215000Y00705000D01*
X00215000Y00719000D02*
X00247000D01*
Y00705000D02*
Y00719000D01*
X00215000Y00705000D02*
X00247000Y00705000D01*
X00180000Y00370000D02*
X00194000Y00370000D01*
X00180000Y00402000D02*
X00180000Y00370000D01*
X00180000Y00402000D02*
X00194000Y00402000D01*
Y00370000D02*
Y00402000D01*
X00210000Y00410000D02*
X00242000D01*
Y00424000D01*
X00210000D02*
X00242000D01*
X00210000Y00410000D02*
Y00424000D01*
X00708000Y00328000D02*
Y00360000D01*
X00694000D02*
X00708000D01*
X00694000Y00328000D02*
Y00360000D01*
Y00328000D02*
X00708000D01*
X00694000Y00296000D02*
Y00328000D01*
Y00296000D02*
X00708000D01*
Y00328000D01*
X00694000D02*
X00708000D01*
X00210000Y00588000D02*
X00242000D01*
Y00602000D01*
X00210000D02*
X00242000D01*
X00210000Y00588000D02*
Y00602000D01*
X00554000Y00502000D02*
Y00534000D01*
X00540000D02*
X00554000D01*
X00540000Y00502000D02*
Y00534000D01*
Y00502000D02*
X00554000D01*
X00200792Y00719000D02*
X00214792D01*
Y00687000D02*
Y00719000D01*
X00200792Y00687000D02*
X00214792D01*
X00200792D02*
Y00719000D01*
X00208000Y00636000D02*
X00240000D01*
X00208000D02*
Y00682000D01*
X00240000Y00636000D02*
Y00682000D01*
X00208000D02*
X00240000D01*
X00215000Y00701000D02*
X00247000D01*
Y00687000D02*
Y00701000D01*
X00215000D02*
X00215000Y00687000D01*
X00247000Y00687000D01*
X00187000Y00719000D02*
X00201000Y00719000D01*
Y00687000D02*
Y00719000D01*
X00187000Y00687000D02*
X00201000Y00687000D01*
X00187000Y00687000D02*
Y00719000D01*
X00228000Y00505000D02*
X00242000Y00505000D01*
X00228000Y00505000D02*
X00228000Y00537000D01*
X00242000Y00537000D01*
Y00505000D02*
Y00537000D01*
X00152000Y00370000D02*
X00166000Y00370000D01*
X00152000Y00370000D02*
X00152000Y00402000D01*
X00166000Y00402000D01*
Y00370000D02*
Y00402000D01*
X00166000Y00370000D02*
X00180000D01*
X00166000D02*
X00166000Y00402000D01*
X00180000Y00402000D01*
Y00370000D02*
Y00402000D01*
X00201187Y00507000D02*
X00201187Y00514000D01*
X00201187Y00507000D02*
X00207187Y00507000D01*
X00201187Y00528000D02*
Y00535500D01*
X00207187Y00535500D01*
X00162000Y00424000D02*
X00194000D01*
X00194000Y00410000D01*
X00162000Y00424000D02*
X00162000Y00410000D01*
X00194000D01*
X00125000Y00424000D02*
X00157000D01*
X00125000Y00410000D02*
Y00424000D01*
Y00410000D02*
X00157000Y00410000D01*
X00157000Y00424000D02*
X00157000Y00410000D01*
X00152000Y00370000D02*
X00152000Y00338000D01*
X00166000Y00338000D01*
Y00370000D01*
X00152000Y00370000D02*
X00166000Y00370000D01*
X00151000Y00328000D02*
X00151000Y00314000D01*
X00119000D02*
X00151000D01*
X00119000D02*
X00119000Y00328000D01*
X00151000Y00328000D01*
X00102500D02*
X00102500Y00314000D01*
X00102500Y00328000D02*
X00119000Y00328000D01*
X00102500Y00314000D02*
X00119000Y00314000D01*
X00242000Y00616000D02*
Y00636000D01*
X00208000D02*
X00242000D01*
X00208000Y00616000D02*
Y00636000D01*
Y00616000D02*
X00242000D01*
X00152000Y00354000D02*
X00152000Y00386000D01*
X00102000Y00354000D02*
Y00386000D01*
Y00354000D02*
X00152000D01*
X00102000Y00386000D02*
X00152000Y00386000D01*
X00426000Y00168000D02*
Y00198000D01*
X00364000D02*
X00426000D01*
X00364000Y00168000D02*
Y00198000D01*
Y00168000D02*
X00426000D01*
X00476000Y00160000D02*
X00526000D01*
X00476000Y00192000D02*
X00526000D01*
Y00160000D02*
Y00192000D01*
X00476000Y00160000D02*
Y00192000D01*
X00462000Y00180000D02*
Y00212000D01*
Y00180000D02*
X00476000Y00180000D01*
Y00212000D01*
X00462000Y00212000D02*
X00476000Y00212000D01*
X00395000Y00212000D02*
Y00226000D01*
X00427000D01*
Y00212000D02*
Y00226000D01*
X00395000Y00212000D02*
X00427000D01*
X00469000Y00332000D02*
X00469000Y00346000D01*
X00501000D01*
Y00332000D02*
Y00346000D01*
X00469000Y00332000D02*
X00501000Y00332000D01*
X00424000Y00346000D02*
X00578000D01*
X00424000D02*
Y00394000D01*
X00578000Y00394000D01*
X00578000Y00346000D02*
X00578000Y00394000D01*
X00561000Y00212000D02*
Y00332000D01*
X00363000Y00140000D02*
Y00154000D01*
X00395000D01*
Y00140000D02*
Y00154000D01*
X00363000Y00140000D02*
X00395000D01*
X00332000Y00184000D02*
X00364000D01*
Y00198000D01*
X00332000D02*
X00364000D01*
X00332000Y00184000D02*
Y00198000D01*
X00395000Y00198000D02*
X00427000D01*
X00427000Y00212000D02*
X00427000Y00198000D01*
X00395000Y00212000D02*
X00427000D01*
X00395000Y00198000D02*
X00395000Y00212000D01*
X00395000Y00168000D02*
X00427000D01*
X00395000D02*
X00395000Y00154000D01*
X00427000D01*
X00427000Y00168000D01*
X00427000Y00140000D02*
Y00154000D01*
X00395000Y00140000D02*
X00427000D01*
X00395000D02*
Y00154000D01*
X00427000D01*
X00363000Y00154000D02*
X00395000D01*
X00395000Y00168000D02*
X00395000Y00154000D01*
X00363000Y00168000D02*
X00395000D01*
X00363000Y00154000D02*
X00363000Y00168000D01*
X00363000Y00149000D02*
Y00181000D01*
X00349000Y00181000D02*
X00363000Y00181000D01*
X00349000Y00149000D02*
Y00181000D01*
Y00149000D02*
X00363000Y00149000D01*
X00332000Y00149000D02*
Y00181000D01*
Y00149000D02*
X00346000Y00149000D01*
X00346000Y00181000D02*
X00346000Y00149000D01*
X00332000Y00181000D02*
X00346000D01*
X00441000Y00167000D02*
Y00199000D01*
X00427000D02*
X00441000D01*
X00427000Y00167000D02*
Y00199000D01*
Y00167000D02*
X00441000D01*
X00363000Y00226000D02*
X00395000D01*
X00363000Y00212000D02*
X00363000Y00226000D01*
X00363000Y00212000D02*
X00395000Y00212000D01*
Y00226000D01*
X00363000Y00212000D02*
X00395000D01*
X00363000D02*
X00363000Y00198000D01*
X00395000D01*
X00395000Y00212000D01*
X00441000Y00332000D02*
X00561000D01*
X00441000Y00212000D02*
Y00332000D01*
X00570000Y00209500D02*
X00576000D01*
X00570000Y00202000D02*
Y00209500D01*
Y00181000D02*
X00576000D01*
X00570000Y00188000D02*
X00570000Y00181000D01*
X00529000Y00198000D02*
Y00212000D01*
X00561000D01*
Y00198000D02*
Y00212000D01*
X00529000Y00198000D02*
X00561000Y00198000D01*
X00561000Y00226000D02*
X00561000Y00240000D01*
X00593000D01*
X00593000Y00226000D02*
X00593000Y00240000D01*
X00561000Y00226000D02*
X00593000Y00226000D01*
X00561000Y00240000D02*
X00593000D01*
Y00254000D01*
X00561000D02*
X00593000D01*
X00561000Y00240000D02*
Y00254000D01*
X00593000Y00244000D02*
X00607000Y00244000D01*
X00607000Y00212000D02*
X00607000Y00244000D01*
X00593000Y00212000D02*
X00607000Y00212000D01*
X00593000Y00212000D02*
Y00244000D01*
Y00212000D02*
Y00226000D01*
X00561000Y00212000D02*
X00593000D01*
X00561000D02*
Y00226000D01*
X00593000D01*
X00561000Y00291000D02*
Y00305000D01*
X00593000D01*
X00593000Y00291000D01*
X00561000D02*
X00593000D01*
X00533000Y00332000D02*
Y00346000D01*
X00501000Y00332000D02*
X00533000D01*
X00501000D02*
X00501000Y00346000D01*
X00533000D01*
X00708000Y00344000D02*
X00758000D01*
X00708000Y00312000D02*
X00758000D01*
X00708000D02*
Y00344000D01*
X00758000Y00312000D02*
Y00344000D01*
X00772000Y00360000D02*
X00786000D01*
X00772000D02*
Y00392000D01*
X00786000Y00392000D01*
Y00360000D02*
Y00392000D01*
X00758000Y00360000D02*
Y00392000D01*
X00772000Y00392000D01*
X00758000Y00360000D02*
X00772000Y00360000D01*
X00772000Y00392000D01*
X00709000Y00366000D02*
X00709000Y00380000D01*
X00741000D01*
X00741000Y00366000D02*
X00741000Y00380000D01*
X00709000Y00366000D02*
X00741000Y00366000D01*
X00757500Y00380000D02*
X00757500Y00366000D01*
X00741000D02*
X00757500D01*
X00741000Y00380000D02*
X00757500D01*
X00786000Y00328000D02*
Y00360000D01*
X00772000D02*
X00786000D01*
X00772000Y00328000D02*
Y00360000D01*
Y00328000D02*
X00786000D01*
X00758000Y00328000D02*
X00772000Y00328000D01*
Y00296000D02*
Y00328000D01*
X00758000Y00296000D02*
X00772000Y00296000D01*
X00758000Y00296000D02*
Y00328000D01*
Y00279500D02*
X00772000D01*
X00758000D02*
Y00296000D01*
X00772000Y00279500D02*
X00772000Y00296000D01*
X00714000Y00262000D02*
Y00276000D01*
X00746000D01*
Y00262000D02*
Y00276000D01*
X00714000Y00262000D02*
X00746000D01*
X00762500D02*
Y00276000D01*
X00746000Y00262000D02*
X00762500D01*
X00746000Y00276000D02*
X00762500D01*
X00706000Y00276000D02*
Y00290000D01*
X00738000Y00290000D01*
X00738000Y00276000D01*
X00706000D02*
X00738000D01*
X00754500D02*
X00754500Y00290000D01*
X00738000Y00276000D02*
X00754500D01*
X00738000Y00290000D02*
X00754500Y00290000D01*
X00758000Y00328000D02*
X00772000D01*
X00758000D02*
Y00360000D01*
X00772000D01*
Y00328000D02*
Y00360000D01*
X00444000Y00172000D02*
X00458000D01*
Y00140000D02*
Y00172000D01*
X00444000Y00140000D02*
X00458000D01*
X00444000D02*
Y00172000D01*
X00462000Y00140000D02*
X00476000D01*
X00462000D02*
X00462000Y00172000D01*
X00476000Y00172000D01*
X00476000Y00140000D02*
X00476000Y00172000D01*
X00544000Y00171750D02*
X00558000D01*
Y00139750D02*
Y00171750D01*
X00544000Y00139750D02*
X00558000Y00139750D01*
X00544000Y00139750D02*
Y00171750D01*
X00526000Y00140000D02*
X00540000Y00140000D01*
X00526000Y00172000D02*
X00526000Y00140000D01*
X00526000Y00172000D02*
X00540000Y00172000D01*
Y00140000D02*
Y00172000D01*
D11*
X00672000Y00854000D02*
Y00857332D01*
Y00855666D01*
X00678664D01*
Y00854000D01*
X00672000Y00862331D02*
X00678664D01*
Y00867329D01*
X00676998Y00868995D01*
X00672000D01*
X00680331Y00873994D02*
X00678664D01*
Y00872327D01*
Y00875660D01*
Y00873994D01*
X00673666D01*
X00672000Y00875660D01*
X00655000Y00854000D02*
Y00858998D01*
X00656666Y00860664D01*
X00658332Y00858998D01*
Y00855666D01*
X00659998Y00854000D01*
X00661664Y00855666D01*
Y00860664D01*
Y00870661D02*
Y00865663D01*
X00659998Y00863997D01*
X00656666D01*
X00655000Y00865663D01*
Y00870661D01*
Y00873993D02*
Y00877326D01*
Y00875659D01*
X00664997D01*
Y00873993D01*
X00637000Y00854000D02*
Y00858998D01*
X00638666Y00860664D01*
X00640332Y00858998D01*
Y00855666D01*
X00641998Y00854000D01*
X00643664Y00855666D01*
Y00860664D01*
X00646997Y00870661D02*
X00637000D01*
Y00865663D01*
X00638666Y00863997D01*
X00641998D01*
X00643664Y00865663D01*
Y00870661D01*
Y00875660D02*
Y00878992D01*
X00641998Y00880658D01*
X00637000D01*
Y00875660D01*
X00638666Y00873994D01*
X00640332Y00875660D01*
Y00880658D01*
X00614000Y00857332D02*
Y00858998D01*
X00615666Y00860665D01*
X00623997D01*
Y00855666D01*
X00622331Y00854000D01*
X00618998D01*
X00617332Y00855666D01*
Y00860665D01*
Y00863997D02*
X00623997D01*
Y00868995D01*
X00622331Y00870661D01*
X00617332D01*
X00627329Y00880658D02*
X00617332D01*
Y00875660D01*
X00618998Y00873994D01*
X00622331D01*
X00623997Y00875660D01*
Y00880658D01*
X00603665Y00854000D02*
X00597000Y00857332D01*
X00603665Y00860665D01*
Y00870661D02*
Y00865663D01*
X00601998Y00863997D01*
X00598666D01*
X00597000Y00865663D01*
Y00870661D01*
X00603665Y00880658D02*
Y00875660D01*
X00601998Y00873994D01*
X00598666D01*
X00597000Y00875660D01*
Y00880658D01*
X00322493Y00328002D02*
Y00337998D01*
X00317494D01*
X00315828Y00336332D01*
Y00333000D01*
X00317494Y00331334D01*
X00322493D01*
X00319160D02*
X00315828Y00328002D01*
X00312496D02*
X00309164D01*
X00310830D01*
Y00337998D01*
X00312496Y00336332D01*
X00304165D02*
X00302499Y00337998D01*
X00299167D01*
X00297501Y00336332D01*
Y00329668D01*
X00299167Y00328002D01*
X00302499D01*
X00304165Y00329668D01*
Y00336332D01*
X00294169D02*
X00292502Y00337998D01*
X00289170D01*
X00287504Y00336332D01*
Y00329668D01*
X00289170Y00328002D01*
X00292502D01*
X00294169Y00329668D01*
Y00336332D01*
X00284172D02*
X00282506Y00337998D01*
X00279173D01*
X00277507Y00336332D01*
Y00334666D01*
X00279173Y00333000D01*
X00277507Y00331334D01*
Y00329668D01*
X00279173Y00328002D01*
X00282506D01*
X00284172Y00329668D01*
Y00331334D01*
X00282506Y00333000D01*
X00284172Y00334666D01*
Y00336332D01*
X00282506Y00333000D02*
X00279173D01*
X00565998Y00481494D02*
X00556002D01*
Y00476496D01*
X00557668Y00474830D01*
X00561000D01*
X00562666Y00476496D01*
Y00481494D01*
Y00478162D02*
X00565998Y00474830D01*
X00556002Y00471498D02*
Y00464833D01*
X00557668D01*
X00564332Y00471498D01*
X00565998D01*
Y00461501D02*
Y00458169D01*
Y00459835D01*
X00556002D01*
X00557668Y00461501D01*
X00564332Y00453170D02*
X00565998Y00451504D01*
Y00448172D01*
X00564332Y00446506D01*
X00557668D01*
X00556002Y00448172D01*
Y00451504D01*
X00557668Y00453170D01*
X00559334D01*
X00561000Y00451504D01*
Y00446506D01*
X00437998Y00494997D02*
X00428002D01*
Y00489999D01*
X00429668Y00488333D01*
X00433000D01*
X00434666Y00489999D01*
Y00494997D01*
Y00491665D02*
X00437998Y00488333D01*
X00428002Y00485001D02*
Y00478336D01*
X00429668D01*
X00436332Y00485001D01*
X00437998D01*
Y00475004D02*
Y00471672D01*
Y00473338D01*
X00428002D01*
X00429668Y00475004D01*
Y00466673D02*
X00428002Y00465007D01*
Y00461675D01*
X00429668Y00460009D01*
X00431334D01*
X00433000Y00461675D01*
X00434666Y00460009D01*
X00436332D01*
X00437998Y00461675D01*
Y00465007D01*
X00436332Y00466673D01*
X00434666D01*
X00433000Y00465007D01*
X00431334Y00466673D01*
X00429668D01*
X00433000Y00465007D02*
Y00461675D01*
X00451998Y00494997D02*
X00442002D01*
Y00489999D01*
X00443668Y00488333D01*
X00447000D01*
X00448666Y00489999D01*
Y00494997D01*
Y00491665D02*
X00451998Y00488333D01*
X00442002Y00485001D02*
Y00478336D01*
X00443668D01*
X00450332Y00485001D01*
X00451998D01*
Y00475004D02*
Y00471672D01*
Y00473338D01*
X00442002D01*
X00443668Y00475004D01*
X00442002Y00466673D02*
Y00460009D01*
X00443668D01*
X00450332Y00466673D01*
X00451998D01*
X00465998Y00494997D02*
X00456002D01*
Y00489999D01*
X00457668Y00488333D01*
X00461000D01*
X00462666Y00489999D01*
Y00494997D01*
Y00491665D02*
X00465998Y00488333D01*
X00456002Y00485001D02*
Y00478336D01*
X00457668D01*
X00464332Y00485001D01*
X00465998D01*
Y00475004D02*
Y00471672D01*
Y00473338D01*
X00456002D01*
X00457668Y00475004D01*
X00456002Y00460009D02*
X00457668Y00463341D01*
X00461000Y00466673D01*
X00464332D01*
X00465998Y00465007D01*
Y00461675D01*
X00464332Y00460009D01*
X00462666D01*
X00461000Y00461675D01*
Y00466673D01*
X00479998Y00494997D02*
X00470001D01*
Y00489999D01*
X00471668Y00488333D01*
X00475000D01*
X00476666Y00489999D01*
Y00494997D01*
Y00491665D02*
X00479998Y00488333D01*
X00470001Y00485001D02*
Y00478336D01*
X00471668D01*
X00478332Y00485001D01*
X00479998D01*
Y00475004D02*
Y00471672D01*
Y00473338D01*
X00470001D01*
X00471668Y00475004D01*
X00470001Y00460009D02*
Y00466673D01*
X00475000D01*
X00473334Y00463341D01*
Y00461675D01*
X00475000Y00460009D01*
X00478332D01*
X00479998Y00461675D01*
Y00465007D01*
X00478332Y00466673D01*
X00493998Y00494997D02*
X00484002D01*
Y00489999D01*
X00485668Y00488333D01*
X00489000D01*
X00490666Y00489999D01*
Y00494997D01*
Y00491665D02*
X00493998Y00488333D01*
X00484002Y00485001D02*
Y00478336D01*
X00485668D01*
X00492332Y00485001D01*
X00493998D01*
Y00475004D02*
Y00471672D01*
Y00473338D01*
X00484002D01*
X00485668Y00475004D01*
X00493998Y00461675D02*
X00484002D01*
X00489000Y00466673D01*
Y00460009D01*
X00411998Y00494997D02*
X00402002D01*
Y00489999D01*
X00403668Y00488333D01*
X00407000D01*
X00408666Y00489999D01*
Y00494997D01*
Y00491665D02*
X00411998Y00488333D01*
X00402002Y00485001D02*
Y00478336D01*
X00403668D01*
X00410332Y00485001D01*
X00411998D01*
Y00475004D02*
Y00471672D01*
Y00473338D01*
X00402002D01*
X00403668Y00475004D01*
Y00466673D02*
X00402002Y00465007D01*
Y00461675D01*
X00403668Y00460009D01*
X00405334D01*
X00407000Y00461675D01*
Y00463341D01*
Y00461675D01*
X00408666Y00460009D01*
X00410332D01*
X00411998Y00461675D01*
Y00465007D01*
X00410332Y00466673D01*
X00507998Y00494997D02*
X00498002D01*
Y00489999D01*
X00499668Y00488333D01*
X00503000D01*
X00504666Y00489999D01*
Y00494997D01*
Y00491665D02*
X00507998Y00488333D01*
X00498002Y00485001D02*
Y00478336D01*
X00499668D01*
X00506332Y00485001D01*
X00507998D01*
Y00475004D02*
Y00471672D01*
Y00473338D01*
X00498002D01*
X00499668Y00475004D01*
X00507998Y00460009D02*
Y00466673D01*
X00501334Y00460009D01*
X00499668D01*
X00498002Y00461675D01*
Y00465007D01*
X00499668Y00466673D01*
X00383998Y00494997D02*
X00374002D01*
Y00489999D01*
X00375668Y00488333D01*
X00379000D01*
X00380666Y00489999D01*
Y00494997D01*
Y00491665D02*
X00383998Y00488333D01*
X00374002Y00485001D02*
Y00478336D01*
X00375668D01*
X00382332Y00485001D01*
X00383998D01*
Y00475004D02*
Y00471672D01*
Y00473338D01*
X00374002D01*
X00375668Y00475004D01*
X00383998Y00466673D02*
Y00463341D01*
Y00465007D01*
X00374002D01*
X00375668Y00466673D01*
X00521998Y00494997D02*
X00512002D01*
Y00489999D01*
X00513668Y00488333D01*
X00517000D01*
X00518666Y00489999D01*
Y00494997D01*
Y00491665D02*
X00521998Y00488333D01*
X00512002Y00485001D02*
Y00478336D01*
X00513668D01*
X00520332Y00485001D01*
X00521998D01*
Y00475004D02*
Y00471672D01*
Y00473338D01*
X00512002D01*
X00513668Y00475004D01*
Y00466673D02*
X00512002Y00465007D01*
Y00461675D01*
X00513668Y00460009D01*
X00520332D01*
X00521998Y00461675D01*
Y00465007D01*
X00520332Y00466673D01*
X00513668D01*
X00397998Y00494997D02*
X00388002D01*
Y00489999D01*
X00389668Y00488333D01*
X00393000D01*
X00394666Y00489999D01*
Y00494997D01*
Y00491665D02*
X00397998Y00488333D01*
X00388002Y00485001D02*
Y00478336D01*
X00389668D01*
X00396332Y00485001D01*
X00397998D01*
X00389668Y00475004D02*
X00388002Y00473338D01*
Y00470005D01*
X00389668Y00468339D01*
X00396332D01*
X00397998Y00470005D01*
Y00473338D01*
X00396332Y00475004D01*
X00389668D01*
X00397998Y00458343D02*
Y00465007D01*
X00391334Y00458343D01*
X00389668D01*
X00388002Y00460009D01*
Y00463341D01*
X00389668Y00465007D01*
X00773327Y00514002D02*
Y00523998D01*
X00768329D01*
X00766663Y00522332D01*
Y00519000D01*
X00768329Y00517334D01*
X00773327D01*
X00769995D02*
X00766663Y00514002D01*
X00763331Y00522332D02*
X00761665Y00523998D01*
X00758332D01*
X00756666Y00522332D01*
Y00520666D01*
X00758332Y00519000D01*
X00759998D01*
X00758332D01*
X00756666Y00517334D01*
Y00515668D01*
X00758332Y00514002D01*
X00761665D01*
X00763331Y00515668D01*
X00753334Y00522332D02*
X00751668Y00523998D01*
X00748335D01*
X00746669Y00522332D01*
Y00515668D01*
X00748335Y00514002D01*
X00751668D01*
X00753334Y00515668D01*
Y00522332D01*
X00736673Y00514002D02*
X00743337D01*
X00736673Y00520666D01*
Y00522332D01*
X00738339Y00523998D01*
X00741671D01*
X00743337Y00522332D01*
X00769661Y00538002D02*
Y00547998D01*
X00764663D01*
X00762997Y00546332D01*
Y00543000D01*
X00764663Y00541334D01*
X00769661D01*
X00766329D02*
X00762997Y00538002D01*
X00759665Y00546332D02*
X00757998Y00547998D01*
X00754666D01*
X00753000Y00546332D01*
Y00544666D01*
X00754666Y00543000D01*
X00756332D01*
X00754666D01*
X00753000Y00541334D01*
Y00539668D01*
X00754666Y00538002D01*
X00757998D01*
X00759665Y00539668D01*
X00749668Y00546332D02*
X00748002Y00547998D01*
X00744669D01*
X00743003Y00546332D01*
Y00539668D01*
X00744669Y00538002D01*
X00748002D01*
X00749668Y00539668D01*
Y00546332D01*
X00739671Y00538002D02*
X00736339D01*
X00738005D01*
Y00547998D01*
X00739671Y00546332D01*
X00190661Y00316998D02*
Y00308668D01*
X00188995Y00307002D01*
X00185663D01*
X00183997Y00308668D01*
Y00316998D01*
X00180665Y00308668D02*
X00178998Y00307002D01*
X00175666D01*
X00174000Y00308668D01*
Y00315332D01*
X00175666Y00316998D01*
X00178998D01*
X00180665Y00315332D01*
Y00313666D01*
X00178998Y00312000D01*
X00174000D01*
X00170668Y00315332D02*
X00169002Y00316998D01*
X00165669D01*
X00164003Y00315332D01*
Y00308668D01*
X00165669Y00307002D01*
X00169002D01*
X00170668Y00308668D01*
Y00315332D01*
X00160671Y00307002D02*
X00157339D01*
X00159005D01*
Y00316998D01*
X00160671Y00315332D01*
X00184998Y00551823D02*
X00175002D01*
Y00546825D01*
X00176668Y00545159D01*
X00180000D01*
X00181666Y00546825D01*
Y00551823D01*
Y00548491D02*
X00184998Y00545159D01*
X00175002Y00535162D02*
Y00541827D01*
X00184998D01*
Y00535162D01*
X00180000Y00541827D02*
Y00538494D01*
X00175002Y00525165D02*
Y00531830D01*
X00180000D01*
Y00528498D01*
Y00531830D01*
X00184998D01*
Y00521833D02*
Y00518501D01*
Y00520167D01*
X00175002D01*
X00176668Y00521833D01*
Y00513502D02*
X00175002Y00511836D01*
Y00508504D01*
X00176668Y00506838D01*
X00183332D01*
X00184998Y00508504D01*
Y00511836D01*
X00183332Y00513502D01*
X00176668D01*
Y00503506D02*
X00175002Y00501839D01*
Y00498507D01*
X00176668Y00496841D01*
X00183332D01*
X00184998Y00498507D01*
Y00501839D01*
X00183332Y00503506D01*
X00176668D01*
X00184998Y00493509D02*
Y00490177D01*
Y00491843D01*
X00175002D01*
X00176668Y00493509D01*
X00175993Y00717002D02*
Y00726998D01*
X00170995D01*
X00169329Y00725332D01*
Y00722000D01*
X00170995Y00720334D01*
X00175993D01*
X00172661D02*
X00169329Y00717002D01*
X00165997D02*
X00162665D01*
X00164331D01*
Y00726998D01*
X00165997Y00725332D01*
X00157666Y00717002D02*
X00154334D01*
X00156000D01*
Y00726998D01*
X00157666Y00725332D01*
X00149335D02*
X00147669Y00726998D01*
X00144337D01*
X00142671Y00725332D01*
Y00718668D01*
X00144337Y00717002D01*
X00147669D01*
X00149335Y00718668D01*
Y00725332D01*
X00139339Y00717002D02*
X00136006D01*
X00137673D01*
Y00726998D01*
X00139339Y00725332D01*
X00241493Y00556002D02*
Y00565998D01*
X00236494D01*
X00234828Y00564332D01*
Y00561000D01*
X00236494Y00559334D01*
X00241493D01*
X00238160D02*
X00234828Y00556002D01*
X00231496D02*
X00228164D01*
X00229830D01*
Y00565998D01*
X00231496Y00564332D01*
X00223165D02*
X00221499Y00565998D01*
X00218167D01*
X00216501Y00564332D01*
Y00557668D01*
X00218167Y00556002D01*
X00221499D01*
X00223165Y00557668D01*
Y00564332D01*
X00213169D02*
X00211502Y00565998D01*
X00208170D01*
X00206504Y00564332D01*
Y00557668D01*
X00208170Y00556002D01*
X00211502D01*
X00213169Y00557668D01*
Y00564332D01*
X00196507Y00565998D02*
X00203172D01*
Y00561000D01*
X00199839Y00562666D01*
X00198173D01*
X00196507Y00561000D01*
Y00557668D01*
X00198173Y00556002D01*
X00201506D01*
X00203172Y00557668D01*
X00247493Y00437002D02*
Y00446998D01*
X00242494D01*
X00240828Y00445332D01*
Y00442000D01*
X00242494Y00440334D01*
X00247493D01*
X00244160D02*
X00240828Y00437002D01*
X00237496D02*
X00234164D01*
X00235830D01*
Y00446998D01*
X00237496Y00445332D01*
X00229165D02*
X00227499Y00446998D01*
X00224167D01*
X00222501Y00445332D01*
Y00438668D01*
X00224167Y00437002D01*
X00227499D01*
X00229165Y00438668D01*
Y00445332D01*
X00219168D02*
X00217502Y00446998D01*
X00214170D01*
X00212504Y00445332D01*
Y00438668D01*
X00214170Y00437002D01*
X00217502D01*
X00219168Y00438668D01*
Y00445332D01*
X00204173Y00437002D02*
Y00446998D01*
X00209172Y00442000D01*
X00202507D01*
X00143493Y00498002D02*
Y00507998D01*
X00138494D01*
X00136828Y00506332D01*
Y00503000D01*
X00138494Y00501334D01*
X00143493D01*
X00140161D02*
X00136828Y00498002D01*
X00133496D02*
X00130164D01*
X00131830D01*
Y00507998D01*
X00133496Y00506332D01*
X00125165D02*
X00123499Y00507998D01*
X00120167D01*
X00118501Y00506332D01*
Y00499668D01*
X00120167Y00498002D01*
X00123499D01*
X00125165Y00499668D01*
Y00506332D01*
X00115169D02*
X00113502Y00507998D01*
X00110170D01*
X00108504Y00506332D01*
Y00499668D01*
X00110170Y00498002D01*
X00113502D01*
X00115169Y00499668D01*
Y00506332D01*
X00105172D02*
X00103506Y00507998D01*
X00100173D01*
X00098507Y00506332D01*
Y00504666D01*
X00100173Y00503000D01*
X00101840D01*
X00100173D01*
X00098507Y00501334D01*
Y00499668D01*
X00100173Y00498002D01*
X00103506D01*
X00105172Y00499668D01*
X00143493Y00555002D02*
Y00564998D01*
X00138494D01*
X00136828Y00563332D01*
Y00560000D01*
X00138494Y00558334D01*
X00143493D01*
X00140161D02*
X00136828Y00555002D01*
X00133496D02*
X00130164D01*
X00131830D01*
Y00564998D01*
X00133496Y00563332D01*
X00125165D02*
X00123499Y00564998D01*
X00120167D01*
X00118501Y00563332D01*
Y00556668D01*
X00120167Y00555002D01*
X00123499D01*
X00125165Y00556668D01*
Y00563332D01*
X00115169D02*
X00113502Y00564998D01*
X00110170D01*
X00108504Y00563332D01*
Y00556668D01*
X00110170Y00555002D01*
X00113502D01*
X00115169Y00556668D01*
Y00563332D01*
X00098507Y00555002D02*
X00105172D01*
X00098507Y00561666D01*
Y00563332D01*
X00100173Y00564998D01*
X00103506D01*
X00105172Y00563332D01*
X00205827Y00590002D02*
Y00599998D01*
X00200828D01*
X00199162Y00598332D01*
Y00595000D01*
X00200828Y00593334D01*
X00205827D01*
X00202494D02*
X00199162Y00590002D01*
X00195830D02*
X00192498D01*
X00194164D01*
Y00599998D01*
X00195830Y00598332D01*
X00187499D02*
X00185833Y00599998D01*
X00182501D01*
X00180835Y00598332D01*
Y00591668D01*
X00182501Y00590002D01*
X00185833D01*
X00187499Y00591668D01*
Y00598332D01*
X00177502D02*
X00175836Y00599998D01*
X00172504D01*
X00170838Y00598332D01*
Y00591668D01*
X00172504Y00590002D01*
X00175836D01*
X00177502Y00591668D01*
Y00598332D01*
X00167506Y00590002D02*
X00164173D01*
X00165840D01*
Y00599998D01*
X00167506Y00598332D01*
X00155327Y00428002D02*
Y00437998D01*
X00150329D01*
X00148663Y00436332D01*
Y00433000D01*
X00150329Y00431334D01*
X00155327D01*
X00151995D02*
X00148663Y00428002D01*
X00145331Y00429668D02*
X00143665Y00428002D01*
X00140332D01*
X00138666Y00429668D01*
Y00436332D01*
X00140332Y00437998D01*
X00143665D01*
X00145331Y00436332D01*
Y00434666D01*
X00143665Y00433000D01*
X00138666D01*
X00135334Y00436332D02*
X00133668Y00437998D01*
X00130336D01*
X00128669Y00436332D01*
Y00429668D01*
X00130336Y00428002D01*
X00133668D01*
X00135334Y00429668D01*
Y00436332D01*
X00125337D02*
X00123671Y00437998D01*
X00120339D01*
X00118673Y00436332D01*
Y00434666D01*
X00120339Y00433000D01*
X00122005D01*
X00120339D01*
X00118673Y00431334D01*
Y00429668D01*
X00120339Y00428002D01*
X00123671D01*
X00125337Y00429668D01*
X00150327Y00300002D02*
Y00309998D01*
X00145329D01*
X00143663Y00308332D01*
Y00305000D01*
X00145329Y00303334D01*
X00150327D01*
X00146995D02*
X00143663Y00300002D01*
X00140331Y00301668D02*
X00138665Y00300002D01*
X00135332D01*
X00133666Y00301668D01*
Y00308332D01*
X00135332Y00309998D01*
X00138665D01*
X00140331Y00308332D01*
Y00306666D01*
X00138665Y00305000D01*
X00133666D01*
X00130334Y00308332D02*
X00128668Y00309998D01*
X00125336D01*
X00123669Y00308332D01*
Y00301668D01*
X00125336Y00300002D01*
X00128668D01*
X00130334Y00301668D01*
Y00308332D01*
X00113673Y00300002D02*
X00120337D01*
X00113673Y00306666D01*
Y00308332D01*
X00115339Y00309998D01*
X00118671D01*
X00120337Y00308332D01*
X00189998Y00363661D02*
X00180002D01*
Y00358663D01*
X00181668Y00356997D01*
X00185000D01*
X00186666Y00358663D01*
Y00363661D01*
Y00360329D02*
X00189998Y00356997D01*
X00188332Y00353665D02*
X00189998Y00351998D01*
Y00348666D01*
X00188332Y00347000D01*
X00181668D01*
X00180002Y00348666D01*
Y00351998D01*
X00181668Y00353665D01*
X00183334D01*
X00185000Y00351998D01*
Y00347000D01*
X00181668Y00343668D02*
X00180002Y00342002D01*
Y00338669D01*
X00181668Y00337003D01*
X00188332D01*
X00189998Y00338669D01*
Y00342002D01*
X00188332Y00343668D01*
X00181668D01*
X00189998Y00333671D02*
Y00330339D01*
Y00332005D01*
X00180002D01*
X00181668Y00333671D01*
X00713998Y00891328D02*
X00704002D01*
Y00886329D01*
X00705668Y00884663D01*
X00709000D01*
X00710666Y00886329D01*
Y00891328D01*
Y00887995D02*
X00713998Y00884663D01*
X00705668Y00881331D02*
X00704002Y00879665D01*
Y00876332D01*
X00705668Y00874666D01*
X00707334D01*
X00709000Y00876332D01*
X00710666Y00874666D01*
X00712332D01*
X00713998Y00876332D01*
Y00879665D01*
X00712332Y00881331D01*
X00710666D01*
X00709000Y00879665D01*
X00707334Y00881331D01*
X00705668D01*
X00709000Y00879665D02*
Y00876332D01*
X00705668Y00871334D02*
X00704002Y00869668D01*
Y00866336D01*
X00705668Y00864669D01*
X00712332D01*
X00713998Y00866336D01*
Y00869668D01*
X00712332Y00871334D01*
X00705668D01*
X00713998Y00854673D02*
Y00861337D01*
X00707334Y00854673D01*
X00705668D01*
X00704002Y00856339D01*
Y00859671D01*
X00705668Y00861337D01*
X00789661Y00715002D02*
Y00724998D01*
X00784663D01*
X00782997Y00723332D01*
Y00720000D01*
X00784663Y00718334D01*
X00789661D01*
X00786329D02*
X00782997Y00715002D01*
X00779665Y00723332D02*
X00777998Y00724998D01*
X00774666D01*
X00773000Y00723332D01*
Y00721666D01*
X00774666Y00720000D01*
X00773000Y00718334D01*
Y00716668D01*
X00774666Y00715002D01*
X00777998D01*
X00779665Y00716668D01*
Y00718334D01*
X00777998Y00720000D01*
X00779665Y00721666D01*
Y00723332D01*
X00777998Y00720000D02*
X00774666D01*
X00769668Y00723332D02*
X00768002Y00724998D01*
X00764669D01*
X00763003Y00723332D01*
Y00716668D01*
X00764669Y00715002D01*
X00768002D01*
X00769668Y00716668D01*
Y00723332D01*
X00759671Y00715002D02*
X00756339D01*
X00758005D01*
Y00724998D01*
X00759671Y00723332D01*
X00535998Y00494997D02*
X00526002D01*
Y00489999D01*
X00527668Y00488333D01*
X00531000D01*
X00532666Y00489999D01*
Y00494997D01*
Y00491665D02*
X00535998Y00488333D01*
X00526002Y00485001D02*
Y00478336D01*
X00527668D01*
X00534332Y00485001D01*
X00535998D01*
X00527668Y00475004D02*
X00526002Y00473338D01*
Y00470005D01*
X00527668Y00468339D01*
X00534332D01*
X00535998Y00470005D01*
Y00473338D01*
X00534332Y00475004D01*
X00527668D01*
X00534332Y00465007D02*
X00535998Y00463341D01*
Y00460009D01*
X00534332Y00458343D01*
X00527668D01*
X00526002Y00460009D01*
Y00463341D01*
X00527668Y00465007D01*
X00529334D01*
X00531000Y00463341D01*
Y00458343D01*
X00549998Y00494997D02*
X00540002D01*
Y00489999D01*
X00541668Y00488333D01*
X00545000D01*
X00546666Y00489999D01*
Y00494997D01*
Y00491665D02*
X00549998Y00488333D01*
X00540002Y00485001D02*
Y00478336D01*
X00541668D01*
X00548332Y00485001D01*
X00549998D01*
X00541668Y00475004D02*
X00540002Y00473338D01*
Y00470005D01*
X00541668Y00468339D01*
X00548332D01*
X00549998Y00470005D01*
Y00473338D01*
X00548332Y00475004D01*
X00541668D01*
X00549998Y00465007D02*
Y00461675D01*
Y00463341D01*
X00540002D01*
X00541668Y00465007D01*
X00651998Y00365327D02*
X00642002D01*
Y00360329D01*
X00643668Y00358663D01*
X00647000D01*
X00648666Y00360329D01*
Y00365327D01*
Y00361995D02*
X00651998Y00358663D01*
X00642002Y00348666D02*
X00643668Y00351998D01*
X00647000Y00355331D01*
X00650332D01*
X00651998Y00353665D01*
Y00350332D01*
X00650332Y00348666D01*
X00648666D01*
X00647000Y00350332D01*
Y00355331D01*
X00643668Y00345334D02*
X00642002Y00343668D01*
Y00340336D01*
X00643668Y00338669D01*
X00650332D01*
X00651998Y00340336D01*
Y00343668D01*
X00650332Y00345334D01*
X00643668D01*
X00651998Y00328673D02*
Y00335337D01*
X00645334Y00328673D01*
X00643668D01*
X00642002Y00330339D01*
Y00333671D01*
X00643668Y00335337D01*
X00651998Y00324661D02*
X00642002D01*
Y00319663D01*
X00643668Y00317997D01*
X00647000D01*
X00648666Y00319663D01*
Y00324661D01*
Y00321329D02*
X00651998Y00317997D01*
X00642002Y00308000D02*
X00643668Y00311332D01*
X00647000Y00314664D01*
X00650332D01*
X00651998Y00312998D01*
Y00309666D01*
X00650332Y00308000D01*
X00648666D01*
X00647000Y00309666D01*
Y00314664D01*
X00643668Y00304668D02*
X00642002Y00303002D01*
Y00299669D01*
X00643668Y00298003D01*
X00650332D01*
X00651998Y00299669D01*
Y00303002D01*
X00650332Y00304668D01*
X00643668D01*
X00651998Y00294671D02*
Y00291339D01*
Y00293005D01*
X00642002D01*
X00643668Y00294671D01*
X00169329Y00732668D02*
Y00739332D01*
X00170995Y00740998D01*
X00174327D01*
X00175993Y00739332D01*
Y00732668D01*
X00174327Y00731002D01*
X00170995D01*
X00172661Y00734334D02*
X00169329Y00731002D01*
X00170995D02*
X00169329Y00732668D01*
X00165997Y00731002D02*
X00162665D01*
X00164331D01*
Y00740998D01*
X00165997Y00739332D01*
X00157666Y00731002D02*
X00154334D01*
X00156000D01*
Y00740998D01*
X00157666Y00739332D01*
X00149335D02*
X00147669Y00740998D01*
X00144337D01*
X00142671Y00739332D01*
Y00732668D01*
X00144337Y00731002D01*
X00147669D01*
X00149335Y00732668D01*
Y00739332D01*
X00139339Y00731002D02*
X00136006D01*
X00137673D01*
Y00740998D01*
X00139339Y00739332D01*
X00197162Y00658668D02*
Y00665332D01*
X00198828Y00666998D01*
X00202160D01*
X00203827Y00665332D01*
Y00658668D01*
X00202160Y00657002D01*
X00198828D01*
X00200494Y00660334D02*
X00197162Y00657002D01*
X00198828D02*
X00197162Y00658668D01*
X00193830Y00657002D02*
X00190498D01*
X00192164D01*
Y00666998D01*
X00193830Y00665332D01*
X00185499D02*
X00183833Y00666998D01*
X00180501D01*
X00178835Y00665332D01*
Y00658668D01*
X00180501Y00657002D01*
X00183833D01*
X00185499Y00658668D01*
Y00665332D01*
X00175502D02*
X00173836Y00666998D01*
X00170504D01*
X00168838Y00665332D01*
Y00658668D01*
X00170504Y00657002D01*
X00173836D01*
X00175502Y00658668D01*
Y00665332D01*
X00165506Y00657002D02*
X00162173D01*
X00163839D01*
Y00666998D01*
X00165506Y00665332D01*
X00782997Y00732668D02*
Y00739332D01*
X00784663Y00740998D01*
X00787995D01*
X00789661Y00739332D01*
Y00732668D01*
X00787995Y00731002D01*
X00784663D01*
X00786329Y00734334D02*
X00782997Y00731002D01*
X00784663D02*
X00782997Y00732668D01*
X00779665Y00739332D02*
X00777998Y00740998D01*
X00774666D01*
X00773000Y00739332D01*
Y00737666D01*
X00774666Y00736000D01*
X00773000Y00734334D01*
Y00732668D01*
X00774666Y00731002D01*
X00777998D01*
X00779665Y00732668D01*
Y00734334D01*
X00777998Y00736000D01*
X00779665Y00737666D01*
Y00739332D01*
X00777998Y00736000D02*
X00774666D01*
X00769668Y00739332D02*
X00768002Y00740998D01*
X00764669D01*
X00763003Y00739332D01*
Y00732668D01*
X00764669Y00731002D01*
X00768002D01*
X00769668Y00732668D01*
Y00739332D01*
X00759671Y00731002D02*
X00756339D01*
X00758005D01*
Y00740998D01*
X00759671Y00739332D01*
X00192329Y00754998D02*
X00198993D01*
Y00745002D01*
X00192329D01*
X00198993Y00750000D02*
X00195661D01*
X00188997Y00745002D02*
X00185665D01*
X00187331D01*
Y00754998D01*
X00188997Y00753332D01*
X00180666Y00745002D02*
X00177334D01*
X00179000D01*
Y00754998D01*
X00180666Y00753332D01*
X00172335D02*
X00170669Y00754998D01*
X00167337D01*
X00165671Y00753332D01*
Y00746668D01*
X00167337Y00745002D01*
X00170669D01*
X00172335Y00746668D01*
Y00753332D01*
X00162339Y00745002D02*
X00159006D01*
X00160673D01*
Y00754998D01*
X00162339Y00753332D01*
X00272162Y00732998D02*
X00278827D01*
Y00723002D01*
X00272162D01*
X00278827Y00728000D02*
X00275494D01*
X00268830Y00723002D02*
X00265498D01*
X00267164D01*
Y00732998D01*
X00268830Y00731332D01*
X00260499D02*
X00258833Y00732998D01*
X00255501D01*
X00253835Y00731332D01*
Y00724668D01*
X00255501Y00723002D01*
X00258833D01*
X00260499Y00724668D01*
Y00731332D01*
X00250502D02*
X00248836Y00732998D01*
X00245504D01*
X00243838Y00731332D01*
Y00724668D01*
X00245504Y00723002D01*
X00248836D01*
X00250502Y00724668D01*
Y00731332D01*
X00240506Y00723002D02*
X00237173D01*
X00238839D01*
Y00732998D01*
X00240506Y00731332D01*
X00186997Y00437998D02*
X00193661D01*
Y00428002D01*
X00186997D01*
X00193661Y00433000D02*
X00190329D01*
X00183664Y00429668D02*
X00181998Y00428002D01*
X00178666D01*
X00177000Y00429668D01*
Y00436332D01*
X00178666Y00437998D01*
X00181998D01*
X00183664Y00436332D01*
Y00434666D01*
X00181998Y00433000D01*
X00177000D01*
X00173668Y00436332D02*
X00172002Y00437998D01*
X00168669D01*
X00167003Y00436332D01*
Y00429668D01*
X00168669Y00428002D01*
X00172002D01*
X00173668Y00429668D01*
Y00436332D01*
X00163671Y00428002D02*
X00160339D01*
X00162005D01*
Y00437998D01*
X00163671Y00436332D01*
X00761997Y00754998D02*
X00768661D01*
Y00745002D01*
X00761997D01*
X00768661Y00750000D02*
X00765329D01*
X00758664Y00753332D02*
X00756998Y00754998D01*
X00753666D01*
X00752000Y00753332D01*
Y00751666D01*
X00753666Y00750000D01*
X00752000Y00748334D01*
Y00746668D01*
X00753666Y00745002D01*
X00756998D01*
X00758664Y00746668D01*
Y00748334D01*
X00756998Y00750000D01*
X00758664Y00751666D01*
Y00753332D01*
X00756998Y00750000D02*
X00753666D01*
X00748668Y00753332D02*
X00747002Y00754998D01*
X00743669D01*
X00742003Y00753332D01*
Y00746668D01*
X00743669Y00745002D01*
X00747002D01*
X00748668Y00746668D01*
Y00753332D01*
X00738671Y00745002D02*
X00735339D01*
X00737005D01*
Y00754998D01*
X00738671Y00753332D01*
X00170995Y00767332D02*
X00172661Y00768998D01*
X00175993D01*
X00177660Y00767332D01*
Y00760668D01*
X00175993Y00759002D01*
X00172661D01*
X00170995Y00760668D01*
X00167663Y00759002D02*
X00164331D01*
X00165997D01*
Y00768998D01*
X00167663Y00767332D01*
X00159332Y00759002D02*
X00156000D01*
X00157666D01*
Y00768998D01*
X00159332Y00767332D01*
X00151002D02*
X00149335Y00768998D01*
X00146003D01*
X00144337Y00767332D01*
Y00760668D01*
X00146003Y00759002D01*
X00149335D01*
X00151002Y00760668D01*
Y00767332D01*
X00134340Y00759002D02*
X00141005D01*
X00134340Y00765666D01*
Y00767332D01*
X00136006Y00768998D01*
X00139339D01*
X00141005Y00767332D01*
X00146329Y00753332D02*
X00147995Y00754998D01*
X00151327D01*
X00152993Y00753332D01*
Y00746668D01*
X00151327Y00745002D01*
X00147995D01*
X00146329Y00746668D01*
X00142997Y00745002D02*
X00139664D01*
X00141331D01*
Y00754998D01*
X00142997Y00753332D01*
X00134666Y00745002D02*
X00131334D01*
X00133000D01*
Y00754998D01*
X00134666Y00753332D01*
X00126335D02*
X00124669Y00754998D01*
X00121337D01*
X00119671Y00753332D01*
Y00746668D01*
X00121337Y00745002D01*
X00124669D01*
X00126335Y00746668D01*
Y00753332D01*
X00116339Y00745002D02*
X00113006D01*
X00114672D01*
Y00754998D01*
X00116339Y00753332D01*
X00228668Y00493828D02*
X00227002Y00495494D01*
Y00498827D01*
X00228668Y00500493D01*
X00235332D01*
X00236998Y00498827D01*
Y00495494D01*
X00235332Y00493828D01*
X00236998Y00490496D02*
Y00487164D01*
Y00488830D01*
X00227002D01*
X00228668Y00490496D01*
Y00482165D02*
X00227002Y00480499D01*
Y00477167D01*
X00228668Y00475501D01*
X00235332D01*
X00236998Y00477167D01*
Y00480499D01*
X00235332Y00482165D01*
X00228668D01*
Y00472169D02*
X00227002Y00470502D01*
Y00467170D01*
X00228668Y00465504D01*
X00235332D01*
X00236998Y00467170D01*
Y00470502D01*
X00235332Y00472169D01*
X00228668D01*
X00227002Y00455507D02*
Y00462172D01*
X00232000D01*
X00230334Y00458839D01*
Y00457173D01*
X00232000Y00455507D01*
X00235332D01*
X00236998Y00457173D01*
Y00460506D01*
X00235332Y00462172D01*
X00275828Y00766332D02*
X00277494Y00767998D01*
X00280827D01*
X00282493Y00766332D01*
Y00759668D01*
X00280827Y00758002D01*
X00277494D01*
X00275828Y00759668D01*
X00272496Y00758002D02*
X00269164D01*
X00270830D01*
Y00767998D01*
X00272496Y00766332D01*
X00264165D02*
X00262499Y00767998D01*
X00259167D01*
X00257501Y00766332D01*
Y00759668D01*
X00259167Y00758002D01*
X00262499D01*
X00264165Y00759668D01*
Y00766332D01*
X00254168D02*
X00252502Y00767998D01*
X00249170D01*
X00247504Y00766332D01*
Y00759668D01*
X00249170Y00758002D01*
X00252502D01*
X00254168Y00759668D01*
Y00766332D01*
X00239173Y00758002D02*
Y00767998D01*
X00244172Y00763000D01*
X00237507D01*
X00209668Y00761828D02*
X00208002Y00763494D01*
Y00766827D01*
X00209668Y00768493D01*
X00216332D01*
X00217998Y00766827D01*
Y00763494D01*
X00216332Y00761828D01*
X00217998Y00758496D02*
Y00755164D01*
Y00756830D01*
X00208002D01*
X00209668Y00758496D01*
Y00750165D02*
X00208002Y00748499D01*
Y00745167D01*
X00209668Y00743501D01*
X00216332D01*
X00217998Y00745167D01*
Y00748499D01*
X00216332Y00750165D01*
X00209668D01*
Y00740169D02*
X00208002Y00738502D01*
Y00735170D01*
X00209668Y00733504D01*
X00216332D01*
X00217998Y00735170D01*
Y00738502D01*
X00216332Y00740169D01*
X00209668D01*
Y00730172D02*
X00208002Y00728506D01*
Y00725173D01*
X00209668Y00723507D01*
X00211334D01*
X00213000Y00725173D01*
Y00726840D01*
Y00725173D01*
X00214666Y00723507D01*
X00216332D01*
X00217998Y00725173D01*
Y00728506D01*
X00216332Y00730172D01*
X00196828Y00629332D02*
X00198494Y00630998D01*
X00201827D01*
X00203493Y00629332D01*
Y00622668D01*
X00201827Y00621002D01*
X00198494D01*
X00196828Y00622668D01*
X00193496Y00621002D02*
X00190164D01*
X00191830D01*
Y00630998D01*
X00193496Y00629332D01*
X00185165D02*
X00183499Y00630998D01*
X00180167D01*
X00178501Y00629332D01*
Y00622668D01*
X00180167Y00621002D01*
X00183499D01*
X00185165Y00622668D01*
Y00629332D01*
X00175168D02*
X00173502Y00630998D01*
X00170170D01*
X00168504Y00629332D01*
Y00622668D01*
X00170170Y00621002D01*
X00173502D01*
X00175168Y00622668D01*
Y00629332D01*
X00158507Y00621002D02*
X00165172D01*
X00158507Y00627666D01*
Y00629332D01*
X00160173Y00630998D01*
X00163506D01*
X00165172Y00629332D01*
X00224668Y00761828D02*
X00223002Y00763494D01*
Y00766827D01*
X00224668Y00768493D01*
X00231332D01*
X00232998Y00766827D01*
Y00763494D01*
X00231332Y00761828D01*
X00232998Y00758496D02*
Y00755164D01*
Y00756830D01*
X00223002D01*
X00224668Y00758496D01*
Y00750165D02*
X00223002Y00748499D01*
Y00745167D01*
X00224668Y00743501D01*
X00231332D01*
X00232998Y00745167D01*
Y00748499D01*
X00231332Y00750165D01*
X00224668D01*
Y00740169D02*
X00223002Y00738502D01*
Y00735170D01*
X00224668Y00733504D01*
X00231332D01*
X00232998Y00735170D01*
Y00738502D01*
X00231332Y00740169D01*
X00224668D01*
X00232998Y00730172D02*
Y00726840D01*
Y00728506D01*
X00223002D01*
X00224668Y00730172D01*
X00200668Y00396663D02*
X00199002Y00398329D01*
Y00401661D01*
X00200668Y00403327D01*
X00207332D01*
X00208998Y00401661D01*
Y00398329D01*
X00207332Y00396663D01*
Y00393331D02*
X00208998Y00391665D01*
Y00388332D01*
X00207332Y00386666D01*
X00200668D01*
X00199002Y00388332D01*
Y00391665D01*
X00200668Y00393331D01*
X00202334D01*
X00204000Y00391665D01*
Y00386666D01*
X00200668Y00383334D02*
X00199002Y00381668D01*
Y00378335D01*
X00200668Y00376669D01*
X00207332D01*
X00208998Y00378335D01*
Y00381668D01*
X00207332Y00383334D01*
X00200668D01*
Y00373337D02*
X00199002Y00371671D01*
Y00368339D01*
X00200668Y00366673D01*
X00202334D01*
X00204000Y00368339D01*
Y00370005D01*
Y00368339D01*
X00205666Y00366673D01*
X00207332D01*
X00208998Y00368339D01*
Y00371671D01*
X00207332Y00373337D01*
X00215668Y00396663D02*
X00214002Y00398329D01*
Y00401661D01*
X00215668Y00403327D01*
X00222332D01*
X00223998Y00401661D01*
Y00398329D01*
X00222332Y00396663D01*
Y00393331D02*
X00223998Y00391665D01*
Y00388332D01*
X00222332Y00386666D01*
X00215668D01*
X00214002Y00388332D01*
Y00391665D01*
X00215668Y00393331D01*
X00217334D01*
X00219000Y00391665D01*
Y00386666D01*
X00215668Y00383334D02*
X00214002Y00381668D01*
Y00378335D01*
X00215668Y00376669D01*
X00222332D01*
X00223998Y00378335D01*
Y00381668D01*
X00222332Y00383334D01*
X00215668D01*
X00223998Y00366673D02*
Y00373337D01*
X00217334Y00366673D01*
X00215668D01*
X00214002Y00368339D01*
Y00371671D01*
X00215668Y00373337D01*
X00230668Y00396663D02*
X00229002Y00398329D01*
Y00401661D01*
X00230668Y00403327D01*
X00237332D01*
X00238998Y00401661D01*
Y00398329D01*
X00237332Y00396663D01*
Y00393331D02*
X00238998Y00391665D01*
Y00388332D01*
X00237332Y00386666D01*
X00230668D01*
X00229002Y00388332D01*
Y00391665D01*
X00230668Y00393331D01*
X00232334D01*
X00234000Y00391665D01*
Y00386666D01*
X00230668Y00383334D02*
X00229002Y00381668D01*
Y00378335D01*
X00230668Y00376669D01*
X00237332D01*
X00238998Y00378335D01*
Y00381668D01*
X00237332Y00383334D01*
X00230668D01*
X00238998Y00373337D02*
Y00370005D01*
Y00371671D01*
X00229002D01*
X00230668Y00373337D01*
X00784663Y00767332D02*
X00786329Y00768998D01*
X00789661D01*
X00791327Y00767332D01*
Y00760668D01*
X00789661Y00759002D01*
X00786329D01*
X00784663Y00760668D01*
X00781331Y00767332D02*
X00779665Y00768998D01*
X00776332D01*
X00774666Y00767332D01*
Y00765666D01*
X00776332Y00764000D01*
X00774666Y00762334D01*
Y00760668D01*
X00776332Y00759002D01*
X00779665D01*
X00781331Y00760668D01*
Y00762334D01*
X00779665Y00764000D01*
X00781331Y00765666D01*
Y00767332D01*
X00779665Y00764000D02*
X00776332D01*
X00771334Y00767332D02*
X00769668Y00768998D01*
X00766336D01*
X00764669Y00767332D01*
Y00760668D01*
X00766336Y00759002D01*
X00769668D01*
X00771334Y00760668D01*
Y00767332D01*
X00754673Y00759002D02*
X00761337D01*
X00754673Y00765666D01*
Y00767332D01*
X00756339Y00768998D01*
X00759671D01*
X00761337Y00767332D01*
X00800997Y00753332D02*
X00802663Y00754998D01*
X00805995D01*
X00807661Y00753332D01*
Y00746668D01*
X00805995Y00745002D01*
X00802663D01*
X00800997Y00746668D01*
X00797664Y00753332D02*
X00795998Y00754998D01*
X00792666D01*
X00791000Y00753332D01*
Y00751666D01*
X00792666Y00750000D01*
X00791000Y00748334D01*
Y00746668D01*
X00792666Y00745002D01*
X00795998D01*
X00797664Y00746668D01*
Y00748334D01*
X00795998Y00750000D01*
X00797664Y00751666D01*
Y00753332D01*
X00795998Y00750000D02*
X00792666D01*
X00787668Y00753332D02*
X00786002Y00754998D01*
X00782669D01*
X00781003Y00753332D01*
Y00746668D01*
X00782669Y00745002D01*
X00786002D01*
X00787668Y00746668D01*
Y00753332D01*
X00777671Y00745002D02*
X00774339D01*
X00776005D01*
Y00754998D01*
X00777671Y00753332D01*
X00427329Y00814998D02*
X00430661D01*
X00428995D01*
Y00806668D01*
X00430661Y00805002D01*
X00432327D01*
X00433993Y00806668D01*
X00423997Y00805002D02*
X00420664D01*
X00422331D01*
Y00814998D01*
X00423997Y00813332D01*
X00415666Y00805002D02*
X00412334D01*
X00414000D01*
Y00814998D01*
X00415666Y00813332D01*
X00407336D02*
X00405669Y00814998D01*
X00402337D01*
X00400671Y00813332D01*
Y00806668D01*
X00402337Y00805002D01*
X00405669D01*
X00407336Y00806668D01*
Y00813332D01*
X00397339Y00805002D02*
X00394007D01*
X00395673D01*
Y00814998D01*
X00397339Y00813332D01*
X00628997Y00647998D02*
X00632329D01*
X00630663D01*
Y00639668D01*
X00632329Y00638002D01*
X00633995D01*
X00635661Y00639668D01*
X00625664Y00647998D02*
X00619000D01*
Y00646332D01*
X00625664Y00639668D01*
Y00638002D01*
X00615668Y00646332D02*
X00614002Y00647998D01*
X00610669D01*
X00609003Y00646332D01*
Y00639668D01*
X00610669Y00638002D01*
X00614002D01*
X00615668Y00639668D01*
Y00646332D01*
X00605671Y00638002D02*
X00602339D01*
X00604005D01*
Y00647998D01*
X00605671Y00646332D01*
X00538997Y00813998D02*
X00542329D01*
X00540663D01*
Y00805668D01*
X00542329Y00804002D01*
X00543995D01*
X00545661Y00805668D01*
X00535664Y00812332D02*
X00533998Y00813998D01*
X00530666D01*
X00529000Y00812332D01*
Y00810666D01*
X00530666Y00809000D01*
X00529000Y00807334D01*
Y00805668D01*
X00530666Y00804002D01*
X00533998D01*
X00535664Y00805668D01*
Y00807334D01*
X00533998Y00809000D01*
X00535664Y00810666D01*
Y00812332D01*
X00533998Y00809000D02*
X00530666D01*
X00525668Y00812332D02*
X00524002Y00813998D01*
X00520669D01*
X00519003Y00812332D01*
Y00805668D01*
X00520669Y00804002D01*
X00524002D01*
X00525668Y00805668D01*
Y00812332D01*
X00515671Y00804002D02*
X00512339D01*
X00514005D01*
Y00813998D01*
X00515671Y00812332D01*
X00814668Y00349663D02*
X00813001Y00351329D01*
Y00354661D01*
X00814668Y00356327D01*
X00821332D01*
X00822998Y00354661D01*
Y00351329D01*
X00821332Y00349663D01*
X00813001Y00346331D02*
Y00339666D01*
X00814668D01*
X00821332Y00346331D01*
X00822998D01*
X00814668Y00336334D02*
X00813001Y00334668D01*
Y00331335D01*
X00814668Y00329669D01*
X00821332D01*
X00822998Y00331335D01*
Y00334668D01*
X00821332Y00336334D01*
X00814668D01*
Y00326337D02*
X00813001Y00324671D01*
Y00321339D01*
X00814668Y00319673D01*
X00816334D01*
X00818000Y00321339D01*
Y00323005D01*
Y00321339D01*
X00819666Y00319673D01*
X00821332D01*
X00822998Y00321339D01*
Y00324671D01*
X00821332Y00326337D01*
X00386328Y00236002D02*
Y00245998D01*
X00381329D01*
X00379663Y00244332D01*
Y00241000D01*
X00381329Y00239334D01*
X00386328D01*
X00382995D02*
X00379663Y00236002D01*
X00369666D02*
X00376331D01*
X00369666Y00242666D01*
Y00244332D01*
X00371332Y00245998D01*
X00374665D01*
X00376331Y00244332D01*
X00366334D02*
X00364668Y00245998D01*
X00361335D01*
X00359669Y00244332D01*
Y00237668D01*
X00361335Y00236002D01*
X00364668D01*
X00366334Y00237668D01*
Y00244332D01*
X00356337D02*
X00354671Y00245998D01*
X00351339D01*
X00349673Y00244332D01*
Y00242666D01*
X00351339Y00241000D01*
X00353005D01*
X00351339D01*
X00349673Y00239334D01*
Y00237668D01*
X00351339Y00236002D01*
X00354671D01*
X00356337Y00237668D01*
X00426998Y00236002D02*
Y00245998D01*
X00422000D01*
X00420334Y00244332D01*
Y00241000D01*
X00422000Y00239334D01*
X00426998D01*
X00423666D02*
X00420334Y00236002D01*
X00410337D02*
X00417002D01*
X00410337Y00242666D01*
Y00244332D01*
X00412003Y00245998D01*
X00415336D01*
X00417002Y00244332D01*
X00407005D02*
X00405339Y00245998D01*
X00402006D01*
X00400340Y00244332D01*
Y00237668D01*
X00402006Y00236002D01*
X00405339D01*
X00407005Y00237668D01*
Y00244332D01*
X00390344Y00236002D02*
X00397008D01*
X00390344Y00242666D01*
Y00244332D01*
X00392010Y00245998D01*
X00395342D01*
X00397008Y00244332D01*
X00798002Y00386997D02*
Y00393661D01*
X00807998D01*
Y00386997D01*
X00803000Y00393661D02*
Y00390329D01*
X00798002Y00383665D02*
Y00377000D01*
X00799668D01*
X00806332Y00383665D01*
X00807998D01*
X00799668Y00373668D02*
X00798002Y00372002D01*
Y00368669D01*
X00799668Y00367003D01*
X00806332D01*
X00807998Y00368669D01*
Y00372002D01*
X00806332Y00373668D01*
X00799668D01*
X00807998Y00363671D02*
Y00360339D01*
Y00362005D01*
X00798002D01*
X00799668Y00363671D01*
X00814668Y00386997D02*
X00813001Y00388663D01*
Y00391995D01*
X00814668Y00393661D01*
X00821332D01*
X00822998Y00391995D01*
Y00388663D01*
X00821332Y00386997D01*
X00813001Y00383665D02*
Y00377000D01*
X00814668D01*
X00821332Y00383665D01*
X00822998D01*
X00814668Y00373668D02*
X00813001Y00372002D01*
Y00368669D01*
X00814668Y00367003D01*
X00821332D01*
X00822998Y00368669D01*
Y00372002D01*
X00821332Y00373668D01*
X00814668D01*
X00822998Y00363671D02*
Y00360339D01*
Y00362005D01*
X00813001D01*
X00814668Y00363671D01*
X00648327Y00229002D02*
Y00238998D01*
X00643329D01*
X00641663Y00237332D01*
Y00234000D01*
X00643329Y00232334D01*
X00648327D01*
X00644995D02*
X00641663Y00229002D01*
X00633332D02*
Y00238998D01*
X00638331Y00234000D01*
X00631666D01*
X00628334Y00237332D02*
X00626668Y00238998D01*
X00623335D01*
X00621669Y00237332D01*
Y00230668D01*
X00623335Y00229002D01*
X00626668D01*
X00628334Y00230668D01*
Y00237332D01*
X00611673Y00238998D02*
X00615005Y00237332D01*
X00618337Y00234000D01*
Y00230668D01*
X00616671Y00229002D01*
X00613339D01*
X00611673Y00230668D01*
Y00232334D01*
X00613339Y00234000D01*
X00618337D01*
X00602327Y00309002D02*
Y00318998D01*
X00597329D01*
X00595663Y00317332D01*
Y00314000D01*
X00597329Y00312334D01*
X00602327D01*
X00598995D02*
X00595663Y00309002D01*
X00587332D02*
Y00318998D01*
X00592331Y00314000D01*
X00585666D01*
X00582334Y00317332D02*
X00580668Y00318998D01*
X00577336D01*
X00575669Y00317332D01*
Y00310668D01*
X00577336Y00309002D01*
X00580668D01*
X00582334Y00310668D01*
Y00317332D01*
X00565673Y00309002D02*
X00572337D01*
X00565673Y00315666D01*
Y00317332D01*
X00567339Y00318998D01*
X00570671D01*
X00572337Y00317332D01*
X00610002Y00208661D02*
X00619998D01*
Y00203663D01*
X00618332Y00201997D01*
X00611668D01*
X00610002Y00203663D01*
Y00208661D01*
X00619998Y00193666D02*
X00610002D01*
X00615000Y00198664D01*
Y00192000D01*
X00611668Y00188668D02*
X00610002Y00187002D01*
Y00183669D01*
X00611668Y00182003D01*
X00618332D01*
X00619998Y00183669D01*
Y00187002D01*
X00618332Y00188668D01*
X00611668D01*
X00619998Y00178671D02*
Y00175339D01*
Y00177005D01*
X00610002D01*
X00611668Y00178671D01*
X00490663Y00430332D02*
X00492329Y00431998D01*
X00495661D01*
X00497327Y00430332D01*
Y00423668D01*
X00495661Y00422002D01*
X00492329D01*
X00490663Y00423668D01*
X00482332Y00422002D02*
Y00431998D01*
X00487331Y00427000D01*
X00480666D01*
X00477334Y00430332D02*
X00475668Y00431998D01*
X00472336D01*
X00470669Y00430332D01*
Y00423668D01*
X00472336Y00422002D01*
X00475668D01*
X00477334Y00423668D01*
Y00430332D01*
X00460673Y00431998D02*
X00467337D01*
Y00427000D01*
X00464005Y00428666D01*
X00462339D01*
X00460673Y00427000D01*
Y00423668D01*
X00462339Y00422002D01*
X00465671D01*
X00467337Y00423668D01*
X00518327Y00416998D02*
Y00408668D01*
X00516661Y00407002D01*
X00513329D01*
X00511663Y00408668D01*
Y00416998D01*
X00503332Y00407002D02*
Y00416998D01*
X00508331Y00412000D01*
X00501666D01*
X00498334Y00415332D02*
X00496668Y00416998D01*
X00493335D01*
X00491669Y00415332D01*
Y00408668D01*
X00493335Y00407002D01*
X00496668D01*
X00498334Y00408668D01*
Y00415332D01*
X00481673Y00407002D02*
X00488337D01*
X00481673Y00413666D01*
Y00415332D01*
X00483339Y00416998D01*
X00486671D01*
X00488337Y00415332D01*
X00516661Y00133998D02*
Y00125668D01*
X00514995Y00124002D01*
X00511663D01*
X00509997Y00125668D01*
Y00133998D01*
X00501666Y00124002D02*
Y00133998D01*
X00506665Y00129000D01*
X00500000D01*
X00496668Y00132332D02*
X00495002Y00133998D01*
X00491669D01*
X00490003Y00132332D01*
Y00125668D01*
X00491669Y00124002D01*
X00495002D01*
X00496668Y00125668D01*
Y00132332D01*
X00486671Y00124002D02*
X00483339D01*
X00485005D01*
Y00133998D01*
X00486671Y00132332D01*
X00386328Y00251002D02*
Y00260998D01*
X00381329D01*
X00379663Y00259332D01*
Y00256000D01*
X00381329Y00254334D01*
X00386328D01*
X00382995D02*
X00379663Y00251002D01*
X00369666Y00260998D02*
X00376331D01*
Y00256000D01*
X00372998Y00257666D01*
X00371332D01*
X00369666Y00256000D01*
Y00252668D01*
X00371332Y00251002D01*
X00374665D01*
X00376331Y00252668D01*
X00366334Y00259332D02*
X00364668Y00260998D01*
X00361335D01*
X00359669Y00259332D01*
Y00252668D01*
X00361335Y00251002D01*
X00364668D01*
X00366334Y00252668D01*
Y00259332D01*
X00351339Y00251002D02*
Y00260998D01*
X00356337Y00256000D01*
X00349673D01*
X00386328Y00307002D02*
Y00316998D01*
X00381329D01*
X00379663Y00315332D01*
Y00312000D01*
X00381329Y00310334D01*
X00386328D01*
X00382995D02*
X00379663Y00307002D01*
X00369666Y00316998D02*
X00376331D01*
Y00312000D01*
X00372998Y00313666D01*
X00371332D01*
X00369666Y00312000D01*
Y00308668D01*
X00371332Y00307002D01*
X00374665D01*
X00376331Y00308668D01*
X00366334Y00315332D02*
X00364668Y00316998D01*
X00361335D01*
X00359669Y00315332D01*
Y00308668D01*
X00361335Y00307002D01*
X00364668D01*
X00366334Y00308668D01*
Y00315332D01*
X00349673Y00307002D02*
X00356337D01*
X00349673Y00313666D01*
Y00315332D01*
X00351339Y00316998D01*
X00354671D01*
X00356337Y00315332D01*
X00427327Y00307002D02*
Y00316998D01*
X00422329D01*
X00420663Y00315332D01*
Y00312000D01*
X00422329Y00310334D01*
X00427327D01*
X00423995D02*
X00420663Y00307002D01*
X00410666Y00316998D02*
X00417331D01*
Y00312000D01*
X00413998Y00313666D01*
X00412332D01*
X00410666Y00312000D01*
Y00308668D01*
X00412332Y00307002D01*
X00415664D01*
X00417331Y00308668D01*
X00407334Y00315332D02*
X00405668Y00316998D01*
X00402336D01*
X00400669Y00315332D01*
Y00308668D01*
X00402336Y00307002D01*
X00405668D01*
X00407334Y00308668D01*
Y00315332D01*
X00397337Y00307002D02*
X00394005D01*
X00395671D01*
Y00316998D01*
X00397337Y00315332D01*
X00320336Y00287327D02*
X00310339D01*
Y00282329D01*
X00312005Y00280663D01*
X00315337D01*
X00317003Y00282329D01*
Y00287327D01*
Y00283995D02*
X00320336Y00280663D01*
X00310339Y00270666D02*
Y00277331D01*
X00315337D01*
X00313671Y00273998D01*
Y00272332D01*
X00315337Y00270666D01*
X00318669D01*
X00320336Y00272332D01*
Y00275665D01*
X00318669Y00277331D01*
X00312005Y00267334D02*
X00310339Y00265668D01*
Y00262335D01*
X00312005Y00260669D01*
X00318669D01*
X00320336Y00262335D01*
Y00265668D01*
X00318669Y00267334D01*
X00312005D01*
Y00257337D02*
X00310339Y00255671D01*
Y00252339D01*
X00312005Y00250672D01*
X00313671D01*
X00315337Y00252339D01*
Y00254005D01*
Y00252339D01*
X00317003Y00250672D01*
X00318669D01*
X00320336Y00252339D01*
Y00255671D01*
X00318669Y00257337D01*
X00619998Y00171000D02*
X00610002D01*
Y00166002D01*
X00611668Y00164335D01*
X00615000D01*
X00616666Y00166002D01*
Y00171000D01*
Y00167668D02*
X00619998Y00164335D01*
Y00156005D02*
X00610002D01*
X00615000Y00161003D01*
Y00154339D01*
X00611668Y00151006D02*
X00610002Y00149340D01*
Y00146008D01*
X00611668Y00144342D01*
X00618332D01*
X00619998Y00146008D01*
Y00149340D01*
X00618332Y00151006D01*
X00611668D01*
Y00141010D02*
X00610002Y00139344D01*
Y00136011D01*
X00611668Y00134345D01*
X00613334D01*
X00615000Y00136011D01*
X00616666Y00134345D01*
X00618332D01*
X00619998Y00136011D01*
Y00139344D01*
X00618332Y00141010D01*
X00616666D01*
X00615000Y00139344D01*
X00613334Y00141010D01*
X00611668D01*
X00615000Y00139344D02*
Y00136011D01*
X00574998Y00171000D02*
X00565002D01*
Y00166002D01*
X00566668Y00164335D01*
X00570000D01*
X00571666Y00166002D01*
Y00171000D01*
Y00167668D02*
X00574998Y00164335D01*
Y00156005D02*
X00565002D01*
X00570000Y00161003D01*
Y00154339D01*
X00566668Y00151006D02*
X00565002Y00149340D01*
Y00146008D01*
X00566668Y00144342D01*
X00573332D01*
X00574998Y00146008D01*
Y00149340D01*
X00573332Y00151006D01*
X00566668D01*
X00565002Y00141010D02*
Y00134345D01*
X00566668D01*
X00573332Y00141010D01*
X00574998D01*
X00604998Y00171000D02*
X00595002D01*
Y00166002D01*
X00596668Y00164335D01*
X00600000D01*
X00601666Y00166002D01*
Y00171000D01*
Y00167668D02*
X00604998Y00164335D01*
Y00156005D02*
X00595002D01*
X00600000Y00161003D01*
Y00154339D01*
X00596668Y00151006D02*
X00595002Y00149340D01*
Y00146008D01*
X00596668Y00144342D01*
X00603332D01*
X00604998Y00146008D01*
Y00149340D01*
X00603332Y00151006D01*
X00596668D01*
X00595002Y00134345D02*
Y00141010D01*
X00600000D01*
X00598334Y00137677D01*
Y00136011D01*
X00600000Y00134345D01*
X00603332D01*
X00604998Y00136011D01*
Y00139344D01*
X00603332Y00141010D01*
X00589998Y00171000D02*
X00580002D01*
Y00166002D01*
X00581668Y00164335D01*
X00585000D01*
X00586666Y00166002D01*
Y00171000D01*
Y00167668D02*
X00589998Y00164335D01*
Y00156005D02*
X00580002D01*
X00585000Y00161003D01*
Y00154339D01*
X00581668Y00151006D02*
X00580002Y00149340D01*
Y00146008D01*
X00581668Y00144342D01*
X00588332D01*
X00589998Y00146008D01*
Y00149340D01*
X00588332Y00151006D01*
X00581668D01*
X00589998Y00136011D02*
X00580002D01*
X00585000Y00141010D01*
Y00134345D01*
X00648327Y00214002D02*
Y00223998D01*
X00643329D01*
X00641663Y00222332D01*
Y00219000D01*
X00643329Y00217334D01*
X00648327D01*
X00644995D02*
X00641663Y00214002D01*
X00633332D02*
Y00223998D01*
X00638331Y00219000D01*
X00631666D01*
X00628334Y00222332D02*
X00626668Y00223998D01*
X00623335D01*
X00621669Y00222332D01*
Y00215668D01*
X00623335Y00214002D01*
X00626668D01*
X00628334Y00215668D01*
Y00222332D01*
X00618337D02*
X00616671Y00223998D01*
X00613339D01*
X00611673Y00222332D01*
Y00220666D01*
X00613339Y00219000D01*
X00615005D01*
X00613339D01*
X00611673Y00217334D01*
Y00215668D01*
X00613339Y00214002D01*
X00616671D01*
X00618337Y00215668D01*
X00648327Y00243002D02*
Y00252998D01*
X00643329D01*
X00641663Y00251332D01*
Y00248000D01*
X00643329Y00246334D01*
X00648327D01*
X00644995D02*
X00641663Y00243002D01*
X00633332D02*
Y00252998D01*
X00638331Y00248000D01*
X00631666D01*
X00628334Y00251332D02*
X00626668Y00252998D01*
X00623335D01*
X00621669Y00251332D01*
Y00244668D01*
X00623335Y00243002D01*
X00626668D01*
X00628334Y00244668D01*
Y00251332D01*
X00618337Y00243002D02*
X00615005D01*
X00616671D01*
Y00252998D01*
X00618337Y00251332D01*
X00511663Y00438668D02*
Y00445332D01*
X00513329Y00446998D01*
X00516661D01*
X00518327Y00445332D01*
Y00438668D01*
X00516661Y00437002D01*
X00513329D01*
X00514995Y00440334D02*
X00511663Y00437002D01*
X00513329D02*
X00511663Y00438668D01*
X00503332Y00437002D02*
Y00446998D01*
X00508331Y00442000D01*
X00501666D01*
X00498334Y00445332D02*
X00496668Y00446998D01*
X00493335D01*
X00491669Y00445332D01*
Y00438668D01*
X00493335Y00437002D01*
X00496668D01*
X00498334Y00438668D01*
Y00445332D01*
X00488337Y00437002D02*
X00485005D01*
X00486671D01*
Y00446998D01*
X00488337Y00445332D01*
X00407660Y00293998D02*
Y00284002D01*
X00402661D01*
X00400995Y00285668D01*
Y00292332D01*
X00402661Y00293998D01*
X00407660D01*
X00397663D02*
Y00284002D01*
X00392664D01*
X00390998Y00285668D01*
Y00292332D01*
X00392664Y00293998D01*
X00397663D01*
X00381002D02*
X00387666D01*
Y00289000D01*
X00384334Y00290666D01*
X00382668D01*
X00381002Y00289000D01*
Y00285668D01*
X00382668Y00284002D01*
X00386000D01*
X00387666Y00285668D01*
X00377669Y00292332D02*
X00376003Y00293998D01*
X00372671D01*
X00371005Y00292332D01*
Y00285668D01*
X00372671Y00284002D01*
X00376003D01*
X00377669Y00285668D01*
Y00292332D01*
X00367673Y00284002D02*
X00364340D01*
X00366006D01*
Y00293998D01*
X00367673Y00292332D01*
X00418668Y00295663D02*
X00417002Y00297329D01*
Y00300661D01*
X00418668Y00302327D01*
X00425332D01*
X00426998Y00300661D01*
Y00297329D01*
X00425332Y00295663D01*
X00417002Y00285666D02*
Y00292331D01*
X00422000D01*
X00420334Y00288998D01*
Y00287332D01*
X00422000Y00285666D01*
X00425332D01*
X00426998Y00287332D01*
Y00290665D01*
X00425332Y00292331D01*
X00418668Y00282334D02*
X00417002Y00280668D01*
Y00277335D01*
X00418668Y00275669D01*
X00425332D01*
X00426998Y00277335D01*
Y00280668D01*
X00425332Y00282334D01*
X00418668D01*
X00426998Y00265673D02*
Y00272337D01*
X00420334Y00265673D01*
X00418668D01*
X00417002Y00267339D01*
Y00270671D01*
X00418668Y00272337D01*
X00336997Y00300661D02*
X00338663Y00302327D01*
X00341995D01*
X00343661Y00300661D01*
Y00293997D01*
X00341995Y00292331D01*
X00338663D01*
X00336997Y00293997D01*
X00327000Y00302327D02*
X00333665D01*
Y00297329D01*
X00330332Y00298995D01*
X00328666D01*
X00327000Y00297329D01*
Y00293997D01*
X00328666Y00292331D01*
X00331998D01*
X00333665Y00293997D01*
X00323668Y00300661D02*
X00322002Y00302327D01*
X00318669D01*
X00317003Y00300661D01*
Y00293997D01*
X00318669Y00292331D01*
X00322002D01*
X00323668Y00293997D01*
Y00300661D01*
X00313671Y00292331D02*
X00310339D01*
X00312005D01*
Y00302327D01*
X00313671Y00300661D01*
X00532663Y00430332D02*
X00534329Y00431998D01*
X00537661D01*
X00539327Y00430332D01*
Y00423668D01*
X00537661Y00422002D01*
X00534329D01*
X00532663Y00423668D01*
X00524332Y00422002D02*
Y00431998D01*
X00529331Y00427000D01*
X00522666D01*
X00519334Y00430332D02*
X00517668Y00431998D01*
X00514336D01*
X00512669Y00430332D01*
Y00423668D01*
X00514336Y00422002D01*
X00517668D01*
X00519334Y00423668D01*
Y00430332D01*
X00504339Y00422002D02*
Y00431998D01*
X00509337Y00427000D01*
X00502673D01*
X00656668Y00244663D02*
X00655002Y00246329D01*
Y00249661D01*
X00656668Y00251327D01*
X00663332D01*
X00664998Y00249661D01*
Y00246329D01*
X00663332Y00244663D01*
X00664998Y00236332D02*
X00655002D01*
X00660000Y00241331D01*
Y00234666D01*
X00656668Y00231334D02*
X00655002Y00229668D01*
Y00226336D01*
X00656668Y00224669D01*
X00663332D01*
X00664998Y00226336D01*
Y00229668D01*
X00663332Y00231334D01*
X00656668D01*
Y00221337D02*
X00655002Y00219671D01*
Y00216339D01*
X00656668Y00214673D01*
X00658334D01*
X00660000Y00216339D01*
Y00218005D01*
Y00216339D01*
X00661666Y00214673D01*
X00663332D01*
X00664998Y00216339D01*
Y00219671D01*
X00663332Y00221337D01*
X00553663Y00132332D02*
X00555329Y00133998D01*
X00558661D01*
X00560327Y00132332D01*
Y00125668D01*
X00558661Y00124002D01*
X00555329D01*
X00553663Y00125668D01*
X00545332Y00124002D02*
Y00133998D01*
X00550331Y00129000D01*
X00543666D01*
X00540334Y00132332D02*
X00538668Y00133998D01*
X00535336D01*
X00533669Y00132332D01*
Y00125668D01*
X00535336Y00124002D01*
X00538668D01*
X00540334Y00125668D01*
Y00132332D01*
X00523673Y00124002D02*
X00530337D01*
X00523673Y00130666D01*
Y00132332D01*
X00525339Y00133998D01*
X00528671D01*
X00530337Y00132332D01*
X00447668Y00202997D02*
X00446002Y00204663D01*
Y00207995D01*
X00447668Y00209661D01*
X00454332D01*
X00455998Y00207995D01*
Y00204663D01*
X00454332Y00202997D01*
X00455998Y00194666D02*
X00446002D01*
X00451000Y00199664D01*
Y00193000D01*
X00447668Y00189668D02*
X00446002Y00188002D01*
Y00184669D01*
X00447668Y00183003D01*
X00454332D01*
X00455998Y00184669D01*
Y00188002D01*
X00454332Y00189668D01*
X00447668D01*
X00455998Y00179671D02*
Y00176339D01*
Y00178005D01*
X00446002D01*
X00447668Y00179671D01*
X00658002Y00344661D02*
X00666332D01*
X00667998Y00342995D01*
Y00339663D01*
X00666332Y00337997D01*
X00658002D01*
Y00334664D02*
Y00328000D01*
X00659668D01*
X00666332Y00334664D01*
X00667998D01*
X00659668Y00324668D02*
X00658002Y00323002D01*
Y00319669D01*
X00659668Y00318003D01*
X00666332D01*
X00667998Y00319669D01*
Y00323002D01*
X00666332Y00324668D01*
X00659668D01*
X00667998Y00314671D02*
Y00311339D01*
Y00313005D01*
X00658002D01*
X00659668Y00314671D01*
X00751327Y00385002D02*
Y00394998D01*
X00746329D01*
X00744663Y00393332D01*
Y00390000D01*
X00746329Y00388334D01*
X00751327D01*
X00747995D02*
X00744663Y00385002D01*
X00741331Y00394998D02*
X00734666D01*
Y00393332D01*
X00741331Y00386668D01*
Y00385002D01*
X00731334Y00393332D02*
X00729668Y00394998D01*
X00726336D01*
X00724669Y00393332D01*
Y00386668D01*
X00726336Y00385002D01*
X00729668D01*
X00731334Y00386668D01*
Y00393332D01*
X00714673Y00394998D02*
X00721337D01*
Y00390000D01*
X00718005Y00391666D01*
X00716339D01*
X00714673Y00390000D01*
Y00386668D01*
X00716339Y00385002D01*
X00719671D01*
X00721337Y00386668D01*
X00742077Y00243002D02*
Y00252998D01*
X00737079D01*
X00735413Y00251332D01*
Y00248000D01*
X00737079Y00246334D01*
X00742077D01*
X00738745D02*
X00735413Y00243002D01*
X00732081Y00252998D02*
X00725416D01*
Y00251332D01*
X00732081Y00244668D01*
Y00243002D01*
X00722084Y00251332D02*
X00720418Y00252998D01*
X00717085D01*
X00715419Y00251332D01*
Y00244668D01*
X00717085Y00243002D01*
X00720418D01*
X00722084Y00244668D01*
Y00251332D01*
X00705423Y00252998D02*
X00708755Y00251332D01*
X00712087Y00248000D01*
Y00244668D01*
X00710421Y00243002D01*
X00707089D01*
X00705423Y00244668D01*
Y00246334D01*
X00707089Y00248000D01*
X00712087D01*
X00764327Y00229002D02*
Y00238998D01*
X00759329D01*
X00757663Y00237332D01*
Y00234000D01*
X00759329Y00232334D01*
X00764327D01*
X00760995D02*
X00757663Y00229002D01*
X00754331Y00238998D02*
X00747666D01*
Y00237332D01*
X00754331Y00230668D01*
Y00229002D01*
X00744334Y00237332D02*
X00742668Y00238998D01*
X00739335D01*
X00737669Y00237332D01*
Y00230668D01*
X00739335Y00229002D01*
X00742668D01*
X00744334Y00230668D01*
Y00237332D01*
X00729339Y00229002D02*
Y00238998D01*
X00734337Y00234000D01*
X00727673D01*
X00785998Y00315327D02*
X00776002D01*
Y00310329D01*
X00777668Y00308663D01*
X00781000D01*
X00782666Y00310329D01*
Y00315327D01*
Y00311995D02*
X00785998Y00308663D01*
X00776002Y00305331D02*
Y00298666D01*
X00777668D01*
X00784332Y00305331D01*
X00785998D01*
X00777668Y00295334D02*
X00776002Y00293668D01*
Y00290336D01*
X00777668Y00288669D01*
X00784332D01*
X00785998Y00290336D01*
Y00293668D01*
X00784332Y00295334D01*
X00777668D01*
Y00285337D02*
X00776002Y00283671D01*
Y00280339D01*
X00777668Y00278673D01*
X00779334D01*
X00781000Y00280339D01*
Y00282005D01*
Y00280339D01*
X00782666Y00278673D01*
X00784332D01*
X00785998Y00280339D01*
Y00283671D01*
X00784332Y00285337D01*
X00343661Y00287327D02*
X00333665D01*
Y00282329D01*
X00335331Y00280663D01*
X00338663D01*
X00340329Y00282329D01*
Y00287327D01*
Y00283995D02*
X00343661Y00280663D01*
X00333665Y00270666D02*
Y00277331D01*
X00338663D01*
X00336997Y00273998D01*
Y00272332D01*
X00338663Y00270666D01*
X00341995D01*
X00343661Y00272332D01*
Y00275664D01*
X00341995Y00277331D01*
X00335331Y00267334D02*
X00333665Y00265668D01*
Y00262335D01*
X00335331Y00260669D01*
X00341995D01*
X00343661Y00262335D01*
Y00265668D01*
X00341995Y00267334D01*
X00335331D01*
Y00257337D02*
X00333665Y00255671D01*
Y00252339D01*
X00335331Y00250672D01*
X00336997D01*
X00338663Y00252339D01*
X00340329Y00250672D01*
X00341995D01*
X00343661Y00252339D01*
Y00255671D01*
X00341995Y00257337D01*
X00340329D01*
X00338663Y00255671D01*
X00336997Y00257337D01*
X00335331D01*
X00338663Y00255671D02*
Y00252339D01*
X00427327Y00322002D02*
Y00331998D01*
X00422329D01*
X00420663Y00330332D01*
Y00327000D01*
X00422329Y00325334D01*
X00427327D01*
X00423995D02*
X00420663Y00322002D01*
X00410666Y00331998D02*
X00417331D01*
Y00327000D01*
X00413998Y00328666D01*
X00412332D01*
X00410666Y00327000D01*
Y00323668D01*
X00412332Y00322002D01*
X00415664D01*
X00417331Y00323668D01*
X00407334Y00330332D02*
X00405668Y00331998D01*
X00402336D01*
X00400669Y00330332D01*
Y00323668D01*
X00402336Y00322002D01*
X00405668D01*
X00407334Y00323668D01*
Y00330332D01*
X00397337Y00331998D02*
X00390673D01*
Y00330332D01*
X00397337Y00323668D01*
Y00322002D01*
X00426998Y00251002D02*
Y00260998D01*
X00422000D01*
X00420334Y00259332D01*
Y00256000D01*
X00422000Y00254334D01*
X00426998D01*
X00423666D02*
X00420334Y00251002D01*
X00410337Y00260998D02*
X00417002D01*
Y00256000D01*
X00413669Y00257666D01*
X00412003D01*
X00410337Y00256000D01*
Y00252668D01*
X00412003Y00251002D01*
X00415336D01*
X00417002Y00252668D01*
X00407005Y00259332D02*
X00405339Y00260998D01*
X00402006D01*
X00400340Y00259332D01*
Y00252668D01*
X00402006Y00251002D01*
X00405339D01*
X00407005Y00252668D01*
Y00259332D01*
X00390344Y00260998D02*
X00393676Y00259332D01*
X00397008Y00256000D01*
Y00252668D01*
X00395342Y00251002D01*
X00392010D01*
X00390344Y00252668D01*
Y00254334D01*
X00392010Y00256000D01*
X00397008D01*
X00386328Y00322002D02*
Y00331998D01*
X00381329D01*
X00379663Y00330332D01*
Y00327000D01*
X00381329Y00325334D01*
X00386328D01*
X00382995D02*
X00379663Y00322002D01*
X00369666Y00331998D02*
X00376331D01*
Y00327000D01*
X00372998Y00328666D01*
X00371332D01*
X00369666Y00327000D01*
Y00323668D01*
X00371332Y00322002D01*
X00374665D01*
X00376331Y00323668D01*
X00366334Y00330332D02*
X00364668Y00331998D01*
X00361335D01*
X00359669Y00330332D01*
Y00323668D01*
X00361335Y00322002D01*
X00364668D01*
X00366334Y00323668D01*
Y00330332D01*
X00349673Y00331998D02*
X00356337D01*
Y00327000D01*
X00353005Y00328666D01*
X00351339D01*
X00349673Y00327000D01*
Y00323668D01*
X00351339Y00322002D01*
X00354671D01*
X00356337Y00323668D01*
X00799668Y00349663D02*
X00798002Y00351329D01*
Y00354661D01*
X00799668Y00356327D01*
X00806332D01*
X00807998Y00354661D01*
Y00351329D01*
X00806332Y00349663D01*
X00798002Y00346331D02*
Y00339666D01*
X00799668D01*
X00806332Y00346331D01*
X00807998D01*
X00799668Y00336334D02*
X00798002Y00334668D01*
Y00331335D01*
X00799668Y00329669D01*
X00806332D01*
X00807998Y00331335D01*
Y00334668D01*
X00806332Y00336334D01*
X00799668D01*
X00807998Y00319673D02*
Y00326337D01*
X00801334Y00319673D01*
X00799668D01*
X00798002Y00321339D01*
Y00324671D01*
X00799668Y00326337D01*
D12*
X00326540Y00858165D02*
Y00863163D01*
X00328206Y00864829D01*
X00329872Y00863163D01*
Y00859831D01*
X00331538Y00858165D01*
X00333204Y00859831D01*
Y00864829D01*
Y00874826D02*
Y00869828D01*
X00331538Y00868161D01*
X00328206D01*
X00326540Y00869828D01*
Y00874826D01*
Y00878158D02*
Y00881490D01*
Y00879824D01*
X00336536D01*
Y00878158D01*
X00306540Y00858165D02*
Y00863163D01*
X00308206Y00864829D01*
X00309872Y00863163D01*
Y00859831D01*
X00311538Y00858165D01*
X00313204Y00859831D01*
Y00864829D01*
X00316537Y00874826D02*
X00306540D01*
Y00869828D01*
X00308206Y00868162D01*
X00311538D01*
X00313204Y00869828D01*
Y00874826D01*
Y00879825D02*
Y00883157D01*
X00311538Y00884823D01*
X00306540D01*
Y00879825D01*
X00308206Y00878158D01*
X00309872Y00879825D01*
Y00884823D01*
X00283540Y00861497D02*
Y00863163D01*
X00285206Y00864829D01*
X00293537D01*
Y00859831D01*
X00291871Y00858165D01*
X00288538D01*
X00286872Y00859831D01*
Y00864829D01*
Y00868162D02*
X00293537D01*
Y00873160D01*
X00291871Y00874826D01*
X00286872D01*
X00296869Y00884823D02*
X00286872D01*
Y00879825D01*
X00288538Y00878158D01*
X00291871D01*
X00293537Y00879825D01*
Y00884823D01*
X00273204Y00858165D02*
X00266540Y00861497D01*
X00273204Y00864829D01*
Y00874826D02*
Y00869828D01*
X00271538Y00868162D01*
X00268206D01*
X00266540Y00869828D01*
Y00874826D01*
X00273204Y00884823D02*
Y00879825D01*
X00271538Y00878158D01*
X00268206D01*
X00266540Y00879825D01*
Y00884823D01*
X00802460Y00811540D02*
Y00814079D01*
X00799921D01*
Y00811540D01*
X00802460D01*
X00198460D02*
Y00814079D01*
X00195921D01*
Y00811540D01*
X00198460D01*
X00203460Y00675460D02*
X00200921D01*
Y00672921D01*
X00203460D01*
Y00675460D01*
X00160540Y00328540D02*
X00163079D01*
Y00331079D01*
X00160540D01*
Y00328540D01*
X00435460Y00203540D02*
Y00206079D01*
X00432921D01*
Y00203540D01*
X00435460D01*
X00483460Y00187460D02*
X00480921D01*
Y00184921D01*
X00483460D01*
Y00187460D01*
X00432921Y00221460D02*
Y00218921D01*
X00435460D01*
Y00221460D01*
X00432921D01*
X00778540Y00320540D02*
X00781079D01*
Y00323079D01*
X00778540D01*
Y00320540D01*
M02*
