G04*
G04 #@! TF.GenerationSoftware,Altium Limited,Altium Designer,22.1.2 (22)*
G04*
G04 Layer_Color=8388736*
%FSAX44Y44*%
%MOMM*%
G71*
G04*
G04 #@! TF.SameCoordinates,FD085C4F-33D3-4CAD-8C95-339AC6E91DDF*
G04*
G04*
G04 #@! TF.FilePolarity,Positive*
G04*
G01*
G75*
%ADD48C,0.1000*%
D48*
X00644000Y00697000D02*
G03*
X00639000Y00702000I-00005000J00000000D01*
G01*
Y00672000D02*
G03*
X00644000Y00677000I00000000J00005000D01*
G01*
X00301000Y00702000D02*
G03*
X00296000Y00697000I00000000J-00005000D01*
G01*
Y00677000D02*
G03*
X00301000Y00672000I00005000J00000000D01*
G01*
X00387000Y00815000D02*
G03*
X00382000Y00820000I-00005000J00000000D01*
G01*
Y00800000D02*
G03*
X00387000Y00805000I00000000J00005000D01*
G01*
X00213000Y00805000D02*
G03*
X00218000Y00800000I00005000J00000000D01*
G01*
Y00820000D02*
G03*
X00213000Y00815000I00000000J-00005000D01*
G01*
X00722000Y00800000D02*
G03*
X00727000Y00805000I00000000J00005000D01*
G01*
X00553000D02*
G03*
X00558000Y00800000I00005000J00000000D01*
G01*
Y00820000D02*
G03*
X00553000Y00815000I00000000J-00005000D01*
G01*
X00727000D02*
G03*
X00722000Y00820000I-00005000J00000000D01*
G01*
X00296000Y00677000D02*
Y00697000D01*
X00301000Y00672000D02*
X00639000Y00672000D01*
X00301000Y00702000D02*
X00639000D01*
X00644000Y00677000D02*
Y00697000D01*
X00218000Y00800000D02*
X00382000D01*
X00387000Y00805000D02*
Y00815000D01*
X00213000Y00805000D02*
Y00815000D01*
X00218000Y00820000D02*
X00382000D01*
X00553000Y00805000D02*
Y00815000D01*
X00558000Y00820000D02*
X00722000D01*
X00558000Y00800000D02*
X00722000D01*
X00727000Y00805000D02*
Y00815000D01*
X00060000Y00900000D02*
X00880000Y00900000D01*
X00880000Y00844000D02*
Y00900000D01*
X00903000Y00821000D02*
X00940000D01*
X00940000Y00000000D02*
X00940000Y00821000D01*
X-00000000Y00000000D02*
X00940000Y00000000D01*
X-00000000Y00000000D02*
X00000000Y00821000D01*
X00000000Y00821000D02*
X00037000D01*
X00060000Y00844000D02*
Y00900000D01*
X00037000Y00821000D02*
X00060000Y00844000D01*
X00880000D02*
X00903000Y00821000D01*
M02*
