M48
;Layer_Color=9474304
;FILE_FORMAT=4:4
METRIC
;TYPE=PLATED
T1F00S00C0.3000
T2F00S00C0.6000
T3F00S00C1.0000
T4F00S00C1.9000
T5F00S00C2.8000
%
T01
X00011000Y00022000
X00026000Y00052000
X00056000
X00086000
X00116000
X00131000Y00022000
X00161000
X00191000
X00221000
X00251000
X00281000
X00279400Y00093000
X00254000
Y00068000
X00228600
Y00093000
X00203200
Y00068000
X00177800
Y00093000
X00152400
Y00068000
Y00118400
X00116000Y00112000
X00071000Y00082000
Y00022000
X00011000Y00082000
X00026000Y00112000
X00330200Y00093000
Y00068000
X00355600
X00381000
Y00093000
X00371000Y00022000
X00401000
X00431000
X00461000
X00491000
X00521000
X00551000
X00581000
X00611000
X00641000
X00671000
X00686000Y00052000
X00656000
X00626000
X00596000
X00566000
X00536000
X00506000
X00476000
X00482600Y00093000
X00508000
X00506000Y00112000
X00609600Y00093000
X00635000
X00660400
X00685800
X00686000Y00112000
X00341000Y00022000
X00311000
X00701000
X00731000
X00761000
X00791000
X00806000Y00052000
X00836000
X00866000
X00896000
X00926000
Y00112000
X00866000
X00806000
X00821000Y00082000
X00791000
X00776000Y00052000
X00746000
X00716000
X00711200Y00093000
X00701000Y00202000
X00731000
X00761000
X00746000Y00232000
X00716000
X00722000Y00259000
X00712000Y00269000
X00704000Y00283000
X00701000Y00296000
X00714000Y00313000
X00731000Y00322000
X00756000Y00320000
Y00336000
X00759000Y00360000
X00793000Y00368000
X00807000Y00372000
Y00402000
Y00432000
Y00462000
Y00492000
X00839000
Y00462000
Y00432000
Y00402000
Y00372000
Y00342000
X00807000
Y00312000
Y00282000
Y00252000
Y00222000
X00798000Y00187000
Y00159000
X00851000Y00142000
X00881000
X00911000
X00926000Y00172000
X00896000
X00911000Y00202000
X00881000
X00896000Y00232000
X00926000
X00911000Y00262000
X00881000
X00896000Y00292000
X00926000
X00911000Y00322000
X00881000
X00896000Y00352000
X00926000
X00911000Y00382000
X00881000
X00897000Y00408000
X00926000Y00412000
X00911000Y00442000
X00881000
Y00502000
X00911000
X00926000Y00472000
X00866000Y00352000
X00839000Y00282000
X00701000Y00360000
Y00373000
X00717000Y00383000
X00716000Y00412000
X00746000
X00761000Y00442000
X00731000
X00701000
X00716000Y00472000
X00746000
X00761000Y00502000
X00731000
X00701000
X00641000
X00611000
X00626000Y00472000
X00656000
X00641000Y00442000
X00611000
X00581000
X00586213Y00419213
X00581000Y00398000
X00571000
X00561000
X00551000
X00541000
X00531000
X00521000
X00511000
X00501000
X00491000
X00481000
X00471000
X00461000
X00451000
X00441000
X00431000
X00421000
Y00388000
Y00378000
Y00368000
Y00358000
Y00348000
X00405000Y00338000
X00385000
Y00308000
X00405000
X00416000Y00292000
X00405000Y00278000
X00385000
Y00248000
X00405000
X00431000Y00262000
X00491000
X00501000Y00272000
X00506000Y00292000
X00521000Y00322000
X00534000Y00339000
X00536000Y00352000
X00566000
X00581000Y00348000
Y00358000
Y00368000
Y00378000
Y00388000
X00611000Y00382000
X00641000
X00656000Y00412000
X00626000Y00352000
X00596000
X00611000Y00322000
X00641000
X00626000Y00292000
X00594000Y00298000
X00581000Y00322000
X00594000Y00247000
X00608000Y00236000
X00600000Y00205000
X00596000Y00172000
X00562000Y00163250
X00529000Y00198000
Y00214000
X00495000Y00215000
X00469000Y00214000
X00450000Y00204000
Y00192000
Y00180000
X00434000Y00164000
X00434000Y00147000
X00419000Y00139000
X00395000Y00147000
X00371000Y00139000
X00356000Y00146000
Y00199000
X00340000Y00200000
X00356000Y00228000
X00395000Y00183000
X00431000Y00322000
X00440000Y00323000
X00468000
Y00339000
X00476000Y00352000
X00446000
X00405000Y00368000
X00385000
Y00398000
X00406213Y00419213
X00436213
X00466213
X00496213
X00526213
X00556213
X00547250Y00493250
X00596000Y00472000
X00491000Y00382000
X00521000Y00262000
X00310000Y00468000
X00300000
X00303000Y00483000
Y00508000
X00272000Y00483000
X00243000Y00492000
Y00462000
Y00432000
Y00402000
Y00372000
Y00342000
Y00312000
Y00282000
Y00252000
Y00222000
Y00192000
X00208000
X00191000Y00202000
X00161000
X00131000
X00101000
X00116000Y00232000
X00146000
X00176000
X00208000Y00222000
Y00252000
X00191000Y00262000
X00161000
X00131000
X00101000
X00116000Y00292000
X00108000Y00309000
Y00330000
Y00356000
Y00384000
X00121000
X00127000Y00370000
X00143000Y00383000
X00151000Y00362000
X00175000Y00355000
X00167000Y00346000
X00161000Y00322000
X00151000Y00321000
X00146000Y00292000
X00176000
X00208000Y00282000
Y00312000
X00191000Y00322000
X00208000Y00342000
Y00372000
X00187000Y00369000
X00208000Y00402000
Y00432000
X00191000Y00442000
X00208000Y00462000
Y00492000
X00191000Y00502000
X00161000
X00101000
X00071000
X00056000Y00472000
X00027000
X00023000Y00443000
X00027000Y00418000
X00041000Y00382000
X00071000
X00056000Y00352000
X00026000
X00011000Y00322000
X00026000Y00292000
X00056000
X00041000Y00262000
X00011000
X00026000Y00232000
X00041000Y00202000
X00011000
X00026000Y00172000
X00041000Y00142000
X00071000
X00101000
X00011000
X00251000
X00151000Y00409000
X00131000Y00442000
X00146000Y00532000
X00161000Y00562000
X00176000Y00592000
X00146000
X00116000
X00106000Y00607000
X00071000Y00622000
X00027000
X00071000Y00562000
X00101000
X00116000Y00652000
X00146000
X00176000
X00191000Y00622000
X00208000Y00612000
Y00582000
X00243000
Y00612000
X00251000Y00695000
X00263000
X00257000Y00703000
X00251000Y00711000
X00263000
X00222000Y00722000
X00207792
X00194000
X00206000Y00772000
X00236000
X00224000Y00787000
X00254000
X00266000Y00772000
X00254000Y00829000
X00224000
X00281000Y00834000
X00160000Y00851000
X00147000Y00840000
X00101000Y00862000
X00071000
X00086000Y00832000
X00071000Y00802000
Y00742000
X00131000
X00116000Y00712000
X00176000Y00771000
X00011000Y00802000
X00206000Y00532000
X00266000
X00296000
X00326000
X00367000
X00356000Y00592000
X00386000
X00341000Y00622000
X00311000
X00296000Y00592000
X00326000Y00712000
X00356000
X00386000
X00416000
X00446000
X00476000
X00506000
X00536000
X00566000
X00596000
X00626000
Y00772000
X00656000
X00686000
X00596000
X00585000Y00787000
X00555000
X00566000Y00772000
X00536000
X00506000
X00476000
X00446000
X00416000
X00386000
X00376000Y00787000
X00346000
X00356000Y00772000
X00326000
X00296000
X00299000Y00834000
X00310000Y00851000
Y00867000
X00330000Y00873750
Y00851000
X00346000Y00833000
X00376000
X00416000Y00832000
X00446000
X00476000
X00506000
X00536000
X00555000Y00833000
X00585000
X00611000Y00834000
X00629000
X00600000Y00857000
X00581000Y00862000
X00551000
X00521000Y00802000
X00491000
X00461000
X00431000
X00401000
X00416000Y00652000
X00446000
X00476000
X00506000
X00536000
X00566000
X00596000
X00626000
X00641000Y00622000
X00611000
X00626000Y00532000
X00656000
X00596000
X00569000Y00526000
Y00542000
X00547000Y00534000
X00680000Y00873000
X00702000Y00857000
X00695000Y00833000
X00725000
X00748000Y00841000
X00738000Y00880000
X00796000Y00840000
X00809000Y00826000
X00836000Y00832000
X00866000
Y00772000
X00896000
X00926000
X00911000Y00742000
X00881000
X00866000Y00712000
X00812000Y00717000
X00798000
X00783000
X00791000Y00742000
X00821000
X00836000Y00772000
X00806000
X00780000Y00771000
X00761000Y00742000
X00746000Y00712000
X00716000
X00731000Y00682000
X00701000
X00716000Y00652000
X00746000
X00776000
X00807000Y00642000
Y00612000
X00791000Y00622000
X00761000
X00731000
X00701000
X00716000Y00592000
X00746000
X00776000
X00779000Y00570000
Y00555000
Y00540300
Y00525600
X00807000Y00522000
Y00552000
Y00583000
X00839000
Y00612000
Y00642000
Y00672000
X00880000Y00612000
X00896000Y00592000
X00926000
Y00652000
Y00712000
Y00532000
X00910000Y00547000
X00880000Y00538000
X00866000Y00532000
X00839000Y00522000
Y00552000
X00761000Y00562000
X00731000
X00732000Y00544000
Y00519000
X00746000Y00532000
X00701000Y00562000
X00716000Y00772000
X00725000Y00787000
X00695000
T02
X00234000Y00800000
X00244000
Y00820000
X00234000
X00270000
X00290000
X00310000
X00330000
X00356000
X00366000
X00366000Y00800000
X00356000
X00565000Y00800000
X00575000
Y00820000
X00565000
X00600000
X00620000
X00640000
X00660000
X00680000
X00705000
X00715000
Y00800000
X00705000
T03
X00165200Y00080300
Y00105700
X00190600
X00216000
Y00080300
X00190600
X00241400
X00266800
Y00105700
X00292200
Y00080300
X00241400Y00105700
X00317600
Y00080300
X00343000
Y00105700
X00368400
Y00080300
X00393800
Y00105700
X00419200
Y00080300
X00444600
Y00105700
X00470000
Y00080300
X00495400
Y00105700
X00520800
Y00080300
X00546200
Y00105700
X00571600
Y00080300
X00597000
Y00105700
X00622400
Y00080300
X00647800
Y00105700
X00673200
Y00080300
X00698600
Y00105700
X00724000
Y00080300
X00749400
Y00105700
X00774800
Y00080300
X00856900Y00188700
Y00214100
X00856900Y00239500
X00856900Y00264900
Y00290300
Y00315700
Y00341100
Y00366500
X00856900Y00391900
X00856900Y00417300
Y00442700
X00856900Y00468100
X00856900Y00493500
X00679100Y00493500
Y00468100
Y00442700
X00679100Y00417300
X00679100Y00391900
Y00366500
X00679100Y00341100
X00679100Y00315700
X00679100Y00290300
X00679100Y00264900
Y00239500
Y00214100
X00679100Y00188700
X00260900Y00188700
Y00214100
Y00239500
Y00264900
Y00290300
Y00315700
Y00341100
Y00366500
Y00391900
Y00417300
Y00442700
Y00468100
Y00493500
X00083100
Y00468100
Y00442700
Y00417300
Y00391900
Y00366500
Y00341100
Y00315700
Y00290300
Y00264900
Y00239500
Y00214100
Y00188700
Y00518900
Y00544300
Y00569700
Y00595100
Y00620500
Y00645900
Y00671300
X00260900
Y00645900
Y00620500
Y00595100
Y00569700
Y00544300
Y00518900
X00368400Y00607300
Y00632700
X00393800
Y00607300
X00419200
X00419200Y00632700
X00444600
Y00607300
X00470000Y00607300
Y00632700
X00495400
Y00607300
X00520800
X00546200
Y00632700
X00520800
X00571600
Y00607300
X00679100Y00595100
Y00620500
X00679100Y00645900
X00679100Y00671300
X00679100Y00569700
X00679100Y00544300
X00679100Y00518900
X00856900
Y00544300
Y00569700
X00856900Y00595100
X00856900Y00620500
X00856900Y00645900
Y00671300
T04
X00046000Y00020500
X00096000
Y00095500
X00046000
X00844000
X00894000
Y00020500
X00844000
X00096000Y00724500
X00046000
Y00799500
X00096000
X00844000
X00894000
Y00724500
X00844000
T05
X00325000Y00567700
X00615000
M30
