G04*
G04 #@! TF.GenerationSoftware,Altium Limited,Altium Designer,22.1.2 (22)*
G04*
G04 Layer_Color=65535*
%FSAX44Y44*%
%MOMM*%
G71*
G04*
G04 #@! TF.SameCoordinates,85A146D6-B946-4844-9BAA-ECA2B8BB7C66*
G04*
G04*
G04 #@! TF.FilePolarity,Positive*
G04*
G01*
G75*
%ADD10C,0.2500*%
%ADD11C,0.0100*%
%ADD12C,0.1530*%
%ADD13C,0.2000*%
G36*
X00158582Y00161760D02*
X00158587Y00161758D01*
X00158598Y00161754D01*
X00158609Y00161752D01*
X00158620Y00161750D01*
X00158626Y00161750D01*
Y00161750D01*
X00158634Y00161749D01*
X00158651Y00161747D01*
X00158668Y00161746D01*
X00158685Y00161746D01*
X00158693Y00161746D01*
Y00161746D01*
X00158705Y00161746D01*
X00158728Y00161746D01*
X00158751Y00161746D01*
X00158775Y00161747D01*
X00158786Y00161747D01*
X00158820Y00161748D01*
X00158888Y00161752D01*
X00158955Y00161756D01*
X00159023Y00161760D01*
X00159057Y00161762D01*
X00159095Y00161765D01*
X00159170Y00161768D01*
X00159246Y00161769D01*
X00159322Y00161768D01*
X00159360Y00161766D01*
X00159394Y00161764D01*
X00159461Y00161758D01*
X00159528Y00161748D01*
X00159595Y00161736D01*
X00159628Y00161728D01*
X00159659Y00161720D01*
X00159720Y00161702D01*
X00159780Y00161680D01*
X00159839Y00161654D01*
X00159867Y00161640D01*
X00159896Y00161625D01*
X00159953Y00161591D01*
X00160007Y00161555D01*
X00160060Y00161515D01*
X00160085Y00161494D01*
X00160112Y00161469D01*
X00160166Y00161419D01*
X00160216Y00161365D01*
X00160264Y00161310D01*
X00160287Y00161281D01*
X00160314Y00161246D01*
X00160365Y00161176D01*
X00160413Y00161104D01*
X00160459Y00161030D01*
X00160481Y00160993D01*
X00160507Y00160947D01*
X00160557Y00160855D01*
X00160605Y00160762D01*
X00160650Y00160668D01*
X00160672Y00160621D01*
X00160698Y00160563D01*
X00160749Y00160448D01*
X00160798Y00160332D01*
X00160846Y00160216D01*
X00160868Y00160157D01*
X00160926Y00160004D01*
X00161039Y00159697D01*
X00161147Y00159388D01*
X00161250Y00159077D01*
X00161301Y00158921D01*
X00161301Y00158921D01*
X00161332Y00158824D01*
X00161396Y00158630D01*
X00161460Y00158436D01*
X00161526Y00158243D01*
X00161560Y00158146D01*
X00161589Y00158060D01*
X00161650Y00157889D01*
X00161712Y00157718D01*
X00161775Y00157548D01*
X00161808Y00157463D01*
X00161837Y00157386D01*
X00161896Y00157234D01*
X00161958Y00157083D01*
X00162021Y00156932D01*
X00162053Y00156857D01*
X00162083Y00156789D01*
X00162143Y00156653D01*
X00162206Y00156518D01*
X00162270Y00156383D01*
X00162303Y00156317D01*
X00162393Y00156135D01*
X00162590Y00155781D01*
X00162805Y00155438D01*
X00163037Y00155106D01*
X00163162Y00154947D01*
X00163204Y00154893D01*
X00163290Y00154787D01*
X00163377Y00154683D01*
X00163465Y00154580D01*
X00163510Y00154529D01*
X00163610Y00154417D01*
X00163815Y00154198D01*
X00164025Y00153984D01*
X00164238Y00153774D01*
X00164348Y00153671D01*
X00164645Y00153387D01*
X00165285Y00152872D01*
X00165966Y00152411D01*
X00166683Y00152009D01*
X00167057Y00151839D01*
Y00151839D01*
X00167155Y00151794D01*
X00167353Y00151708D01*
X00167551Y00151626D01*
X00167752Y00151548D01*
X00167853Y00151511D01*
X00167958Y00151472D01*
X00168169Y00151399D01*
X00168381Y00151329D01*
X00168595Y00151264D01*
X00168703Y00151233D01*
X00168815Y00151200D01*
X00169041Y00151139D01*
X00169268Y00151081D01*
X00169497Y00151027D01*
X00169611Y00151002D01*
X00169732Y00150975D01*
X00169974Y00150926D01*
X00170217Y00150880D01*
X00170460Y00150837D01*
X00170582Y00150818D01*
X00170849Y00150776D01*
X00171384Y00150704D01*
X00171920Y00150646D01*
X00172458Y00150600D01*
X00172727Y00150583D01*
X00172834Y00150576D01*
X00173047Y00150564D01*
X00173261Y00150553D01*
X00173475Y00150544D01*
X00173582Y00150540D01*
X00173934Y00150527D01*
X00174639Y00150510D01*
X00175345Y00150500D01*
X00176050Y00150500D01*
X00176403Y00150503D01*
X00176403D01*
X00177268Y00150518D01*
X00177361Y00150520D01*
X00177548Y00150526D01*
X00177735Y00150533D01*
X00177921Y00150540D01*
X00178015Y00150544D01*
X00178087Y00150548D01*
X00178232Y00150555D01*
X00178377Y00150564D01*
X00178522Y00150575D01*
X00178595Y00150581D01*
X00178640Y00150584D01*
X00178732Y00150593D01*
X00178823Y00150604D01*
X00178914Y00150618D01*
X00178959Y00150626D01*
Y00150626D01*
X00179037Y00150624D01*
X00179099Y00150766D01*
X00178990Y00150876D01*
X00178847Y00150817D01*
X00178848Y00150739D01*
X00178489Y00150807D01*
X00177779Y00150987D01*
X00177087Y00151223D01*
X00176415Y00151514D01*
X00176089Y00151680D01*
X00175882Y00151793D01*
X00175477Y00152034D01*
X00175084Y00152295D01*
X00174706Y00152576D01*
X00174523Y00152724D01*
X00174437Y00152796D01*
X00174269Y00152944D01*
X00174105Y00153097D01*
X00173945Y00153254D01*
X00173867Y00153334D01*
X00173867Y00153334D01*
X00173794Y00153411D01*
X00173651Y00153570D01*
X00173513Y00153733D01*
X00173381Y00153900D01*
X00173316Y00153985D01*
X00173257Y00154067D01*
X00173143Y00154233D01*
X00173035Y00154403D01*
X00172933Y00154577D01*
X00172885Y00154666D01*
X00172800Y00154830D01*
X00172655Y00155169D01*
X00172544Y00155521D01*
X00172468Y00155882D01*
X00172443Y00156065D01*
X00172438Y00156125D01*
X00172430Y00156247D01*
X00172427Y00156369D01*
X00172429Y00156491D01*
X00172432Y00156552D01*
X00172443Y00156714D01*
X00172500Y00157036D01*
X00172600Y00157346D01*
X00172743Y00157639D01*
X00172829Y00157777D01*
X00172860Y00157821D01*
X00172925Y00157907D01*
X00172994Y00157989D01*
X00173066Y00158068D01*
X00173104Y00158106D01*
X00173144Y00158145D01*
X00173227Y00158221D01*
X00173314Y00158293D01*
X00173403Y00158362D01*
X00173449Y00158394D01*
X00173449Y00158394D01*
X00173498Y00158428D01*
X00173600Y00158494D01*
X00173703Y00158555D01*
X00173809Y00158613D01*
X00173863Y00158641D01*
X00173922Y00158670D01*
X00174041Y00158725D01*
X00174162Y00158776D01*
X00174285Y00158823D01*
X00174347Y00158846D01*
X00174490Y00158893D01*
X00174780Y00158977D01*
X00175073Y00159048D01*
X00175369Y00159104D01*
X00175519Y00159127D01*
X00175548Y00159131D01*
X00175605Y00159139D01*
X00175663Y00159148D01*
X00175721Y00159155D01*
X00175750Y00159159D01*
X00175831Y00159169D01*
X00175993Y00159185D01*
X00176155Y00159196D01*
X00176317Y00159203D01*
X00176399Y00159204D01*
X00176427Y00159204D01*
X00176485Y00159204D01*
X00176542Y00159203D01*
X00176600Y00159202D01*
X00176629Y00159201D01*
X00176660Y00159200D01*
X00176723Y00159198D01*
X00176786Y00159195D01*
X00176849Y00159191D01*
X00176880Y00159189D01*
X00176916Y00159187D01*
X00176986Y00159182D01*
X00177057Y00159177D01*
X00177127Y00159171D01*
X00177163Y00159167D01*
X00177203Y00159164D01*
X00177283Y00159156D01*
X00177364Y00159148D01*
X00177444Y00159140D01*
X00177484Y00159136D01*
X00177584Y00159125D01*
X00177784Y00159102D01*
X00177983Y00159079D01*
X00178182Y00159054D01*
X00178281Y00159042D01*
Y00159042D01*
X00178469Y00159018D01*
X00178846Y00158975D01*
X00179223Y00158937D01*
X00179600Y00158904D01*
X00179789Y00158890D01*
X00179959Y00158877D01*
X00180301Y00158857D01*
X00180643Y00158843D01*
X00180985Y00158834D01*
X00181156Y00158832D01*
Y00158832D01*
X00181311Y00158831D01*
X00181619Y00158834D01*
X00181928Y00158843D01*
X00182236Y00158859D01*
X00182390Y00158870D01*
X00182529Y00158879D01*
X00182806Y00158906D01*
X00183082Y00158940D01*
X00183357Y00158980D01*
X00183494Y00159004D01*
Y00159004D01*
X00183619Y00159026D01*
X00183866Y00159076D01*
X00184111Y00159135D01*
X00184355Y00159200D01*
X00184475Y00159237D01*
X00185002Y00159381D01*
X00185971Y00159885D01*
X00186810Y00160585D01*
X00187480Y00161448D01*
X00187715Y00161941D01*
X00187715D01*
X00188002Y00162488D01*
X00188309Y00163685D01*
X00188334Y00164920D01*
X00188075Y00166128D01*
X00187811Y00166686D01*
X00187810Y00166686D01*
X00187733Y00166855D01*
X00187544Y00167173D01*
X00187323Y00167469D01*
X00187071Y00167741D01*
X00186932Y00167863D01*
X00186861Y00167925D01*
X00186714Y00168042D01*
X00186560Y00168151D01*
X00186401Y00168252D01*
X00186319Y00168299D01*
X00186277Y00168323D01*
X00186190Y00168370D01*
X00186103Y00168415D01*
X00186014Y00168458D01*
X00185970Y00168478D01*
X00185970Y00168478D01*
X00185923Y00168500D01*
X00185829Y00168540D01*
X00185735Y00168578D01*
X00185639Y00168615D01*
X00185591Y00168632D01*
X00185488Y00168668D01*
X00185280Y00168734D01*
X00185069Y00168791D01*
X00184856Y00168841D01*
X00184748Y00168862D01*
X00184611Y00168889D01*
X00184332Y00168926D01*
X00184052Y00168944D01*
X00183771Y00168942D01*
X00183631Y00168932D01*
Y00168932D01*
X00183501Y00168923D01*
X00183245Y00168887D01*
X00182992Y00168832D01*
X00182743Y00168760D01*
X00182621Y00168716D01*
X00182564Y00168694D01*
X00182451Y00168648D01*
X00182340Y00168597D01*
X00182232Y00168542D01*
X00182178Y00168512D01*
X00182178Y00168512D01*
X00182127Y00168483D01*
X00182027Y00168422D01*
X00181930Y00168357D01*
X00181835Y00168288D01*
X00181789Y00168251D01*
X00181745Y00168216D01*
X00181660Y00168141D01*
X00181578Y00168063D01*
X00181500Y00167981D01*
X00181463Y00167938D01*
X00181352Y00167814D01*
X00181173Y00167532D01*
X00181042Y00167226D01*
X00180960Y00166903D01*
X00180945Y00166737D01*
X00180943Y00166718D01*
X00180940Y00166680D01*
X00180938Y00166642D01*
X00180935Y00166604D01*
X00180934Y00166585D01*
X00180933Y00166569D01*
X00180931Y00166536D01*
X00180930Y00166504D01*
X00180928Y00166471D01*
X00180928Y00166455D01*
X00180928Y00166441D01*
X00180928Y00166412D01*
X00180928Y00166384D01*
X00180929Y00166356D01*
X00180930Y00166342D01*
X00180930Y00166330D01*
X00180932Y00166306D01*
X00180934Y00166281D01*
X00180937Y00166257D01*
X00180939Y00166245D01*
X00180942Y00166223D01*
X00180951Y00166181D01*
X00180962Y00166140D01*
X00180976Y00166099D01*
X00180985Y00166079D01*
X00180989Y00166070D01*
X00180998Y00166051D01*
X00181008Y00166032D01*
X00181018Y00166014D01*
X00181024Y00166005D01*
X00181030Y00165995D01*
X00181042Y00165977D01*
X00181054Y00165958D01*
X00181068Y00165940D01*
X00181074Y00165931D01*
X00181091Y00165910D01*
X00181125Y00165869D01*
X00181160Y00165829D01*
X00181196Y00165791D01*
X00181215Y00165772D01*
X00181239Y00165747D01*
X00181289Y00165702D01*
X00181342Y00165659D01*
X00181398Y00165620D01*
X00181427Y00165603D01*
Y00165603D01*
X00181456Y00165586D01*
X00181515Y00165555D01*
X00181575Y00165528D01*
X00181637Y00165504D01*
X00181669Y00165494D01*
X00181764Y00165465D01*
X00181960Y00165436D01*
X00182159Y00165435D01*
X00182355Y00165463D01*
X00182450Y00165491D01*
X00182481Y00165500D01*
X00182542Y00165521D01*
X00182601Y00165545D01*
X00182660Y00165571D01*
X00182688Y00165586D01*
X00182716Y00165600D01*
X00182769Y00165632D01*
X00182821Y00165666D01*
X00182871Y00165703D01*
X00182894Y00165723D01*
X00182894Y00165723D01*
X00182918Y00165742D01*
X00182961Y00165784D01*
X00183002Y00165828D01*
X00183040Y00165874D01*
X00183057Y00165899D01*
X00183092Y00165948D01*
X00183147Y00166056D01*
X00183183Y00166171D01*
X00183202Y00166290D01*
X00183202Y00166351D01*
X00183202D01*
X00183202Y00166366D01*
X00183201Y00166397D01*
X00183198Y00166428D01*
X00183195Y00166459D01*
X00183193Y00166474D01*
X00183191Y00166490D01*
X00183185Y00166523D01*
X00183179Y00166556D01*
X00183171Y00166589D01*
X00183167Y00166605D01*
X00183149Y00166675D01*
X00183102Y00166812D01*
X00183045Y00166945D01*
X00182977Y00167074D01*
X00182939Y00167135D01*
X00182930Y00167150D01*
X00182911Y00167179D01*
X00182891Y00167208D01*
X00182871Y00167236D01*
X00182860Y00167250D01*
X00182851Y00167263D01*
X00182830Y00167288D01*
X00182810Y00167313D01*
X00182788Y00167337D01*
X00182777Y00167349D01*
X00182759Y00167370D01*
X00182718Y00167409D01*
X00182675Y00167444D01*
X00182629Y00167475D01*
X00182605Y00167489D01*
X00182605Y00167489D01*
X00182598Y00167493D01*
X00182586Y00167500D01*
X00182573Y00167507D01*
X00182561Y00167514D01*
X00182554Y00167518D01*
X00182549Y00167521D01*
X00182539Y00167527D01*
X00182529Y00167534D01*
X00182519Y00167540D01*
X00182514Y00167544D01*
X00182511Y00167547D01*
X00182503Y00167553D01*
X00182496Y00167559D01*
X00182489Y00167566D01*
X00182485Y00167569D01*
X00182467Y00167594D01*
X00182458Y00167621D01*
X00182458D01*
X00182459Y00167649D01*
X00182460Y00167653D01*
X00182463Y00167661D01*
X00182466Y00167669D01*
X00182469Y00167677D01*
X00182471Y00167681D01*
X00182473Y00167686D01*
X00182478Y00167695D01*
X00182484Y00167704D01*
X00182489Y00167713D01*
X00182492Y00167717D01*
X00182501Y00167729D01*
X00182518Y00167752D01*
X00182536Y00167775D01*
X00182554Y00167797D01*
X00182564Y00167808D01*
X00182590Y00167837D01*
X00182644Y00167894D01*
X00182702Y00167948D01*
X00182762Y00167999D01*
X00182793Y00168024D01*
X00182855Y00168069D01*
X00182987Y00168150D01*
X00183126Y00168218D01*
X00183272Y00168271D01*
X00183346Y00168293D01*
Y00168293D01*
X00183384Y00168303D01*
X00183462Y00168319D01*
X00183541Y00168333D01*
X00183619Y00168343D01*
X00183659Y00168347D01*
X00183700Y00168350D01*
X00183783Y00168353D01*
X00183866Y00168354D01*
X00183948Y00168350D01*
X00183990Y00168347D01*
X00184033Y00168344D01*
X00184119Y00168334D01*
X00184205Y00168321D01*
X00184290Y00168305D01*
X00184332Y00168296D01*
Y00168296D01*
X00184377Y00168285D01*
X00184465Y00168262D01*
X00184552Y00168236D01*
X00184639Y00168207D01*
X00184681Y00168191D01*
X00184726Y00168174D01*
X00184815Y00168138D01*
X00184902Y00168099D01*
X00184989Y00168057D01*
X00185032Y00168035D01*
X00185122Y00167986D01*
X00185300Y00167879D01*
X00185471Y00167762D01*
X00185634Y00167635D01*
X00185714Y00167568D01*
X00185909Y00167390D01*
X00186256Y00166991D01*
X00186535Y00166542D01*
X00186740Y00166054D01*
X00186814Y00165800D01*
X00186837Y00165695D01*
X00186875Y00165483D01*
X00186901Y00165268D01*
X00186914Y00165053D01*
X00186915Y00164945D01*
X00186915Y00164888D01*
X00186912Y00164774D01*
X00186906Y00164661D01*
X00186898Y00164548D01*
X00186892Y00164491D01*
X00186877Y00164370D01*
X00186840Y00164130D01*
X00186791Y00163892D01*
X00186730Y00163656D01*
X00186696Y00163539D01*
X00186696D01*
X00186675Y00163470D01*
X00186630Y00163332D01*
X00186583Y00163196D01*
X00186533Y00163060D01*
X00186507Y00162992D01*
X00186482Y00162929D01*
X00186429Y00162803D01*
X00186374Y00162679D01*
X00186315Y00162556D01*
X00186285Y00162495D01*
X00186285Y00162495D01*
X00186196Y00162325D01*
X00185996Y00161998D01*
X00185769Y00161689D01*
X00185517Y00161400D01*
X00185382Y00161264D01*
X00185335Y00161220D01*
X00185239Y00161134D01*
X00185141Y00161050D01*
X00185040Y00160969D01*
X00184989Y00160930D01*
X00184935Y00160889D01*
X00184826Y00160810D01*
X00184715Y00160735D01*
X00184602Y00160661D01*
X00184545Y00160626D01*
X00184484Y00160589D01*
X00184360Y00160518D01*
X00184235Y00160449D01*
X00184109Y00160383D01*
X00184045Y00160351D01*
X00183901Y00160282D01*
X00183609Y00160151D01*
X00183313Y00160031D01*
X00183014Y00159921D01*
X00182863Y00159869D01*
X00182863D01*
X00182591Y00159779D01*
X00182561Y00159769D01*
X00182502Y00159751D01*
X00182443Y00159733D01*
X00182384Y00159715D01*
X00182354Y00159707D01*
X00182326Y00159699D01*
X00182270Y00159684D01*
X00182213Y00159670D01*
X00182157Y00159657D01*
X00182128Y00159651D01*
X00182098Y00159645D01*
X00182039Y00159633D01*
X00181979Y00159623D01*
X00181919Y00159614D01*
X00181889Y00159610D01*
X00181855Y00159605D01*
X00181787Y00159597D01*
X00181718Y00159590D01*
X00181649Y00159584D01*
X00181615Y00159581D01*
X00181573Y00159578D01*
X00181489Y00159573D01*
X00181406Y00159568D01*
X00181322Y00159565D01*
X00181280Y00159563D01*
X00181228Y00159562D01*
X00181123Y00159559D01*
X00181018Y00159557D01*
X00180914Y00159556D01*
X00180861Y00159555D01*
X00180861Y00159555D01*
X00180336Y00159554D01*
X00178867Y00159567D01*
X00177963Y00159573D01*
X00177176Y00159568D01*
X00177091Y00159567D01*
X00176921Y00159564D01*
X00176750Y00159560D01*
X00176579Y00159555D01*
X00176494Y00159552D01*
X00176420Y00159549D01*
X00176272Y00159543D01*
X00176124Y00159535D01*
X00175977Y00159527D01*
X00175903Y00159522D01*
X00175839Y00159518D01*
X00175711Y00159508D01*
X00175582Y00159497D01*
X00175455Y00159485D01*
X00175391Y00159478D01*
X00175335Y00159472D01*
X00175223Y00159458D01*
X00175111Y00159443D01*
X00175000Y00159427D01*
X00174945Y00159418D01*
X00174895Y00159410D01*
X00174797Y00159392D01*
X00174699Y00159373D01*
X00174601Y00159352D01*
X00174552Y00159340D01*
X00174425Y00159311D01*
X00174174Y00159238D01*
X00173928Y00159150D01*
X00173687Y00159048D01*
X00173570Y00158990D01*
X00173505Y00158959D01*
X00173375Y00158891D01*
X00173249Y00158819D01*
X00173124Y00158743D01*
X00173063Y00158703D01*
X00172784Y00158530D01*
X00172303Y00158084D01*
X00171916Y00157554D01*
X00171637Y00156960D01*
X00171556Y00156641D01*
X00171540Y00156577D01*
X00171513Y00156447D01*
X00171490Y00156315D01*
X00171473Y00156184D01*
X00171466Y00156117D01*
X00171459Y00156048D01*
X00171450Y00155909D01*
X00171446Y00155770D01*
X00171446Y00155630D01*
X00171448Y00155561D01*
X00171448D01*
X00171454Y00155408D01*
X00171483Y00155104D01*
X00171529Y00154803D01*
X00171592Y00154504D01*
X00171632Y00154356D01*
X00171632D01*
X00171643Y00154316D01*
X00171663Y00154235D01*
X00171684Y00154155D01*
X00171704Y00154073D01*
X00171714Y00154033D01*
X00171714Y00154033D01*
X00171749Y00153884D01*
X00171781Y00153747D01*
X00171807Y00153623D01*
X00171810Y00153609D01*
X00171815Y00153582D01*
X00171820Y00153555D01*
X00171825Y00153529D01*
X00171828Y00153515D01*
X00171828D01*
X00171830Y00153504D01*
X00171834Y00153482D01*
X00171838Y00153459D01*
X00171841Y00153437D01*
X00171843Y00153426D01*
X00171845Y00153417D01*
X00171847Y00153400D01*
X00171849Y00153383D01*
X00171851Y00153365D01*
X00171852Y00153357D01*
X00171850Y00153289D01*
Y00153289D01*
X00171835Y00153285D01*
X00171831Y00153285D01*
X00171824Y00153285D01*
X00171817Y00153286D01*
X00171810Y00153287D01*
X00171806Y00153288D01*
X00171801Y00153289D01*
X00171791Y00153291D01*
X00171781Y00153293D01*
X00171770Y00153296D01*
X00171765Y00153297D01*
X00171759Y00153299D01*
X00171746Y00153303D01*
X00171733Y00153306D01*
X00171721Y00153310D01*
X00171714Y00153313D01*
Y00153313D01*
X00171707Y00153315D01*
X00171691Y00153320D01*
X00171676Y00153326D01*
X00171661Y00153331D01*
X00171654Y00153334D01*
X00171645Y00153337D01*
X00171628Y00153343D01*
X00171611Y00153350D01*
X00171593Y00153357D01*
X00171585Y00153360D01*
X00171575Y00153364D01*
X00171556Y00153372D01*
X00171537Y00153379D01*
X00171518Y00153387D01*
X00171509Y00153391D01*
X00171499Y00153396D01*
X00171478Y00153404D01*
X00171458Y00153413D01*
X00171438Y00153422D01*
X00171427Y00153427D01*
X00171405Y00153436D01*
X00171361Y00153457D01*
X00171318Y00153477D01*
X00171274Y00153498D01*
X00171252Y00153509D01*
X00171252Y00153509D01*
X00171222Y00153524D01*
X00171162Y00153555D01*
X00171103Y00153588D01*
X00171045Y00153622D01*
X00171017Y00153640D01*
X00170985Y00153660D01*
X00170923Y00153700D01*
X00170861Y00153742D01*
X00170800Y00153785D01*
X00170770Y00153807D01*
X00170737Y00153831D01*
X00170673Y00153879D01*
X00170610Y00153928D01*
X00170548Y00153979D01*
X00170517Y00154004D01*
X00170517D01*
X00170452Y00154059D01*
X00170323Y00154172D01*
X00170198Y00154288D01*
X00170075Y00154407D01*
X00170015Y00154468D01*
X00169954Y00154530D01*
X00169836Y00154657D01*
X00169720Y00154787D01*
X00169608Y00154920D01*
X00169553Y00154987D01*
X00169527Y00155020D01*
X00169475Y00155086D01*
X00169425Y00155153D01*
X00169375Y00155221D01*
X00169350Y00155255D01*
X00169306Y00155317D01*
X00169220Y00155445D01*
X00169140Y00155576D01*
X00169064Y00155710D01*
X00169028Y00155778D01*
X00169017Y00155799D01*
X00168995Y00155842D01*
X00168974Y00155885D01*
X00168953Y00155928D01*
X00168943Y00155950D01*
X00168933Y00155969D01*
X00168915Y00156009D01*
X00168897Y00156048D01*
X00168880Y00156087D01*
X00168872Y00156107D01*
X00168849Y00156160D01*
X00168809Y00156267D01*
X00168774Y00156377D01*
X00168744Y00156488D01*
X00168732Y00156544D01*
X00168728Y00156563D01*
X00168720Y00156601D01*
X00168714Y00156640D01*
X00168708Y00156679D01*
X00168705Y00156698D01*
X00168702Y00156719D01*
X00168697Y00156762D01*
X00168692Y00156804D01*
X00168688Y00156846D01*
X00168686Y00156867D01*
X00168685Y00156891D01*
X00168681Y00156938D01*
X00168678Y00156986D01*
X00168676Y00157033D01*
X00168675Y00157057D01*
X00168672Y00157114D01*
X00168669Y00157231D01*
X00168667Y00157346D01*
X00168666Y00157462D01*
Y00157520D01*
X00168666Y00157551D01*
X00168666Y00157612D01*
X00168666Y00157673D01*
X00168667Y00157734D01*
X00168667Y00157765D01*
X00168668Y00157792D01*
X00168669Y00157845D01*
X00168670Y00157899D01*
X00168672Y00157952D01*
X00168673Y00157979D01*
X00168674Y00158003D01*
X00168676Y00158050D01*
X00168679Y00158097D01*
X00168682Y00158145D01*
X00168684Y00158168D01*
X00168686Y00158190D01*
X00168690Y00158232D01*
X00168694Y00158275D01*
X00168699Y00158317D01*
X00168702Y00158338D01*
X00168707Y00158376D01*
X00168720Y00158453D01*
X00168735Y00158529D01*
X00168752Y00158604D01*
X00168762Y00158641D01*
X00168767Y00158660D01*
X00168777Y00158696D01*
X00168788Y00158732D01*
X00168799Y00158768D01*
X00168806Y00158786D01*
X00168812Y00158804D01*
X00168825Y00158841D01*
X00168839Y00158878D01*
X00168853Y00158915D01*
X00168860Y00158933D01*
X00168877Y00158974D01*
X00168912Y00159055D01*
X00168949Y00159136D01*
X00168987Y00159216D01*
X00169007Y00159256D01*
X00169024Y00159292D01*
X00169061Y00159362D01*
X00169098Y00159432D01*
X00169138Y00159502D01*
X00169158Y00159536D01*
X00169180Y00159572D01*
X00169224Y00159642D01*
X00169269Y00159712D01*
X00169315Y00159782D01*
X00169339Y00159816D01*
X00169364Y00159852D01*
X00169415Y00159922D01*
X00169467Y00159992D01*
X00169520Y00160061D01*
X00169548Y00160095D01*
X00169576Y00160130D01*
X00169633Y00160199D01*
X00169691Y00160268D01*
X00169750Y00160335D01*
X00169780Y00160369D01*
X00169977Y00160577D01*
X00170395Y00160969D01*
X00170843Y00161327D01*
X00171317Y00161648D01*
X00171563Y00161794D01*
X00171664Y00161851D01*
X00171862Y00161967D01*
X00172059Y00162085D01*
X00172255Y00162207D01*
X00172352Y00162269D01*
X00172441Y00162327D01*
X00172617Y00162444D01*
X00172792Y00162565D01*
X00172964Y00162689D01*
X00173049Y00162753D01*
X00173128Y00162812D01*
X00173283Y00162932D01*
X00173435Y00163056D01*
X00173584Y00163183D01*
X00173658Y00163248D01*
X00173726Y00163308D01*
X00173860Y00163432D01*
X00173990Y00163559D01*
X00174118Y00163689D01*
X00174180Y00163756D01*
X00174180D01*
X00174238Y00163819D01*
X00174351Y00163947D01*
X00174460Y00164078D01*
X00174565Y00164212D01*
X00174616Y00164281D01*
X00174855Y00164597D01*
X00175222Y00165298D01*
X00175469Y00166051D01*
X00175589Y00166834D01*
X00175584Y00167230D01*
X00175584Y00167230D01*
Y00168023D01*
X00175066Y00167574D01*
X00175045Y00167556D01*
X00175004Y00167521D01*
X00174962Y00167486D01*
X00174920Y00167453D01*
X00174899Y00167436D01*
X00174899D01*
X00174857Y00167403D01*
X00174772Y00167340D01*
X00174685Y00167279D01*
X00174597Y00167221D01*
X00174552Y00167193D01*
X00174528Y00167179D01*
X00174481Y00167150D01*
X00174433Y00167123D01*
X00174384Y00167096D01*
X00174360Y00167083D01*
X00174334Y00167069D01*
X00174281Y00167042D01*
X00174228Y00167015D01*
X00174175Y00166989D01*
X00174148Y00166977D01*
X00174119Y00166963D01*
X00174060Y00166936D01*
X00174001Y00166910D01*
X00173941Y00166885D01*
X00173911Y00166872D01*
Y00166872D01*
X00173878Y00166858D01*
X00173811Y00166831D01*
X00173745Y00166805D01*
X00173677Y00166779D01*
X00173644Y00166766D01*
X00173606Y00166752D01*
X00173530Y00166724D01*
X00173454Y00166697D01*
X00173378Y00166670D01*
X00173340Y00166656D01*
X00173248Y00166625D01*
X00173063Y00166563D01*
X00172878Y00166503D01*
X00172693Y00166444D01*
X00172600Y00166415D01*
X00172502Y00166384D01*
X00172307Y00166320D01*
X00172114Y00166252D01*
X00171921Y00166180D01*
X00171826Y00166142D01*
X00171737Y00166108D01*
X00171562Y00166034D01*
X00171388Y00165956D01*
X00171217Y00165874D01*
X00171132Y00165831D01*
X00170821Y00165679D01*
X00170241Y00165301D01*
X00169712Y00164854D01*
X00169242Y00164346D01*
X00169040Y00164065D01*
X00168988Y00163993D01*
X00168889Y00163845D01*
X00168794Y00163694D01*
X00168703Y00163541D01*
X00168660Y00163463D01*
X00168614Y00163381D01*
X00168526Y00163213D01*
X00168443Y00163043D01*
X00168363Y00162872D01*
X00168326Y00162785D01*
X00168242Y00162589D01*
X00168089Y00162191D01*
X00167950Y00161788D01*
X00167826Y00161380D01*
X00167772Y00161174D01*
Y00161174D01*
X00167457Y00160017D01*
X00167525Y00161034D01*
X00167528Y00161082D01*
X00167535Y00161178D01*
X00167542Y00161274D01*
X00167550Y00161370D01*
X00167554Y00161418D01*
X00167554D01*
X00167558Y00161462D01*
X00167567Y00161551D01*
X00167576Y00161639D01*
X00167585Y00161728D01*
X00167590Y00161772D01*
X00167595Y00161813D01*
X00167605Y00161895D01*
X00167616Y00161978D01*
X00167628Y00162060D01*
X00167633Y00162101D01*
X00167634D01*
X00167639Y00162140D01*
X00167652Y00162217D01*
X00167664Y00162294D01*
X00167678Y00162371D01*
X00167685Y00162409D01*
X00167712Y00162550D01*
X00167776Y00162830D01*
X00167853Y00163107D01*
X00167942Y00163380D01*
X00167992Y00163515D01*
X00167992D01*
X00168018Y00163582D01*
X00168072Y00163717D01*
X00168129Y00163851D01*
X00168188Y00163983D01*
X00168219Y00164049D01*
X00168243Y00164101D01*
X00168294Y00164203D01*
X00168346Y00164305D01*
X00168401Y00164406D01*
X00168428Y00164456D01*
X00168510Y00164596D01*
X00168689Y00164866D01*
X00168887Y00165122D01*
X00169105Y00165362D01*
X00169221Y00165476D01*
X00169262Y00165514D01*
X00169345Y00165589D01*
X00169431Y00165661D01*
X00169518Y00165732D01*
X00169562Y00165767D01*
X00169610Y00165803D01*
X00169707Y00165874D01*
X00169805Y00165943D01*
X00169904Y00166009D01*
X00169955Y00166042D01*
X00170010Y00166077D01*
X00170121Y00166145D01*
X00170233Y00166212D01*
X00170347Y00166276D01*
X00170404Y00166307D01*
X00170468Y00166341D01*
X00170595Y00166408D01*
X00170724Y00166474D01*
X00170854Y00166537D01*
X00170919Y00166568D01*
X00171073Y00166639D01*
X00171382Y00166777D01*
X00171695Y00166909D01*
X00172010Y00167035D01*
X00172168Y00167096D01*
X00172264Y00167133D01*
X00172456Y00167208D01*
X00172648Y00167284D01*
X00172839Y00167361D01*
X00172934Y00167400D01*
X00173020Y00167435D01*
X00173191Y00167505D01*
X00173362Y00167577D01*
X00173532Y00167651D01*
X00173617Y00167688D01*
X00173694Y00167721D01*
X00173846Y00167789D01*
X00173998Y00167859D01*
X00174149Y00167930D01*
X00174224Y00167966D01*
X00174293Y00167998D01*
X00174429Y00168065D01*
X00174564Y00168133D01*
X00174698Y00168203D01*
X00174765Y00168238D01*
X00174826Y00168271D01*
X00174947Y00168337D01*
X00175067Y00168405D01*
X00175187Y00168475D01*
X00175246Y00168510D01*
X00175503Y00168661D01*
X00175990Y00169006D01*
X00176446Y00169391D01*
X00176867Y00169813D01*
X00177059Y00170041D01*
X00177081Y00170067D01*
X00177125Y00170120D01*
X00177169Y00170174D01*
X00177212Y00170228D01*
X00177233Y00170255D01*
X00177256Y00170285D01*
X00177302Y00170344D01*
X00177347Y00170404D01*
X00177392Y00170464D01*
X00177414Y00170495D01*
X00177509Y00170626D01*
X00177694Y00170892D01*
X00177873Y00171163D01*
X00178044Y00171438D01*
X00178127Y00171577D01*
X00178127Y00171577D01*
X00178147Y00171611D01*
X00178186Y00171678D01*
X00178225Y00171745D01*
X00178263Y00171812D01*
X00178282Y00171846D01*
X00178300Y00171878D01*
X00178335Y00171941D01*
X00178369Y00172005D01*
X00178403Y00172069D01*
X00178419Y00172101D01*
X00178448Y00172155D01*
X00178502Y00172264D01*
X00178553Y00172374D01*
X00178602Y00172486D01*
X00178624Y00172542D01*
X00178624D01*
X00178629Y00172554D01*
X00178638Y00172576D01*
X00178646Y00172598D01*
X00178655Y00172620D01*
X00178659Y00172632D01*
X00178662Y00172640D01*
X00178668Y00172657D01*
X00178674Y00172674D01*
X00178679Y00172691D01*
X00178682Y00172700D01*
X00178683Y00172705D01*
X00178686Y00172717D01*
X00178688Y00172728D01*
X00178690Y00172740D01*
X00178690Y00172745D01*
X00178691Y00172749D01*
X00178690Y00172755D01*
X00178689Y00172761D01*
X00178685Y00172766D01*
X00178683Y00172768D01*
X00178683Y00172768D01*
X00178680Y00172770D01*
X00178673Y00172771D01*
X00178666Y00172771D01*
X00178659Y00172769D01*
X00178656Y00172767D01*
X00178650Y00172765D01*
X00178638Y00172759D01*
X00178626Y00172753D01*
X00178614Y00172745D01*
X00178609Y00172742D01*
X00178600Y00172736D01*
X00178582Y00172723D01*
X00178564Y00172710D01*
X00178546Y00172697D01*
X00178537Y00172690D01*
X00178525Y00172681D01*
X00178500Y00172661D01*
X00178476Y00172642D01*
X00178452Y00172622D01*
X00178440Y00172612D01*
X00178404Y00172583D01*
X00178333Y00172523D01*
X00178262Y00172464D01*
X00178192Y00172404D01*
X00178156Y00172373D01*
X00178123Y00172345D01*
X00178056Y00172290D01*
X00177988Y00172237D01*
X00177920Y00172184D01*
X00177885Y00172158D01*
X00177848Y00172132D01*
X00177775Y00172080D01*
X00177701Y00172029D01*
X00177626Y00171979D01*
X00177588Y00171954D01*
X00177548Y00171929D01*
X00177468Y00171880D01*
X00177388Y00171832D01*
X00177306Y00171785D01*
X00177265Y00171762D01*
X00177222Y00171738D01*
X00177136Y00171691D01*
X00177049Y00171646D01*
X00176961Y00171602D01*
X00176917Y00171580D01*
Y00171580D01*
X00176871Y00171558D01*
X00176778Y00171514D01*
X00176685Y00171472D01*
X00176591Y00171430D01*
X00176544Y00171410D01*
X00176495Y00171389D01*
X00176396Y00171349D01*
X00176296Y00171309D01*
X00176196Y00171270D01*
X00176146Y00171252D01*
X00176094Y00171232D01*
X00175989Y00171194D01*
X00175883Y00171158D01*
X00175777Y00171122D01*
X00175724Y00171105D01*
X00175668Y00171087D01*
X00175557Y00171052D01*
X00175445Y00171018D01*
X00175333Y00170985D01*
X00175277Y00170969D01*
X00175277Y00170969D01*
X00175157Y00170936D01*
X00174917Y00170873D01*
X00174675Y00170814D01*
X00174433Y00170759D01*
X00174311Y00170734D01*
X00174311D01*
X00173573Y00170578D01*
X00172955Y00170446D01*
X00172439Y00170332D01*
X00172012Y00170232D01*
X00171967Y00170222D01*
X00171878Y00170200D01*
X00171789Y00170177D01*
X00171700Y00170154D01*
X00171656Y00170143D01*
X00171618Y00170133D01*
X00171543Y00170112D01*
X00171468Y00170091D01*
X00171393Y00170070D01*
X00171356Y00170059D01*
X00171294Y00170040D01*
X00171169Y00170001D01*
X00171045Y00169960D01*
X00170923Y00169916D01*
X00170862Y00169892D01*
X00170804Y00169870D01*
X00170688Y00169823D01*
X00170573Y00169775D01*
X00170459Y00169725D01*
X00170402Y00169699D01*
X00170402Y00169699D01*
X00170360Y00169681D01*
X00170277Y00169641D01*
X00170194Y00169600D01*
X00170113Y00169558D01*
X00170072Y00169536D01*
X00169949Y00169468D01*
X00169712Y00169320D01*
X00169483Y00169159D01*
X00169264Y00168985D01*
X00169160Y00168892D01*
X00169086Y00168826D01*
X00168945Y00168691D01*
X00168808Y00168551D01*
X00168676Y00168406D01*
X00168613Y00168332D01*
X00168580Y00168293D01*
X00168514Y00168214D01*
X00168450Y00168134D01*
X00168388Y00168053D01*
X00168357Y00168012D01*
X00168325Y00167969D01*
X00168263Y00167883D01*
X00168202Y00167797D01*
X00168142Y00167709D01*
X00168113Y00167665D01*
X00168051Y00167571D01*
X00167932Y00167380D01*
X00167818Y00167186D01*
X00167709Y00166989D01*
X00167657Y00166889D01*
Y00166889D01*
X00167477Y00166549D01*
X00167460Y00166516D01*
X00167424Y00166450D01*
X00167388Y00166384D01*
X00167351Y00166319D01*
X00167333Y00166286D01*
X00167319Y00166263D01*
X00167292Y00166216D01*
X00167265Y00166170D01*
X00167237Y00166124D01*
X00167223Y00166101D01*
X00167214Y00166088D01*
X00167197Y00166060D01*
X00167178Y00166033D01*
X00167158Y00166007D01*
X00167148Y00165995D01*
X00167107Y00165966D01*
X00167100Y00166015D01*
X00167103Y00166031D01*
X00167108Y00166063D01*
X00167115Y00166096D01*
X00167122Y00166127D01*
X00167127Y00166143D01*
X00167134Y00166169D01*
X00167148Y00166221D01*
X00167163Y00166272D01*
X00167178Y00166324D01*
X00167186Y00166349D01*
X00167187Y00166349D01*
X00167212Y00166431D01*
X00167265Y00166594D01*
X00167320Y00166756D01*
X00167376Y00166918D01*
X00167404Y00166999D01*
X00167420Y00167044D01*
X00167453Y00167136D01*
X00167486Y00167228D01*
X00167521Y00167319D01*
X00167538Y00167364D01*
X00167555Y00167407D01*
X00167589Y00167492D01*
X00167624Y00167577D01*
X00167659Y00167662D01*
X00167677Y00167704D01*
X00167695Y00167744D01*
X00167730Y00167824D01*
X00167766Y00167903D01*
X00167804Y00167981D01*
X00167823Y00168020D01*
Y00168020D01*
X00167841Y00168058D01*
X00167878Y00168132D01*
X00167916Y00168206D01*
X00167956Y00168279D01*
X00167976Y00168316D01*
X00168033Y00168418D01*
X00168155Y00168619D01*
X00168284Y00168815D01*
X00168423Y00169005D01*
X00168495Y00169098D01*
X00168569Y00169189D01*
X00168723Y00169365D01*
X00168884Y00169536D01*
X00169051Y00169699D01*
X00169138Y00169778D01*
X00169138D01*
X00169168Y00169806D01*
X00169231Y00169861D01*
X00169294Y00169916D01*
X00169357Y00169970D01*
X00169389Y00169996D01*
X00169453Y00170047D01*
X00169583Y00170147D01*
X00169716Y00170242D01*
X00169852Y00170331D01*
X00169922Y00170374D01*
X00169961Y00170398D01*
X00170039Y00170443D01*
X00170117Y00170487D01*
X00170197Y00170529D01*
X00170237Y00170550D01*
X00170283Y00170573D01*
X00170375Y00170619D01*
X00170467Y00170663D01*
X00170561Y00170706D01*
X00170607Y00170727D01*
X00170662Y00170751D01*
X00170772Y00170799D01*
X00170883Y00170845D01*
X00170994Y00170890D01*
X00171050Y00170912D01*
X00171116Y00170938D01*
X00171249Y00170990D01*
X00171382Y00171040D01*
X00171515Y00171090D01*
X00171582Y00171114D01*
X00171662Y00171143D01*
X00171821Y00171200D01*
X00171980Y00171257D01*
X00172140Y00171313D01*
X00172220Y00171340D01*
X00172220Y00171340D01*
X00173884Y00171894D01*
X00174332Y00172042D01*
X00174564Y00172120D01*
X00175029Y00172281D01*
X00175492Y00172446D01*
X00175953Y00172614D01*
X00176183Y00172699D01*
X00176183D01*
X00176618Y00172864D01*
X00177025Y00173021D01*
X00177394Y00173169D01*
X00177469Y00173200D01*
X00177618Y00173262D01*
X00177766Y00173325D01*
X00177914Y00173390D01*
X00177987Y00173424D01*
X00178111Y00173480D01*
X00178358Y00173597D01*
X00178603Y00173716D01*
X00178846Y00173838D01*
X00178967Y00173900D01*
X00179083Y00173960D01*
X00179312Y00174081D01*
X00179540Y00174206D01*
X00179766Y00174333D01*
X00179878Y00174398D01*
X00179985Y00174460D01*
X00180198Y00174587D01*
X00180408Y00174717D01*
X00180617Y00174850D01*
X00180721Y00174918D01*
X00180820Y00174983D01*
X00181016Y00175116D01*
X00181210Y00175252D01*
X00181402Y00175391D01*
X00181497Y00175462D01*
X00181676Y00175596D01*
X00182026Y00175876D01*
X00182366Y00176167D01*
X00182696Y00176470D01*
X00182856Y00176627D01*
X00183155Y00176920D01*
X00183706Y00177551D01*
X00184205Y00178223D01*
X00184651Y00178932D01*
X00184846Y00179303D01*
X00184846D01*
X00184911Y00179428D01*
X00184971Y00179548D01*
X00185026Y00179662D01*
X00185076Y00179767D01*
X00185119Y00179861D01*
X00185123Y00179871D01*
X00185132Y00179892D01*
X00185141Y00179912D01*
X00185150Y00179933D01*
X00185154Y00179943D01*
X00185158Y00179952D01*
X00185165Y00179969D01*
X00185171Y00179986D01*
X00185178Y00180003D01*
X00185181Y00180012D01*
X00185184Y00180018D01*
X00185189Y00180031D01*
X00185193Y00180045D01*
X00185198Y00180058D01*
X00185200Y00180065D01*
X00185203Y00180071D01*
X00185207Y00180084D01*
X00185209Y00180097D01*
X00185208Y00180111D01*
X00185207Y00180117D01*
X00185205Y00180118D01*
X00185201Y00180119D01*
X00185198Y00180120D01*
X00185194Y00180119D01*
X00185192Y00180119D01*
X00185188Y00180118D01*
X00185180Y00180117D01*
X00185172Y00180114D01*
X00185165Y00180112D01*
X00185161Y00180111D01*
X00185155Y00180109D01*
X00185144Y00180105D01*
X00185133Y00180100D01*
X00185122Y00180096D01*
X00185116Y00180094D01*
X00185109Y00180091D01*
X00185095Y00180084D01*
X00185081Y00180078D01*
X00185066Y00180072D01*
X00185059Y00180068D01*
X00185051Y00180064D01*
X00185033Y00180056D01*
X00185016Y00180048D01*
X00184999Y00180039D01*
X00184991Y00180035D01*
X00184991D01*
X00184981Y00180030D01*
X00184962Y00180020D01*
X00184942Y00180010D01*
X00184923Y00180000D01*
X00184913Y00179995D01*
Y00179995D01*
X00184827Y00179949D01*
X00184733Y00179897D01*
X00184708Y00179882D01*
X00184657Y00179853D01*
X00184607Y00179824D01*
X00184557Y00179794D01*
X00184532Y00179779D01*
Y00179779D01*
X00184494Y00179757D01*
X00184417Y00179712D01*
X00184339Y00179669D01*
X00184261Y00179626D01*
X00184222Y00179605D01*
X00184178Y00179582D01*
X00184089Y00179536D01*
X00184000Y00179492D01*
X00183910Y00179448D01*
X00183865Y00179427D01*
X00183815Y00179403D01*
X00183714Y00179357D01*
X00183613Y00179311D01*
X00183511Y00179266D01*
X00183460Y00179244D01*
X00183404Y00179220D01*
X00183291Y00179172D01*
X00183177Y00179125D01*
X00183063Y00179079D01*
X00183006Y00179056D01*
X00182944Y00179032D01*
X00182818Y00178983D01*
X00182692Y00178934D01*
X00182566Y00178887D01*
X00182503Y00178863D01*
X00182434Y00178838D01*
X00182295Y00178787D01*
X00182157Y00178738D01*
X00182018Y00178689D01*
X00181948Y00178665D01*
X00181948D01*
X00181342Y00178460D01*
X00180682Y00178249D01*
X00180498Y00178192D01*
X00180128Y00178079D01*
X00179758Y00177968D01*
X00179387Y00177859D01*
X00179201Y00177806D01*
X00179008Y00177751D01*
X00178623Y00177638D01*
X00178238Y00177524D01*
X00177854Y00177407D01*
X00177663Y00177348D01*
X00177495Y00177296D01*
X00177160Y00177189D01*
X00176826Y00177079D01*
X00176494Y00176966D01*
X00176328Y00176908D01*
X00176181Y00176857D01*
X00175889Y00176750D01*
X00175598Y00176640D01*
X00175308Y00176527D01*
X00175165Y00176468D01*
X00175035Y00176415D01*
X00174776Y00176304D01*
X00174520Y00176189D01*
X00174266Y00176069D01*
X00174140Y00176007D01*
X00173909Y00175894D01*
X00173456Y00175648D01*
X00173015Y00175383D01*
X00172586Y00175099D01*
X00172378Y00174948D01*
X00172274Y00174873D01*
X00172070Y00174718D01*
X00171869Y00174558D01*
X00171672Y00174394D01*
X00171575Y00174311D01*
X00171575Y00174311D01*
X00171473Y00174222D01*
X00171271Y00174042D01*
X00171073Y00173858D01*
X00170877Y00173670D01*
X00170781Y00173575D01*
X00170561Y00173353D01*
X00170129Y00172901D01*
X00169707Y00172440D01*
X00169294Y00171970D01*
X00169092Y00171731D01*
X00169092Y00171731D01*
X00168910Y00171520D01*
X00168737Y00171320D01*
X00168576Y00171136D01*
X00168428Y00170969D01*
X00168297Y00170823D01*
X00168184Y00170700D01*
X00168092Y00170602D01*
X00168084Y00170593D01*
X00168067Y00170575D01*
X00168050Y00170558D01*
X00168032Y00170541D01*
X00168023Y00170532D01*
X00167966Y00170488D01*
X00167967Y00170497D01*
X00167969Y00170515D01*
X00167974Y00170532D01*
X00167979Y00170549D01*
X00167982Y00170557D01*
X00167987Y00170572D01*
X00167998Y00170600D01*
X00168010Y00170628D01*
X00168022Y00170656D01*
X00168028Y00170670D01*
X00168037Y00170688D01*
X00168055Y00170726D01*
X00168073Y00170763D01*
X00168092Y00170800D01*
X00168101Y00170818D01*
X00168113Y00170840D01*
X00168136Y00170885D01*
X00168160Y00170930D01*
X00168184Y00170974D01*
X00168196Y00170996D01*
X00168210Y00171021D01*
X00168238Y00171071D01*
X00168266Y00171122D01*
X00168295Y00171172D01*
X00168309Y00171197D01*
X00168309Y00171197D01*
X00168359Y00171282D01*
X00168461Y00171452D01*
X00168564Y00171620D01*
X00168670Y00171787D01*
X00168723Y00171870D01*
X00168760Y00171926D01*
X00168834Y00172038D01*
X00168908Y00172148D01*
X00168984Y00172258D01*
X00169023Y00172313D01*
X00169049Y00172349D01*
X00169101Y00172421D01*
X00169155Y00172493D01*
X00169210Y00172563D01*
X00169237Y00172598D01*
X00169237Y00172598D01*
X00169270Y00172639D01*
X00169336Y00172720D01*
X00169402Y00172800D01*
X00169469Y00172880D01*
X00169503Y00172919D01*
X00169541Y00172963D01*
X00169617Y00173051D01*
X00169694Y00173138D01*
X00169771Y00173224D01*
X00169810Y00173267D01*
X00169938Y00173407D01*
X00170199Y00173685D01*
X00170463Y00173959D01*
X00170732Y00174228D01*
X00170868Y00174361D01*
X00170914Y00174405D01*
X00171004Y00174491D01*
X00171095Y00174578D01*
X00171186Y00174664D01*
X00171232Y00174706D01*
X00171276Y00174747D01*
X00171363Y00174827D01*
X00171451Y00174907D01*
X00171539Y00174986D01*
X00171584Y00175025D01*
X00171659Y00175091D01*
X00171813Y00175223D01*
X00171969Y00175351D01*
X00172127Y00175476D01*
X00172208Y00175537D01*
X00172208D01*
X00172340Y00175633D01*
X00172607Y00175823D01*
X00172878Y00176006D01*
X00173154Y00176183D01*
X00173293Y00176269D01*
X00173366Y00176314D01*
X00173514Y00176402D01*
X00173663Y00176489D01*
X00173813Y00176574D01*
X00173888Y00176616D01*
X00173968Y00176660D01*
X00174129Y00176747D01*
X00174291Y00176832D01*
X00174453Y00176916D01*
X00174535Y00176957D01*
X00174623Y00177001D01*
X00174800Y00177088D01*
X00174978Y00177174D01*
X00175156Y00177258D01*
X00175246Y00177299D01*
X00175344Y00177344D01*
X00175540Y00177432D01*
X00175737Y00177519D01*
X00175935Y00177605D01*
X00176034Y00177647D01*
X00176143Y00177694D01*
X00176362Y00177785D01*
X00176581Y00177875D01*
X00176801Y00177964D01*
X00176912Y00178008D01*
X00177034Y00178056D01*
X00177278Y00178152D01*
X00177523Y00178246D01*
X00177768Y00178340D01*
X00177891Y00178386D01*
X00178179Y00178493D01*
X00178757Y00178705D01*
X00179336Y00178914D01*
X00179916Y00179118D01*
X00180206Y00179219D01*
X00180206Y00179219D01*
X00181362Y00179631D01*
X00181492Y00179678D01*
X00181750Y00179774D01*
X00182008Y00179872D01*
X00182265Y00179970D01*
X00182393Y00180020D01*
X00182509Y00180065D01*
X00182738Y00180157D01*
X00182968Y00180250D01*
X00183196Y00180345D01*
X00183310Y00180393D01*
Y00180393D01*
X00183413Y00180436D01*
X00183617Y00180525D01*
X00183821Y00180615D01*
X00184024Y00180708D01*
X00184125Y00180755D01*
X00184216Y00180797D01*
X00184398Y00180884D01*
X00184579Y00180974D01*
X00184759Y00181065D01*
X00184848Y00181112D01*
X00184930Y00181155D01*
X00185092Y00181242D01*
X00185253Y00181332D01*
X00185413Y00181424D01*
X00185492Y00181471D01*
X00185566Y00181514D01*
X00185711Y00181603D01*
X00185855Y00181695D01*
X00185998Y00181789D01*
X00186069Y00181837D01*
X00186263Y00181968D01*
X00186637Y00182251D01*
X00186997Y00182553D01*
X00187341Y00182872D01*
X00187505Y00183040D01*
X00187549Y00183085D01*
X00187637Y00183176D01*
X00187724Y00183268D01*
X00187810Y00183361D01*
X00187853Y00183407D01*
X00187853Y00183407D01*
X00187891Y00183449D01*
X00187966Y00183533D01*
X00188040Y00183618D01*
X00188113Y00183703D01*
X00188149Y00183747D01*
X00188182Y00183787D01*
X00188247Y00183867D01*
X00188309Y00183949D01*
X00188371Y00184031D01*
X00188401Y00184073D01*
X00188458Y00184153D01*
X00188565Y00184316D01*
X00188664Y00184485D01*
X00188756Y00184657D01*
X00188797Y00184746D01*
Y00184746D01*
X00188819Y00184792D01*
X00188861Y00184885D01*
X00188901Y00184979D01*
X00188939Y00185074D01*
X00188957Y00185122D01*
X00188976Y00185174D01*
X00189014Y00185279D01*
X00189049Y00185385D01*
X00189083Y00185491D01*
X00189099Y00185544D01*
X00189117Y00185604D01*
X00189152Y00185725D01*
X00189185Y00185845D01*
X00189217Y00185967D01*
X00189232Y00186028D01*
X00189232D01*
X00189269Y00186178D01*
X00189338Y00186479D01*
X00189405Y00186782D01*
X00189467Y00187085D01*
X00189496Y00187237D01*
X00189499Y00187251D01*
X00189505Y00187278D01*
X00189510Y00187306D01*
X00189515Y00187334D01*
X00189518Y00187348D01*
X00189520Y00187358D01*
X00189523Y00187379D01*
X00189526Y00187400D01*
X00189529Y00187421D01*
X00189530Y00187431D01*
X00189531Y00187438D01*
X00189532Y00187452D01*
X00189533Y00187466D01*
X00189532Y00187479D01*
X00189532Y00187486D01*
X00189532Y00187490D01*
X00189531Y00187497D01*
X00189527Y00187503D01*
X00189523Y00187509D01*
X00189520Y00187511D01*
X00189516Y00187512D01*
X00189508Y00187512D01*
X00189501Y00187509D01*
X00189494Y00187506D01*
X00189491Y00187503D01*
X00189485Y00187499D01*
X00189472Y00187489D01*
X00189461Y00187479D01*
X00189449Y00187467D01*
X00189444Y00187462D01*
X00189435Y00187452D01*
X00189417Y00187433D01*
X00189400Y00187414D01*
X00189383Y00187395D01*
X00189375Y00187385D01*
X00189363Y00187370D01*
X00189339Y00187342D01*
X00189316Y00187313D01*
X00189293Y00187285D01*
X00189281Y00187270D01*
X00189281Y00187270D01*
X00189011Y00186923D01*
X00188965Y00186864D01*
X00188873Y00186749D01*
X00188779Y00186634D01*
X00188683Y00186522D01*
X00188634Y00186466D01*
X00188541Y00186362D01*
X00188346Y00186160D01*
X00188142Y00185968D01*
X00187929Y00185786D01*
X00187820Y00185699D01*
X00187763Y00185656D01*
X00187648Y00185571D01*
X00187530Y00185490D01*
X00187410Y00185411D01*
X00187350Y00185373D01*
X00187285Y00185333D01*
X00187153Y00185255D01*
X00187020Y00185180D01*
X00186884Y00185108D01*
X00186816Y00185074D01*
X00186741Y00185036D01*
X00186589Y00184963D01*
X00186435Y00184893D01*
X00186281Y00184826D01*
X00186203Y00184794D01*
X00186115Y00184758D01*
X00185939Y00184688D01*
X00185762Y00184621D01*
X00185583Y00184556D01*
X00185494Y00184525D01*
X00185392Y00184490D01*
X00185187Y00184421D01*
X00184982Y00184355D01*
X00184776Y00184290D01*
X00184673Y00184259D01*
X00184419Y00184184D01*
X00183910Y00184039D01*
X00183400Y00183900D01*
X00182887Y00183767D01*
X00182631Y00183703D01*
X00182511Y00183673D01*
X00182273Y00183611D01*
X00182036Y00183547D01*
X00181799Y00183482D01*
X00181681Y00183447D01*
X00181570Y00183415D01*
X00181348Y00183349D01*
X00181126Y00183280D01*
X00180906Y00183208D01*
X00180796Y00183171D01*
X00180796Y00183171D01*
X00180481Y00183067D01*
X00179861Y00182831D01*
X00179251Y00182571D01*
X00178652Y00182286D01*
X00178358Y00182131D01*
X00178257Y00182078D01*
X00178057Y00181969D01*
X00177858Y00181857D01*
X00177661Y00181743D01*
X00177563Y00181684D01*
X00177460Y00181623D01*
X00177255Y00181497D01*
X00177051Y00181370D01*
X00176849Y00181240D01*
X00176749Y00181173D01*
X00176642Y00181102D01*
X00176428Y00180958D01*
X00176215Y00180812D01*
X00176005Y00180664D01*
X00175900Y00180589D01*
X00175661Y00180418D01*
X00175189Y00180068D01*
X00174721Y00179712D01*
X00174258Y00179350D01*
X00174028Y00179166D01*
X00174028Y00179167D01*
X00173787Y00178976D01*
X00173558Y00178797D01*
X00173344Y00178632D01*
X00173149Y00178484D01*
X00172975Y00178356D01*
X00172825Y00178248D01*
X00172810Y00178237D01*
X00172780Y00178216D01*
X00172750Y00178195D01*
X00172719Y00178174D01*
X00172704Y00178164D01*
X00172693Y00178157D01*
X00172670Y00178142D01*
X00172647Y00178127D01*
X00172624Y00178113D01*
X00172613Y00178106D01*
X00172537Y00178076D01*
X00172544Y00178095D01*
X00172560Y00178129D01*
X00172581Y00178162D01*
X00172605Y00178192D01*
X00172618Y00178206D01*
X00172618D01*
X00172645Y00178239D01*
X00172700Y00178303D01*
X00172756Y00178367D01*
X00172814Y00178429D01*
X00172843Y00178459D01*
X00172884Y00178504D01*
X00172968Y00178591D01*
X00173053Y00178679D01*
X00173138Y00178765D01*
X00173181Y00178808D01*
Y00178808D01*
X00173234Y00178861D01*
X00173339Y00178965D01*
X00173444Y00179069D01*
X00173551Y00179173D01*
X00173604Y00179225D01*
X00173725Y00179342D01*
X00173969Y00179574D01*
X00174214Y00179806D01*
X00174461Y00180035D01*
X00174585Y00180150D01*
X00174585Y00180150D01*
X00175085Y00180603D01*
X00175143Y00180655D01*
X00175259Y00180758D01*
X00175376Y00180861D01*
X00175493Y00180963D01*
X00175552Y00181014D01*
X00175639Y00181089D01*
X00175815Y00181238D01*
X00175994Y00181383D01*
X00176176Y00181525D01*
X00176268Y00181594D01*
X00176414Y00181697D01*
X00176710Y00181900D01*
X00177009Y00182097D01*
X00177311Y00182289D01*
X00177464Y00182383D01*
X00177623Y00182479D01*
X00177943Y00182668D01*
X00178267Y00182850D01*
X00178593Y00183028D01*
X00178758Y00183115D01*
Y00183115D01*
X00178932Y00183204D01*
X00179281Y00183380D01*
X00179633Y00183551D01*
X00179988Y00183716D01*
X00180166Y00183796D01*
X00180166Y00183796D01*
X00180260Y00183838D01*
X00180448Y00183920D01*
X00180636Y00184002D01*
X00180824Y00184081D01*
X00180919Y00184121D01*
X00181017Y00184161D01*
X00181213Y00184241D01*
X00181410Y00184320D01*
X00181607Y00184398D01*
X00181706Y00184436D01*
X00181915Y00184516D01*
X00182335Y00184672D01*
X00182757Y00184823D01*
X00183180Y00184970D01*
X00183392Y00185042D01*
Y00185042D01*
X00183503Y00185079D01*
X00183725Y00185155D01*
X00183947Y00185232D01*
X00184168Y00185311D01*
X00184278Y00185352D01*
X00184381Y00185389D01*
X00184587Y00185467D01*
X00184793Y00185546D01*
X00184997Y00185627D01*
X00185099Y00185668D01*
Y00185668D01*
X00185196Y00185707D01*
X00185387Y00185787D01*
X00185578Y00185868D01*
X00185768Y00185952D01*
X00185863Y00185994D01*
X00185953Y00186035D01*
X00186132Y00186118D01*
X00186310Y00186203D01*
X00186487Y00186290D01*
X00186575Y00186335D01*
X00186822Y00186458D01*
X00187306Y00186725D01*
X00187780Y00187010D01*
X00188242Y00187313D01*
X00188467Y00187473D01*
Y00187473D01*
X00188687Y00187631D01*
X00189115Y00187964D01*
X00189530Y00188312D01*
X00189932Y00188676D01*
X00190125Y00188865D01*
X00190182Y00188920D01*
X00190295Y00189032D01*
X00190407Y00189145D01*
X00190517Y00189259D01*
X00190571Y00189317D01*
X00190622Y00189371D01*
X00190723Y00189481D01*
X00190823Y00189593D01*
X00190921Y00189706D01*
X00190969Y00189763D01*
X00190969D01*
X00191015Y00189817D01*
X00191104Y00189926D01*
X00191192Y00190037D01*
X00191278Y00190149D01*
X00191321Y00190205D01*
X00191361Y00190259D01*
X00191440Y00190369D01*
X00191516Y00190480D01*
X00191591Y00190592D01*
X00191628Y00190648D01*
X00191732Y00190808D01*
X00191921Y00191140D01*
X00192090Y00191483D01*
X00192239Y00191835D01*
X00192303Y00192015D01*
X00192366Y00192196D01*
X00192472Y00192565D01*
X00192559Y00192939D01*
X00192624Y00193318D01*
X00192646Y00193509D01*
X00192646D01*
X00192721Y00194118D01*
X00192476Y00193603D01*
X00192462Y00193574D01*
X00192433Y00193516D01*
X00192402Y00193460D01*
X00192370Y00193404D01*
X00192353Y00193376D01*
X00192335Y00193347D01*
X00192298Y00193287D01*
X00192259Y00193229D01*
X00192219Y00193171D01*
X00192199Y00193143D01*
X00192176Y00193112D01*
X00192131Y00193052D01*
X00192085Y00192992D01*
X00192038Y00192933D01*
X00192014Y00192904D01*
X00192014D01*
X00191988Y00192873D01*
X00191936Y00192812D01*
X00191883Y00192751D01*
X00191828Y00192691D01*
X00191801Y00192662D01*
X00191772Y00192631D01*
X00191713Y00192570D01*
X00191654Y00192509D01*
X00191594Y00192449D01*
X00191563Y00192419D01*
X00191531Y00192389D01*
X00191467Y00192328D01*
X00191401Y00192267D01*
X00191335Y00192208D01*
X00191302Y00192178D01*
X00191157Y00192055D01*
X00190860Y00191816D01*
X00190553Y00191590D01*
X00190236Y00191378D01*
X00190075Y00191277D01*
X00190051Y00191262D01*
X00190003Y00191233D01*
X00189954Y00191205D01*
X00189906Y00191176D01*
X00189881Y00191162D01*
X00189881Y00191162D01*
X00189626Y00191018D01*
X00189316Y00190847D01*
X00188959Y00190655D01*
X00188565Y00190445D01*
X00188283Y00190296D01*
X00187717Y00190001D01*
X00187149Y00189710D01*
X00186580Y00189421D01*
X00186295Y00189278D01*
X00186295Y00189278D01*
X00185398Y00188825D01*
X00184605Y00188414D01*
X00183904Y00188038D01*
X00183826Y00187995D01*
X00183670Y00187910D01*
X00183515Y00187823D01*
X00183361Y00187735D01*
X00183284Y00187691D01*
X00183215Y00187652D01*
X00183077Y00187571D01*
X00182940Y00187490D01*
X00182803Y00187408D01*
X00182735Y00187367D01*
X00182674Y00187329D01*
X00182551Y00187253D01*
X00182429Y00187175D01*
X00182307Y00187097D01*
X00182247Y00187057D01*
X00182038Y00186922D01*
X00181633Y00186635D01*
X00181240Y00186331D01*
X00180860Y00186012D01*
X00180676Y00185845D01*
X00180641Y00185812D01*
X00180570Y00185749D01*
X00180498Y00185686D01*
X00180426Y00185623D01*
X00180390Y00185592D01*
X00180365Y00185571D01*
X00180315Y00185529D01*
X00180264Y00185489D01*
X00180212Y00185449D01*
X00180186Y00185429D01*
X00180186Y00185429D01*
X00180171Y00185418D01*
X00180141Y00185397D01*
X00180110Y00185377D01*
X00180078Y00185359D01*
X00180062Y00185350D01*
X00180013Y00185348D01*
X00180036Y00185416D01*
X00180046Y00185433D01*
X00180068Y00185467D01*
X00180091Y00185500D01*
X00180114Y00185532D01*
X00180127Y00185548D01*
X00180146Y00185572D01*
X00180184Y00185620D01*
X00180222Y00185667D01*
X00180262Y00185714D01*
X00180282Y00185737D01*
X00180308Y00185768D01*
X00180362Y00185828D01*
X00180416Y00185888D01*
X00180470Y00185947D01*
X00180497Y00185977D01*
X00180497D01*
X00180570Y00186054D01*
X00180718Y00186207D01*
X00180867Y00186358D01*
X00181019Y00186507D01*
X00181095Y00186581D01*
X00181136Y00186619D01*
X00181218Y00186696D01*
X00181301Y00186773D01*
X00181385Y00186848D01*
X00181428Y00186885D01*
X00181473Y00186924D01*
X00181565Y00187002D01*
X00181657Y00187079D01*
X00181750Y00187155D01*
X00181797Y00187193D01*
Y00187193D01*
X00181847Y00187233D01*
X00181949Y00187312D01*
X00182052Y00187391D01*
X00182155Y00187468D01*
X00182207Y00187506D01*
X00182263Y00187547D01*
X00182376Y00187629D01*
X00182490Y00187710D01*
X00182604Y00187789D01*
X00182662Y00187829D01*
X00182724Y00187871D01*
X00182850Y00187956D01*
X00182976Y00188039D01*
X00183102Y00188121D01*
X00183166Y00188162D01*
X00183235Y00188207D01*
X00183374Y00188294D01*
X00183513Y00188381D01*
X00183653Y00188467D01*
X00183723Y00188510D01*
X00183799Y00188556D01*
X00183953Y00188648D01*
X00184106Y00188739D01*
X00184260Y00188830D01*
X00184338Y00188874D01*
X00184338Y00188874D01*
X00185014Y00189258D01*
X00185206Y00189365D01*
X00185593Y00189576D01*
X00185982Y00189785D01*
X00186371Y00189992D01*
X00186567Y00190094D01*
X00186567Y00190094D01*
X00187333Y00190499D01*
X00188002Y00190861D01*
X00188075Y00190901D01*
X00188221Y00190982D01*
X00188368Y00191064D01*
X00188513Y00191147D01*
X00188586Y00191189D01*
X00188650Y00191225D01*
X00188778Y00191300D01*
X00188906Y00191375D01*
X00189034Y00191452D01*
X00189097Y00191490D01*
X00189154Y00191525D01*
X00189268Y00191595D01*
X00189381Y00191665D01*
X00189493Y00191737D01*
X00189549Y00191773D01*
X00189695Y00191867D01*
X00189981Y00192064D01*
X00190260Y00192269D01*
X00190533Y00192483D01*
X00190667Y00192594D01*
X00190667D01*
X00190753Y00192667D01*
X00190924Y00192815D01*
X00191092Y00192966D01*
X00191257Y00193120D01*
X00191339Y00193198D01*
X00191388Y00193245D01*
X00191486Y00193342D01*
X00191583Y00193440D01*
X00191679Y00193539D01*
X00191726Y00193589D01*
X00191726D01*
X00191950Y00193828D01*
X00192359Y00194340D01*
X00192723Y00194885D01*
X00193040Y00195458D01*
X00193174Y00195756D01*
X00193228Y00195877D01*
X00193327Y00196123D01*
X00193419Y00196371D01*
X00193503Y00196622D01*
X00193541Y00196749D01*
X00193580Y00196883D01*
X00193652Y00197152D01*
X00193716Y00197423D01*
X00193772Y00197695D01*
X00193796Y00197833D01*
X00193798Y00197845D01*
X00193802Y00197870D01*
X00193806Y00197895D01*
X00193810Y00197920D01*
X00193812Y00197932D01*
X00193813Y00197941D01*
X00193816Y00197959D01*
X00193817Y00197977D01*
X00193819Y00197995D01*
X00193819Y00198005D01*
X00193820Y00198010D01*
X00193820Y00198021D01*
X00193819Y00198032D01*
X00193818Y00198043D01*
X00193816Y00198049D01*
X00193816Y00198051D01*
X00193813Y00198057D01*
X00193809Y00198060D01*
X00193804Y00198062D01*
X00193801Y00198062D01*
X00193797Y00198061D01*
X00193789Y00198058D01*
X00193782Y00198053D01*
X00193775Y00198048D01*
X00193772Y00198044D01*
X00193766Y00198039D01*
X00193755Y00198026D01*
X00193743Y00198013D01*
X00193733Y00198000D01*
X00193728Y00197993D01*
X00193728Y00197993D01*
X00193720Y00197983D01*
X00193704Y00197962D01*
X00193689Y00197940D01*
X00193674Y00197918D01*
X00193666Y00197907D01*
X00193656Y00197892D01*
X00193636Y00197862D01*
X00193616Y00197831D01*
X00193596Y00197800D01*
X00193586Y00197785D01*
X00193557Y00197740D01*
X00193501Y00197650D01*
X00193445Y00197560D01*
X00193390Y00197470D01*
X00193362Y00197424D01*
X00193258Y00197257D01*
X00193041Y00196927D01*
X00192816Y00196604D01*
X00192580Y00196288D01*
X00192459Y00196132D01*
X00192399Y00196057D01*
X00192278Y00195907D01*
X00192154Y00195759D01*
X00192028Y00195613D01*
X00191964Y00195541D01*
X00191964D01*
X00191934Y00195507D01*
X00191872Y00195439D01*
X00191810Y00195371D01*
X00191747Y00195304D01*
X00191715Y00195271D01*
X00191685Y00195239D01*
X00191624Y00195176D01*
X00191562Y00195113D01*
X00191500Y00195051D01*
X00191469Y00195021D01*
X00191411Y00194965D01*
X00191295Y00194856D01*
X00191176Y00194749D01*
X00191054Y00194646D01*
X00190993Y00194595D01*
X00190954Y00194564D01*
X00190875Y00194501D01*
X00190795Y00194440D01*
X00190715Y00194379D01*
X00190675Y00194348D01*
X00190632Y00194316D01*
X00190545Y00194252D01*
X00190457Y00194188D01*
X00190369Y00194125D01*
X00190325Y00194093D01*
X00190325Y00194093D01*
X00190234Y00194028D01*
X00190049Y00193901D01*
X00189863Y00193775D01*
X00189676Y00193650D01*
X00189582Y00193589D01*
X00189537Y00193560D01*
X00189445Y00193501D01*
X00189354Y00193443D01*
X00189261Y00193386D01*
X00189215Y00193357D01*
X00189172Y00193330D01*
X00189086Y00193278D01*
X00189000Y00193226D01*
X00188913Y00193174D01*
X00188869Y00193148D01*
X00188830Y00193126D01*
X00188753Y00193081D01*
X00188675Y00193037D01*
X00188596Y00192994D01*
X00188557Y00192972D01*
X00188524Y00192954D01*
X00188458Y00192920D01*
X00188392Y00192885D01*
X00188325Y00192852D01*
X00188292Y00192836D01*
X00188252Y00192815D01*
X00188171Y00192778D01*
X00188086Y00192748D01*
X00187999Y00192726D01*
X00187955Y00192717D01*
X00187952Y00192725D01*
X00187970Y00192746D01*
X00187975Y00192751D01*
X00187984Y00192759D01*
X00187993Y00192768D01*
X00188003Y00192777D01*
X00188008Y00192781D01*
X00188014Y00192787D01*
X00188028Y00192798D01*
X00188042Y00192810D01*
X00188055Y00192821D01*
X00188062Y00192827D01*
X00188071Y00192834D01*
X00188089Y00192848D01*
X00188107Y00192862D01*
X00188125Y00192876D01*
X00188134Y00192883D01*
X00188134Y00192883D01*
X00188219Y00192949D01*
X00188318Y00193023D01*
X00188429Y00193104D01*
X00188679Y00193283D01*
X00188767Y00193344D01*
X00188941Y00193471D01*
X00189113Y00193601D01*
X00189283Y00193734D01*
X00189366Y00193801D01*
X00189891Y00194235D01*
X00190861Y00195191D01*
X00191744Y00196227D01*
X00192533Y00197337D01*
X00192878Y00197924D01*
X00193048Y00198210D01*
X00193361Y00198798D01*
X00193644Y00199400D01*
X00193899Y00200016D01*
X00194011Y00200329D01*
X00194020Y00200355D01*
X00194038Y00200406D01*
X00194055Y00200458D01*
X00194072Y00200509D01*
X00194081Y00200535D01*
X00194088Y00200559D01*
X00194104Y00200607D01*
X00194118Y00200656D01*
X00194132Y00200704D01*
X00194139Y00200729D01*
X00194152Y00200775D01*
X00194176Y00200869D01*
X00194198Y00200963D01*
X00194217Y00201059D01*
X00194226Y00201106D01*
X00194230Y00201131D01*
X00194238Y00201181D01*
X00194246Y00201231D01*
X00194253Y00201280D01*
X00194256Y00201306D01*
X00194259Y00201332D01*
X00194265Y00201386D01*
X00194271Y00201441D01*
X00194276Y00201495D01*
X00194278Y00201522D01*
X00194278D01*
X00194281Y00201552D01*
X00194285Y00201612D01*
X00194289Y00201672D01*
X00194293Y00201732D01*
X00194294Y00201762D01*
X00194296Y00201796D01*
X00194299Y00201864D01*
X00194301Y00201932D01*
X00194303Y00202001D01*
X00194304Y00202034D01*
X00194306Y00202118D01*
X00194309Y00202286D01*
X00194311Y00202453D01*
X00194312Y00202620D01*
X00194311Y00202704D01*
X00194311Y00202704D01*
X00194310Y00203094D01*
X00194306Y00203418D01*
X00194306Y00203452D01*
X00194304Y00203519D01*
X00194302Y00203586D01*
X00194299Y00203653D01*
X00194297Y00203687D01*
X00194296Y00203715D01*
X00194293Y00203771D01*
X00194289Y00203827D01*
X00194284Y00203883D01*
X00194282Y00203911D01*
X00194280Y00203935D01*
X00194275Y00203983D01*
X00194269Y00204031D01*
X00194262Y00204078D01*
X00194258Y00204102D01*
X00194252Y00204143D01*
X00194235Y00204225D01*
X00194216Y00204305D01*
X00194192Y00204385D01*
X00194179Y00204425D01*
X00194172Y00204444D01*
X00194158Y00204482D01*
X00194144Y00204521D01*
X00194128Y00204559D01*
X00194120Y00204578D01*
X00194101Y00204621D01*
X00194062Y00204708D01*
X00194021Y00204793D01*
X00193978Y00204878D01*
X00193956Y00204920D01*
X00193930Y00204972D01*
X00193874Y00205072D01*
X00193813Y00205170D01*
X00193749Y00205265D01*
X00193714Y00205311D01*
X00193682Y00205354D01*
X00193615Y00205438D01*
X00193544Y00205518D01*
X00193470Y00205595D01*
X00193431Y00205632D01*
X00193360Y00205700D01*
X00193205Y00205822D01*
X00193040Y00205929D01*
X00192866Y00206021D01*
X00192775Y00206058D01*
X00192607Y00206128D01*
X00192249Y00206192D01*
X00191886Y00206177D01*
X00191535Y00206083D01*
X00191374Y00205998D01*
X00191287Y00205951D01*
X00191125Y00205839D01*
X00190975Y00205710D01*
X00190840Y00205565D01*
X00190781Y00205486D01*
X00190767Y00205468D01*
X00190741Y00205431D01*
X00190716Y00205392D01*
X00190693Y00205353D01*
X00190683Y00205333D01*
X00190640Y00205252D01*
X00190575Y00205081D01*
X00190532Y00204902D01*
X00190512Y00204720D01*
X00190513Y00204628D01*
X00190514Y00204606D01*
X00190516Y00204562D01*
X00190519Y00204519D01*
X00190524Y00204475D01*
X00190527Y00204453D01*
X00190527D01*
X00190530Y00204432D01*
X00190538Y00204391D01*
X00190547Y00204350D01*
X00190557Y00204309D01*
X00190563Y00204289D01*
X00190569Y00204270D01*
X00190582Y00204232D01*
X00190596Y00204195D01*
X00190612Y00204158D01*
X00190621Y00204140D01*
X00190637Y00204107D01*
X00190677Y00204044D01*
X00190723Y00203986D01*
X00190775Y00203933D01*
X00190804Y00203910D01*
X00190819Y00203898D01*
X00190851Y00203875D01*
X00190884Y00203854D01*
X00190918Y00203834D01*
X00190935Y00203825D01*
X00190953Y00203815D01*
X00190989Y00203797D01*
X00191025Y00203781D01*
X00191062Y00203766D01*
X00191081Y00203759D01*
X00191140Y00203739D01*
X00191260Y00203708D01*
X00191382Y00203689D01*
X00191506Y00203680D01*
X00191568Y00203682D01*
X00191609Y00203683D01*
X00191691Y00203689D01*
X00191772Y00203701D01*
X00191853Y00203718D01*
X00191893Y00203728D01*
X00191912Y00203734D01*
X00191951Y00203745D01*
X00191988Y00203759D01*
X00192026Y00203773D01*
X00192044Y00203781D01*
X00192080Y00203796D01*
X00192148Y00203831D01*
X00192213Y00203872D01*
X00192275Y00203918D01*
X00192304Y00203943D01*
X00192339Y00203975D01*
X00192401Y00204045D01*
X00192456Y00204122D01*
X00192501Y00204204D01*
X00192519Y00204247D01*
X00192537Y00204290D01*
X00192563Y00204378D01*
X00192580Y00204468D01*
X00192589Y00204559D01*
X00192588Y00204605D01*
X00192586Y00204753D01*
X00192503Y00205036D01*
X00192348Y00205287D01*
X00192131Y00205487D01*
X00192000Y00205554D01*
X00192000Y00205555D01*
X00191920Y00205597D01*
X00191912Y00205601D01*
X00191896Y00205610D01*
X00191880Y00205619D01*
X00191863Y00205628D01*
X00191856Y00205633D01*
X00191849Y00205636D01*
X00191837Y00205644D01*
X00191826Y00205651D01*
X00191814Y00205659D01*
X00191808Y00205662D01*
X00191804Y00205665D01*
X00191795Y00205671D01*
X00191787Y00205677D01*
X00191779Y00205683D01*
X00191776Y00205686D01*
X00191759Y00205705D01*
X00191759D01*
X00191758Y00205720D01*
X00191772Y00205730D01*
Y00205730D01*
X00191775Y00205731D01*
X00191782Y00205734D01*
X00191789Y00205735D01*
X00191796Y00205737D01*
X00191800Y00205737D01*
X00191812Y00205739D01*
X00191837Y00205741D01*
X00191862Y00205743D01*
X00191887Y00205743D01*
X00191899Y00205744D01*
X00191914Y00205743D01*
X00191945Y00205742D01*
X00191976Y00205739D01*
X00192006Y00205735D01*
X00192021Y00205733D01*
X00192039Y00205729D01*
X00192073Y00205722D01*
X00192107Y00205713D01*
X00192140Y00205703D01*
X00192157Y00205698D01*
X00192157Y00205698D01*
X00192175Y00205692D01*
X00192212Y00205679D01*
X00192248Y00205665D01*
X00192284Y00205650D01*
X00192302Y00205642D01*
X00192321Y00205633D01*
X00192359Y00205615D01*
X00192396Y00205596D01*
X00192433Y00205577D01*
X00192452Y00205567D01*
X00192510Y00205533D01*
X00192625Y00205461D01*
X00192736Y00205383D01*
X00192842Y00205299D01*
X00192894Y00205255D01*
X00192911Y00205240D01*
X00192944Y00205210D01*
X00192977Y00205178D01*
X00193009Y00205147D01*
X00193025Y00205131D01*
X00193055Y00205100D01*
X00193112Y00205037D01*
X00193166Y00204971D01*
X00193217Y00204902D01*
X00193241Y00204867D01*
X00193249Y00204855D01*
X00193265Y00204830D01*
X00193280Y00204805D01*
X00193295Y00204780D01*
X00193302Y00204767D01*
X00193316Y00204744D01*
X00193341Y00204696D01*
X00193364Y00204647D01*
X00193384Y00204597D01*
X00193393Y00204572D01*
X00193398Y00204559D01*
X00193406Y00204533D01*
X00193414Y00204506D01*
X00193421Y00204480D01*
X00193424Y00204466D01*
X00193428Y00204451D01*
X00193434Y00204422D01*
X00193439Y00204392D01*
X00193444Y00204362D01*
X00193446Y00204347D01*
X00193449Y00204330D01*
X00193452Y00204296D01*
X00193456Y00204261D01*
X00193459Y00204227D01*
X00193460Y00204210D01*
X00193461Y00204190D01*
X00193463Y00204150D01*
X00193465Y00204110D01*
X00193466Y00204069D01*
X00193467Y00204049D01*
X00193467Y00204026D01*
X00193467Y00203979D01*
X00193467Y00203931D01*
X00193467Y00203884D01*
X00193466Y00203860D01*
X00193465Y00203799D01*
X00193462Y00203678D01*
X00193458Y00203556D01*
X00193452Y00203435D01*
X00193450Y00203374D01*
X00193446Y00203301D01*
X00193435Y00203154D01*
X00193420Y00203008D01*
X00193403Y00202863D01*
X00193392Y00202790D01*
X00193380Y00202714D01*
X00193354Y00202561D01*
X00193325Y00202409D01*
X00193293Y00202258D01*
X00193275Y00202183D01*
X00193256Y00202104D01*
X00193216Y00201947D01*
X00193173Y00201791D01*
X00193127Y00201636D01*
X00193102Y00201559D01*
X00193077Y00201479D01*
X00193023Y00201319D01*
X00192966Y00201161D01*
X00192907Y00201003D01*
X00192877Y00200925D01*
X00192664Y00200428D01*
X00192172Y00199465D01*
X00191596Y00198550D01*
X00190940Y00197691D01*
X00190584Y00197285D01*
X00190563Y00197262D01*
X00190521Y00197218D01*
X00190479Y00197174D01*
X00190436Y00197131D01*
X00190414Y00197109D01*
X00190391Y00197086D01*
X00190344Y00197041D01*
X00190296Y00196995D01*
X00190249Y00196950D01*
X00190225Y00196928D01*
X00190175Y00196882D01*
X00190075Y00196792D01*
X00189973Y00196703D01*
X00189870Y00196616D01*
X00189818Y00196573D01*
X00189793Y00196552D01*
X00189744Y00196512D01*
X00189693Y00196471D01*
X00189643Y00196432D01*
X00189618Y00196412D01*
X00189594Y00196394D01*
X00189548Y00196358D01*
X00189501Y00196323D01*
X00189454Y00196288D01*
X00189430Y00196270D01*
X00189410Y00196255D01*
X00189368Y00196226D01*
X00189327Y00196197D01*
X00189285Y00196169D01*
X00189264Y00196155D01*
X00189247Y00196144D01*
X00189213Y00196123D01*
X00189179Y00196102D01*
X00189144Y00196082D01*
X00189127Y00196073D01*
X00189127D01*
X00189111Y00196060D01*
X00189075Y00196041D01*
X00189035Y00196030D01*
X00188995Y00196028D01*
X00188974Y00196030D01*
X00188967Y00196047D01*
X00188967Y00196051D01*
X00188967Y00196058D01*
X00188966Y00196066D01*
X00188967Y00196073D01*
X00188967Y00196077D01*
X00188968Y00196082D01*
X00188969Y00196093D01*
X00188971Y00196103D01*
X00188972Y00196113D01*
X00188974Y00196118D01*
X00188975Y00196125D01*
X00188978Y00196138D01*
X00188981Y00196151D01*
X00188984Y00196164D01*
X00188986Y00196170D01*
X00188988Y00196178D01*
X00188992Y00196193D01*
X00188997Y00196208D01*
X00189002Y00196223D01*
X00189004Y00196231D01*
X00189004D01*
X00189007Y00196239D01*
X00189012Y00196257D01*
X00189018Y00196274D01*
X00189024Y00196291D01*
X00189027Y00196299D01*
X00189030Y00196309D01*
X00189037Y00196328D01*
X00189044Y00196346D01*
X00189051Y00196365D01*
X00189055Y00196374D01*
X00189068Y00196406D01*
X00189094Y00196470D01*
X00189121Y00196533D01*
X00189150Y00196596D01*
X00189164Y00196627D01*
X00189184Y00196669D01*
X00189220Y00196753D01*
X00189253Y00196840D01*
X00189282Y00196927D01*
X00189295Y00196971D01*
X00189309Y00197016D01*
X00189332Y00197108D01*
X00189353Y00197201D01*
X00189371Y00197294D01*
X00189378Y00197341D01*
X00189385Y00197389D01*
X00189397Y00197485D01*
X00189406Y00197582D01*
X00189412Y00197680D01*
X00189414Y00197728D01*
X00189419Y00197932D01*
X00189387Y00198338D01*
X00189312Y00198738D01*
X00189196Y00199128D01*
X00189118Y00199316D01*
X00189118D01*
X00189060Y00199458D01*
X00188921Y00199729D01*
X00188758Y00199987D01*
X00188573Y00200229D01*
X00188471Y00200342D01*
X00188471Y00200342D01*
X00188030Y00200816D01*
X00188237Y00200329D01*
X00188241Y00200318D01*
X00188250Y00200296D01*
X00188258Y00200275D01*
X00188266Y00200252D01*
X00188270Y00200241D01*
X00188274Y00200229D01*
X00188282Y00200203D01*
X00188290Y00200178D01*
X00188298Y00200153D01*
X00188301Y00200140D01*
X00188305Y00200126D01*
X00188313Y00200098D01*
X00188320Y00200070D01*
X00188327Y00200042D01*
X00188331Y00200028D01*
X00188331D01*
X00188345Y00199965D01*
X00188371Y00199838D01*
X00188392Y00199711D01*
X00188410Y00199583D01*
X00188417Y00199519D01*
X00188419Y00199503D01*
X00188422Y00199470D01*
X00188425Y00199438D01*
X00188428Y00199406D01*
X00188429Y00199389D01*
X00188432Y00199359D01*
X00188435Y00199298D01*
X00188437Y00199236D01*
X00188438Y00199175D01*
X00188438Y00199145D01*
X00188437Y00199068D01*
X00188428Y00198914D01*
X00188411Y00198761D01*
X00188385Y00198610D01*
X00188369Y00198534D01*
X00188360Y00198494D01*
X00188339Y00198414D01*
X00188316Y00198335D01*
X00188291Y00198256D01*
X00188278Y00198217D01*
X00188262Y00198174D01*
X00188230Y00198089D01*
X00188196Y00198004D01*
X00188160Y00197921D01*
X00188141Y00197879D01*
X00188120Y00197833D01*
X00188075Y00197740D01*
X00188029Y00197648D01*
X00187980Y00197557D01*
X00187955Y00197512D01*
X00187927Y00197460D01*
X00187868Y00197358D01*
X00187808Y00197256D01*
X00187746Y00197155D01*
X00187715Y00197105D01*
X00187678Y00197047D01*
X00187604Y00196933D01*
X00187528Y00196819D01*
X00187452Y00196706D01*
X00187413Y00196650D01*
X00187368Y00196585D01*
X00187278Y00196456D01*
X00187186Y00196328D01*
X00187094Y00196200D01*
X00187047Y00196137D01*
X00186931Y00195980D01*
X00186696Y00195669D01*
X00186459Y00195360D01*
X00186219Y00195053D01*
X00186098Y00194900D01*
X00186098Y00194900D01*
X00185574Y00194234D01*
X00185071Y00193585D01*
X00184838Y00193281D01*
X00184623Y00192999D01*
X00184430Y00192744D01*
X00184264Y00192522D01*
X00184234Y00192482D01*
X00184175Y00192401D01*
X00184117Y00192320D01*
X00184059Y00192239D01*
X00184030Y00192198D01*
X00184030Y00192198D01*
X00183951Y00192085D01*
X00183874Y00191979D01*
X00183801Y00191882D01*
X00183793Y00191871D01*
X00183776Y00191849D01*
X00183759Y00191827D01*
X00183742Y00191805D01*
X00183733Y00191794D01*
X00183733Y00191794D01*
X00183725Y00191784D01*
X00183710Y00191765D01*
X00183694Y00191746D01*
X00183679Y00191727D01*
X00183671Y00191717D01*
X00183664Y00191709D01*
X00183650Y00191693D01*
X00183637Y00191677D01*
X00183623Y00191661D01*
X00183616Y00191653D01*
X00183610Y00191647D01*
X00183599Y00191634D01*
X00183587Y00191621D01*
X00183575Y00191609D01*
X00183569Y00191603D01*
X00183565Y00191598D01*
X00183556Y00191589D01*
X00183546Y00191580D01*
X00183537Y00191572D01*
X00183532Y00191568D01*
X00183490Y00191548D01*
X00183490D01*
X00183483Y00191560D01*
X00183479Y00191577D01*
X00183479Y00191579D01*
X00183479Y00191585D01*
X00183479Y00191590D01*
X00183479Y00191595D01*
X00183479Y00191598D01*
X00183479Y00191601D01*
X00183480Y00191608D01*
X00183481Y00191614D01*
X00183482Y00191621D01*
X00183483Y00191624D01*
X00183483Y00191628D01*
X00183485Y00191635D01*
X00183487Y00191642D01*
X00183488Y00191650D01*
X00183489Y00191653D01*
X00183490Y00191658D01*
X00183493Y00191666D01*
X00183495Y00191674D01*
X00183498Y00191682D01*
X00183499Y00191686D01*
X00183500Y00191690D01*
X00183503Y00191699D01*
X00183507Y00191708D01*
X00183510Y00191716D01*
X00183512Y00191721D01*
Y00191721D01*
X00183517Y00191735D01*
X00183530Y00191763D01*
X00183543Y00191792D01*
X00183557Y00191819D01*
X00183565Y00191833D01*
X00183565D01*
X00183569Y00191840D01*
X00183576Y00191854D01*
X00183582Y00191869D01*
X00183589Y00191883D01*
X00183592Y00191891D01*
X00183597Y00191902D01*
X00183606Y00191925D01*
X00183616Y00191949D01*
X00183625Y00191972D01*
X00183630Y00191984D01*
X00183636Y00191999D01*
X00183647Y00192031D01*
X00183659Y00192062D01*
X00183671Y00192094D01*
X00183676Y00192109D01*
X00183676Y00192109D01*
X00183731Y00192263D01*
X00183793Y00192442D01*
X00183860Y00192642D01*
X00183932Y00192859D01*
X00184159Y00193579D01*
X00184180Y00193645D01*
X00184221Y00193776D01*
X00184263Y00193906D01*
X00184306Y00194037D01*
X00184328Y00194102D01*
Y00194102D01*
X00184348Y00194163D01*
X00184390Y00194285D01*
X00184433Y00194406D01*
X00184477Y00194527D01*
X00184499Y00194588D01*
X00184499D01*
X00184521Y00194645D01*
X00184564Y00194758D01*
X00184608Y00194870D01*
X00184653Y00194983D01*
X00184676Y00195039D01*
X00184698Y00195092D01*
X00184743Y00195197D01*
X00184789Y00195301D01*
X00184836Y00195406D01*
X00184860Y00195458D01*
X00184883Y00195507D01*
X00184930Y00195605D01*
X00184978Y00195702D01*
X00185027Y00195799D01*
X00185052Y00195847D01*
X00185076Y00195893D01*
X00185125Y00195984D01*
X00185175Y00196075D01*
X00185226Y00196165D01*
X00185253Y00196210D01*
X00185352Y00196376D01*
X00185566Y00196699D01*
X00185798Y00197009D01*
X00186047Y00197305D01*
X00186178Y00197448D01*
X00186178Y00197448D01*
X00186820Y00198128D01*
X00186185Y00197781D01*
X00186141Y00197756D01*
X00186053Y00197707D01*
X00185965Y00197657D01*
X00185877Y00197606D01*
X00185833Y00197581D01*
Y00197581D01*
X00185787Y00197553D01*
X00185695Y00197498D01*
X00185603Y00197443D01*
X00185512Y00197386D01*
X00185466Y00197358D01*
X00185274Y00197237D01*
X00184893Y00196986D01*
X00184518Y00196728D01*
X00184149Y00196461D01*
X00183967Y00196324D01*
Y00196324D01*
X00183922Y00196291D01*
X00183833Y00196223D01*
X00183745Y00196155D01*
X00183657Y00196086D01*
X00183613Y00196052D01*
X00183571Y00196018D01*
X00183488Y00195951D01*
X00183404Y00195884D01*
X00183322Y00195816D01*
X00183280Y00195782D01*
X00183206Y00195720D01*
X00183058Y00195594D01*
X00182913Y00195465D01*
X00182770Y00195334D01*
X00182699Y00195267D01*
X00182699D01*
X00182639Y00195210D01*
X00182520Y00195094D01*
X00182403Y00194977D01*
X00182287Y00194858D01*
X00182230Y00194798D01*
X00182176Y00194742D01*
X00182071Y00194628D01*
X00181967Y00194513D01*
X00181866Y00194396D01*
X00181816Y00194337D01*
X00181674Y00194169D01*
X00181409Y00193817D01*
X00181167Y00193450D01*
X00180947Y00193069D01*
X00180848Y00192872D01*
X00180814Y00192803D01*
X00180748Y00192666D01*
X00180685Y00192527D01*
X00180625Y00192386D01*
X00180596Y00192316D01*
X00180565Y00192240D01*
X00180506Y00192089D01*
X00180450Y00191936D01*
X00180395Y00191783D01*
X00180369Y00191705D01*
X00180341Y00191621D01*
X00180287Y00191453D01*
X00180235Y00191284D01*
X00180185Y00191114D01*
X00180161Y00191028D01*
Y00191028D01*
X00180107Y00190830D01*
X00180004Y00190430D01*
X00179908Y00190029D01*
X00179819Y00189627D01*
X00179778Y00189425D01*
X00179762Y00189350D01*
X00179730Y00189201D01*
X00179698Y00189053D01*
X00179664Y00188904D01*
X00179647Y00188830D01*
X00179631Y00188763D01*
X00179599Y00188629D01*
X00179566Y00188495D01*
X00179533Y00188362D01*
X00179515Y00188295D01*
X00179499Y00188235D01*
X00179467Y00188116D01*
X00179433Y00187996D01*
X00179398Y00187877D01*
X00179380Y00187817D01*
X00179364Y00187764D01*
X00179331Y00187657D01*
X00179296Y00187550D01*
X00179259Y00187444D01*
X00179241Y00187391D01*
X00179224Y00187343D01*
X00179188Y00187248D01*
X00179152Y00187153D01*
X00179114Y00187059D01*
X00179094Y00187012D01*
X00179076Y00186969D01*
X00179039Y00186884D01*
X00179000Y00186800D01*
X00178960Y00186716D01*
X00178939Y00186674D01*
X00178920Y00186636D01*
X00178880Y00186561D01*
X00178838Y00186486D01*
X00178795Y00186412D01*
X00178773Y00186375D01*
X00178712Y00186277D01*
X00178579Y00186088D01*
X00178433Y00185908D01*
X00178275Y00185739D01*
X00178192Y00185658D01*
X00178192D01*
X00177738Y00185236D01*
X00178188Y00186084D01*
X00178201Y00186108D01*
X00178226Y00186156D01*
X00178251Y00186205D01*
X00178276Y00186253D01*
X00178288Y00186277D01*
X00178299Y00186300D01*
X00178321Y00186345D01*
X00178343Y00186391D01*
X00178364Y00186437D01*
X00178375Y00186460D01*
X00178404Y00186523D01*
X00178458Y00186653D01*
X00178507Y00186784D01*
X00178552Y00186916D01*
X00178572Y00186984D01*
X00178572D01*
X00178579Y00187006D01*
X00178592Y00187051D01*
X00178604Y00187096D01*
X00178616Y00187142D01*
X00178622Y00187164D01*
X00178627Y00187188D01*
X00178639Y00187236D01*
X00178649Y00187283D01*
X00178659Y00187331D01*
X00178664Y00187355D01*
X00178669Y00187381D01*
X00178679Y00187432D01*
X00178689Y00187483D01*
X00178698Y00187534D01*
X00178702Y00187560D01*
X00178711Y00187618D01*
X00178729Y00187735D01*
X00178745Y00187852D01*
X00178760Y00187970D01*
X00178767Y00188029D01*
X00178767Y00188029D01*
X00178869Y00188863D01*
X00178881Y00188953D01*
X00178905Y00189132D01*
X00178930Y00189310D01*
X00178956Y00189489D01*
X00178969Y00189578D01*
X00178981Y00189655D01*
X00179005Y00189808D01*
X00179031Y00189961D01*
X00179058Y00190114D01*
X00179072Y00190190D01*
X00179085Y00190256D01*
X00179111Y00190388D01*
X00179139Y00190519D01*
X00179169Y00190650D01*
X00179184Y00190715D01*
X00179198Y00190773D01*
X00179227Y00190887D01*
X00179259Y00191001D01*
X00179292Y00191114D01*
X00179309Y00191171D01*
X00179341Y00191270D01*
X00179411Y00191466D01*
X00179489Y00191658D01*
X00179576Y00191847D01*
X00179622Y00191940D01*
X00179622D01*
X00179645Y00191984D01*
X00179692Y00192072D01*
X00179742Y00192159D01*
X00179793Y00192244D01*
X00179820Y00192287D01*
X00179878Y00192377D01*
X00179999Y00192556D01*
X00180126Y00192732D01*
X00180257Y00192904D01*
X00180324Y00192988D01*
Y00192988D01*
X00180525Y00193245D01*
X00180587Y00193326D01*
X00180646Y00193403D01*
X00180699Y00193474D01*
X00180746Y00193538D01*
X00180786Y00193592D01*
X00180793Y00193602D01*
X00180807Y00193621D01*
X00180820Y00193640D01*
X00180833Y00193659D01*
X00180839Y00193669D01*
X00180846Y00193672D01*
X00180853Y00193683D01*
X00180853Y00193697D01*
X00180846Y00193708D01*
X00180840Y00193711D01*
X00180828Y00193710D01*
X00180806Y00193707D01*
X00180784Y00193702D01*
X00180763Y00193694D01*
X00180753Y00193688D01*
X00180732Y00193680D01*
X00180692Y00193661D01*
X00180652Y00193642D01*
X00180612Y00193622D01*
X00180593Y00193611D01*
X00180565Y00193596D01*
X00180510Y00193566D01*
X00180456Y00193535D01*
X00180401Y00193503D01*
X00180374Y00193487D01*
X00180341Y00193468D01*
X00180275Y00193428D01*
X00180210Y00193388D01*
X00180144Y00193348D01*
X00180112Y00193327D01*
Y00193327D01*
X00180036Y00193280D01*
X00179885Y00193183D01*
X00179736Y00193084D01*
X00179587Y00192984D01*
X00179513Y00192933D01*
X00179474Y00192906D01*
X00179397Y00192853D01*
X00179320Y00192799D01*
X00179243Y00192744D01*
X00179205Y00192717D01*
X00179134Y00192666D01*
X00178992Y00192562D01*
X00178852Y00192456D01*
X00178714Y00192347D01*
X00178646Y00192292D01*
X00178585Y00192243D01*
X00178465Y00192143D01*
X00178347Y00192042D01*
X00178230Y00191940D01*
X00178172Y00191887D01*
X00178117Y00191839D01*
X00178011Y00191740D01*
X00177905Y00191639D01*
X00177801Y00191537D01*
X00177750Y00191485D01*
X00177561Y00191297D01*
X00177214Y00190890D01*
X00176901Y00190457D01*
X00176625Y00190000D01*
X00176505Y00189761D01*
X00176475Y00189700D01*
X00176417Y00189577D01*
X00176361Y00189453D01*
X00176308Y00189327D01*
X00176283Y00189264D01*
X00176256Y00189198D01*
X00176204Y00189065D01*
X00176155Y00188931D01*
X00176109Y00188796D01*
X00176087Y00188728D01*
X00176038Y00188577D01*
X00175948Y00188273D01*
X00175865Y00187967D01*
X00175791Y00187660D01*
X00175757Y00187505D01*
X00175757Y00187505D01*
X00175548Y00186562D01*
X00175373Y00185786D01*
X00175225Y00185154D01*
X00175209Y00185089D01*
X00175178Y00184961D01*
X00175146Y00184833D01*
X00175113Y00184705D01*
X00175097Y00184641D01*
X00175083Y00184589D01*
X00175056Y00184484D01*
X00175027Y00184380D01*
X00174998Y00184276D01*
X00174983Y00184224D01*
X00174970Y00184181D01*
X00174944Y00184095D01*
X00174917Y00184009D01*
X00174890Y00183923D01*
X00174875Y00183880D01*
X00174875Y00183880D01*
X00174863Y00183843D01*
X00174837Y00183769D01*
X00174810Y00183695D01*
X00174782Y00183621D01*
X00174767Y00183584D01*
X00174754Y00183550D01*
X00174726Y00183482D01*
X00174697Y00183414D01*
X00174668Y00183347D01*
X00174653Y00183314D01*
X00174619Y00183242D01*
X00174551Y00183101D01*
X00174481Y00182960D01*
X00174410Y00182821D01*
X00174373Y00182752D01*
X00174373Y00182752D01*
X00174325Y00182662D01*
X00174228Y00182484D01*
X00174128Y00182308D01*
X00174024Y00182133D01*
X00173972Y00182046D01*
X00173972Y00182046D01*
X00173868Y00181880D01*
X00173856Y00181861D01*
X00173831Y00181822D01*
X00173806Y00181783D01*
X00173780Y00181744D01*
X00173768Y00181725D01*
X00173756Y00181707D01*
X00173732Y00181672D01*
X00173708Y00181636D01*
X00173684Y00181601D01*
X00173672Y00181583D01*
X00173661Y00181567D01*
X00173639Y00181536D01*
X00173616Y00181504D01*
X00173594Y00181473D01*
X00173582Y00181458D01*
X00173582D01*
X00173565Y00181433D01*
X00173528Y00181385D01*
X00173491Y00181338D01*
X00173452Y00181292D01*
X00173432Y00181269D01*
X00173432Y00181269D01*
X00173044Y00180843D01*
X00173369Y00181483D01*
X00173389Y00181523D01*
X00173429Y00181603D01*
X00173468Y00181683D01*
X00173507Y00181763D01*
X00173526Y00181803D01*
X00173632Y00182026D01*
X00173819Y00182481D01*
X00173979Y00182947D01*
X00174111Y00183421D01*
X00174163Y00183662D01*
X00174172Y00183702D01*
X00174189Y00183784D01*
X00174205Y00183865D01*
X00174220Y00183947D01*
X00174227Y00183988D01*
X00174242Y00184074D01*
X00174270Y00184246D01*
X00174295Y00184419D01*
X00174317Y00184592D01*
X00174327Y00184679D01*
X00174327Y00184679D01*
X00174399Y00185284D01*
X00174407Y00185351D01*
X00174425Y00185486D01*
X00174443Y00185621D01*
X00174462Y00185756D01*
X00174472Y00185824D01*
X00174480Y00185884D01*
X00174499Y00186005D01*
X00174517Y00186126D01*
X00174537Y00186247D01*
X00174547Y00186307D01*
X00174547D01*
X00174556Y00186362D01*
X00174575Y00186470D01*
X00174595Y00186579D01*
X00174616Y00186687D01*
X00174627Y00186741D01*
X00174637Y00186790D01*
X00174657Y00186888D01*
X00174679Y00186986D01*
X00174701Y00187084D01*
X00174713Y00187133D01*
X00174723Y00187178D01*
X00174746Y00187267D01*
X00174769Y00187356D01*
X00174794Y00187445D01*
X00174806Y00187490D01*
X00174854Y00187648D01*
X00174960Y00187962D01*
X00175082Y00188269D01*
X00175220Y00188570D01*
X00175295Y00188718D01*
X00175295Y00188718D01*
X00175443Y00189008D01*
X00175457Y00189035D01*
X00175484Y00189091D01*
X00175510Y00189147D01*
X00175536Y00189203D01*
X00175549Y00189232D01*
X00175558Y00189251D01*
X00175574Y00189290D01*
X00175589Y00189329D01*
X00175603Y00189369D01*
X00175609Y00189389D01*
X00175613Y00189400D01*
X00175619Y00189422D01*
X00175621Y00189444D01*
X00175621Y00189467D01*
X00175619Y00189478D01*
X00175617Y00189485D01*
X00175607Y00189496D01*
X00175595Y00189502D01*
X00175580Y00189502D01*
X00175574Y00189499D01*
X00175560Y00189496D01*
X00175533Y00189486D01*
X00175506Y00189474D01*
X00175481Y00189460D01*
X00175469Y00189452D01*
X00175447Y00189438D01*
X00175404Y00189409D01*
X00175362Y00189380D01*
X00175321Y00189349D01*
X00175301Y00189333D01*
X00175271Y00189310D01*
X00175211Y00189264D01*
X00175152Y00189216D01*
X00175093Y00189169D01*
X00175064Y00189144D01*
X00174976Y00189071D01*
X00174800Y00188924D01*
X00174626Y00188775D01*
X00174453Y00188626D01*
X00174366Y00188551D01*
X00174300Y00188493D01*
X00174167Y00188377D01*
X00174035Y00188260D01*
X00173903Y00188142D01*
X00173838Y00188083D01*
X00173838Y00188083D01*
X00173777Y00188028D01*
X00173656Y00187916D01*
X00173536Y00187804D01*
X00173417Y00187691D01*
X00173358Y00187634D01*
X00173303Y00187581D01*
X00173194Y00187473D01*
X00173085Y00187365D01*
X00172978Y00187255D01*
X00172924Y00187200D01*
X00172874Y00187148D01*
X00172775Y00187043D01*
X00172677Y00186938D01*
X00172581Y00186831D01*
X00172533Y00186777D01*
X00172487Y00186726D01*
X00172398Y00186623D01*
X00172310Y00186520D01*
X00172223Y00186415D01*
X00172180Y00186362D01*
X00171984Y00186122D01*
X00171625Y00185616D01*
X00171303Y00185087D01*
X00171017Y00184536D01*
X00170894Y00184252D01*
X00170863Y00184181D01*
X00170805Y00184038D01*
X00170750Y00183894D01*
X00170699Y00183748D01*
X00170675Y00183674D01*
X00170662Y00183634D01*
X00170637Y00183553D01*
X00170613Y00183472D01*
X00170589Y00183390D01*
X00170578Y00183349D01*
X00170565Y00183304D01*
X00170541Y00183214D01*
X00170518Y00183124D01*
X00170496Y00183034D01*
X00170485Y00182988D01*
X00170473Y00182938D01*
X00170450Y00182836D01*
X00170428Y00182735D01*
X00170407Y00182633D01*
X00170396Y00182582D01*
X00170385Y00182525D01*
X00170362Y00182410D01*
X00170340Y00182295D01*
X00170319Y00182180D01*
X00170309Y00182122D01*
X00170298Y00182057D01*
X00170275Y00181926D01*
X00170253Y00181795D01*
X00170232Y00181665D01*
X00170222Y00181599D01*
X00170222Y00181599D01*
X00170132Y00181004D01*
X00169940Y00179564D01*
X00169925Y00179448D01*
X00169894Y00179216D01*
X00169860Y00178984D01*
X00169823Y00178752D01*
X00169804Y00178637D01*
X00169804D01*
X00169785Y00178525D01*
X00169745Y00178302D01*
X00169702Y00178079D01*
X00169658Y00177857D01*
X00169635Y00177746D01*
X00169624Y00177694D01*
X00169601Y00177590D01*
X00169578Y00177485D01*
X00169554Y00177381D01*
X00169541Y00177329D01*
X00169530Y00177280D01*
X00169506Y00177182D01*
X00169482Y00177085D01*
X00169457Y00176987D01*
X00169444Y00176938D01*
X00169432Y00176893D01*
X00169408Y00176803D01*
X00169382Y00176713D01*
X00169357Y00176623D01*
X00169344Y00176579D01*
X00169332Y00176538D01*
X00169307Y00176457D01*
X00169281Y00176376D01*
X00169255Y00176296D01*
X00169242Y00176256D01*
X00169220Y00176191D01*
X00169173Y00176061D01*
X00169122Y00175933D01*
X00169068Y00175807D01*
X00169039Y00175744D01*
X00169039Y00175744D01*
X00168853Y00175362D01*
X00168929Y00175728D01*
X00168952Y00175843D01*
X00168997Y00176073D01*
X00169039Y00176303D01*
X00169079Y00176534D01*
X00169097Y00176650D01*
X00169097Y00176650D01*
X00169145Y00176976D01*
X00169192Y00177324D01*
X00169237Y00177703D01*
X00169282Y00178120D01*
X00169329Y00178585D01*
X00169428Y00179686D01*
X00169491Y00180374D01*
X00169556Y00181012D01*
X00169624Y00181601D01*
X00169695Y00182143D01*
X00169703Y00182205D01*
X00169721Y00182329D01*
X00169740Y00182452D01*
X00169759Y00182576D01*
X00169769Y00182638D01*
X00169778Y00182694D01*
X00169797Y00182806D01*
X00169816Y00182918D01*
X00169836Y00183031D01*
X00169846Y00183087D01*
X00169855Y00183137D01*
X00169875Y00183239D01*
X00169895Y00183340D01*
X00169916Y00183441D01*
X00169927Y00183491D01*
X00169937Y00183536D01*
X00169957Y00183626D01*
X00169978Y00183717D01*
X00170000Y00183807D01*
X00170011Y00183852D01*
X00170011D01*
X00170030Y00183927D01*
X00170072Y00184076D01*
X00170117Y00184225D01*
X00170166Y00184373D01*
X00170191Y00184446D01*
X00170191Y00184446D01*
X00170199Y00184466D01*
X00170214Y00184507D01*
X00170228Y00184548D01*
X00170242Y00184590D01*
X00170249Y00184610D01*
X00170249Y00184610D01*
X00170274Y00184686D01*
X00170277Y00184695D01*
X00170282Y00184713D01*
X00170287Y00184731D01*
X00170293Y00184748D01*
X00170295Y00184757D01*
X00170298Y00184765D01*
X00170302Y00184781D01*
X00170307Y00184797D01*
X00170311Y00184813D01*
X00170313Y00184821D01*
X00170315Y00184828D01*
X00170319Y00184842D01*
X00170322Y00184856D01*
X00170326Y00184870D01*
X00170327Y00184877D01*
X00170329Y00184883D01*
X00170331Y00184895D01*
X00170334Y00184907D01*
X00170336Y00184919D01*
X00170338Y00184925D01*
X00170338Y00184929D01*
X00170340Y00184938D01*
X00170341Y00184947D01*
X00170343Y00184957D01*
X00170343Y00184961D01*
X00170344Y00184966D01*
X00170345Y00184976D01*
X00170344Y00184986D01*
X00170342Y00184996D01*
X00170340Y00185000D01*
X00170330Y00185002D01*
X00170309Y00185001D01*
X00170289Y00184995D01*
X00170271Y00184984D01*
X00170263Y00184977D01*
X00170242Y00184964D01*
X00170201Y00184937D01*
X00170160Y00184908D01*
X00170121Y00184879D01*
X00170102Y00184863D01*
X00170072Y00184840D01*
X00170015Y00184794D01*
X00169958Y00184747D01*
X00169901Y00184700D01*
X00169873Y00184676D01*
X00169838Y00184645D01*
X00169769Y00184585D01*
X00169699Y00184523D01*
X00169630Y00184462D01*
X00169596Y00184431D01*
X00169516Y00184358D01*
X00169357Y00184211D01*
X00169200Y00184062D01*
X00169043Y00183913D01*
X00168966Y00183837D01*
X00168926Y00183798D01*
X00168846Y00183719D01*
X00168767Y00183640D01*
X00168688Y00183561D01*
X00168648Y00183521D01*
X00168611Y00183483D01*
X00168536Y00183407D01*
X00168463Y00183331D01*
X00168389Y00183254D01*
X00168353Y00183215D01*
X00168293Y00183153D01*
X00168177Y00183027D01*
X00168063Y00182898D01*
X00167952Y00182766D01*
X00167898Y00182700D01*
X00167841Y00182626D01*
X00167728Y00182478D01*
X00167617Y00182328D01*
X00167508Y00182176D01*
X00167455Y00182100D01*
Y00182100D01*
X00167260Y00181828D01*
X00166924Y00181250D01*
X00166645Y00180642D01*
X00166426Y00180010D01*
X00166347Y00179685D01*
X00166327Y00179600D01*
X00166291Y00179429D01*
X00166259Y00179258D01*
X00166230Y00179086D01*
X00166218Y00179000D01*
X00166205Y00178906D01*
X00166182Y00178719D01*
X00166163Y00178532D01*
X00166147Y00178344D01*
X00166141Y00178250D01*
X00166134Y00178146D01*
X00166124Y00177939D01*
X00166116Y00177732D01*
X00166112Y00177525D01*
X00166111Y00177421D01*
X00166111Y00177176D01*
X00166119Y00176685D01*
X00166137Y00176195D01*
X00166164Y00175706D01*
X00166182Y00175461D01*
X00166187Y00175384D01*
X00166197Y00175228D01*
X00166206Y00175072D01*
X00166215Y00174917D01*
X00166219Y00174839D01*
X00166222Y00174767D01*
X00166229Y00174622D01*
X00166235Y00174478D01*
X00166240Y00174333D01*
X00166242Y00174261D01*
X00166244Y00174193D01*
X00166247Y00174059D01*
X00166249Y00173924D01*
X00166250Y00173790D01*
X00166251Y00173723D01*
X00166251D01*
X00166251Y00173660D01*
X00166251Y00173535D01*
X00166249Y00173410D01*
X00166247Y00173284D01*
X00166246Y00173222D01*
X00166244Y00173163D01*
X00166240Y00173046D01*
X00166235Y00172930D01*
X00166229Y00172813D01*
X00166226Y00172754D01*
X00166222Y00172700D01*
X00166215Y00172590D01*
X00166206Y00172481D01*
X00166196Y00172372D01*
X00166191Y00172317D01*
X00166186Y00172266D01*
X00166174Y00172163D01*
X00166162Y00172061D01*
X00166148Y00171958D01*
X00166141Y00171907D01*
X00166120Y00171767D01*
X00166070Y00171488D01*
X00166010Y00171212D01*
X00165939Y00170938D01*
X00165900Y00170802D01*
X00165895Y00170786D01*
X00165886Y00170755D01*
X00165876Y00170724D01*
X00165866Y00170693D01*
X00165860Y00170678D01*
X00165857Y00170668D01*
X00165849Y00170648D01*
X00165841Y00170628D01*
X00165832Y00170608D01*
X00165828Y00170599D01*
X00165801Y00170571D01*
X00165781Y00170602D01*
X00165778Y00170614D01*
X00165773Y00170638D01*
X00165769Y00170662D01*
X00165766Y00170686D01*
X00165765Y00170698D01*
X00165765D01*
X00165763Y00170719D01*
X00165760Y00170761D01*
X00165757Y00170803D01*
X00165755Y00170845D01*
X00165754Y00170866D01*
X00165752Y00170897D01*
X00165750Y00170958D01*
X00165748Y00171020D01*
X00165746Y00171082D01*
X00165746Y00171112D01*
X00165746Y00171112D01*
X00165741Y00171444D01*
X00165740Y00171562D01*
X00165739Y00171798D01*
X00165738Y00172035D01*
X00165737Y00172271D01*
X00165737Y00172389D01*
Y00172390D01*
X00165735Y00172884D01*
X00165730Y00173315D01*
X00165720Y00173692D01*
X00165718Y00173734D01*
X00165715Y00173817D01*
X00165711Y00173900D01*
X00165707Y00173983D01*
X00165705Y00174025D01*
X00165702Y00174062D01*
X00165698Y00174137D01*
X00165692Y00174212D01*
X00165686Y00174286D01*
X00165683Y00174323D01*
X00165678Y00174390D01*
X00165664Y00174523D01*
X00165648Y00174656D01*
X00165629Y00174788D01*
X00165618Y00174855D01*
X00165613Y00174886D01*
X00165603Y00174950D01*
X00165592Y00175013D01*
X00165580Y00175076D01*
X00165574Y00175107D01*
X00165560Y00175174D01*
X00165532Y00175306D01*
X00165502Y00175438D01*
X00165471Y00175570D01*
X00165454Y00175635D01*
X00165454Y00175635D01*
X00165441Y00175686D01*
X00165417Y00175789D01*
X00165393Y00175891D01*
X00165371Y00175994D01*
X00165359Y00176045D01*
X00165349Y00176094D01*
X00165330Y00176192D01*
X00165311Y00176290D01*
X00165293Y00176389D01*
X00165285Y00176438D01*
X00165285D01*
X00165277Y00176485D01*
X00165263Y00176579D01*
X00165249Y00176673D01*
X00165236Y00176767D01*
X00165231Y00176814D01*
X00165225Y00176858D01*
X00165215Y00176948D01*
X00165207Y00177037D01*
X00165200Y00177127D01*
X00165196Y00177172D01*
X00165194Y00177214D01*
X00165189Y00177299D01*
X00165185Y00177385D01*
X00165183Y00177470D01*
X00165182Y00177512D01*
X00165182Y00177553D01*
X00165182Y00177634D01*
X00165184Y00177715D01*
X00165186Y00177795D01*
X00165188Y00177836D01*
X00165190Y00177874D01*
X00165196Y00177951D01*
X00165202Y00178027D01*
X00165210Y00178104D01*
X00165215Y00178142D01*
X00165219Y00178178D01*
X00165229Y00178250D01*
X00165241Y00178322D01*
X00165254Y00178394D01*
X00165261Y00178430D01*
X00165275Y00178497D01*
X00165308Y00178629D01*
X00165346Y00178761D01*
X00165390Y00178890D01*
X00165414Y00178954D01*
Y00178954D01*
X00165453Y00179053D01*
X00165488Y00179146D01*
X00165521Y00179234D01*
X00165549Y00179314D01*
X00165574Y00179385D01*
X00165576Y00179393D01*
X00165581Y00179408D01*
X00165586Y00179423D01*
X00165591Y00179438D01*
X00165593Y00179446D01*
X00165595Y00179452D01*
X00165599Y00179465D01*
X00165602Y00179477D01*
X00165606Y00179490D01*
X00165608Y00179496D01*
X00165609Y00179500D01*
X00165611Y00179510D01*
X00165614Y00179519D01*
X00165616Y00179528D01*
X00165617Y00179533D01*
X00165619Y00179536D01*
X00165621Y00179545D01*
X00165621Y00179553D01*
X00165619Y00179561D01*
X00165617Y00179564D01*
X00165606Y00179559D01*
X00165586Y00179546D01*
X00165569Y00179531D01*
X00165553Y00179513D01*
X00165547Y00179503D01*
X00165530Y00179482D01*
X00165496Y00179441D01*
X00165464Y00179398D01*
X00165432Y00179355D01*
X00165417Y00179333D01*
X00165394Y00179301D01*
X00165349Y00179237D01*
X00165305Y00179172D01*
X00165261Y00179107D01*
X00165239Y00179074D01*
X00165212Y00179034D01*
X00165158Y00178952D01*
X00165105Y00178870D01*
X00165052Y00178788D01*
X00165026Y00178747D01*
X00164964Y00178650D01*
X00164842Y00178456D01*
X00164722Y00178261D01*
X00164603Y00178065D01*
X00164543Y00177967D01*
X00164544Y00177967D01*
X00164299Y00177554D01*
X00164070Y00177154D01*
X00164022Y00177069D01*
X00163928Y00176899D01*
X00163837Y00176728D01*
X00163747Y00176556D01*
X00163704Y00176469D01*
X00163676Y00176412D01*
X00163621Y00176299D01*
X00163567Y00176186D01*
X00163514Y00176072D01*
X00163488Y00176015D01*
X00163464Y00175963D01*
X00163416Y00175859D01*
X00163370Y00175754D01*
X00163325Y00175649D01*
X00163302Y00175596D01*
X00163282Y00175547D01*
X00163242Y00175450D01*
X00163203Y00175352D01*
X00163165Y00175253D01*
X00163147Y00175204D01*
X00163080Y00175028D01*
X00162966Y00174669D01*
X00162874Y00174304D01*
X00162804Y00173934D01*
X00162779Y00173748D01*
X00162773Y00173701D01*
X00162763Y00173608D01*
X00162753Y00173514D01*
X00162745Y00173421D01*
X00162741Y00173374D01*
X00162734Y00173272D01*
X00162724Y00173069D01*
X00162718Y00172866D01*
X00162716Y00172663D01*
X00162717Y00172561D01*
X00162717Y00172561D01*
X00162721Y00172252D01*
X00162722Y00172218D01*
X00162724Y00172150D01*
X00162726Y00172082D01*
X00162729Y00172014D01*
X00162731Y00171980D01*
X00162733Y00171949D01*
X00162736Y00171887D01*
X00162741Y00171825D01*
X00162746Y00171763D01*
X00162749Y00171732D01*
X00162752Y00171703D01*
X00162758Y00171643D01*
X00162765Y00171584D01*
X00162773Y00171525D01*
X00162777Y00171496D01*
X00162777D01*
X00162782Y00171466D01*
X00162792Y00171406D01*
X00162802Y00171346D01*
X00162813Y00171287D01*
X00162819Y00171257D01*
X00162826Y00171226D01*
X00162839Y00171162D01*
X00162854Y00171099D01*
X00162869Y00171036D01*
X00162877Y00171004D01*
X00162886Y00170969D01*
X00162904Y00170899D01*
X00162924Y00170828D01*
X00162943Y00170758D01*
X00162954Y00170723D01*
X00162965Y00170683D01*
X00162989Y00170602D01*
X00163014Y00170522D01*
X00163039Y00170442D01*
X00163051Y00170402D01*
X00163084Y00170299D01*
X00163151Y00170095D01*
X00163218Y00169890D01*
X00163287Y00169686D01*
X00163321Y00169584D01*
X00163321Y00169584D01*
X00163427Y00169265D01*
X00163452Y00169189D01*
X00163500Y00169035D01*
X00163547Y00168882D01*
X00163594Y00168728D01*
X00163616Y00168651D01*
X00163616Y00168651D01*
X00163698Y00168361D01*
X00163708Y00168326D01*
X00163726Y00168258D01*
X00163745Y00168189D01*
X00163762Y00168120D01*
X00163771Y00168086D01*
X00163780Y00168054D01*
X00163796Y00167989D01*
X00163811Y00167925D01*
X00163827Y00167860D01*
X00163834Y00167828D01*
X00163841Y00167799D01*
X00163855Y00167739D01*
X00163868Y00167680D01*
X00163881Y00167621D01*
X00163887Y00167591D01*
X00163893Y00167564D01*
X00163904Y00167511D01*
X00163914Y00167457D01*
X00163924Y00167403D01*
X00163929Y00167376D01*
X00163929Y00167376D01*
X00163937Y00167333D01*
X00163950Y00167246D01*
X00163962Y00167158D01*
X00163972Y00167071D01*
X00163976Y00167027D01*
X00163976Y00167027D01*
X00164034Y00166228D01*
X00163836Y00166837D01*
X00163822Y00166878D01*
X00163796Y00166959D01*
X00163768Y00167040D01*
X00163741Y00167121D01*
X00163727Y00167161D01*
X00163713Y00167200D01*
X00163686Y00167278D01*
X00163659Y00167356D01*
X00163631Y00167433D01*
X00163616Y00167472D01*
X00163575Y00167583D01*
X00163490Y00167805D01*
X00163400Y00168024D01*
X00163307Y00168243D01*
X00163259Y00168351D01*
X00163259D01*
X00163226Y00168423D01*
X00163160Y00168567D01*
X00163092Y00168710D01*
X00163022Y00168853D01*
X00162986Y00168923D01*
X00162968Y00168960D01*
X00162931Y00169033D01*
X00162893Y00169106D01*
X00162855Y00169178D01*
X00162836Y00169214D01*
X00162795Y00169291D01*
X00162712Y00169443D01*
X00162628Y00169595D01*
X00162543Y00169746D01*
X00162499Y00169821D01*
X00162499Y00169821D01*
X00162450Y00169908D01*
X00162352Y00170082D01*
X00162256Y00170258D01*
X00162163Y00170435D01*
X00162117Y00170524D01*
X00162117D01*
X00162031Y00170692D01*
X00161953Y00170851D01*
X00161883Y00170998D01*
X00161876Y00171014D01*
X00161861Y00171047D01*
X00161846Y00171080D01*
X00161831Y00171113D01*
X00161824Y00171129D01*
X00161813Y00171154D01*
X00161792Y00171205D01*
X00161772Y00171255D01*
X00161753Y00171306D01*
X00161744Y00171332D01*
X00161736Y00171356D01*
X00161722Y00171403D01*
X00161709Y00171451D01*
X00161698Y00171500D01*
X00161693Y00171524D01*
X00161693D01*
X00161688Y00171551D01*
X00161678Y00171605D01*
X00161670Y00171660D01*
X00161663Y00171715D01*
X00161660Y00171742D01*
X00161657Y00171772D01*
X00161652Y00171833D01*
X00161648Y00171893D01*
X00161645Y00171954D01*
X00161644Y00171984D01*
X00161643Y00172017D01*
X00161642Y00172083D01*
X00161642Y00172148D01*
X00161643Y00172214D01*
X00161644Y00172247D01*
X00161645Y00172281D01*
X00161649Y00172351D01*
X00161653Y00172421D01*
X00161658Y00172491D01*
X00161661Y00172526D01*
X00161664Y00172562D01*
X00161671Y00172635D01*
X00161679Y00172709D01*
X00161688Y00172782D01*
X00161693Y00172818D01*
X00161717Y00172975D01*
X00161774Y00173287D01*
X00161846Y00173596D01*
X00161931Y00173902D01*
X00161978Y00174053D01*
X00161978Y00174053D01*
X00162017Y00174176D01*
X00162054Y00174293D01*
X00162087Y00174402D01*
X00162116Y00174502D01*
X00162140Y00174591D01*
X00162143Y00174600D01*
X00162148Y00174619D01*
X00162153Y00174639D01*
X00162157Y00174657D01*
X00162160Y00174667D01*
X00162162Y00174675D01*
X00162165Y00174690D01*
X00162169Y00174706D01*
X00162173Y00174721D01*
X00162174Y00174729D01*
X00162176Y00174735D01*
X00162178Y00174746D01*
X00162180Y00174758D01*
X00162182Y00174770D01*
X00162183Y00174775D01*
X00162185Y00174780D01*
X00162187Y00174790D01*
X00162187Y00174800D01*
X00162184Y00174810D01*
X00162182Y00174814D01*
X00162182Y00174814D01*
X00162172Y00174811D01*
X00162152Y00174802D01*
X00162134Y00174789D01*
X00162118Y00174774D01*
X00162111Y00174766D01*
X00162096Y00174750D01*
X00162065Y00174717D01*
X00162035Y00174683D01*
X00162006Y00174649D01*
X00161992Y00174631D01*
X00161972Y00174606D01*
X00161932Y00174555D01*
X00161892Y00174503D01*
X00161854Y00174452D01*
X00161834Y00174426D01*
X00161834D01*
X00161811Y00174393D01*
X00161764Y00174329D01*
X00161717Y00174263D01*
X00161671Y00174198D01*
X00161649Y00174165D01*
X00161649D01*
X00161595Y00174088D01*
X00161491Y00173934D01*
X00161387Y00173779D01*
X00161285Y00173622D01*
X00161235Y00173543D01*
X00161209Y00173502D01*
X00161157Y00173420D01*
X00161105Y00173338D01*
X00161054Y00173255D01*
X00161029Y00173214D01*
X00161004Y00173174D01*
X00160956Y00173093D01*
X00160908Y00173013D01*
X00160860Y00172932D01*
X00160836Y00172892D01*
X00160796Y00172824D01*
X00160718Y00172687D01*
X00160643Y00172548D01*
X00160571Y00172408D01*
X00160536Y00172337D01*
X00160511Y00172288D01*
X00160464Y00172188D01*
X00160418Y00172088D01*
X00160373Y00171987D01*
X00160351Y00171936D01*
X00160330Y00171889D01*
X00160289Y00171793D01*
X00160249Y00171698D01*
X00160211Y00171601D01*
X00160192Y00171553D01*
X00160138Y00171417D01*
X00160042Y00171140D01*
X00159958Y00170860D01*
X00159885Y00170576D01*
X00159854Y00170433D01*
X00159844Y00170385D01*
X00159825Y00170288D01*
X00159808Y00170192D01*
X00159791Y00170095D01*
X00159784Y00170046D01*
X00159776Y00169995D01*
X00159761Y00169894D01*
X00159748Y00169793D01*
X00159736Y00169691D01*
X00159731Y00169640D01*
X00159725Y00169586D01*
X00159715Y00169478D01*
X00159706Y00169370D01*
X00159698Y00169262D01*
X00159695Y00169208D01*
X00159688Y00169087D01*
X00159677Y00168845D01*
X00159670Y00168602D01*
X00159667Y00168359D01*
X00159667Y00168238D01*
X00159666Y00167953D01*
X00159690Y00167383D01*
X00159737Y00166815D01*
X00159810Y00166249D01*
X00159859Y00165968D01*
X00159883Y00165825D01*
X00159939Y00165539D01*
X00160001Y00165255D01*
X00160069Y00164973D01*
X00160106Y00164832D01*
X00160145Y00164685D01*
X00160228Y00164394D01*
X00160316Y00164103D01*
X00160410Y00163815D01*
X00160460Y00163672D01*
X00160460D01*
X00160513Y00163519D01*
X00160625Y00163217D01*
X00160741Y00162916D01*
X00160862Y00162617D01*
X00160925Y00162469D01*
X00160928Y00162462D01*
X00160933Y00162449D01*
X00160939Y00162435D01*
X00160944Y00162422D01*
X00160947Y00162415D01*
X00160949Y00162409D01*
X00160953Y00162399D01*
X00160957Y00162388D01*
X00160961Y00162377D01*
X00160962Y00162372D01*
X00160963Y00162367D01*
X00160966Y00162359D01*
X00160968Y00162351D01*
X00160969Y00162343D01*
X00160970Y00162339D01*
X00160969Y00162316D01*
X00160960Y00162304D01*
X00160941Y00162301D01*
X00160937Y00162301D01*
X00160929Y00162302D01*
X00160922Y00162304D01*
X00160915Y00162306D01*
X00160911Y00162307D01*
X00160906Y00162309D01*
X00160896Y00162312D01*
X00160886Y00162316D01*
X00160876Y00162320D01*
X00160871Y00162322D01*
X00160857Y00162329D01*
X00160828Y00162342D01*
X00160799Y00162356D01*
X00160770Y00162370D01*
X00160756Y00162378D01*
Y00162378D01*
X00160735Y00162389D01*
X00160690Y00162409D01*
X00160645Y00162426D01*
X00160598Y00162442D01*
X00160575Y00162448D01*
X00160550Y00162456D01*
X00160499Y00162468D01*
X00160448Y00162478D01*
X00160396Y00162486D01*
X00160370Y00162490D01*
X00160342Y00162493D01*
X00160287Y00162498D01*
X00160231Y00162501D01*
X00160175Y00162503D01*
X00160147Y00162503D01*
X00160027Y00162501D01*
X00159789Y00162474D01*
X00159554Y00162424D01*
X00159325Y00162351D01*
X00159215Y00162303D01*
X00159188Y00162291D01*
X00159134Y00162266D01*
X00159081Y00162239D01*
X00159030Y00162211D01*
X00159004Y00162196D01*
X00158956Y00162169D01*
X00158863Y00162108D01*
X00158775Y00162040D01*
X00158693Y00161966D01*
X00158654Y00161927D01*
Y00161927D01*
X00158648Y00161920D01*
X00158636Y00161908D01*
X00158624Y00161895D01*
X00158613Y00161882D01*
X00158607Y00161875D01*
X00158603Y00161870D01*
X00158594Y00161860D01*
X00158586Y00161849D01*
X00158578Y00161839D01*
X00158574Y00161833D01*
X00158572Y00161830D01*
X00158567Y00161822D01*
X00158563Y00161814D01*
X00158560Y00161805D01*
X00158558Y00161801D01*
X00158557Y00161798D01*
X00158556Y00161791D01*
X00158557Y00161785D01*
X00158559Y00161779D01*
X00158560Y00161776D01*
X00158560Y00161776D01*
X00158562Y00161773D01*
X00158567Y00161768D01*
X00158572Y00161764D01*
X00158579Y00161761D01*
X00158582Y00161760D01*
D01*
D02*
G37*
D10*
X00049750Y00072520D02*
G03*
X00049750Y00072520I-00001250J00000000D01*
G01*
X00772750Y00147480D02*
G03*
X00772750Y00147480I-00001250J00000000D01*
G01*
D11*
X00163488Y00176015D02*
G03*
X00163302Y00175596I00012353J-00005703D01*
G01*
X00163704Y00176469D02*
G03*
X00163488Y00176015I00017842J-00008789D01*
G01*
X00164070Y00177154D02*
G03*
X00163704Y00176469I00012779J-00007267D01*
G01*
X00163302Y00175596D02*
G03*
X00163147Y00175204I00009141J-00003853D01*
G01*
X00165737Y00172390D02*
G03*
X00165741Y00171444I00114709J-00000036D01*
G01*
X00165746Y00171112D02*
G03*
X00165754Y00170866I00010319J00000201D01*
G01*
X00165754Y00170866D02*
G03*
X00165765Y00170698I00003092J00000125D01*
G01*
Y00170698D02*
G03*
X00165781Y00170602I00000587J00000047D01*
G01*
D02*
G03*
X00165801Y00170571I00000035J00000001D01*
G01*
X00165828Y00170599D02*
G03*
X00165860Y00170678I-00000525J00000263D01*
G01*
X00165860D02*
G03*
X00165900Y00170802I-00002821J00000973D01*
G01*
X00165900Y00170802D02*
G03*
X00166141Y00171907I-00007171J00002143D01*
G01*
X00165801Y00170571D02*
G03*
X00165828Y00170599I-00000014J00000039D01*
G01*
X00161834Y00174426D02*
G03*
X00161649Y00174165I00009369J-00006882D01*
G01*
X00161992Y00174631D02*
G03*
X00161834Y00174426I00004383J-00003529D01*
G01*
X00162111Y00174766D02*
G03*
X00161992Y00174631I00001178J-00001163D01*
G01*
X00162182Y00174814D02*
G03*
X00162111Y00174766I00000044J-00000139D01*
G01*
X00162954Y00170723D02*
G03*
X00163051Y00170402I00013760J00004009D01*
G01*
X00163051Y00170402D02*
G03*
X00163321Y00169584I00040958J00013075D01*
G01*
X00161644Y00172247D02*
G03*
X00161644Y00171984I00004185J-00000136D01*
G01*
X00161644Y00171984D02*
G03*
X00161660Y00171742I00003237J00000096D01*
G01*
Y00171742D02*
G03*
X00161693Y00171524I00002352J00000245D01*
G01*
X00161693D02*
G03*
X00161744Y00171332I00001597J00000318D01*
G01*
Y00171332D02*
G03*
X00161824Y00171129I00002459J00000860D01*
G01*
D02*
G03*
X00161883Y00170998I00006003J00002625D01*
G01*
X00162117Y00170524D02*
G03*
X00162499Y00169821I00015436J00007953D01*
G01*
X00162836Y00169214D02*
G03*
X00162499Y00169821I-00017322J-00009210D01*
G01*
X00162986Y00168923D02*
G03*
X00162836Y00169214I-00014028J-00007073D01*
G01*
X00163836Y00166837D02*
G03*
X00163727Y00167161I-00018328J-00005969D01*
G01*
X00163834Y00167828D02*
G03*
X00163771Y00168086I-00012763J-00002996D01*
G01*
D02*
G03*
X00163698Y00168361I-00015708J-00004023D01*
G01*
X00163887Y00167591D02*
G03*
X00163834Y00167828I-00009788J-00002050D01*
G01*
X00165026Y00178747D02*
G03*
X00164544Y00177967I00029048J-00018492D01*
G01*
X00165239Y00179074D02*
G03*
X00165026Y00178747I00016644J-00011066D01*
G01*
X00165417Y00179333D02*
G03*
X00165239Y00179074I00007684J-00005472D01*
G01*
X00165547Y00179503D02*
G03*
X00165417Y00179333I00002006J-00001671D01*
G01*
X00165617Y00179564D02*
G03*
X00165547Y00179503I00000072J-00000153D01*
G01*
X00165608Y00179496D02*
G03*
X00165617Y00179533I-00000589J00000164D01*
G01*
X00165593Y00179446D02*
G03*
X00165608Y00179496I-00001520J00000473D01*
G01*
X00165574Y00179385D02*
G03*
X00165593Y00179446I-00002925J00000974D01*
G01*
X00165617Y00179533D02*
G03*
X00165617Y00179564I-00000028J00000016D01*
G01*
X00165414Y00178954D02*
G03*
X00165261Y00178430I00002862J-00001122D01*
G01*
D02*
G03*
X00165215Y00178142I00003686J-00000741D01*
G01*
X00165215D02*
G03*
X00165188Y00177836I00004334J-00000526D01*
G01*
D02*
G03*
X00165182Y00177512I00005097J-00000258D01*
G01*
Y00177512D02*
G03*
X00165196Y00177172I00005986J00000077D01*
G01*
D02*
G03*
X00165231Y00176814I00007011J00000489D01*
G01*
Y00176814D02*
G03*
X00165285Y00176438I00008182J00000993D01*
G01*
X00165285Y00176438D02*
G03*
X00165359Y00176045I00009510J00001601D01*
G01*
D02*
G03*
X00165454Y00175635I00011004J00002325D01*
G01*
X00165574Y00175107D02*
G03*
X00165454Y00175635I-00010194J-00002028D01*
G01*
X00165618Y00174855D02*
G03*
X00165574Y00175107I-00007170J-00001146D01*
G01*
X00165683Y00174323D02*
G03*
X00165618Y00174855I-00007422J-00000634D01*
G01*
X00165705Y00174025D02*
G03*
X00165683Y00174323I-00010267J-00000589D01*
G01*
X00165720Y00173692D02*
G03*
X00165705Y00174025I-00014721J-00000510D01*
G01*
X00166226Y00172754D02*
G03*
X00166246Y00173222I-00013628J00000816D01*
G01*
Y00173222D02*
G03*
X00166251Y00173723I-00016896J00000432D01*
G01*
Y00173723D02*
G03*
X00166242Y00174261I-00021269J-00000086D01*
G01*
X00166141Y00171907D02*
G03*
X00166191Y00172317I-00009404J00001347D01*
G01*
Y00172317D02*
G03*
X00166226Y00172754I-00011196J00001109D01*
G01*
X00166242Y00174261D02*
G03*
X00166219Y00174839I-00027122J-00000795D01*
G01*
D02*
G03*
X00166182Y00175461I-00034975J-00001771D01*
G01*
X00166111Y00177421D02*
G03*
X00166182Y00175461I00026170J-00000039D01*
G01*
X00166141Y00178250D02*
G03*
X00166111Y00177421I00013944J-00000909D01*
G01*
X00166218Y00179000D02*
G03*
X00166141Y00178250I00009866J-00001398D01*
G01*
X00166347Y00179685D02*
G03*
X00166218Y00179000I00007517J-00001771D01*
G01*
X00167455Y00182100D02*
G03*
X00166347Y00179685I00005626J-00004042D01*
G01*
X00167187Y00166350D02*
G03*
X00167127Y00166143I00004443J-00001397D01*
G01*
X00167127D02*
G03*
X00167100Y00166015I00000961J-00000266D01*
G01*
X00167100D02*
G03*
X00167107Y00165966I00000049J-00000018D01*
G01*
D02*
G03*
X00167148Y00165995I-00000006J00000052D01*
G01*
D02*
G03*
X00167223Y00166101I-00000778J00000626D01*
G01*
Y00166101D02*
G03*
X00167333Y00166286I-00003952J00002471D01*
G01*
X00163259Y00168351D02*
G03*
X00162986Y00168923I-00012609J-00005653D01*
G01*
X00163616Y00167472D02*
G03*
X00163259Y00168351I-00012948J-00004751D01*
G01*
X00163727Y00167161D02*
G03*
X00163616Y00167472I-00015608J-00005392D01*
G01*
X00163616Y00168651D02*
G03*
X00163427Y00169265I-00021508J-00006283D01*
G01*
X00163929Y00167376D02*
G03*
X00163887Y00167591I-00007006J-00001246D01*
G01*
X00163976Y00167027D02*
G03*
X00163929Y00167376I-00003557J-00000299D01*
G01*
X00162174Y00174729D02*
G03*
X00162183Y00174776I-00000801J00000176D01*
G01*
X00162160Y00174667D02*
G03*
X00162174Y00174729I-00002050J00000510D01*
G01*
X00162140Y00174591D02*
G03*
X00162160Y00174667I-00003928J00001056D01*
G01*
X00162877Y00171004D02*
G03*
X00162954Y00170723I00008000J00002029D01*
G01*
X00162819Y00171257D02*
G03*
X00162877Y00171004I00005432J00001109D01*
G01*
X00162777Y00171496D02*
G03*
X00162819Y00171257I00004442J00000658D01*
G01*
X00162749Y00171732D02*
G03*
X00162777Y00171496I00004511J00000423D01*
G01*
X00162731Y00171980D02*
G03*
X00162749Y00171732I00005783J00000290D01*
G01*
X00162721Y00172252D02*
G03*
X00162731Y00171980I00009418J00000199D01*
G01*
X00162741Y00173374D02*
G03*
X00162717Y00172561I00009899J-00000701D01*
G01*
X00162779Y00173748D02*
G03*
X00162741Y00173374I00006930J-00000890D01*
G01*
X00163147Y00175204D02*
G03*
X00162779Y00173748I00006020J-00002294D01*
G01*
X00162183Y00174776D02*
G03*
X00162182Y00174814I-00000040J00000018D01*
G01*
X00168929Y00175728D02*
G03*
X00169097Y00176650I-00019117J00003965D01*
G01*
X00169039Y00175744D02*
G03*
X00169242Y00176256I-00004066J00001910D01*
G01*
X00169242D02*
G03*
X00169344Y00176579I-00008442J00002843D01*
G01*
X00169344Y00176579D02*
G03*
X00169444Y00176938I-00011804J00003486D01*
G01*
Y00176938D02*
G03*
X00169541Y00177329I-00015194J00003994D01*
G01*
X00169541Y00177329D02*
G03*
X00169635Y00177746I-00018236J00004299D01*
G01*
X00169635Y00177747D02*
G03*
X00169804Y00178637I-00021307J00004506D01*
G01*
X00168723Y00171870D02*
G03*
X00168309Y00171197I00013369J-00008681D01*
G01*
D02*
G03*
X00168196Y00170996I00009425J-00005463D01*
G01*
X00168196D02*
G03*
X00168101Y00170818I00006171J-00003408D01*
G01*
D02*
G03*
X00168029Y00170670I00003239J-00001675D01*
G01*
X00168028D02*
G03*
X00167982Y00170558I00001205J-00000562D01*
G01*
D02*
G03*
X00167966Y00170488I00000224J-00000089D01*
G01*
X00168024Y00170532D02*
G03*
X00168092Y00170602I-00002051J00002089D01*
G01*
X00167966Y00170488D02*
G03*
X00168024Y00170532I-00000026J00000093D01*
G01*
X00170868Y00174361D02*
G03*
X00169810Y00173267I00016875J-00017392D01*
G01*
X00169810D02*
G03*
X00169503Y00172920I00012480J-00011314D01*
G01*
X00170781Y00173575D02*
G03*
X00169092Y00171731I00021451J-00021350D01*
G01*
X00169503Y00172920D02*
G03*
X00169237Y00172598I00008620J-00007401D01*
G01*
X00169804Y00178637D02*
G03*
X00169940Y00179564I-00022036J00003722D01*
G01*
X00173604Y00179225D02*
G03*
X00173181Y00178808I00023267J-00024051D01*
G01*
D02*
G03*
X00172843Y00178460I00011651J-00011648D01*
G01*
X00172843D02*
G03*
X00172618Y00178207I00003467J-00003302D01*
G01*
D02*
G03*
X00172537Y00178076I00000248J-00000246D01*
G01*
X00172613Y00178106D02*
G03*
X00172704Y00178164I-00001141J00001882D01*
G01*
X00172537Y00178076D02*
G03*
X00172613Y00178106I00000012J00000083D01*
G01*
X00169023Y00172313D02*
G03*
X00168723Y00171870I00011172J-00007868D01*
G01*
X00169237Y00172598D02*
G03*
X00169023Y00172313I00005031J-00004019D01*
G01*
X00173293Y00176269D02*
G03*
X00172208Y00175537I00007760J-00012668D01*
G01*
X00172704Y00178164D02*
G03*
X00172826Y00178248I-00003302J00004914D01*
G01*
X00173888Y00176616D02*
G03*
X00173293Y00176269I00007678J-00013862D01*
G01*
X00172220Y00171340D02*
G03*
X00171582Y00171114I00012201J-00035512D01*
G01*
X00171582D02*
G03*
X00171050Y00170912I00006942J-00019096D01*
G01*
D02*
G03*
X00170607Y00170727I00004294J-00010866D01*
G01*
D02*
G03*
X00170237Y00170550I00002963J-00006682D01*
G01*
X00170237D02*
G03*
X00169922Y00170375I00002367J-00004617D01*
G01*
X00169922Y00170374D02*
G03*
X00169389Y00169996I00002335J-00003851D01*
G01*
X00171656Y00170143D02*
G03*
X00171356Y00170059I00002654J-00010074D01*
G01*
X00172012Y00170232D02*
G03*
X00171656Y00170143I00003992J-00016590D01*
G01*
X00171356Y00170059D02*
G03*
X00170862Y00169892I00001891J-00006433D01*
G01*
X00172208Y00175537D02*
G03*
X00171584Y00175025I00005907J-00007839D01*
G01*
X00171584D02*
G03*
X00171232Y00174706I00011919J-00013516D01*
G01*
X00171232D02*
G03*
X00170868Y00174361I00015353J-00016521D01*
G01*
X00171575Y00174311D02*
G03*
X00170781Y00173575I00010318J-00011924D01*
G01*
X00172377Y00174948D02*
G03*
X00171575Y00174311I00007291J-00010001D01*
G01*
X00174140Y00176007D02*
G03*
X00172378Y00174948I00005238J-00010713D01*
G01*
X00168113Y00167665D02*
G03*
X00167657Y00166889I00007238J-00004770D01*
G01*
X00172934Y00167400D02*
G03*
X00173617Y00167688I-00010798J00026539D01*
G01*
X00172168Y00167096D02*
G03*
X00172934Y00167400I-00015428J00040093D01*
G01*
X00172168Y00167096D02*
G03*
X00170919Y00166568I00006520J-00017160D01*
G01*
X00167992Y00163515D02*
G03*
X00167685Y00162409I00005948J-00002245D01*
G01*
X00167685Y00162409D02*
G03*
X00167633Y00162101I00008219J-00001529D01*
G01*
X00167634Y00162101D02*
G03*
X00167590Y00161772I00010226J-00001508D01*
G01*
X00167590Y00161772D02*
G03*
X00167554Y00161418I00013283J-00001525D01*
G01*
Y00161418D02*
G03*
X00167525Y00161034I00017938J-00001578D01*
G01*
X00168326Y00162785D02*
G03*
X00167772Y00161174I00010848J-00004629D01*
G01*
X00169158Y00159536D02*
G03*
X00169007Y00159256I00003325J-00001984D01*
G01*
X00169611Y00151002D02*
G03*
X00170582Y00150818I00003681J00016757D01*
G01*
X00168703Y00151233D02*
G03*
X00169611Y00151002I00004020J00013931D01*
G01*
X00167853Y00151511D02*
G03*
X00168703Y00151233I00004326J00011767D01*
G01*
X00169350Y00155255D02*
G03*
X00169553Y00154987I00004864J00003477D01*
G01*
X00169553D02*
G03*
X00170015Y00154468I00005486J00004411D01*
G01*
D02*
G03*
X00170517Y00154004I00004775J00004667D01*
G01*
D02*
G03*
X00170770Y00153807I00003329J00004007D01*
G01*
X00171765Y00153297D02*
G03*
X00171806Y00153288I00000126J00000453D01*
G01*
X00171835Y00153285D02*
G03*
X00171850Y00153289I00000002J00000024D01*
G01*
X00171806Y00153288D02*
G03*
X00171835Y00153285I00000028J00000143D01*
G01*
X00170582Y00150818D02*
G03*
X00172727Y00150583I00003552J00022546D01*
G01*
X00167677Y00167704D02*
G03*
X00167538Y00167364I00008626J-00003729D01*
G01*
Y00167364D02*
G03*
X00167404Y00166999I00010904J-00004216D01*
G01*
X00167333Y00166286D02*
G03*
X00167477Y00166549I-00011623J00006574D01*
G01*
X00169221Y00165476D02*
G03*
X00168428Y00164456I00002920J-00003086D01*
G01*
X00168428D02*
G03*
X00168219Y00164049I00005185J-00002929D01*
G01*
X00168219Y00164049D02*
G03*
X00167992Y00163515I00006733J-00003180D01*
G01*
X00169040Y00164065D02*
G03*
X00168660Y00163463I00005136J-00003664D01*
G01*
X00171132Y00165831D02*
G03*
X00169040Y00164065I00002458J-00005034D01*
G01*
X00168660Y00163463D02*
G03*
X00168326Y00162785I00006784J-00003764D01*
G01*
X00176399Y00159204D02*
G03*
X00175750Y00159159I00000054J-00005447D01*
G01*
D02*
G03*
X00175519Y00159127I00001223J-00009722D01*
G01*
X00176629Y00159201D02*
G03*
X00176399Y00159204I-00000185J-00005869D01*
G01*
X00173049Y00162753D02*
G03*
X00173658Y00163248I-00005655J00007578D01*
G01*
X00172352Y00162269D02*
G03*
X00173049Y00162753I-00006565J00010214D01*
G01*
X00171563Y00161794D02*
G03*
X00172352Y00162269I-00007735J00013731D01*
G01*
X00171563Y00161794D02*
G03*
X00169781Y00160369I00003572J-00006295D01*
G01*
Y00160369D02*
G03*
X00169548Y00160095I00004498J-00004056D01*
G01*
Y00160095D02*
G03*
X00169339Y00159816I00004191J-00003352D01*
G01*
X00169339D02*
G03*
X00169158Y00159536I00003788J-00002647D01*
G01*
X00175391Y00159478D02*
G03*
X00174945Y00159418I00000881J-00008223D01*
G01*
X00175903Y00159522D02*
G03*
X00175391Y00159478I00000803J-00012303D01*
G01*
X00174945Y00159418D02*
G03*
X00174552Y00159340I00000958J-00005889D01*
G01*
X00169389Y00169996D02*
G03*
X00169138Y00169778I00004298J-00005218D01*
G01*
X00169138Y00169778D02*
G03*
X00168495Y00169098I00003843J-00004276D01*
G01*
X00168495D02*
G03*
X00167976Y00168316I00004308J-00003422D01*
G01*
X00167976D02*
G03*
X00167823Y00168020I00005824J-00003203D01*
G01*
X00167823D02*
G03*
X00167677Y00167704I00006991J-00003401D01*
G01*
X00168357Y00168012D02*
G03*
X00168113Y00167665I00005796J-00004342D01*
G01*
X00168613Y00168332D02*
G03*
X00168357Y00168012I00004948J-00004218D01*
G01*
X00169160Y00168892D02*
G03*
X00168613Y00168332I00003773J-00004232D01*
G01*
X00170072Y00169536D02*
G03*
X00169160Y00168892I00002356J-00004307D01*
G01*
X00170402Y00169699D02*
G03*
X00170072Y00169536I00001952J-00004350D01*
G01*
X00170862Y00169892D02*
G03*
X00170402Y00169699I00003099J-00008025D01*
G01*
X00168860Y00158933D02*
G03*
X00168806Y00158786I00002581J-00001045D01*
G01*
X00168806D02*
G03*
X00168762Y00158641I00002174J-00000739D01*
G01*
Y00158641D02*
G03*
X00168702Y00158338I00002274J-00000604D01*
G01*
X00169007Y00159256D02*
G03*
X00168860Y00158933I00004482J-00002222D01*
G01*
X00170919Y00166568D02*
G03*
X00170404Y00166307I00004354J-00009229D01*
G01*
D02*
G03*
X00169955Y00166042I00003478J-00006409D01*
G01*
X00169955D02*
G03*
X00169562Y00165767I00002982J-00004663D01*
G01*
D02*
G03*
X00169221Y00165476I00002773J-00003604D01*
G01*
X00171826Y00166143D02*
G03*
X00171132Y00165831I00003020J-00007654D01*
G01*
X00172600Y00166415D02*
G03*
X00171826Y00166143I00003226J-00010409D01*
G01*
X00172600Y00166415D02*
G03*
X00173340Y00166656I-00007289J00023563D01*
G01*
X00171427Y00153427D02*
G03*
X00171509Y00153391I00001876J00004205D01*
G01*
X00171714Y00153313D02*
G03*
X00171766Y00153297I00000327J00000989D01*
G01*
X00171850Y00153289D02*
G03*
X00171852Y00153357I-00000122J00000038D01*
G01*
D02*
G03*
X00171843Y00153426I-00001354J-00000143D01*
G01*
X00171843D02*
G03*
X00171828Y00153515I-00003111J-00000485D01*
G01*
X00171828Y00153515D02*
G03*
X00171807Y00153623I-00005588J-00001034D01*
G01*
X00171714Y00154033D02*
G03*
X00171632Y00154356I-00016935J-00004122D01*
G01*
X00171448Y00155561D02*
G03*
X00171632Y00154356I00005408J00000210D01*
G01*
X00171466Y00156117D02*
G03*
X00171448Y00155561I00004197J-00000414D01*
G01*
X00171556Y00156641D02*
G03*
X00171466Y00156117I00003592J-00000888D01*
G01*
X00173063Y00158703D02*
G03*
X00171556Y00156641I00001800J-00002897D01*
G01*
X00172727Y00150583D02*
G03*
X00173582Y00150540I00002108J00033133D01*
G01*
X00174552Y00159340D02*
G03*
X00173570Y00158990I00001009J-00004386D01*
G01*
Y00158990D02*
G03*
X00173063Y00158703I00002054J-00004215D01*
G01*
X00176880Y00159189D02*
G03*
X00176629Y00159201I-00000496J-00007702D01*
G01*
X00175519Y00159127D02*
G03*
X00174347Y00158846I00000877J-00006236D01*
G01*
X00174347Y00158846D02*
G03*
X00173863Y00158641I00001392J-00003963D01*
G01*
Y00158641D02*
G03*
X00173449Y00158394I00001459J-00002924D01*
G01*
X00173449D02*
G03*
X00173104Y00158106I00001519J-00002169D01*
G01*
Y00158106D02*
G03*
X00172829Y00157778I00001618J-00001631D01*
G01*
Y00157778D02*
G03*
X00172432Y00156552I00001945J-00001308D01*
G01*
X00172443Y00156065D02*
G03*
X00172885Y00154666I00003741J00000413D01*
G01*
D02*
G03*
X00173316Y00153985I00004780J00002550D01*
G01*
X00176089Y00151680D02*
G03*
X00178848Y00150739I00004271J00008009D01*
G01*
X00172432Y00156552D02*
G03*
X00172443Y00156065I00003304J-00000166D01*
G01*
X00173582Y00150540D02*
G03*
X00176403Y00150503I00002197J00060681D01*
G01*
X00168705Y00156698D02*
G03*
X00168732Y00156544I00002341J00000323D01*
G01*
X00168732D02*
G03*
X00168872Y00156107I00002208J00000467D01*
G01*
X00168872D02*
G03*
X00168943Y00155950I00003772J00001613D01*
G01*
Y00155950D02*
G03*
X00169028Y00155778I00006534J00003123D01*
G01*
Y00155778D02*
G03*
X00169350Y00155255I00003717J00001932D01*
G01*
X00168686Y00156867D02*
G03*
X00168705Y00156698I00003124J00000259D01*
G01*
X00173658Y00163248D02*
G03*
X00174180Y00163756I-00004971J00005623D01*
G01*
X00173838Y00188083D02*
G03*
X00173358Y00187634I00014652J-00016135D01*
G01*
X00174806Y00187490D02*
G03*
X00174713Y00187133I00008016J-00002295D01*
G01*
Y00187133D02*
G03*
X00174627Y00186741I00010401J-00002485D01*
G01*
D02*
G03*
X00174547Y00186307I00014237J-00002842D01*
G01*
X00174472Y00185824D02*
G03*
X00174399Y00185284I00030151J-00004344D01*
G01*
X00174227Y00183988D02*
G03*
X00174327Y00184679I-00010907J00001919D01*
G01*
X00174373Y00182752D02*
G03*
X00174653Y00183314I-00009855J00005253D01*
G01*
Y00183314D02*
G03*
X00174768Y00183584I-00005279J00002403D01*
G01*
D02*
G03*
X00174875Y00183880I-00005706J00002249D01*
G01*
X00174875D02*
G03*
X00174983Y00184224I-00008188J00002746D01*
G01*
D02*
G03*
X00175097Y00184641I-00014237J00004123D01*
G01*
X00175097D02*
G03*
X00175225Y00185154I-00028017J00007245D01*
G01*
X00174547Y00186307D02*
G03*
X00174472Y00185824I00020344J-00003424D01*
G01*
X00175064Y00189144D02*
G03*
X00174366Y00188551I00026540J-00031876D01*
G01*
X00184125Y00180755D02*
G03*
X00184848Y00181112I-00007575J00016253D01*
G01*
X00183310Y00180393D02*
G03*
X00184125Y00180755I-00009567J00022633D01*
G01*
X00182393Y00180020D02*
G03*
X00183310Y00180393I-00012652J00032462D01*
G01*
X00183167Y00166605D02*
G03*
X00182939Y00167135I-00001829J-00000474D01*
G01*
X00183193Y00166474D02*
G03*
X00183167Y00166605I-00001255J-00000176D01*
G01*
X00183202Y00166351D02*
G03*
X00183193Y00166474I-00000909J-00000004D01*
G01*
X00183057Y00165899D02*
G03*
X00183202Y00166351I-00000629J00000450D01*
G01*
X00182895Y00165723D02*
G03*
X00183057Y00165899I-00000598J00000717D01*
G01*
X00175246Y00168510D02*
G03*
X00177059Y00170041I-00003544J00006038D01*
G01*
X00174765Y00168238D02*
G03*
X00175246Y00168510I-00004976J00009360D01*
G01*
X00174225Y00167966D02*
G03*
X00174765Y00168238I-00006100J00012762D01*
G01*
X00173617Y00167688D02*
G03*
X00174225Y00167966I-00007915J00018103D01*
G01*
X00173644Y00166766D02*
G03*
X00173911Y00166872I-00002914J00007753D01*
G01*
X00173911D02*
G03*
X00174148Y00166977I-00002258J00005429D01*
G01*
X00174148D02*
G03*
X00174360Y00167083I-00001907J00004068D01*
G01*
D02*
G03*
X00174552Y00167193I-00001777J00003321D01*
G01*
D02*
G03*
X00174899Y00167436I-00001891J00003076D01*
G01*
D02*
G03*
X00175066Y00167574I-00002831J00003590D01*
G01*
X00174616Y00164281D02*
G03*
X00175584Y00167230I-00003824J00002888D01*
G01*
X00174180Y00163756D02*
G03*
X00174616Y00164281I-00004496J00004186D01*
G01*
X00173340Y00166656D02*
G03*
X00173644Y00166766I-00004047J00011683D01*
G01*
X00176494Y00159552D02*
G03*
X00175903Y00159522I00000672J-00019309D01*
G01*
X00177177Y00159568D02*
G03*
X00176494Y00159552I00000416J-00031386D01*
G01*
X00180861Y00159555D02*
G03*
X00181280Y00159564I-00000134J00017111D01*
G01*
D02*
G03*
X00181615Y00159581I-00000257J00008096D01*
G01*
X00181615D02*
G03*
X00181890Y00159610I-00000332J00004527D01*
G01*
D02*
G03*
X00182128Y00159651I-00000447J00003289D01*
G01*
Y00159651D02*
G03*
X00182354Y00159707I-00000743J00003486D01*
G01*
X00182354Y00159707D02*
G03*
X00182591Y00159779I-00001703J00006008D01*
G01*
X00182863Y00159869D02*
G03*
X00184045Y00160351I-00002959J00008962D01*
G01*
X00177163Y00159168D02*
G03*
X00176880Y00159189I-00001012J-00011313D01*
G01*
X00177484Y00159136D02*
G03*
X00177163Y00159168I-00001951J-00018202D01*
G01*
X00184045Y00160351D02*
G03*
X00184545Y00160626I-00002847J00005760D01*
G01*
X00182492Y00167717D02*
G03*
X00182471Y00167681I00000249J-00000170D01*
G01*
D02*
G03*
X00182460Y00167649I00000129J-00000064D01*
G01*
X00182459D02*
G03*
X00182458Y00167621I00000081J-00000019D01*
G01*
X00182458D02*
G03*
X00182467Y00167594I00000075J00000010D01*
G01*
X00182467Y00167594D02*
G03*
X00182485Y00167569I00000101J00000056D01*
G01*
Y00167569D02*
G03*
X00182515Y00167544I00000165J00000162D01*
G01*
D02*
G03*
X00182554Y00167518I00000300J00000410D01*
G01*
X00182554Y00167518D02*
G03*
X00182605Y00167489I00000599J00001002D01*
G01*
X00182777Y00167349D02*
G03*
X00182605Y00167489I-00000518J-00000462D01*
G01*
X00182860Y00167250D02*
G03*
X00182777Y00167349I-00001002J-00000751D01*
G01*
X00182939Y00167135D02*
G03*
X00182860Y00167250I-00001373J-00000858D01*
G01*
X00181789Y00168251D02*
G03*
X00181463Y00167938I00001559J-00001955D01*
G01*
D02*
G03*
X00180945Y00166737I00001565J-00001386D01*
G01*
X00182688Y00165586D02*
G03*
X00182895Y00165723I-00000519J00001006D01*
G01*
X00182450Y00165491D02*
G03*
X00182688Y00165586I-00000365J00001261D01*
G01*
X00181669Y00165494D02*
G03*
X00182450Y00165491I00000395J00001300D01*
G01*
X00181427Y00165603D02*
G03*
X00181669Y00165494I00000580J00000967D01*
G01*
X00181215Y00165772D02*
G03*
X00181427Y00165603I00000752J00000729D01*
G01*
X00181074Y00165931D02*
G03*
X00181215Y00165772I00001438J00001126D01*
G01*
X00181024Y00166005D02*
G03*
X00181074Y00165931I00000716J00000437D01*
G01*
X00180985Y00166080D02*
G03*
X00181024Y00166005I00000580J00000255D01*
G01*
X00180939Y00166245D02*
G03*
X00180985Y00166079I00000632J00000088D01*
G01*
X00180930Y00166342D02*
G03*
X00180939Y00166245I00001003J00000046D01*
G01*
X00180934Y00166585D02*
G03*
X00180928Y00166455I00003045J-00000194D01*
G01*
X00180945Y00166737D02*
G03*
X00180934Y00166585I00006295J-00000551D01*
G01*
X00180928Y00166455D02*
G03*
X00180930Y00166342I00001655J-00000036D01*
G01*
X00183494Y00159004D02*
G03*
X00184476Y00159237I-00001391J00008035D01*
G01*
X00182390Y00158870D02*
G03*
X00183494Y00159004I-00000777J00010990D01*
G01*
X00181156Y00158832D02*
G03*
X00182390Y00158870I00000156J00015199D01*
G01*
X00179789Y00158890D02*
G03*
X00181156Y00158832I00001578J00021062D01*
G01*
X00178281Y00159042D02*
G03*
X00179789Y00158890I00003690J00029094D01*
G01*
X00178281Y00159042D02*
G03*
X00177484Y00159136I-00005490J-00043131D01*
G01*
X00178959Y00150626D02*
G03*
X00178848Y00150739I00000004J00000115D01*
G01*
X00178595Y00150581D02*
G03*
X00178959Y00150626I-00000246J00003457D01*
G01*
X00178015Y00150544D02*
G03*
X00178595Y00150581I-00000686J00015521D01*
G01*
X00177268Y00150518D02*
G03*
X00178015Y00150544I-00000863J00035145D01*
G01*
X00184681Y00168191D02*
G03*
X00184332Y00168296I-00000951J-00002547D01*
G01*
D02*
G03*
X00183990Y00168348I-00000527J-00002317D01*
G01*
X00183990Y00168348D02*
G03*
X00183659Y00168347I-00000160J-00002060D01*
G01*
Y00168347D02*
G03*
X00183346Y00168293I00000149J-00001803D01*
G01*
D02*
G03*
X00182793Y00168024I00000397J-00001519D01*
G01*
X00182793D02*
G03*
X00182564Y00167808I00000935J-00001221D01*
G01*
D02*
G03*
X00182492Y00167717I00000739J-00000658D01*
G01*
X00184748Y00168862D02*
G03*
X00183631Y00168932I-00000819J-00004089D01*
G01*
X00177885Y00172158D02*
G03*
X00178156Y00172373I-00002878J00003913D01*
G01*
X00178440Y00172612D02*
G03*
X00178156Y00172373I00013481J-00016278D01*
G01*
X00178537Y00172690D02*
G03*
X00178440Y00172612I00002385J-00003087D01*
G01*
X00185591Y00168632D02*
G03*
X00184748Y00168862I-00001968J-00005552D01*
G01*
X00184545Y00160626D02*
G03*
X00184989Y00160930I-00002746J00004499D01*
G01*
X00184989D02*
G03*
X00185382Y00161264I-00002787J00003662D01*
G01*
D02*
G03*
X00186285Y00162495I-00003100J00003222D01*
G01*
D02*
G03*
X00186507Y00162992I-00005144J00002596D01*
G01*
X00186507Y00162992D02*
G03*
X00186696Y00163539I-00006721J00002628D01*
G01*
X00186696D02*
G03*
X00186892Y00164491I-00004883J00001502D01*
G01*
D02*
G03*
X00186915Y00164945I-00004216J00000443D01*
G01*
D02*
G03*
X00186814Y00165800I-00003659J-00000000D01*
G01*
Y00165800D02*
G03*
X00185714Y00167569I-00003261J-00000802D01*
G01*
X00184476Y00159237D02*
G03*
X00187715Y00161941I-00001329J00004885D01*
G01*
X00187811Y00166686D02*
G03*
X00186933Y00167863I-00003212J-00001480D01*
G01*
X00187715Y00161941D02*
G03*
X00187811Y00166686I-00004716J00002468D01*
G01*
X00190969Y00189763D02*
G03*
X00191321Y00190205I-00007045J00005958D01*
G01*
X00190571Y00189317D02*
G03*
X00190969Y00189763I-00008115J00007645D01*
G01*
X00190125Y00188865D02*
G03*
X00190571Y00189317I-00009625J00009939D01*
G01*
X00189375Y00187385D02*
G03*
X00189281Y00187270I00003848J-00003242D01*
G01*
X00189444Y00187462D02*
G03*
X00189375Y00187385I00001056J-00001018D01*
G01*
X00189491Y00187503D02*
G03*
X00189444Y00187462I00000176J-00000250D01*
G01*
X00189520Y00187511D02*
G03*
X00189491Y00187503I-00000007J-00000032D01*
G01*
X00189532Y00187486D02*
G03*
X00189520Y00187511I-00000028J00000001D01*
G01*
X00189530Y00187431D02*
G03*
X00189532Y00187486I-00000255J00000035D01*
G01*
X00189518Y00187348D02*
G03*
X00189530Y00187431I-00001272J00000236D01*
G01*
X00189496Y00187237D02*
G03*
X00189518Y00187348I-00005866J00001180D01*
G01*
X00189232Y00186028D02*
G03*
X00189496Y00187237I-00024536J00006002D01*
G01*
X00192157Y00205698D02*
G03*
X00192021Y00205733I-00000321J-00000970D01*
G01*
X00192021D02*
G03*
X00191899Y00205744I-00000117J-00000624D01*
G01*
Y00205744D02*
G03*
X00191800Y00205737I-00000000J-00000778D01*
G01*
X00173316Y00153985D02*
G03*
X00173867Y00153334I00005381J00003992D01*
G01*
Y00153334D02*
G03*
X00174523Y00152724I00005706J00005479D01*
G01*
D02*
G03*
X00176089Y00151680I00005833J00007052D01*
G01*
X00174366Y00188551D02*
G03*
X00173838Y00188083I00018422J-00021335D01*
G01*
X00175295Y00188718D02*
G03*
X00174806Y00187490I00005743J-00002997D01*
G01*
X00174163Y00183662D02*
G03*
X00174227Y00183988I-00008884J00001912D01*
G01*
X00173526Y00181803D02*
G03*
X00174163Y00183662I-00007574J00003638D01*
G01*
X00173972Y00182046D02*
G03*
X00174373Y00182752I-00010622J00006510D01*
G01*
X00173369Y00181483D02*
G03*
X00173526Y00181803I-00010732J00005450D01*
G01*
X00173582Y00181458D02*
G03*
X00173672Y00181583I-00004443J00003258D01*
G01*
D02*
G03*
X00173768Y00181725I-00006495J00004492D01*
G01*
X00173768Y00181725D02*
G03*
X00173868Y00181881I-00008484J00005602D01*
G01*
X00173432Y00181269D02*
G03*
X00173582Y00181458I-00001812J00001602D01*
G01*
X00175552Y00181014D02*
G03*
X00175085Y00180603I00022603J-00026173D01*
G01*
X00175900Y00180589D02*
G03*
X00174028Y00179167I00026265J-00036485D01*
G01*
X00174535Y00176957D02*
G03*
X00173888Y00176616I00008232J-00016379D01*
G01*
X00174585Y00180150D02*
G03*
X00173604Y00179225I00035752J-00038905D01*
G01*
X00175165Y00176468D02*
G03*
X00174140Y00176007I00006154J-00015067D01*
G01*
X00175301Y00189333D02*
G03*
X00175064Y00189144I00004763J-00006216D01*
G01*
X00175469Y00189452D02*
G03*
X00175301Y00189333I00001132J-00001795D01*
G01*
X00175574Y00189500D02*
G03*
X00175469Y00189452I00000089J-00000332D01*
G01*
X00175619Y00189478D02*
G03*
X00175574Y00189500I-00000032J-00000010D01*
G01*
X00175609Y00189389D02*
G03*
X00175619Y00189478I-00000164J00000063D01*
G01*
X00175549Y00189232D02*
G03*
X00175609Y00189389I-00001212J00000555D01*
G01*
X00175443Y00189008D02*
G03*
X00175549Y00189232I-00004934J00002477D01*
G01*
X00176087Y00188728D02*
G03*
X00175757Y00187505I00012036J-00003895D01*
G01*
X00176283Y00189264D02*
G03*
X00176087Y00188728I00007931J-00003201D01*
G01*
X00176505Y00189761D02*
G03*
X00176283Y00189264I00006400J-00003171D01*
G01*
X00177750Y00191485D02*
G03*
X00176505Y00189761I00004645J-00004664D01*
G01*
X00178172Y00191887D02*
G03*
X00177750Y00191485I00006375J-00007104D01*
G01*
X00178646Y00192292D02*
G03*
X00178172Y00191887I00007939J-00009779D01*
G01*
X00180324Y00192988D02*
G03*
X00179820Y00192287I00005971J-00004825D01*
G01*
X00180596Y00192316D02*
G03*
X00180369Y00191705I00009409J-00003844D01*
G01*
X00180369Y00191705D02*
G03*
X00180161Y00191028I00013015J-00004367D01*
G01*
X00179205Y00192717D02*
G03*
X00178646Y00192292I00006965J-00009757D01*
G01*
X00179513Y00192933D02*
G03*
X00179205Y00192717I00010110J-00014722D01*
G01*
X00180112Y00193327D02*
G03*
X00179513Y00192933I00009401J-00014931D01*
G01*
X00180374Y00193487D02*
G03*
X00180112Y00193327I00005730J-00009685D01*
G01*
X00180593Y00193611D02*
G03*
X00180374Y00193487I00002741J-00005109D01*
G01*
X00180753Y00193688D02*
G03*
X00180593Y00193611I00000731J-00001713D01*
G01*
X00180839Y00193669D02*
G03*
X00180840Y00193711I-00000009J00000021D01*
G01*
X00180786Y00193592D02*
G03*
X00180839Y00193669I-00001519J00001108D01*
G01*
X00181816Y00194337D02*
G03*
X00180848Y00192872I00005604J-00004754D01*
G01*
X00180840Y00193711D02*
G03*
X00180753Y00193688I00000006J-00000203D01*
G01*
X00178702Y00187560D02*
G03*
X00178767Y00188029I-00009632J00001570D01*
G01*
X00178664Y00187355D02*
G03*
X00178702Y00187560I-00005771J00001166D01*
G01*
X00178622Y00187164D02*
G03*
X00178664Y00187355I-00004503J00001110D01*
G01*
X00178572Y00186984D02*
G03*
X00178622Y00187164I-00003823J00001136D01*
G01*
X00178375Y00186460D02*
G03*
X00178572Y00186984I-00003643J00001675D01*
G01*
X00178288Y00186277D02*
G03*
X00178375Y00186460I-00005186J00002584D01*
G01*
X00178192Y00185658D02*
G03*
X00178773Y00186375I-00002264J00002430D01*
G01*
X00178939Y00186674D02*
G03*
X00179095Y00187012I-00004800J00002415D01*
G01*
X00178773Y00186375D02*
G03*
X00178939Y00186674I-00003648J00002218D01*
G01*
X00178188Y00186084D02*
G03*
X00178288Y00186277I-00007120J00003790D01*
G01*
X00179820Y00192287D02*
G03*
X00179622Y00191940I00004049J-00002537D01*
G01*
X00179622D02*
G03*
X00179309Y00191171I00004263J-00002180D01*
G01*
X00179309Y00191171D02*
G03*
X00179184Y00190715I00006672J-00002080D01*
G01*
X00179184D02*
G03*
X00179072Y00190190I00010382J-00002481D01*
G01*
X00179072Y00190190D02*
G03*
X00178969Y00189578I00017610J-00003287D01*
G01*
X00178969D02*
G03*
X00178869Y00188863I00032200J-00004875D01*
G01*
X00179095Y00187012D02*
G03*
X00179241Y00187391I-00006524J00002736D01*
G01*
Y00187391D02*
G03*
X00179380Y00187817I-00009074J00003207D01*
G01*
Y00187817D02*
G03*
X00179515Y00188295I-00012829J00003873D01*
G01*
Y00188295D02*
G03*
X00179647Y00188830I-00018370J00004814D01*
G01*
D02*
G03*
X00179778Y00189425I-00026603J00006158D01*
G01*
X00180161Y00191028D02*
G03*
X00179778Y00189425I00023621J-00006500D01*
G01*
X00182230Y00194798D02*
G03*
X00181816Y00194337I00007204J-00006873D01*
G01*
X00182699Y00195267D02*
G03*
X00182230Y00194798I00009430J-00009916D01*
G01*
X00183280Y00195782D02*
G03*
X00182699Y00195267I00007426J-00008974D01*
G01*
X00183613Y00196052D02*
G03*
X00183280Y00195782I00010444J-00013225D01*
G01*
X00183967Y00196324D02*
G03*
X00183613Y00196052I00011814J-00015676D01*
G01*
X00185467Y00197358D02*
G03*
X00183967Y00196324I00011305J-00018010D01*
G01*
X00185833Y00197581D02*
G03*
X00185467Y00197358I00008226J-00013963D01*
G01*
X00186186Y00197781D02*
G03*
X00185833Y00197581I00006172J-00011268D01*
G01*
X00186178Y00197448D02*
G03*
X00185253Y00196210I00004941J-00004660D01*
G01*
Y00196210D02*
G03*
X00185052Y00195847I00007029J-00004130D01*
G01*
D02*
G03*
X00184860Y00195458I00008288J-00004319D01*
G01*
D02*
G03*
X00184676Y00195039I00009990J-00004629D01*
G01*
D02*
G03*
X00184499Y00194588I00012266J-00005076D01*
G01*
D02*
G03*
X00184328Y00194102I00015299J-00005686D01*
G01*
X00186098Y00194900D02*
G03*
X00187047Y00196137I-00035323J00028099D01*
G01*
X00184328Y00194102D02*
G03*
X00184159Y00193579I00019341J-00006503D01*
G01*
X00187715Y00197105D02*
G03*
X00187955Y00197512I-00006941J00004388D01*
G01*
D02*
G03*
X00188142Y00197879I-00004753J00002636D01*
G01*
Y00197879D02*
G03*
X00188278Y00198217I-00003498J00001607D01*
G01*
D02*
G03*
X00188369Y00198534I-00002852J00000994D01*
G01*
D02*
G03*
X00188439Y00199145I-00002713J00000617D01*
G01*
X00188439D02*
G03*
X00188429Y00199389I-00003047J00000008D01*
G01*
Y00199389D02*
G03*
X00188417Y00199519I-00003963J-00000299D01*
G01*
X00188417D02*
G03*
X00188331Y00200028I-00004127J-00000442D01*
G01*
X00188331D02*
G03*
X00188301Y00200140I-00002733J-00000654D01*
G01*
X00188301Y00200140D02*
G03*
X00188270Y00200241I-00001961J-00000554D01*
G01*
X00189118Y00199316D02*
G03*
X00188471Y00200342I-00003200J-00001302D01*
G01*
X00188270Y00200241D02*
G03*
X00188237Y00200329I-00001254J-00000425D01*
G01*
X00187047Y00196137D02*
G03*
X00187413Y00196650I-00016894J00012455D01*
G01*
X00187413D02*
G03*
X00187715Y00197105I-00010644J00007369D01*
G01*
X00192452Y00205567D02*
G03*
X00192302Y00205642I-00000961J-00001735D01*
G01*
D02*
G03*
X00192157Y00205698I-00000613J-00001366D01*
G01*
X00191800Y00205737D02*
G03*
X00191772Y00205730I00000017J-00000128D01*
G01*
X00191772D02*
G03*
X00191758Y00205720I00000008J-00000024D01*
G01*
X00191758D02*
G03*
X00191759Y00205705I00000014J-00000006D01*
G01*
X00191759D02*
G03*
X00191776Y00205686I00000063J00000038D01*
G01*
D02*
G03*
X00191808Y00205662I00000202J00000237D01*
G01*
X00191808D02*
G03*
X00191856Y00205633I00000516J00000781D01*
G01*
X00191856Y00205633D02*
G03*
X00191920Y00205597I00001177J00002030D01*
G01*
X00192775Y00206058D02*
G03*
X00191374Y00205998I-00000637J-00001518D01*
G01*
X00193431Y00205632D02*
G03*
X00192775Y00206058I-00001443J-00001506D01*
G01*
X00194258Y00204102D02*
G03*
X00194179Y00204425I-00001906J-00000296D01*
G01*
X00194282Y00203911D02*
G03*
X00194258Y00204102I-00002929J-00000268D01*
G01*
X00191374Y00205998D02*
G03*
X00190781Y00205486I00000869J-00001605D01*
G01*
X00194297Y00203687D02*
G03*
X00194282Y00203911I-00005017J-00000234D01*
G01*
X00189366Y00193801D02*
G03*
X00192878Y00197924I-00009933J00012019D01*
G01*
X00188679Y00193283D02*
G03*
X00189366Y00193801I-00006988J00009967D01*
G01*
X00189582Y00193589D02*
G03*
X00190325Y00194093I-00011517J00017783D01*
G01*
X00190325Y00194093D02*
G03*
X00190675Y00194348I-00009596J00013517D01*
G01*
X00190675D02*
G03*
X00190993Y00194595I-00007102J00009479D01*
G01*
X00190993D02*
G03*
X00191469Y00195021I-00004289J00005274D01*
G01*
X00191469Y00195021D02*
G03*
X00191715Y00195271I-00006637J00006795D01*
G01*
X00191715D02*
G03*
X00191964Y00195541I-00008069J00007674D01*
G01*
D02*
G03*
X00192459Y00196132I-00009692J00008619D01*
G01*
X00191726Y00193590D02*
G03*
X00193174Y00195757I-00005689J00005369D01*
G01*
X00191801Y00192662D02*
G03*
X00192014Y00192904I-00004043J00003769D01*
G01*
Y00192904D02*
G03*
X00192199Y00193143I-00003449J00002860D01*
G01*
X00191563Y00192419D02*
G03*
X00191801Y00192662I-00004557J00004710D01*
G01*
X00189414Y00197728D02*
G03*
X00189118Y00199316I-00003866J00000100D01*
G01*
X00189295Y00196971D02*
G03*
X00189378Y00197341I-00002693J00000798D01*
G01*
X00189164Y00196627D02*
G03*
X00189295Y00196971I-00002191J00001031D01*
G01*
X00189164Y00196627D02*
G03*
X00189055Y00196374I00003533J-00001676D01*
G01*
X00189378Y00197341D02*
G03*
X00189414Y00197728I-00003175J00000491D01*
G01*
X00188974Y00196118D02*
G03*
X00188967Y00196077I00000379J-00000079D01*
G01*
D02*
G03*
X00188967Y00196047I00000131J-00000014D01*
G01*
D02*
G03*
X00188974Y00196030I00000029J00000002D01*
G01*
X00188986Y00196170D02*
G03*
X00188974Y00196118I00000797J-00000218D01*
G01*
X00189055Y00196374D02*
G03*
X00189027Y00196299I00002659J-00001035D01*
G01*
Y00196299D02*
G03*
X00189004Y00196231I00002013J-00000719D01*
G01*
D02*
G03*
X00188986Y00196170I00001363J-00000437D01*
G01*
X00188974Y00196030D02*
G03*
X00189127Y00196073I00000032J00000181D01*
G01*
Y00196073D02*
G03*
X00189264Y00196155I-00000923J00001683D01*
G01*
X00189264Y00196155D02*
G03*
X00189430Y00196270I-00002314J00003520D01*
G01*
X00189430D02*
G03*
X00189618Y00196412I-00004037J00005553D01*
G01*
X00190584Y00197285D02*
G03*
X00192877Y00200925I-00008856J00008121D01*
G01*
X00192877D02*
G03*
X00193102Y00201559I-00009112J00003604D01*
G01*
D02*
G03*
X00193275Y00202183I-00008147J00002593D01*
G01*
X00194294Y00201762D02*
G03*
X00194304Y00202034I-00011316J00000559D01*
G01*
X00194278Y00201522D02*
G03*
X00194294Y00201762I-00007233J00000598D01*
G01*
X00194256Y00201306D02*
G03*
X00194278Y00201522I-00005092J00000639D01*
G01*
X00194226Y00201106D02*
G03*
X00194256Y00201306I-00004031J00000710D01*
G01*
X00194139Y00200729D02*
G03*
X00194226Y00201106I-00003737J00001056D01*
G01*
X00194081Y00200535D02*
G03*
X00194139Y00200729I-00004996J00001617D01*
G01*
X00194011Y00200329D02*
G03*
X00194081Y00200535I-00007596J00002688D01*
G01*
X00192878Y00197924D02*
G03*
X00194011Y00200329I-00011872J00007061D01*
G01*
X00193586Y00197785D02*
G03*
X00193362Y00197425I00018183J-00011533D01*
G01*
X00193666Y00197907D02*
G03*
X00193586Y00197785I00004416J-00002984D01*
G01*
X00192459Y00196132D02*
G03*
X00193362Y00197424I-00010460J00008270D01*
G01*
X00192304Y00203943D02*
G03*
X00192519Y00204247I-00000564J00000628D01*
G01*
X00192044Y00203781D02*
G03*
X00192304Y00203943I-00000359J00000861D01*
G01*
X00191893Y00203728D02*
G03*
X00192044Y00203781I-00000307J00001130D01*
G01*
X00191568Y00203682D02*
G03*
X00191893Y00203728I-00000027J00001355D01*
G01*
X00191081Y00203759D02*
G03*
X00191568Y00203682I00000451J00001268D01*
G01*
X00190935Y00203825D02*
G03*
X00191081Y00203759I00000520J00000966D01*
G01*
X00190804Y00203910D02*
G03*
X00190935Y00203825I00000581J00000751D01*
G01*
X00190621Y00204140D02*
G03*
X00190804Y00203910I00000596J00000285D01*
G01*
X00190563Y00204289D02*
G03*
X00190621Y00204140I00000899J00000266D01*
G01*
X00190527Y00204453D02*
G03*
X00190563Y00204289I00001142J00000164D01*
G01*
X00190683Y00205333D02*
G03*
X00190513Y00204628I00001290J-00000682D01*
G01*
X00190781Y00205486D02*
G03*
X00190683Y00205333I00000936J-00000713D01*
G01*
X00190513Y00204628D02*
G03*
X00190527Y00204453I00001345J00000018D01*
G01*
X00193467Y00203860D02*
G03*
X00193467Y00204049I-00005758J00000097D01*
G01*
D02*
G03*
X00193460Y00204210I-00003213J-00000050D01*
G01*
Y00204210D02*
G03*
X00193446Y00204347I-00001939J-00000127D01*
G01*
D02*
G03*
X00193424Y00204466I-00001303J-00000179D01*
G01*
Y00204466D02*
G03*
X00193393Y00204572I-00001020J-00000238D01*
G01*
D02*
G03*
X00193302Y00204767I-00001066J-00000378D01*
G01*
Y00204767D02*
G03*
X00193241Y00204867I-00001780J-00001034D01*
G01*
D02*
G03*
X00193025Y00205131I-00001475J-00000986D01*
G01*
X00192894Y00205255D02*
G03*
X00192452Y00205567I-00001687J-00001923D01*
G01*
X00192588Y00204605D02*
G03*
X00192000Y00205555I-00001086J-00000016D01*
G01*
X00192519Y00204247D02*
G03*
X00192588Y00204605I-00000851J00000350D01*
G01*
X00193025Y00205131D02*
G03*
X00192894Y00205255I-00001693J-00001660D01*
G01*
X00193275Y00202183D02*
G03*
X00193392Y00202790I-00007037J00001667D01*
G01*
D02*
G03*
X00193450Y00203374I-00005882J00000873D01*
G01*
D02*
G03*
X00193467Y00203860I-00015724J00000792D01*
G01*
X00194304Y00202034D02*
G03*
X00194311Y00202704I-00025924J00000606D01*
G01*
X00194306Y00203418D02*
G03*
X00194297Y00203687I-00009846J-00000193D01*
G01*
X00189618Y00196412D02*
G03*
X00189818Y00196573I-00005543J00007107D01*
G01*
X00189818D02*
G03*
X00190225Y00196928I-00006189J00007494D01*
G01*
Y00196928D02*
G03*
X00190414Y00197109I-00005190J00005614D01*
G01*
D02*
G03*
X00190584Y00197285I-00003800J00003843D01*
G01*
X00193728Y00197993D02*
G03*
X00193666Y00197907I00001440J-00001095D01*
G01*
X00193772Y00198044D02*
G03*
X00193728Y00197993I00000317J-00000320D01*
G01*
X00193801Y00198062D02*
G03*
X00193772Y00198044I00000014J-00000055D01*
G01*
X00193819Y00198005D02*
G03*
X00193816Y00198049I-00000143J00000012D01*
G01*
X00193812Y00197932D02*
G03*
X00193819Y00198005I-00000771J00000115D01*
G01*
X00193796Y00197833D02*
G03*
X00193812Y00197932I-00002733J00000495D01*
G01*
X00193541Y00196749D02*
G03*
X00193796Y00197833I-00009306J00002764D01*
G01*
X00193174Y00195757D02*
G03*
X00193541Y00196749I-00007478J00003327D01*
G01*
X00193816Y00198049D02*
G03*
X00193801Y00198062I-00000015J-00000001D01*
G01*
X00193956Y00204921D02*
G03*
X00193714Y00205311I-00002475J-00001261D01*
G01*
X00194120Y00204578D02*
G03*
X00193956Y00204921I-00004878J-00002127D01*
G01*
X00193714Y00205311D02*
G03*
X00193431Y00205632I-00001977J-00001463D01*
G01*
X00194179Y00204425D02*
G03*
X00194120Y00204578I-00002110J-00000721D01*
G01*
X00183512Y00191721D02*
G03*
X00183499Y00191686I00000658J-00000258D01*
G01*
X00183499D02*
G03*
X00183489Y00191653I00000523J-00000174D01*
G01*
X00183489Y00191653D02*
G03*
X00183483Y00191624I00000378J-00000101D01*
G01*
D02*
G03*
X00183479Y00191598I00000243J-00000046D01*
G01*
X00183479D02*
G03*
X00183479Y00191577I00000137J-00000011D01*
G01*
Y00191577D02*
G03*
X00183483Y00191560I00000065J00000004D01*
G01*
X00183490Y00191548D02*
G03*
X00183532Y00191568I00000005J00000044D01*
G01*
X00183569Y00191603D02*
G03*
X00183616Y00191653I-00000994J00000969D01*
G01*
Y00191653D02*
G03*
X00183671Y00191717I-00001974J00001747D01*
G01*
X00183671D02*
G03*
X00183733Y00191794I-00003226J00002677D01*
G01*
Y00191794D02*
G03*
X00183801Y00191882I-00004603J00003643D01*
G01*
X00183532Y00191568D02*
G03*
X00183569Y00191603I-00000362J00000421D01*
G01*
X00183483Y00191560D02*
G03*
X00183490Y00191548I00000028J00000010D01*
G01*
X00180848Y00192872D02*
G03*
X00180596Y00192316I00007320J-00003652D01*
G01*
X00183630Y00191984D02*
G03*
X00183676Y00192109I-00006651J00002557D01*
G01*
X00183592Y00191891D02*
G03*
X00183630Y00191984I-00002626J00001113D01*
G01*
X00183565Y00191833D02*
G03*
X00183592Y00191891I-00000585J00000311D01*
G01*
X00183565Y00191833D02*
G03*
X00183512Y00191721I00000804J-00000450D01*
G01*
X00184264Y00192522D02*
G03*
X00184030Y00192198I00010892J-00008123D01*
G01*
X00188134Y00192883D02*
G03*
X00188062Y00192827I00002705J-00003471D01*
G01*
X00188062D02*
G03*
X00188008Y00192781I00001331J-00001640D01*
G01*
X00188008D02*
G03*
X00187970Y00192746I00000465J-00000539D01*
G01*
Y00192746D02*
G03*
X00187952Y00192725I00000076J-00000081D01*
G01*
Y00192725D02*
G03*
X00187955Y00192717I00000002J-00000003D01*
G01*
Y00192717D02*
G03*
X00188292Y00192836I-00000173J00001026D01*
G01*
X00188557Y00192972D02*
G03*
X00188869Y00193148I-00005287J00009730D01*
G01*
Y00193148D02*
G03*
X00189215Y00193357I-00008304J00014184D01*
G01*
X00188586Y00191189D02*
G03*
X00189097Y00191490I-00012108J00021130D01*
G01*
X00188292Y00192836D02*
G03*
X00188557Y00192972I-00002571J00005339D01*
G01*
X00189097Y00191490D02*
G03*
X00189549Y00191773I-00008861J00014625D01*
G01*
X00184338Y00188874D02*
G03*
X00183723Y00188510I00017233J-00029765D01*
G01*
D02*
G03*
X00183166Y00188162I00013757J-00022666D01*
G01*
D02*
G03*
X00182662Y00187829I00011159J-00017400D01*
G01*
D02*
G03*
X00182207Y00187506I00009227J-00013503D01*
G01*
D02*
G03*
X00181797Y00187193I00007809J-00010632D01*
G01*
X00181797D02*
G03*
X00181428Y00186885I00006797J-00008533D01*
G01*
D02*
G03*
X00181095Y00186581I00006117J-00007019D01*
G01*
X00182735Y00187367D02*
G03*
X00182247Y00187057I00009241J-00015150D01*
G01*
X00183284Y00187691D02*
G03*
X00182735Y00187367I00011838J-00020632D01*
G01*
X00183904Y00188038D02*
G03*
X00183284Y00187691I00016081J-00029449D01*
G01*
X00182247Y00187057D02*
G03*
X00180676Y00185845I00006626J-00010203D01*
G01*
X00181095Y00186581D02*
G03*
X00180498Y00185977I00010849J-00011333D01*
G01*
X00186567Y00190094D02*
G03*
X00185014Y00189258I00031559J-00060494D01*
G01*
X00188467Y00187473D02*
G03*
X00190125Y00188865I-00008394J00011685D01*
G01*
X00186575Y00186335D02*
G03*
X00188467Y00187473I-00006438J00012838D01*
G01*
X00185863Y00185994D02*
G03*
X00186575Y00186335I-00007368J00016342D01*
G01*
X00187820Y00185699D02*
G03*
X00188634Y00186466I-00003620J00004659D01*
G01*
D02*
G03*
X00189011Y00186923I-00006425J00005675D01*
G01*
X00188002Y00190861D02*
G03*
X00188586Y00191189I-00017899J00032578D01*
G01*
X00186295Y00189278D02*
G03*
X00188565Y00190445I-00052211J00104325D01*
G01*
X00186319Y00168299D02*
G03*
X00185970Y00168478I-00002134J-00003731D01*
G01*
Y00168478D02*
G03*
X00185591Y00168632I-00002001J-00004386D01*
G01*
X00186933Y00167863D02*
G03*
X00186319Y00168299I-00002480J-00002841D01*
G01*
X00189215Y00193357D02*
G03*
X00189582Y00193589I-00010736J00017358D01*
G01*
X00191339Y00193198D02*
G03*
X00191726Y00193590I-00006547J00006860D01*
G01*
X00190667Y00192594D02*
G03*
X00191339Y00193198I-00008644J00010294D01*
G01*
X00189549Y00191773D02*
G03*
X00190667Y00192594I-00006163J00009564D01*
G01*
X00189881Y00191162D02*
G03*
X00190075Y00191277I-00004296J00007492D01*
G01*
Y00191277D02*
G03*
X00191302Y00192178I-00004648J00007612D01*
G01*
D02*
G03*
X00191563Y00192419I-00004945J00005621D01*
G01*
X00192199Y00193143D02*
G03*
X00192353Y00193376I-00002825J00002039D01*
G01*
X00192303Y00192015D02*
G03*
X00192646Y00193509I-00006598J00002303D01*
G01*
X00191628Y00190648D02*
G03*
X00192303Y00192015I-00005491J00003562D01*
G01*
X00191321Y00190205D02*
G03*
X00191628Y00190648I-00006321J00004713D01*
G01*
X00192353Y00193376D02*
G03*
X00192476Y00193603I-00002222J00001348D01*
G01*
X00160481Y00160993D02*
G03*
X00160287Y00161281I-00002146J-00001232D01*
G01*
D02*
G03*
X00160085Y00161494I-00001186J-00000923D01*
G01*
X00160085D02*
G03*
X00159867Y00161640I-00000723J-00000839D01*
G01*
X00159867Y00161640D02*
G03*
X00159628Y00161728I-00000495J-00000978D01*
G01*
D02*
G03*
X00159360Y00161766I-00000339J-00001432D01*
G01*
X00158626Y00161750D02*
G03*
X00158693Y00161746I00000071J00000637D01*
G01*
X00158582Y00161760D02*
G03*
X00158626Y00161750I00000061J00000165D01*
G01*
X00158560Y00161776D02*
G03*
X00158582Y00161760I00000035J00000023D01*
G01*
X00158575Y00161833D02*
G03*
X00158558Y00161801I00000094J-00000067D01*
G01*
X00158607Y00161875D02*
G03*
X00158575Y00161833I00000334J-00000295D01*
G01*
X00158654Y00161927D02*
G03*
X00158607Y00161875I00001147J-00001093D01*
G01*
X00159004Y00162197D02*
G03*
X00158654Y00161927I00000756J-00001341D01*
G01*
X00158558Y00161801D02*
G03*
X00158560Y00161776I00000030J-00000010D01*
G01*
X00163510Y00154529D02*
G03*
X00164348Y00153671I00010416J00009325D01*
G01*
X00163162Y00154947D02*
G03*
X00163510Y00154529I00006998J00005483D01*
G01*
X00162303Y00156317D02*
G03*
X00163162Y00154947I00007039J00003458D01*
G01*
X00162053Y00156857D02*
G03*
X00162303Y00156317I00010092J00004342D01*
G01*
X00161808Y00157463D02*
G03*
X00162053Y00156857I00014374J00005473D01*
G01*
X00161560Y00158146D02*
G03*
X00161808Y00157463I00022150J00007659D01*
G01*
X00161301Y00158921D02*
G03*
X00160868Y00160157I-00021266J-00006740D01*
G01*
Y00160157D02*
G03*
X00160672Y00160621I-00007808J-00003029D01*
G01*
D02*
G03*
X00160481Y00160993I-00004064J-00001859D01*
G01*
X00161301Y00158921D02*
G03*
X00161560Y00158146I00036803J00011868D01*
G01*
X00159360Y00161766D02*
G03*
X00159057Y00161762I-00000121J-00002478D01*
G01*
X00158786Y00161747D02*
G03*
X00159057Y00161762I-00000363J00008784D01*
G01*
X00158693Y00161746D02*
G03*
X00158786Y00161747I00000019J00001916D01*
G01*
X00160370Y00162490D02*
G03*
X00160147Y00162503I-00000215J-00001754D01*
G01*
X00160575Y00162449D02*
G03*
X00160370Y00162490I-00000369J-00001309D01*
G01*
X00160756Y00162378D02*
G03*
X00160575Y00162449I-00000452J-00000892D01*
G01*
X00160756Y00162378D02*
G03*
X00160871Y00162322I00000888J00001692D01*
G01*
Y00162322D02*
G03*
X00160911Y00162307I00000173J00000397D01*
G01*
X00160969Y00162316D02*
G03*
X00160970Y00162339I-00000055J00000013D01*
G01*
D02*
G03*
X00160962Y00162372I-00000207J-00000031D01*
G01*
D02*
G03*
X00160947Y00162415I-00000609J-00000189D01*
G01*
X00160947D02*
G03*
X00160925Y00162469I-00001655J-00000643D01*
G01*
X00160460Y00163672D02*
G03*
X00160925Y00162469I00018183J00006332D01*
G01*
X00160106Y00164832D02*
G03*
X00160460Y00163672I00015148J00003989D01*
G01*
X00159215Y00162303D02*
G03*
X00159004Y00162197I00000838J-00001928D01*
G01*
X00160147Y00162503D02*
G03*
X00159215Y00162303I00000030J-00002411D01*
G01*
X00160911Y00162307D02*
G03*
X00160941Y00162301I00000042J00000126D01*
G01*
D02*
G03*
X00160960Y00162304I00000004J00000034D01*
G01*
X00160960Y00162304D02*
G03*
X00160969Y00162316I-00000010J00000017D01*
G01*
X00167404Y00166999D02*
G03*
X00167187Y00166350I00019100J-00006759D01*
G01*
X00168684Y00158168D02*
G03*
X00168673Y00157979I00004900J-00000386D01*
G01*
X00168673D02*
G03*
X00168667Y00157765I00008080J-00000326D01*
G01*
D02*
G03*
X00168666Y00157520I00014796J-00000207D01*
G01*
D02*
G03*
X00168675Y00157057I00011073J-00000027D01*
G01*
Y00157057D02*
G03*
X00168686Y00156867I00004754J00000204D01*
G01*
X00168702Y00158338D02*
G03*
X00168684Y00158168I00003292J-00000431D01*
G01*
X00167057Y00151839D02*
G03*
X00167853Y00151511I00004643J00010136D01*
G01*
X00164348Y00153671D02*
G03*
X00167057Y00151839I00006780J00007108D01*
G01*
X00170770Y00153807D02*
G03*
X00171017Y00153640I00002334J00003184D01*
G01*
X00171017D02*
G03*
X00171252Y00153509I00001442J00002311D01*
G01*
X00171252D02*
G03*
X00171427Y00153427I00002395J00004891D01*
G01*
X00171509Y00153391D02*
G03*
X00171585Y00153360I00001461J00003451D01*
G01*
Y00153360D02*
G03*
X00171654Y00153334I00001029J00002586D01*
G01*
D02*
G03*
X00171714Y00153313I00000636J00001727D01*
G01*
X00180497Y00185977D02*
G03*
X00180282Y00185737I00006313J-00005901D01*
G01*
X00180282Y00185737D02*
G03*
X00180127Y00185548I00003185J-00002773D01*
G01*
Y00185548D02*
G03*
X00180036Y00185416I00000983J-00000775D01*
G01*
X00180036Y00185416D02*
G03*
X00180013Y00185348I00000086J-00000067D01*
G01*
D02*
G03*
X00180062Y00185350I00000023J00000025D01*
G01*
D02*
G03*
X00180186Y00185429I-00000367J00000714D01*
G01*
D02*
G03*
X00180390Y00185592I-00002326J00003121D01*
G01*
D02*
G03*
X00180676Y00185845I-00006739J00007931D01*
G01*
X00183392Y00185042D02*
G03*
X00184278Y00185352I-00010482J00031365D01*
G01*
X00183392Y00185042D02*
G03*
X00181706Y00184436I00012575J-00037671D01*
G01*
Y00184436D02*
G03*
X00180919Y00184121I00011943J-00030975D01*
G01*
X00181681Y00183448D02*
G03*
X00180796Y00183171I00005868J-00020369D01*
G01*
X00182631Y00183703D02*
G03*
X00181681Y00183448I00006779J-00027087D01*
G01*
X00182631Y00183703D02*
G03*
X00184673Y00184259I-00010733J00043454D01*
G01*
X00180919Y00184121D02*
G03*
X00180166Y00183796I00011427J-00027521D01*
G01*
X00180166D02*
G03*
X00178758Y00183115I00010553J-00023606D01*
G01*
D02*
G03*
X00177464Y00182383I00010316J-00019764D01*
G01*
D02*
G03*
X00176268Y00181594I00010582J-00017338D01*
G01*
X00176749Y00181173D02*
G03*
X00175900Y00180589I00014959J-00022660D01*
G01*
X00177563Y00181684D02*
G03*
X00176749Y00181173I00010789J-00018089D01*
G01*
X00178358Y00182131D02*
G03*
X00177563Y00181684I00008228J-00015581D01*
G01*
X00180796Y00183171D02*
G03*
X00178358Y00182131I00005149J-00015441D01*
G01*
X00176268Y00181594D02*
G03*
X00175552Y00181014I00006678J-00008969D01*
G01*
X00180721Y00174918D02*
G03*
X00181497Y00175462I-00008536J00013002D01*
G01*
X00179878Y00174398D02*
G03*
X00180721Y00174918I-00008937J00015417D01*
G01*
X00178967Y00173900D02*
G03*
X00179878Y00174398I-00009449J00018368D01*
G01*
X00177987Y00173424D02*
G03*
X00178967Y00173900I-00010072J00021960D01*
G01*
X00177394Y00173169D02*
G03*
X00177987Y00173424I-00005881J00014535D01*
G01*
X00178609Y00172742D02*
G03*
X00178537Y00172690I00000643J-00000968D01*
G01*
X00178656Y00172767D02*
G03*
X00178609Y00172742I00000095J-00000232D01*
G01*
X00178690Y00172745D02*
G03*
X00178683Y00172768I-00000025J00000005D01*
G01*
X00178682Y00172700D02*
G03*
X00178690Y00172745I-00000193J00000061D01*
G01*
X00178659Y00172632D02*
G03*
X00178682Y00172700I-00000923J00000347D01*
G01*
X00178625Y00172542D02*
G03*
X00178659Y00172632I-00003970J00001575D01*
G01*
X00178683Y00172768D02*
G03*
X00178656Y00172767I-00000012J-00000027D01*
G01*
X00178419Y00172101D02*
G03*
X00178625Y00172542I-00004339J00002285D01*
G01*
X00188149Y00183747D02*
G03*
X00188401Y00184073I-00004460J00003699D01*
G01*
X00187853Y00183407D02*
G03*
X00188149Y00183747I-00006508J00005983D01*
G01*
X00187505Y00183040D02*
G03*
X00187853Y00183407I-00011510J00011264D01*
G01*
X00186069Y00181837D02*
G03*
X00187505Y00183040I-00005170J00007628D01*
G01*
X00185492Y00181471D02*
G03*
X00186069Y00181837I-00005635J00009503D01*
G01*
X00184848Y00181112D02*
G03*
X00185492Y00181471I-00006330J00012125D01*
G01*
X00185116Y00180094D02*
G03*
X00185059Y00180068I00000613J-00001451D01*
G01*
X00185161Y00180111D02*
G03*
X00185116Y00180094I00000219J-00000637D01*
G01*
X00185059Y00180068D02*
G03*
X00184991Y00180035I00001218J-00002596D01*
G01*
X00185099Y00185668D02*
G03*
X00185863Y00185994I-00007993J00019751D01*
G01*
X00184278Y00185352D02*
G03*
X00185099Y00185668I-00008994J00024572D01*
G01*
X00184673Y00184259D02*
G03*
X00185494Y00184525I-00005989J00019886D01*
G01*
D02*
G03*
X00186203Y00184794I-00004349J00012538D01*
G01*
Y00184794D02*
G03*
X00186816Y00185074I-00003452J00008378D01*
G01*
X00186816Y00185074D02*
G03*
X00187350Y00185373I-00003040J00006052D01*
G01*
X00187350Y00185373D02*
G03*
X00187820Y00185699I-00003016J00004848D01*
G01*
X00188957Y00185122D02*
G03*
X00189099Y00185544I-00006268J00002349D01*
G01*
X00188798Y00184746D02*
G03*
X00188957Y00185122I-00004462J00002110D01*
G01*
X00188401Y00184073D02*
G03*
X00188797Y00184746I-00003550J00002547D01*
G01*
X00189099Y00185544D02*
G03*
X00189232Y00186028I-00009985J00003002D01*
G01*
X00159859Y00165968D02*
G03*
X00160106Y00164832I00013476J00002343D01*
G01*
X00159667Y00168238D02*
G03*
X00159859Y00165968I00013090J-00000039D01*
G01*
X00159695Y00169208D02*
G03*
X00159667Y00168238I00015858J-00000941D01*
G01*
X00159731Y00169640D02*
G03*
X00159695Y00169208I00010180J-00001065D01*
G01*
X00159784Y00170046D02*
G03*
X00159731Y00169640I00008191J-00001269D01*
G01*
X00159854Y00170433D02*
G03*
X00159784Y00170046I00007071J-00001495D01*
G01*
X00160192Y00171553D02*
G03*
X00159854Y00170433I00006637J-00002609D01*
G01*
X00160351Y00171936D02*
G03*
X00160192Y00171553I00008770J-00003860D01*
G01*
X00160536Y00172337D02*
G03*
X00160351Y00171936I00011323J-00005466D01*
G01*
X00160836Y00172892D02*
G03*
X00160536Y00172337I00007232J-00004279D01*
G01*
X00161029Y00173214D02*
G03*
X00160836Y00172892I00014577J-00008944D01*
G01*
X00161235Y00173543D02*
G03*
X00161029Y00173214I00017697J-00011308D01*
G01*
X00161649Y00174165D02*
G03*
X00161235Y00173543I00016186J-00011205D01*
G01*
X00161693Y00172818D02*
G03*
X00161661Y00172526I00005929J-00000810D01*
G01*
Y00172526D02*
G03*
X00161644Y00172247I00005112J-00000445D01*
G01*
X00161978Y00174053D02*
G03*
X00161693Y00172818I00006813J-00002221D01*
G01*
X00170102Y00184863D02*
G03*
X00169873Y00184676I00003882J-00004953D01*
G01*
X00170263Y00184977D02*
G03*
X00170102Y00184863I00000854J-00001382D01*
G01*
X00170343Y00184961D02*
G03*
X00170340Y00185000I-00000056J00000015D01*
G01*
X00170338Y00184925D02*
G03*
X00170343Y00184961I-00000470J00000091D01*
G01*
X00170327Y00184877D02*
G03*
X00170338Y00184925I-00001039J00000247D01*
G01*
X00170313Y00184821D02*
G03*
X00170327Y00184877I-00001825J00000491D01*
G01*
X00170295Y00184757D02*
G03*
X00170313Y00184821I-00002745J00000806D01*
G01*
X00170274Y00184686D02*
G03*
X00170295Y00184757I-00003676J00001155D01*
G01*
X00170191Y00184446D02*
G03*
X00170249Y00184610I-00005250J00001933D01*
G01*
X00170191Y00184446D02*
G03*
X00170011Y00183852I00005705J-00002055D01*
G01*
D02*
G03*
X00169927Y00183491I00009897J-00002506D01*
G01*
X00169927D02*
G03*
X00169846Y00183087I00013712J-00002950D01*
G01*
X00170675Y00183674D02*
G03*
X00170578Y00183349I00007292J-00002368D01*
G01*
X00170894Y00184252D02*
G03*
X00170675Y00183674I00005919J-00002568D01*
G01*
X00170578Y00183349D02*
G03*
X00170485Y00182988I00009371J-00002589D01*
G01*
X00167898Y00182700D02*
G03*
X00167455Y00182100I00009715J-00007643D01*
G01*
X00168353Y00183215D02*
G03*
X00167898Y00182700I00005794J-00005564D01*
G01*
X00168648Y00183521D02*
G03*
X00168353Y00183215I00013431J-00013276D01*
G01*
X00168966Y00183837D02*
G03*
X00168648Y00183521I00017012J-00017435D01*
G01*
X00169596Y00184431D02*
G03*
X00168966Y00183837I00015832J-00017434D01*
G01*
X00169873Y00184676D02*
G03*
X00169596Y00184431I00008920J-00010380D01*
G01*
X00170340Y00185000D02*
G03*
X00170263Y00184977I-00000016J-00000087D01*
G01*
X00169846Y00183087D02*
G03*
X00169769Y00182638I00018575J-00003430D01*
G01*
Y00182638D02*
G03*
X00169695Y00182143I00024690J-00003949D01*
G01*
X00170309Y00182122D02*
G03*
X00170222Y00181599I00027520J-00004869D01*
G01*
X00170396Y00182582D02*
G03*
X00170309Y00182122I00018486J-00003744D01*
G01*
X00170485Y00182988D02*
G03*
X00170396Y00182582I00012853J-00003026D01*
G01*
X00172180Y00186362D02*
G03*
X00170894Y00184252I00006927J-00005671D01*
G01*
X00172533Y00186777D02*
G03*
X00172180Y00186362I00008759J-00007786D01*
G01*
X00172924Y00187200D02*
G03*
X00172533Y00186777I00010069J-00009721D01*
G01*
X00173358Y00187634D02*
G03*
X00172924Y00187200I00011967J-00012407D01*
G01*
X00181363Y00179631D02*
G03*
X00182393Y00180020I-00017419J00047708D01*
G01*
X00174332Y00172042D02*
G03*
X00176183Y00172699I-00019992J00059250D01*
G01*
X00174311Y00170734D02*
G03*
X00175277Y00170969I-00002925J00014094D01*
G01*
X00180206Y00179219D02*
G03*
X00177891Y00178386I00032159J-00092975D01*
G01*
Y00178386D02*
G03*
X00176912Y00178008I00019731J-00052547D01*
G01*
Y00178008D02*
G03*
X00176034Y00177647I00014749J-00037157D01*
G01*
X00176034Y00177647D02*
G03*
X00175246Y00177299I00011511J-00027110D01*
G01*
Y00177299D02*
G03*
X00174535Y00176957I00009450J-00020563D01*
G01*
X00176328Y00176908D02*
G03*
X00175165Y00176468I00007889J-00022606D01*
G01*
X00177663Y00177348D02*
G03*
X00176328Y00176908I00011672J-00037685D01*
G01*
X00179201Y00177806D02*
G03*
X00177663Y00177348I00019989J-00069893D01*
G01*
X00181948Y00178665D02*
G03*
X00182503Y00178863I-00009603J00027677D01*
G01*
D02*
G03*
X00183006Y00179056I-00007797J00021096D01*
G01*
X00181497Y00175462D02*
G03*
X00182856Y00176627I-00007806J00010482D01*
G01*
X00179201Y00177806D02*
G03*
X00180682Y00178249I-00018467J00064475D01*
G01*
X00185032Y00168035D02*
G03*
X00184681Y00168191I-00001425J-00002723D01*
G01*
X00182621Y00168716D02*
G03*
X00182178Y00168512I00001108J-00002990D01*
G01*
X00183631Y00168932D02*
G03*
X00182621Y00168716I00000259J-00003667D01*
G01*
X00182178Y00168512D02*
G03*
X00181789Y00168251I00001378J-00002476D01*
G01*
X00185714Y00167569D02*
G03*
X00185032Y00168035I-00002357J-00002713D01*
G01*
X00175277Y00170969D02*
G03*
X00175724Y00171105I-00003244J00011509D01*
G01*
Y00171105D02*
G03*
X00176146Y00171252I-00003249J00010012D01*
G01*
D02*
G03*
X00176544Y00171410I-00003224J00008664D01*
G01*
Y00171410D02*
G03*
X00176917Y00171580I-00003176J00007458D01*
G01*
Y00171580D02*
G03*
X00177265Y00171762I-00003110J00006389D01*
G01*
Y00171762D02*
G03*
X00177588Y00171954I-00003035J00005447D01*
G01*
Y00171954D02*
G03*
X00177885Y00172158I-00002955J00004625D01*
G01*
X00178282Y00171846D02*
G03*
X00178419Y00172101I-00007986J00004465D01*
G01*
X00178127Y00171577D02*
G03*
X00178282Y00171846I-00010133J00006017D01*
G01*
X00177414Y00170495D02*
G03*
X00178127Y00171577I-00011199J00008153D01*
G01*
X00177233Y00170255D02*
G03*
X00177414Y00170495I-00007558J00005900D01*
G01*
X00177059Y00170041D02*
G03*
X00177233Y00170255I-00005231J00004429D01*
G01*
X00183006Y00179056D02*
G03*
X00183460Y00179244I-00006273J00015803D01*
G01*
D02*
G03*
X00183865Y00179427I-00004995J00011601D01*
G01*
X00183865D02*
G03*
X00184222Y00179605I-00003932J00008317D01*
G01*
Y00179605D02*
G03*
X00184532Y00179779I-00003055J00005802D01*
G01*
X00184733Y00179897D02*
G03*
X00184532Y00179779I00004450J-00007863D01*
G01*
X00184991Y00180035D02*
G03*
X00184913Y00179995I00001984J-00003956D01*
G01*
X00185192Y00180119D02*
G03*
X00185161Y00180111I00000032J-00000182D01*
G01*
X00185181Y00180012D02*
G03*
X00185200Y00180065I-00000862J00000329D01*
G01*
X00185154Y00179943D02*
G03*
X00185181Y00180012I-00002013J00000843D01*
G01*
X00185119Y00179861D02*
G03*
X00185154Y00179943I-00003653J00001623D01*
G01*
X00182856Y00176627D02*
G03*
X00184846Y00179303I-00007493J00007651D01*
G01*
X00185207Y00180117D02*
G03*
X00185192Y00180119I-00000010J-00000017D01*
G01*
X00185200Y00180065D02*
G03*
X00185207Y00180117I-00000071J00000036D01*
G01*
X00164070Y00177154D02*
X00164299Y00177554D01*
X00165741Y00171444D02*
X00165746Y00171112D01*
X00162116Y00174502D02*
X00162140Y00174591D01*
X00162087Y00174402D02*
X00162116Y00174502D01*
X00162054Y00174293D02*
X00162087Y00174402D01*
X00162017Y00174176D02*
X00162054Y00174293D01*
X00161978Y00174053D02*
X00162017Y00174176D01*
X00161883Y00170998D02*
X00161953Y00170851D01*
X00162031Y00170692D01*
X00162117Y00170524D01*
X00163321Y00169584D02*
X00163427Y00169265D01*
X00164299Y00177554D02*
X00164544Y00177967D01*
X00165549Y00179314D02*
X00165574Y00179385D01*
X00165521Y00179234D02*
X00165549Y00179314D01*
X00165488Y00179146D02*
X00165521Y00179234D01*
X00165453Y00179053D02*
X00165488Y00179146D01*
X00165414Y00178954D02*
X00165453Y00179053D01*
X00165720Y00173692D02*
X00165730Y00173315D01*
X00165735Y00172884D01*
X00165737Y00172389D01*
X00167477Y00166549D02*
X00167657Y00166889D01*
X00163836Y00166837D02*
X00164034Y00166228D01*
X00163976Y00167027D02*
X00164034Y00166228D01*
X00163616Y00168651D02*
X00163698Y00168361D01*
X00162717Y00172561D02*
X00162721Y00172252D01*
X00169491Y00180374D02*
X00169556Y00181012D01*
X00169428Y00179686D02*
X00169491Y00180374D01*
X00169329Y00178585D02*
X00169428Y00179686D01*
X00169237Y00177703D02*
X00169282Y00178120D01*
X00169192Y00177324D02*
X00169237Y00177703D01*
X00169145Y00176976D02*
X00169192Y00177324D01*
X00169097Y00176650D02*
X00169145Y00176976D01*
X00168853Y00175362D02*
X00169039Y00175744D01*
X00168853Y00175362D02*
X00168929Y00175728D01*
X00168092Y00170602D02*
X00168184Y00170700D01*
X00168297Y00170823D01*
X00168428Y00170969D01*
X00168576Y00171136D01*
X00168737Y00171320D01*
X00169556Y00181012D02*
X00169624Y00181601D01*
X00169940Y00179564D02*
X00170132Y00181004D01*
X00170222Y00181599D01*
X00173044Y00180843D02*
X00173369Y00181483D01*
X00173044Y00180843D02*
X00173432Y00181269D01*
X00172826Y00178248D02*
X00172975Y00178356D01*
X00173149Y00178484D01*
X00173344Y00178632D01*
X00173558Y00178797D01*
X00168737Y00171320D02*
X00168910Y00171520D01*
X00169092Y00171731D01*
X00169282Y00178120D02*
X00169329Y00178585D01*
X00172220Y00171340D02*
X00173884Y00171894D01*
X00172012Y00170232D02*
X00172439Y00170332D01*
X00172955Y00170446D01*
X00173573Y00170578D01*
X00167457Y00160017D02*
X00167772Y00161174D01*
X00167457Y00160017D02*
X00167525Y00161034D01*
X00171781Y00153747D02*
X00171807Y00153623D01*
X00171749Y00153884D02*
X00171781Y00153747D01*
X00171714Y00154033D02*
X00171749Y00153884D01*
X00175584Y00167230D02*
Y00168023D01*
X00177177Y00159568D02*
X00177963Y00159573D01*
X00176403Y00150503D02*
X00177268Y00150518D01*
X00177963Y00159573D02*
X00178867Y00159567D01*
X00180336Y00159554D01*
X00180861Y00159555D01*
X00173884Y00171894D02*
X00174332Y00172042D01*
X00173573Y00170578D02*
X00174311Y00170734D01*
X00182591Y00159779D02*
X00182863Y00159869D01*
X00175373Y00185786D02*
X00175548Y00186562D01*
X00175757Y00187505D01*
X00177738Y00185236D02*
X00178188Y00186084D01*
X00177738Y00185236D02*
X00178192Y00185658D01*
X00174327Y00184679D02*
X00174399Y00185284D01*
X00173868Y00181880D02*
X00173972Y00182046D01*
X00175225Y00185154D02*
X00175373Y00185786D01*
X00174585Y00180150D02*
X00175085Y00180603D01*
X00173558Y00178797D02*
X00173787Y00178976D01*
X00174028Y00179167D01*
X00175295Y00188718D02*
X00175443Y00189008D01*
X00180646Y00193403D02*
X00180699Y00193474D01*
X00183793Y00192442D02*
X00183860Y00192642D01*
X00183731Y00192263D02*
X00183793Y00192442D01*
X00183874Y00191979D02*
X00183951Y00192085D01*
X00184030Y00192198D01*
X00183801Y00191882D02*
X00183874Y00191979D01*
X00183676Y00192109D02*
X00183731Y00192263D01*
X00184338Y00188874D02*
X00185014Y00189258D01*
X00184605Y00188414D02*
X00185398Y00188825D01*
X00183904Y00188038D02*
X00184605Y00188414D01*
X00180746Y00193538D02*
X00180786Y00193592D01*
X00180699Y00193474D02*
X00180746Y00193538D01*
X00180587Y00193326D02*
X00180646Y00193403D01*
X00180525Y00193245D02*
X00180587Y00193326D01*
X00180324Y00192988D02*
X00180525Y00193245D01*
X00178767Y00188029D02*
X00178869Y00188863D01*
X00183932Y00192859D02*
X00184159Y00193579D01*
X00183860Y00192642D02*
X00183932Y00192859D01*
X00184264Y00192522D02*
X00184430Y00192744D01*
X00184623Y00192999D01*
X00184838Y00193281D01*
X00185071Y00193585D01*
X00186186Y00197781D02*
X00186820Y00198128D01*
X00186178Y00197448D02*
X00186820Y00198128D01*
X00185071Y00193585D02*
X00185574Y00194234D01*
X00186098Y00194900D01*
X00188030Y00200816D02*
X00188237Y00200329D01*
X00188030Y00200816D02*
X00188471Y00200342D01*
X00192476Y00193603D02*
X00192721Y00194118D01*
X00192646Y00193509D02*
X00192721Y00194118D01*
X00191920Y00205597D02*
X00192000Y00205555D01*
X00194306Y00203418D02*
X00194310Y00203094D01*
X00194311Y00202704D01*
X00188429Y00193104D02*
X00188679Y00193283D01*
X00188318Y00193023D02*
X00188429Y00193104D01*
X00188219Y00192949D02*
X00188318Y00193023D01*
X00188134Y00192883D02*
X00188219Y00192949D01*
X00185398Y00188825D02*
X00186295Y00189278D01*
X00189011Y00186923D02*
X00189281Y00187270D01*
X00187333Y00190499D02*
X00188002Y00190861D01*
X00186567Y00190094D02*
X00187333Y00190499D01*
X00188565Y00190445D02*
X00188959Y00190655D01*
X00189316Y00190847D01*
X00189626Y00191018D01*
X00189881Y00191162D01*
X00170249Y00184610D02*
X00170274Y00184686D01*
X00169624Y00181601D02*
X00169695Y00182143D01*
X00180206Y00179219D02*
X00181363Y00179631D01*
X00184733Y00179897D02*
X00184827Y00179949D01*
X00184913Y00179995D01*
X00184971Y00179548D02*
X00185026Y00179662D01*
X00184911Y00179428D02*
X00184971Y00179548D01*
X00184846Y00179303D02*
X00184911Y00179428D01*
X00176183Y00172699D02*
X00176618Y00172864D01*
X00175066Y00167574D02*
X00175584Y00168023D01*
X00180682Y00178249D02*
X00181342Y00178460D01*
X00181948Y00178665D01*
X00177025Y00173021D02*
X00177394Y00173169D01*
X00176618Y00172864D02*
X00177025Y00173021D01*
X00185076Y00179767D02*
X00185119Y00179861D01*
X00185026Y00179662D02*
X00185076Y00179767D01*
D12*
X00401000Y00040000D02*
X00551000D01*
X00401000Y00017000D02*
Y00040000D01*
X00551000Y00017000D02*
Y00040000D01*
X00712000Y00078000D02*
X00726000D01*
X00289000Y00022000D02*
X00369000D01*
X00726000Y00078000D02*
Y00110000D01*
X00289000Y00022000D02*
Y00166000D01*
X00712000Y00110000D02*
X00726000Y00110000D01*
X00289000Y00166000D02*
X00369000D01*
X00712000Y00078000D02*
Y00110000D01*
X00369000Y00022000D02*
Y00166000D01*
X00370000Y00110000D02*
X00384000D01*
Y00142000D01*
X00370000D02*
X00384000D01*
X00370000Y00110000D02*
Y00142000D01*
X00530000Y00110000D02*
Y00124000D01*
Y00110000D02*
X00562000D01*
Y00124000D01*
X00530000D02*
X00562000D01*
X00698000Y00078000D02*
Y00110000D01*
X00712000D01*
Y00078000D02*
Y00110000D01*
X00698000Y00078000D02*
X00712000Y00078000D01*
X00444000Y00040000D02*
X00444000Y00054000D01*
X00412000D02*
X00444000D01*
X00412000D02*
X00412000Y00040000D01*
X00444000D01*
X00384000Y00142000D02*
X00398000Y00142000D01*
X00384000Y00110000D02*
Y00142000D01*
Y00110000D02*
X00398000Y00110000D01*
Y00142000D01*
X00476000Y00054000D02*
X00476000Y00040000D01*
X00444000Y00054000D02*
X00476000D01*
X00444000Y00040000D02*
Y00054000D01*
Y00040000D02*
X00476000D01*
X00401000Y00017000D02*
X00551000D01*
X00449000Y00095000D02*
X00501000D01*
X00449000D02*
Y00125000D01*
X00504000D01*
Y00095000D02*
Y00125000D01*
X00501000Y00095000D02*
X00504000D01*
X00418000Y00124000D02*
Y00164000D01*
X00398000Y00124000D02*
X00418000D01*
X00398000D02*
Y00164000D01*
X00418000D01*
X00562000Y00082000D02*
X00562000Y00096000D01*
X00530000D02*
X00562000D01*
X00530000Y00082000D02*
Y00096000D01*
Y00082000D02*
X00562000Y00082000D01*
X00398000Y00110000D02*
X00430000D01*
X00398000D02*
Y00124000D01*
X00430000D01*
Y00110000D02*
Y00124000D01*
X00562000Y00110000D02*
X00562000Y00096000D01*
X00530000Y00110000D02*
X00562000D01*
X00530000Y00096000D02*
X00530000Y00110000D01*
X00530000Y00096000D02*
X00562000D01*
X00562000Y00068000D02*
Y00082000D01*
X00530000Y00082000D02*
X00562000Y00082000D01*
X00530000Y00082000D02*
X00530000Y00068000D01*
X00562000Y00068000D01*
Y00054000D02*
Y00068000D01*
X00530000Y00068000D02*
X00562000Y00068000D01*
X00530000Y00068000D02*
X00530000Y00054000D01*
X00562000D01*
X00391000Y00164000D02*
Y00178000D01*
Y00164000D02*
X00423000D01*
Y00178000D01*
X00391000D02*
X00423000D01*
X00459000Y00125000D02*
Y00139000D01*
Y00125000D02*
X00491000D01*
Y00139000D01*
X00459000D02*
X00491000D01*
X00508000Y00040000D02*
Y00054000D01*
X00476000D02*
X00508000D01*
X00476000D02*
X00476000Y00040000D01*
X00508000D01*
X00712000Y00142000D02*
X00726000D01*
X00712000Y00110000D02*
Y00142000D01*
Y00110000D02*
X00726000D01*
Y00142000D01*
X00507750Y00040000D02*
X00539750D01*
X00507750D02*
Y00054000D01*
X00539750D01*
Y00040000D02*
Y00054000D01*
X00093000Y00078000D02*
Y00092000D01*
Y00078000D02*
X00125000Y00078000D01*
X00125000Y00092000D02*
X00125000Y00078000D01*
X00093000Y00092000D02*
X00125000D01*
X00093000Y00026000D02*
X00125000D01*
X00093000Y00040000D02*
X00093000Y00026000D01*
X00093000Y00040000D02*
X00125000Y00040000D01*
Y00026000D02*
Y00040000D01*
X00116000Y00068000D02*
X00123000D01*
Y00062000D02*
Y00068000D01*
X00094500D02*
X00102000D01*
X00094500Y00062000D02*
Y00068000D01*
X00095000Y00110000D02*
X00109000Y00110000D01*
Y00142000D01*
X00095000Y00142000D02*
X00109000Y00142000D01*
X00095000Y00110000D02*
Y00142000D01*
X00109000Y00142000D02*
X00123000D01*
X00109000D02*
X00109000Y00110000D01*
X00123000Y00110000D01*
Y00142000D01*
X00558000Y00128000D02*
Y00162000D01*
Y00128000D02*
X00592000D01*
Y00162000D01*
X00558000D02*
X00592000D01*
X00611000Y00043000D02*
X00618000D01*
Y00037000D02*
Y00043000D01*
X00589500D02*
X00597000D01*
X00589500Y00037000D02*
Y00043000D01*
X00577000Y00043000D02*
X00584000Y00043000D01*
X00584000Y00037000D02*
X00584000Y00043000D01*
X00555500D02*
X00563000D01*
X00555500Y00037000D02*
X00555500Y00043000D01*
X00191000Y00072000D02*
X00211000D01*
Y00038000D02*
Y00072000D01*
X00191000Y00038000D02*
X00211000D01*
X00191000D02*
Y00072000D01*
X00510666Y00110667D02*
Y00109333D01*
X00509333D01*
Y00110667D01*
X00510666D01*
X00296666Y00049334D02*
X00295333D01*
Y00050666D01*
X00296666D01*
Y00049334D01*
X00423334Y00159667D02*
X00424666D01*
Y00158334D01*
X00423334D01*
Y00159667D01*
X00552334Y00157333D02*
Y00158666D01*
X00553666D01*
Y00157333D01*
X00552334D01*
X00403666Y00010334D02*
X00402333D01*
Y00011667D01*
X00403666D01*
Y00010334D01*
X00304675Y00060999D02*
X00310007D01*
X00307341D01*
Y00053001D01*
X00318004Y00059666D02*
X00316671Y00060999D01*
X00314005D01*
X00312672Y00059666D01*
Y00058333D01*
X00314005Y00057000D01*
X00316671D01*
X00318004Y00055667D01*
Y00054334D01*
X00316671Y00053001D01*
X00314005D01*
X00312672Y00054334D01*
X00324668Y00060999D02*
X00322003D01*
X00320670Y00059666D01*
Y00054334D01*
X00322003Y00053001D01*
X00324668D01*
X00326001Y00054334D01*
Y00059666D01*
X00324668Y00060999D01*
X00328667Y00053001D02*
Y00060999D01*
X00332666D01*
X00333999Y00059666D01*
Y00057000D01*
X00332666Y00055667D01*
X00328667D01*
X00340663Y00053001D02*
Y00060999D01*
X00336665Y00057000D01*
X00341996D01*
X00344662Y00059666D02*
X00345995Y00060999D01*
X00348661D01*
X00349994Y00059666D01*
Y00054334D01*
X00348661Y00053001D01*
X00345995D01*
X00344662Y00054334D01*
Y00059666D01*
X00352659Y00053001D02*
X00355325D01*
X00353992D01*
Y00060999D01*
X00352659Y00059666D01*
X00452341Y00090999D02*
Y00083001D01*
X00457672D01*
X00465670Y00090999D02*
X00460338D01*
Y00083001D01*
X00465670D01*
X00460338Y00087000D02*
X00463004D01*
X00468335Y00090999D02*
Y00083001D01*
X00472334D01*
X00473667Y00084334D01*
Y00089666D01*
X00472334Y00090999D01*
X00468335D01*
X00481665D02*
X00476333D01*
Y00087000D01*
X00478999Y00088333D01*
X00480332D01*
X00481665Y00087000D01*
Y00084334D01*
X00480332Y00083001D01*
X00477666D01*
X00476333Y00084334D01*
X00484330Y00089666D02*
X00485663Y00090999D01*
X00488329D01*
X00489662Y00089666D01*
Y00084334D01*
X00488329Y00083001D01*
X00485663D01*
X00484330Y00084334D01*
Y00089666D01*
X00492328D02*
X00493661Y00090999D01*
X00496326D01*
X00497659Y00089666D01*
Y00088333D01*
X00496326Y00087000D01*
X00494994D01*
X00496326D01*
X00497659Y00085667D01*
Y00084334D01*
X00496326Y00083001D01*
X00493661D01*
X00492328Y00084334D01*
X00461338Y00143001D02*
Y00150999D01*
X00465337D01*
X00466670Y00149666D01*
Y00147000D01*
X00465337Y00145667D01*
X00461338D01*
X00464004D02*
X00466670Y00143001D01*
X00474667Y00150999D02*
X00469336D01*
Y00147000D01*
X00472001Y00148333D01*
X00473334D01*
X00474667Y00147000D01*
Y00144334D01*
X00473334Y00143001D01*
X00470668D01*
X00469336Y00144334D01*
X00477333Y00149666D02*
X00478666Y00150999D01*
X00481332D01*
X00482664Y00149666D01*
Y00144334D01*
X00481332Y00143001D01*
X00478666D01*
X00477333Y00144334D01*
Y00149666D01*
X00490662Y00150999D02*
X00487996Y00149666D01*
X00485330Y00147000D01*
Y00144334D01*
X00486663Y00143001D01*
X00489329D01*
X00490662Y00144334D01*
Y00145667D01*
X00489329Y00147000D01*
X00485330D01*
X00700001Y00143662D02*
X00707999D01*
Y00139663D01*
X00706666Y00138330D01*
X00704000D01*
X00702667Y00139663D01*
Y00143662D01*
Y00140996D02*
X00700001Y00138330D01*
X00707999Y00130333D02*
Y00135665D01*
X00704000D01*
X00705333Y00132999D01*
Y00131666D01*
X00704000Y00130333D01*
X00701334D01*
X00700001Y00131666D01*
Y00134332D01*
X00701334Y00135665D01*
X00706666Y00127667D02*
X00707999Y00126334D01*
Y00123668D01*
X00706666Y00122336D01*
X00701334D01*
X00700001Y00123668D01*
Y00126334D01*
X00701334Y00127667D01*
X00706666D01*
X00707999Y00114338D02*
Y00119670D01*
X00704000D01*
X00705333Y00117004D01*
Y00115671D01*
X00704000Y00114338D01*
X00701334D01*
X00700001Y00115671D01*
Y00118337D01*
X00701334Y00119670D01*
X00567338Y00085001D02*
Y00092999D01*
X00571337D01*
X00572670Y00091666D01*
Y00089000D01*
X00571337Y00087667D01*
X00567338D01*
X00570004D02*
X00572670Y00085001D01*
X00580667D02*
X00575336D01*
X00580667Y00090333D01*
Y00091666D01*
X00579334Y00092999D01*
X00576668D01*
X00575336Y00091666D01*
X00583333Y00085001D02*
X00585999D01*
X00584666D01*
Y00092999D01*
X00583333Y00091666D01*
X00589997D02*
X00591330Y00092999D01*
X00593996D01*
X00595329Y00091666D01*
Y00086334D01*
X00593996Y00085001D01*
X00591330D01*
X00589997Y00086334D01*
Y00091666D01*
X00567338Y00071001D02*
Y00078999D01*
X00571337D01*
X00572670Y00077666D01*
Y00075000D01*
X00571337Y00073667D01*
X00567338D01*
X00570004D02*
X00572670Y00071001D01*
X00580667D02*
X00575336D01*
X00580667Y00076333D01*
Y00077666D01*
X00579334Y00078999D01*
X00576668D01*
X00575336Y00077666D01*
X00583333D02*
X00584666Y00078999D01*
X00587332D01*
X00588665Y00077666D01*
Y00072334D01*
X00587332Y00071001D01*
X00584666D01*
X00583333Y00072334D01*
Y00077666D01*
X00591330Y00072334D02*
X00592663Y00071001D01*
X00595329D01*
X00596662Y00072334D01*
Y00077666D01*
X00595329Y00078999D01*
X00592663D01*
X00591330Y00077666D01*
Y00076333D01*
X00592663Y00075000D01*
X00596662D01*
X00567338Y00057001D02*
Y00064999D01*
X00571337D01*
X00572670Y00063666D01*
Y00061000D01*
X00571337Y00059667D01*
X00567338D01*
X00570004D02*
X00572670Y00057001D01*
X00580667D02*
X00575336D01*
X00580667Y00062333D01*
Y00063666D01*
X00579334Y00064999D01*
X00576668D01*
X00575336Y00063666D01*
X00583333D02*
X00584666Y00064999D01*
X00587332D01*
X00588665Y00063666D01*
Y00058334D01*
X00587332Y00057001D01*
X00584666D01*
X00583333Y00058334D01*
Y00063666D01*
X00591330D02*
X00592663Y00064999D01*
X00595329D01*
X00596662Y00063666D01*
Y00062333D01*
X00595329Y00061000D01*
X00596662Y00059667D01*
Y00058334D01*
X00595329Y00057001D01*
X00592663D01*
X00591330Y00058334D01*
Y00059667D01*
X00592663Y00061000D01*
X00591330Y00062333D01*
Y00063666D01*
X00592663Y00061000D02*
X00595329D01*
X00567338Y00113001D02*
Y00120999D01*
X00571337D01*
X00572670Y00119666D01*
Y00117000D01*
X00571337Y00115667D01*
X00567338D01*
X00570004D02*
X00572670Y00113001D01*
X00580667D02*
X00575336D01*
X00580667Y00118333D01*
Y00119666D01*
X00579334Y00120999D01*
X00576668D01*
X00575336Y00119666D01*
X00583333D02*
X00584666Y00120999D01*
X00587332D01*
X00588665Y00119666D01*
Y00114334D01*
X00587332Y00113001D01*
X00584666D01*
X00583333Y00114334D01*
Y00119666D01*
X00591330Y00120999D02*
X00596662D01*
Y00119666D01*
X00591330Y00114334D01*
Y00113001D01*
X00081834Y00062997D02*
X00087166D01*
X00088499Y00064330D01*
Y00066996D01*
X00087166Y00068329D01*
X00081834D01*
X00080501Y00066996D01*
Y00064330D01*
X00083167Y00065663D02*
X00080501Y00062997D01*
Y00064330D02*
X00081834Y00062997D01*
X00088499Y00055000D02*
Y00060332D01*
X00084500D01*
X00085833Y00057666D01*
Y00056333D01*
X00084500Y00055000D01*
X00081834D01*
X00080501Y00056333D01*
Y00058999D01*
X00081834Y00060332D01*
X00087166Y00052334D02*
X00088499Y00051001D01*
Y00048335D01*
X00087166Y00047003D01*
X00081834D01*
X00080501Y00048335D01*
Y00051001D01*
X00081834Y00052334D01*
X00087166D01*
X00080501Y00044337D02*
Y00041671D01*
Y00043004D01*
X00088499D01*
X00087166Y00044337D01*
X00194003Y00032666D02*
X00192670Y00033999D01*
X00190004D01*
X00188671Y00032666D01*
Y00027334D01*
X00190004Y00026001D01*
X00192670D01*
X00194003Y00027334D01*
X00196668Y00032666D02*
X00198001Y00033999D01*
X00200667D01*
X00202000Y00032666D01*
Y00031333D01*
X00200667Y00030000D01*
X00199334D01*
X00200667D01*
X00202000Y00028667D01*
Y00027334D01*
X00200667Y00026001D01*
X00198001D01*
X00196668Y00027334D01*
X00204666Y00032666D02*
X00205999Y00033999D01*
X00208664D01*
X00209997Y00032666D01*
Y00027334D01*
X00208664Y00026001D01*
X00205999D01*
X00204666Y00027334D01*
Y00032666D01*
X00212663Y00026001D02*
X00215329D01*
X00213996D01*
Y00033999D01*
X00212663Y00032666D01*
X00572670Y00105666D02*
X00571337Y00106999D01*
X00568671D01*
X00567338Y00105666D01*
Y00100334D01*
X00568671Y00099001D01*
X00571337D01*
X00572670Y00100334D01*
X00580667Y00099001D02*
X00575336D01*
X00580667Y00104333D01*
Y00105666D01*
X00579334Y00106999D01*
X00576668D01*
X00575336Y00105666D01*
X00583333D02*
X00584666Y00106999D01*
X00587332D01*
X00588665Y00105666D01*
Y00100334D01*
X00587332Y00099001D01*
X00584666D01*
X00583333Y00100334D01*
Y00105666D01*
X00595329Y00099001D02*
Y00106999D01*
X00591330Y00103000D01*
X00596662D01*
X00496338Y00058001D02*
Y00065999D01*
X00500337D01*
X00501670Y00064666D01*
Y00062000D01*
X00500337Y00060667D01*
X00496338D01*
X00499004D02*
X00501670Y00058001D01*
X00509667D02*
X00504336D01*
X00509667Y00063333D01*
Y00064666D01*
X00508334Y00065999D01*
X00505668D01*
X00504336Y00064666D01*
X00512333D02*
X00513666Y00065999D01*
X00516332D01*
X00517664Y00064666D01*
Y00059334D01*
X00516332Y00058001D01*
X00513666D01*
X00512333Y00059334D01*
Y00064666D01*
X00525662Y00065999D02*
X00522996Y00064666D01*
X00520330Y00062000D01*
Y00059334D01*
X00521663Y00058001D01*
X00524329D01*
X00525662Y00059334D01*
Y00060667D01*
X00524329Y00062000D01*
X00520330D01*
X00701001Y00073662D02*
X00708999D01*
Y00069663D01*
X00707666Y00068330D01*
X00705000D01*
X00703667Y00069663D01*
Y00073662D01*
Y00070996D02*
X00701001Y00068330D01*
X00708999Y00060333D02*
Y00065665D01*
X00705000D01*
X00706333Y00062999D01*
Y00061666D01*
X00705000Y00060333D01*
X00702334D01*
X00701001Y00061666D01*
Y00064332D01*
X00702334Y00065665D01*
X00707666Y00057667D02*
X00708999Y00056334D01*
Y00053668D01*
X00707666Y00052336D01*
X00702334D01*
X00701001Y00053668D01*
Y00056334D01*
X00702334Y00057667D01*
X00707666D01*
X00701001Y00045671D02*
X00708999D01*
X00705000Y00049670D01*
Y00044338D01*
X00112001Y00175662D02*
X00119999D01*
Y00171663D01*
X00118666Y00170330D01*
X00116000D01*
X00114667Y00171663D01*
Y00175662D01*
Y00172996D02*
X00112001Y00170330D01*
X00119999Y00162333D02*
Y00167665D01*
X00116000D01*
X00117333Y00164999D01*
Y00163666D01*
X00116000Y00162333D01*
X00113334D01*
X00112001Y00163666D01*
Y00166332D01*
X00113334Y00167665D01*
X00118666Y00159667D02*
X00119999Y00158334D01*
Y00155668D01*
X00118666Y00154335D01*
X00113334D01*
X00112001Y00155668D01*
Y00158334D01*
X00113334Y00159667D01*
X00118666D01*
Y00151670D02*
X00119999Y00150337D01*
Y00147671D01*
X00118666Y00146338D01*
X00117333D01*
X00116000Y00147671D01*
Y00149004D01*
Y00147671D01*
X00114667Y00146338D01*
X00113334D01*
X00112001Y00147671D01*
Y00150337D01*
X00113334Y00151670D01*
X00462338Y00058001D02*
Y00065999D01*
X00466337D01*
X00467670Y00064666D01*
Y00062000D01*
X00466337Y00060667D01*
X00462338D01*
X00465004D02*
X00467670Y00058001D01*
X00475667D02*
X00470336D01*
X00475667Y00063333D01*
Y00064666D01*
X00474334Y00065999D01*
X00471668D01*
X00470336Y00064666D01*
X00478333D02*
X00479666Y00065999D01*
X00482332D01*
X00483665Y00064666D01*
Y00059334D01*
X00482332Y00058001D01*
X00479666D01*
X00478333Y00059334D01*
Y00064666D01*
X00491662Y00065999D02*
X00486330D01*
Y00062000D01*
X00488996Y00063333D01*
X00490329D01*
X00491662Y00062000D01*
Y00059334D01*
X00490329Y00058001D01*
X00487663D01*
X00486330Y00059334D01*
X00429338Y00058001D02*
Y00065999D01*
X00433337D01*
X00434670Y00064666D01*
Y00062000D01*
X00433337Y00060667D01*
X00429338D01*
X00432004D02*
X00434670Y00058001D01*
X00442667D02*
X00437336D01*
X00442667Y00063333D01*
Y00064666D01*
X00441334Y00065999D01*
X00438668D01*
X00437336Y00064666D01*
X00445333D02*
X00446666Y00065999D01*
X00449332D01*
X00450664Y00064666D01*
Y00059334D01*
X00449332Y00058001D01*
X00446666D01*
X00445333Y00059334D01*
Y00064666D01*
X00457329Y00058001D02*
Y00065999D01*
X00453330Y00062000D01*
X00458662D01*
X00395338Y00058001D02*
Y00065999D01*
X00399337D01*
X00400670Y00064666D01*
Y00062000D01*
X00399337Y00060667D01*
X00395338D01*
X00398004D02*
X00400670Y00058001D01*
X00408667D02*
X00403335D01*
X00408667Y00063333D01*
Y00064666D01*
X00407334Y00065999D01*
X00404668D01*
X00403335Y00064666D01*
X00411333D02*
X00412666Y00065999D01*
X00415332D01*
X00416665Y00064666D01*
Y00059334D01*
X00415332Y00058001D01*
X00412666D01*
X00411333Y00059334D01*
Y00064666D01*
X00419330D02*
X00420663Y00065999D01*
X00423329D01*
X00424662Y00064666D01*
Y00063333D01*
X00423329Y00062000D01*
X00421996D01*
X00423329D01*
X00424662Y00060667D01*
Y00059334D01*
X00423329Y00058001D01*
X00420663D01*
X00419330Y00059334D01*
X00628671Y00037666D02*
X00627338Y00038999D01*
X00624672D01*
X00623339Y00037666D01*
Y00032334D01*
X00624672Y00031001D01*
X00627338D01*
X00628671Y00032334D01*
X00631337Y00031001D02*
Y00038999D01*
X00635336D01*
X00636668Y00037666D01*
Y00035000D01*
X00635336Y00033667D01*
X00631337D01*
X00634003D02*
X00636668Y00031001D01*
X00644666D02*
X00639334D01*
X00644666Y00036333D01*
Y00037666D01*
X00643333Y00038999D01*
X00640667D01*
X00639334Y00037666D01*
X00647332D02*
X00648664Y00038999D01*
X00651330D01*
X00652663Y00037666D01*
Y00032334D01*
X00651330Y00031001D01*
X00648664D01*
X00647332Y00032334D01*
Y00037666D01*
X00660661Y00031001D02*
X00655329D01*
X00660661Y00036333D01*
Y00037666D01*
X00659328Y00038999D01*
X00656662D01*
X00655329Y00037666D01*
X00628671Y00049666D02*
X00627338Y00050999D01*
X00624672D01*
X00623339Y00049666D01*
Y00044334D01*
X00624672Y00043001D01*
X00627338D01*
X00628671Y00044334D01*
X00631337Y00043001D02*
Y00050999D01*
X00635336D01*
X00636668Y00049666D01*
Y00047000D01*
X00635336Y00045667D01*
X00631337D01*
X00634003D02*
X00636668Y00043001D01*
X00644666D02*
X00639334D01*
X00644666Y00048333D01*
Y00049666D01*
X00643333Y00050999D01*
X00640667D01*
X00639334Y00049666D01*
X00647332D02*
X00648664Y00050999D01*
X00651330D01*
X00652663Y00049666D01*
Y00044334D01*
X00651330Y00043001D01*
X00648664D01*
X00647332Y00044334D01*
Y00049666D01*
X00655329Y00043001D02*
X00657995D01*
X00656662D01*
Y00050999D01*
X00655329Y00049666D01*
X00721666Y00068330D02*
X00722999Y00069663D01*
Y00072329D01*
X00721666Y00073662D01*
X00716334D01*
X00715001Y00072329D01*
Y00069663D01*
X00716334Y00068330D01*
X00722999Y00060333D02*
Y00065665D01*
X00719000D01*
X00720333Y00062999D01*
Y00061666D01*
X00719000Y00060333D01*
X00716334D01*
X00715001Y00061666D01*
Y00064332D01*
X00716334Y00065665D01*
X00721666Y00057667D02*
X00722999Y00056334D01*
Y00053668D01*
X00721666Y00052336D01*
X00716334D01*
X00715001Y00053668D01*
Y00056334D01*
X00716334Y00057667D01*
X00721666D01*
X00715001Y00044338D02*
Y00049670D01*
X00720333Y00044338D01*
X00721666D01*
X00722999Y00045671D01*
Y00048337D01*
X00721666Y00049670D01*
X00104666Y00169997D02*
X00105999Y00171330D01*
Y00173996D01*
X00104666Y00175329D01*
X00099334D01*
X00098001Y00173996D01*
Y00171330D01*
X00099334Y00169997D01*
X00105999Y00162000D02*
Y00167332D01*
X00102000D01*
X00103333Y00164666D01*
Y00163333D01*
X00102000Y00162000D01*
X00099334D01*
X00098001Y00163333D01*
Y00165999D01*
X00099334Y00167332D01*
X00104666Y00159334D02*
X00105999Y00158001D01*
Y00155336D01*
X00104666Y00154003D01*
X00099334D01*
X00098001Y00155336D01*
Y00158001D01*
X00099334Y00159334D01*
X00104666D01*
X00098001Y00151337D02*
Y00148671D01*
Y00150004D01*
X00105999D01*
X00104666Y00151337D01*
X00432670Y00173666D02*
X00431337Y00174999D01*
X00428671D01*
X00427338Y00173666D01*
Y00168334D01*
X00428671Y00167001D01*
X00431337D01*
X00432670Y00168334D01*
X00439334Y00167001D02*
Y00174999D01*
X00435336Y00171000D01*
X00440667D01*
X00443333Y00173666D02*
X00444666Y00174999D01*
X00447332D01*
X00448665Y00173666D01*
Y00168334D01*
X00447332Y00167001D01*
X00444666D01*
X00443333Y00168334D01*
Y00173666D01*
X00451330D02*
X00452663Y00174999D01*
X00455329D01*
X00456662Y00173666D01*
Y00172333D01*
X00455329Y00171000D01*
X00453996D01*
X00455329D01*
X00456662Y00169667D01*
Y00168334D01*
X00455329Y00167001D01*
X00452663D01*
X00451330Y00168334D01*
X00437999Y00158662D02*
X00431334D01*
X00430001Y00157329D01*
Y00154663D01*
X00431334Y00153330D01*
X00437999D01*
X00430001Y00146666D02*
X00437999D01*
X00434000Y00150665D01*
Y00145333D01*
X00436666Y00142667D02*
X00437999Y00141334D01*
Y00138668D01*
X00436666Y00137336D01*
X00431334D01*
X00430001Y00138668D01*
Y00141334D01*
X00431334Y00142667D01*
X00436666D01*
X00430001Y00129338D02*
Y00134670D01*
X00435333Y00129338D01*
X00436666D01*
X00437999Y00130671D01*
Y00133337D01*
X00436666Y00134670D01*
X00560671Y00173999D02*
Y00167334D01*
X00562004Y00166001D01*
X00564670D01*
X00566003Y00167334D01*
Y00173999D01*
X00572667Y00166001D02*
Y00173999D01*
X00568668Y00170000D01*
X00574000D01*
X00576666Y00172666D02*
X00577999Y00173999D01*
X00580664D01*
X00581997Y00172666D01*
Y00167334D01*
X00580664Y00166001D01*
X00577999D01*
X00576666Y00167334D01*
Y00172666D01*
X00584663Y00166001D02*
X00587329D01*
X00585996D01*
Y00173999D01*
X00584663Y00172666D01*
X00094338Y00014001D02*
Y00021999D01*
X00098337D01*
X00099670Y00020666D01*
Y00018000D01*
X00098337Y00016667D01*
X00094338D01*
X00097004D02*
X00099670Y00014001D01*
X00107667Y00021999D02*
X00102336D01*
Y00018000D01*
X00105001Y00019333D01*
X00106334D01*
X00107667Y00018000D01*
Y00015334D01*
X00106334Y00014001D01*
X00103668D01*
X00102336Y00015334D01*
X00110333Y00020666D02*
X00111666Y00021999D01*
X00114332D01*
X00115665Y00020666D01*
Y00015334D01*
X00114332Y00014001D01*
X00111666D01*
X00110333Y00015334D01*
Y00020666D01*
X00123662Y00014001D02*
X00118330D01*
X00123662Y00019333D01*
Y00020666D01*
X00122329Y00021999D01*
X00119663D01*
X00118330Y00020666D01*
X00095671Y00097001D02*
Y00104999D01*
X00099670D01*
X00101003Y00103666D01*
Y00101000D01*
X00099670Y00099667D01*
X00095671D01*
X00098337D02*
X00101003Y00097001D01*
X00109000Y00104999D02*
X00103668D01*
Y00101000D01*
X00106334Y00102333D01*
X00107667D01*
X00109000Y00101000D01*
Y00098334D01*
X00107667Y00097001D01*
X00105001D01*
X00103668Y00098334D01*
X00111666Y00103666D02*
X00112999Y00104999D01*
X00115665D01*
X00116997Y00103666D01*
Y00098334D01*
X00115665Y00097001D01*
X00112999D01*
X00111666Y00098334D01*
Y00103666D01*
X00119663Y00097001D02*
X00122329D01*
X00120996D01*
Y00104999D01*
X00119663Y00103666D01*
X00399338Y00098001D02*
Y00105999D01*
X00403337D01*
X00404670Y00104666D01*
Y00102000D01*
X00403337Y00100667D01*
X00399338D01*
X00402004D02*
X00404670Y00098001D01*
X00411334D02*
Y00105999D01*
X00407336Y00102000D01*
X00412667D01*
X00415333Y00104666D02*
X00416666Y00105999D01*
X00419332D01*
X00420664Y00104666D01*
Y00099334D01*
X00419332Y00098001D01*
X00416666D01*
X00415333Y00099334D01*
Y00104666D01*
X00428662Y00105999D02*
X00425996Y00104666D01*
X00423330Y00102000D01*
Y00099334D01*
X00424663Y00098001D01*
X00427329D01*
X00428662Y00099334D01*
Y00100667D01*
X00427329Y00102000D01*
X00423330D01*
X00373001Y00105662D02*
X00380999D01*
Y00101663D01*
X00379666Y00100330D01*
X00377000D01*
X00375667Y00101663D01*
Y00105662D01*
Y00102996D02*
X00373001Y00100330D01*
Y00093666D02*
X00380999D01*
X00377000Y00097664D01*
Y00092333D01*
X00379666Y00089667D02*
X00380999Y00088334D01*
Y00085668D01*
X00379666Y00084335D01*
X00374334D01*
X00373001Y00085668D01*
Y00088334D01*
X00374334Y00089667D01*
X00379666D01*
X00380999Y00076338D02*
Y00081670D01*
X00377000D01*
X00378333Y00079004D01*
Y00077671D01*
X00377000Y00076338D01*
X00374334D01*
X00373001Y00077671D01*
Y00080337D01*
X00374334Y00081670D01*
X00731341Y00072999D02*
Y00065001D01*
X00736672D01*
X00744670Y00072999D02*
X00739338D01*
Y00065001D01*
X00744670D01*
X00739338Y00069000D02*
X00742004D01*
X00747336Y00072999D02*
Y00065001D01*
X00751334D01*
X00752667Y00066334D01*
Y00071666D01*
X00751334Y00072999D01*
X00747336D01*
X00760665D02*
X00755333D01*
Y00069000D01*
X00757999Y00070333D01*
X00759332D01*
X00760665Y00069000D01*
Y00066334D01*
X00759332Y00065001D01*
X00756666D01*
X00755333Y00066334D01*
X00763330Y00071666D02*
X00764663Y00072999D01*
X00767329D01*
X00768662Y00071666D01*
Y00066334D01*
X00767329Y00065001D01*
X00764663D01*
X00763330Y00066334D01*
Y00071666D01*
X00776659Y00065001D02*
X00771328D01*
X00776659Y00070333D01*
Y00071666D01*
X00775327Y00072999D01*
X00772661D01*
X00771328Y00071666D01*
X00043674Y00154999D02*
Y00147001D01*
X00049005D01*
X00057003Y00154999D02*
X00051671D01*
Y00147001D01*
X00057003D01*
X00051671Y00151000D02*
X00054337D01*
X00059668Y00154999D02*
Y00147001D01*
X00063667D01*
X00065000Y00148334D01*
Y00153666D01*
X00063667Y00154999D01*
X00059668D01*
X00072997D02*
X00067666D01*
Y00151000D01*
X00070332Y00152333D01*
X00071665D01*
X00072997Y00151000D01*
Y00148334D01*
X00071665Y00147001D01*
X00068999D01*
X00067666Y00148334D01*
X00075663Y00153666D02*
X00076996Y00154999D01*
X00079662D01*
X00080995Y00153666D01*
Y00148334D01*
X00079662Y00147001D01*
X00076996D01*
X00075663Y00148334D01*
Y00153666D01*
X00083661Y00147001D02*
X00086326D01*
X00084994D01*
Y00154999D01*
X00083661Y00153666D01*
X00396019Y00035997D02*
Y00038663D01*
Y00037330D01*
X00389354D01*
X00388021Y00038663D01*
Y00039996D01*
X00389354Y00041329D01*
X00388021Y00028000D02*
Y00033332D01*
X00393353Y00028000D01*
X00394686D01*
X00396019Y00029333D01*
Y00031999D01*
X00394686Y00033332D01*
Y00025334D02*
X00396019Y00024001D01*
Y00021335D01*
X00394686Y00020003D01*
X00389354D01*
X00388021Y00021335D01*
Y00024001D01*
X00389354Y00025334D01*
X00394686D01*
X00388021Y00017337D02*
Y00014671D01*
Y00016004D01*
X00396019D01*
X00394686Y00017337D01*
X00393666Y00100330D02*
X00394999Y00101663D01*
Y00104329D01*
X00393666Y00105662D01*
X00388334D01*
X00387001Y00104329D01*
Y00101663D01*
X00388334Y00100330D01*
X00387001Y00093666D02*
X00394999D01*
X00391000Y00097664D01*
Y00092333D01*
X00393666Y00089667D02*
X00394999Y00088334D01*
Y00085668D01*
X00393666Y00084335D01*
X00388334D01*
X00387001Y00085668D01*
Y00088334D01*
X00388334Y00089667D01*
X00393666D01*
X00387001Y00076338D02*
Y00081670D01*
X00392333Y00076338D01*
X00393666D01*
X00394999Y00077671D01*
Y00080337D01*
X00393666Y00081670D01*
D13*
X00730000Y00084980D02*
Y00134980D01*
Y00084980D02*
X00730500D01*
X00730000Y00134980D02*
X00730500D01*
X00780000Y00084980D02*
Y00134980D01*
X00779500Y00084980D02*
X00780000D01*
X00779500Y00134980D02*
X00780000D01*
X00747000D02*
X00763000D01*
X00747000Y00084980D02*
X00763000D01*
X00040000Y00085020D02*
Y00135020D01*
X00090000Y00085020D02*
Y00135020D01*
X00089500Y00085020D02*
X00090000D01*
X00089500Y00135020D02*
X00090000D01*
X00040000D02*
X00040500D01*
X00040000Y00085020D02*
X00040500D01*
X00057000D02*
X00073000D01*
X00057000Y00135020D02*
X00073000D01*
M02*
