G04*
G04 #@! TF.GenerationSoftware,Altium Limited,Altium Designer,22.1.2 (22)*
G04*
G04 Layer_Color=8421504*
%FSAX44Y44*%
%MOMM*%
G71*
G04*
G04 #@! TF.SameCoordinates,85A146D6-B946-4844-9BAA-ECA2B8BB7C66*
G04*
G04*
G04 #@! TF.FilePolarity,Positive*
G04*
G01*
G75*
%ADD14R,0.8000X0.8000*%
%ADD15R,0.8000X0.9500*%
%ADD16R,0.8000X0.8000*%
%ADD17O,0.9000X1.5000*%
%ADD18R,0.9000X1.5000*%
%ADD19R,0.2500X0.5500*%
G04:AMPARAMS|DCode=20|XSize=0.3mm|YSize=0.55mm|CornerRadius=0.075mm|HoleSize=0mm|Usage=FLASHONLY|Rotation=0.000|XOffset=0mm|YOffset=0mm|HoleType=Round|Shape=RoundedRectangle|*
%AMROUNDEDRECTD20*
21,1,0.3000,0.4000,0,0,0.0*
21,1,0.1500,0.5500,0,0,0.0*
1,1,0.1500,0.0750,-0.2000*
1,1,0.1500,-0.0750,-0.2000*
1,1,0.1500,-0.0750,0.2000*
1,1,0.1500,0.0750,0.2000*
%
%ADD20ROUNDEDRECTD20*%
%ADD21R,0.3000X0.8000*%
%ADD22R,0.8000X0.3000*%
G04:AMPARAMS|DCode=23|XSize=0.3mm|YSize=0.8mm|CornerRadius=0.075mm|HoleSize=0mm|Usage=FLASHONLY|Rotation=270.000|XOffset=0mm|YOffset=0mm|HoleType=Round|Shape=RoundedRectangle|*
%AMROUNDEDRECTD23*
21,1,0.3000,0.6500,0,0,270.0*
21,1,0.1500,0.8000,0,0,270.0*
1,1,0.1500,-0.3250,-0.0750*
1,1,0.1500,-0.3250,0.0750*
1,1,0.1500,0.3250,0.0750*
1,1,0.1500,0.3250,-0.0750*
%
%ADD23ROUNDEDRECTD23*%
%ADD24R,7.3000X9.6000*%
%ADD25R,1.4000X0.8000*%
G04:AMPARAMS|DCode=26|XSize=1.5mm|YSize=2.2mm|CornerRadius=0.375mm|HoleSize=0mm|Usage=FLASHONLY|Rotation=180.000|XOffset=0mm|YOffset=0mm|HoleType=Round|Shape=RoundedRectangle|*
%AMROUNDEDRECTD26*
21,1,1.5000,1.4500,0,0,180.0*
21,1,0.7500,2.2000,0,0,180.0*
1,1,0.7500,-0.3750,0.7250*
1,1,0.7500,0.3750,0.7250*
1,1,0.7500,0.3750,-0.7250*
1,1,0.7500,-0.3750,-0.7250*
%
%ADD26ROUNDEDRECTD26*%
%ADD27R,1.5000X2.2000*%
G04:AMPARAMS|DCode=28|XSize=1.5mm|YSize=0.9mm|CornerRadius=0.225mm|HoleSize=0mm|Usage=FLASHONLY|Rotation=90.000|XOffset=0mm|YOffset=0mm|HoleType=Round|Shape=RoundedRectangle|*
%AMROUNDEDRECTD28*
21,1,1.5000,0.4500,0,0,90.0*
21,1,1.0500,0.9000,0,0,90.0*
1,1,0.4500,0.2250,0.5250*
1,1,0.4500,0.2250,-0.5250*
1,1,0.4500,-0.2250,-0.5250*
1,1,0.4500,-0.2250,0.5250*
%
%ADD28ROUNDEDRECTD28*%
G04:AMPARAMS|DCode=29|XSize=1.5mm|YSize=1.5mm|CornerRadius=0.375mm|HoleSize=0mm|Usage=FLASHONLY|Rotation=90.000|XOffset=0mm|YOffset=0mm|HoleType=Round|Shape=RoundedRectangle|*
%AMROUNDEDRECTD29*
21,1,1.5000,0.7500,0,0,90.0*
21,1,0.7500,1.5000,0,0,90.0*
1,1,0.7500,0.3750,0.3750*
1,1,0.7500,0.3750,-0.3750*
1,1,0.7500,-0.3750,-0.3750*
1,1,0.7500,-0.3750,0.3750*
%
%ADD29ROUNDEDRECTD29*%
%ADD30C,1.5000*%
D14*
X00100750Y00085000D02*
D03*
X00117250D02*
D03*
X00100750Y00033000D02*
D03*
X00117250Y00033000D02*
D03*
X00554250Y00103000D02*
D03*
X00537750D02*
D03*
X00537750Y00117000D02*
D03*
X00554250D02*
D03*
X00554250Y00089000D02*
D03*
X00537750Y00089000D02*
D03*
X00554250Y00061000D02*
D03*
X00537750D02*
D03*
X00554250Y00075000D02*
D03*
X00537750D02*
D03*
X00405750Y00117000D02*
D03*
X00422250D02*
D03*
X00398750Y00171000D02*
D03*
X00415250D02*
D03*
X00515500Y00047000D02*
D03*
X00532000D02*
D03*
X00466750Y00132000D02*
D03*
X00483250D02*
D03*
X00419750Y00047000D02*
D03*
X00468250Y00047000D02*
D03*
X00451750D02*
D03*
X00436250Y00047000D02*
D03*
X00500250Y00047000D02*
D03*
X00483750D02*
D03*
D15*
X00118500Y00049000D02*
D03*
X00109000Y00069000D02*
D03*
X00099500Y00049000D02*
D03*
X00604000Y00044000D02*
D03*
X00594500Y00024000D02*
D03*
X00613500D02*
D03*
X00579500D02*
D03*
X00570000Y00044000D02*
D03*
X00560500Y00024000D02*
D03*
D16*
X00102000Y00117750D02*
D03*
Y00134250D02*
D03*
X00116000D02*
D03*
Y00117750D02*
D03*
X00719000Y00134250D02*
D03*
Y00117750D02*
D03*
X00719000Y00085750D02*
D03*
Y00102250D02*
D03*
X00391000Y00134250D02*
D03*
X00391000Y00117750D02*
D03*
X00377000D02*
D03*
Y00134250D02*
D03*
X00705000Y00102250D02*
D03*
Y00085750D02*
D03*
D17*
X00771500Y00134480D02*
D03*
D18*
X00738500D02*
D03*
Y00085480D02*
D03*
X00771500D02*
D03*
X00081500Y00085520D02*
D03*
Y00134520D02*
D03*
X00048500D02*
D03*
D19*
X00403000Y00130250D02*
D03*
X00408000Y00130250D02*
D03*
X00413000Y00130250D02*
D03*
X00403000Y00157750D02*
D03*
X00408000D02*
D03*
D20*
X00413250D02*
D03*
D21*
X00575000Y00154500D02*
D03*
Y00135500D02*
D03*
D22*
X00584500Y00152500D02*
D03*
Y00137500D02*
D03*
Y00142500D02*
D03*
Y00147500D02*
D03*
X00565500Y00137500D02*
D03*
Y00142500D02*
D03*
Y00147500D02*
D03*
D23*
Y00152500D02*
D03*
D24*
X00329000Y00114000D02*
D03*
D25*
X00201000Y00045000D02*
D03*
Y00065000D02*
D03*
D26*
X00491500Y00110000D02*
D03*
D27*
X00460500D02*
D03*
D28*
X00048500Y00085520D02*
D03*
D29*
X00412500Y00028000D02*
D03*
D30*
X00437900D02*
D03*
X00463300D02*
D03*
X00488700D02*
D03*
X00514100D02*
D03*
X00539500D02*
D03*
M02*
