G04*
G04 #@! TF.GenerationSoftware,Altium Limited,Altium Designer,22.1.2 (22)*
G04*
G04 Layer_Color=16711935*
%FSAX44Y44*%
%MOMM*%
G71*
G04*
G04 #@! TF.SameCoordinates,85A146D6-B946-4844-9BAA-ECA2B8BB7C66*
G04*
G04*
G04 #@! TF.FilePolarity,Negative*
G04*
G01*
G75*
%ADD31R,0.9000X0.9000*%
%ADD33R,0.9000X0.9000*%
%ADD42R,1.5000X0.9000*%
%ADD47C,1.6000*%
%ADD48C,2.1000*%
%ADD49R,2.1000X2.1000*%
%ADD50R,1.6000X1.6000*%
%ADD69R,0.7000X1.6500*%
G04:AMPARAMS|DCode=70|XSize=1.65mm|YSize=0.7mm|CornerRadius=0.2mm|HoleSize=0mm|Usage=FLASHONLY|Rotation=270.000|XOffset=0mm|YOffset=0mm|HoleType=Round|Shape=RoundedRectangle|*
%AMROUNDEDRECTD70*
21,1,1.6500,0.3000,0,0,270.0*
21,1,1.2500,0.7000,0,0,270.0*
1,1,0.4000,-0.1500,-0.6250*
1,1,0.4000,-0.1500,0.6250*
1,1,0.4000,0.1500,0.6250*
1,1,0.4000,0.1500,-0.6250*
%
%ADD70ROUNDEDRECTD70*%
%ADD71R,0.7000X0.9000*%
%ADD72R,0.9000X1.5000*%
%ADD73R,1.4500X0.5000*%
G04:AMPARAMS|DCode=74|XSize=1.45mm|YSize=0.5mm|CornerRadius=0.15mm|HoleSize=0mm|Usage=FLASHONLY|Rotation=180.000|XOffset=0mm|YOffset=0mm|HoleType=Round|Shape=RoundedRectangle|*
%AMROUNDEDRECTD74*
21,1,1.4500,0.2000,0,0,180.0*
21,1,1.1500,0.5000,0,0,180.0*
1,1,0.3000,-0.5750,0.1000*
1,1,0.3000,0.5750,0.1000*
1,1,0.3000,0.5750,-0.1000*
1,1,0.3000,-0.5750,-0.1000*
%
%ADD74ROUNDEDRECTD74*%
%ADD75R,2.0000X0.7000*%
%ADD76R,2.0000X0.5000*%
D31*
X00550750Y00132000D02*
D03*
X00567250D02*
D03*
X00550750Y00146000D02*
D03*
X00567250Y00146000D02*
D03*
X00599250Y00146000D02*
D03*
X00582750D02*
D03*
X00550750Y00160000D02*
D03*
X00567250D02*
D03*
X00305500Y00071000D02*
D03*
X00322000D02*
D03*
X00354250D02*
D03*
X00337750D02*
D03*
X00599250Y00160000D02*
D03*
X00582750D02*
D03*
X00328750Y00057000D02*
D03*
X00345250D02*
D03*
X00553250Y00070000D02*
D03*
X00536750Y00070000D02*
D03*
X00507250Y00122000D02*
D03*
X00490750D02*
D03*
X00507250Y00136000D02*
D03*
X00490750D02*
D03*
D33*
X00351000Y00087750D02*
D03*
Y00104250D02*
D03*
X00351000Y00127750D02*
D03*
Y00144250D02*
D03*
X00287000Y00087750D02*
D03*
Y00104250D02*
D03*
X00273000Y00140250D02*
D03*
Y00123750D02*
D03*
X00287000Y00127750D02*
D03*
X00287000Y00144250D02*
D03*
X00273000Y00091750D02*
D03*
X00273000Y00108250D02*
D03*
X00417000Y00064750D02*
D03*
Y00081250D02*
D03*
D42*
X00400000Y00082000D02*
D03*
Y00062000D02*
D03*
D47*
X00228000Y00138000D02*
D03*
Y00118000D02*
D03*
Y00078000D02*
D03*
Y00098000D02*
D03*
D48*
X00329000Y00036000D02*
D03*
X00354400D02*
D03*
D49*
X00303600D02*
D03*
D50*
X00228000Y00058000D02*
D03*
D69*
X00338050Y00143000D02*
D03*
X00325350D02*
D03*
X00312650Y00143000D02*
D03*
X00338050Y00089000D02*
D03*
X00325350Y00089000D02*
D03*
X00312650Y00089000D02*
D03*
X00299950D02*
D03*
D70*
X00299950Y00143000D02*
D03*
D71*
X00359000Y00057000D02*
D03*
X00373000D02*
D03*
D72*
X00556000Y00053000D02*
D03*
X00536000D02*
D03*
D73*
X00447250Y00063750D02*
D03*
Y00057250D02*
D03*
Y00109250D02*
D03*
Y00102750D02*
D03*
Y00096250D02*
D03*
Y00089750D02*
D03*
Y00083250D02*
D03*
Y00076750D02*
D03*
Y00070250D02*
D03*
Y00050750D02*
D03*
X00504750Y00063750D02*
D03*
Y00057250D02*
D03*
Y00102750D02*
D03*
Y00096250D02*
D03*
Y00089750D02*
D03*
Y00083250D02*
D03*
Y00076750D02*
D03*
Y00070250D02*
D03*
Y00050750D02*
D03*
D74*
Y00109250D02*
D03*
D75*
X00538000Y00114500D02*
D03*
Y00095500D02*
D03*
D76*
Y00105000D02*
D03*
M02*
