G04*
G04 #@! TF.GenerationSoftware,Altium Limited,Altium Designer,22.1.2 (22)*
G04*
G04 Layer_Color=32896*
%FSAX44Y44*%
%MOMM*%
G71*
G04*
G04 #@! TF.SameCoordinates,85A146D6-B946-4844-9BAA-ECA2B8BB7C66*
G04*
G04*
G04 #@! TF.FilePolarity,Positive*
G04*
G01*
G75*
%ADD12C,0.1530*%
%ADD77C,0.1540*%
D12*
X00358000Y00078000D02*
Y00080000D01*
X00344000Y00078000D02*
Y00080000D01*
Y00079000D02*
X00358000D01*
X00543000Y00125000D02*
Y00139000D01*
X00575000D01*
Y00125000D02*
Y00139000D01*
X00543000Y00125000D02*
X00575000D01*
X00543000Y00139000D02*
Y00153000D01*
X00575000D01*
X00575000Y00139000D01*
X00543000D02*
X00575000D01*
X00607000D02*
Y00153000D01*
X00575000Y00139000D02*
X00607000D01*
X00575000D02*
Y00153000D01*
X00607000D01*
X00543000Y00153000D02*
X00543000Y00167000D01*
X00575000D01*
Y00153000D02*
Y00167000D01*
X00543000Y00153000D02*
X00575000Y00153000D01*
X00297750Y00064000D02*
Y00078000D01*
X00329750D01*
Y00064000D02*
Y00078000D01*
X00297750Y00064000D02*
X00329750D01*
X00330000D02*
X00362000D01*
Y00078000D01*
X00330000D02*
X00362000D01*
X00330000Y00064000D02*
Y00078000D01*
X00607000Y00153000D02*
Y00167000D01*
X00575000Y00153000D02*
X00607000D01*
X00575000D02*
Y00167000D01*
X00607000D01*
X00344000Y00080000D02*
Y00112000D01*
Y00080000D02*
X00358000Y00080000D01*
Y00112000D01*
X00344000D02*
X00358000D01*
X00294000Y00100000D02*
X00294000Y00132000D01*
X00344000Y00132000D02*
X00344000Y00100000D01*
X00294000Y00132000D02*
X00344000Y00132000D01*
X00294000Y00100000D02*
X00344000D01*
X00344000Y00120000D02*
X00358000D01*
X00344000D02*
Y00152000D01*
X00358000Y00152000D01*
X00358000Y00120000D01*
X00280000Y00080000D02*
Y00112000D01*
Y00080000D02*
X00294000Y00080000D01*
Y00112000D01*
X00280000D02*
X00294000D01*
X00280000Y00148000D02*
X00280000Y00116000D01*
X00266000Y00148000D02*
X00280000Y00148000D01*
X00266000Y00116000D02*
Y00148000D01*
Y00116000D02*
X00280000Y00116000D01*
X00280000Y00120000D02*
X00294000Y00120000D01*
X00280000Y00152000D02*
X00280000Y00120000D01*
X00280000Y00152000D02*
X00294000D01*
Y00120000D02*
Y00152000D01*
X00266000Y00084000D02*
Y00116000D01*
Y00084000D02*
X00280000Y00084000D01*
Y00116000D01*
X00266000Y00116000D02*
X00280000Y00116000D01*
X00353000Y00050000D02*
X00379000D01*
X00353000D02*
Y00064000D01*
X00379000Y00050000D02*
Y00064000D01*
X00353000D02*
X00379000D01*
X00321000Y00050000D02*
Y00064000D01*
X00353000D01*
Y00050000D02*
Y00064000D01*
X00321000Y00050000D02*
X00353000D01*
X00561000Y00063000D02*
Y00077000D01*
X00529000Y00063000D02*
X00561000Y00063000D01*
X00529000Y00077000D02*
X00529000Y00063000D01*
X00529000Y00077000D02*
X00561000D01*
X00529000Y00043000D02*
X00563000D01*
X00529000D02*
Y00063000D01*
X00563000D01*
Y00043000D02*
Y00063000D01*
X00211000Y00038000D02*
Y00158000D01*
X00256000Y00158000D01*
X00256000Y00038000D01*
X00211000Y00038000D02*
X00256000Y00038000D01*
X00390000Y00055000D02*
X00410000D01*
Y00089000D01*
X00390000D02*
X00410000D01*
X00390000Y00055000D02*
Y00089000D01*
X00437000Y00045000D02*
Y00115000D01*
X00515000D01*
Y00045000D02*
Y00115000D01*
X00437000Y00045000D02*
X00515000D01*
X00515000Y00115000D02*
Y00129000D01*
X00483000Y00115000D02*
X00515000D01*
X00483000D02*
Y00129000D01*
X00515000D01*
Y00129000D02*
Y00143000D01*
X00483000Y00129000D02*
X00515000D01*
X00483000D02*
Y00143000D01*
X00515000D01*
X00525000Y00087000D02*
X00551000D01*
Y00123000D01*
X00525000D02*
X00551000D01*
X00525000Y00087000D02*
Y00123000D01*
X00410000Y00057000D02*
X00424000D01*
X00410000D02*
Y00089000D01*
X00424000D01*
Y00057000D02*
Y00089000D01*
X00301470Y00157470D02*
X00300137D01*
Y00156137D01*
X00301470D01*
Y00157470D01*
X00202334Y00057667D02*
Y00056333D01*
X00203666D01*
Y00057667D01*
X00202334D01*
X00520470Y00115530D02*
Y00116863D01*
X00519137D01*
Y00115530D01*
X00520470D01*
X00291329Y00018999D02*
Y00011001D01*
X00285997D01*
X00279333D02*
Y00018999D01*
X00283332Y00015000D01*
X00278000D01*
X00275334Y00017666D02*
X00274001Y00018999D01*
X00271336D01*
X00270003Y00017666D01*
Y00012334D01*
X00271336Y00011001D01*
X00274001D01*
X00275334Y00012334D01*
Y00017666D01*
X00267337Y00011001D02*
X00264671D01*
X00266004D01*
Y00018999D01*
X00267337Y00017666D01*
X00253330D02*
X00254663Y00018999D01*
X00257329D01*
X00258662Y00017666D01*
Y00012334D01*
X00257329Y00011001D01*
X00254663D01*
X00253330Y00012334D01*
X00246666Y00011001D02*
Y00018999D01*
X00250665Y00015000D01*
X00245333D01*
X00242667Y00017666D02*
X00241334Y00018999D01*
X00238668D01*
X00237335Y00017666D01*
Y00012334D01*
X00238668Y00011001D01*
X00241334D01*
X00242667Y00012334D01*
Y00017666D01*
X00230671Y00011001D02*
Y00018999D01*
X00234670Y00015000D01*
X00229338D01*
X00593330Y00073666D02*
X00594663Y00074999D01*
X00597329D01*
X00598662Y00073666D01*
Y00068334D01*
X00597329Y00067001D01*
X00594663D01*
X00593330Y00068334D01*
X00585333Y00067001D02*
X00590664D01*
X00585333Y00072333D01*
Y00073666D01*
X00586666Y00074999D01*
X00589332D01*
X00590664Y00073666D01*
X00582667D02*
X00581334Y00074999D01*
X00578668D01*
X00577336Y00073666D01*
Y00068334D01*
X00578668Y00067001D01*
X00581334D01*
X00582667Y00068334D01*
Y00073666D01*
X00569338Y00074999D02*
X00574670D01*
Y00071000D01*
X00572004Y00072333D01*
X00570671D01*
X00569338Y00071000D01*
Y00068334D01*
X00570671Y00067001D01*
X00573337D01*
X00574670Y00068334D01*
X00241997Y00169999D02*
X00244663D01*
X00243330D01*
Y00163334D01*
X00244663Y00162001D01*
X00245996D01*
X00247329Y00163334D01*
X00239332Y00168666D02*
X00237999Y00169999D01*
X00235333D01*
X00234000Y00168666D01*
Y00167333D01*
X00235333Y00166000D01*
X00236666D01*
X00235333D01*
X00234000Y00164667D01*
Y00163334D01*
X00235333Y00162001D01*
X00237999D01*
X00239332Y00163334D01*
X00231334Y00168666D02*
X00230001Y00169999D01*
X00227335D01*
X00226003Y00168666D01*
Y00163334D01*
X00227335Y00162001D01*
X00230001D01*
X00231334Y00163334D01*
Y00168666D01*
X00223337Y00162001D02*
X00220671D01*
X00222004D01*
Y00169999D01*
X00223337Y00168666D01*
X00490329Y00036999D02*
Y00030334D01*
X00488996Y00029001D01*
X00486330D01*
X00484997Y00030334D01*
Y00036999D01*
X00477000Y00029001D02*
X00482332D01*
X00477000Y00034333D01*
Y00035666D01*
X00478333Y00036999D01*
X00480999D01*
X00482332Y00035666D01*
X00474334D02*
X00473001Y00036999D01*
X00470336D01*
X00469003Y00035666D01*
Y00030334D01*
X00470336Y00029001D01*
X00473001D01*
X00474334Y00030334D01*
Y00035666D01*
X00466337Y00029001D02*
X00463671D01*
X00465004D01*
Y00036999D01*
X00466337Y00035666D01*
X00377001Y00127663D02*
X00383666D01*
X00384999Y00126330D01*
Y00123664D01*
X00383666Y00122331D01*
X00377001D01*
X00384999Y00119665D02*
Y00116999D01*
Y00118332D01*
X00377001D01*
X00378334Y00119665D01*
Y00113001D02*
X00377001Y00111668D01*
Y00109002D01*
X00378334Y00107669D01*
X00383666D01*
X00384999Y00109002D01*
Y00111668D01*
X00383666Y00113001D01*
X00378334D01*
X00384999Y00105003D02*
Y00102337D01*
Y00103670D01*
X00377001D01*
X00378334Y00105003D01*
X00281996Y00023001D02*
Y00030999D01*
X00277997D01*
X00276664Y00029666D01*
Y00027000D01*
X00277997Y00025667D01*
X00281996D01*
X00279330D02*
X00276664Y00023001D01*
X00273998D02*
X00271332D01*
X00272665D01*
Y00030999D01*
X00273998Y00029666D01*
X00267334D02*
X00266001Y00030999D01*
X00263335D01*
X00262002Y00029666D01*
Y00024334D01*
X00263335Y00023001D01*
X00266001D01*
X00267334Y00024334D01*
Y00029666D01*
X00254004Y00030999D02*
X00259336D01*
Y00027000D01*
X00256670Y00028333D01*
X00255337D01*
X00254004Y00027000D01*
Y00024334D01*
X00255337Y00023001D01*
X00258003D01*
X00259336Y00024334D01*
X00679662Y00141001D02*
Y00148999D01*
X00675663D01*
X00674330Y00147666D01*
Y00145000D01*
X00675663Y00143667D01*
X00679662D01*
X00676996D02*
X00674330Y00141001D01*
X00667666D02*
Y00148999D01*
X00671665Y00145000D01*
X00666333D01*
X00663667Y00147666D02*
X00662334Y00148999D01*
X00659668D01*
X00658335Y00147666D01*
Y00142334D01*
X00659668Y00141001D01*
X00662334D01*
X00663667Y00142334D01*
Y00147666D01*
X00651671Y00141001D02*
Y00148999D01*
X00655670Y00145000D01*
X00650338D01*
X00643662Y00128001D02*
Y00135999D01*
X00639663D01*
X00638330Y00134666D01*
Y00132000D01*
X00639663Y00130667D01*
X00643662D01*
X00640996D02*
X00638330Y00128001D01*
X00631666D02*
Y00135999D01*
X00635664Y00132000D01*
X00630333D01*
X00627667Y00134666D02*
X00626334Y00135999D01*
X00623668D01*
X00622336Y00134666D01*
Y00129334D01*
X00623668Y00128001D01*
X00626334D01*
X00627667Y00129334D01*
Y00134666D01*
X00619670D02*
X00618337Y00135999D01*
X00615671D01*
X00614338Y00134666D01*
Y00133333D01*
X00615671Y00132000D01*
X00617004D01*
X00615671D01*
X00614338Y00130667D01*
Y00129334D01*
X00615671Y00128001D01*
X00618337D01*
X00619670Y00129334D01*
X00643662Y00157001D02*
Y00164999D01*
X00639663D01*
X00638330Y00163666D01*
Y00161000D01*
X00639663Y00159667D01*
X00643662D01*
X00640996D02*
X00638330Y00157001D01*
X00631666D02*
Y00164999D01*
X00635664Y00161000D01*
X00630333D01*
X00627667Y00163666D02*
X00626334Y00164999D01*
X00623668D01*
X00622336Y00163666D01*
Y00158334D01*
X00623668Y00157001D01*
X00626334D01*
X00627667Y00158334D01*
Y00163666D01*
X00614338Y00157001D02*
X00619670D01*
X00614338Y00162333D01*
Y00163666D01*
X00615671Y00164999D01*
X00618337D01*
X00619670Y00163666D01*
X00643662Y00141001D02*
Y00148999D01*
X00639663D01*
X00638330Y00147666D01*
Y00145000D01*
X00639663Y00143667D01*
X00643662D01*
X00640996D02*
X00638330Y00141001D01*
X00631666D02*
Y00148999D01*
X00635664Y00145000D01*
X00630333D01*
X00627667Y00147666D02*
X00626334Y00148999D01*
X00623668D01*
X00622336Y00147666D01*
Y00142334D01*
X00623668Y00141001D01*
X00626334D01*
X00627667Y00142334D01*
Y00147666D01*
X00619670Y00141001D02*
X00617004D01*
X00618337D01*
Y00148999D01*
X00619670Y00147666D01*
X00478662Y00119001D02*
Y00126999D01*
X00474663D01*
X00473330Y00125666D01*
Y00123000D01*
X00474663Y00121667D01*
X00478662D01*
X00475996D02*
X00473330Y00119001D01*
X00465333D02*
X00470664D01*
X00465333Y00124333D01*
Y00125666D01*
X00466666Y00126999D01*
X00469332D01*
X00470664Y00125666D01*
X00462667D02*
X00461334Y00126999D01*
X00458668D01*
X00457336Y00125666D01*
Y00120334D01*
X00458668Y00119001D01*
X00461334D01*
X00462667Y00120334D01*
Y00125666D01*
X00449338Y00119001D02*
X00454670D01*
X00449338Y00124333D01*
Y00125666D01*
X00450671Y00126999D01*
X00453337D01*
X00454670Y00125666D01*
X00479329Y00132001D02*
Y00139999D01*
X00475330D01*
X00473997Y00138666D01*
Y00136000D01*
X00475330Y00134667D01*
X00479329D01*
X00476663D02*
X00473997Y00132001D01*
X00466000D02*
X00471332D01*
X00466000Y00137333D01*
Y00138666D01*
X00467333Y00139999D01*
X00469999D01*
X00471332Y00138666D01*
X00463334D02*
X00462001Y00139999D01*
X00459336D01*
X00458003Y00138666D01*
Y00133334D01*
X00459336Y00132001D01*
X00462001D01*
X00463334Y00133334D01*
Y00138666D01*
X00455337Y00132001D02*
X00452671D01*
X00454004D01*
Y00139999D01*
X00455337Y00138666D01*
X00276999Y00185996D02*
X00269001D01*
Y00181997D01*
X00270334Y00180664D01*
X00273000D01*
X00274333Y00181997D01*
Y00185996D01*
Y00183330D02*
X00276999Y00180664D01*
Y00177998D02*
Y00175332D01*
Y00176665D01*
X00269001D01*
X00270334Y00177998D01*
Y00171334D02*
X00269001Y00170001D01*
Y00167335D01*
X00270334Y00166002D01*
X00275666D01*
X00276999Y00167335D01*
Y00170001D01*
X00275666Y00171334D01*
X00270334D01*
X00276999Y00159337D02*
X00269001D01*
X00273000Y00163336D01*
Y00158005D01*
X00276999Y00071996D02*
X00269001D01*
Y00067997D01*
X00270334Y00066664D01*
X00273000D01*
X00274333Y00067997D01*
Y00071996D01*
Y00069330D02*
X00276999Y00066664D01*
Y00063998D02*
Y00061332D01*
Y00062665D01*
X00269001D01*
X00270334Y00063998D01*
Y00057333D02*
X00269001Y00056001D01*
Y00053335D01*
X00270334Y00052002D01*
X00275666D01*
X00276999Y00053335D01*
Y00056001D01*
X00275666Y00057333D01*
X00270334D01*
Y00049336D02*
X00269001Y00048003D01*
Y00045337D01*
X00270334Y00044005D01*
X00271667D01*
X00273000Y00045337D01*
Y00046670D01*
Y00045337D01*
X00274333Y00044005D01*
X00275666D01*
X00276999Y00045337D01*
Y00048003D01*
X00275666Y00049336D01*
X00371999Y00110996D02*
X00364001D01*
Y00106997D01*
X00365334Y00105664D01*
X00368000D01*
X00369333Y00106997D01*
Y00110996D01*
Y00108330D02*
X00371999Y00105664D01*
Y00102998D02*
Y00100332D01*
Y00101665D01*
X00364001D01*
X00365334Y00102998D01*
Y00096334D02*
X00364001Y00095001D01*
Y00092335D01*
X00365334Y00091002D01*
X00370666D01*
X00371999Y00092335D01*
Y00095001D01*
X00370666Y00096334D01*
X00365334D01*
X00371999Y00083005D02*
Y00088336D01*
X00366667Y00083005D01*
X00365334D01*
X00364001Y00084337D01*
Y00087003D01*
X00365334Y00088336D01*
X00371999Y00148663D02*
X00364001D01*
Y00144664D01*
X00365334Y00143331D01*
X00368000D01*
X00369333Y00144664D01*
Y00148663D01*
Y00145997D02*
X00371999Y00143331D01*
Y00140665D02*
Y00137999D01*
Y00139332D01*
X00364001D01*
X00365334Y00140665D01*
Y00134001D02*
X00364001Y00132668D01*
Y00130002D01*
X00365334Y00128669D01*
X00370666D01*
X00371999Y00130002D01*
Y00132668D01*
X00370666Y00134001D01*
X00365334D01*
X00371999Y00126003D02*
Y00123337D01*
Y00124670D01*
X00364001D01*
X00365334Y00126003D01*
X00561666Y00111997D02*
X00556334D01*
X00555001Y00113330D01*
Y00115996D01*
X00556334Y00117329D01*
X00561666D01*
X00562999Y00115996D01*
Y00113330D01*
X00560333Y00114663D02*
X00562999Y00111997D01*
Y00113330D02*
X00561666Y00111997D01*
X00562999Y00104000D02*
Y00109332D01*
X00557667Y00104000D01*
X00556334D01*
X00555001Y00105333D01*
Y00107999D01*
X00556334Y00109332D01*
Y00101334D02*
X00555001Y00100001D01*
Y00097336D01*
X00556334Y00096003D01*
X00561666D01*
X00562999Y00097336D01*
Y00100001D01*
X00561666Y00101334D01*
X00556334D01*
X00562999Y00093337D02*
Y00090671D01*
Y00092004D01*
X00555001D01*
X00556334Y00093337D01*
X00674330Y00163666D02*
X00675663Y00164999D01*
X00678329D01*
X00679662Y00163666D01*
Y00158334D01*
X00678329Y00157001D01*
X00675663D01*
X00674330Y00158334D01*
X00667666Y00157001D02*
Y00164999D01*
X00671665Y00161000D01*
X00666333D01*
X00663667Y00163666D02*
X00662334Y00164999D01*
X00659668D01*
X00658335Y00163666D01*
Y00158334D01*
X00659668Y00157001D01*
X00662334D01*
X00663667Y00158334D01*
Y00163666D01*
X00655670Y00157001D02*
X00653004D01*
X00654337D01*
Y00164999D01*
X00655670Y00163666D01*
X00593330Y00055666D02*
X00594663Y00056999D01*
X00597329D01*
X00598662Y00055666D01*
Y00050334D01*
X00597329Y00049001D01*
X00594663D01*
X00593330Y00050334D01*
X00585333Y00049001D02*
X00590664D01*
X00585333Y00054333D01*
Y00055666D01*
X00586666Y00056999D01*
X00589332D01*
X00590664Y00055666D01*
X00582667D02*
X00581334Y00056999D01*
X00578668D01*
X00577336Y00055666D01*
Y00050334D01*
X00578668Y00049001D01*
X00581334D01*
X00582667Y00050334D01*
Y00055666D01*
X00574670D02*
X00573337Y00056999D01*
X00570671D01*
X00569338Y00055666D01*
Y00054333D01*
X00570671Y00053000D01*
X00572004D01*
X00570671D01*
X00569338Y00051667D01*
Y00050334D01*
X00570671Y00049001D01*
X00573337D01*
X00574670Y00050334D01*
X00414334Y00118997D02*
X00413001Y00120330D01*
Y00122996D01*
X00414334Y00124329D01*
X00419666D01*
X00420999Y00122996D01*
Y00120330D01*
X00419666Y00118997D01*
X00420999Y00111000D02*
Y00116332D01*
X00415667Y00111000D01*
X00414334D01*
X00413001Y00112333D01*
Y00114999D01*
X00414334Y00116332D01*
Y00108334D02*
X00413001Y00107001D01*
Y00104335D01*
X00414334Y00103003D01*
X00419666D01*
X00420999Y00104335D01*
Y00107001D01*
X00419666Y00108334D01*
X00414334D01*
X00420999Y00095005D02*
Y00100337D01*
X00415667Y00095005D01*
X00414334D01*
X00413001Y00096338D01*
Y00099004D01*
X00414334Y00100337D01*
X00396334Y00118997D02*
X00395001Y00120330D01*
Y00122996D01*
X00396334Y00124329D01*
X00401666D01*
X00402999Y00122996D01*
Y00120330D01*
X00401666Y00118997D01*
X00402999Y00111000D02*
Y00116332D01*
X00397667Y00111000D01*
X00396334D01*
X00395001Y00112333D01*
Y00114999D01*
X00396334Y00116332D01*
Y00108334D02*
X00395001Y00107001D01*
Y00104335D01*
X00396334Y00103003D01*
X00401666D01*
X00402999Y00104335D01*
Y00107001D01*
X00401666Y00108334D01*
X00396334D01*
X00402999Y00100337D02*
Y00097671D01*
Y00099004D01*
X00395001D01*
X00396334Y00100337D01*
X00284334Y00180664D02*
X00283001Y00181997D01*
Y00184662D01*
X00284334Y00185996D01*
X00289666D01*
X00290999Y00184662D01*
Y00181997D01*
X00289666Y00180664D01*
X00290999Y00177998D02*
Y00175332D01*
Y00176665D01*
X00283001D01*
X00284334Y00177998D01*
Y00171334D02*
X00283001Y00170001D01*
Y00167335D01*
X00284334Y00166002D01*
X00289666D01*
X00290999Y00167335D01*
Y00170001D01*
X00289666Y00171334D01*
X00284334D01*
X00290999Y00158005D02*
Y00163336D01*
X00285667Y00158005D01*
X00284334D01*
X00283001Y00159337D01*
Y00162003D01*
X00284334Y00163336D01*
X00284334Y00069331D02*
X00283001Y00070664D01*
Y00073330D01*
X00284334Y00074663D01*
X00289666D01*
X00290999Y00073330D01*
Y00070664D01*
X00289666Y00069331D01*
X00290999Y00066665D02*
Y00063999D01*
Y00065332D01*
X00283001D01*
X00284334Y00066665D01*
Y00060001D02*
X00283001Y00058668D01*
Y00056002D01*
X00284334Y00054669D01*
X00289666D01*
X00290999Y00056002D01*
Y00058668D01*
X00289666Y00060001D01*
X00284334D01*
X00290999Y00052003D02*
Y00049337D01*
Y00050670D01*
X00283001D01*
X00284334Y00052003D01*
D77*
X00247995Y00023001D02*
Y00030999D01*
X00243997D01*
X00242664Y00029666D01*
Y00027000D01*
X00243997Y00025667D01*
X00247995D01*
X00245330D02*
X00242664Y00023001D01*
X00239998D02*
X00237332D01*
X00238665D01*
Y00030999D01*
X00239998Y00029666D01*
X00233333D02*
X00232001Y00030999D01*
X00229335D01*
X00228002Y00029666D01*
Y00024334D01*
X00229335Y00023001D01*
X00232001D01*
X00233333Y00024334D01*
Y00029666D01*
X00220005Y00030999D02*
X00222670Y00029666D01*
X00225336Y00027000D01*
Y00024334D01*
X00224003Y00023001D01*
X00221337D01*
X00220005Y00024334D01*
Y00025667D01*
X00221337Y00027000D01*
X00225336D01*
M02*
