M48
;Layer_Color=9474304
;FILE_FORMAT=4:4
METRIC
;TYPE=PLATED
T1F00S00C0.3000
T2F00S00C0.8000
T3F00S00C1.0000
%
T01
X00026556Y00019020
X00056556
X00086556
X00116556
X00128000Y00049000
X00146556Y00079020
Y00139020
X00101556Y00169020
X00071556
Y00109020
X00101556
X00041556
X00026556Y00139020
Y00079020
X00071556Y00049020
X00188000Y00065000
X00191556Y00169020
X00161556
X00264000Y00124000
X00296000Y00128000
Y00104000
X00297000Y00071000
X00319000Y00057000
Y00116000
X00335000
X00351000
X00373000Y00108000
Y00092000
X00396000Y00071000
X00405000
X00393000Y00052000
X00398000Y00043000
X00426000Y00033000
X00460000Y00063500
X00467000Y00058000
X00492000
Y00070000
Y00079988
Y00089000
X00474250Y00102000
Y00110000
Y00118000
X00467000Y00141000
X00449000Y00130000
X00442000Y00121000
X00422000Y00130000
X00421000Y00157000
X00423000Y00171000
X00391000Y00157000
Y00146000
X00377000
X00403000Y00141000
X00408000Y00103000
X00338000Y00155000
X00538000Y00159000
Y00148000
Y00137000
X00526500Y00074000
X00518000
X00526500Y00059000
X00564000Y00061000
Y00075000
Y00089000
Y00103000
X00568000Y00117000
X00575000Y00145000
X00592000Y00160000
X00607000
X00611556Y00169020
X00610000Y00146000
X00626556Y00139020
X00656556
X00686556
X00671556Y00169020
X00641556
Y00109020
X00671556
X00686556Y00079020
X00656556
X00626556
X00596556
X00595000Y00044000
X00579000
X00571000Y00024000
X00641556Y00049020
X00671556
X00701556
X00731556
X00761556
X00776556Y00019020
X00791556Y00109020
X00761556
X00731556
Y00169020
X00761556
X00611556Y00109020
X00612000Y00196000
X00597000
X00582000
X00567000
X00552000
X00627000
X00642000
X00657000
X00672000
X00716556Y00199020
X00746556
X00776556
X00537000Y00196000
X00522000
X00507000
X00492000
X00477000
X00462000
X00447000
X00432000
X00417000
X00402000
X00387000
X00372000
X00357000
X00342000
X00327000
X00312000
X00297000
X00282000
X00267000
X00252000
X00237000
X00222000
X00207000
X00192000
X00177000
X00162000
X00147000
X00086556Y00199020
X00056556
X00026556
T02
X00228000Y00058000
Y00078000
Y00098000
Y00118000
Y00138000
T03
X00303600Y00036000
X00329000
X00354400
M30
