G04*
G04 #@! TF.GenerationSoftware,Altium Limited,Altium Designer,22.4.2 (48)*
G04*
G04 Layer_Color=4660084*
%FSAX44Y44*%
%MOMM*%
G71*
G04*
G04 #@! TF.SameCoordinates,DBCC749B-C238-474B-BC69-C92A193A0D89*
G04*
G04*
G04 #@! TF.FilePolarity,Positive*
G04*
G01*
G75*
%ADD70C,0.0127*%
D70*
X00050000Y01945000D02*
G03*
X00060000Y01955000I00000000J00010000D01*
G01*
Y01070000D02*
G03*
X00050000Y01080000I-00010000J00000000D01*
G01*
Y00930000D02*
G03*
X00060000Y00940000I00000000J00010000D01*
G01*
X00067000Y00085000D02*
G03*
X00057000Y00095000I-00010000J00000000D01*
G01*
X00763000D02*
G03*
X00753000Y00085000I00000000J-00010000D01*
G01*
X00760000Y00940000D02*
G03*
X00770000Y00930000I00010000J00000000D01*
G01*
Y01080000D02*
G03*
X00760000Y01070000I00000000J-00010000D01*
G01*
Y01955000D02*
G03*
X00770000Y01945000I00010000J00000000D01*
G01*
Y02315000D02*
G03*
X00760000Y02305000I00000000J-00010000D01*
G01*
X00753000Y03160000D02*
G03*
X00763000Y03150000I00010000J00000000D01*
G01*
X00057000D02*
G03*
X00067000Y03160000I00000000J00010000D01*
G01*
X00060000Y02305000D02*
G03*
X00050000Y02315000I-00010000J00000000D01*
G01*
X00820000Y01300000D02*
X00820000Y01945000D01*
X-00000000Y01300000D02*
X00000000Y01945000D01*
X00000000Y00095000D02*
Y00930000D01*
Y02315000D02*
Y03150000D01*
X00820000Y00095000D02*
Y00930000D01*
Y01080000D02*
Y01300000D01*
X00067000Y03245000D02*
X00753000D01*
X00000000Y01080000D02*
Y01300000D01*
X00067000Y00000000D02*
X00753000D01*
X00820000Y02315000D02*
Y03150000D01*
X00000000Y01945000D02*
X00050000D01*
X00000000Y01080000D02*
X00050000D01*
X00060000Y00940000D02*
Y01070000D01*
X00000000Y00930000D02*
X00050000D01*
X00000000Y00095000D02*
X00057000D01*
X00067000Y00000000D02*
Y00085000D01*
X00753000Y00000000D02*
Y00085000D01*
X00763000Y00095000D02*
X00820000D01*
X00770000Y00930000D02*
X00820000D01*
X00760000Y00940000D02*
Y01070000D01*
X00770000Y01080000D02*
X00820000D01*
X00770000Y01945000D02*
X00820000D01*
X00760000Y01955000D02*
Y02175000D01*
Y02305000D01*
X00770000Y02315000D02*
X00820000D01*
X00763000Y03150000D02*
X00820000D01*
X00753000Y03160000D02*
Y03245000D01*
X00067000Y03160000D02*
Y03245000D01*
X00000000Y03150000D02*
X00057000D01*
X00000000Y02315000D02*
X00050000D01*
X00060000Y02305000D02*
X00060000Y01955000D01*
M02*
