M48
;Layer_Color=9474304
;FILE_FORMAT=4:4
METRIC
;TYPE=PLATED
T1F00S00C0.3000
T2F00S00C0.6000
T3F00S00C0.8000
T4F00S00C1.0000
T5F00S00C2.0000
T6F00S00C2.5000
%
T01
X00125000Y00015000
X00155000
X00185000
X00170000Y00045000
X00140000
X00200000
X00230000
X00260000
X00290000
X00320000
X00350000
X00380000
X00410000
X00440000
X00470000
X00500000
X00530000
X00560000
X00575000Y00015000
X00545000
X00515000
X00485000
X00455000
X00425000
X00395000
X00365000
X00335000
X00305000
X00275000
X00245000
X00215000
X00605000
X00635000
X00665000
X00695000
X00680000Y00045000
X00650000
X00620000
X00590000
X00605000Y00075000
X00635000
X00665000
X00695000
X00725000
X00740000Y00105000
X00770000
X00800000
X00785000Y00135000
X00800000Y00165000
Y00225000
Y00285000
X00775750Y00315000
X00765750
X00800000Y00345000
Y00405000
X00753750Y00374000
X00743750
X00706000Y00364000
X00698000Y00359000
X00650000Y00345000
X00600000Y00340000
Y00369000
X00605000Y00435000
X00600000Y00444000
X00590000Y00225000
X00605000Y00195000
X00611000Y00178000
X00597000
X00597000Y00145000
X00590000Y00138000
X00597000Y00131000
X00600000Y00101000
X00629000Y00140000
X00640000Y00184000
X00654000
X00668000
X00665000Y00195000
X00695000
X00684000Y00164000
X00684000Y00155000
X00695000Y00135000
X00710000Y00105000
X00635000Y00195000
X00587000Y00178000
X00574000Y00170000
X00571000Y00157000
X00560000Y00165000
X00550000Y00142000
X00583000Y00145000
Y00131000
X00572000Y00119000
X00573000Y00088000
X00575000Y00075000
X00545000
X00515000
X00470000Y00105000
X00380000
X00339000Y00144000
X00331000Y00152000
X00358000Y00188000
X00366000Y00180000
X00395000Y00195000
X00425000
X00455000
X00485000
X00500000Y00225000
X00470000
X00440000
X00410000
X00380000
X00381000Y00329000
X00367000Y00326000
X00337750Y00340000
X00290000Y00345000
X00292000Y00331000
X00296072Y00357832
X00275000Y00375000
X00245000
X00215000
X00230000Y00405000
X00260000
X00290000
X00275000Y00435000
X00245000
X00215000
X00200000Y00405000
Y00345000
X00230000
X00260000
X00275000Y00315000
X00270000Y00305000
Y00295000
X00260000Y00285000
X00290000
X00230000
X00200000
X00215000Y00315000
X00245000
X00372000Y00381000
X00380000Y00405000
X00410000
X00440000
X00470000
X00500000
X00485000Y00435000
X00455000
X00425000
X00395000
X00350000Y00405000
X00425000Y00375000
X00455000
X00485000
X00500000Y00345000
X00500000Y00331000
X00509000Y00303000
X00490000Y00302000
Y00293000
X00546000Y00344000
X00560000Y00345000
X00571000Y00331000
Y00321000
X00575000Y00375000
X00545000
X00560000Y00405000
X00575000Y00435000
X00545000
X00560000Y00225000
X00545000Y00195000
X00410000Y00345000
X00305000Y00075000
X00275000
X00245000
X00215000
X00185000
X00155000
X00125000
X00095000
X00110000Y00105000
X00080000
X00050000
X00035000Y00135000
X00050000Y00165000
X00080000
X00110000
X00170000Y00285000
X00185000Y00315000
X00155000
X00170000Y00345000
X00185000Y00375000
X00155000
X00170000Y00405000
X00185000Y00435000
X00155000
X00170000Y00525000
Y00585000
Y00645000
X00185000Y00675000
X00155000
X00175000Y00769000
X00184000
X00185000Y00783000
X00114000Y00790000
X00097000Y00762000
X00123000Y00828000
X00135000
X00053750Y00577000
X00043750
X00065750Y00530000
X00075750
X00200000Y00525000
X00230000
X00260000
X00269000Y00527000
Y00537000
X00275000Y00555000
X00290000Y00561000
Y00573000
X00296072Y00587832
X00260000Y00585000
X00230000
X00200000
Y00645000
X00230000
X00260000
X00275000Y00646000
Y00656000
X00275000Y00675000
X00245000
X00215000
X00275000Y00636000
X00245000Y00555000
X00290000Y00525000
X00337750Y00570000
X00364000Y00556000
X00383000Y00558000
X00395000Y00555000
X00410000Y00585000
X00425000Y00615000
X00455000
X00485000
X00500000Y00645000
X00470000
X00440000
X00455000Y00675000
X00485000
X00545000
X00575000
X00560000Y00645000
X00575000Y00615000
X00546000Y00571000
X00500000Y00561000
X00500000Y00585000
X00509000Y00533000
X00490000Y00532000
Y00523000
X00395000Y00615000
X00372003Y00612001
X00365000Y00675000
X00395000
X00425000
X00489000Y00752000
Y00761000
X00500000Y00790000
X00546000Y00784000
X00555000Y00800000
X00580000Y00784000
X00549000Y00753000
X00541000Y00745000
X00550000Y00839000
X00565000Y00840000
X00435000Y00833000
X00421000
X00422000Y00821000
X00412000
X00403000Y00801000
X00395000Y00795000
X00382000Y00793000
X00365000Y00795000
X00367000Y00787000
X00337750Y00781736
X00350000Y00825000
X00351000Y00844000
X00322000Y00842000
Y00833000
X00313000
Y00842000
X00296072Y00818000
X00288000Y00805000
Y00789000
X00270000Y00765000
Y00755000
X00245000Y00795000
X00207000Y00792000
X00197000Y00789000
X00230000Y00825000
X00376000Y00834000
X00596000Y00825000
X00652000Y00838000
X00665000Y00795000
X00688000Y00799000
Y00812000
X00742000Y00833000
X00800000Y00825000
X00808000Y00792000
X00800000Y00765000
X00760000Y00751000
X00735000Y00745000
X00730000Y00757000
X00717000Y00753000
X00800000Y00705000
Y00645000
Y00585000
Y00525000
Y00465000
X00735000Y00572000
X00710000Y00585000
X00689200Y00561800
X00675000Y00562000
X00651000Y00549000
X00626000Y00551000
Y00542000
X00605000Y00555000
X00596000Y00572000
Y00620000
X00625000Y00633000
Y00642000
X00653000Y00655000
Y00665000
X00664000Y00655000
X00679000Y00643000
X00727000Y00620000
X00626000Y00683000
X00605000Y00675000
X00601000Y00688000
X00624000Y00455000
X00596000Y00850000
Y00863000
Y00875000
X00601000Y00916000
X00600000Y00953000
X00613000Y00962000
X00599000Y01017000
X00600000Y01064000
Y01092000
Y01119000
Y01162000
X00603000Y01213000
X00597000Y01219000
X00652000Y01209000
X00753000Y01227000
X00759000Y01235000
X00785000Y01214999
X00800000Y01184999
X00785000Y01154999
X00800000Y01125000
X00770000
X00740000
X00715000Y01130000
X00682000Y01090000
X00755000Y01095000
X00785000
X00740000Y01065000
X00725000Y01035000
Y00975000
X00740000Y00945000
X00722000Y00932000
X00725000Y00915000
X00742000Y00914000
X00755000Y00915000
X00766000Y00914000
X00788000
X00800000Y00885000
X00785000Y00855000
X00735000Y00881000
X00718000Y00901000
X00567000Y00918000
X00556000
X00540000Y00919000
X00543000Y00930000
X00505000Y00926000
X00495000Y00938000
X00491000Y00917000
X00463000Y00903000
X00448000Y00908000
Y00917000
X00415000
Y00927000
X00380000Y00945000
X00350000
X00358000Y00968000
X00395750
X00395000Y01035000
X00365000
X00358000Y01019000
X00350000Y01065000
X00380000
X00395000Y01095000
X00425000
X00455000
X00485000
X00500000Y01125000
X00470000
X00440000
X00423000Y01163000
X00425000Y01214999
X00448000Y01218000
X00470000Y01208000
X00498000Y01210000
X00509000
X00535000Y01209000
X00550000Y01217000
X00545000Y01227000
X00551000Y01237000
X00565000
X00575000Y01209000
X00547000Y01153000
X00555000Y01145000
X00563000Y01137000
X00575000Y01095000
X00579000Y01030000
X00555000Y01024000
X00547000Y01032000
X00563000Y01016000
X00537000Y00972000
X00485000Y00975000
X00482000Y00962000
Y00953000
X00474000Y01019000
X00485000Y01035000
X00500000Y01065000
X00470000
X00440000
X00365000Y01095000
X00380000Y01125000
X00350000
X00290000
X00274000Y01215000
X00265000
Y01224000
X00274000
X00350000Y01217000
Y01209000
X00475000Y01158000
X00485000Y01154999
X00499000Y01236000
X00588000Y00953000
X00533860Y00863000
X00513860
X00378000Y00905000
X00295000Y00957000
Y00966000
X00174000Y00967000
X00142000Y00952000
X00133000
Y00943000
X00142000
X00118000Y00904000
X00108000Y00902000
X00065000Y00915000
X00035000
X00050000Y00885000
X00072000Y00875000
X00080000Y00945000
X00095000Y00975000
Y01035000
X00080000Y01065000
X00095000Y01095000
X00118000Y01099000
X00065000Y01095000
X00035000
X00050000Y01125000
X00170000
X00177000Y01158000
X00155000Y01154999
X00155000Y01225000
X00129000Y01213000
X00120000
Y01204000
X00129000
X00095000Y01234000
X00028000Y01238000
X00018000
X00170000Y01065000
X00173000Y01020000
X00177000Y00884000
X00188000
X00175000Y00857000
X00095250Y01243000
X00083000Y01360000
X00095000Y01455000
X00071000Y01473000
X00095000Y01509000
X00170000Y01484999
X00185000Y01455000
X00170000Y01425000
Y01544999
X00185000Y01574999
X00215000
X00245000
X00275000
X00290000Y01544999
X00260000
X00230000
X00200000
Y01484999
X00215000Y01455000
X00245000
X00275000
X00291000Y01452000
Y01466000
X00290000Y01425000
X00269000Y01429000
Y01420000
X00260000Y01425000
X00230000
X00200000
X00215000Y01335000
X00245000
X00275000
X00290000Y01305000
X00260000
X00257000Y01268000
X00247000
X00267000
X00277000
X00321000Y01275928
X00353000Y01278000
X00363000
X00373000
X00384000Y01282000
X00395000
X00418000Y01279000
X00428000
X00455000Y01274999
X00470000Y01305000
X00491000Y01308000
X00507000Y01310000
X00485000Y01335000
X00455000
X00425000
X00440000Y01305000
X00380000
X00350000
X00365000Y01335000
X00384000Y01451000
X00395000
X00410000Y01484999
X00440000
X00470000
X00500000
X00490000Y01500000
Y01510000
Y01520000
X00494000Y01536000
X00470000Y01544999
X00440000
X00410000
X00380000
X00350000
X00365000Y01574999
X00395000
X00425000
X00455000
X00485000
X00503000Y01570000
Y01561000
X00571000Y01545000
X00575000Y01574999
X00553000Y01509000
X00562000Y01496000
X00562000Y01455000
X00560000Y01445000
X00575000Y01455000
X00538000Y01467000
X00502000Y01443000
X00475000
X00490000Y01425000
Y01416000
X00455000Y01514999
X00425000
X00395000
X00372000Y01505000
X00350000Y01484999
X00337750Y01463000
X00275000Y01634999
X00245000
X00215000
X00545000Y01335000
X00544000Y01322000
X00578000Y01310000
X00579000Y01335000
Y01346000
X00663000Y01352000
X00667000Y01322000
X00658000
X00679000
X00689000
X00695000Y01335000
X00677000Y01404000
X00652000Y01454000
X00625000Y01454000
X00600000
Y01488000
X00625000Y01493000
X00652000
X00650000Y01484999
X00698000Y01484000
X00706000Y01478000
X00743750Y01496000
X00753750
X00765750Y01438000
X00775750
X00680000Y01544999
X00650000
X00653000Y01581000
X00625000
X00600000Y01580000
X00653000Y01250000
X00800000Y01244999
X00710000Y01664999
X00689400Y01685000
X00674000
X00650000Y01669000
X00626000Y01665000
Y01674000
X00596000Y01695000
Y01743000
X00605000Y01754999
X00626000Y01764000
Y01773000
X00652000Y01778000
X00664000Y01778000
X00679000Y01765000
X00727000Y01743000
X00735000Y01695000
X00653000Y01812000
X00625000
X00605000Y01814999
X00604000Y01925000
X00596000Y01948000
X00604000Y01991000
X00651000Y01977000
X00661000
X00646000Y02026000
X00672000Y01914000
X00693000Y01904000
X00800000Y01904999
X00785000Y01934999
X00575000
X00568000Y01914000
Y01904000
X00546000Y01921000
X00545000Y01934999
X00560000Y01964999
X00545000Y01994999
X00554750Y02031000
X00490750
X00485000Y01994999
X00455000
X00425000
X00395000
X00410000Y01964999
X00440000
X00470000
X00500000
X00485000Y01934999
X00470000Y01904999
X00440000
X00425000Y01934999
X00389000Y01913000
X00381000
X00337750Y01923000
X00290000Y01916000
X00290000Y01904999
X00260000
X00269000Y01888000
Y01878000
X00245000Y01874999
X00215000
X00230000Y01904999
X00200000
X00215000Y01814999
X00245000
X00275000
X00290000Y01784999
X00260000
X00230000
X00200000
X00215000Y01754999
X00245000
X00275000
X00275000Y01744000
Y01766000
X00290000Y01724999
X00291000Y01697000
Y01683000
X00290000Y01664999
X00269000Y01660000
Y01650000
X00260000Y01664999
X00230000
X00245000Y01694999
X00275000
X00260000Y01724999
X00230000
X00200000
X00215000Y01694999
X00337750Y01693000
X00350000Y01724999
X00372000Y01736000
X00395000Y01754999
X00425000
X00455000
X00485000
X00500000Y01784999
X00470000
X00440000
X00410000
X00380000
X00350000
X00395000Y01814999
X00410000Y01724999
X00440000
X00470000
X00500000
X00502000Y01675000
X00475000Y01674000
X00490000Y01655000
Y01646000
X00560000Y01664999
Y01724999
X00538000Y01704000
X00545000Y01754999
X00575000
X00560000Y01784999
X00575000Y01814999
X00545000
X00490000Y01876000
Y01885000
X00502000Y01905000
X00372000Y01963000
X00306000Y01952000
X00291000Y01948000
X00290000Y01964999
X00260000
X00270750Y02031000
X00207750Y02030000
X00354750Y02031000
X00423750
X00388000Y01683000
X00379000
X00185000Y01694999
X00155000
X00080000Y01700000
X00071250Y01700000
X00053750Y01700000
X00043750
X00063000Y01739000
X00116000Y01753000
X00170000Y01784999
X00185000Y01874999
X00035000Y01934999
X00080000Y02024999
Y02084999
Y02144999
X00095000Y02174999
X00080000Y02204999
Y02264999
X00095000Y02294999
X00080000Y02324999
X00050000
X00035000Y02354999
X00050000Y02384999
X00065000Y02414999
X00035000
X00095000Y02354999
X00129000Y02356000
X00138000
Y02347000
X00129000
X00132000Y02381000
Y02390000
X00164000Y02423000
X00171000Y02294000
Y02244000
X00168000Y02234000
X00185000Y02234999
X00191000Y02259000
X00170000Y02144999
X00200000Y02174000
Y02183000
X00228000Y02240000
X00269000Y02231000
X00288000Y02230000
X00298000
Y02220000
X00288000
Y02210000
X00298000
X00308000
Y02220000
Y02230000
X00318000
X00328000
Y02220000
X00318000
Y02210000
X00328000
X00362000Y02216000
Y02226000
X00410773Y02209773
X00422000Y02210000
X00441000
X00453000
X00468000Y02184000
Y02175000
Y02166000
X00470000Y02144999
X00451000Y02150000
X00440000
X00423000
X00418000Y02158000
X00407000Y02188000
X00431000Y02247000
X00441000Y02252000
X00452000
X00507000Y02246000
X00516000Y02252000
X00527000
X00530000Y02264999
X00545000Y02234999
X00546000Y02226000
X00538000Y02210000
X00521000
X00505000
X00494000
X00491000Y02191000
X00502000
X00503000Y02150000
X00514000
X00520000Y02143000
X00492000Y02150000
X00480102Y02100148
X00431000Y02100250
X00588000Y02097000
X00576000Y02134000
Y02143000
X00547000Y02165000
X00546000Y02179000
X00530000Y02324999
X00500000
X00470000
X00440000
X00455000Y02354999
X00480000Y02353000
Y02362000
Y02371000
Y02380000
X00470000Y02384999
X00440000
X00422000Y02379000
X00397000Y02387000
X00388000Y02396000
X00395000Y02414999
X00374000Y02408000
X00365000Y02414999
X00425000
X00455000
X00485000
X00545000
X00575000
X00560000Y02384999
X00388000Y02341000
Y02327000
X00333000Y02365000
Y02374000
X00260000Y02384999
X00260000Y02394000
X00275000Y02414999
X00221000Y02425000
X00195750Y02394000
X00205000Y02322000
Y02311000
X00287000Y02285000
X00328000Y02289000
X00286000Y02159000
X00604000Y02153000
X00626000Y02167000
X00650000Y02180000
X00725000Y02174999
X00740000Y02204999
Y02264999
X00725000Y02294999
X00740000Y02324999
X00770000
X00800000
X00785000Y02354999
X00800000Y02384999
X00770000
X00785000Y02414999
X00755000
X00725000Y02354999
X00630000Y02296000
Y02287000
X00641000Y02264000
X00629000Y02252000
X00604000Y02256000
Y02266000
X00615000Y02112300
X00604000Y02061000
X00640000Y02074000
X00650000
X00659000
X00697000Y02063000
X00695000Y02474999
X00677000Y02549000
X00699000Y02608000
X00708000Y02604000
X00743750Y02618000
X00753750
X00800000Y02624999
Y02684999
Y02744999
Y02804999
X00735000Y02817000
X00710000Y02804999
X00690000Y02807000
X00673000
X00650000Y02791000
X00626000Y02787000
Y02796000
X00596000Y02817000
X00650000Y02684999
X00680000
X00605000Y02594999
X00765750Y02560000
X00775750
X00800000Y02564999
Y02504999
Y02444999
X00560000
X00575000Y02474999
X00545000
X00485000
X00500000Y02444999
X00470000
X00440000
X00410000
X00380000
X00350000
X00365000Y02474999
X00395000
X00388000Y02575000
X00379000
X00337750Y02585000
X00290000
Y02575000
X00290000Y02564999
X00260000
X00270000Y02549000
Y02540000
X00245000Y02534999
X00215000
X00230000Y02564999
X00200000
Y02624999
X00230000
X00260000
X00290000
X00296072Y02602832
X00275000Y02654999
X00245000
X00215000
X00230000Y02684999
X00260000
X00290000
X00350000
X00380000
X00410000
X00440000
X00470000
X00500000
X00485000Y02654999
X00455000
X00425000
X00395000
X00410000Y02624999
X00440000
X00470000
X00500000
X00560000
X00575000Y02654999
X00545000
X00560000Y02684999
X00575000Y02594999
X00545000
X00553000Y02576000
X00552000Y02566000
X00502000Y02565000
X00490000Y02547000
Y02538000
X00470000Y02564999
X00440000
X00372000Y02627000
X00350000Y02624999
X00337750Y02815000
X00380000Y02804999
X00389000Y02805000
X00474000Y02795000
X00490000Y02777000
Y02768000
X00507000Y02778000
X00560000Y02804999
X00287000Y02805000
Y02817000
X00260000Y02804999
X00230000
X00245000Y02774999
X00270000Y02772000
Y02781000
X00215000Y02774999
X00200000Y02684999
X00215000Y02474999
X00245000
X00275000
X00290000Y02444999
X00260000
X00185000Y02474999
Y02534999
X00155000
X00170000Y02564999
Y02624999
X00185000Y02654999
X00155000
X00170000Y02684999
X00185000Y02774999
X00155000
X00075750Y02775000
X00065750
X00053750Y02822000
X00043750
X00050000Y02864999
X00080000
X00065000Y02894999
X00080000Y02924999
X00050000
X00065000Y02954999
X00080000Y02984999
X00065000Y03014999
X00035000
X00050000Y03044999
X00080000
X00065000Y03074999
X00035000
X00050000Y03104999
X00035000Y03134999
X00095000
X00080000Y03164999
X00129000Y03159000
X00139000
X00166000
X00176000
X00170000Y02984999
Y02924999
X00185000Y02894999
X00155000
X00170000Y02864999
X00200000
X00230000
X00260000
X00275000Y02865000
Y02875000
Y02885000
X00275000Y02894999
X00245000
X00215000
X00230000Y02924999
X00260000
X00290000
X00350000
X00380000
X00410000
X00440000
X00470000
X00500000
X00485000Y02894999
X00455000
X00425000
X00395000
X00365000
X00372000Y02858000
X00380000Y02864999
X00410000
X00440000
X00470000
X00500000
X00485000Y02834999
X00455000
X00425000
X00350000Y02864999
X00296072Y02832832
X00275000Y02834999
X00245000
X00215000
X00200000Y02924999
X00270000Y03001000
Y03010000
X00290000Y03035000
X00290000Y03044999
X00296072Y03062832
X00290000Y03104999
X00260000
X00275000Y03134999
X00305000
X00335000
X00365000
X00395000
X00425000
Y03074999
X00455000
X00485000
X00515000
X00526000Y03045000
X00534000Y03027000
X00542000Y03035000
X00545000Y03014999
X00520000Y03018000
X00490000Y03007000
Y02998000
X00500000Y02984999
X00473000Y03026000
X00472000Y03119000
X00482000
Y03171000
X00472000
X00579000Y03142000
Y03131000
X00580000Y03104000
X00560000Y03044999
X00575000Y03014999
X00560000Y02924999
X00575000Y02894999
X00545000
X00560000Y02864999
X00575000Y02834999
X00545000
X00375000Y03034000
X00380000Y03044999
X00337750Y03045000
X00363072Y03074832
X00245000Y03074999
X00597000Y03074000
X00608000Y03085000
Y03099000
X00622000
X00615000Y03092000
X00622000Y03085000
X00625000Y03051000
X00598000Y03042250
X00605000Y03014999
X00635000
X00665000
X00673000Y03035000
X00692000Y03027000
X00709000Y03031000
X00719000
X00719000Y03083000
X00709000
X00711000Y03107000
Y03117000
X00725000Y03134999
X00693000Y03138000
X00679000
X00665000
X00680000Y03164999
X00710000
X00740000
X00785000Y03134999
X00800000Y03104999
X00770000
X00800000Y03044999
Y02984999
Y02924999
Y02864999
X00727000Y02865000
X00679000Y02887000
X00664000Y02900000
X00652000Y02897000
Y02905000
X00650000Y02924999
X00680000
Y02984999
X00650000
X00665000Y03076000
X00596000Y03110000
X00597000Y03123000
X00590000Y03164999
X00620000
X00665000Y03194999
X00695000
X00626000Y02895000
Y02886000
X00605000Y02894999
X00596000Y02865000
T02
X00673000Y01226000
Y01240000
X00085000Y01186000
Y01170000
X00067000Y01162000
Y01178000
Y01194000
T03
X00195000Y02001000
Y02021000
X00282000
Y02001000
X00368999Y02001000
Y02021000
X00435999
Y02001000
X00502999
Y02021000
X00569998
Y02001000
Y02041000
Y02061000
Y02081000
X00502999
Y02061000
Y02041000
X00435999
Y02061000
Y02081000
X00368999
Y02061000
Y02041000
X00282000Y02041000
Y02061000
Y02081000
X00195000
Y02061000
Y02041000
T04
X00613200Y00244300
X00638600
Y00269700
X00664000
Y00244300
X00689400
X00714800
Y00269700
X00689400
X00613200
X00677000Y00334300
Y00359700
X00600000Y00392300
Y00417700
X00587800Y00269700
X00562400
X00537000
Y00244300
X00562400
X00587800
X00511598
X00486200
X00460800
Y00269700
X00486200
X00511598
X00435400
Y00244300
X00409998
X00384600
X00359200
X00333800
X00308400
X00283000
X00257600
X00232200
X00206800
Y00269700
X00232200
X00257600
X00283000
X00308400
X00333800
X00359200
X00384600
X00409998
X00425300Y00107000
X00450700
X00181400Y00244300
X00156000
X00130600
Y00269700
X00156000
X00181400
X00105200
Y00244300
Y00474300
X00130600
Y00499700
X00156000
Y00474300
X00181400
Y00499700
X00180300Y00549000
X00178700Y00596000
X00153300
X00156000Y00704300
X00130600
Y00729700
X00156000
X00181400
Y00704300
X00105200
Y00729700
X00035998Y00838299
X00105200Y00499700
X00206800
Y00474300
X00232200
Y00499700
X00257600
Y00474300
X00283000
Y00499700
X00308400
Y00474300
X00333800
Y00499700
X00359200
Y00474300
X00384600
X00409998
Y00499700
X00384600
X00435400
X00460800
Y00474300
X00486200
X00511598
Y00499700
X00486200
X00537000
X00562400
Y00474300
X00537000
X00587800
Y00499700
X00435400Y00474300
Y00704300
X00460800
Y00729700
X00486200
X00511598
Y00704300
X00486200
X00537000
Y00729700
X00562400
Y00704300
X00587800
Y00729700
X00435400
X00409998
X00384600
X00359200
X00333800
X00308400
X00283000
X00257600
X00232200
X00206800
Y00704300
X00232200
X00257600
X00283000
X00308400
X00333800
X00359200
X00384600
X00409998
X00205700Y00549000
X00613200Y00499700
X00638600
Y00474300
X00613200
X00664000
X00689400
X00714800
Y00499700
X00689400
X00664000
Y00704300
X00638600
Y00729700
X00664000
X00689400
Y00704300
X00714800
Y00729700
X00613200
Y00704300
X00775000Y01146000
Y01171000
Y01196400
X00167000Y01100000
Y01080000
X00035998Y00863699
X00105200Y01367300
X00130600
Y01392700
X00156000
Y01367300
X00181400
Y01392700
X00105200
Y01597300
X00130600
Y01622700
X00156000
Y01597300
X00181400
Y01622700
X00105200
X00206800
Y01597300
X00232200
Y01622700
X00257600
Y01597300
X00283000
X00308400
Y01622700
X00333800
Y01597300
X00359200
Y01622700
X00384600
X00409998
Y01597300
X00384600
X00435400
X00460800
Y01622700
X00486200
X00511598
Y01597300
X00486200
X00537000
Y01622700
X00562400
Y01597300
X00587800
Y01622700
X00435400
X00283000
Y01392700
X00257600
X00232200
X00206800
Y01367300
X00232200
X00257600
X00283000
X00308400
Y01392700
X00333800
Y01367300
X00359200
Y01392700
X00384600
X00409998
Y01367300
X00384600
X00435400
X00460800
Y01392700
X00486200
X00511598
Y01367300
X00486200
X00537000
Y01392700
X00562400
Y01367300
X00587800
Y01392700
X00435400
X00613200
X00638600
Y01367300
X00664000
X00689400
X00714800
Y01392700
X00689400
X00664000
X00613200Y01367300
X00677000Y01457300
Y01482700
X00600000Y01515300
Y01540700
X00613200Y01597300
X00638600
Y01622700
X00664000
Y01597300
X00689400
X00714800
Y01622700
X00689400
X00613200
Y01827300
Y01852700
X00638600
X00664000
X00689400
X00714800
Y01827300
X00689400
X00664000
X00638600
X00587800
Y01852700
X00562400
Y01827300
X00537000
Y01852700
X00511598
X00486200
Y01827300
X00511598
X00460800
X00435400
Y01852700
X00460800
X00409998
X00384600
Y01827300
X00409998
X00359200
Y01852700
X00333800
Y01827300
X00308400
Y01852700
X00283000
Y01827300
X00257600
Y01852700
X00232200
Y01827300
X00206800
Y01852700
X00205700Y01672000
X00180300
X00178700Y01719000
X00153300
X00156000Y01827300
X00181400
Y01852700
X00156000
X00130600
X00105200
Y01827300
X00130600
X00644000Y02113300
Y02138700
X00638600Y02489300
X00613200
Y02514700
X00638600
X00664000
X00689400
X00714800
Y02489300
X00689400
X00664000
X00677000Y02579300
Y02604700
X00600000Y02637300
Y02662700
X00613200Y02719300
X00638600
Y02744700
X00664000
Y02719300
X00689400
X00714800
Y02744700
X00689400
X00613200
X00587800
X00562400
X00537000
Y02719300
X00562400
X00587800
X00511598
X00486200
X00460800
Y02744700
X00486200
X00511598
X00435400
Y02719300
X00409998
X00384600
X00359200
X00333800
X00308400
X00283000
X00257600
X00232200
X00206800
Y02744700
X00232200
X00257600
X00283000
X00308400
X00333800
X00359200
X00384600
X00409998
Y02514700
X00384600
Y02489300
X00409998
X00435400
Y02514700
X00460800
X00486200
X00511598
Y02489300
X00486200
X00460800
X00537000
X00562400
X00587800
Y02514700
X00562400
X00537000
X00359200
Y02489300
X00333800
Y02514700
X00308400
Y02489300
X00283000
Y02514700
X00257600
Y02489300
X00232200
Y02514700
X00206800
Y02489300
X00205700Y02794000
X00180300
X00181400Y02744700
X00156000
X00130600
Y02719300
X00156000
X00181400
X00105200
Y02744700
Y02514700
Y02489300
X00130600
X00156000
X00181400
Y02514700
X00156000
X00130600
X00153300Y02841000
X00178700
X00181400Y02949300
X00156000
X00130600
Y02974700
X00156000
X00181400
X00105200
Y02949300
X00206800
Y02974700
X00232200
Y02949300
X00257600
Y02974700
X00283000
Y02949300
X00308400
Y02974700
X00333800
Y02949300
X00359200
Y02974700
X00384600
X00409998
Y02949300
X00384600
X00435400
X00460800
Y02974700
X00486200
X00511598
Y02949300
X00486200
X00537000
Y02974700
X00562400
Y02949300
X00587800
Y02974700
X00435400
X00256000Y03117300
Y03142700
X00613200Y02974700
X00638600
Y02949300
X00664000
X00689400
X00714800
Y02974700
X00689400
X00664000
X00613200Y02949300
T05
X00076000Y01136000
Y01220000
T06
X00092000Y00040000
X00728000
X00745000Y00130000
X00075000
X00728000Y01005000
X00092000
Y02240000
X00075000Y02375000
X00745000
X00728000Y02240000
X00075000Y03115000
X00092000Y03205000
X00728000
X00745000Y03115000
M30
