G04*
G04 #@! TF.GenerationSoftware,Altium Limited,Altium Designer,22.1.2 (22)*
G04*
G04 Layer_Color=65535*
%FSAX44Y44*%
%MOMM*%
G71*
G04*
G04 #@! TF.SameCoordinates,D4940EDF-FCE3-461B-A7F8-CC2F5B5D0F8E*
G04*
G04*
G04 #@! TF.FilePolarity,Positive*
G04*
G01*
G75*
%ADD10C,0.1530*%
%ADD11C,0.2000*%
%ADD12C,0.2540*%
D10*
X00350000Y00766000D02*
G03*
X00340000Y00756000I00000000J-00010000D01*
G01*
X00600000Y00756000D02*
G03*
X00590000Y00766000I-00010000J00000000D01*
G01*
Y00404000D02*
G03*
X00600000Y00414000I00000000J00010000D01*
G01*
X00340000D02*
G03*
X00350000Y00404000I00010000J00000000D01*
G01*
X00236000Y00803000D02*
G03*
X00246000Y00813000I00000000J00010000D01*
G01*
Y00836000D02*
G03*
X00236000Y00846000I-00010000J00000000D01*
G01*
X00130000Y00846000D02*
G03*
X00120000Y00836000I00000000J-00010000D01*
G01*
Y00813000D02*
G03*
X00130000Y00803000I00010000J00000000D01*
G01*
X00340000Y00756000D02*
X00340000Y00414000D01*
X00350000Y00766000D02*
X00590000Y00766000D01*
X00600000Y00756000D02*
X00600000Y00414000D01*
X00350000Y00403999D02*
X00590000Y00403999D01*
X00179000Y00692000D02*
Y00725000D01*
X00182000D01*
Y00730000D01*
X00179000D02*
X00182000D01*
X00179000D02*
Y00745000D01*
Y00692000D02*
X00203000D01*
Y00668000D02*
Y00692000D01*
X00239000D02*
Y00725000D01*
X00236000D02*
X00239000D01*
X00236000D02*
Y00730000D01*
X00239000D01*
Y00745000D01*
X00215000Y00692000D02*
X00239000D01*
X00215000Y00668000D02*
Y00692000D01*
X00209000Y00730000D02*
Y00745000D01*
X00199730Y00744831D02*
X00209000Y00730000D01*
X00208978Y00729957D02*
X00218273Y00744829D01*
X00130000Y00803000D02*
X00236000D01*
X00120000Y00813000D02*
Y00836000D01*
X00130000Y00846000D02*
X00236000D01*
X00246000Y00813000D02*
Y00836000D01*
X00873000Y00616000D02*
Y00636000D01*
X00907000D01*
Y00616000D02*
Y00636000D01*
X00873000Y00616000D02*
X00907000D01*
X00152000Y00066000D02*
Y00120000D01*
X00788000D01*
Y00066000D02*
Y00120000D01*
X00152000Y00066000D02*
X00788000D01*
X00873250Y00573000D02*
X00905250D01*
X00873250D02*
Y00587000D01*
X00905250D01*
Y00573000D02*
Y00587000D01*
X00672550Y00699050D02*
X00873000D01*
X00662800Y00689300D02*
X00672550Y00699050D01*
X00873000D02*
X00873000Y00175000D01*
X00805000Y00683000D02*
Y00715000D01*
X00791000Y00683000D02*
X00805000Y00683000D01*
X00791000Y00683000D02*
Y00715000D01*
X00805000D01*
X00873000Y00541000D02*
Y00573000D01*
X00887000Y00573000D01*
Y00541000D02*
Y00573000D01*
X00873000Y00541000D02*
X00887000Y00541000D01*
X00912000Y00570500D02*
X00918000D01*
Y00563000D02*
Y00570500D01*
X00912000Y00542000D02*
X00918000D01*
Y00549000D01*
X00791000Y00701000D02*
Y00715000D01*
X00759000D02*
X00791000D01*
X00759000Y00701000D02*
X00759000Y00715000D01*
X00759000Y00701000D02*
X00791000D01*
X00759000Y00697000D02*
X00791000Y00697000D01*
X00759000Y00683000D02*
Y00697000D01*
X00791000Y00697000D02*
X00791000Y00683000D01*
X00759000Y00683000D02*
X00791000Y00683000D01*
X00805000Y00715000D02*
X00819000Y00715000D01*
X00805000Y00683000D02*
Y00715000D01*
Y00683000D02*
X00819000Y00683000D01*
Y00715000D01*
X00873000Y00411000D02*
X00905000D01*
X00873000D02*
Y00425000D01*
X00905000D01*
Y00411000D02*
Y00425000D01*
X00875000Y00636000D02*
X00907000D01*
Y00682000D01*
X00875000Y00636000D02*
Y00682000D01*
X00907000D01*
X00662800Y00175000D02*
Y00689300D01*
Y00175000D02*
X00873000D01*
X00866000Y00096000D02*
X00871000D01*
X00866000Y00020000D02*
X00871000D01*
X00908000Y00041000D02*
X00925000D01*
X00908000D02*
Y00075000D01*
X00925000D01*
X00919000Y00096000D02*
X00925000D01*
X00919000Y00020000D02*
X00925000D01*
Y00096000D01*
X00866000Y00800000D02*
X00871000D01*
X00866000Y00724000D02*
X00871000D01*
X00908000Y00745000D02*
X00925000D01*
X00908000D02*
Y00779000D01*
X00925000D01*
X00919000Y00800000D02*
X00925000D01*
X00919000Y00724000D02*
X00925000D01*
Y00800000D01*
X00069000Y00020000D02*
X00074000D01*
X00069000Y00096000D02*
X00074000D01*
X00015000Y00075000D02*
X00032000D01*
Y00041000D02*
Y00075000D01*
X00015000Y00041000D02*
X00032000D01*
X00015000Y00020000D02*
X00021000D01*
X00015000Y00096000D02*
X00021000D01*
X00015000Y00020000D02*
Y00096000D01*
Y00724000D02*
Y00800000D01*
X00021000D01*
X00015000Y00724000D02*
X00021000D01*
X00015000Y00745000D02*
X00032000D01*
Y00779000D01*
X00015000D02*
X00032000D01*
X00069000Y00800000D02*
X00074000D01*
X00069000Y00724000D02*
X00074000D01*
X00148666Y00769666D02*
X00147333Y00770999D01*
X00144667D01*
X00143334Y00769666D01*
Y00764334D01*
X00144667Y00763001D01*
X00147333D01*
X00148666Y00764334D01*
Y00767000D01*
X00146000D01*
X00168334Y00770999D02*
X00173666Y00763001D01*
Y00770999D02*
X00168334Y00763001D01*
X00160670Y00850001D02*
X00164668D01*
X00166001Y00851334D01*
X00164668Y00852667D01*
X00162003D01*
X00160670Y00854000D01*
X00162003Y00855333D01*
X00166001D01*
X00173999D02*
X00170000D01*
X00168667Y00854000D01*
Y00851334D01*
X00170000Y00850001D01*
X00173999D01*
X00176665D02*
X00179330D01*
X00177997D01*
Y00857999D01*
X00176665D01*
X00135337Y00861001D02*
X00139335D01*
X00140668Y00862334D01*
X00139335Y00863667D01*
X00136670D01*
X00135337Y00865000D01*
X00136670Y00866333D01*
X00140668D01*
X00148666Y00868999D02*
Y00861001D01*
X00144667D01*
X00143334Y00862334D01*
Y00865000D01*
X00144667Y00866333D01*
X00148666D01*
X00152664D02*
X00155330D01*
X00156663Y00865000D01*
Y00861001D01*
X00152664D01*
X00151332Y00862334D01*
X00152664Y00863667D01*
X00156663D01*
X00189003Y00859668D02*
X00190336D01*
X00191668Y00861001D01*
Y00867666D01*
X00187670D01*
X00186337Y00866333D01*
Y00863667D01*
X00187670Y00862334D01*
X00191668D01*
X00194334D02*
Y00867666D01*
X00198333D01*
X00199666Y00866333D01*
Y00862334D01*
X00207663Y00870332D02*
Y00862334D01*
X00203664D01*
X00202332Y00863667D01*
Y00866333D01*
X00203664Y00867666D01*
X00207663D01*
X00211337Y00856666D02*
X00214003Y00851334D01*
X00216668Y00856666D01*
X00224666D02*
X00220667D01*
X00219334Y00855333D01*
Y00852667D01*
X00220667Y00851334D01*
X00224666D01*
X00232663Y00856666D02*
X00228664D01*
X00227332Y00855333D01*
Y00852667D01*
X00228664Y00851334D01*
X00232663D01*
X00127530Y00875530D02*
X00130196D01*
X00128863D01*
Y00883527D01*
X00127530Y00882195D01*
D11*
X00415000Y00418999D02*
X00418332D01*
X00416666D01*
Y00428996D01*
X00415000Y00427330D01*
X00144000Y00109000D02*
X00147332D01*
X00145666D01*
Y00118997D01*
X00144000Y00117331D01*
X00798664Y00076997D02*
X00792000D01*
Y00071998D01*
X00795332Y00073664D01*
X00796998D01*
X00798664Y00071998D01*
Y00068666D01*
X00796998Y00067000D01*
X00793666D01*
X00792000Y00068666D01*
X00801997Y00075331D02*
X00803663Y00076997D01*
X00806995D01*
X00808661Y00075331D01*
Y00068666D01*
X00806995Y00067000D01*
X00803663D01*
X00801997Y00068666D01*
Y00075331D01*
X00218003Y00797998D02*
X00214671D01*
X00216337D01*
Y00789668D01*
X00214671Y00788002D01*
X00213005D01*
X00211339Y00789668D01*
X00221336D02*
X00223002Y00788002D01*
X00226334D01*
X00228000Y00789668D01*
Y00796332D01*
X00226334Y00797998D01*
X00223002D01*
X00221336Y00796332D01*
Y00794666D01*
X00223002Y00793000D01*
X00228000D01*
X00231332Y00796332D02*
X00232998Y00797998D01*
X00236331D01*
X00237997Y00796332D01*
Y00789668D01*
X00236331Y00788002D01*
X00232998D01*
X00231332Y00789668D01*
Y00796332D01*
X00241329Y00788002D02*
X00244661D01*
X00242995D01*
Y00797998D01*
X00241329Y00796332D01*
X00171003Y00686998D02*
X00167671D01*
X00169337D01*
Y00678668D01*
X00167671Y00677002D01*
X00166005D01*
X00164339Y00678668D01*
X00174335Y00685332D02*
X00176002Y00686998D01*
X00179334D01*
X00181000Y00685332D01*
Y00683666D01*
X00179334Y00682000D01*
X00181000Y00680334D01*
Y00678668D01*
X00179334Y00677002D01*
X00176002D01*
X00174335Y00678668D01*
Y00680334D01*
X00176002Y00682000D01*
X00174335Y00683666D01*
Y00685332D01*
X00176002Y00682000D02*
X00179334D01*
X00184332Y00685332D02*
X00185998Y00686998D01*
X00189331D01*
X00190997Y00685332D01*
Y00678668D01*
X00189331Y00677002D01*
X00185998D01*
X00184332Y00678668D01*
Y00685332D01*
X00194329Y00677002D02*
X00197661D01*
X00195995D01*
Y00686998D01*
X00194329Y00685332D01*
X00348003Y00399998D02*
X00344671D01*
X00346337D01*
Y00391668D01*
X00344671Y00390002D01*
X00343005D01*
X00341339Y00391668D01*
X00351335Y00399998D02*
X00358000D01*
Y00398332D01*
X00351335Y00391668D01*
Y00390002D01*
X00361332Y00398332D02*
X00362998Y00399998D01*
X00366331D01*
X00367997Y00398332D01*
Y00391668D01*
X00366331Y00390002D01*
X00362998D01*
X00361332Y00391668D01*
Y00398332D01*
X00371329Y00390002D02*
X00374661D01*
X00372995D01*
Y00399998D01*
X00371329Y00398332D01*
X00916002Y00532658D02*
X00925998D01*
Y00527660D01*
X00924332Y00525993D01*
X00921000D01*
X00919334Y00527660D01*
Y00532658D01*
Y00529326D02*
X00916002Y00525993D01*
X00925998Y00515997D02*
Y00522661D01*
X00916002D01*
Y00515997D01*
X00921000Y00522661D02*
Y00519329D01*
X00925998Y00506000D02*
Y00512664D01*
X00921000D01*
Y00509332D01*
Y00512664D01*
X00916002D01*
X00924332Y00502668D02*
X00925998Y00501002D01*
Y00497669D01*
X00924332Y00496003D01*
X00922666D01*
X00921000Y00497669D01*
Y00499336D01*
Y00497669D01*
X00919334Y00496003D01*
X00917668D01*
X00916002Y00497669D01*
Y00501002D01*
X00917668Y00502668D01*
X00924332Y00492671D02*
X00925998Y00491005D01*
Y00487673D01*
X00924332Y00486006D01*
X00917668D01*
X00916002Y00487673D01*
Y00491005D01*
X00917668Y00492671D01*
X00924332D01*
X00916002Y00482674D02*
Y00479342D01*
Y00481008D01*
X00925998D01*
X00924332Y00482674D01*
X00801332Y00749997D02*
X00802998Y00751663D01*
Y00754995D01*
X00801332Y00756661D01*
X00794668D01*
X00793002Y00754995D01*
Y00751663D01*
X00794668Y00749997D01*
X00801332Y00746665D02*
X00802998Y00744998D01*
Y00741666D01*
X00801332Y00740000D01*
X00799666D01*
X00798000Y00741666D01*
Y00743332D01*
Y00741666D01*
X00796334Y00740000D01*
X00794668D01*
X00793002Y00741666D01*
Y00744998D01*
X00794668Y00746665D01*
X00801332Y00736668D02*
X00802998Y00735002D01*
Y00731669D01*
X00801332Y00730003D01*
X00794668D01*
X00793002Y00731669D01*
Y00735002D01*
X00794668Y00736668D01*
X00801332D01*
X00793002Y00726671D02*
Y00723339D01*
Y00725005D01*
X00802998D01*
X00801332Y00726671D01*
X00759003Y00733998D02*
X00752339D01*
Y00724002D01*
X00759003D01*
X00752339Y00729000D02*
X00755671D01*
X00762336Y00732332D02*
X00764002Y00733998D01*
X00767334D01*
X00769000Y00732332D01*
Y00730666D01*
X00767334Y00729000D01*
X00765668D01*
X00767334D01*
X00769000Y00727334D01*
Y00725668D01*
X00767334Y00724002D01*
X00764002D01*
X00762336Y00725668D01*
X00772332Y00732332D02*
X00773998Y00733998D01*
X00777331D01*
X00778997Y00732332D01*
Y00725668D01*
X00777331Y00724002D01*
X00773998D01*
X00772332Y00725668D01*
Y00732332D01*
X00782329Y00724002D02*
X00785661D01*
X00783995D01*
Y00733998D01*
X00782329Y00732332D01*
X00673339Y00712998D02*
Y00704668D01*
X00675005Y00703002D01*
X00678337D01*
X00680003Y00704668D01*
Y00712998D01*
X00683335Y00711332D02*
X00685002Y00712998D01*
X00688334D01*
X00690000Y00711332D01*
Y00709666D01*
X00688334Y00708000D01*
X00686668D01*
X00688334D01*
X00690000Y00706334D01*
Y00704668D01*
X00688334Y00703002D01*
X00685002D01*
X00683335Y00704668D01*
X00693332Y00711332D02*
X00694998Y00712998D01*
X00698331D01*
X00699997Y00711332D01*
Y00704668D01*
X00698331Y00703002D01*
X00694998D01*
X00693332Y00704668D01*
Y00711332D01*
X00703329Y00703002D02*
X00706661D01*
X00704995D01*
Y00712998D01*
X00703329Y00711332D01*
X00877506Y00397002D02*
Y00406998D01*
X00882504D01*
X00884170Y00405332D01*
Y00402000D01*
X00882504Y00400334D01*
X00877506D01*
X00880838D02*
X00884170Y00397002D01*
X00887502Y00405332D02*
X00889169Y00406998D01*
X00892501D01*
X00894167Y00405332D01*
Y00403666D01*
X00892501Y00402000D01*
X00890835D01*
X00892501D01*
X00894167Y00400334D01*
Y00398668D01*
X00892501Y00397002D01*
X00889169D01*
X00887502Y00398668D01*
X00897499Y00397002D02*
X00900831D01*
X00899165D01*
Y00406998D01*
X00897499Y00405332D01*
X00905830D02*
X00907496Y00406998D01*
X00910828D01*
X00912494Y00405332D01*
Y00398668D01*
X00910828Y00397002D01*
X00907496D01*
X00905830Y00398668D01*
Y00405332D01*
X00878172Y00522002D02*
Y00531998D01*
X00883170D01*
X00884836Y00530332D01*
Y00527000D01*
X00883170Y00525334D01*
X00878172D01*
X00881504D02*
X00884836Y00522002D01*
X00888169Y00530332D02*
X00889835Y00531998D01*
X00893167D01*
X00894833Y00530332D01*
Y00528666D01*
X00893167Y00527000D01*
X00891501D01*
X00893167D01*
X00894833Y00525334D01*
Y00523668D01*
X00893167Y00522002D01*
X00889835D01*
X00888169Y00523668D01*
X00898165Y00522002D02*
X00901498D01*
X00899831D01*
Y00531998D01*
X00898165Y00530332D01*
X00906496Y00522002D02*
X00909828D01*
X00908162D01*
Y00531998D01*
X00906496Y00530332D01*
X00912668Y00673997D02*
X00919332D01*
X00920998Y00675663D01*
Y00678995D01*
X00919332Y00680661D01*
X00912668D01*
X00911002Y00678995D01*
Y00675663D01*
X00914334Y00677329D02*
X00911002Y00673997D01*
Y00675663D02*
X00912668Y00673997D01*
X00919332Y00670665D02*
X00920998Y00668998D01*
Y00665666D01*
X00919332Y00664000D01*
X00917666D01*
X00916000Y00665666D01*
Y00667332D01*
Y00665666D01*
X00914334Y00664000D01*
X00912668D01*
X00911002Y00665666D01*
Y00668998D01*
X00912668Y00670665D01*
X00919332Y00660668D02*
X00920998Y00659002D01*
Y00655669D01*
X00919332Y00654003D01*
X00912668D01*
X00911002Y00655669D01*
Y00659002D01*
X00912668Y00660668D01*
X00919332D01*
X00911002Y00650671D02*
Y00647339D01*
Y00649005D01*
X00920998D01*
X00919332Y00650671D01*
X00887332Y00509663D02*
X00888998Y00511329D01*
Y00514661D01*
X00887332Y00516327D01*
X00880668D01*
X00879002Y00514661D01*
Y00511329D01*
X00880668Y00509663D01*
X00887332Y00506331D02*
X00888998Y00504664D01*
Y00501332D01*
X00887332Y00499666D01*
X00885666D01*
X00884000Y00501332D01*
Y00502998D01*
Y00501332D01*
X00882334Y00499666D01*
X00880668D01*
X00879002Y00501332D01*
Y00504664D01*
X00880668Y00506331D01*
X00887332Y00496334D02*
X00888998Y00494668D01*
Y00491335D01*
X00887332Y00489669D01*
X00880668D01*
X00879002Y00491335D01*
Y00494668D01*
X00880668Y00496334D01*
X00887332D01*
Y00486337D02*
X00888998Y00484671D01*
Y00481339D01*
X00887332Y00479673D01*
X00885666D01*
X00884000Y00481339D01*
X00882334Y00479673D01*
X00880668D01*
X00879002Y00481339D01*
Y00484671D01*
X00880668Y00486337D01*
X00882334D01*
X00884000Y00484671D01*
X00885666Y00486337D01*
X00887332D01*
X00884000Y00484671D02*
Y00481339D01*
X00884337Y00610332D02*
X00882671Y00611998D01*
X00879339D01*
X00877673Y00610332D01*
Y00603668D01*
X00879339Y00602002D01*
X00882671D01*
X00884337Y00603668D01*
X00887669Y00610332D02*
X00889335Y00611998D01*
X00892668D01*
X00894334Y00610332D01*
Y00608666D01*
X00892668Y00607000D01*
X00891002D01*
X00892668D01*
X00894334Y00605334D01*
Y00603668D01*
X00892668Y00602002D01*
X00889335D01*
X00887669Y00603668D01*
X00897666Y00610332D02*
X00899332Y00611998D01*
X00902664D01*
X00904331Y00610332D01*
Y00603668D01*
X00902664Y00602002D01*
X00899332D01*
X00897666Y00603668D01*
Y00610332D01*
X00914327Y00602002D02*
X00907663D01*
X00914327Y00608666D01*
Y00610332D01*
X00912661Y00611998D01*
X00909329D01*
X00907663Y00610332D01*
X00815332Y00749663D02*
X00816998Y00751329D01*
Y00754661D01*
X00815332Y00756327D01*
X00808668D01*
X00807002Y00754661D01*
Y00751329D01*
X00808668Y00749663D01*
X00815332Y00746331D02*
X00816998Y00744665D01*
Y00741332D01*
X00815332Y00739666D01*
X00813666D01*
X00812000Y00741332D01*
Y00742998D01*
Y00741332D01*
X00810334Y00739666D01*
X00808668D01*
X00807002Y00741332D01*
Y00744665D01*
X00808668Y00746331D01*
X00815332Y00736334D02*
X00816998Y00734668D01*
Y00731336D01*
X00815332Y00729669D01*
X00808668D01*
X00807002Y00731336D01*
Y00734668D01*
X00808668Y00736334D01*
X00815332D01*
Y00726337D02*
X00816998Y00724671D01*
Y00721339D01*
X00815332Y00719673D01*
X00813666D01*
X00812000Y00721339D01*
Y00723005D01*
Y00721339D01*
X00810334Y00719673D01*
X00808668D01*
X00807002Y00721339D01*
Y00724671D01*
X00808668Y00726337D01*
X00757337Y00754332D02*
X00755671Y00755998D01*
X00752339D01*
X00750673Y00754332D01*
Y00747668D01*
X00752339Y00746002D01*
X00755671D01*
X00757337Y00747668D01*
X00760669Y00754332D02*
X00762336Y00755998D01*
X00765668D01*
X00767334Y00754332D01*
Y00752666D01*
X00765668Y00751000D01*
X00764002D01*
X00765668D01*
X00767334Y00749334D01*
Y00747668D01*
X00765668Y00746002D01*
X00762336D01*
X00760669Y00747668D01*
X00770666Y00754332D02*
X00772332Y00755998D01*
X00775665D01*
X00777331Y00754332D01*
Y00747668D01*
X00775665Y00746002D01*
X00772332D01*
X00770666Y00747668D01*
Y00754332D01*
X00785661Y00746002D02*
Y00755998D01*
X00780663Y00751000D01*
X00787327D01*
X00154000Y00062000D02*
X00160665Y00052003D01*
Y00062000D02*
X00154000Y00052003D01*
X00163997D02*
Y00062000D01*
X00168995D01*
X00170661Y00060334D01*
Y00057002D01*
X00168995Y00055335D01*
X00163997D01*
X00180658Y00052003D02*
X00173994D01*
X00180658Y00058668D01*
Y00060334D01*
X00178992Y00062000D01*
X00175660D01*
X00173994Y00060334D01*
X00183990D02*
X00185657Y00062000D01*
X00188989D01*
X00190655Y00060334D01*
Y00053669D01*
X00188989Y00052003D01*
X00185657D01*
X00183990Y00053669D01*
Y00060334D01*
X00193987Y00052003D02*
X00197319D01*
X00195653D01*
Y00062000D01*
X00193987Y00060334D01*
X00047674Y00062998D02*
X00054339Y00053002D01*
Y00062998D02*
X00047674Y00053002D01*
X00057671D02*
Y00062998D01*
X00062669D01*
X00064335Y00061332D01*
Y00058000D01*
X00062669Y00056334D01*
X00057671D01*
X00074332Y00053002D02*
X00067668D01*
X00074332Y00059666D01*
Y00061332D01*
X00072666Y00062998D01*
X00069334D01*
X00067668Y00061332D01*
X00077664D02*
X00079331Y00062998D01*
X00082663D01*
X00084329Y00061332D01*
Y00054668D01*
X00082663Y00053002D01*
X00079331D01*
X00077664Y00054668D01*
Y00061332D01*
X00094326Y00053002D02*
X00087661D01*
X00094326Y00059666D01*
Y00061332D01*
X00092660Y00062998D01*
X00089327D01*
X00087661Y00061332D01*
X00845674Y00062998D02*
X00852339Y00053002D01*
Y00062998D02*
X00845674Y00053002D01*
X00855671D02*
Y00062998D01*
X00860669D01*
X00862336Y00061332D01*
Y00058000D01*
X00860669Y00056334D01*
X00855671D01*
X00872332Y00053002D02*
X00865668D01*
X00872332Y00059666D01*
Y00061332D01*
X00870666Y00062998D01*
X00867334D01*
X00865668Y00061332D01*
X00875665D02*
X00877331Y00062998D01*
X00880663D01*
X00882329Y00061332D01*
Y00054668D01*
X00880663Y00053002D01*
X00877331D01*
X00875665Y00054668D01*
Y00061332D01*
X00885661D02*
X00887327Y00062998D01*
X00890660D01*
X00892326Y00061332D01*
Y00059666D01*
X00890660Y00058000D01*
X00888994D01*
X00890660D01*
X00892326Y00056334D01*
Y00054668D01*
X00890660Y00053002D01*
X00887327D01*
X00885661Y00054668D01*
X00047674Y00766998D02*
X00054339Y00757002D01*
Y00766998D02*
X00047674Y00757002D01*
X00057671D02*
Y00766998D01*
X00062669D01*
X00064335Y00765332D01*
Y00762000D01*
X00062669Y00760334D01*
X00057671D01*
X00074332Y00757002D02*
X00067668D01*
X00074332Y00763666D01*
Y00765332D01*
X00072666Y00766998D01*
X00069334D01*
X00067668Y00765332D01*
X00077664D02*
X00079331Y00766998D01*
X00082663D01*
X00084329Y00765332D01*
Y00758668D01*
X00082663Y00757002D01*
X00079331D01*
X00077664Y00758668D01*
Y00765332D01*
X00092660Y00757002D02*
Y00766998D01*
X00087661Y00762000D01*
X00094326D01*
X00845674Y00766998D02*
X00852339Y00757002D01*
Y00766998D02*
X00845674Y00757002D01*
X00855671D02*
Y00766998D01*
X00860669D01*
X00862336Y00765332D01*
Y00762000D01*
X00860669Y00760334D01*
X00855671D01*
X00872332Y00757002D02*
X00865668D01*
X00872332Y00763666D01*
Y00765332D01*
X00870666Y00766998D01*
X00867334D01*
X00865668Y00765332D01*
X00875665D02*
X00877331Y00766998D01*
X00880663D01*
X00882329Y00765332D01*
Y00758668D01*
X00880663Y00757002D01*
X00877331D01*
X00875665Y00758668D01*
Y00765332D01*
X00892326Y00766998D02*
X00885661D01*
Y00762000D01*
X00888994Y00763666D01*
X00890660D01*
X00892326Y00762000D01*
Y00758668D01*
X00890660Y00757002D01*
X00887327D01*
X00885661Y00758668D01*
D12*
X00899540Y00689460D02*
X00902079D01*
Y00686921D01*
X00899540D01*
Y00689460D01*
M02*
