G04*
G04 #@! TF.GenerationSoftware,Altium Limited,Altium Designer,22.1.2 (22)*
G04*
G04 Layer_Color=8388736*
%FSAX44Y44*%
%MOMM*%
G71*
G04*
G04 #@! TF.SameCoordinates,D4940EDF-FCE3-461B-A7F8-CC2F5B5D0F8E*
G04*
G04*
G04 #@! TF.FilePolarity,Negative*
G04*
G01*
G75*
%ADD13R,1.5000X1.0000*%
%ADD14R,0.8000X1.4000*%
%ADD15R,0.8000X0.8000*%
%ADD16R,0.8000X0.8000*%
%ADD17R,0.9500X0.8000*%
%ADD18R,0.6000X1.2000*%
G04:AMPARAMS|DCode=19|XSize=0.6mm|YSize=1.2mm|CornerRadius=0.15mm|HoleSize=0mm|Usage=FLASHONLY|Rotation=0.000|XOffset=0mm|YOffset=0mm|HoleType=Round|Shape=RoundedRectangle|*
%AMROUNDEDRECTD19*
21,1,0.6000,0.9000,0,0,0.0*
21,1,0.3000,1.2000,0,0,0.0*
1,1,0.3000,0.1500,-0.4500*
1,1,0.3000,-0.1500,-0.4500*
1,1,0.3000,-0.1500,0.4500*
1,1,0.3000,0.1500,0.4500*
%
%ADD19ROUNDEDRECTD19*%
%ADD20C,1.0000*%
%ADD21C,1.5000*%
G04:AMPARAMS|DCode=22|XSize=1.5mm|YSize=1.5mm|CornerRadius=0.375mm|HoleSize=0mm|Usage=FLASHONLY|Rotation=0.000|XOffset=0mm|YOffset=0mm|HoleType=Round|Shape=RoundedRectangle|*
%AMROUNDEDRECTD22*
21,1,1.5000,0.7500,0,0,0.0*
21,1,0.7500,1.5000,0,0,0.0*
1,1,0.7500,0.3750,-0.3750*
1,1,0.7500,-0.3750,-0.3750*
1,1,0.7500,-0.3750,0.3750*
1,1,0.7500,0.3750,0.3750*
%
%ADD22ROUNDEDRECTD22*%
%ADD23C,1.6000*%
G04:AMPARAMS|DCode=24|XSize=1.6mm|YSize=1.6mm|CornerRadius=0.4mm|HoleSize=0mm|Usage=FLASHONLY|Rotation=0.000|XOffset=0mm|YOffset=0mm|HoleType=Round|Shape=RoundedRectangle|*
%AMROUNDEDRECTD24*
21,1,1.6000,0.8000,0,0,0.0*
21,1,0.8000,1.6000,0,0,0.0*
1,1,0.8000,0.4000,-0.4000*
1,1,0.8000,-0.4000,-0.4000*
1,1,0.8000,-0.4000,0.4000*
1,1,0.8000,0.4000,0.4000*
%
%ADD24ROUNDEDRECTD24*%
%ADD25O,3.8000X2.9000*%
%ADD26C,4.5000*%
G36*
X00819398Y00885214D02*
X00819514D01*
X00819676Y00885191D01*
X00820023Y00885122D01*
X00820440Y00885029D01*
X00820902Y00884867D01*
X00821365Y00884659D01*
X00821851Y00884381D01*
X00821874D01*
X00821920Y00884335D01*
X00822059Y00884220D01*
X00822198Y00884011D01*
X00822244Y00883872D01*
X00822268Y00883710D01*
Y00883687D01*
Y00883664D01*
X00822244Y00883549D01*
X00822152Y00883363D01*
X00822106Y00883271D01*
X00822013Y00883155D01*
X00821967Y00883109D01*
X00821851Y00883039D01*
X00821643Y00882947D01*
X00821527Y00882924D01*
X00821411Y00882901D01*
X00821365D01*
X00821273Y00882924D01*
X00821111Y00882970D01*
X00820949Y00883039D01*
X00820902Y00883063D01*
X00820810Y00883132D01*
X00820625Y00883224D01*
X00820416Y00883340D01*
X00820139Y00883456D01*
X00819838Y00883549D01*
X00819491Y00883618D01*
X00819144Y00883641D01*
X00817316D01*
X00817154Y00883618D01*
X00816945Y00883572D01*
X00816714Y00883479D01*
X00816460Y00883387D01*
X00816228Y00883224D01*
X00815997Y00883016D01*
X00815974Y00882993D01*
X00815904Y00882901D01*
X00815812Y00882785D01*
X00815719Y00882600D01*
X00815627Y00882392D01*
X00815534Y00882137D01*
X00815465Y00881859D01*
X00815441Y00881559D01*
Y00881512D01*
Y00881420D01*
X00815465Y00881258D01*
X00815511Y00881073D01*
X00815580Y00880841D01*
X00815696Y00880610D01*
X00815835Y00880355D01*
X00816020Y00880124D01*
X00821111Y00875010D01*
X00821134Y00874987D01*
X00821157Y00874964D01*
X00821203Y00874894D01*
X00821273Y00874825D01*
X00821458Y00874594D01*
X00821666Y00874293D01*
X00821851Y00873899D01*
X00822036Y00873460D01*
X00822152Y00872974D01*
X00822198Y00872696D01*
Y00872418D01*
Y00872395D01*
Y00872349D01*
Y00872280D01*
X00822175Y00872187D01*
Y00872048D01*
X00822152Y00871909D01*
X00822083Y00871562D01*
X00821944Y00871169D01*
X00821758Y00870752D01*
X00821527Y00870313D01*
X00821365Y00870105D01*
X00821180Y00869896D01*
Y00869873D01*
X00821134Y00869850D01*
X00820995Y00869734D01*
X00820763Y00869549D01*
X00820463Y00869341D01*
X00820069Y00869133D01*
X00819630Y00868971D01*
X00819098Y00868832D01*
X00818820Y00868809D01*
X00818519Y00868785D01*
X00816714D01*
X00816598Y00868809D01*
X00816483D01*
X00816321Y00868832D01*
X00815974Y00868878D01*
X00815557Y00868994D01*
X00815094Y00869133D01*
X00814632Y00869318D01*
X00814169Y00869595D01*
X00814146Y00869619D01*
X00814122Y00869642D01*
X00813984Y00869781D01*
X00813868Y00869989D01*
X00813822Y00870128D01*
X00813799Y00870266D01*
Y00870290D01*
Y00870313D01*
X00813822Y00870452D01*
X00813891Y00870637D01*
X00814007Y00870822D01*
Y00870845D01*
X00814053Y00870868D01*
X00814169Y00870961D01*
X00814354Y00871030D01*
X00814470Y00871076D01*
X00814632D01*
X00814724Y00871053D01*
X00814886Y00871030D01*
X00815048Y00870938D01*
X00815094Y00870914D01*
X00815187Y00870845D01*
X00815349Y00870752D01*
X00815580Y00870660D01*
X00815835Y00870567D01*
X00816159Y00870475D01*
X00816483Y00870405D01*
X00816853Y00870382D01*
X00818681D01*
X00818797Y00870405D01*
X00819051Y00870452D01*
X00819329Y00870544D01*
X00819352D01*
X00819398Y00870567D01*
X00819468Y00870613D01*
X00819560Y00870660D01*
X00819769Y00870799D01*
X00819977Y00870984D01*
X00820000Y00871007D01*
X00820023Y00871030D01*
X00820139Y00871169D01*
X00820278Y00871377D01*
X00820416Y00871632D01*
Y00871655D01*
X00820440Y00871701D01*
X00820463Y00871770D01*
X00820509Y00871863D01*
X00820555Y00872141D01*
X00820578Y00872442D01*
Y00872465D01*
Y00872511D01*
Y00872580D01*
X00820555Y00872696D01*
X00820532Y00872927D01*
X00820440Y00873205D01*
Y00873228D01*
X00820416Y00873275D01*
X00820370Y00873344D01*
X00820324Y00873437D01*
X00820162Y00873668D01*
X00819930Y00873923D01*
X00814863Y00878990D01*
Y00879013D01*
X00814817Y00879036D01*
X00814701Y00879175D01*
X00814539Y00879407D01*
X00814354Y00879707D01*
X00814146Y00880078D01*
X00813984Y00880517D01*
X00813868Y00881026D01*
X00813845Y00881281D01*
X00813822Y00881559D01*
Y00881582D01*
Y00881628D01*
Y00881697D01*
X00813845Y00881813D01*
Y00881952D01*
X00813868Y00882091D01*
X00813937Y00882438D01*
X00814053Y00882854D01*
X00814238Y00883271D01*
X00814470Y00883687D01*
X00814793Y00884081D01*
X00814817Y00884104D01*
X00814840Y00884127D01*
X00814979Y00884266D01*
X00815210Y00884451D01*
X00815511Y00884659D01*
X00815904Y00884867D01*
X00816367Y00885052D01*
X00816876Y00885191D01*
X00817154Y00885214D01*
X00817455Y00885238D01*
X00819283D01*
X00819398Y00885214D01*
D02*
G37*
G36*
X00809124D02*
X00809240D01*
X00809402Y00885191D01*
X00809749Y00885122D01*
X00810166Y00885029D01*
X00810629Y00884867D01*
X00811091Y00884659D01*
X00811577Y00884381D01*
X00811600D01*
X00811647Y00884335D01*
X00811785Y00884220D01*
X00811924Y00884011D01*
X00811971Y00883872D01*
X00811994Y00883710D01*
Y00883687D01*
Y00883664D01*
X00811971Y00883549D01*
X00811878Y00883363D01*
X00811832Y00883271D01*
X00811739Y00883155D01*
X00811693Y00883109D01*
X00811577Y00883039D01*
X00811369Y00882947D01*
X00811253Y00882924D01*
X00811137Y00882901D01*
X00811091D01*
X00810999Y00882924D01*
X00810837Y00882970D01*
X00810675Y00883039D01*
X00810629Y00883063D01*
X00810536Y00883132D01*
X00810351Y00883224D01*
X00810143Y00883340D01*
X00809865Y00883456D01*
X00809564Y00883549D01*
X00809217Y00883618D01*
X00808870Y00883641D01*
X00807042D01*
X00806880Y00883618D01*
X00806672Y00883572D01*
X00806440Y00883479D01*
X00806186Y00883387D01*
X00805954Y00883224D01*
X00805723Y00883016D01*
X00805700Y00882993D01*
X00805630Y00882901D01*
X00805538Y00882785D01*
X00805445Y00882600D01*
X00805353Y00882392D01*
X00805260Y00882137D01*
X00805191Y00881859D01*
X00805168Y00881559D01*
Y00881512D01*
Y00881420D01*
X00805191Y00881258D01*
X00805237Y00881073D01*
X00805306Y00880841D01*
X00805422Y00880610D01*
X00805561Y00880355D01*
X00805746Y00880124D01*
X00810837Y00875010D01*
X00810860Y00874987D01*
X00810883Y00874964D01*
X00810929Y00874894D01*
X00810999Y00874825D01*
X00811184Y00874594D01*
X00811392Y00874293D01*
X00811577Y00873899D01*
X00811762Y00873460D01*
X00811878Y00872974D01*
X00811924Y00872696D01*
Y00872418D01*
Y00872395D01*
Y00872349D01*
Y00872280D01*
X00811901Y00872187D01*
Y00872048D01*
X00811878Y00871909D01*
X00811809Y00871562D01*
X00811670Y00871169D01*
X00811485Y00870752D01*
X00811253Y00870313D01*
X00811091Y00870105D01*
X00810906Y00869896D01*
Y00869873D01*
X00810860Y00869850D01*
X00810721Y00869734D01*
X00810490Y00869549D01*
X00810189Y00869341D01*
X00809795Y00869133D01*
X00809356Y00868971D01*
X00808824Y00868832D01*
X00808546Y00868809D01*
X00808245Y00868785D01*
X00806440D01*
X00806324Y00868809D01*
X00806209D01*
X00806047Y00868832D01*
X00805700Y00868878D01*
X00805283Y00868994D01*
X00804820Y00869133D01*
X00804358Y00869318D01*
X00803895Y00869595D01*
X00803872Y00869619D01*
X00803849Y00869642D01*
X00803710Y00869781D01*
X00803594Y00869989D01*
X00803548Y00870128D01*
X00803525Y00870266D01*
Y00870290D01*
Y00870313D01*
X00803548Y00870452D01*
X00803617Y00870637D01*
X00803733Y00870822D01*
Y00870845D01*
X00803779Y00870868D01*
X00803895Y00870961D01*
X00804080Y00871030D01*
X00804196Y00871076D01*
X00804358D01*
X00804450Y00871053D01*
X00804612Y00871030D01*
X00804774Y00870938D01*
X00804820Y00870914D01*
X00804913Y00870845D01*
X00805075Y00870752D01*
X00805306Y00870660D01*
X00805561Y00870567D01*
X00805885Y00870475D01*
X00806209Y00870405D01*
X00806579Y00870382D01*
X00808407D01*
X00808523Y00870405D01*
X00808777Y00870452D01*
X00809055Y00870544D01*
X00809078D01*
X00809124Y00870567D01*
X00809194Y00870613D01*
X00809286Y00870660D01*
X00809495Y00870799D01*
X00809703Y00870984D01*
X00809726Y00871007D01*
X00809749Y00871030D01*
X00809865Y00871169D01*
X00810004Y00871377D01*
X00810143Y00871632D01*
Y00871655D01*
X00810166Y00871701D01*
X00810189Y00871770D01*
X00810235Y00871863D01*
X00810281Y00872141D01*
X00810304Y00872442D01*
Y00872465D01*
Y00872511D01*
Y00872580D01*
X00810281Y00872696D01*
X00810258Y00872927D01*
X00810166Y00873205D01*
Y00873228D01*
X00810143Y00873275D01*
X00810096Y00873344D01*
X00810050Y00873437D01*
X00809888Y00873668D01*
X00809657Y00873923D01*
X00804589Y00878990D01*
Y00879013D01*
X00804543Y00879036D01*
X00804427Y00879175D01*
X00804265Y00879407D01*
X00804080Y00879707D01*
X00803872Y00880078D01*
X00803710Y00880517D01*
X00803594Y00881026D01*
X00803571Y00881281D01*
X00803548Y00881559D01*
Y00881582D01*
Y00881628D01*
Y00881697D01*
X00803571Y00881813D01*
Y00881952D01*
X00803594Y00882091D01*
X00803663Y00882438D01*
X00803779Y00882854D01*
X00803964Y00883271D01*
X00804196Y00883687D01*
X00804520Y00884081D01*
X00804543Y00884104D01*
X00804566Y00884127D01*
X00804705Y00884266D01*
X00804936Y00884451D01*
X00805237Y00884659D01*
X00805630Y00884867D01*
X00806093Y00885052D01*
X00806602Y00885191D01*
X00806880Y00885214D01*
X00807181Y00885238D01*
X00809009D01*
X00809124Y00885214D01*
D02*
G37*
G36*
X00801095D02*
X00801280Y00885145D01*
X00801465Y00885006D01*
X00801488D01*
X00801512Y00884960D01*
X00801604Y00884844D01*
X00801674Y00884659D01*
X00801720Y00884544D01*
Y00884405D01*
Y00869572D01*
Y00869549D01*
Y00869526D01*
X00801697Y00869364D01*
X00801604Y00869179D01*
X00801558Y00869086D01*
X00801465Y00868994D01*
X00801419Y00868971D01*
X00801303Y00868901D01*
X00801141Y00868809D01*
X00800910Y00868785D01*
X00800817D01*
X00800725Y00868809D01*
X00800632Y00868832D01*
X00800517Y00868878D01*
X00800401Y00868948D01*
X00800285Y00869040D01*
X00800216Y00869156D01*
X00794871Y00881582D01*
Y00869572D01*
Y00869549D01*
X00794847Y00869457D01*
X00794824Y00869318D01*
X00794778Y00869179D01*
X00794662Y00869040D01*
X00794523Y00868901D01*
X00794315Y00868809D01*
X00794037Y00868785D01*
X00793991D01*
X00793829Y00868809D01*
X00793644Y00868878D01*
X00793459Y00868994D01*
X00793436Y00869040D01*
X00793366Y00869156D01*
X00793274Y00869318D01*
X00793251Y00869572D01*
Y00884405D01*
Y00884428D01*
Y00884474D01*
X00793274Y00884613D01*
X00793343Y00884821D01*
X00793459Y00885006D01*
X00793505Y00885052D01*
X00793621Y00885122D01*
X00793806Y00885191D01*
X00794037Y00885238D01*
X00794084D01*
X00794176Y00885214D01*
X00794315Y00885191D01*
X00794454Y00885099D01*
X00794500Y00885076D01*
X00794570Y00885006D01*
X00794662Y00884914D01*
X00794755Y00884752D01*
X00800100Y00872395D01*
Y00884405D01*
Y00884451D01*
X00800123Y00884544D01*
X00800146Y00884659D01*
X00800193Y00884821D01*
X00800308Y00884983D01*
X00800447Y00885099D01*
X00800632Y00885191D01*
X00800910Y00885238D01*
X00800956D01*
X00801095Y00885214D01*
D02*
G37*
G36*
X00837609Y00880633D02*
X00837794Y00880564D01*
X00838002Y00880448D01*
X00838026D01*
X00838049Y00880402D01*
X00838141Y00880309D01*
X00838211Y00880124D01*
X00838257Y00880008D01*
Y00879869D01*
Y00879823D01*
Y00879754D01*
X00838234Y00879661D01*
X00838211Y00879592D01*
X00835365Y00869433D01*
Y00869410D01*
X00835318Y00869341D01*
X00835272Y00869225D01*
X00835202Y00869109D01*
X00835087Y00868971D01*
X00834948Y00868878D01*
X00834763Y00868785D01*
X00834555Y00868762D01*
X00834508D01*
X00834416Y00868785D01*
X00834254Y00868832D01*
X00834092Y00868924D01*
X00834069Y00868948D01*
X00833976Y00869040D01*
X00833907Y00869156D01*
X00833860Y00869271D01*
X00830968Y00879592D01*
Y00879615D01*
X00830945Y00879638D01*
X00830922Y00879731D01*
Y00879869D01*
Y00879892D01*
Y00879939D01*
X00830945Y00880078D01*
X00831014Y00880239D01*
X00831153Y00880425D01*
X00831176D01*
X00831199Y00880471D01*
X00831315Y00880540D01*
X00831500Y00880610D01*
X00831732Y00880656D01*
X00831824D01*
X00831917Y00880633D01*
X00832056Y00880587D01*
X00832171Y00880517D01*
X00832310Y00880402D01*
X00832426Y00880263D01*
X00832518Y00880054D01*
X00834578Y00872002D01*
X00836660Y00880054D01*
Y00880078D01*
X00836683Y00880147D01*
X00836730Y00880239D01*
X00836799Y00880355D01*
X00836892Y00880471D01*
X00837030Y00880564D01*
X00837216Y00880633D01*
X00837424Y00880656D01*
X00837470D01*
X00837609Y00880633D01*
D02*
G37*
G36*
X00862276Y00885214D02*
X00862414Y00885191D01*
X00862576Y00885168D01*
X00862947Y00885053D01*
X00863363Y00884891D01*
X00863595Y00884775D01*
X00863826Y00884636D01*
X00864057Y00884474D01*
X00864289Y00884289D01*
X00864497Y00884081D01*
X00864728Y00883826D01*
X00864752D01*
X00864775Y00883803D01*
X00864890Y00883687D01*
X00865052Y00883502D01*
X00865237Y00883271D01*
X00865399Y00882947D01*
X00865561Y00882553D01*
X00865677Y00882091D01*
X00865723Y00881836D01*
Y00881559D01*
Y00872418D01*
Y00872395D01*
Y00872349D01*
Y00872280D01*
X00865700Y00872164D01*
Y00872048D01*
X00865677Y00871886D01*
X00865584Y00871539D01*
X00865469Y00871123D01*
X00865261Y00870706D01*
X00865006Y00870266D01*
X00864821Y00870058D01*
X00864636Y00869850D01*
X00864613D01*
X00864589Y00869804D01*
X00864520Y00869757D01*
X00864451Y00869688D01*
X00864219Y00869503D01*
X00863919Y00869318D01*
X00863525Y00869133D01*
X00863085Y00868948D01*
X00862576Y00868832D01*
X00862299Y00868809D01*
X00862021Y00868786D01*
X00860748D01*
X00860633Y00868809D01*
X00860494D01*
X00860355Y00868832D01*
X00859985Y00868924D01*
X00859591Y00869040D01*
X00859152Y00869225D01*
X00858712Y00869480D01*
X00858504Y00869642D01*
X00858296Y00869827D01*
Y00869850D01*
X00858249Y00869873D01*
X00858203Y00869942D01*
X00858134Y00870012D01*
X00857972Y00870243D01*
X00857786Y00870544D01*
X00857578Y00870938D01*
X00857416Y00871377D01*
X00857301Y00871863D01*
X00857278Y00872141D01*
X00857254Y00872418D01*
Y00881559D01*
Y00881582D01*
Y00881628D01*
Y00881697D01*
X00857278Y00881813D01*
Y00881952D01*
X00857324Y00882091D01*
X00857393Y00882461D01*
X00857532Y00882878D01*
X00857717Y00883317D01*
X00857995Y00883780D01*
X00858157Y00884011D01*
X00858342Y00884220D01*
X00858365Y00884243D01*
X00858388Y00884266D01*
X00858527Y00884381D01*
X00858735Y00884544D01*
X00859036Y00884729D01*
X00859406Y00884914D01*
X00859846Y00885076D01*
X00860332Y00885191D01*
X00860610Y00885238D01*
X00862183D01*
X00862276Y00885214D01*
D02*
G37*
G36*
X00854778Y00870359D02*
X00854894Y00870336D01*
X00855056Y00870290D01*
X00855218Y00870174D01*
X00855334Y00870035D01*
X00855426Y00869850D01*
X00855473Y00869572D01*
Y00869549D01*
Y00869526D01*
X00855450Y00869387D01*
X00855380Y00869202D01*
X00855241Y00869017D01*
X00855195Y00868971D01*
X00855079Y00868901D01*
X00854894Y00868832D01*
X00854640Y00868785D01*
X00854570D01*
X00854431Y00868809D01*
X00854246Y00868878D01*
X00854061Y00868994D01*
X00854038Y00869040D01*
X00853969Y00869156D01*
X00853876Y00869341D01*
X00853853Y00869572D01*
Y00869595D01*
Y00869619D01*
X00853876Y00869757D01*
X00853945Y00869942D01*
X00854061Y00870128D01*
Y00870151D01*
X00854107Y00870174D01*
X00854223Y00870266D01*
X00854385Y00870336D01*
X00854501Y00870382D01*
X00854686D01*
X00854778Y00870359D01*
D02*
G37*
G36*
X00851354Y00885191D02*
X00851539Y00885122D01*
X00851747Y00884983D01*
X00851770D01*
X00851793Y00884937D01*
X00851886Y00884844D01*
X00851955Y00884659D01*
X00852002Y00884544D01*
Y00884405D01*
Y00869572D01*
Y00869549D01*
Y00869503D01*
X00851979Y00869433D01*
Y00869341D01*
X00851886Y00869156D01*
X00851840Y00869063D01*
X00851747Y00868971D01*
X00851701Y00868948D01*
X00851585Y00868878D01*
X00851423Y00868809D01*
X00851192Y00868785D01*
X00851145D01*
X00850984Y00868809D01*
X00850798Y00868878D01*
X00850613Y00868994D01*
X00850567Y00869040D01*
X00850498Y00869156D01*
X00850428Y00869318D01*
X00850382Y00869572D01*
Y00882831D01*
X00848346Y00880425D01*
X00848299Y00880378D01*
X00848184Y00880309D01*
X00847999Y00880239D01*
X00847767Y00880193D01*
X00847721D01*
X00847582Y00880216D01*
X00847397Y00880286D01*
X00847189Y00880425D01*
X00847142Y00880471D01*
X00847073Y00880587D01*
X00847004Y00880772D01*
X00846957Y00881003D01*
Y00881026D01*
Y00881049D01*
X00846980Y00881188D01*
X00847073Y00881373D01*
X00847119Y00881466D01*
X00847212Y00881559D01*
X00850637Y00884983D01*
X00850683Y00885029D01*
X00850775Y00885099D01*
X00850937Y00885168D01*
X00851169Y00885214D01*
X00851215D01*
X00851354Y00885191D01*
D02*
G37*
G36*
X00790752Y00885214D02*
X00790891Y00885191D01*
X00791052Y00885145D01*
X00791191Y00885029D01*
X00791330Y00884891D01*
X00791423Y00884705D01*
X00791469Y00884428D01*
Y00884405D01*
Y00884381D01*
X00791446Y00884243D01*
X00791376Y00884057D01*
X00791238Y00883872D01*
X00791191Y00883826D01*
X00791076Y00883757D01*
X00790867Y00883687D01*
X00790613Y00883641D01*
X00786471D01*
X00786378Y00883618D01*
X00786124Y00883572D01*
X00785846Y00883479D01*
X00785823D01*
X00785777Y00883456D01*
X00785731Y00883410D01*
X00785638Y00883363D01*
X00785430Y00883224D01*
X00785198Y00883016D01*
Y00882993D01*
X00785152Y00882970D01*
X00785036Y00882831D01*
X00784897Y00882623D01*
X00784759Y00882368D01*
Y00882345D01*
X00784735Y00882299D01*
X00784712Y00882230D01*
X00784689Y00882137D01*
X00784643Y00881882D01*
X00784620Y00881559D01*
Y00872418D01*
Y00872395D01*
Y00872349D01*
Y00872256D01*
X00784643Y00872164D01*
X00784689Y00871886D01*
X00784759Y00871609D01*
Y00871585D01*
X00784782Y00871539D01*
X00784828Y00871470D01*
X00784874Y00871400D01*
X00785013Y00871169D01*
X00785198Y00870961D01*
X00785221D01*
X00785245Y00870914D01*
X00785383Y00870799D01*
X00785592Y00870660D01*
X00785846Y00870521D01*
X00785869D01*
X00785916Y00870498D01*
X00785985Y00870475D01*
X00786077Y00870452D01*
X00786332Y00870405D01*
X00786633Y00870382D01*
X00789849D01*
Y00876769D01*
X00788322D01*
X00788230Y00876792D01*
X00788091Y00876815D01*
X00787952Y00876861D01*
X00787813Y00876977D01*
X00787674Y00877116D01*
X00787582Y00877301D01*
X00787559Y00877579D01*
Y00877602D01*
Y00877625D01*
X00787582Y00877740D01*
X00787628Y00877926D01*
X00787744Y00878111D01*
Y00878134D01*
X00787790Y00878157D01*
X00787906Y00878250D01*
X00788091Y00878319D01*
X00788206Y00878365D01*
X00790659D01*
X00790752Y00878342D01*
X00790891Y00878319D01*
X00791052Y00878273D01*
X00791191Y00878157D01*
X00791330Y00878018D01*
X00791423Y00877833D01*
X00791469Y00877555D01*
Y00869572D01*
Y00869549D01*
X00791446Y00869457D01*
X00791423Y00869318D01*
X00791353Y00869179D01*
X00791261Y00869040D01*
X00791099Y00868901D01*
X00790891Y00868809D01*
X00790613Y00868785D01*
X00786494D01*
X00786378Y00868809D01*
X00786239D01*
X00786101Y00868832D01*
X00785731Y00868924D01*
X00785337Y00869040D01*
X00784897Y00869225D01*
X00784481Y00869480D01*
X00784273Y00869642D01*
X00784064Y00869827D01*
Y00869850D01*
X00784018Y00869873D01*
X00783972Y00869942D01*
X00783902Y00870012D01*
X00783717Y00870243D01*
X00783532Y00870544D01*
X00783347Y00870938D01*
X00783162Y00871377D01*
X00783046Y00871863D01*
X00783023Y00872141D01*
X00783000Y00872418D01*
Y00881559D01*
Y00881582D01*
Y00881628D01*
Y00881697D01*
X00783023Y00881813D01*
Y00881952D01*
X00783046Y00882091D01*
X00783139Y00882438D01*
X00783254Y00882854D01*
X00783440Y00883294D01*
X00783694Y00883734D01*
X00783856Y00883942D01*
X00784041Y00884150D01*
X00784064Y00884173D01*
X00784088Y00884196D01*
X00784157Y00884243D01*
X00784226Y00884312D01*
X00784458Y00884497D01*
X00784759Y00884705D01*
X00785152Y00884891D01*
X00785592Y00885076D01*
X00786077Y00885191D01*
X00786355Y00885238D01*
X00790659D01*
X00790752Y00885214D01*
D02*
G37*
%LPC*%
G36*
X00862021Y00883641D02*
X00860725D01*
X00860633Y00883618D01*
X00860378Y00883572D01*
X00860100Y00883479D01*
X00860077D01*
X00860031Y00883456D01*
X00859985Y00883410D01*
X00859892Y00883363D01*
X00859684Y00883224D01*
X00859453Y00883016D01*
Y00882993D01*
X00859406Y00882970D01*
X00859291Y00882831D01*
X00859152Y00882623D01*
X00859013Y00882368D01*
Y00882345D01*
X00858990Y00882299D01*
X00858967Y00882230D01*
X00858943Y00882137D01*
X00858897Y00881882D01*
X00858874Y00881559D01*
Y00872418D01*
Y00872395D01*
Y00872349D01*
Y00872256D01*
X00858897Y00872164D01*
X00858943Y00871886D01*
X00859013Y00871609D01*
Y00871585D01*
X00859036Y00871539D01*
X00859082Y00871470D01*
X00859129Y00871400D01*
X00859268Y00871169D01*
X00859453Y00870961D01*
X00859476D01*
X00859499Y00870914D01*
X00859638Y00870799D01*
X00859846Y00870660D01*
X00860100Y00870521D01*
X00860124D01*
X00860170Y00870498D01*
X00860239Y00870475D01*
X00860332Y00870452D01*
X00860586Y00870405D01*
X00860887Y00870382D01*
X00862183D01*
X00862345Y00870405D01*
X00862553Y00870452D01*
X00862785Y00870521D01*
X00863016Y00870614D01*
X00863271Y00870752D01*
X00863502Y00870938D01*
X00863525Y00870961D01*
X00863595Y00871053D01*
X00863687Y00871169D01*
X00863803Y00871331D01*
X00863919Y00871562D01*
X00864011Y00871817D01*
X00864081Y00872094D01*
X00864104Y00872418D01*
Y00881559D01*
Y00881582D01*
Y00881628D01*
Y00881697D01*
X00864081Y00881813D01*
X00864034Y00882044D01*
X00863942Y00882322D01*
Y00882345D01*
X00863919Y00882392D01*
X00863872Y00882461D01*
X00863826Y00882553D01*
X00863687Y00882762D01*
X00863479Y00882993D01*
X00863456Y00883016D01*
X00863433Y00883039D01*
X00863294Y00883155D01*
X00863085Y00883317D01*
X00862831Y00883456D01*
X00862808D01*
X00862762Y00883479D01*
X00862692Y00883525D01*
X00862599Y00883549D01*
X00862345Y00883618D01*
X00862021Y00883641D01*
D02*
G37*
%LPD*%
D13*
X00222000Y00660000D02*
D03*
X00196000D02*
D03*
D14*
X00900000Y00626000D02*
D03*
X00880000D02*
D03*
D15*
X00881000Y00580000D02*
D03*
X00897500D02*
D03*
X00783250Y00708000D02*
D03*
X00766750D02*
D03*
X00783250Y00690000D02*
D03*
X00766750D02*
D03*
X00880750Y00418000D02*
D03*
X00897250D02*
D03*
D16*
X00798000Y00690750D02*
D03*
X00798000Y00707250D02*
D03*
X00880000Y00565250D02*
D03*
Y00548750D02*
D03*
X00812000Y00707250D02*
D03*
Y00690750D02*
D03*
D17*
X00899000Y00565500D02*
D03*
X00919000Y00556000D02*
D03*
X00899000Y00546500D02*
D03*
D18*
X00900500Y00645500D02*
D03*
X00891000Y00645500D02*
D03*
X00881500Y00645500D02*
D03*
Y00672500D02*
D03*
X00891000Y00672500D02*
D03*
D19*
X00900500Y00672500D02*
D03*
D20*
X00197000Y00646000D02*
Y00660000D01*
X00223000Y00646000D02*
Y00660000D01*
D21*
X00457300Y00423999D02*
D03*
X00482700D02*
D03*
X00508100D02*
D03*
D22*
X00431900D02*
D03*
D23*
X00171300Y00880000D02*
D03*
X00196700D02*
D03*
X00222100D02*
D03*
X00171300Y00782000D02*
D03*
X00145900D02*
D03*
X00266800Y00105700D02*
D03*
Y00080300D02*
D03*
X00292200Y00105700D02*
D03*
Y00080300D02*
D03*
X00317600Y00105700D02*
D03*
Y00080300D02*
D03*
X00343000Y00105700D02*
D03*
Y00080300D02*
D03*
X00368400Y00105700D02*
D03*
Y00080300D02*
D03*
X00393800Y00105700D02*
D03*
Y00080300D02*
D03*
X00419200Y00105700D02*
D03*
Y00080300D02*
D03*
X00444600Y00105700D02*
D03*
Y00080300D02*
D03*
X00470000Y00105700D02*
D03*
Y00080300D02*
D03*
X00495400Y00105700D02*
D03*
Y00080300D02*
D03*
X00520800Y00105700D02*
D03*
Y00080300D02*
D03*
X00546200Y00105700D02*
D03*
Y00080300D02*
D03*
X00571600Y00105700D02*
D03*
Y00080300D02*
D03*
X00597000Y00105700D02*
D03*
Y00080300D02*
D03*
X00622400Y00105700D02*
D03*
Y00080300D02*
D03*
X00647800Y00105700D02*
D03*
Y00080300D02*
D03*
X00673200Y00105700D02*
D03*
Y00080300D02*
D03*
X00698600Y00105700D02*
D03*
Y00080300D02*
D03*
X00724000Y00105700D02*
D03*
Y00080300D02*
D03*
X00749400Y00105700D02*
D03*
Y00080300D02*
D03*
X00774800Y00105700D02*
D03*
Y00080300D02*
D03*
X00216000Y00105700D02*
D03*
X00190600D02*
D03*
X00216000Y00080300D02*
D03*
X00190600D02*
D03*
X00165200D02*
D03*
X00241400Y00105700D02*
D03*
Y00080300D02*
D03*
X00679100Y00595100D02*
D03*
Y00620500D02*
D03*
Y00468100D02*
D03*
Y00442700D02*
D03*
Y00544300D02*
D03*
Y00493500D02*
D03*
X00679100Y00569700D02*
D03*
Y00518900D02*
D03*
Y00645900D02*
D03*
X00856900Y00620500D02*
D03*
X00679100Y00239500D02*
D03*
Y00214100D02*
D03*
Y00315700D02*
D03*
Y00264900D02*
D03*
Y00391900D02*
D03*
Y00366500D02*
D03*
X00679100Y00417300D02*
D03*
X00856900Y00391900D02*
D03*
X00679100Y00290300D02*
D03*
Y00188700D02*
D03*
Y00341100D02*
D03*
X00856900Y00493500D02*
D03*
Y00366500D02*
D03*
Y00341100D02*
D03*
Y00442700D02*
D03*
Y00417300D02*
D03*
Y00645900D02*
D03*
Y00569700D02*
D03*
Y00671300D02*
D03*
X00856900Y00595100D02*
D03*
X00856900Y00544300D02*
D03*
Y00518900D02*
D03*
X00856900Y00468100D02*
D03*
X00856900Y00214100D02*
D03*
Y00188700D02*
D03*
Y00315700D02*
D03*
Y00290300D02*
D03*
Y00264900D02*
D03*
X00856900Y00239500D02*
D03*
X00197000Y00646000D02*
D03*
X00223000D02*
D03*
X00169000Y00710000D02*
D03*
X00249000D02*
D03*
D24*
X00145900Y00880000D02*
D03*
X00165200Y00105700D02*
D03*
X00679100Y00671300D02*
D03*
D25*
X00046000Y00095500D02*
D03*
Y00020500D02*
D03*
X00096000D02*
D03*
Y00095500D02*
D03*
X00894000Y00020500D02*
D03*
Y00095500D02*
D03*
X00844000D02*
D03*
Y00020500D02*
D03*
X00046000Y00799500D02*
D03*
Y00724500D02*
D03*
X00096000D02*
D03*
Y00799500D02*
D03*
X00894000Y00724500D02*
D03*
Y00799500D02*
D03*
X00844000D02*
D03*
Y00724500D02*
D03*
D26*
X00366500Y00738500D02*
D03*
X00573500D02*
D03*
M02*
