G04*
G04 #@! TF.GenerationSoftware,Altium Limited,Altium Designer,22.1.2 (22)*
G04*
G04 Layer_Physical_Order=2*
G04 Layer_Color=16711680*
%FSAX44Y44*%
%MOMM*%
G71*
G04*
G04 #@! TF.SameCoordinates,D4940EDF-FCE3-461B-A7F8-CC2F5B5D0F8E*
G04*
G04*
G04 #@! TF.FilePolarity,Positive*
G04*
G01*
G75*
%ADD15R,0.8000X0.8000*%
%ADD16R,0.8000X0.8000*%
%ADD17R,0.9500X0.8000*%
%ADD20C,1.0000*%
%ADD21C,1.5000*%
G04:AMPARAMS|DCode=22|XSize=1.5mm|YSize=1.5mm|CornerRadius=0.375mm|HoleSize=0mm|Usage=FLASHONLY|Rotation=0.000|XOffset=0mm|YOffset=0mm|HoleType=Round|Shape=RoundedRectangle|*
%AMROUNDEDRECTD22*
21,1,1.5000,0.7500,0,0,0.0*
21,1,0.7500,1.5000,0,0,0.0*
1,1,0.7500,0.3750,-0.3750*
1,1,0.7500,-0.3750,-0.3750*
1,1,0.7500,-0.3750,0.3750*
1,1,0.7500,0.3750,0.3750*
%
%ADD22ROUNDEDRECTD22*%
%ADD23C,1.6000*%
G04:AMPARAMS|DCode=24|XSize=1.6mm|YSize=1.6mm|CornerRadius=0.4mm|HoleSize=0mm|Usage=FLASHONLY|Rotation=0.000|XOffset=0mm|YOffset=0mm|HoleType=Round|Shape=RoundedRectangle|*
%AMROUNDEDRECTD24*
21,1,1.6000,0.8000,0,0,0.0*
21,1,0.8000,1.6000,0,0,0.0*
1,1,0.8000,0.4000,-0.4000*
1,1,0.8000,-0.4000,-0.4000*
1,1,0.8000,-0.4000,0.4000*
1,1,0.8000,0.4000,0.4000*
%
%ADD24ROUNDEDRECTD24*%
%ADD25O,3.8000X2.9000*%
%ADD26C,4.5000*%
%ADD27C,0.3000*%
%ADD28C,0.5000*%
%ADD29C,1.5000*%
%ADD30C,0.8000*%
%ADD31C,0.4000*%
%ADD32C,0.6500*%
G04:AMPARAMS|DCode=33|XSize=0.6mm|YSize=1.2mm|CornerRadius=0.15mm|HoleSize=0mm|Usage=FLASHONLY|Rotation=90.000|XOffset=0mm|YOffset=0mm|HoleType=Round|Shape=RoundedRectangle|*
%AMROUNDEDRECTD33*
21,1,0.6000,0.9000,0,0,90.0*
21,1,0.3000,1.2000,0,0,90.0*
1,1,0.3000,0.4500,0.1500*
1,1,0.3000,0.4500,-0.1500*
1,1,0.3000,-0.4500,-0.1500*
1,1,0.3000,-0.4500,0.1500*
%
%ADD33ROUNDEDRECTD33*%
%ADD34R,1.2000X0.6000*%
%ADD35R,0.8000X0.9500*%
%ADD36R,1.1500X0.4500*%
G04:AMPARAMS|DCode=37|XSize=1.15mm|YSize=0.45mm|CornerRadius=0.1125mm|HoleSize=0mm|Usage=FLASHONLY|Rotation=180.000|XOffset=0mm|YOffset=0mm|HoleType=Round|Shape=RoundedRectangle|*
%AMROUNDEDRECTD37*
21,1,1.1500,0.2250,0,0,180.0*
21,1,0.9250,0.4500,0,0,180.0*
1,1,0.2250,-0.4625,0.1125*
1,1,0.2250,0.4625,0.1125*
1,1,0.2250,0.4625,-0.1125*
1,1,0.2250,-0.4625,-0.1125*
%
%ADD37ROUNDEDRECTD37*%
%ADD38R,0.6000X1.5500*%
G04:AMPARAMS|DCode=39|XSize=1.55mm|YSize=0.6mm|CornerRadius=0.15mm|HoleSize=0mm|Usage=FLASHONLY|Rotation=270.000|XOffset=0mm|YOffset=0mm|HoleType=Round|Shape=RoundedRectangle|*
%AMROUNDEDRECTD39*
21,1,1.5500,0.3000,0,0,270.0*
21,1,1.2500,0.6000,0,0,270.0*
1,1,0.3000,-0.1500,-0.6250*
1,1,0.3000,-0.1500,0.6250*
1,1,0.3000,0.1500,0.6250*
1,1,0.3000,0.1500,-0.6250*
%
%ADD39ROUNDEDRECTD39*%
%ADD40R,5.5000X2.0000*%
%ADD41R,1.9000X0.6000*%
G04:AMPARAMS|DCode=42|XSize=1.9mm|YSize=0.6mm|CornerRadius=0.15mm|HoleSize=0mm|Usage=FLASHONLY|Rotation=0.000|XOffset=0mm|YOffset=0mm|HoleType=Round|Shape=RoundedRectangle|*
%AMROUNDEDRECTD42*
21,1,1.9000,0.3000,0,0,0.0*
21,1,1.6000,0.6000,0,0,0.0*
1,1,0.3000,0.8000,-0.1500*
1,1,0.3000,-0.8000,-0.1500*
1,1,0.3000,-0.8000,0.1500*
1,1,0.3000,0.8000,0.1500*
%
%ADD42ROUNDEDRECTD42*%
%ADD43C,0.4500*%
%ADD44C,0.7500*%
G36*
X00874902Y00844000D02*
X00875290Y00842049D01*
X00876395Y00840395D01*
X00899395Y00817395D01*
X00901049Y00816290D01*
X00903000Y00815902D01*
X00934902D01*
X00934902Y00005098D01*
X00005098Y00005098D01*
X00005098Y00815902D01*
X00037000Y00815902D01*
X00038951Y00816290D01*
X00040605Y00817395D01*
X00063605Y00840395D01*
X00064710Y00842049D01*
X00065098Y00844000D01*
Y00894902D01*
X00250000Y00894902D01*
X00250975D01*
X00252888Y00894522D01*
X00254690Y00893775D01*
X00256312Y00892691D01*
X00257691Y00891312D01*
X00258775Y00889690D01*
X00259522Y00887888D01*
X00259902Y00885975D01*
X00259902Y00885000D01*
Y00865000D01*
X00259927Y00864875D01*
X00259908Y00864750D01*
X00259981Y00863280D01*
X00260072Y00862913D01*
Y00862535D01*
X00260646Y00859651D01*
X00260838Y00859187D01*
X00260936Y00858695D01*
X00262061Y00855978D01*
X00262340Y00855561D01*
X00262533Y00855097D01*
X00264166Y00852652D01*
X00264521Y00852297D01*
X00264800Y00851879D01*
X00266879Y00849800D01*
X00267297Y00849521D01*
X00267652Y00849166D01*
X00270097Y00847533D01*
X00270561Y00847340D01*
X00270978Y00847061D01*
X00273695Y00845936D01*
X00274187Y00845838D01*
X00274651Y00845646D01*
X00277535Y00845072D01*
X00277913D01*
X00278280Y00844980D01*
X00279750Y00844908D01*
X00279876Y00844927D01*
X00280000Y00844902D01*
X00310975Y00844902D01*
X00312888Y00844522D01*
X00314690Y00843775D01*
X00316312Y00842691D01*
X00317691Y00841312D01*
X00318775Y00839690D01*
X00319522Y00837888D01*
X00319902Y00835975D01*
X00319902Y00835000D01*
Y00830000D01*
X00319927Y00829875D01*
X00319908Y00829750D01*
X00319981Y00828280D01*
X00320072Y00827913D01*
Y00827535D01*
X00320646Y00824651D01*
X00320838Y00824187D01*
X00320936Y00823695D01*
X00322061Y00820978D01*
X00322340Y00820561D01*
X00322533Y00820097D01*
X00324166Y00817652D01*
X00324521Y00817297D01*
X00324800Y00816879D01*
X00326879Y00814800D01*
X00327297Y00814521D01*
X00327652Y00814166D01*
X00330097Y00812533D01*
X00330561Y00812340D01*
X00330978Y00812061D01*
X00333695Y00810936D01*
X00334187Y00810838D01*
X00334651Y00810646D01*
X00337535Y00810072D01*
X00337913D01*
X00338280Y00809980D01*
X00339750Y00809908D01*
X00339875Y00809927D01*
X00340000Y00809902D01*
X00600000D01*
X00600125Y00809927D01*
X00600250Y00809908D01*
X00601720Y00809980D01*
X00602087Y00810072D01*
X00602465D01*
X00605349Y00810646D01*
X00605813Y00810838D01*
X00606305Y00810936D01*
X00609022Y00812061D01*
X00609439Y00812340D01*
X00609903Y00812533D01*
X00612348Y00814166D01*
X00612703Y00814521D01*
X00613121Y00814800D01*
X00615200Y00816879D01*
X00615479Y00817297D01*
X00615834Y00817652D01*
X00617467Y00820097D01*
X00617660Y00820561D01*
X00617939Y00820978D01*
X00619064Y00823695D01*
X00619162Y00824187D01*
X00619354Y00824651D01*
X00619928Y00827535D01*
Y00827913D01*
X00620019Y00828280D01*
X00620092Y00829750D01*
X00620073Y00829875D01*
X00620098Y00830000D01*
Y00835975D01*
X00620478Y00837888D01*
X00621225Y00839690D01*
X00622309Y00841312D01*
X00623688Y00842691D01*
X00625310Y00843775D01*
X00627112Y00844522D01*
X00629025Y00844902D01*
X00630000Y00844902D01*
X00660000Y00844902D01*
X00660125Y00844927D01*
X00660250Y00844908D01*
X00661720Y00844980D01*
X00662087Y00845072D01*
X00662465D01*
X00665349Y00845646D01*
X00665813Y00845838D01*
X00666305Y00845936D01*
X00669022Y00847061D01*
X00669439Y00847340D01*
X00669903Y00847533D01*
X00672348Y00849166D01*
X00672703Y00849521D01*
X00673121Y00849800D01*
X00675200Y00851879D01*
X00675479Y00852297D01*
X00675834Y00852652D01*
X00677467Y00855097D01*
X00677660Y00855561D01*
X00677939Y00855978D01*
X00679064Y00858695D01*
X00679162Y00859187D01*
X00679354Y00859651D01*
X00679928Y00862535D01*
Y00862913D01*
X00680019Y00863280D01*
X00680092Y00864750D01*
X00680073Y00864875D01*
X00680098Y00865000D01*
Y00885975D01*
X00680478Y00887888D01*
X00681225Y00889690D01*
X00682308Y00891312D01*
X00683688Y00892691D01*
X00685310Y00893775D01*
X00687112Y00894522D01*
X00689025Y00894902D01*
X00690000D01*
X00874902Y00894902D01*
X00874902Y00844000D01*
D02*
G37*
%LPC*%
G36*
X00172617Y00890000D02*
X00169984D01*
X00167440Y00889318D01*
X00165160Y00888002D01*
X00163298Y00886140D01*
X00161982Y00883860D01*
X00161300Y00881317D01*
Y00878683D01*
X00161982Y00876140D01*
X00163298Y00873860D01*
X00165160Y00871998D01*
X00167440Y00870682D01*
X00169984Y00870000D01*
X00172617D01*
X00175160Y00870682D01*
X00177440Y00871998D01*
X00179302Y00873860D01*
X00180618Y00876140D01*
X00181300Y00878683D01*
Y00881317D01*
X00180618Y00883860D01*
X00179302Y00886140D01*
X00177440Y00888002D01*
X00175160Y00889318D01*
X00172617Y00890000D01*
D02*
G37*
G36*
X00149900Y00890117D02*
X00141900D01*
X00139559Y00889652D01*
X00137574Y00888326D01*
X00136248Y00886341D01*
X00135782Y00884000D01*
Y00876000D01*
X00136248Y00873659D01*
X00137574Y00871674D01*
X00139559Y00870348D01*
X00141900Y00869883D01*
X00149900D01*
X00152241Y00870348D01*
X00154226Y00871674D01*
X00155552Y00873659D01*
X00156018Y00876000D01*
Y00884000D01*
X00155552Y00886341D01*
X00154226Y00888326D01*
X00152241Y00889652D01*
X00149900Y00890117D01*
D02*
G37*
G36*
X00223417Y00890000D02*
X00220784D01*
X00218240Y00889318D01*
X00215960Y00888002D01*
X00214098Y00886140D01*
X00212782Y00883860D01*
X00212100Y00881317D01*
Y00878683D01*
X00212782Y00876140D01*
X00214098Y00873860D01*
X00215960Y00871998D01*
X00218240Y00870682D01*
X00220784Y00870000D01*
X00223417D01*
X00223994Y00870155D01*
X00242882Y00851266D01*
Y00843194D01*
X00241612Y00842668D01*
X00241437Y00842844D01*
X00239783Y00843949D01*
X00237945Y00844710D01*
X00235994Y00845098D01*
X00132005D01*
X00130055Y00844710D01*
X00128217Y00843949D01*
X00126563Y00842844D01*
X00125156Y00841437D01*
X00124051Y00839783D01*
X00123290Y00837945D01*
X00123290Y00837945D01*
X00123290Y00837945D01*
X00122902Y00835995D01*
X00122902Y00835994D01*
X00122902Y00835994D01*
X00122902Y00835000D01*
Y00814006D01*
X00123290Y00812055D01*
X00124051Y00810217D01*
X00125156Y00808563D01*
X00125156Y00808563D01*
X00126563Y00807157D01*
X00126563Y00807156D01*
X00128217Y00806051D01*
X00130055Y00805290D01*
X00132006Y00804902D01*
X00133000D01*
X00235000Y00804902D01*
X00235994D01*
X00237945Y00805290D01*
X00239783Y00806051D01*
X00241437Y00807156D01*
X00241612Y00807332D01*
X00242882Y00806806D01*
Y00748868D01*
X00146000D01*
X00145409Y00748750D01*
X00140000D01*
Y00743341D01*
X00139882Y00742750D01*
X00140000Y00742159D01*
Y00736750D01*
X00145409D01*
X00146000Y00736633D01*
X00246716D01*
X00292382Y00690966D01*
Y00617000D01*
X00292250D01*
Y00611591D01*
X00292132Y00611000D01*
X00292250Y00610409D01*
Y00605000D01*
X00296057D01*
X00296659Y00604598D01*
X00299000Y00604132D01*
X00313000D01*
X00313591Y00604250D01*
X00319000D01*
Y00609659D01*
X00319118Y00610250D01*
X00319000Y00610841D01*
Y00616250D01*
X00313591D01*
X00313000Y00616367D01*
X00304618D01*
Y00693500D01*
X00304152Y00695841D01*
X00302826Y00697826D01*
X00255117Y00745534D01*
Y00853800D01*
X00254652Y00856141D01*
X00253326Y00858126D01*
X00232100Y00879352D01*
Y00881317D01*
X00231418Y00883860D01*
X00230102Y00886140D01*
X00228240Y00888002D01*
X00225960Y00889318D01*
X00223417Y00890000D01*
D02*
G37*
G36*
X00172617Y00792000D02*
X00169984D01*
X00167440Y00791319D01*
X00165160Y00790002D01*
X00163298Y00788140D01*
X00161982Y00785860D01*
X00161300Y00783316D01*
Y00780684D01*
X00161982Y00778140D01*
X00163298Y00775860D01*
X00165160Y00773998D01*
X00167440Y00772682D01*
X00167731Y00772604D01*
Y00765250D01*
X00165000D01*
Y00753250D01*
X00177000D01*
Y00765250D01*
X00174869D01*
Y00772604D01*
X00175160Y00772682D01*
X00177440Y00773998D01*
X00179302Y00775860D01*
X00180618Y00778140D01*
X00181300Y00780684D01*
Y00783316D01*
X00180618Y00785860D01*
X00179302Y00788140D01*
X00177440Y00790002D01*
X00175160Y00791319D01*
X00172617Y00792000D01*
D02*
G37*
G36*
X00147217D02*
X00144584D01*
X00142040Y00791319D01*
X00139760Y00790002D01*
X00137898Y00788140D01*
X00136581Y00785860D01*
X00135900Y00783316D01*
Y00780684D01*
X00136581Y00778140D01*
X00137898Y00775860D01*
X00139760Y00773998D01*
X00142040Y00772682D01*
X00142331Y00772604D01*
Y00765250D01*
X00140000D01*
Y00753250D01*
X00152000D01*
Y00765250D01*
X00149469D01*
Y00772604D01*
X00149760Y00772682D01*
X00152040Y00773998D01*
X00153902Y00775860D01*
X00155218Y00778140D01*
X00155900Y00780684D01*
Y00783316D01*
X00155218Y00785860D01*
X00153902Y00788140D01*
X00152040Y00790002D01*
X00149760Y00791319D01*
X00147217Y00792000D01*
D02*
G37*
G36*
X00649576Y00792098D02*
X00646424D01*
X00645932Y00792000D01*
X00645430D01*
X00642338Y00791385D01*
X00641874Y00791193D01*
X00641382Y00791095D01*
X00638470Y00789889D01*
X00638053Y00789610D01*
X00637589Y00789418D01*
X00634968Y00787667D01*
X00634613Y00787312D01*
X00634196Y00787033D01*
X00631967Y00784804D01*
X00631688Y00784387D01*
X00631333Y00784032D01*
X00629582Y00781411D01*
X00629390Y00780947D01*
X00629111Y00780530D01*
X00627905Y00777618D01*
X00627807Y00777125D01*
X00627615Y00776662D01*
X00627000Y00773570D01*
Y00773068D01*
X00626902Y00772576D01*
Y00769424D01*
X00627000Y00768932D01*
Y00768430D01*
X00627615Y00765338D01*
X00627807Y00764874D01*
X00627905Y00764382D01*
X00629111Y00761470D01*
X00629390Y00761053D01*
X00629582Y00760589D01*
X00631333Y00757968D01*
X00631688Y00757613D01*
X00631967Y00757196D01*
X00634196Y00754967D01*
X00634613Y00754688D01*
X00634968Y00754333D01*
X00637589Y00752582D01*
X00638053Y00752390D01*
X00638470Y00752111D01*
X00641382Y00750905D01*
X00641874Y00750807D01*
X00642338Y00750615D01*
X00645430Y00750000D01*
X00645932D01*
X00646424Y00749902D01*
X00649576D01*
X00650068Y00750000D01*
X00650570D01*
X00653661Y00750615D01*
X00654125Y00750807D01*
X00654618Y00750905D01*
X00657530Y00752111D01*
X00657947Y00752390D01*
X00658411Y00752582D01*
X00661032Y00754333D01*
X00661387Y00754688D01*
X00661804Y00754967D01*
X00664033Y00757196D01*
X00664312Y00757613D01*
X00664667Y00757968D01*
X00666418Y00760589D01*
X00666610Y00761053D01*
X00666889Y00761470D01*
X00668095Y00764382D01*
X00668193Y00764875D01*
X00668385Y00765338D01*
X00669000Y00768430D01*
Y00768932D01*
X00669098Y00769424D01*
Y00772576D01*
X00669000Y00773068D01*
Y00773570D01*
X00668385Y00776662D01*
X00668193Y00777125D01*
X00668095Y00777618D01*
X00666889Y00780530D01*
X00666610Y00780947D01*
X00666418Y00781411D01*
X00664667Y00784032D01*
X00664312Y00784387D01*
X00664033Y00784804D01*
X00661804Y00787033D01*
X00661387Y00787312D01*
X00661032Y00787667D01*
X00658411Y00789418D01*
X00657947Y00789610D01*
X00657530Y00789889D01*
X00654618Y00791095D01*
X00654125Y00791193D01*
X00653662Y00791385D01*
X00650570Y00792000D01*
X00650068D01*
X00649576Y00792098D01*
D02*
G37*
G36*
X00293576D02*
X00290424D01*
X00289932Y00792000D01*
X00289429D01*
X00286338Y00791385D01*
X00285875Y00791193D01*
X00285382Y00791095D01*
X00282470Y00789889D01*
X00282053Y00789610D01*
X00281589Y00789418D01*
X00278968Y00787667D01*
X00278613Y00787312D01*
X00278196Y00787033D01*
X00275967Y00784804D01*
X00275688Y00784387D01*
X00275333Y00784032D01*
X00273582Y00781411D01*
X00273390Y00780947D01*
X00273111Y00780530D01*
X00271905Y00777618D01*
X00271807Y00777125D01*
X00271615Y00776662D01*
X00271000Y00773570D01*
Y00773068D01*
X00270902Y00772576D01*
Y00769424D01*
X00271000Y00768932D01*
Y00768430D01*
X00271615Y00765338D01*
X00271807Y00764874D01*
X00271905Y00764382D01*
X00273111Y00761470D01*
X00273390Y00761053D01*
X00273582Y00760589D01*
X00275333Y00757968D01*
X00275688Y00757613D01*
X00275967Y00757196D01*
X00278196Y00754967D01*
X00278613Y00754688D01*
X00278968Y00754333D01*
X00281589Y00752582D01*
X00282053Y00752390D01*
X00282470Y00752111D01*
X00285382Y00750905D01*
X00285875Y00750807D01*
X00286338Y00750615D01*
X00289429Y00750000D01*
X00289932D01*
X00290424Y00749902D01*
X00293576D01*
X00294068Y00750000D01*
X00294570D01*
X00297661Y00750615D01*
X00298125Y00750807D01*
X00298618Y00750905D01*
X00301530Y00752111D01*
X00301947Y00752390D01*
X00302411Y00752582D01*
X00305032Y00754333D01*
X00305387Y00754688D01*
X00305804Y00754967D01*
X00308033Y00757196D01*
X00308312Y00757613D01*
X00308667Y00757968D01*
X00310418Y00760589D01*
X00310610Y00761053D01*
X00310889Y00761470D01*
X00312095Y00764382D01*
X00312193Y00764875D01*
X00312385Y00765338D01*
X00313000Y00768430D01*
Y00768932D01*
X00313098Y00769424D01*
Y00772576D01*
X00313000Y00773068D01*
Y00773570D01*
X00312385Y00776662D01*
X00312193Y00777125D01*
X00312095Y00777618D01*
X00310889Y00780530D01*
X00310610Y00780947D01*
X00310418Y00781411D01*
X00308667Y00784032D01*
X00308312Y00784387D01*
X00308033Y00784804D01*
X00305804Y00787033D01*
X00305387Y00787312D01*
X00305032Y00787667D01*
X00302411Y00789418D01*
X00301947Y00789610D01*
X00301530Y00789889D01*
X00298618Y00791095D01*
X00298125Y00791193D01*
X00297661Y00791385D01*
X00294570Y00792000D01*
X00294068D01*
X00293576Y00792098D01*
D02*
G37*
G36*
X00575913Y00762999D02*
X00571087D01*
X00566354Y00762058D01*
X00561895Y00760211D01*
X00557882Y00757530D01*
X00554470Y00754117D01*
X00551788Y00750105D01*
X00549941Y00745646D01*
X00549000Y00740913D01*
Y00736087D01*
X00549941Y00731353D01*
X00551788Y00726894D01*
X00554470Y00722882D01*
X00557882Y00719469D01*
X00561895Y00716788D01*
X00566354Y00714941D01*
X00571087Y00713999D01*
X00575913D01*
X00580646Y00714941D01*
X00585105Y00716788D01*
X00589118Y00719469D01*
X00592530Y00722882D01*
X00595212Y00726894D01*
X00597058Y00731353D01*
X00598000Y00736087D01*
Y00740913D01*
X00597058Y00745646D01*
X00595212Y00750105D01*
X00592530Y00754117D01*
X00589118Y00757530D01*
X00585105Y00760211D01*
X00580646Y00762058D01*
X00575913Y00762999D01*
D02*
G37*
G36*
X00368913D02*
X00364087D01*
X00359354Y00762058D01*
X00354895Y00760211D01*
X00350882Y00757530D01*
X00347470Y00754117D01*
X00344788Y00750105D01*
X00342942Y00745646D01*
X00342000Y00740913D01*
Y00736087D01*
X00342942Y00731353D01*
X00344788Y00726894D01*
X00347470Y00722882D01*
X00350882Y00719469D01*
X00354895Y00716788D01*
X00359354Y00714941D01*
X00364087Y00713999D01*
X00368913D01*
X00373646Y00714941D01*
X00378105Y00716788D01*
X00382118Y00719469D01*
X00385530Y00722882D01*
X00388212Y00726894D01*
X00390059Y00731353D01*
X00391000Y00736087D01*
Y00740913D01*
X00390059Y00745646D01*
X00388212Y00750105D01*
X00385530Y00754117D01*
X00382118Y00757530D01*
X00378105Y00760211D01*
X00373646Y00762058D01*
X00368913Y00762999D01*
D02*
G37*
G36*
X00250317Y00720000D02*
X00247684D01*
X00245140Y00719318D01*
X00242860Y00718002D01*
X00240998Y00716140D01*
X00239681Y00713860D01*
X00239000Y00711316D01*
Y00708683D01*
X00239681Y00706140D01*
X00240998Y00703860D01*
X00242860Y00701998D01*
X00245140Y00700681D01*
X00247684Y00700000D01*
X00250317D01*
X00252860Y00700681D01*
X00255140Y00701998D01*
X00257002Y00703860D01*
X00258319Y00706140D01*
X00259000Y00708683D01*
Y00711316D01*
X00258319Y00713860D01*
X00257002Y00716140D01*
X00255140Y00718002D01*
X00252860Y00719318D01*
X00250317Y00720000D01*
D02*
G37*
G36*
X00170317D02*
X00167684D01*
X00165140Y00719318D01*
X00162860Y00718002D01*
X00160998Y00716140D01*
X00159682Y00713860D01*
X00159000Y00711316D01*
Y00708683D01*
X00159682Y00706140D01*
X00160998Y00703860D01*
X00162860Y00701998D01*
X00165140Y00700681D01*
X00167684Y00700000D01*
X00170317D01*
X00172860Y00700681D01*
X00175140Y00701998D01*
X00177002Y00703860D01*
X00178319Y00706140D01*
X00179000Y00708683D01*
Y00711316D01*
X00178319Y00713860D01*
X00177002Y00716140D01*
X00175140Y00718002D01*
X00172860Y00719318D01*
X00170317Y00720000D01*
D02*
G37*
G36*
X00858216Y00681300D02*
X00855583D01*
X00853040Y00680619D01*
X00850760Y00679302D01*
X00848898Y00677440D01*
X00847581Y00675160D01*
X00846900Y00672617D01*
Y00669984D01*
X00847581Y00667440D01*
X00848898Y00665160D01*
X00850760Y00663298D01*
X00853040Y00661982D01*
X00855583Y00661300D01*
X00858216D01*
X00860760Y00661982D01*
X00863040Y00663298D01*
X00864902Y00665160D01*
X00866218Y00667440D01*
X00866900Y00669984D01*
Y00672617D01*
X00866218Y00675160D01*
X00864902Y00677440D01*
X00863040Y00679302D01*
X00860760Y00680619D01*
X00858216Y00681300D01*
D02*
G37*
G36*
X00683100Y00681418D02*
X00675100D01*
X00672759Y00680952D01*
X00670774Y00679626D01*
X00669448Y00677641D01*
X00668982Y00675300D01*
Y00667300D01*
X00669448Y00664959D01*
X00670774Y00662974D01*
X00672759Y00661648D01*
X00675100Y00661182D01*
X00683100D01*
X00685441Y00661648D01*
X00687426Y00662974D01*
X00688752Y00664959D01*
X00689218Y00667300D01*
Y00675300D01*
X00688752Y00677641D01*
X00687426Y00679626D01*
X00685441Y00680952D01*
X00683100Y00681418D01*
D02*
G37*
G36*
X00680417Y00655900D02*
X00677784D01*
X00675240Y00655219D01*
X00672960Y00653902D01*
X00671098Y00652040D01*
X00669781Y00649760D01*
X00669100Y00647217D01*
Y00644584D01*
X00669781Y00642040D01*
X00671098Y00639760D01*
X00672960Y00637898D01*
X00675240Y00636582D01*
X00677784Y00635900D01*
X00680417D01*
X00682960Y00636582D01*
X00685240Y00637898D01*
X00687102Y00639760D01*
X00688419Y00642040D01*
X00689100Y00644584D01*
Y00647217D01*
X00688419Y00649760D01*
X00687102Y00652040D01*
X00685240Y00653902D01*
X00682960Y00655219D01*
X00680417Y00655900D01*
D02*
G37*
G36*
X00858216Y00655900D02*
X00855583D01*
X00853040Y00655219D01*
X00850760Y00653902D01*
X00848898Y00652040D01*
X00847581Y00649760D01*
X00846900Y00647217D01*
Y00644584D01*
X00847581Y00642040D01*
X00848898Y00639760D01*
X00850760Y00637898D01*
X00853040Y00636581D01*
X00855583Y00635900D01*
X00858216D01*
X00860760Y00636581D01*
X00863040Y00637898D01*
X00864902Y00639760D01*
X00866218Y00642040D01*
X00866900Y00644584D01*
Y00647217D01*
X00866218Y00649760D01*
X00864902Y00652040D01*
X00863040Y00653902D01*
X00860760Y00655219D01*
X00858216Y00655900D01*
D02*
G37*
G36*
X00198316Y00656000D02*
X00195683D01*
X00193140Y00655319D01*
X00190860Y00654002D01*
X00188998Y00652140D01*
X00187682Y00649860D01*
X00187000Y00647317D01*
Y00644684D01*
X00187682Y00642140D01*
X00188998Y00639860D01*
X00189940Y00638918D01*
Y00629750D01*
X00190180Y00627923D01*
X00190886Y00626220D01*
X00192008Y00624757D01*
X00195620Y00621145D01*
X00195750Y00621045D01*
Y00619000D01*
X00207750D01*
Y00631000D01*
X00205705D01*
X00205605Y00631130D01*
X00204060Y00632674D01*
Y00638918D01*
X00205002Y00639860D01*
X00206318Y00642140D01*
X00207000Y00644684D01*
Y00647317D01*
X00206318Y00649860D01*
X00205002Y00652140D01*
X00203140Y00654002D01*
X00200860Y00655319D01*
X00198316Y00656000D01*
D02*
G37*
G36*
X00218250Y00631118D02*
X00217659Y00631000D01*
X00212250D01*
Y00625591D01*
X00212132Y00625000D01*
Y00617118D01*
X00210250D01*
X00209659Y00617000D01*
X00204250D01*
Y00611591D01*
X00204132Y00611000D01*
X00204250Y00610409D01*
Y00605000D01*
X00209659D01*
X00210250Y00604883D01*
X00219000D01*
Y00604250D01*
X00224409D01*
X00225000Y00604132D01*
X00225591Y00604250D01*
X00231000D01*
Y00609659D01*
X00231117Y00610250D01*
X00231000Y00610841D01*
Y00616250D01*
X00227193D01*
X00226591Y00616652D01*
X00224368Y00617094D01*
Y00625000D01*
X00224250Y00625591D01*
Y00631000D01*
X00218841D01*
X00218250Y00631118D01*
D02*
G37*
G36*
X00858217Y00605100D02*
X00855583D01*
X00853040Y00604419D01*
X00850760Y00603102D01*
X00848898Y00601240D01*
X00847581Y00598960D01*
X00846900Y00596417D01*
Y00593783D01*
X00847581Y00591240D01*
X00848898Y00588960D01*
X00850760Y00587098D01*
X00853040Y00585782D01*
X00855583Y00585100D01*
X00858217D01*
X00860760Y00585782D01*
X00863040Y00587098D01*
X00864902Y00588960D01*
X00866218Y00591240D01*
X00866900Y00593783D01*
Y00596417D01*
X00866218Y00598960D01*
X00864902Y00601240D01*
X00863040Y00603102D01*
X00860760Y00604419D01*
X00858217Y00605100D01*
D02*
G37*
G36*
X00680416Y00605100D02*
X00677784D01*
X00675240Y00604418D01*
X00672960Y00603102D01*
X00671098Y00601240D01*
X00669781Y00598960D01*
X00669100Y00596417D01*
Y00593783D01*
X00669781Y00591240D01*
X00671098Y00588960D01*
X00672960Y00587098D01*
X00675240Y00585782D01*
X00677784Y00585100D01*
X00680416D01*
X00682960Y00585782D01*
X00685240Y00587098D01*
X00687102Y00588960D01*
X00688419Y00591240D01*
X00689100Y00593783D01*
Y00596417D01*
X00688419Y00598960D01*
X00687102Y00601240D01*
X00685240Y00603102D01*
X00682960Y00604418D01*
X00680416Y00605100D01*
D02*
G37*
G36*
X00680417Y00579700D02*
X00677784D01*
X00675240Y00579019D01*
X00672960Y00577702D01*
X00671098Y00575840D01*
X00669781Y00573560D01*
X00669100Y00571017D01*
Y00568383D01*
X00669781Y00565840D01*
X00671098Y00563560D01*
X00672960Y00561698D01*
X00675240Y00560382D01*
X00677784Y00559700D01*
X00680417D01*
X00682960Y00560382D01*
X00685240Y00561698D01*
X00687102Y00563560D01*
X00688419Y00565840D01*
X00689100Y00568383D01*
Y00571017D01*
X00688419Y00573560D01*
X00687102Y00575840D01*
X00685240Y00577702D01*
X00682960Y00579019D01*
X00680417Y00579700D01*
D02*
G37*
G36*
X00858216Y00554300D02*
X00855583D01*
X00853040Y00553619D01*
X00850760Y00552302D01*
X00848898Y00550440D01*
X00847581Y00548160D01*
X00846900Y00545617D01*
Y00542984D01*
X00847581Y00540440D01*
X00848898Y00538160D01*
X00850760Y00536298D01*
X00853040Y00534981D01*
X00855583Y00534300D01*
X00858216D01*
X00860760Y00534981D01*
X00863040Y00536298D01*
X00864902Y00538160D01*
X00866218Y00540440D01*
X00866900Y00542984D01*
Y00545617D01*
X00866218Y00548160D01*
X00864902Y00550440D01*
X00863040Y00552302D01*
X00860760Y00553619D01*
X00858216Y00554300D01*
D02*
G37*
G36*
X00680416D02*
X00677784D01*
X00675240Y00553619D01*
X00672960Y00552302D01*
X00671098Y00550440D01*
X00669781Y00548160D01*
X00669100Y00545617D01*
Y00542984D01*
X00669781Y00540440D01*
X00671098Y00538160D01*
X00672960Y00536298D01*
X00675240Y00534981D01*
X00677784Y00534300D01*
X00680416D01*
X00682960Y00534981D01*
X00685240Y00536298D01*
X00687102Y00538160D01*
X00688419Y00540440D01*
X00689100Y00542984D01*
Y00545617D01*
X00688419Y00548160D01*
X00687102Y00550440D01*
X00685240Y00552302D01*
X00682960Y00553619D01*
X00680416Y00554300D01*
D02*
G37*
G36*
X00858216Y00528900D02*
X00855583D01*
X00853040Y00528218D01*
X00850760Y00526902D01*
X00848898Y00525040D01*
X00847581Y00522760D01*
X00846900Y00520216D01*
Y00517584D01*
X00847581Y00515040D01*
X00848898Y00512760D01*
X00850760Y00510898D01*
X00853040Y00509581D01*
X00855583Y00508900D01*
X00858216D01*
X00860760Y00509581D01*
X00863040Y00510898D01*
X00864902Y00512760D01*
X00866218Y00515040D01*
X00866900Y00517584D01*
Y00520216D01*
X00866218Y00522760D01*
X00864902Y00525040D01*
X00863040Y00526902D01*
X00860760Y00528218D01*
X00858216Y00528900D01*
D02*
G37*
G36*
X00680417D02*
X00677784D01*
X00675240Y00528218D01*
X00672960Y00526902D01*
X00671098Y00525040D01*
X00669781Y00522760D01*
X00669100Y00520216D01*
Y00517584D01*
X00669781Y00515040D01*
X00671098Y00512760D01*
X00672960Y00510898D01*
X00675240Y00509581D01*
X00677784Y00508900D01*
X00680417D01*
X00682960Y00509581D01*
X00685240Y00510898D01*
X00687102Y00512760D01*
X00688419Y00515040D01*
X00689100Y00517584D01*
Y00520216D01*
X00688419Y00522760D01*
X00687102Y00525040D01*
X00685240Y00526902D01*
X00682960Y00528218D01*
X00680417Y00528900D01*
D02*
G37*
G36*
X00858217Y00478100D02*
X00855583D01*
X00853040Y00477419D01*
X00850760Y00476102D01*
X00848898Y00474240D01*
X00847581Y00471960D01*
X00846900Y00469417D01*
Y00466783D01*
X00847581Y00464240D01*
X00848898Y00461960D01*
X00850760Y00460098D01*
X00853040Y00458782D01*
X00855583Y00458100D01*
X00858217D01*
X00860760Y00458782D01*
X00863040Y00460098D01*
X00864902Y00461960D01*
X00866218Y00464240D01*
X00866900Y00466783D01*
Y00469417D01*
X00866218Y00471960D01*
X00864902Y00474240D01*
X00863040Y00476102D01*
X00860760Y00477419D01*
X00858217Y00478100D01*
D02*
G37*
G36*
X00680416D02*
X00677784D01*
X00675240Y00477419D01*
X00672960Y00476102D01*
X00671098Y00474240D01*
X00669781Y00471960D01*
X00669100Y00469417D01*
Y00466783D01*
X00669781Y00464240D01*
X00669932Y00463979D01*
X00633522Y00427569D01*
X00569250D01*
Y00430000D01*
X00566819D01*
Y00432250D01*
X00570500D01*
Y00445750D01*
X00558500D01*
Y00432250D01*
X00559681D01*
Y00430000D01*
X00557250D01*
Y00418000D01*
X00569250D01*
Y00420432D01*
X00635000D01*
X00636366Y00420703D01*
X00637523Y00421477D01*
X00674979Y00458932D01*
X00675240Y00458782D01*
X00677784Y00458100D01*
X00680416D01*
X00682960Y00458782D01*
X00685240Y00460098D01*
X00687102Y00461960D01*
X00688419Y00464240D01*
X00689100Y00466783D01*
Y00469417D01*
X00688419Y00471960D01*
X00687102Y00474240D01*
X00685240Y00476102D01*
X00682960Y00477419D01*
X00680416Y00478100D01*
D02*
G37*
G36*
Y00452700D02*
X00677784D01*
X00675240Y00452019D01*
X00672960Y00450702D01*
X00671098Y00448840D01*
X00669781Y00446560D01*
X00669100Y00444017D01*
Y00441384D01*
X00669781Y00438840D01*
X00671098Y00436560D01*
X00672960Y00434698D01*
X00675240Y00433382D01*
X00677784Y00432700D01*
X00680416D01*
X00682960Y00433382D01*
X00685240Y00434698D01*
X00687102Y00436560D01*
X00688419Y00438840D01*
X00689100Y00441384D01*
Y00444017D01*
X00688419Y00446560D01*
X00687102Y00448840D01*
X00685240Y00450702D01*
X00682960Y00452019D01*
X00680416Y00452700D01*
D02*
G37*
G36*
X00858216Y00452700D02*
X00855583D01*
X00853040Y00452019D01*
X00850760Y00450702D01*
X00848898Y00448840D01*
X00847581Y00446560D01*
X00846900Y00444017D01*
Y00441384D01*
X00847581Y00438840D01*
X00848898Y00436560D01*
X00850760Y00434698D01*
X00853040Y00433382D01*
X00855583Y00432700D01*
X00858216D01*
X00860760Y00433382D01*
X00863040Y00434698D01*
X00864902Y00436560D01*
X00866218Y00438840D01*
X00866900Y00441384D01*
Y00444017D01*
X00866218Y00446560D01*
X00864902Y00448840D01*
X00863040Y00450702D01*
X00860760Y00452019D01*
X00858216Y00452700D01*
D02*
G37*
G36*
X00680417Y00427300D02*
X00677784D01*
X00675240Y00426619D01*
X00672960Y00425302D01*
X00671098Y00423440D01*
X00669781Y00421160D01*
X00669100Y00418617D01*
Y00415984D01*
X00669781Y00413440D01*
X00671098Y00411160D01*
X00672960Y00409298D01*
X00675240Y00407982D01*
X00677784Y00407300D01*
X00680417D01*
X00682960Y00407982D01*
X00685240Y00409298D01*
X00687102Y00411160D01*
X00688419Y00413440D01*
X00689100Y00415984D01*
Y00418617D01*
X00688419Y00421160D01*
X00687102Y00423440D01*
X00685240Y00425302D01*
X00682960Y00426619D01*
X00680417Y00427300D01*
D02*
G37*
G36*
X00858216Y00427300D02*
X00855583D01*
X00853040Y00426618D01*
X00850760Y00425302D01*
X00848898Y00423440D01*
X00847581Y00421160D01*
X00846900Y00418617D01*
Y00415984D01*
X00847581Y00413440D01*
X00848898Y00411160D01*
X00850760Y00409298D01*
X00853040Y00407981D01*
X00855583Y00407300D01*
X00858216D01*
X00860760Y00407981D01*
X00863040Y00409298D01*
X00864902Y00411160D01*
X00866218Y00413440D01*
X00866900Y00415984D01*
Y00418617D01*
X00866218Y00421160D01*
X00864902Y00423440D01*
X00863040Y00425302D01*
X00860760Y00426618D01*
X00858216Y00427300D01*
D02*
G37*
G36*
X00739000Y00713582D02*
X00629000D01*
X00626520Y00713255D01*
X00624209Y00712298D01*
X00622225Y00710776D01*
X00542225Y00630775D01*
X00540702Y00628791D01*
X00539744Y00626480D01*
X00539418Y00624000D01*
Y00570082D01*
X00485500D01*
X00483020Y00569756D01*
X00480709Y00568798D01*
X00478725Y00567275D01*
X00448031Y00536582D01*
X00307000D01*
Y00541000D01*
X00311250D01*
Y00543412D01*
X00313358D01*
X00314956Y00542750D01*
X00317044D01*
X00318974Y00543549D01*
X00320451Y00545026D01*
X00321250Y00546956D01*
Y00549044D01*
X00320451Y00550974D01*
X00318974Y00552451D01*
X00317044Y00553250D01*
X00315088D01*
Y00555500D01*
X00318500D01*
Y00565060D01*
X00318780Y00565116D01*
X00319442Y00565558D01*
X00319884Y00566220D01*
X00320039Y00567000D01*
Y00598000D01*
X00319884Y00598780D01*
X00319442Y00599442D01*
X00319000Y00599737D01*
Y00599750D01*
X00318981D01*
X00318780Y00599884D01*
X00318000Y00600039D01*
X00290000D01*
X00289220Y00599884D01*
X00288558Y00599442D01*
X00288116Y00598780D01*
X00287961Y00598000D01*
Y00587039D01*
X00276000D01*
X00275220Y00586884D01*
X00274558Y00586442D01*
X00274116Y00585780D01*
X00273961Y00585000D01*
Y00567039D01*
X00274116Y00566259D01*
X00274276Y00566020D01*
X00274116Y00565780D01*
X00273961Y00565000D01*
Y00536582D01*
X00221000D01*
Y00541000D01*
X00223250D01*
Y00543412D01*
X00226358D01*
X00227956Y00542750D01*
X00230044D01*
X00231974Y00543549D01*
X00233451Y00545026D01*
X00234250Y00546956D01*
Y00549044D01*
X00233451Y00550974D01*
X00231974Y00552451D01*
X00230044Y00553250D01*
X00227956D01*
X00227088Y00553830D01*
Y00555500D01*
X00230500D01*
Y00565060D01*
X00230780Y00565116D01*
X00231442Y00565558D01*
X00231884Y00566220D01*
X00232039Y00567000D01*
Y00598000D01*
X00231884Y00598780D01*
X00231442Y00599442D01*
X00231000Y00599737D01*
Y00599750D01*
X00230981D01*
X00230780Y00599884D01*
X00230000Y00600039D01*
X00202000D01*
X00201220Y00599884D01*
X00200558Y00599442D01*
X00200116Y00598780D01*
X00199961Y00598000D01*
Y00587039D01*
X00188000D01*
X00187220Y00586884D01*
X00186558Y00586442D01*
X00186116Y00585780D01*
X00185961Y00585000D01*
Y00567039D01*
X00186116Y00566259D01*
X00186276Y00566020D01*
X00186116Y00565780D01*
X00185961Y00565000D01*
Y00554325D01*
X00185918Y00554000D01*
Y00538500D01*
X00185961Y00538175D01*
Y00533000D01*
X00185961Y00533000D01*
X00186116Y00532220D01*
X00186558Y00531558D01*
X00186558Y00531558D01*
X00199558Y00518558D01*
X00200220Y00518116D01*
X00201000Y00517961D01*
X00203998D01*
X00204520Y00517744D01*
X00207000Y00517418D01*
X00209418D01*
Y00293000D01*
X00209418Y00293000D01*
Y00281000D01*
Y00269000D01*
Y00257000D01*
X00209744Y00254520D01*
X00210702Y00252209D01*
X00212225Y00250224D01*
X00214209Y00248702D01*
X00216520Y00247745D01*
X00219000Y00247418D01*
X00221480Y00247745D01*
X00223791Y00248702D01*
X00225775Y00250224D01*
X00227298Y00252209D01*
X00228255Y00254520D01*
X00228582Y00257000D01*
Y00269000D01*
Y00281000D01*
Y00293000D01*
X00228582Y00293000D01*
Y00517418D01*
X00452000D01*
X00454480Y00517744D01*
X00456791Y00518702D01*
X00458775Y00520224D01*
X00489469Y00550918D01*
X00539418D01*
Y00540000D01*
X00538250D01*
Y00528000D01*
X00539418D01*
Y00525209D01*
X00539744Y00522729D01*
X00540702Y00520418D01*
X00541500Y00519378D01*
Y00516039D01*
X00530500D01*
Y00525500D01*
X00528618D01*
Y00528000D01*
X00533750D01*
Y00533409D01*
X00533868Y00534000D01*
X00533750Y00534591D01*
Y00540000D01*
X00528341D01*
X00527750Y00540117D01*
X00519000D01*
X00516659Y00539652D01*
X00514674Y00538326D01*
X00513674Y00537326D01*
X00512348Y00535341D01*
X00511883Y00533000D01*
X00512348Y00530659D01*
X00513674Y00528674D01*
X00515659Y00527348D01*
X00516382Y00527204D01*
Y00525500D01*
X00514500D01*
Y00515940D01*
X00514220Y00515884D01*
X00513558Y00515442D01*
X00513116Y00514780D01*
X00512961Y00514000D01*
Y00481266D01*
X00512379Y00480690D01*
X00511790Y00480377D01*
X00510580Y00480878D01*
X00508100Y00481204D01*
X00505620Y00480878D01*
X00503501Y00480000D01*
X00501750D01*
Y00478724D01*
X00501325Y00478398D01*
X00499802Y00476413D01*
X00498844Y00474103D01*
X00498518Y00471623D01*
Y00423999D01*
X00498600Y00423377D01*
Y00422749D01*
X00498763Y00422142D01*
X00498844Y00421520D01*
X00499085Y00420939D01*
X00499247Y00420333D01*
X00499561Y00419789D01*
X00499802Y00419209D01*
X00500184Y00418710D01*
X00500498Y00418166D01*
X00500942Y00417722D01*
X00501325Y00417224D01*
X00501823Y00416842D01*
X00502267Y00416398D01*
X00502811Y00416084D01*
X00503130Y00415839D01*
X00503064Y00415173D01*
X00502782Y00414569D01*
X00487905D01*
X00487565Y00415839D01*
X00488533Y00416398D01*
X00490302Y00418166D01*
X00491553Y00420333D01*
X00492200Y00422749D01*
Y00425250D01*
X00491553Y00427666D01*
X00490302Y00429833D01*
X00488533Y00431601D01*
X00486367Y00432852D01*
X00483951Y00433499D01*
X00481449D01*
X00479033Y00432852D01*
X00476867Y00431601D01*
X00475098Y00429833D01*
X00473847Y00427666D01*
X00473200Y00425250D01*
Y00422749D01*
X00473847Y00420333D01*
X00475098Y00418166D01*
X00476867Y00416398D01*
X00477835Y00415839D01*
X00477495Y00414569D01*
X00462505D01*
X00462165Y00415839D01*
X00463133Y00416398D01*
X00464902Y00418166D01*
X00466153Y00420333D01*
X00466800Y00422749D01*
Y00425250D01*
X00466153Y00427666D01*
X00464902Y00429833D01*
X00463133Y00431601D01*
X00460967Y00432852D01*
X00458551Y00433499D01*
X00456049D01*
X00453633Y00432852D01*
X00451467Y00431601D01*
X00449698Y00429833D01*
X00448447Y00427666D01*
X00447800Y00425250D01*
Y00422749D01*
X00448447Y00420333D01*
X00449698Y00418166D01*
X00451467Y00416398D01*
X00452435Y00415839D01*
X00452095Y00414569D01*
X00306515D01*
X00305149Y00414297D01*
X00303991Y00413523D01*
X00273477Y00383009D01*
X00272703Y00381851D01*
X00272431Y00380485D01*
Y00233478D01*
X00271147Y00232194D01*
X00258625D01*
X00257259Y00231922D01*
X00256102Y00231148D01*
X00252227Y00227273D01*
X00251453Y00226116D01*
X00251231Y00225000D01*
X00248750D01*
Y00225000D01*
X00245815D01*
X00244959Y00226253D01*
X00245250Y00226956D01*
Y00229044D01*
X00244451Y00230974D01*
X00242974Y00232451D01*
X00241044Y00233250D01*
X00238956D01*
X00237358Y00232588D01*
X00215000D01*
X00213244Y00232239D01*
X00211756Y00231244D01*
X00198756Y00218244D01*
X00197761Y00216756D01*
X00197412Y00215000D01*
Y00165000D01*
X00197761Y00163244D01*
X00198756Y00161756D01*
X00207006Y00153506D01*
X00208494Y00152511D01*
X00210250Y00152162D01*
X00217000D01*
Y00150750D01*
X00229000D01*
Y00162750D01*
X00217000D01*
Y00161338D01*
X00212150D01*
X00206588Y00166901D01*
Y00213099D01*
X00216901Y00223412D01*
X00235412D01*
Y00212000D01*
X00235761Y00210244D01*
X00236211Y00209571D01*
X00236175Y00209360D01*
X00235511Y00208333D01*
X00226091D01*
X00225974Y00208451D01*
X00224044Y00209250D01*
X00221956D01*
X00220026Y00208451D01*
X00218549Y00206974D01*
X00217750Y00205044D01*
Y00202956D01*
X00218549Y00201026D01*
X00220026Y00199549D01*
X00221956Y00198750D01*
X00224044D01*
X00225974Y00199549D01*
X00226091Y00199667D01*
X00234205D01*
X00235602Y00198270D01*
X00235157Y00197000D01*
X00234250D01*
Y00185000D01*
X00246250D01*
Y00188417D01*
X00249500D01*
Y00176819D01*
X00246000D01*
Y00179250D01*
X00234000D01*
Y00176819D01*
X00229000D01*
Y00179250D01*
X00217000D01*
Y00167250D01*
X00229000D01*
Y00169681D01*
X00234000D01*
Y00167250D01*
X00246000D01*
Y00169681D01*
X00249500D01*
Y00169000D01*
X00265000D01*
Y00175157D01*
X00265796Y00175615D01*
X00266270Y00175683D01*
X00267681Y00174272D01*
Y00167000D01*
X00265250D01*
Y00155000D01*
X00277250D01*
Y00167000D01*
X00274819D01*
Y00175750D01*
X00274547Y00177116D01*
X00273773Y00178273D01*
X00269818Y00182229D01*
X00269636Y00182470D01*
Y00183530D01*
X00269818Y00183771D01*
X00273773Y00187727D01*
X00274547Y00188884D01*
X00274819Y00190250D01*
Y00195000D01*
X00283181D01*
Y00190250D01*
X00283453Y00188884D01*
X00284227Y00187727D01*
X00288182Y00183771D01*
X00288364Y00183530D01*
Y00182470D01*
X00288182Y00182229D01*
X00284227Y00178273D01*
X00283453Y00177116D01*
X00283181Y00175750D01*
Y00167000D01*
X00280750D01*
Y00155000D01*
X00292750D01*
Y00167000D01*
X00290319D01*
Y00174272D01*
X00291730Y00175683D01*
X00293000Y00175500D01*
Y00175500D01*
X00308500D01*
Y00187820D01*
X00309770Y00188346D01*
X00312000Y00186116D01*
Y00185250D01*
X00312866D01*
X00316558Y00181558D01*
X00316558Y00181558D01*
X00317220Y00181116D01*
X00318000Y00180961D01*
X00322961D01*
Y00172000D01*
X00323116Y00171220D01*
X00323558Y00170558D01*
X00324220Y00170116D01*
X00325000Y00169961D01*
X00431961D01*
Y00160000D01*
X00432000Y00159804D01*
Y00158250D01*
X00433019D01*
X00433220Y00158116D01*
X00434000Y00157961D01*
X00445950D01*
Y00152569D01*
X00444000D01*
Y00153750D01*
X00432000D01*
Y00152569D01*
X00426000D01*
Y00153750D01*
X00414000D01*
Y00141750D01*
X00426000D01*
Y00145431D01*
X00432000D01*
Y00141750D01*
X00444000D01*
Y00145431D01*
X00445950D01*
Y00139250D01*
X00455950D01*
Y00157707D01*
X00457220Y00157825D01*
X00458153Y00156750D01*
Y00141250D01*
X00458343Y00140294D01*
X00458650Y00139835D01*
Y00139250D01*
X00459235D01*
X00459694Y00138943D01*
X00460650Y00138753D01*
X00462214D01*
Y00135821D01*
X00461429Y00135036D01*
X00360308D01*
X00360066Y00134988D01*
X00359820D01*
X00359040Y00134833D01*
X00358140Y00134460D01*
X00357478Y00134018D01*
X00357304Y00133844D01*
X00357100Y00133708D01*
X00349292Y00125900D01*
X00349156Y00125696D01*
X00348982Y00125522D01*
X00348540Y00124860D01*
X00348167Y00123960D01*
X00348012Y00123180D01*
Y00122934D01*
X00347964Y00122692D01*
Y00116304D01*
X00346867Y00115460D01*
X00346044Y00115801D01*
X00345724Y00115865D01*
X00345414Y00115970D01*
X00343326Y00116245D01*
X00343000Y00116223D01*
X00342674Y00116245D01*
X00340586Y00115970D01*
X00340276Y00115865D01*
X00339956Y00115801D01*
X00338010Y00114995D01*
X00337738Y00114814D01*
X00337445Y00114669D01*
X00335774Y00113387D01*
X00335559Y00113141D01*
X00335313Y00112926D01*
X00334031Y00111255D01*
X00333886Y00110962D01*
X00333705Y00110690D01*
X00332899Y00108744D01*
X00332835Y00108424D01*
X00332730Y00108114D01*
X00332455Y00106026D01*
X00332477Y00105700D01*
X00332455Y00105374D01*
X00332730Y00103286D01*
X00332835Y00102976D01*
X00332899Y00102656D01*
X00333705Y00100710D01*
X00333886Y00100438D01*
X00334031Y00100145D01*
X00335313Y00098474D01*
X00335559Y00098259D01*
X00335774Y00098013D01*
X00337445Y00096731D01*
X00337738Y00096586D01*
X00338010Y00096405D01*
X00339956Y00095599D01*
X00340276Y00095535D01*
X00340586Y00095430D01*
X00342674Y00095155D01*
X00343000Y00095177D01*
X00343326Y00095155D01*
X00345414Y00095430D01*
X00345724Y00095535D01*
X00346044Y00095599D01*
X00346498Y00095787D01*
X00347914Y00094371D01*
Y00091629D01*
X00346498Y00090213D01*
X00346044Y00090401D01*
X00345724Y00090465D01*
X00345414Y00090570D01*
X00343326Y00090845D01*
X00343000Y00090823D01*
X00342674Y00090845D01*
X00340586Y00090570D01*
X00340276Y00090465D01*
X00339956Y00090401D01*
X00338010Y00089595D01*
X00337738Y00089414D01*
X00337445Y00089269D01*
X00335774Y00087987D01*
X00335559Y00087741D01*
X00335313Y00087526D01*
X00334031Y00085855D01*
X00333886Y00085562D01*
X00333705Y00085290D01*
X00332899Y00083344D01*
X00332835Y00083024D01*
X00332730Y00082714D01*
X00332455Y00080626D01*
X00332477Y00080300D01*
X00332455Y00079974D01*
X00332730Y00077886D01*
X00332835Y00077576D01*
X00332899Y00077256D01*
X00333705Y00075310D01*
X00333886Y00075038D01*
X00334031Y00074745D01*
X00335313Y00073074D01*
X00335559Y00072859D01*
X00335774Y00072613D01*
X00337445Y00071331D01*
X00337738Y00071186D01*
X00338010Y00071005D01*
X00339956Y00070199D01*
X00340276Y00070135D01*
X00340586Y00070030D01*
X00342674Y00069755D01*
X00343000Y00069777D01*
X00343326Y00069755D01*
X00345414Y00070030D01*
X00345724Y00070135D01*
X00346044Y00070199D01*
X00347990Y00071005D01*
X00348262Y00071186D01*
X00348555Y00071331D01*
X00350226Y00072613D01*
X00350441Y00072859D01*
X00350687Y00073074D01*
X00351969Y00074745D01*
X00352114Y00075038D01*
X00352295Y00075310D01*
X00353101Y00077256D01*
X00353165Y00077576D01*
X00353270Y00077886D01*
X00353545Y00079974D01*
X00353523Y00080300D01*
X00353545Y00080626D01*
X00353270Y00082714D01*
X00353165Y00083024D01*
X00353101Y00083344D01*
X00352913Y00083798D01*
X00354846Y00085730D01*
X00355700Y00086504D01*
X00356554Y00085730D01*
X00358487Y00083798D01*
X00358299Y00083344D01*
X00358235Y00083024D01*
X00358130Y00082714D01*
X00357855Y00080626D01*
X00357877Y00080300D01*
X00357855Y00079974D01*
X00358130Y00077886D01*
X00358235Y00077576D01*
X00358299Y00077256D01*
X00359105Y00075310D01*
X00359286Y00075038D01*
X00359431Y00074745D01*
X00360713Y00073074D01*
X00360959Y00072859D01*
X00361174Y00072613D01*
X00362845Y00071331D01*
X00363138Y00071186D01*
X00363410Y00071005D01*
X00365356Y00070199D01*
X00365676Y00070135D01*
X00365986Y00070030D01*
X00368074Y00069755D01*
X00368400Y00069777D01*
X00368726Y00069755D01*
X00370814Y00070030D01*
X00371124Y00070135D01*
X00371444Y00070199D01*
X00373390Y00071005D01*
X00373662Y00071186D01*
X00373955Y00071331D01*
X00375626Y00072613D01*
X00375841Y00072859D01*
X00376087Y00073074D01*
X00377369Y00074745D01*
X00377514Y00075038D01*
X00377695Y00075310D01*
X00378501Y00077256D01*
X00378565Y00077576D01*
X00378670Y00077886D01*
X00378945Y00079974D01*
X00378923Y00080300D01*
X00378945Y00080626D01*
X00378670Y00082714D01*
X00378565Y00083024D01*
X00378501Y00083344D01*
X00377695Y00085290D01*
X00377514Y00085562D01*
X00377369Y00085855D01*
X00376087Y00087526D01*
X00375841Y00087741D01*
X00375626Y00087987D01*
X00373955Y00089269D01*
X00373662Y00089414D01*
X00373390Y00089595D01*
X00371444Y00090401D01*
X00371124Y00090465D01*
X00370814Y00090570D01*
X00368726Y00090845D01*
X00368400Y00090823D01*
X00368074Y00090845D01*
X00365986Y00090570D01*
X00365676Y00090465D01*
X00365356Y00090401D01*
X00364902Y00090213D01*
X00363486Y00091629D01*
Y00094371D01*
X00364902Y00095787D01*
X00365356Y00095599D01*
X00365676Y00095535D01*
X00365986Y00095430D01*
X00368074Y00095155D01*
X00368400Y00095177D01*
X00368726Y00095155D01*
X00370814Y00095430D01*
X00371124Y00095535D01*
X00371444Y00095599D01*
X00373390Y00096405D01*
X00373662Y00096587D01*
X00373955Y00096731D01*
X00375626Y00098013D01*
X00375841Y00098259D01*
X00376087Y00098474D01*
X00377369Y00100145D01*
X00377514Y00100438D01*
X00377695Y00100710D01*
X00378501Y00102656D01*
X00378565Y00102976D01*
X00378670Y00103286D01*
X00378945Y00105374D01*
X00378923Y00105700D01*
X00378945Y00106026D01*
X00378670Y00108114D01*
X00378565Y00108424D01*
X00378501Y00108744D01*
X00377695Y00110690D01*
X00377514Y00110962D01*
X00377369Y00111255D01*
X00376087Y00112926D01*
X00375841Y00113141D01*
X00375626Y00113387D01*
X00373955Y00114669D01*
X00373662Y00114814D01*
X00373390Y00114995D01*
X00371444Y00115801D01*
X00371124Y00115865D01*
X00370814Y00115970D01*
X00368726Y00116245D01*
X00368400Y00116223D01*
X00368074Y00116245D01*
X00365986Y00115970D01*
X00365676Y00115865D01*
X00365356Y00115801D01*
X00364654Y00115510D01*
X00363536Y00116362D01*
Y00118121D01*
X00364879Y00119464D01*
X00466000D01*
X00466241Y00119512D01*
X00466487D01*
X00467267Y00119667D01*
X00468168Y00120040D01*
X00468829Y00120482D01*
X00469003Y00120656D01*
X00469208Y00120792D01*
X00476457Y00128042D01*
X00476594Y00128246D01*
X00476768Y00128420D01*
X00477210Y00129082D01*
X00477455Y00129673D01*
X00477583Y00129982D01*
X00477738Y00130763D01*
Y00131009D01*
X00477786Y00131250D01*
Y00138753D01*
X00479350D01*
X00480305Y00138943D01*
X00480765Y00139250D01*
X00481350D01*
Y00139835D01*
X00481657Y00140294D01*
X00481847Y00141250D01*
Y00156750D01*
X00482780Y00157825D01*
X00484050Y00157707D01*
Y00139250D01*
X00494050D01*
Y00143932D01*
X00496000D01*
Y00141750D01*
X00508000D01*
Y00143932D01*
X00514000D01*
Y00141500D01*
X00526000D01*
Y00153500D01*
X00514000D01*
Y00151069D01*
X00508000D01*
Y00153750D01*
X00498000D01*
Y00157961D01*
X00506000D01*
X00506780Y00158116D01*
X00506981Y00158250D01*
X00508000D01*
Y00159802D01*
X00508039Y00160000D01*
Y00167961D01*
X00543000D01*
X00543780Y00168116D01*
X00544442Y00168558D01*
X00544884Y00169220D01*
X00545039Y00170000D01*
Y00225000D01*
X00544884Y00225780D01*
X00544442Y00226442D01*
X00543750Y00227000D01*
Y00239000D01*
X00531750D01*
Y00237469D01*
X00528500D01*
Y00238900D01*
X00505500D01*
Y00228900D01*
X00507000D01*
Y00227039D01*
X00506220Y00226884D01*
X00505558Y00226442D01*
X00505116Y00225780D01*
X00504961Y00225000D01*
Y00217000D01*
X00505116Y00216220D01*
X00505558Y00215558D01*
X00511961Y00209155D01*
Y00194039D01*
X00494050D01*
Y00212750D01*
X00493128D01*
Y00222950D01*
X00493128Y00222950D01*
X00492818Y00224511D01*
X00491934Y00225834D01*
X00491934Y00225834D01*
X00480984Y00236784D01*
X00479661Y00237668D01*
X00478100Y00237978D01*
X00478100Y00237978D01*
X00434500D01*
Y00238900D01*
X00411500D01*
Y00228900D01*
X00434500D01*
Y00229822D01*
X00476411D01*
X00484972Y00221261D01*
Y00213590D01*
X00483702Y00212783D01*
X00482827Y00212865D01*
X00482442Y00213442D01*
X00481780Y00213884D01*
X00481000Y00214039D01*
X00472000D01*
X00471220Y00213884D01*
X00470558Y00213442D01*
X00470116Y00212780D01*
X00469961Y00212000D01*
Y00194039D01*
X00456375D01*
X00455697Y00195309D01*
X00455747Y00195384D01*
X00456018Y00196750D01*
Y00209250D01*
X00455747Y00210616D01*
X00454973Y00211773D01*
X00454518Y00212077D01*
Y00217050D01*
X00454247Y00218416D01*
X00453473Y00219573D01*
X00449323Y00223723D01*
X00448166Y00224497D01*
X00446800Y00224769D01*
X00433827D01*
X00433523Y00225223D01*
X00432365Y00225997D01*
X00431000Y00226269D01*
X00415000D01*
X00413634Y00225997D01*
X00412477Y00225223D01*
X00411703Y00224066D01*
X00411431Y00222700D01*
Y00219700D01*
X00411703Y00218334D01*
X00412477Y00217177D01*
X00413634Y00216403D01*
X00415000Y00216131D01*
X00431000D01*
X00432365Y00216403D01*
X00433523Y00217177D01*
X00433827Y00217631D01*
X00445322D01*
X00447381Y00215572D01*
Y00212077D01*
X00446926Y00211773D01*
X00446153Y00210616D01*
X00445881Y00209250D01*
Y00196750D01*
X00446153Y00195384D01*
X00446203Y00195309D01*
X00445524Y00194039D01*
X00361845D01*
X00342442Y00213442D01*
X00341780Y00213884D01*
X00341000Y00214039D01*
X00309250D01*
Y00225000D01*
X00306819D01*
Y00225750D01*
X00306547Y00227116D01*
X00305773Y00228273D01*
X00303398Y00230648D01*
X00302241Y00231422D01*
X00300875Y00231694D01*
X00287353D01*
X00285569Y00233478D01*
Y00376522D01*
X00311478Y00402431D01*
X00599522D01*
X00619431Y00382522D01*
Y00181515D01*
X00619703Y00180149D01*
X00620477Y00178991D01*
X00631991Y00167477D01*
X00633149Y00166703D01*
X00634515Y00166431D01*
X00803000D01*
X00804366Y00166703D01*
X00805523Y00167477D01*
X00823523Y00185477D01*
X00824297Y00186634D01*
X00824569Y00188000D01*
Y00292522D01*
X00831478Y00299431D01*
X00850421D01*
X00850619Y00298161D01*
X00848898Y00296440D01*
X00847581Y00294160D01*
X00846900Y00291617D01*
Y00288983D01*
X00847581Y00286440D01*
X00848898Y00284160D01*
X00850760Y00282298D01*
X00853040Y00280982D01*
X00855583Y00280300D01*
X00858216D01*
X00860760Y00280982D01*
X00861021Y00281132D01*
X00869431Y00272722D01*
Y00259478D01*
X00865522Y00255569D01*
X00863277D01*
X00862937Y00256839D01*
X00863040Y00256898D01*
X00864902Y00258760D01*
X00866218Y00261040D01*
X00866900Y00263584D01*
Y00266217D01*
X00866218Y00268760D01*
X00864902Y00271040D01*
X00863040Y00272902D01*
X00860760Y00274219D01*
X00858216Y00274900D01*
X00855583D01*
X00853040Y00274219D01*
X00850760Y00272902D01*
X00848898Y00271040D01*
X00847581Y00268760D01*
X00846900Y00266217D01*
Y00263584D01*
X00847035Y00263081D01*
X00833477Y00249523D01*
X00832703Y00248366D01*
X00832431Y00247000D01*
Y00182478D01*
X00805522Y00155569D01*
X00803636D01*
X00802787Y00156839D01*
X00803250Y00157956D01*
Y00160044D01*
X00802451Y00161974D01*
X00800974Y00163451D01*
X00799044Y00164250D01*
X00796956D01*
X00795026Y00163451D01*
X00794144Y00162569D01*
X00625478D01*
X00612569Y00175478D01*
Y00258000D01*
X00612297Y00259366D01*
X00611523Y00260523D01*
X00582523Y00289523D01*
X00581366Y00290297D01*
X00580000Y00290569D01*
X00566000D01*
Y00293575D01*
X00567451Y00295026D01*
X00568250Y00296956D01*
Y00299044D01*
X00567451Y00300974D01*
X00565974Y00302451D01*
X00564044Y00303250D01*
X00561956D01*
X00561520Y00303069D01*
X00560250Y00303918D01*
Y00304000D01*
X00548250D01*
Y00302000D01*
X00543750D01*
Y00304000D01*
X00531750D01*
Y00302000D01*
X00528500D01*
Y00302400D01*
X00505500D01*
Y00292400D01*
X00527000D01*
Y00289700D01*
X00505500D01*
Y00279700D01*
X00527000D01*
Y00277000D01*
X00505500D01*
Y00267000D01*
X00527000D01*
Y00264300D01*
X00505500D01*
Y00254300D01*
X00527000D01*
Y00251600D01*
X00505500D01*
Y00241600D01*
X00528500D01*
Y00243431D01*
X00531750D01*
Y00241000D01*
X00543750D01*
Y00247953D01*
X00546797Y00251000D01*
X00548250D01*
Y00241000D01*
X00560250D01*
Y00241082D01*
X00561520Y00241931D01*
X00561956Y00241750D01*
X00564044D01*
X00565974Y00242549D01*
X00567451Y00244026D01*
X00568250Y00245956D01*
Y00248044D01*
X00567451Y00249974D01*
X00567263Y00250161D01*
X00567789Y00251431D01*
X00572522D01*
X00581431Y00242522D01*
Y00162000D01*
X00581703Y00160634D01*
X00582477Y00159477D01*
X00609477Y00132477D01*
X00610634Y00131703D01*
X00612000Y00131431D01*
X00814000D01*
X00815366Y00131703D01*
X00816523Y00132477D01*
X00854478Y00170431D01*
X00863000D01*
X00864366Y00170703D01*
X00865523Y00171477D01*
X00874523Y00180477D01*
X00875297Y00181634D01*
X00875569Y00183000D01*
Y00199000D01*
X00875297Y00200366D01*
X00874523Y00201523D01*
X00866068Y00209979D01*
X00866218Y00210240D01*
X00866900Y00212784D01*
Y00215417D01*
X00866218Y00217960D01*
X00864902Y00220240D01*
X00863040Y00222102D01*
X00860760Y00223419D01*
X00858216Y00224100D01*
X00855583D01*
X00853040Y00223419D01*
X00850760Y00222102D01*
X00848898Y00220240D01*
X00847839Y00218405D01*
X00846569Y00218745D01*
Y00243522D01*
X00851478Y00248431D01*
X00867000D01*
X00868366Y00248703D01*
X00869523Y00249477D01*
X00875523Y00255477D01*
X00876297Y00256634D01*
X00876569Y00258000D01*
Y00274200D01*
X00876297Y00275566D01*
X00875523Y00276723D01*
X00866068Y00286179D01*
X00866218Y00286440D01*
X00866900Y00288983D01*
Y00291617D01*
X00866218Y00294160D01*
X00864902Y00296440D01*
X00863181Y00298161D01*
X00863380Y00299431D01*
X00864000D01*
X00865366Y00299703D01*
X00866523Y00300477D01*
X00871523Y00305477D01*
X00872297Y00306634D01*
X00872569Y00308000D01*
Y00329000D01*
X00872297Y00330366D01*
X00871523Y00331523D01*
X00866068Y00336979D01*
X00866218Y00337240D01*
X00866900Y00339784D01*
Y00342417D01*
X00866218Y00344960D01*
X00864902Y00347240D01*
X00863040Y00349102D01*
X00860760Y00350419D01*
X00858216Y00351100D01*
X00855583D01*
X00853040Y00350419D01*
X00850760Y00349102D01*
X00848898Y00347240D01*
X00847581Y00344960D01*
X00846900Y00342417D01*
Y00339784D01*
X00847581Y00337240D01*
X00848898Y00334960D01*
X00849709Y00334149D01*
X00850000Y00333000D01*
X00850000Y00333000D01*
X00850000D01*
X00850000Y00333000D01*
Y00323000D01*
X00850000Y00323000D01*
X00850000D01*
X00849183Y00322125D01*
X00848898Y00321840D01*
X00847587Y00319569D01*
X00831000D01*
X00829634Y00319297D01*
X00828477Y00318523D01*
X00812477Y00302523D01*
X00811703Y00301366D01*
X00811431Y00300000D01*
Y00191478D01*
X00803717Y00183763D01*
X00802640Y00184483D01*
X00803250Y00185956D01*
Y00188044D01*
X00802451Y00189974D01*
X00801569Y00190856D01*
Y00313522D01*
X00825523Y00337477D01*
X00826297Y00338634D01*
X00826569Y00340000D01*
Y00378522D01*
X00836378Y00388331D01*
X00847503D01*
X00847581Y00388040D01*
X00848898Y00385760D01*
X00850760Y00383898D01*
X00853040Y00382581D01*
X00855583Y00381900D01*
X00858216D01*
X00860760Y00382581D01*
X00863040Y00383898D01*
X00864902Y00385760D01*
X00866218Y00388040D01*
X00866900Y00390583D01*
Y00393217D01*
X00866218Y00395760D01*
X00864902Y00398040D01*
X00863040Y00399902D01*
X00860760Y00401218D01*
X00858216Y00401900D01*
X00855583D01*
X00853040Y00401218D01*
X00850760Y00399902D01*
X00848898Y00398040D01*
X00847581Y00395760D01*
X00847503Y00395469D01*
X00834900D01*
X00833534Y00395197D01*
X00832377Y00394423D01*
X00820477Y00382523D01*
X00819703Y00381366D01*
X00819431Y00380000D01*
Y00341478D01*
X00795477Y00317523D01*
X00794703Y00316366D01*
X00794431Y00315000D01*
Y00190856D01*
X00793549Y00189974D01*
X00792750Y00188044D01*
Y00185956D01*
X00793549Y00184026D01*
X00795026Y00182549D01*
X00796956Y00181750D01*
X00799044D01*
X00800517Y00182360D01*
X00801237Y00181283D01*
X00799522Y00179569D01*
X00685579D01*
X00685381Y00180839D01*
X00687102Y00182560D01*
X00688419Y00184840D01*
X00689100Y00187383D01*
Y00190017D01*
X00688419Y00192560D01*
X00687102Y00194840D01*
X00685240Y00196702D01*
X00682960Y00198019D01*
X00680417Y00198700D01*
X00677784D01*
X00675240Y00198019D01*
X00672960Y00196702D01*
X00671098Y00194840D01*
X00669781Y00192560D01*
X00669100Y00190017D01*
Y00187383D01*
X00669781Y00184840D01*
X00671098Y00182560D01*
X00672819Y00180839D01*
X00672621Y00179569D01*
X00638478D01*
X00632569Y00185478D01*
Y00386485D01*
X00632297Y00387851D01*
X00631523Y00389009D01*
X00607009Y00413523D01*
X00605851Y00414297D01*
X00604485Y00414569D01*
X00513418D01*
X00513136Y00415173D01*
X00513070Y00415839D01*
X00513389Y00416084D01*
X00513933Y00416398D01*
X00514377Y00416842D01*
X00514875Y00417224D01*
X00515258Y00417722D01*
X00515702Y00418166D01*
X00516016Y00418710D01*
X00516398Y00419209D01*
X00516639Y00419789D01*
X00516953Y00420333D01*
X00517115Y00420939D01*
X00517355Y00421520D01*
X00517437Y00422142D01*
X00517600Y00422749D01*
Y00423377D01*
X00517682Y00423999D01*
Y00464732D01*
X00517730Y00464778D01*
X00518952Y00465295D01*
X00519220Y00465116D01*
X00520000Y00464961D01*
X00540000D01*
X00540362Y00465033D01*
X00540954Y00464961D01*
X00541759Y00464243D01*
X00542098Y00462538D01*
X00543424Y00460553D01*
X00549000Y00454977D01*
Y00452250D01*
X00561000D01*
Y00458409D01*
X00561118Y00459000D01*
X00561000Y00459591D01*
Y00465000D01*
X00561000D01*
Y00468000D01*
X00563659D01*
X00564250Y00467882D01*
X00564841Y00468000D01*
X00570250D01*
Y00473409D01*
X00570367Y00474000D01*
Y00488000D01*
X00570368Y00488000D01*
Y00498750D01*
X00569902Y00501091D01*
X00568576Y00503076D01*
X00566591Y00504402D01*
X00564250Y00504868D01*
X00561909Y00504402D01*
X00560309Y00503333D01*
X00559039Y00503863D01*
Y00514000D01*
X00558884Y00514780D01*
X00558442Y00515442D01*
X00557780Y00515884D01*
X00557500Y00515940D01*
Y00520905D01*
X00558255Y00522729D01*
X00558582Y00525209D01*
Y00533000D01*
Y00620031D01*
X00632969Y00694418D01*
X00735031D01*
X00755418Y00674031D01*
Y00569700D01*
X00755418Y00569700D01*
Y00412000D01*
X00755418Y00412000D01*
Y00387421D01*
X00755744Y00384940D01*
X00756702Y00382630D01*
X00758224Y00380645D01*
X00758662Y00380309D01*
X00758239Y00379039D01*
X00745000D01*
X00744803Y00379000D01*
X00743750D01*
Y00378570D01*
X00743558Y00378442D01*
X00743116Y00377780D01*
X00742961Y00377000D01*
Y00370082D01*
X00742420Y00369754D01*
X00741691Y00369606D01*
X00739250Y00372047D01*
Y00379000D01*
X00727250D01*
Y00367000D01*
X00734203D01*
X00735183Y00366020D01*
X00734657Y00364750D01*
X00734350D01*
Y00345250D01*
X00744019D01*
X00744220Y00345116D01*
X00745000Y00344961D01*
X00782961D01*
Y00330039D01*
X00772000D01*
X00771220Y00329884D01*
X00770558Y00329442D01*
X00770116Y00328780D01*
X00769961Y00328000D01*
Y00309750D01*
X00759000D01*
Y00306819D01*
X00757119D01*
Y00307250D01*
X00756847Y00308616D01*
X00756073Y00309773D01*
X00754916Y00310547D01*
X00753550Y00310819D01*
X00750550D01*
X00749184Y00310547D01*
X00748027Y00309773D01*
X00747253Y00308616D01*
X00746981Y00307250D01*
Y00294750D01*
X00747069Y00294309D01*
X00746073Y00293039D01*
X00744350D01*
Y00310750D01*
X00734350D01*
Y00291250D01*
X00735431D01*
Y00289000D01*
X00730219D01*
Y00291250D01*
X00731650D01*
Y00310750D01*
X00721650D01*
Y00291250D01*
X00723081D01*
Y00286850D01*
X00723353Y00285484D01*
X00724127Y00284327D01*
X00724250Y00284203D01*
Y00277000D01*
X00735431D01*
Y00275000D01*
X00732250D01*
Y00263000D01*
X00744250D01*
X00744961Y00262024D01*
Y00262000D01*
X00745116Y00261220D01*
X00745558Y00260558D01*
X00746220Y00260116D01*
X00747000Y00259961D01*
X00771000D01*
X00771000Y00259961D01*
X00771780Y00260116D01*
X00772442Y00260558D01*
X00783442Y00271558D01*
X00783884Y00272220D01*
X00784039Y00273000D01*
Y00312155D01*
X00796442Y00324558D01*
X00796884Y00325220D01*
X00797039Y00326000D01*
Y00360000D01*
X00796884Y00360780D01*
X00796442Y00361442D01*
X00795780Y00361884D01*
X00795000Y00362039D01*
X00774039D01*
Y00377000D01*
X00775060Y00378132D01*
X00779000D01*
X00779591Y00378250D01*
X00785000D01*
Y00383659D01*
X00785118Y00384250D01*
X00785000Y00384841D01*
Y00390250D01*
X00779591D01*
X00779000Y00390368D01*
X00774582D01*
Y00412000D01*
X00774582Y00412000D01*
Y00560118D01*
X00854023D01*
X00855583Y00559700D01*
X00858216D01*
X00860760Y00560382D01*
X00863040Y00561698D01*
X00863982Y00562640D01*
X00872375D01*
X00880940Y00554076D01*
Y00417000D01*
X00881180Y00415173D01*
X00881886Y00413470D01*
X00883008Y00412008D01*
X00892008Y00403008D01*
X00893470Y00401885D01*
X00895173Y00401180D01*
X00897000Y00400940D01*
X00898827Y00401180D01*
X00900530Y00401885D01*
X00901992Y00403008D01*
X00903114Y00404470D01*
X00903820Y00406173D01*
X00904060Y00408000D01*
X00903820Y00409827D01*
X00903114Y00411530D01*
X00901992Y00412992D01*
X00895060Y00419925D01*
Y00557000D01*
X00894820Y00558827D01*
X00894115Y00560530D01*
X00892992Y00561992D01*
X00880292Y00574692D01*
X00878830Y00575815D01*
X00877127Y00576520D01*
X00875300Y00576760D01*
X00863982D01*
X00863040Y00577702D01*
X00860760Y00579019D01*
X00858216Y00579700D01*
X00855583D01*
X00854023Y00579282D01*
X00774582D01*
Y00678000D01*
X00774255Y00680480D01*
X00773298Y00682791D01*
X00771775Y00684775D01*
X00745776Y00710775D01*
X00743791Y00712298D01*
X00741480Y00713255D01*
X00739000Y00713582D01*
D02*
G37*
G36*
X00680416Y00401900D02*
X00677784D01*
X00675240Y00401218D01*
X00672960Y00399902D01*
X00671098Y00398040D01*
X00669781Y00395760D01*
X00669100Y00393217D01*
Y00390583D01*
X00669781Y00388040D01*
X00671098Y00385760D01*
X00672960Y00383898D01*
X00675240Y00382581D01*
X00677784Y00381900D01*
X00680416D01*
X00682960Y00382581D01*
X00685240Y00383898D01*
X00687102Y00385760D01*
X00688419Y00388040D01*
X00689100Y00390583D01*
Y00393217D01*
X00688419Y00395760D01*
X00687102Y00398040D01*
X00685240Y00399902D01*
X00682960Y00401218D01*
X00680416Y00401900D01*
D02*
G37*
G36*
X00545500Y00382000D02*
X00486500D01*
Y00372569D01*
X00483000D01*
X00481634Y00372297D01*
X00480477Y00371523D01*
X00475227Y00366273D01*
X00474453Y00365116D01*
X00474181Y00363750D01*
Y00345000D01*
X00471750D01*
Y00333000D01*
X00474182D01*
Y00312228D01*
X00462922Y00300969D01*
X00434500D01*
Y00302400D01*
X00411500D01*
Y00292400D01*
X00434500D01*
Y00293832D01*
X00464400D01*
X00465766Y00294103D01*
X00466923Y00294877D01*
X00480274Y00308227D01*
X00481047Y00309384D01*
X00481319Y00310750D01*
Y00333000D01*
X00483750D01*
Y00345000D01*
X00481319D01*
Y00362272D01*
X00484478Y00365431D01*
X00486500D01*
Y00358000D01*
X00545500D01*
Y00382000D01*
D02*
G37*
G36*
X00705044Y00367250D02*
X00702956D01*
X00701026Y00366451D01*
X00699549Y00364974D01*
X00698750Y00363044D01*
Y00360956D01*
X00699345Y00359520D01*
X00698860Y00358250D01*
X00695000D01*
Y00346250D01*
X00697000D01*
Y00341750D01*
X00695000D01*
Y00339319D01*
X00689457D01*
X00689100Y00339784D01*
Y00342417D01*
X00688419Y00344960D01*
X00687102Y00347240D01*
X00685240Y00349102D01*
X00682960Y00350419D01*
X00680417Y00351100D01*
X00677784D01*
X00675240Y00350419D01*
X00672960Y00349102D01*
X00671098Y00347240D01*
X00669781Y00344960D01*
X00669100Y00342417D01*
Y00339784D01*
X00669781Y00337240D01*
X00671098Y00334960D01*
X00672960Y00333098D01*
X00675240Y00331782D01*
X00677784Y00331100D01*
X00680417D01*
X00682960Y00331782D01*
X00683857Y00332299D01*
X00684450Y00332182D01*
X00695000D01*
Y00329750D01*
X00707000D01*
Y00332182D01*
X00710750D01*
X00712116Y00332453D01*
X00713273Y00333227D01*
X00716473Y00336427D01*
X00717247Y00337584D01*
X00717519Y00338950D01*
Y00345250D01*
X00718950D01*
Y00364750D01*
X00708950D01*
X00707971Y00365453D01*
X00706974Y00366451D01*
X00705044Y00367250D01*
D02*
G37*
G36*
X00731650Y00364750D02*
X00721650D01*
Y00345250D01*
X00723081D01*
Y00338128D01*
X00708772Y00323819D01*
X00707000D01*
Y00326250D01*
X00695000D01*
Y00323819D01*
X00685038D01*
X00682960Y00325019D01*
X00680416Y00325700D01*
X00677784D01*
X00675240Y00325019D01*
X00672960Y00323702D01*
X00671098Y00321840D01*
X00669781Y00319560D01*
X00669100Y00317017D01*
Y00314384D01*
X00669781Y00311840D01*
X00671098Y00309560D01*
X00672960Y00307698D01*
X00675240Y00306382D01*
X00677784Y00305700D01*
X00680416D01*
X00682960Y00306382D01*
X00685240Y00307698D01*
X00687102Y00309560D01*
X00688419Y00311840D01*
X00689100Y00314384D01*
Y00316681D01*
X00695000D01*
Y00314250D01*
X00707000D01*
Y00316681D01*
X00710250D01*
X00711616Y00316953D01*
X00712773Y00317727D01*
X00729173Y00334127D01*
X00729947Y00335284D01*
X00730219Y00336650D01*
Y00345250D01*
X00731650D01*
Y00364750D01*
D02*
G37*
G36*
X00528500Y00327800D02*
X00505500D01*
Y00317800D01*
X00528500D01*
Y00327800D01*
D02*
G37*
G36*
X00453500Y00382000D02*
X00394500D01*
Y00358000D01*
X00453500D01*
Y00365431D01*
X00455522D01*
X00458681Y00362272D01*
Y00345000D01*
X00456250D01*
Y00333000D01*
X00458681D01*
Y00322728D01*
X00449622Y00313669D01*
X00434500D01*
Y00315100D01*
X00411500D01*
Y00305100D01*
X00434500D01*
Y00306531D01*
X00451100D01*
X00452466Y00306803D01*
X00453623Y00307577D01*
X00464773Y00318727D01*
X00465547Y00319884D01*
X00465819Y00321250D01*
Y00333000D01*
X00468250D01*
Y00345000D01*
X00465819D01*
Y00363750D01*
X00465547Y00365116D01*
X00464773Y00366273D01*
X00459523Y00371523D01*
X00458366Y00372297D01*
X00457000Y00372569D01*
X00453500D01*
Y00382000D01*
D02*
G37*
G36*
X00528500Y00315100D02*
X00505500D01*
Y00305100D01*
X00528500D01*
Y00315100D01*
D02*
G37*
G36*
X00707000Y00309750D02*
X00695000D01*
Y00297750D01*
X00698860D01*
X00699345Y00296480D01*
X00698750Y00295044D01*
Y00292956D01*
X00699549Y00291026D01*
X00701026Y00289549D01*
X00702956Y00288750D01*
X00705044D01*
X00706974Y00289549D01*
X00708451Y00291026D01*
X00709250Y00292956D01*
Y00295044D01*
X00708588Y00296642D01*
Y00300750D01*
X00708239Y00302506D01*
X00707244Y00303994D01*
X00707000Y00304239D01*
Y00309750D01*
D02*
G37*
G36*
X00680417Y00300300D02*
X00677784D01*
X00675240Y00299618D01*
X00672960Y00298302D01*
X00671098Y00296440D01*
X00669781Y00294160D01*
X00669100Y00291617D01*
Y00288983D01*
X00669781Y00286440D01*
X00671098Y00284160D01*
X00672960Y00282298D01*
X00675240Y00280982D01*
X00677784Y00280300D01*
X00680417D01*
X00682960Y00280982D01*
X00685240Y00282298D01*
X00687102Y00284160D01*
X00688419Y00286440D01*
X00689100Y00288983D01*
Y00291617D01*
X00688419Y00294160D01*
X00687102Y00296440D01*
X00685240Y00298302D01*
X00682960Y00299618D01*
X00680417Y00300300D01*
D02*
G37*
G36*
X00434500Y00289700D02*
X00411500D01*
Y00279700D01*
X00434500D01*
Y00289700D01*
D02*
G37*
G36*
X00434500Y00277000D02*
X00411500D01*
Y00267000D01*
X00434500D01*
Y00277000D01*
D02*
G37*
G36*
X00680416Y00274900D02*
X00677784D01*
X00675240Y00274219D01*
X00672960Y00272902D01*
X00671098Y00271040D01*
X00669781Y00268760D01*
X00669100Y00266217D01*
Y00263584D01*
X00669781Y00261040D01*
X00671098Y00258760D01*
X00672960Y00256898D01*
X00675240Y00255581D01*
X00677784Y00254900D01*
X00680416D01*
X00682960Y00255581D01*
X00685240Y00256898D01*
X00687102Y00258760D01*
X00688419Y00261040D01*
X00689100Y00263584D01*
Y00266217D01*
X00688419Y00268760D01*
X00687102Y00271040D01*
X00685240Y00272902D01*
X00682960Y00274219D01*
X00680416Y00274900D01*
D02*
G37*
G36*
X00434500Y00264300D02*
X00411500D01*
Y00254300D01*
X00434500D01*
Y00264300D01*
D02*
G37*
G36*
Y00251600D02*
X00411500D01*
Y00241600D01*
X00434500D01*
Y00251600D01*
D02*
G37*
G36*
X00680416Y00224100D02*
X00677784D01*
X00675240Y00223419D01*
X00672960Y00222102D01*
X00671098Y00220240D01*
X00669781Y00217960D01*
X00669100Y00215417D01*
Y00212784D01*
X00669781Y00210240D01*
X00671098Y00207960D01*
X00672960Y00206098D01*
X00675240Y00204782D01*
X00677784Y00204100D01*
X00680416D01*
X00682960Y00204782D01*
X00685240Y00206098D01*
X00687102Y00207960D01*
X00688419Y00210240D01*
X00689100Y00212784D01*
Y00215417D01*
X00688419Y00217960D01*
X00687102Y00220240D01*
X00685240Y00222102D01*
X00682960Y00223419D01*
X00680416Y00224100D01*
D02*
G37*
G36*
X00560250Y00239000D02*
X00548250D01*
Y00227000D01*
X00549662D01*
Y00225000D01*
X00548250D01*
Y00213000D01*
X00553412D01*
Y00210500D01*
X00551250D01*
Y00198500D01*
X00564750D01*
Y00200029D01*
X00566020Y00200555D01*
X00566026Y00200549D01*
X00567956Y00199750D01*
X00570044D01*
X00571974Y00200549D01*
X00573451Y00202026D01*
X00574250Y00203956D01*
Y00206044D01*
X00573451Y00207974D01*
X00571974Y00209451D01*
X00570044Y00210250D01*
X00567956D01*
X00566026Y00209451D01*
X00566020Y00209445D01*
X00564750Y00209971D01*
Y00210500D01*
X00562588D01*
Y00212651D01*
X00563000Y00213750D01*
X00575000D01*
Y00225750D01*
X00563000D01*
Y00224338D01*
X00560250D01*
Y00225000D01*
X00558838D01*
Y00227000D01*
X00560250D01*
Y00239000D01*
D02*
G37*
G36*
X00564750Y00191500D02*
X00551250D01*
Y00179500D01*
X00564750D01*
Y00191500D01*
D02*
G37*
G36*
X00292750Y00153000D02*
X00280750D01*
Y00152863D01*
X00277250D01*
Y00153000D01*
X00265250D01*
Y00141000D01*
X00273137D01*
Y00139000D01*
X00273584Y00136756D01*
X00274855Y00134854D01*
X00276756Y00133584D01*
X00279000Y00133137D01*
X00281243Y00133584D01*
X00283146Y00134854D01*
X00284416Y00136756D01*
X00284863Y00139000D01*
Y00141000D01*
X00292750D01*
Y00153000D01*
D02*
G37*
G36*
X00309250Y00167000D02*
X00297250D01*
Y00155000D01*
X00299431D01*
Y00153000D01*
X00297250D01*
Y00141000D01*
X00297250D01*
X00298034Y00139730D01*
X00297750Y00139044D01*
Y00136956D01*
X00298549Y00135026D01*
X00300026Y00133549D01*
X00301956Y00132750D01*
X00304044D01*
X00305974Y00133549D01*
X00307451Y00135026D01*
X00308250Y00136956D01*
Y00139044D01*
X00307966Y00139730D01*
X00308815Y00141000D01*
X00309250D01*
Y00153000D01*
X00306569D01*
Y00155000D01*
X00309250D01*
Y00167000D01*
D02*
G37*
G36*
X00725316Y00115700D02*
X00722683D01*
X00720140Y00115019D01*
X00717860Y00113702D01*
X00715998Y00111840D01*
X00714681Y00109560D01*
X00714000Y00107017D01*
Y00104383D01*
X00714681Y00101840D01*
X00715998Y00099560D01*
X00717860Y00097698D01*
X00720140Y00096382D01*
X00722683Y00095700D01*
X00725316D01*
X00727860Y00096382D01*
X00730140Y00097698D01*
X00732002Y00099560D01*
X00733318Y00101840D01*
X00734000Y00104383D01*
Y00107017D01*
X00733318Y00109560D01*
X00732002Y00111840D01*
X00730140Y00113702D01*
X00727860Y00115019D01*
X00725316Y00115700D01*
D02*
G37*
G36*
X00699917D02*
X00697283D01*
X00694740Y00115019D01*
X00692460Y00113702D01*
X00690598Y00111840D01*
X00689281Y00109560D01*
X00688600Y00107017D01*
Y00104383D01*
X00689281Y00101840D01*
X00690598Y00099560D01*
X00692460Y00097698D01*
X00694740Y00096382D01*
X00697283Y00095700D01*
X00699917D01*
X00702460Y00096382D01*
X00704740Y00097698D01*
X00706602Y00099560D01*
X00707918Y00101840D01*
X00708600Y00104383D01*
Y00107017D01*
X00707918Y00109560D01*
X00706602Y00111840D01*
X00704740Y00113702D01*
X00702460Y00115019D01*
X00699917Y00115700D01*
D02*
G37*
G36*
X00674517D02*
X00671883D01*
X00669340Y00115019D01*
X00667060Y00113702D01*
X00665198Y00111840D01*
X00663882Y00109560D01*
X00663200Y00107017D01*
Y00104383D01*
X00663882Y00101840D01*
X00665198Y00099560D01*
X00667060Y00097698D01*
X00669340Y00096382D01*
X00671883Y00095700D01*
X00674517D01*
X00677060Y00096382D01*
X00679340Y00097698D01*
X00681202Y00099560D01*
X00682518Y00101840D01*
X00683200Y00104383D01*
Y00107017D01*
X00682518Y00109560D01*
X00681202Y00111840D01*
X00679340Y00113702D01*
X00677060Y00115019D01*
X00674517Y00115700D01*
D02*
G37*
G36*
X00649117D02*
X00646484D01*
X00643940Y00115019D01*
X00641660Y00113702D01*
X00639798Y00111840D01*
X00638481Y00109560D01*
X00637800Y00107017D01*
Y00104383D01*
X00638481Y00101840D01*
X00639798Y00099560D01*
X00641660Y00097698D01*
X00643940Y00096382D01*
X00646484Y00095700D01*
X00649117D01*
X00651660Y00096382D01*
X00653940Y00097698D01*
X00655802Y00099560D01*
X00657119Y00101840D01*
X00657800Y00104383D01*
Y00107017D01*
X00657119Y00109560D01*
X00655802Y00111840D01*
X00653940Y00113702D01*
X00651660Y00115019D01*
X00649117Y00115700D01*
D02*
G37*
G36*
X00623717D02*
X00621083D01*
X00618540Y00115019D01*
X00616260Y00113702D01*
X00614398Y00111840D01*
X00613082Y00109560D01*
X00612400Y00107017D01*
Y00104383D01*
X00613082Y00101840D01*
X00614398Y00099560D01*
X00616260Y00097698D01*
X00618540Y00096382D01*
X00621083Y00095700D01*
X00623717D01*
X00626260Y00096382D01*
X00628540Y00097698D01*
X00630402Y00099560D01*
X00631718Y00101840D01*
X00632400Y00104383D01*
Y00107017D01*
X00631718Y00109560D01*
X00630402Y00111840D01*
X00628540Y00113702D01*
X00626260Y00115019D01*
X00623717Y00115700D01*
D02*
G37*
G36*
X00725316Y00090300D02*
X00722683D01*
X00720140Y00089619D01*
X00717860Y00088302D01*
X00715998Y00086440D01*
X00714681Y00084160D01*
X00714000Y00081616D01*
Y00078983D01*
X00714681Y00076440D01*
X00715998Y00074160D01*
X00717860Y00072298D01*
X00720140Y00070981D01*
X00722683Y00070300D01*
X00725316D01*
X00727860Y00070981D01*
X00730140Y00072298D01*
X00732002Y00074160D01*
X00733318Y00076440D01*
X00734000Y00078983D01*
Y00081616D01*
X00733318Y00084160D01*
X00732002Y00086440D01*
X00730140Y00088302D01*
X00727860Y00089619D01*
X00725316Y00090300D01*
D02*
G37*
G36*
X00699917D02*
X00697283D01*
X00694740Y00089619D01*
X00692460Y00088302D01*
X00690598Y00086440D01*
X00689281Y00084160D01*
X00688600Y00081616D01*
Y00078983D01*
X00689281Y00076440D01*
X00690598Y00074160D01*
X00692460Y00072298D01*
X00694740Y00070981D01*
X00697283Y00070300D01*
X00699917D01*
X00702460Y00070981D01*
X00704740Y00072298D01*
X00706602Y00074160D01*
X00707918Y00076440D01*
X00708600Y00078983D01*
Y00081616D01*
X00707918Y00084160D01*
X00706602Y00086440D01*
X00704740Y00088302D01*
X00702460Y00089619D01*
X00699917Y00090300D01*
D02*
G37*
G36*
X00674517D02*
X00671883D01*
X00669340Y00089619D01*
X00667060Y00088302D01*
X00665198Y00086440D01*
X00663882Y00084160D01*
X00663200Y00081616D01*
Y00078983D01*
X00663882Y00076440D01*
X00665198Y00074160D01*
X00667060Y00072298D01*
X00669340Y00070981D01*
X00671883Y00070300D01*
X00674517D01*
X00677060Y00070981D01*
X00679340Y00072298D01*
X00681202Y00074160D01*
X00682518Y00076440D01*
X00683200Y00078983D01*
Y00081616D01*
X00682518Y00084160D01*
X00681202Y00086440D01*
X00679340Y00088302D01*
X00677060Y00089619D01*
X00674517Y00090300D01*
D02*
G37*
G36*
X00649117D02*
X00646484D01*
X00643940Y00089619D01*
X00641660Y00088302D01*
X00639798Y00086440D01*
X00638481Y00084160D01*
X00637800Y00081616D01*
Y00078983D01*
X00638481Y00076440D01*
X00639798Y00074160D01*
X00641660Y00072298D01*
X00643940Y00070981D01*
X00646484Y00070300D01*
X00649117D01*
X00651660Y00070981D01*
X00653940Y00072298D01*
X00655802Y00074160D01*
X00657119Y00076440D01*
X00657800Y00078983D01*
Y00081616D01*
X00657119Y00084160D01*
X00655802Y00086440D01*
X00653940Y00088302D01*
X00651660Y00089619D01*
X00649117Y00090300D01*
D02*
G37*
G36*
X00623717D02*
X00621083D01*
X00618540Y00089619D01*
X00616260Y00088302D01*
X00614398Y00086440D01*
X00613082Y00084160D01*
X00612400Y00081616D01*
Y00078983D01*
X00613082Y00076440D01*
X00614398Y00074160D01*
X00616260Y00072298D01*
X00618540Y00070981D01*
X00621083Y00070300D01*
X00623717D01*
X00626260Y00070981D01*
X00628540Y00072298D01*
X00630402Y00074160D01*
X00631718Y00076440D01*
X00632400Y00078983D01*
Y00081616D01*
X00631718Y00084160D01*
X00630402Y00086440D01*
X00628540Y00088302D01*
X00626260Y00089619D01*
X00623717Y00090300D01*
D02*
G37*
G36*
X00260750Y00167000D02*
X00248750D01*
Y00155000D01*
X00251182D01*
Y00153000D01*
X00248750D01*
Y00141000D01*
X00251182D01*
Y00132250D01*
X00251453Y00130884D01*
X00252227Y00129727D01*
X00259477Y00122477D01*
X00260634Y00121703D01*
X00262000Y00121431D01*
X00288522D01*
X00288631Y00121322D01*
Y00115097D01*
X00288340Y00115019D01*
X00286060Y00113702D01*
X00284198Y00111840D01*
X00282882Y00109560D01*
X00282200Y00107017D01*
Y00104383D01*
X00282882Y00101840D01*
X00284198Y00099560D01*
X00286060Y00097698D01*
X00288340Y00096382D01*
X00288631Y00096304D01*
Y00089697D01*
X00288340Y00089619D01*
X00286060Y00088302D01*
X00284198Y00086440D01*
X00282882Y00084160D01*
X00282200Y00081616D01*
Y00078983D01*
X00282882Y00076440D01*
X00284198Y00074160D01*
X00286060Y00072298D01*
X00288340Y00070981D01*
X00290884Y00070300D01*
X00293517D01*
X00296060Y00070981D01*
X00298340Y00072298D01*
X00300202Y00074160D01*
X00301518Y00076440D01*
X00302200Y00078983D01*
Y00081616D01*
X00301518Y00084160D01*
X00300202Y00086440D01*
X00298340Y00088302D01*
X00296060Y00089619D01*
X00295769Y00089697D01*
Y00096304D01*
X00296060Y00096382D01*
X00298340Y00097698D01*
X00300202Y00099560D01*
X00301518Y00101840D01*
X00302200Y00104383D01*
Y00107017D01*
X00301518Y00109560D01*
X00300202Y00111840D01*
X00298340Y00113702D01*
X00296060Y00115019D01*
X00295769Y00115097D01*
Y00122800D01*
X00295497Y00124166D01*
X00294723Y00125323D01*
X00292523Y00127523D01*
X00291366Y00128297D01*
X00290000Y00128569D01*
X00263478D01*
X00258319Y00133728D01*
Y00141000D01*
X00260750D01*
Y00153000D01*
X00258319D01*
Y00155000D01*
X00260750D01*
Y00167000D01*
D02*
G37*
G36*
X00268116Y00115700D02*
X00265483D01*
X00262940Y00115019D01*
X00260660Y00113702D01*
X00258798Y00111840D01*
X00257481Y00109560D01*
X00256800Y00107017D01*
Y00104383D01*
X00257481Y00101840D01*
X00258798Y00099560D01*
X00260660Y00097698D01*
X00262940Y00096382D01*
X00263231Y00096304D01*
Y00089697D01*
X00262940Y00089619D01*
X00260660Y00088302D01*
X00258798Y00086440D01*
X00257481Y00084160D01*
X00256800Y00081616D01*
Y00078983D01*
X00257481Y00076440D01*
X00258798Y00074160D01*
X00260660Y00072298D01*
X00262940Y00070981D01*
X00265483Y00070300D01*
X00268116D01*
X00270660Y00070981D01*
X00272940Y00072298D01*
X00274802Y00074160D01*
X00276119Y00076440D01*
X00276800Y00078983D01*
Y00081616D01*
X00276119Y00084160D01*
X00274802Y00086440D01*
X00272940Y00088302D01*
X00270660Y00089619D01*
X00270369Y00089697D01*
Y00096304D01*
X00270660Y00096382D01*
X00272940Y00097698D01*
X00274802Y00099560D01*
X00276119Y00101840D01*
X00276800Y00104383D01*
Y00107017D01*
X00276119Y00109560D01*
X00274802Y00111840D01*
X00272940Y00113702D01*
X00270660Y00115019D01*
X00268116Y00115700D01*
D02*
G37*
G36*
X00242717D02*
X00240084D01*
X00237540Y00115019D01*
X00235260Y00113702D01*
X00233398Y00111840D01*
X00232082Y00109560D01*
X00231400Y00107017D01*
Y00104383D01*
X00232082Y00101840D01*
X00233398Y00099560D01*
X00235260Y00097698D01*
X00236812Y00096802D01*
Y00089198D01*
X00235260Y00088302D01*
X00233398Y00086440D01*
X00232082Y00084160D01*
X00231400Y00081616D01*
Y00078983D01*
X00232082Y00076440D01*
X00233398Y00074160D01*
X00235260Y00072298D01*
X00237540Y00070981D01*
X00240084Y00070300D01*
X00242717D01*
X00245260Y00070981D01*
X00247540Y00072298D01*
X00249402Y00074160D01*
X00250718Y00076440D01*
X00251400Y00078983D01*
Y00081616D01*
X00250718Y00084160D01*
X00249402Y00086440D01*
X00247540Y00088302D01*
X00245988Y00089198D01*
Y00096802D01*
X00247540Y00097698D01*
X00249402Y00099560D01*
X00250718Y00101840D01*
X00251400Y00104383D01*
Y00107017D01*
X00250718Y00109560D01*
X00249402Y00111840D01*
X00247540Y00113702D01*
X00245260Y00115019D01*
X00242717Y00115700D01*
D02*
G37*
G36*
X00217316D02*
X00214683D01*
X00212140Y00115019D01*
X00209860Y00113702D01*
X00207998Y00111840D01*
X00206681Y00109560D01*
X00206000Y00107017D01*
Y00104383D01*
X00206681Y00101840D01*
X00207998Y00099560D01*
X00209860Y00097698D01*
X00211412Y00096802D01*
Y00089198D01*
X00209860Y00088302D01*
X00207998Y00086440D01*
X00206681Y00084160D01*
X00206000Y00081616D01*
Y00078983D01*
X00206681Y00076440D01*
X00207998Y00074160D01*
X00209860Y00072298D01*
X00212140Y00070981D01*
X00214683Y00070300D01*
X00217316D01*
X00219860Y00070981D01*
X00222140Y00072298D01*
X00224002Y00074160D01*
X00225319Y00076440D01*
X00226000Y00078983D01*
Y00081616D01*
X00225319Y00084160D01*
X00224002Y00086440D01*
X00222140Y00088302D01*
X00220588Y00089198D01*
Y00096802D01*
X00222140Y00097698D01*
X00224002Y00099560D01*
X00225319Y00101840D01*
X00226000Y00104383D01*
Y00107017D01*
X00225319Y00109560D01*
X00224002Y00111840D01*
X00222140Y00113702D01*
X00219860Y00115019D01*
X00217316Y00115700D01*
D02*
G37*
G36*
X00191917D02*
X00189284D01*
X00186740Y00115019D01*
X00184460Y00113702D01*
X00182598Y00111840D01*
X00181282Y00109560D01*
X00180600Y00107017D01*
Y00104383D01*
X00181282Y00101840D01*
X00182598Y00099560D01*
X00184460Y00097698D01*
X00186012Y00096802D01*
Y00089198D01*
X00184460Y00088302D01*
X00182598Y00086440D01*
X00181282Y00084160D01*
X00180600Y00081616D01*
Y00078983D01*
X00181282Y00076440D01*
X00182598Y00074160D01*
X00184460Y00072298D01*
X00186740Y00070981D01*
X00189284Y00070300D01*
X00191917D01*
X00194460Y00070981D01*
X00196740Y00072298D01*
X00198602Y00074160D01*
X00199918Y00076440D01*
X00200600Y00078983D01*
Y00081616D01*
X00199918Y00084160D01*
X00198602Y00086440D01*
X00196740Y00088302D01*
X00195188Y00089198D01*
Y00096802D01*
X00196740Y00097698D01*
X00198602Y00099560D01*
X00199918Y00101840D01*
X00200600Y00104383D01*
Y00107017D01*
X00199918Y00109560D01*
X00198602Y00111840D01*
X00196740Y00113702D01*
X00194460Y00115019D01*
X00191917Y00115700D01*
D02*
G37*
G36*
X00169200Y00115817D02*
X00161200D01*
X00158859Y00115352D01*
X00156874Y00114026D01*
X00155548Y00112041D01*
X00155083Y00109700D01*
Y00101700D01*
X00155548Y00099359D01*
X00156874Y00097374D01*
X00158140Y00096529D01*
Y00087382D01*
X00157198Y00086440D01*
X00155882Y00084160D01*
X00155200Y00081616D01*
Y00078983D01*
X00155882Y00076440D01*
X00157198Y00074160D01*
X00159060Y00072298D01*
X00161340Y00070981D01*
X00163883Y00070300D01*
X00166516D01*
X00169060Y00070981D01*
X00171340Y00072298D01*
X00173202Y00074160D01*
X00174519Y00076440D01*
X00175200Y00078983D01*
Y00081616D01*
X00174519Y00084160D01*
X00173202Y00086440D01*
X00172260Y00087382D01*
Y00096529D01*
X00173526Y00097374D01*
X00174852Y00099359D01*
X00175317Y00101700D01*
Y00109700D01*
X00174852Y00112041D01*
X00173526Y00114026D01*
X00171541Y00115352D01*
X00169200Y00115817D01*
D02*
G37*
G36*
X00783000Y00116039D02*
X00741000D01*
X00740220Y00115884D01*
X00739558Y00115442D01*
X00739116Y00114780D01*
X00738961Y00114000D01*
Y00072000D01*
X00739116Y00071220D01*
X00739558Y00070558D01*
X00740220Y00070116D01*
X00741000Y00069961D01*
X00783000D01*
X00783780Y00070116D01*
X00784442Y00070558D01*
X00784884Y00071220D01*
X00785039Y00072000D01*
Y00114000D01*
X00784884Y00114780D01*
X00784442Y00115442D01*
X00783780Y00115884D01*
X00783000Y00116039D01*
D02*
G37*
G36*
X00579800D02*
X00537800D01*
X00537020Y00115884D01*
X00536358Y00115442D01*
X00535916Y00114780D01*
X00535761Y00114000D01*
Y00072000D01*
X00535916Y00071220D01*
X00536358Y00070558D01*
X00537020Y00070116D01*
X00537800Y00069961D01*
X00579800D01*
X00580580Y00070116D01*
X00581242Y00070558D01*
X00581684Y00071220D01*
X00581839Y00072000D01*
Y00114000D01*
X00581684Y00114780D01*
X00581242Y00115442D01*
X00580580Y00115884D01*
X00579800Y00116039D01*
D02*
G37*
G36*
X00452800D02*
X00410800D01*
X00410020Y00115884D01*
X00409358Y00115442D01*
X00408916Y00114780D01*
X00408761Y00114000D01*
Y00072000D01*
X00408916Y00071220D01*
X00409358Y00070558D01*
X00410020Y00070116D01*
X00410800Y00069961D01*
X00452800D01*
X00453580Y00070116D01*
X00454242Y00070558D01*
X00454684Y00071220D01*
X00454839Y00072000D01*
Y00114000D01*
X00454684Y00114780D01*
X00454242Y00115442D01*
X00453580Y00115884D01*
X00452800Y00116039D01*
D02*
G37*
%LPD*%
G36*
X00318000Y00567000D02*
X00293197D01*
X00293000Y00567039D01*
X00276000D01*
Y00585000D01*
X00290000D01*
Y00598000D01*
X00318000D01*
Y00567000D01*
D02*
G37*
G36*
X00230000D02*
X00205197D01*
X00205000Y00567039D01*
X00188000D01*
Y00585000D01*
X00202000D01*
Y00598000D01*
X00230000D01*
Y00567000D01*
D02*
G37*
G36*
X00293000Y00565000D02*
Y00520000D01*
X00276000D01*
Y00565000D01*
X00293000D01*
D01*
D02*
G37*
G36*
X00205000D02*
Y00520000D01*
X00201000D01*
X00188000Y00533000D01*
X00188000Y00565000D01*
X00205000D01*
D01*
D02*
G37*
G36*
X00557000Y00481000D02*
X00540000D01*
Y00467000D01*
X00520000D01*
Y00481000D01*
X00515000D01*
Y00514000D01*
X00546782D01*
X00549000Y00513708D01*
X00551218Y00514000D01*
X00557000D01*
Y00481000D01*
D02*
G37*
G36*
X00772000Y00360000D02*
X00795000D01*
Y00326000D01*
X00782000Y00313000D01*
Y00273000D01*
X00771000Y00262000D01*
X00747000D01*
Y00276000D01*
X00743000D01*
Y00291000D01*
X00772000D01*
Y00328000D01*
X00785000D01*
Y00347000D01*
X00745000D01*
Y00377000D01*
X00772000D01*
Y00360000D01*
D02*
G37*
G36*
X00543000Y00170000D02*
X00506000D01*
Y00160000D01*
X00434000D01*
Y00172000D01*
X00325000D01*
Y00183000D01*
X00318000D01*
X00310000Y00191000D01*
X00295000D01*
Y00195000D01*
Y00212000D01*
X00341000D01*
X00361000Y00192000D01*
X00472000D01*
Y00212000D01*
X00481000D01*
Y00192000D01*
X00514000D01*
Y00210000D01*
X00507000Y00217000D01*
Y00225000D01*
X00543000D01*
Y00170000D01*
D02*
G37*
G36*
X00783000Y00072000D02*
X00741000D01*
Y00114000D01*
X00783000D01*
Y00072000D01*
D02*
G37*
G36*
X00579800D02*
X00537800D01*
Y00114000D01*
X00579800D01*
Y00072000D01*
D02*
G37*
G36*
X00452800D02*
X00410800D01*
Y00114000D01*
X00452800D01*
Y00072000D01*
D02*
G37*
D15*
X00218250Y00625000D02*
D03*
X00201750D02*
D03*
X00210250Y00611000D02*
D03*
X00193750D02*
D03*
X00210250Y00593000D02*
D03*
X00193750D02*
D03*
X00298250Y00611000D02*
D03*
X00281750D02*
D03*
X00298250Y00593000D02*
D03*
X00281750D02*
D03*
X00200750Y00547000D02*
D03*
X00217250D02*
D03*
X00288750D02*
D03*
X00305250D02*
D03*
X00507750Y00474000D02*
D03*
X00524250Y00474000D02*
D03*
X00507750Y00488000D02*
D03*
X00524250D02*
D03*
Y00460000D02*
D03*
X00507750Y00460000D02*
D03*
X00527750Y00534000D02*
D03*
X00544250D02*
D03*
X00564250Y00488000D02*
D03*
X00547750D02*
D03*
Y00474000D02*
D03*
X00564250Y00474000D02*
D03*
X00546750Y00424000D02*
D03*
X00563250D02*
D03*
X00286750Y00219000D02*
D03*
X00303250D02*
D03*
X00445750Y00339000D02*
D03*
X00462250Y00339000D02*
D03*
X00254750Y00147000D02*
D03*
X00271250D02*
D03*
X00240250Y00191000D02*
D03*
X00223750D02*
D03*
X00303250Y00205000D02*
D03*
X00286750D02*
D03*
Y00161000D02*
D03*
X00303250D02*
D03*
X00303250Y00147000D02*
D03*
X00286750D02*
D03*
X00271250Y00161000D02*
D03*
X00254750D02*
D03*
X00254750Y00219000D02*
D03*
X00271250D02*
D03*
X00254750Y00205000D02*
D03*
X00271250D02*
D03*
X00505750Y00205000D02*
D03*
X00522250D02*
D03*
X00537750Y00233000D02*
D03*
X00554250D02*
D03*
Y00247000D02*
D03*
X00537750Y00247000D02*
D03*
X00554250Y00219000D02*
D03*
X00537750D02*
D03*
X00537750Y00298000D02*
D03*
X00554250D02*
D03*
X00494250Y00339000D02*
D03*
X00477750D02*
D03*
X00716750Y00373000D02*
D03*
X00733250D02*
D03*
X00749750D02*
D03*
X00721750Y00269000D02*
D03*
X00738250D02*
D03*
X00754750D02*
D03*
X00713750Y00283000D02*
D03*
X00730250Y00283000D02*
D03*
X00746750Y00283000D02*
D03*
D16*
X00146000Y00742750D02*
D03*
Y00759250D02*
D03*
X00171000Y00742750D02*
D03*
Y00759250D02*
D03*
X00225000Y00593750D02*
D03*
Y00610250D02*
D03*
X00313000Y00593750D02*
D03*
Y00610250D02*
D03*
X00701000Y00335750D02*
D03*
Y00352250D02*
D03*
Y00320250D02*
D03*
Y00303750D02*
D03*
X00438000Y00187750D02*
D03*
Y00204250D02*
D03*
X00240000Y00173250D02*
D03*
Y00156750D02*
D03*
X00223000D02*
D03*
Y00173250D02*
D03*
X00318000Y00191250D02*
D03*
Y00174750D02*
D03*
X00569000Y00236250D02*
D03*
Y00219750D02*
D03*
X00779000Y00367750D02*
D03*
Y00384250D02*
D03*
X00765000Y00367750D02*
D03*
Y00384250D02*
D03*
X00779000Y00352250D02*
D03*
Y00335750D02*
D03*
X00765000Y00320250D02*
D03*
Y00303750D02*
D03*
Y00287250D02*
D03*
Y00335750D02*
D03*
Y00352250D02*
D03*
X00420000Y00164250D02*
D03*
Y00147750D02*
D03*
X00438000Y00147750D02*
D03*
Y00164250D02*
D03*
X00520000Y00164000D02*
D03*
Y00147500D02*
D03*
X00502000Y00147750D02*
D03*
X00502000Y00164250D02*
D03*
D17*
X00558000Y00204500D02*
D03*
X00538000Y00195000D02*
D03*
X00558000Y00185500D02*
D03*
D20*
X00197000Y00629750D02*
X00200612Y00626138D01*
X00197000Y00629750D02*
Y00646000D01*
X00165200Y00080300D02*
Y00105700D01*
X00888000Y00417000D02*
Y00557000D01*
X00856900Y00569700D02*
X00875300D01*
X00888000Y00557000D01*
Y00417000D02*
X00897000Y00408000D01*
D21*
X00457300Y00423999D02*
D03*
X00482700D02*
D03*
X00508100D02*
D03*
D22*
X00431900D02*
D03*
D23*
X00171300Y00880000D02*
D03*
X00196700D02*
D03*
X00222100D02*
D03*
X00171300Y00782000D02*
D03*
X00145900D02*
D03*
X00266800Y00105700D02*
D03*
Y00080300D02*
D03*
X00292200Y00105700D02*
D03*
Y00080300D02*
D03*
X00317600Y00105700D02*
D03*
Y00080300D02*
D03*
X00343000Y00105700D02*
D03*
Y00080300D02*
D03*
X00368400Y00105700D02*
D03*
Y00080300D02*
D03*
X00393800Y00105700D02*
D03*
Y00080300D02*
D03*
X00419200Y00105700D02*
D03*
Y00080300D02*
D03*
X00444600Y00105700D02*
D03*
Y00080300D02*
D03*
X00470000Y00105700D02*
D03*
Y00080300D02*
D03*
X00495400Y00105700D02*
D03*
Y00080300D02*
D03*
X00520800Y00105700D02*
D03*
Y00080300D02*
D03*
X00546200Y00105700D02*
D03*
Y00080300D02*
D03*
X00571600Y00105700D02*
D03*
Y00080300D02*
D03*
X00597000Y00105700D02*
D03*
Y00080300D02*
D03*
X00622400Y00105700D02*
D03*
Y00080300D02*
D03*
X00647800Y00105700D02*
D03*
Y00080300D02*
D03*
X00673200Y00105700D02*
D03*
Y00080300D02*
D03*
X00698600Y00105700D02*
D03*
Y00080300D02*
D03*
X00724000Y00105700D02*
D03*
Y00080300D02*
D03*
X00749400Y00105700D02*
D03*
Y00080300D02*
D03*
X00774800Y00105700D02*
D03*
Y00080300D02*
D03*
X00216000Y00105700D02*
D03*
X00190600D02*
D03*
X00216000Y00080300D02*
D03*
X00190600D02*
D03*
X00165200D02*
D03*
X00241400Y00105700D02*
D03*
Y00080300D02*
D03*
X00679100Y00595100D02*
D03*
Y00620500D02*
D03*
Y00468100D02*
D03*
Y00442700D02*
D03*
Y00544300D02*
D03*
Y00493500D02*
D03*
X00679100Y00569700D02*
D03*
Y00518900D02*
D03*
Y00645900D02*
D03*
X00856900Y00620500D02*
D03*
X00679100Y00239500D02*
D03*
Y00214100D02*
D03*
Y00315700D02*
D03*
Y00264900D02*
D03*
Y00391900D02*
D03*
Y00366500D02*
D03*
X00679100Y00417300D02*
D03*
X00856900Y00391900D02*
D03*
X00679100Y00290300D02*
D03*
Y00188700D02*
D03*
Y00341100D02*
D03*
X00856900Y00493500D02*
D03*
Y00366500D02*
D03*
Y00341100D02*
D03*
Y00442700D02*
D03*
Y00417300D02*
D03*
Y00645900D02*
D03*
Y00569700D02*
D03*
Y00671300D02*
D03*
X00856900Y00595100D02*
D03*
X00856900Y00544300D02*
D03*
Y00518900D02*
D03*
X00856900Y00468100D02*
D03*
X00856900Y00214100D02*
D03*
Y00188700D02*
D03*
Y00315700D02*
D03*
Y00290300D02*
D03*
Y00264900D02*
D03*
X00856900Y00239500D02*
D03*
X00197000Y00646000D02*
D03*
X00223000D02*
D03*
X00169000Y00710000D02*
D03*
X00249000D02*
D03*
D24*
X00145900Y00880000D02*
D03*
X00165200Y00105700D02*
D03*
X00679100Y00671300D02*
D03*
D25*
X00046000Y00095500D02*
D03*
Y00020500D02*
D03*
X00096000D02*
D03*
Y00095500D02*
D03*
X00894000Y00020500D02*
D03*
Y00095500D02*
D03*
X00844000D02*
D03*
Y00020500D02*
D03*
X00046000Y00799500D02*
D03*
Y00724500D02*
D03*
X00096000D02*
D03*
Y00799500D02*
D03*
X00894000Y00724500D02*
D03*
Y00799500D02*
D03*
X00844000D02*
D03*
Y00724500D02*
D03*
D26*
X00366500Y00738500D02*
D03*
X00573500D02*
D03*
D27*
X00171000Y00759250D02*
X00171300Y00759550D01*
Y00782000D01*
X00145900Y00759350D02*
X00146000Y00759250D01*
X00145900Y00759350D02*
Y00782000D01*
X00684450Y00335750D02*
X00710750D01*
X00683650Y00320250D02*
X00710250D01*
X00635000Y00424000D02*
X00679100Y00468100D01*
X00563250Y00424000D02*
X00635000D01*
X00563250D02*
Y00437750D01*
X00564500Y00439000D01*
X00306515Y00411000D02*
X00604485D01*
X00276000Y00380485D02*
X00306515Y00411000D01*
X00604485D02*
X00629000Y00386485D01*
X00310000Y00406000D02*
X00601000D01*
X00282000Y00378000D02*
X00310000Y00406000D01*
X00601000D02*
X00623000Y00384000D01*
Y00181515D02*
Y00384000D01*
X00629000Y00184000D02*
Y00386485D01*
X00254750Y00132250D02*
Y00147000D01*
Y00161000D01*
X00290000Y00125000D02*
X00292200Y00122800D01*
X00262000Y00125000D02*
X00290000D01*
X00254750Y00132250D02*
X00262000Y00125000D01*
X00303250Y00219000D02*
Y00225750D01*
X00285875Y00228125D02*
X00300875D01*
X00303250Y00225750D01*
X00254750Y00219000D02*
Y00224750D01*
X00258625Y00228625D02*
X00272625D01*
X00254750Y00224750D02*
X00258625Y00228625D01*
X00282000Y00232000D02*
X00285875Y00228125D01*
X00272625Y00228625D02*
X00276000Y00232000D01*
Y00380485D01*
X00282000Y00232000D02*
Y00378000D01*
X00303000Y00138000D02*
Y00160750D01*
X00303250Y00161000D01*
X00292200Y00105700D02*
Y00122800D01*
Y00080300D02*
Y00105700D01*
X00223000Y00173250D02*
X00257250D01*
X00223000Y00173250D02*
X00223000Y00173250D01*
X00286750Y00205000D02*
Y00219000D01*
Y00190250D02*
Y00205000D01*
X00290750Y00186250D02*
X00302750D01*
X00271250Y00205000D02*
Y00219000D01*
Y00190250D02*
Y00205000D01*
X00255250Y00186250D02*
X00267250D01*
X00271250Y00190250D01*
X00286750D02*
X00290750Y00186250D01*
X00286750Y00175750D02*
X00290750Y00179750D01*
X00302750D01*
X00286750Y00161000D02*
Y00175750D01*
X00271250Y00161000D02*
Y00175750D01*
X00255250Y00179750D02*
X00267250D01*
X00271250Y00175750D01*
X00869000Y00308000D02*
Y00329000D01*
X00856900Y00341100D02*
X00869000Y00329000D01*
X00864000Y00303000D02*
X00869000Y00308000D01*
X00830000Y00303000D02*
X00864000D01*
X00537750Y00298000D02*
X00548750Y00287000D01*
X00580000D02*
X00609000Y00258000D01*
X00548750Y00287000D02*
X00580000D01*
X00739350Y00355000D02*
Y00366900D01*
X00733250Y00373000D02*
X00739350Y00366900D01*
X00623000Y00181515D02*
X00634515Y00170000D01*
X00629000Y00184000D02*
X00637000Y00176000D01*
X00856900Y00214100D02*
X00872000Y00199000D01*
Y00183000D02*
Y00199000D01*
X00853000Y00174000D02*
X00863000D01*
X00872000Y00183000D01*
X00814000Y00135000D02*
X00853000Y00174000D01*
X00612000Y00135000D02*
X00814000D01*
X00616000Y00140000D02*
X00811000D01*
X00856900Y00185900D02*
Y00188700D01*
X00811000Y00140000D02*
X00856900Y00185900D01*
X00619000Y00146000D02*
X00809000D01*
X00843000Y00180000D02*
Y00245000D01*
X00809000Y00146000D02*
X00843000Y00180000D01*
X00836000Y00181000D02*
Y00247000D01*
X00622000Y00152000D02*
X00807000D01*
X00836000Y00181000D01*
X00574000Y00255000D02*
X00585000Y00244000D01*
Y00162000D02*
X00612000Y00135000D01*
X00585000Y00162000D02*
Y00244000D01*
X00577000Y00263000D02*
X00591000Y00249000D01*
Y00165000D02*
X00616000Y00140000D01*
X00591000Y00165000D02*
Y00249000D01*
X00577000Y00272000D02*
X00597000Y00252000D01*
Y00168000D02*
X00619000Y00146000D01*
X00597000Y00168000D02*
Y00252000D01*
X00603000Y00171000D02*
X00622000Y00152000D01*
X00578000Y00280000D02*
X00603000Y00255000D01*
Y00171000D02*
Y00255000D01*
X00609000Y00174000D02*
X00624000Y00159000D01*
X00609000Y00174000D02*
Y00258000D01*
X00821000Y00188000D02*
Y00294000D01*
X00634515Y00170000D02*
X00803000D01*
X00821000Y00188000D01*
X00637000Y00176000D02*
X00801000D01*
X00815000Y00190000D01*
Y00300000D01*
X00798000Y00187000D02*
Y00315000D01*
X00624000Y00159000D02*
X00798000D01*
X00821000Y00294000D02*
X00830000Y00303000D01*
X00815000Y00300000D02*
X00831000Y00316000D01*
X00856600D01*
X00266800Y00080300D02*
Y00105700D01*
X00292200Y00080300D02*
X00292200Y00080300D01*
X00477750Y00310750D02*
Y00339000D01*
X00464400Y00297400D02*
X00477750Y00310750D01*
X00483000Y00369000D02*
X00515000D01*
X00477750Y00339000D02*
Y00363750D01*
X00483000Y00369000D01*
X00451100Y00310100D02*
X00462250Y00321250D01*
Y00339000D01*
X00457000Y00369000D02*
X00462250Y00363750D01*
Y00339000D02*
Y00363750D01*
X00424000Y00370000D02*
X00425000Y00369000D01*
X00457000D01*
X00423000Y00297400D02*
X00464400D01*
X00423000Y00310100D02*
X00451100D01*
X00710250Y00320250D02*
X00726650Y00336650D01*
Y00355000D01*
X00558500Y00205000D02*
X00569000D01*
X00558000Y00204500D02*
X00558500Y00205000D01*
X00517000Y00259300D02*
X00534300D01*
X00538000Y00263000D02*
X00577000D01*
X00534300Y00259300D02*
X00538000Y00263000D01*
X00823000Y00340000D02*
Y00380000D01*
X00834900Y00391900D01*
X00856900D01*
X00798000Y00315000D02*
X00823000Y00340000D01*
X00856600Y00316000D02*
X00856900Y00315700D01*
X00538000Y00280000D02*
X00578000D01*
X00517000Y00272000D02*
X00577000D01*
X00545750Y00255000D02*
X00574000D01*
X00421250Y00149000D02*
X00450950D01*
X00420000Y00147750D02*
X00421250Y00149000D01*
X00490550Y00147500D02*
X00520000D01*
X00489050Y00149000D02*
X00490550Y00147500D01*
X00850000Y00252000D02*
X00867000D01*
X00517000Y00284700D02*
X00533300D01*
X00538000Y00280000D01*
X00537150Y00297400D02*
X00537750Y00298000D01*
X00517000Y00297400D02*
X00537150D01*
X00536850Y00233900D02*
X00537750Y00233000D01*
X00517000Y00233900D02*
X00536850D01*
X00517000Y00246600D02*
X00517400Y00247000D01*
X00537750D01*
X00446800Y00221200D02*
X00450950Y00217050D01*
X00423000Y00221200D02*
X00446800D01*
X00450950Y00203000D02*
Y00217050D01*
X00537750Y00247000D02*
X00545750Y00255000D01*
X00836000Y00247000D02*
X00853900Y00264900D01*
X00856900D01*
X00843000Y00245000D02*
X00850000Y00252000D01*
X00856900Y00290300D02*
X00873000Y00274200D01*
Y00258000D02*
Y00274200D01*
X00867000Y00252000D02*
X00873000Y00258000D01*
X00679100Y00341100D02*
X00684450Y00335750D01*
X00710750D02*
X00713950Y00338950D01*
Y00355000D01*
X00679100Y00315700D02*
X00683650Y00320250D01*
X00726650Y00286850D02*
Y00301000D01*
Y00286850D02*
X00730500Y00283000D01*
X00739000Y00300650D02*
X00739350Y00301000D01*
X00739000Y00269000D02*
Y00300650D01*
X00754300Y00303250D02*
X00765000D01*
X00752050Y00301000D02*
X00754300Y00303250D01*
D28*
X00310500Y00548000D02*
X00316000D01*
X00305250D02*
X00310500D01*
X00310500Y00548000D02*
Y00560500D01*
X00310500Y00548000D02*
X00310500Y00548000D01*
X00217250Y00548000D02*
X00222500D01*
Y00560500D01*
Y00548000D02*
X00229000D01*
X00704000Y00355250D02*
Y00362000D01*
X00701000Y00352250D02*
X00704000Y00355250D01*
X00701000Y00303750D02*
X00704000Y00300750D01*
Y00294000D02*
Y00300750D01*
X00202000Y00215000D02*
X00215000Y00228000D01*
X00202000Y00165000D02*
X00210250Y00156750D01*
X00202000Y00165000D02*
Y00215000D01*
X00210250Y00156750D02*
X00223000D01*
X00215000Y00228000D02*
X00240000D01*
Y00212000D02*
Y00228000D01*
Y00212000D02*
X00247000Y00205000D01*
X00254750D01*
X00558000Y00204500D02*
Y00219000D01*
X00554250Y00247000D02*
X00563000D01*
X00554250Y00298000D02*
X00563000D01*
X00554250Y00219000D02*
X00558000D01*
X00554250D02*
X00555000Y00219750D01*
X00569000D01*
X00554250Y00219000D02*
Y00233000D01*
Y00247000D02*
X00554250Y00247000D01*
X00190600Y00080400D02*
Y00105700D01*
X00216000Y00080300D02*
Y00105700D01*
X00241400Y00080300D02*
Y00105700D01*
D29*
X00549000Y00533000D02*
Y00624000D01*
Y00525209D02*
Y00533000D01*
X00485500Y00560500D02*
X00549000D01*
Y00624000D02*
X00629000Y00704000D01*
X00452000Y00527000D02*
X00485500Y00560500D01*
X00195500Y00538500D02*
Y00554000D01*
X00207000Y00527000D02*
X00452000D01*
X00195500Y00538500D02*
X00207000Y00527000D01*
X00219000Y00293000D02*
Y00525000D01*
X00219000Y00269000D02*
Y00281000D01*
Y00257000D02*
Y00269000D01*
X00765000Y00387421D02*
Y00412000D01*
X00765000D02*
Y00569700D01*
X00629000Y00704000D02*
X00739000D01*
X00765000Y00569700D02*
Y00678000D01*
X00739000Y00704000D02*
X00765000Y00678000D01*
X00219000Y00281000D02*
Y00293000D01*
X00508100Y00423999D02*
Y00471623D01*
X00765000Y00569700D02*
X00856900D01*
X00765000D02*
X00765000D01*
D30*
X00518000Y00533000D02*
X00519000Y00534000D01*
X00523500D01*
X00527750D01*
X00522500Y00533000D02*
X00523500Y00534000D01*
X00249000Y00743000D02*
X00249250Y00742750D01*
X00146000D02*
X00249250D01*
X00298500Y00693500D01*
Y00611000D02*
Y00693500D01*
X00249000Y00743000D02*
Y00853800D01*
X00522500Y00521491D02*
Y00533000D01*
X00564250Y00474000D02*
Y00488000D01*
X00564250Y00488000D02*
Y00498750D01*
X00222800Y00880000D02*
X00249000Y00853800D01*
X00765000Y00384250D02*
X00765000Y00384250D01*
X00779000D01*
X00218000Y00611000D02*
X00224250D01*
X00210250D02*
X00218000D01*
X00224250D02*
X00225000Y00610250D01*
X00218000Y00611000D02*
X00218250Y00611250D01*
Y00625000D01*
X00299000Y00610250D02*
X00313000D01*
X00298250Y00611000D02*
X00299000Y00610250D01*
X00547750Y00464879D02*
X00553629Y00459000D01*
X00555000D01*
X00547750Y00464879D02*
Y00474000D01*
X00774250Y00079750D02*
X00774800Y00080300D01*
X00444250Y00079950D02*
X00444600Y00080300D01*
X00571250Y00079950D02*
X00571600Y00080300D01*
D31*
X00190600Y00080400D02*
X00192000Y00079000D01*
X00678000Y00392000D02*
X00682447D01*
X00423000Y00233900D02*
X00478100D01*
X00489050Y00222950D01*
Y00203000D02*
Y00222950D01*
X00463650Y00149000D02*
X00466750Y00145900D01*
Y00133942D02*
Y00145900D01*
X00360308Y00130500D02*
X00463308D01*
X00466750Y00133942D01*
X00352500Y00122692D02*
X00360308Y00130500D01*
X00352500Y00114000D02*
Y00122692D01*
X00343000Y00105700D02*
X00344200D01*
X00352500Y00114000D01*
X00473250Y00145900D02*
X00476350Y00149000D01*
X00473250Y00131250D02*
Y00145900D01*
X00466000Y00124000D02*
X00473250Y00131250D01*
X00363000Y00124000D02*
X00466000D01*
X00359000Y00114000D02*
X00367300Y00105700D01*
X00359000Y00120000D02*
X00363000Y00124000D01*
X00359000Y00114000D02*
Y00120000D01*
X00367300Y00105700D02*
X00368400D01*
X00343000Y00080300D02*
X00352450Y00089750D01*
X00358950Y00089750D02*
X00368400Y00080300D01*
X00358950Y00089750D02*
Y00096250D01*
X00368400Y00105700D01*
X00352450Y00089750D02*
Y00096250D01*
X00343000Y00105700D02*
X00352450Y00096250D01*
X00216000Y00079000D02*
Y00080300D01*
X00241400Y00079600D02*
Y00080300D01*
Y00079600D02*
X00242000Y00079000D01*
X00544900Y00107000D02*
X00547000D01*
X00749400Y00105700D02*
X00750000Y00105100D01*
Y00105000D02*
Y00105100D01*
D32*
X00636000Y00690000D02*
D03*
X00606000Y00659000D02*
D03*
X00733000Y00328000D02*
D03*
X00926000Y00772000D02*
D03*
X00911000Y00742000D02*
D03*
X00926000Y00712000D02*
D03*
Y00652000D02*
D03*
Y00592000D02*
D03*
Y00532000D02*
D03*
X00911000Y00502000D02*
D03*
X00926000Y00472000D02*
D03*
X00911000Y00442000D02*
D03*
X00926000Y00412000D02*
D03*
X00911000Y00382000D02*
D03*
X00926000Y00352000D02*
D03*
X00911000Y00322000D02*
D03*
X00926000Y00292000D02*
D03*
X00911000Y00262000D02*
D03*
X00926000Y00232000D02*
D03*
X00911000Y00202000D02*
D03*
X00926000Y00172000D02*
D03*
X00911000Y00142000D02*
D03*
X00926000Y00112000D02*
D03*
Y00052000D02*
D03*
X00896000Y00772000D02*
D03*
X00881000Y00742000D02*
D03*
X00896000Y00592000D02*
D03*
X00881000Y00382000D02*
D03*
X00896000Y00352000D02*
D03*
X00881000Y00322000D02*
D03*
X00896000Y00292000D02*
D03*
X00881000Y00262000D02*
D03*
X00896000Y00232000D02*
D03*
X00881000Y00202000D02*
D03*
X00896000Y00172000D02*
D03*
X00881000Y00142000D02*
D03*
X00896000Y00052000D02*
D03*
X00866000Y00832000D02*
D03*
Y00772000D02*
D03*
Y00712000D02*
D03*
Y00532000D02*
D03*
Y00352000D02*
D03*
X00851000Y00142000D02*
D03*
X00866000Y00112000D02*
D03*
Y00052000D02*
D03*
X00836000Y00832000D02*
D03*
Y00772000D02*
D03*
X00821000Y00742000D02*
D03*
Y00082000D02*
D03*
X00836000Y00052000D02*
D03*
X00806000Y00832000D02*
D03*
X00791000Y00802000D02*
D03*
X00806000Y00772000D02*
D03*
X00791000Y00742000D02*
D03*
Y00622000D02*
D03*
Y00502000D02*
D03*
Y00442000D02*
D03*
Y00382000D02*
D03*
Y00262000D02*
D03*
Y00202000D02*
D03*
X00806000Y00112000D02*
D03*
X00791000Y00082000D02*
D03*
X00806000Y00052000D02*
D03*
X00791000Y00022000D02*
D03*
X00761000Y00862000D02*
D03*
X00776000Y00832000D02*
D03*
X00761000Y00802000D02*
D03*
X00776000Y00772000D02*
D03*
X00761000Y00742000D02*
D03*
X00776000Y00232000D02*
D03*
X00761000Y00202000D02*
D03*
X00776000Y00052000D02*
D03*
X00761000Y00022000D02*
D03*
X00731000Y00862000D02*
D03*
X00746000Y00832000D02*
D03*
X00731000Y00802000D02*
D03*
X00746000Y00772000D02*
D03*
X00731000Y00742000D02*
D03*
Y00682000D02*
D03*
X00746000Y00652000D02*
D03*
X00731000Y00622000D02*
D03*
X00746000Y00592000D02*
D03*
X00731000Y00562000D02*
D03*
X00746000Y00532000D02*
D03*
X00731000Y00502000D02*
D03*
X00746000Y00472000D02*
D03*
X00731000Y00442000D02*
D03*
X00746000Y00232000D02*
D03*
X00731000Y00202000D02*
D03*
X00746000Y00052000D02*
D03*
X00731000Y00022000D02*
D03*
X00701000Y00862000D02*
D03*
X00716000Y00832000D02*
D03*
X00701000Y00802000D02*
D03*
X00716000Y00772000D02*
D03*
X00701000Y00742000D02*
D03*
Y00682000D02*
D03*
Y00622000D02*
D03*
Y00562000D02*
D03*
Y00502000D02*
D03*
Y00442000D02*
D03*
X00716000Y00232000D02*
D03*
X00701000Y00202000D02*
D03*
X00716000Y00052000D02*
D03*
X00701000Y00022000D02*
D03*
X00686000Y00832000D02*
D03*
X00671000Y00802000D02*
D03*
X00686000Y00772000D02*
D03*
X00671000Y00742000D02*
D03*
X00686000Y00532000D02*
D03*
X00671000Y00202000D02*
D03*
X00686000Y00112000D02*
D03*
Y00052000D02*
D03*
X00671000Y00022000D02*
D03*
X00656000Y00832000D02*
D03*
X00641000Y00802000D02*
D03*
Y00742000D02*
D03*
X00656000Y00652000D02*
D03*
Y00592000D02*
D03*
Y00532000D02*
D03*
X00641000Y00502000D02*
D03*
X00656000Y00472000D02*
D03*
X00641000Y00442000D02*
D03*
X00656000Y00412000D02*
D03*
X00641000Y00382000D02*
D03*
X00656000Y00352000D02*
D03*
X00641000Y00322000D02*
D03*
X00656000Y00292000D02*
D03*
X00641000Y00262000D02*
D03*
X00656000Y00232000D02*
D03*
Y00052000D02*
D03*
X00641000Y00022000D02*
D03*
X00626000Y00832000D02*
D03*
X00611000Y00802000D02*
D03*
Y00742000D02*
D03*
Y00622000D02*
D03*
X00626000Y00592000D02*
D03*
Y00532000D02*
D03*
X00611000Y00502000D02*
D03*
X00626000Y00472000D02*
D03*
X00611000Y00442000D02*
D03*
X00626000Y00412000D02*
D03*
X00611000Y00382000D02*
D03*
Y00322000D02*
D03*
X00626000Y00052000D02*
D03*
X00611000Y00022000D02*
D03*
X00581000Y00802000D02*
D03*
X00596000Y00772000D02*
D03*
Y00712000D02*
D03*
X00581000Y00682000D02*
D03*
Y00622000D02*
D03*
X00596000Y00592000D02*
D03*
Y00532000D02*
D03*
X00581000Y00502000D02*
D03*
X00596000Y00472000D02*
D03*
X00581000Y00442000D02*
D03*
Y00382000D02*
D03*
X00596000Y00352000D02*
D03*
X00581000Y00322000D02*
D03*
X00596000Y00292000D02*
D03*
Y00052000D02*
D03*
X00581000Y00022000D02*
D03*
X00551000Y00802000D02*
D03*
X00566000Y00772000D02*
D03*
X00551000Y00682000D02*
D03*
X00566000Y00592000D02*
D03*
Y00532000D02*
D03*
Y00352000D02*
D03*
X00551000Y00322000D02*
D03*
X00566000Y00172000D02*
D03*
Y00052000D02*
D03*
X00551000Y00022000D02*
D03*
X00521000Y00802000D02*
D03*
X00536000Y00772000D02*
D03*
X00521000Y00742000D02*
D03*
X00536000Y00712000D02*
D03*
X00521000Y00682000D02*
D03*
Y00622000D02*
D03*
X00536000Y00592000D02*
D03*
X00521000Y00442000D02*
D03*
X00536000Y00352000D02*
D03*
Y00052000D02*
D03*
X00521000Y00022000D02*
D03*
X00491000Y00802000D02*
D03*
X00506000Y00772000D02*
D03*
X00491000Y00742000D02*
D03*
X00506000Y00712000D02*
D03*
X00491000Y00682000D02*
D03*
Y00622000D02*
D03*
X00506000Y00592000D02*
D03*
Y00532000D02*
D03*
X00491000Y00502000D02*
D03*
Y00442000D02*
D03*
X00506000Y00352000D02*
D03*
X00491000Y00322000D02*
D03*
Y00262000D02*
D03*
X00506000Y00052000D02*
D03*
X00491000Y00022000D02*
D03*
X00461000Y00802000D02*
D03*
X00476000Y00772000D02*
D03*
X00461000Y00742000D02*
D03*
X00476000Y00712000D02*
D03*
X00461000Y00682000D02*
D03*
Y00622000D02*
D03*
X00476000Y00592000D02*
D03*
X00461000Y00562000D02*
D03*
Y00382000D02*
D03*
X00476000Y00292000D02*
D03*
X00461000Y00262000D02*
D03*
X00476000Y00052000D02*
D03*
X00461000Y00022000D02*
D03*
X00431000Y00802000D02*
D03*
X00446000Y00772000D02*
D03*
X00431000Y00742000D02*
D03*
X00446000Y00712000D02*
D03*
X00431000Y00682000D02*
D03*
Y00622000D02*
D03*
X00446000Y00592000D02*
D03*
X00431000Y00562000D02*
D03*
Y00502000D02*
D03*
X00446000Y00472000D02*
D03*
X00431000Y00442000D02*
D03*
X00446000Y00352000D02*
D03*
Y00052000D02*
D03*
X00431000Y00022000D02*
D03*
X00401000Y00802000D02*
D03*
X00416000Y00772000D02*
D03*
X00401000Y00742000D02*
D03*
X00416000Y00712000D02*
D03*
X00401000Y00682000D02*
D03*
Y00622000D02*
D03*
X00416000Y00592000D02*
D03*
X00401000Y00562000D02*
D03*
Y00502000D02*
D03*
X00416000Y00472000D02*
D03*
X00401000Y00442000D02*
D03*
X00416000Y00352000D02*
D03*
X00401000Y00322000D02*
D03*
Y00262000D02*
D03*
Y00202000D02*
D03*
Y00142000D02*
D03*
X00416000Y00052000D02*
D03*
X00401000Y00022000D02*
D03*
X00371000Y00802000D02*
D03*
X00386000Y00772000D02*
D03*
Y00712000D02*
D03*
X00371000Y00682000D02*
D03*
Y00622000D02*
D03*
X00386000Y00592000D02*
D03*
X00371000Y00502000D02*
D03*
X00386000Y00472000D02*
D03*
X00371000Y00442000D02*
D03*
Y00382000D02*
D03*
Y00322000D02*
D03*
X00386000Y00292000D02*
D03*
X00371000Y00262000D02*
D03*
X00386000Y00232000D02*
D03*
X00371000Y00202000D02*
D03*
Y00142000D02*
D03*
X00386000Y00052000D02*
D03*
X00371000Y00022000D02*
D03*
X00341000Y00802000D02*
D03*
X00356000Y00772000D02*
D03*
Y00712000D02*
D03*
X00341000Y00682000D02*
D03*
Y00622000D02*
D03*
X00356000Y00592000D02*
D03*
X00341000Y00502000D02*
D03*
X00356000Y00472000D02*
D03*
X00341000Y00442000D02*
D03*
Y00382000D02*
D03*
X00356000Y00352000D02*
D03*
X00341000Y00322000D02*
D03*
X00356000Y00292000D02*
D03*
X00341000Y00262000D02*
D03*
X00356000Y00232000D02*
D03*
X00341000Y00142000D02*
D03*
X00356000Y00052000D02*
D03*
X00341000Y00022000D02*
D03*
X00311000Y00802000D02*
D03*
X00326000Y00772000D02*
D03*
X00311000Y00742000D02*
D03*
X00326000Y00712000D02*
D03*
Y00652000D02*
D03*
X00311000Y00622000D02*
D03*
X00326000Y00592000D02*
D03*
X00311000Y00502000D02*
D03*
X00326000Y00472000D02*
D03*
X00311000Y00442000D02*
D03*
Y00382000D02*
D03*
X00326000Y00352000D02*
D03*
X00311000Y00322000D02*
D03*
X00326000Y00292000D02*
D03*
X00311000Y00262000D02*
D03*
X00326000Y00052000D02*
D03*
X00311000Y00022000D02*
D03*
X00296000Y00832000D02*
D03*
X00281000Y00802000D02*
D03*
Y00742000D02*
D03*
X00296000Y00712000D02*
D03*
X00281000Y00682000D02*
D03*
Y00622000D02*
D03*
Y00502000D02*
D03*
X00296000Y00472000D02*
D03*
X00281000Y00442000D02*
D03*
X00296000Y00412000D02*
D03*
Y00352000D02*
D03*
Y00292000D02*
D03*
Y00052000D02*
D03*
X00281000Y00022000D02*
D03*
X00266000Y00832000D02*
D03*
Y00772000D02*
D03*
Y00712000D02*
D03*
X00251000Y00682000D02*
D03*
X00266000Y00652000D02*
D03*
X00251000Y00622000D02*
D03*
Y00562000D02*
D03*
Y00502000D02*
D03*
X00266000Y00472000D02*
D03*
X00251000Y00442000D02*
D03*
X00266000Y00412000D02*
D03*
X00251000Y00382000D02*
D03*
X00266000Y00352000D02*
D03*
X00251000Y00322000D02*
D03*
X00266000Y00292000D02*
D03*
X00251000Y00262000D02*
D03*
X00266000Y00052000D02*
D03*
X00251000Y00022000D02*
D03*
X00221000Y00862000D02*
D03*
X00236000Y00772000D02*
D03*
X00221000Y00682000D02*
D03*
X00236000Y00652000D02*
D03*
Y00592000D02*
D03*
Y00472000D02*
D03*
Y00412000D02*
D03*
Y00352000D02*
D03*
Y00292000D02*
D03*
Y00052000D02*
D03*
X00221000Y00022000D02*
D03*
X00191000Y00862000D02*
D03*
X00206000Y00772000D02*
D03*
Y00712000D02*
D03*
X00191000Y00682000D02*
D03*
Y00502000D02*
D03*
X00206000Y00472000D02*
D03*
X00191000Y00442000D02*
D03*
X00206000Y00412000D02*
D03*
X00191000Y00382000D02*
D03*
X00206000Y00352000D02*
D03*
X00191000Y00322000D02*
D03*
X00206000Y00292000D02*
D03*
X00191000Y00262000D02*
D03*
X00206000Y00232000D02*
D03*
X00191000Y00202000D02*
D03*
X00206000Y00052000D02*
D03*
X00191000Y00022000D02*
D03*
X00161000Y00862000D02*
D03*
Y00682000D02*
D03*
X00176000Y00652000D02*
D03*
X00161000Y00622000D02*
D03*
Y00562000D02*
D03*
X00176000Y00532000D02*
D03*
X00161000Y00502000D02*
D03*
X00176000Y00472000D02*
D03*
X00161000Y00442000D02*
D03*
X00176000Y00412000D02*
D03*
X00161000Y00382000D02*
D03*
X00176000Y00352000D02*
D03*
X00161000Y00322000D02*
D03*
X00176000Y00292000D02*
D03*
X00161000Y00262000D02*
D03*
X00176000Y00232000D02*
D03*
X00161000Y00202000D02*
D03*
X00176000Y00172000D02*
D03*
Y00052000D02*
D03*
X00161000Y00022000D02*
D03*
X00131000Y00862000D02*
D03*
Y00622000D02*
D03*
X00146000Y00592000D02*
D03*
X00131000Y00562000D02*
D03*
X00146000Y00532000D02*
D03*
X00131000Y00502000D02*
D03*
X00146000Y00472000D02*
D03*
X00131000Y00442000D02*
D03*
X00146000Y00412000D02*
D03*
X00131000Y00382000D02*
D03*
X00146000Y00352000D02*
D03*
X00131000Y00322000D02*
D03*
X00146000Y00292000D02*
D03*
X00131000Y00262000D02*
D03*
X00146000Y00232000D02*
D03*
X00131000Y00202000D02*
D03*
X00146000Y00172000D02*
D03*
X00131000Y00142000D02*
D03*
X00146000Y00112000D02*
D03*
X00131000Y00082000D02*
D03*
X00146000Y00052000D02*
D03*
X00131000Y00022000D02*
D03*
X00101000Y00862000D02*
D03*
X00116000Y00832000D02*
D03*
Y00772000D02*
D03*
Y00712000D02*
D03*
X00101000Y00682000D02*
D03*
X00116000Y00652000D02*
D03*
X00101000Y00622000D02*
D03*
X00116000Y00592000D02*
D03*
X00101000Y00562000D02*
D03*
X00116000Y00532000D02*
D03*
X00101000Y00502000D02*
D03*
X00116000Y00472000D02*
D03*
X00101000Y00442000D02*
D03*
X00116000Y00412000D02*
D03*
X00101000Y00382000D02*
D03*
X00116000Y00352000D02*
D03*
X00101000Y00322000D02*
D03*
X00116000Y00292000D02*
D03*
X00101000Y00262000D02*
D03*
X00116000Y00232000D02*
D03*
X00101000Y00202000D02*
D03*
X00116000Y00172000D02*
D03*
X00101000Y00142000D02*
D03*
X00116000Y00112000D02*
D03*
Y00052000D02*
D03*
X00071000Y00862000D02*
D03*
X00086000Y00832000D02*
D03*
X00071000Y00802000D02*
D03*
X00086000Y00772000D02*
D03*
X00071000Y00742000D02*
D03*
Y00682000D02*
D03*
X00086000Y00652000D02*
D03*
X00071000Y00622000D02*
D03*
X00086000Y00592000D02*
D03*
X00071000Y00562000D02*
D03*
X00086000Y00532000D02*
D03*
X00071000Y00502000D02*
D03*
X00086000Y00472000D02*
D03*
X00071000Y00442000D02*
D03*
X00086000Y00412000D02*
D03*
X00071000Y00382000D02*
D03*
X00086000Y00352000D02*
D03*
X00071000Y00322000D02*
D03*
X00086000Y00292000D02*
D03*
X00071000Y00262000D02*
D03*
X00086000Y00232000D02*
D03*
X00071000Y00202000D02*
D03*
X00086000Y00172000D02*
D03*
X00071000Y00142000D02*
D03*
Y00082000D02*
D03*
X00086000Y00052000D02*
D03*
X00071000Y00022000D02*
D03*
X00056000Y00772000D02*
D03*
X00041000Y00682000D02*
D03*
X00056000Y00652000D02*
D03*
X00041000Y00622000D02*
D03*
X00056000Y00592000D02*
D03*
X00041000Y00562000D02*
D03*
X00056000Y00532000D02*
D03*
X00041000Y00502000D02*
D03*
X00056000Y00472000D02*
D03*
X00041000Y00442000D02*
D03*
X00056000Y00412000D02*
D03*
X00041000Y00382000D02*
D03*
X00056000Y00352000D02*
D03*
X00041000Y00322000D02*
D03*
X00056000Y00292000D02*
D03*
X00041000Y00262000D02*
D03*
X00056000Y00232000D02*
D03*
X00041000Y00202000D02*
D03*
X00056000Y00172000D02*
D03*
X00041000Y00142000D02*
D03*
X00056000Y00052000D02*
D03*
X00011000Y00802000D02*
D03*
X00026000Y00772000D02*
D03*
X00011000Y00742000D02*
D03*
X00026000Y00712000D02*
D03*
X00011000Y00682000D02*
D03*
X00026000Y00652000D02*
D03*
X00011000Y00622000D02*
D03*
X00026000Y00592000D02*
D03*
X00011000Y00562000D02*
D03*
X00026000Y00532000D02*
D03*
X00011000Y00502000D02*
D03*
X00026000Y00472000D02*
D03*
X00011000Y00442000D02*
D03*
X00026000Y00412000D02*
D03*
X00011000Y00382000D02*
D03*
X00026000Y00352000D02*
D03*
X00011000Y00322000D02*
D03*
X00026000Y00292000D02*
D03*
X00011000Y00262000D02*
D03*
X00026000Y00232000D02*
D03*
X00011000Y00202000D02*
D03*
X00026000Y00172000D02*
D03*
X00011000Y00142000D02*
D03*
X00026000Y00112000D02*
D03*
X00011000Y00082000D02*
D03*
X00026000Y00052000D02*
D03*
X00011000Y00022000D02*
D03*
X00683000Y00378000D02*
D03*
X00672000Y00356000D02*
D03*
X00564000Y00499000D02*
D03*
X00518000Y00533000D02*
D03*
X00316000Y00548000D02*
D03*
X00229000D02*
D03*
X00184000Y00612000D02*
D03*
X00271000Y00593000D02*
D03*
Y00612000D02*
D03*
X00184000Y00593000D02*
D03*
X00704000Y00294000D02*
D03*
Y00362000D02*
D03*
X00765000Y00412000D02*
D03*
X00555000Y00449000D02*
D03*
X00508000Y00500000D02*
D03*
X00495000Y00488000D02*
D03*
X00536000Y00459000D02*
D03*
X00525000Y00449000D02*
D03*
X00536000Y00439000D02*
D03*
Y00424000D02*
D03*
X00490000Y00398000D02*
D03*
X00390000Y00378000D02*
D03*
Y00368000D02*
D03*
Y00358000D02*
D03*
Y00348000D02*
D03*
Y00388000D02*
D03*
Y00398000D02*
D03*
X00400000D02*
D03*
X00410000D02*
D03*
X00420000D02*
D03*
X00430000D02*
D03*
X00440000D02*
D03*
X00450000D02*
D03*
X00460000D02*
D03*
X00470000D02*
D03*
X00480000D02*
D03*
X00500000D02*
D03*
X00510000D02*
D03*
X00520000D02*
D03*
X00530000D02*
D03*
X00540000D02*
D03*
X00550000D02*
D03*
Y00348000D02*
D03*
Y00358000D02*
D03*
Y00368000D02*
D03*
Y00378000D02*
D03*
Y00388000D02*
D03*
X00152400Y00093000D02*
D03*
X00177800D02*
D03*
X00203200D02*
D03*
X00228600D02*
D03*
X00254000D02*
D03*
X00279400D02*
D03*
X00304800D02*
D03*
X00330200D02*
D03*
X00381000D02*
D03*
X00482600D02*
D03*
X00508000D02*
D03*
X00609600D02*
D03*
X00711200D02*
D03*
X00685800D02*
D03*
X00660400D02*
D03*
X00635000D02*
D03*
X00869000Y00481000D02*
D03*
Y00433000D02*
D03*
X00908000Y00547000D02*
D03*
X00280000Y00068000D02*
D03*
X00306000Y00118000D02*
D03*
X00280000D02*
D03*
X00254000D02*
D03*
Y00068000D02*
D03*
X00306000D02*
D03*
X00318000Y00165000D02*
D03*
X00279000Y00183000D02*
D03*
X00190000Y00150000D02*
D03*
X00234000D02*
D03*
X00211000Y00191000D02*
D03*
X00334000Y00204000D02*
D03*
Y00192000D02*
D03*
Y00180000D02*
D03*
X00240000Y00228000D02*
D03*
X00223000Y00204000D02*
D03*
X00279000Y00139000D02*
D03*
X00152444Y00134444D02*
D03*
X00168000Y00150000D02*
D03*
X00190000Y00128000D02*
D03*
X00234000D02*
D03*
X00212000D02*
D03*
X00812000Y00717000D02*
D03*
X00798000D02*
D03*
X00783000D02*
D03*
X00839000Y00583000D02*
D03*
X00807000D02*
D03*
X00791000Y00368000D02*
D03*
X00717000Y00383000D02*
D03*
X00722000Y00259000D02*
D03*
X00712000Y00269000D02*
D03*
X00704000Y00283000D02*
D03*
X00714000Y00313000D02*
D03*
X00756000Y00320000D02*
D03*
Y00336000D02*
D03*
X00498000Y00214000D02*
D03*
Y00198000D02*
D03*
X00464000Y00216000D02*
D03*
X00428000Y00204000D02*
D03*
X00409000Y00164000D02*
D03*
Y00323000D02*
D03*
X00437000D02*
D03*
Y00339000D02*
D03*
X00503000D02*
D03*
X00577000Y00236000D02*
D03*
X00531000Y00164000D02*
D03*
X00897000Y00408000D02*
D03*
X00798000Y00187000D02*
D03*
Y00159000D02*
D03*
X00839000Y00282000D02*
D03*
X00219000Y00257000D02*
D03*
Y00269000D02*
D03*
Y00281000D02*
D03*
X00303000Y00138000D02*
D03*
X00569000Y00205000D02*
D03*
X00807000Y00222000D02*
D03*
X00563000Y00298000D02*
D03*
X00538000Y00205000D02*
D03*
X00563000Y00247000D02*
D03*
X00807000Y00642000D02*
D03*
Y00612000D02*
D03*
Y00552000D02*
D03*
Y00522000D02*
D03*
Y00492000D02*
D03*
Y00462000D02*
D03*
Y00432000D02*
D03*
Y00402000D02*
D03*
Y00372000D02*
D03*
Y00342000D02*
D03*
Y00312000D02*
D03*
Y00282000D02*
D03*
Y00252000D02*
D03*
X00839000Y00342000D02*
D03*
Y00372000D02*
D03*
Y00402000D02*
D03*
Y00432000D02*
D03*
Y00462000D02*
D03*
Y00492000D02*
D03*
Y00522000D02*
D03*
Y00552000D02*
D03*
Y00612000D02*
D03*
Y00642000D02*
D03*
Y00672000D02*
D03*
D33*
X00310500Y00579500D02*
D03*
X00222500D02*
D03*
X00522500Y00501500D02*
D03*
D34*
X00310500Y00570000D02*
D03*
X00310500Y00560500D02*
D03*
X00283500D02*
D03*
X00283500Y00570000D02*
D03*
X00283500Y00579500D02*
D03*
X00222500Y00570000D02*
D03*
X00222500Y00560500D02*
D03*
X00195500D02*
D03*
X00195500Y00570000D02*
D03*
X00195500Y00579500D02*
D03*
X00549500Y00501500D02*
D03*
Y00511000D02*
D03*
Y00520500D02*
D03*
X00522500Y00520500D02*
D03*
X00522500Y00511000D02*
D03*
D35*
X00564500Y00439000D02*
D03*
X00555000Y00459000D02*
D03*
X00545500Y00439000D02*
D03*
D36*
X00257250Y00192750D02*
D03*
Y00186250D02*
D03*
Y00179750D02*
D03*
Y00173250D02*
D03*
X00300750D02*
D03*
Y00179750D02*
D03*
Y00186250D02*
D03*
D37*
Y00192750D02*
D03*
D38*
X00450950Y00149000D02*
D03*
X00463650D02*
D03*
X00476350D02*
D03*
X00489050D02*
D03*
X00463650Y00203000D02*
D03*
X00476350D02*
D03*
X00489050D02*
D03*
X00752050Y00355000D02*
D03*
X00739350Y00355000D02*
D03*
X00726650D02*
D03*
X00713950Y00355000D02*
D03*
X00739350Y00301000D02*
D03*
X00726650D02*
D03*
X00713950D02*
D03*
D39*
X00450950Y00203000D02*
D03*
X00752050Y00301000D02*
D03*
D40*
X00516000Y00370000D02*
D03*
X00424000D02*
D03*
D41*
X00517000Y00221200D02*
D03*
X00517000Y00233900D02*
D03*
X00517000Y00284700D02*
D03*
X00517000Y00272000D02*
D03*
X00517000Y00259300D02*
D03*
Y00246600D02*
D03*
Y00310100D02*
D03*
Y00297400D02*
D03*
Y00322800D02*
D03*
X00423000Y00233900D02*
D03*
Y00246600D02*
D03*
Y00259300D02*
D03*
X00423000Y00272000D02*
D03*
X00423000Y00284700D02*
D03*
Y00297400D02*
D03*
Y00310100D02*
D03*
Y00322800D02*
D03*
D42*
Y00221200D02*
D03*
D43*
X00240250Y00191000D02*
Y00199750D01*
X00236000Y00204000D02*
X00240250Y00199750D01*
X00223000Y00204000D02*
X00236000D01*
X00240250Y00191000D02*
X00242000Y00192750D01*
X00257250D01*
X00316500Y00173250D02*
X00318000Y00174750D01*
X00300750Y00173250D02*
X00316500D01*
D44*
X00279000Y00139000D02*
Y00147000D01*
X00286750D01*
X00271250D02*
X00279000D01*
M02*
