G04*
G04 #@! TF.GenerationSoftware,Altium Limited,Altium Designer,22.1.2 (22)*
G04*
G04 Layer_Color=128*
%FSAX44Y44*%
%MOMM*%
G71*
G04*
G04 #@! TF.SameCoordinates,D4940EDF-FCE3-461B-A7F8-CC2F5B5D0F8E*
G04*
G04*
G04 #@! TF.FilePolarity,Positive*
G04*
G01*
G75*
%ADD15R,0.8000X0.8000*%
%ADD16R,0.8000X0.8000*%
%ADD17R,0.9500X0.8000*%
G04:AMPARAMS|DCode=33|XSize=0.6mm|YSize=1.2mm|CornerRadius=0.15mm|HoleSize=0mm|Usage=FLASHONLY|Rotation=90.000|XOffset=0mm|YOffset=0mm|HoleType=Round|Shape=RoundedRectangle|*
%AMROUNDEDRECTD33*
21,1,0.6000,0.9000,0,0,90.0*
21,1,0.3000,1.2000,0,0,90.0*
1,1,0.3000,0.4500,0.1500*
1,1,0.3000,0.4500,-0.1500*
1,1,0.3000,-0.4500,-0.1500*
1,1,0.3000,-0.4500,0.1500*
%
%ADD33ROUNDEDRECTD33*%
%ADD34R,1.2000X0.6000*%
%ADD35R,0.8000X0.9500*%
%ADD36R,1.1500X0.4500*%
G04:AMPARAMS|DCode=37|XSize=1.15mm|YSize=0.45mm|CornerRadius=0.1125mm|HoleSize=0mm|Usage=FLASHONLY|Rotation=180.000|XOffset=0mm|YOffset=0mm|HoleType=Round|Shape=RoundedRectangle|*
%AMROUNDEDRECTD37*
21,1,1.1500,0.2250,0,0,180.0*
21,1,0.9250,0.4500,0,0,180.0*
1,1,0.2250,-0.4625,0.1125*
1,1,0.2250,0.4625,0.1125*
1,1,0.2250,0.4625,-0.1125*
1,1,0.2250,-0.4625,-0.1125*
%
%ADD37ROUNDEDRECTD37*%
%ADD38R,0.6000X1.5500*%
G04:AMPARAMS|DCode=39|XSize=1.55mm|YSize=0.6mm|CornerRadius=0.15mm|HoleSize=0mm|Usage=FLASHONLY|Rotation=270.000|XOffset=0mm|YOffset=0mm|HoleType=Round|Shape=RoundedRectangle|*
%AMROUNDEDRECTD39*
21,1,1.5500,0.3000,0,0,270.0*
21,1,1.2500,0.6000,0,0,270.0*
1,1,0.3000,-0.1500,-0.6250*
1,1,0.3000,-0.1500,0.6250*
1,1,0.3000,0.1500,0.6250*
1,1,0.3000,0.1500,-0.6250*
%
%ADD39ROUNDEDRECTD39*%
%ADD40R,5.5000X2.0000*%
%ADD41R,1.9000X0.6000*%
G04:AMPARAMS|DCode=42|XSize=1.9mm|YSize=0.6mm|CornerRadius=0.15mm|HoleSize=0mm|Usage=FLASHONLY|Rotation=0.000|XOffset=0mm|YOffset=0mm|HoleType=Round|Shape=RoundedRectangle|*
%AMROUNDEDRECTD42*
21,1,1.9000,0.3000,0,0,0.0*
21,1,1.6000,0.6000,0,0,0.0*
1,1,0.3000,0.8000,-0.1500*
1,1,0.3000,-0.8000,-0.1500*
1,1,0.3000,-0.8000,0.1500*
1,1,0.3000,0.8000,0.1500*
%
%ADD42ROUNDEDRECTD42*%
D15*
X00218250Y00625000D02*
D03*
X00201750D02*
D03*
X00210250Y00611000D02*
D03*
X00193750D02*
D03*
X00210250Y00593000D02*
D03*
X00193750D02*
D03*
X00298250Y00611000D02*
D03*
X00281750D02*
D03*
X00298250Y00593000D02*
D03*
X00281750D02*
D03*
X00200750Y00547000D02*
D03*
X00217250D02*
D03*
X00288750D02*
D03*
X00305250D02*
D03*
X00507750Y00474000D02*
D03*
X00524250Y00474000D02*
D03*
X00507750Y00488000D02*
D03*
X00524250D02*
D03*
Y00460000D02*
D03*
X00507750Y00460000D02*
D03*
X00527750Y00534000D02*
D03*
X00544250D02*
D03*
X00564250Y00488000D02*
D03*
X00547750D02*
D03*
Y00474000D02*
D03*
X00564250Y00474000D02*
D03*
X00546750Y00424000D02*
D03*
X00563250D02*
D03*
X00286750Y00219000D02*
D03*
X00303250D02*
D03*
X00445750Y00339000D02*
D03*
X00462250Y00339000D02*
D03*
X00254750Y00147000D02*
D03*
X00271250D02*
D03*
X00240250Y00191000D02*
D03*
X00223750D02*
D03*
X00303250Y00205000D02*
D03*
X00286750D02*
D03*
Y00161000D02*
D03*
X00303250D02*
D03*
X00303250Y00147000D02*
D03*
X00286750D02*
D03*
X00271250Y00161000D02*
D03*
X00254750D02*
D03*
X00254750Y00219000D02*
D03*
X00271250D02*
D03*
X00254750Y00205000D02*
D03*
X00271250D02*
D03*
X00505750Y00205000D02*
D03*
X00522250D02*
D03*
X00537750Y00233000D02*
D03*
X00554250D02*
D03*
Y00247000D02*
D03*
X00537750Y00247000D02*
D03*
X00554250Y00219000D02*
D03*
X00537750D02*
D03*
X00537750Y00298000D02*
D03*
X00554250D02*
D03*
X00494250Y00339000D02*
D03*
X00477750D02*
D03*
X00716750Y00373000D02*
D03*
X00733250D02*
D03*
X00749750D02*
D03*
X00721750Y00269000D02*
D03*
X00738250D02*
D03*
X00754750D02*
D03*
X00713750Y00283000D02*
D03*
X00730250Y00283000D02*
D03*
X00746750Y00283000D02*
D03*
D16*
X00146000Y00742750D02*
D03*
Y00759250D02*
D03*
X00171000Y00742750D02*
D03*
Y00759250D02*
D03*
X00225000Y00593750D02*
D03*
Y00610250D02*
D03*
X00313000Y00593750D02*
D03*
Y00610250D02*
D03*
X00701000Y00335750D02*
D03*
Y00352250D02*
D03*
Y00320250D02*
D03*
Y00303750D02*
D03*
X00438000Y00187750D02*
D03*
Y00204250D02*
D03*
X00240000Y00173250D02*
D03*
Y00156750D02*
D03*
X00223000D02*
D03*
Y00173250D02*
D03*
X00318000Y00191250D02*
D03*
Y00174750D02*
D03*
X00569000Y00236250D02*
D03*
Y00219750D02*
D03*
X00779000Y00367750D02*
D03*
Y00384250D02*
D03*
X00765000Y00367750D02*
D03*
Y00384250D02*
D03*
X00779000Y00352250D02*
D03*
Y00335750D02*
D03*
X00765000Y00320250D02*
D03*
Y00303750D02*
D03*
Y00287250D02*
D03*
Y00335750D02*
D03*
Y00352250D02*
D03*
X00420000Y00164250D02*
D03*
Y00147750D02*
D03*
X00438000Y00147750D02*
D03*
Y00164250D02*
D03*
X00520000Y00164000D02*
D03*
Y00147500D02*
D03*
X00502000Y00147750D02*
D03*
X00502000Y00164250D02*
D03*
D17*
X00558000Y00204500D02*
D03*
X00538000Y00195000D02*
D03*
X00558000Y00185500D02*
D03*
D33*
X00310500Y00579500D02*
D03*
X00222500D02*
D03*
X00522500Y00501500D02*
D03*
D34*
X00310500Y00570000D02*
D03*
X00310500Y00560500D02*
D03*
X00283500D02*
D03*
X00283500Y00570000D02*
D03*
X00283500Y00579500D02*
D03*
X00222500Y00570000D02*
D03*
X00222500Y00560500D02*
D03*
X00195500D02*
D03*
X00195500Y00570000D02*
D03*
X00195500Y00579500D02*
D03*
X00549500Y00501500D02*
D03*
Y00511000D02*
D03*
Y00520500D02*
D03*
X00522500Y00520500D02*
D03*
X00522500Y00511000D02*
D03*
D35*
X00564500Y00439000D02*
D03*
X00555000Y00459000D02*
D03*
X00545500Y00439000D02*
D03*
D36*
X00257250Y00192750D02*
D03*
Y00186250D02*
D03*
Y00179750D02*
D03*
Y00173250D02*
D03*
X00300750D02*
D03*
Y00179750D02*
D03*
Y00186250D02*
D03*
D37*
Y00192750D02*
D03*
D38*
X00450950Y00149000D02*
D03*
X00463650D02*
D03*
X00476350D02*
D03*
X00489050D02*
D03*
X00463650Y00203000D02*
D03*
X00476350D02*
D03*
X00489050D02*
D03*
X00752050Y00355000D02*
D03*
X00739350Y00355000D02*
D03*
X00726650D02*
D03*
X00713950Y00355000D02*
D03*
X00739350Y00301000D02*
D03*
X00726650D02*
D03*
X00713950D02*
D03*
D39*
X00450950Y00203000D02*
D03*
X00752050Y00301000D02*
D03*
D40*
X00516000Y00370000D02*
D03*
X00424000D02*
D03*
D41*
X00517000Y00221200D02*
D03*
X00517000Y00233900D02*
D03*
X00517000Y00284700D02*
D03*
X00517000Y00272000D02*
D03*
X00517000Y00259300D02*
D03*
Y00246600D02*
D03*
Y00310100D02*
D03*
Y00297400D02*
D03*
Y00322800D02*
D03*
X00423000Y00233900D02*
D03*
Y00246600D02*
D03*
Y00259300D02*
D03*
X00423000Y00272000D02*
D03*
X00423000Y00284700D02*
D03*
Y00297400D02*
D03*
Y00310100D02*
D03*
Y00322800D02*
D03*
D42*
Y00221200D02*
D03*
M02*
