G04*
G04 #@! TF.GenerationSoftware,Altium Limited,Altium Designer,22.1.2 (22)*
G04*
G04 Layer_Color=65535*
%FSAX44Y44*%
%MOMM*%
G71*
G04*
G04 #@! TF.SameCoordinates,84EC4855-0AA3-41C5-BBCE-46EE62212C49*
G04*
G04*
G04 #@! TF.FilePolarity,Positive*
G04*
G01*
G75*
%ADD10C,0.1530*%
%ADD11C,0.1800*%
%ADD12C,0.2000*%
%ADD13C,0.2540*%
D10*
X00393000Y00637000D02*
G03*
X00385000Y00629000I-00000000J-00008000D01*
G01*
X00555000Y00629000D02*
G03*
X00547000Y00637000I-00008000J00000000D01*
G01*
X00547000Y00456000D02*
G03*
X00555000Y00464000I00000000J00008000D01*
G01*
X00385000Y00464000D02*
G03*
X00393000Y00456000I00008000J-00000000D01*
G01*
X00463000Y00667000D02*
G03*
X00455000Y00659000I-00000000J-00008000D01*
G01*
X00485000D02*
G03*
X00477000Y00667000I-00008000J00000000D01*
G01*
X00485000Y00645000D02*
G03*
X00493000Y00637000I00008000J00000000D01*
G01*
X00447000D02*
G03*
X00455000Y00645000I00000000J00008000D01*
G01*
X00493000Y00637000D02*
X00547000D01*
X00385000Y00464000D02*
Y00629000D01*
X00393000Y00456000D02*
X00547000D01*
X00463000Y00667000D02*
X00477000D01*
X00485000Y00645000D02*
Y00659000D01*
X00455000Y00645000D02*
Y00659000D01*
X00392000Y00637000D02*
X00447000D01*
X00873000Y00616000D02*
Y00636000D01*
X00907000D01*
Y00616000D02*
Y00636000D01*
X00873000Y00616000D02*
X00907000D01*
X00152000Y00066000D02*
Y00120000D01*
X00788000D01*
Y00066000D02*
Y00120000D01*
X00152000Y00066000D02*
X00788000D01*
X00873250Y00573000D02*
X00905250D01*
X00873250D02*
Y00587000D01*
X00905250D01*
Y00573000D02*
Y00587000D01*
X00672550Y00699050D02*
X00873000D01*
X00662800Y00689300D02*
X00672550Y00699050D01*
X00873000D02*
X00873000Y00175000D01*
X00805000Y00683000D02*
Y00715000D01*
X00791000Y00683000D02*
X00805000Y00683000D01*
X00791000Y00683000D02*
Y00715000D01*
X00805000D01*
X00873000Y00541000D02*
Y00573000D01*
X00887000Y00573000D01*
Y00541000D02*
Y00573000D01*
X00873000Y00541000D02*
X00887000Y00541000D01*
X00873000Y00536000D02*
X00887000D01*
X00873000Y00504000D02*
Y00536000D01*
Y00504000D02*
X00887000D01*
Y00536000D01*
X00891000Y00504000D02*
X00905000D01*
Y00536000D01*
X00891000D02*
X00905000D01*
X00891000Y00504000D02*
Y00536000D01*
X00873000Y00425000D02*
X00887000D01*
Y00457000D01*
X00873000D02*
X00887000D01*
X00873000Y00425000D02*
Y00457000D01*
X00912000Y00570500D02*
X00918000D01*
Y00563000D02*
Y00570500D01*
X00912000Y00542000D02*
X00918000D01*
Y00549000D01*
X00791000Y00701000D02*
Y00715000D01*
X00759000D02*
X00791000D01*
X00759000Y00701000D02*
X00759000Y00715000D01*
X00759000Y00701000D02*
X00791000D01*
X00759000Y00697000D02*
X00791000Y00697000D01*
X00759000Y00683000D02*
Y00697000D01*
X00791000Y00697000D02*
X00791000Y00683000D01*
X00759000Y00683000D02*
X00791000Y00683000D01*
X00805000Y00715000D02*
X00819000Y00715000D01*
X00805000Y00683000D02*
Y00715000D01*
Y00683000D02*
X00819000Y00683000D01*
Y00715000D01*
X00873000Y00411000D02*
X00905000D01*
X00873000D02*
Y00425000D01*
X00905000D01*
Y00411000D02*
Y00425000D01*
X00887000Y00457000D02*
Y00489000D01*
X00873000Y00457000D02*
X00887000D01*
X00873000D02*
Y00489000D01*
X00887000D01*
X00891000Y00457000D02*
Y00489000D01*
X00905000D01*
Y00457000D02*
Y00489000D01*
X00891000Y00457000D02*
X00905000D01*
Y00425000D02*
Y00457000D01*
X00891000Y00425000D02*
X00905000D01*
X00891000D02*
Y00457000D01*
X00905000D01*
X00875000Y00636000D02*
X00907000D01*
Y00682000D01*
X00875000Y00636000D02*
Y00682000D01*
X00907000D01*
X00662800Y00175000D02*
Y00689300D01*
Y00175000D02*
X00873000D01*
X00866000Y00096000D02*
X00871000D01*
X00866000Y00020000D02*
X00871000D01*
X00908000Y00041000D02*
X00925000D01*
X00908000D02*
Y00075000D01*
X00925000D01*
X00919000Y00096000D02*
X00925000D01*
X00919000Y00020000D02*
X00925000D01*
Y00096000D01*
X00866000Y00800000D02*
X00871000D01*
X00866000Y00724000D02*
X00871000D01*
X00908000Y00745000D02*
X00925000D01*
X00908000D02*
Y00779000D01*
X00925000D01*
X00919000Y00800000D02*
X00925000D01*
X00919000Y00724000D02*
X00925000D01*
Y00800000D01*
X00069000Y00020000D02*
X00074000D01*
X00069000Y00096000D02*
X00074000D01*
X00015000Y00075000D02*
X00032000D01*
Y00041000D02*
Y00075000D01*
X00015000Y00041000D02*
X00032000D01*
X00015000Y00020000D02*
X00021000D01*
X00015000Y00096000D02*
X00021000D01*
X00015000Y00020000D02*
Y00096000D01*
X00555000Y00629000D02*
X00555000Y00464000D01*
X00015000Y00724000D02*
Y00800000D01*
X00021000D01*
X00015000Y00724000D02*
X00021000D01*
X00015000Y00745000D02*
X00032000D01*
Y00779000D01*
X00015000D02*
X00032000D01*
X00069000Y00800000D02*
X00074000D01*
X00069000Y00724000D02*
X00074000D01*
D11*
X00876755Y00596501D02*
Y00605499D01*
X00881253D01*
X00882753Y00603999D01*
Y00601000D01*
X00881253Y00599501D01*
X00876755D01*
X00879754D02*
X00882753Y00596501D01*
X00885752Y00603999D02*
X00887251Y00605499D01*
X00890250D01*
X00891750Y00603999D01*
Y00602500D01*
X00890250Y00601000D01*
X00888751D01*
X00890250D01*
X00891750Y00599501D01*
Y00598001D01*
X00890250Y00596501D01*
X00887251D01*
X00885752Y00598001D01*
X00894749Y00596501D02*
X00897748D01*
X00896248D01*
Y00605499D01*
X00894749Y00603999D01*
X00902246Y00596501D02*
X00905245D01*
X00903746D01*
Y00605499D01*
X00902246Y00603999D01*
X00923501Y00614992D02*
X00932498D01*
Y00610494D01*
X00930999Y00608994D01*
X00928000D01*
X00926500Y00610494D01*
Y00614992D01*
Y00611993D02*
X00923501Y00608994D01*
X00932498Y00599997D02*
Y00605995D01*
X00923501D01*
Y00599997D01*
X00928000Y00605995D02*
Y00602996D01*
X00932498Y00591000D02*
Y00596998D01*
X00928000D01*
Y00593999D01*
Y00596998D01*
X00923501D01*
X00930999Y00588001D02*
X00932498Y00586501D01*
Y00583502D01*
X00930999Y00582003D01*
X00929500D01*
X00928000Y00583502D01*
Y00585002D01*
Y00583502D01*
X00926500Y00582003D01*
X00925001D01*
X00923501Y00583502D01*
Y00586501D01*
X00925001Y00588001D01*
X00930999Y00579004D02*
X00932498Y00577504D01*
Y00574505D01*
X00930999Y00573006D01*
X00925001D01*
X00923501Y00574505D01*
Y00577504D01*
X00925001Y00579004D01*
X00930999D01*
X00923501Y00570007D02*
Y00567008D01*
Y00568507D01*
X00932498D01*
X00930999Y00570007D01*
X00916999Y00603497D02*
X00918499Y00604996D01*
Y00607995D01*
X00916999Y00609495D01*
X00911001D01*
X00909501Y00607995D01*
Y00604996D01*
X00911001Y00603497D01*
X00916999Y00600498D02*
X00918499Y00598998D01*
Y00595999D01*
X00916999Y00594500D01*
X00915499D01*
X00914000Y00595999D01*
Y00597499D01*
Y00595999D01*
X00912501Y00594500D01*
X00911001D01*
X00909501Y00595999D01*
Y00598998D01*
X00911001Y00600498D01*
X00916999Y00591500D02*
X00918499Y00590001D01*
Y00587002D01*
X00916999Y00585502D01*
X00911001D01*
X00909501Y00587002D01*
Y00590001D01*
X00911001Y00591500D01*
X00916999D01*
Y00582503D02*
X00918499Y00581004D01*
Y00578005D01*
X00916999Y00576505D01*
X00915499D01*
X00914000Y00578005D01*
X00912501Y00576505D01*
X00911001D01*
X00909501Y00578005D01*
Y00581004D01*
X00911001Y00582503D01*
X00912501D01*
X00914000Y00581004D01*
X00915499Y00582503D01*
X00916999D01*
X00914000Y00581004D02*
Y00578005D01*
D12*
X00144000Y00108000D02*
X00147332D01*
X00145666D01*
Y00117997D01*
X00144000Y00116331D01*
X00798664Y00077997D02*
X00792000D01*
Y00072998D01*
X00795332Y00074665D01*
X00796998D01*
X00798664Y00072998D01*
Y00069666D01*
X00796998Y00068000D01*
X00793666D01*
X00792000Y00069666D01*
X00801997Y00076331D02*
X00803663Y00077997D01*
X00806995D01*
X00808661Y00076331D01*
Y00069666D01*
X00806995Y00068000D01*
X00803663D01*
X00801997Y00069666D01*
Y00076331D01*
X00801332Y00750997D02*
X00802998Y00752663D01*
Y00755995D01*
X00801332Y00757661D01*
X00794668D01*
X00793002Y00755995D01*
Y00752663D01*
X00794668Y00750997D01*
X00801332Y00747664D02*
X00802998Y00745998D01*
Y00742666D01*
X00801332Y00741000D01*
X00799666D01*
X00798000Y00742666D01*
Y00744332D01*
Y00742666D01*
X00796334Y00741000D01*
X00794668D01*
X00793002Y00742666D01*
Y00745998D01*
X00794668Y00747664D01*
X00801332Y00737668D02*
X00802998Y00736002D01*
Y00732669D01*
X00801332Y00731003D01*
X00794668D01*
X00793002Y00732669D01*
Y00736002D01*
X00794668Y00737668D01*
X00801332D01*
X00793002Y00727671D02*
Y00724339D01*
Y00726005D01*
X00802998D01*
X00801332Y00727671D01*
X00759003Y00732998D02*
X00752339D01*
Y00723002D01*
X00759003D01*
X00752339Y00728000D02*
X00755671D01*
X00762336Y00731332D02*
X00764002Y00732998D01*
X00767334D01*
X00769000Y00731332D01*
Y00729666D01*
X00767334Y00728000D01*
X00765668D01*
X00767334D01*
X00769000Y00726334D01*
Y00724668D01*
X00767334Y00723002D01*
X00764002D01*
X00762336Y00724668D01*
X00772332Y00731332D02*
X00773998Y00732998D01*
X00777331D01*
X00778997Y00731332D01*
Y00724668D01*
X00777331Y00723002D01*
X00773998D01*
X00772332Y00724668D01*
Y00731332D01*
X00782329Y00723002D02*
X00785661D01*
X00783995D01*
Y00732998D01*
X00782329Y00731332D01*
X00673339Y00712998D02*
Y00704668D01*
X00675005Y00703002D01*
X00678337D01*
X00680003Y00704668D01*
Y00712998D01*
X00683335Y00711332D02*
X00685002Y00712998D01*
X00688334D01*
X00690000Y00711332D01*
Y00709666D01*
X00688334Y00708000D01*
X00686668D01*
X00688334D01*
X00690000Y00706334D01*
Y00704668D01*
X00688334Y00703002D01*
X00685002D01*
X00683335Y00704668D01*
X00693332Y00711332D02*
X00694998Y00712998D01*
X00698331D01*
X00699997Y00711332D01*
Y00704668D01*
X00698331Y00703002D01*
X00694998D01*
X00693332Y00704668D01*
Y00711332D01*
X00703329Y00703002D02*
X00706661D01*
X00704995D01*
Y00712998D01*
X00703329Y00711332D01*
X00923002Y00449327D02*
X00932998D01*
Y00444329D01*
X00931332Y00442663D01*
X00928000D01*
X00926334Y00444329D01*
Y00449327D01*
Y00445995D02*
X00923002Y00442663D01*
X00931332Y00439331D02*
X00932998Y00437664D01*
Y00434332D01*
X00931332Y00432666D01*
X00929666D01*
X00928000Y00434332D01*
Y00435998D01*
Y00434332D01*
X00926334Y00432666D01*
X00924668D01*
X00923002Y00434332D01*
Y00437664D01*
X00924668Y00439331D01*
X00931332Y00429334D02*
X00932998Y00427668D01*
Y00424335D01*
X00931332Y00422669D01*
X00924668D01*
X00923002Y00424335D01*
Y00427668D01*
X00924668Y00429334D01*
X00931332D01*
Y00419337D02*
X00932998Y00417671D01*
Y00414339D01*
X00931332Y00412673D01*
X00929666D01*
X00928000Y00414339D01*
X00926334Y00412673D01*
X00924668D01*
X00923002Y00414339D01*
Y00417671D01*
X00924668Y00419337D01*
X00926334D01*
X00928000Y00417671D01*
X00929666Y00419337D01*
X00931332D01*
X00928000Y00417671D02*
Y00414339D01*
X00923002Y00492327D02*
X00932998D01*
Y00487329D01*
X00931332Y00485663D01*
X00928000D01*
X00926334Y00487329D01*
Y00492327D01*
Y00488995D02*
X00923002Y00485663D01*
X00931332Y00482331D02*
X00932998Y00480664D01*
Y00477332D01*
X00931332Y00475666D01*
X00929666D01*
X00928000Y00477332D01*
Y00478998D01*
Y00477332D01*
X00926334Y00475666D01*
X00924668D01*
X00923002Y00477332D01*
Y00480664D01*
X00924668Y00482331D01*
X00931332Y00472334D02*
X00932998Y00470668D01*
Y00467335D01*
X00931332Y00465669D01*
X00924668D01*
X00923002Y00467335D01*
Y00470668D01*
X00924668Y00472334D01*
X00931332D01*
X00932998Y00455672D02*
X00931332Y00459005D01*
X00928000Y00462337D01*
X00924668D01*
X00923002Y00460671D01*
Y00457339D01*
X00924668Y00455672D01*
X00926334D01*
X00928000Y00457339D01*
Y00462337D01*
X00923002Y00537327D02*
X00932998D01*
Y00532329D01*
X00931332Y00530663D01*
X00928000D01*
X00926334Y00532329D01*
Y00537327D01*
Y00533995D02*
X00923002Y00530663D01*
X00931332Y00527331D02*
X00932998Y00525664D01*
Y00522332D01*
X00931332Y00520666D01*
X00929666D01*
X00928000Y00522332D01*
Y00523998D01*
Y00522332D01*
X00926334Y00520666D01*
X00924668D01*
X00923002Y00522332D01*
Y00525664D01*
X00924668Y00527331D01*
X00931332Y00517334D02*
X00932998Y00515668D01*
Y00512335D01*
X00931332Y00510669D01*
X00924668D01*
X00923002Y00512335D01*
Y00515668D01*
X00924668Y00517334D01*
X00931332D01*
X00923002Y00502339D02*
X00932998D01*
X00928000Y00507337D01*
Y00500672D01*
X00877506Y00397002D02*
Y00406998D01*
X00882504D01*
X00884170Y00405332D01*
Y00402000D01*
X00882504Y00400334D01*
X00877506D01*
X00880838D02*
X00884170Y00397002D01*
X00887502Y00405332D02*
X00889169Y00406998D01*
X00892501D01*
X00894167Y00405332D01*
Y00403666D01*
X00892501Y00402000D01*
X00890835D01*
X00892501D01*
X00894167Y00400334D01*
Y00398668D01*
X00892501Y00397002D01*
X00889169D01*
X00887502Y00398668D01*
X00897499Y00397002D02*
X00900831D01*
X00899165D01*
Y00406998D01*
X00897499Y00405332D01*
X00905830D02*
X00907496Y00406998D01*
X00910828D01*
X00912494Y00405332D01*
Y00398668D01*
X00910828Y00397002D01*
X00907496D01*
X00905830Y00398668D01*
Y00405332D01*
X00912668Y00689997D02*
X00919332D01*
X00920998Y00691663D01*
Y00694995D01*
X00919332Y00696661D01*
X00912668D01*
X00911002Y00694995D01*
Y00691663D01*
X00914334Y00693329D02*
X00911002Y00689997D01*
Y00691663D02*
X00912668Y00689997D01*
X00919332Y00686665D02*
X00920998Y00684998D01*
Y00681666D01*
X00919332Y00680000D01*
X00917666D01*
X00916000Y00681666D01*
Y00683332D01*
Y00681666D01*
X00914334Y00680000D01*
X00912668D01*
X00911002Y00681666D01*
Y00684998D01*
X00912668Y00686665D01*
X00919332Y00676668D02*
X00920998Y00675002D01*
Y00671669D01*
X00919332Y00670003D01*
X00912668D01*
X00911002Y00671669D01*
Y00675002D01*
X00912668Y00676668D01*
X00919332D01*
X00911002Y00666671D02*
Y00663339D01*
Y00665005D01*
X00920998D01*
X00919332Y00666671D01*
X00917332Y00443663D02*
X00918998Y00445329D01*
Y00448661D01*
X00917332Y00450327D01*
X00910668D01*
X00909002Y00448661D01*
Y00445329D01*
X00910668Y00443663D01*
X00917332Y00440331D02*
X00918998Y00438665D01*
Y00435332D01*
X00917332Y00433666D01*
X00915666D01*
X00914000Y00435332D01*
Y00436998D01*
Y00435332D01*
X00912334Y00433666D01*
X00910668D01*
X00909002Y00435332D01*
Y00438665D01*
X00910668Y00440331D01*
X00917332Y00430334D02*
X00918998Y00428668D01*
Y00425336D01*
X00917332Y00423669D01*
X00910668D01*
X00909002Y00425336D01*
Y00428668D01*
X00910668Y00430334D01*
X00917332D01*
X00918998Y00420337D02*
Y00413673D01*
X00917332D01*
X00910668Y00420337D01*
X00909002D01*
X00917332Y00485663D02*
X00918998Y00487329D01*
Y00490661D01*
X00917332Y00492327D01*
X00910668D01*
X00909002Y00490661D01*
Y00487329D01*
X00910668Y00485663D01*
X00917332Y00482331D02*
X00918998Y00480664D01*
Y00477332D01*
X00917332Y00475666D01*
X00915666D01*
X00914000Y00477332D01*
Y00478998D01*
Y00477332D01*
X00912334Y00475666D01*
X00910668D01*
X00909002Y00477332D01*
Y00480664D01*
X00910668Y00482331D01*
X00917332Y00472334D02*
X00918998Y00470668D01*
Y00467335D01*
X00917332Y00465669D01*
X00910668D01*
X00909002Y00467335D01*
Y00470668D01*
X00910668Y00472334D01*
X00917332D01*
X00918998Y00455672D02*
X00917332Y00459005D01*
X00914000Y00462337D01*
X00910668D01*
X00909002Y00460671D01*
Y00457339D01*
X00910668Y00455672D01*
X00912334D01*
X00914000Y00457339D01*
Y00462337D01*
X00917332Y00530663D02*
X00918998Y00532329D01*
Y00535661D01*
X00917332Y00537327D01*
X00910668D01*
X00909002Y00535661D01*
Y00532329D01*
X00910668Y00530663D01*
X00917332Y00527331D02*
X00918998Y00525664D01*
Y00522332D01*
X00917332Y00520666D01*
X00915666D01*
X00914000Y00522332D01*
Y00523998D01*
Y00522332D01*
X00912334Y00520666D01*
X00910668D01*
X00909002Y00522332D01*
Y00525664D01*
X00910668Y00527331D01*
X00917332Y00517334D02*
X00918998Y00515668D01*
Y00512335D01*
X00917332Y00510669D01*
X00910668D01*
X00909002Y00512335D01*
Y00515668D01*
X00910668Y00517334D01*
X00917332D01*
X00918998Y00500673D02*
Y00507337D01*
X00914000D01*
X00915666Y00504005D01*
Y00502339D01*
X00914000Y00500673D01*
X00910668D01*
X00909002Y00502339D01*
Y00505671D01*
X00910668Y00507337D01*
X00385342Y00650998D02*
Y00641002D01*
X00390340D01*
X00392006Y00642668D01*
Y00644334D01*
X00390340Y00646000D01*
X00385342D01*
X00390340D01*
X00392006Y00647666D01*
Y00649332D01*
X00390340Y00650998D01*
X00385342D01*
X00395339Y00641002D02*
Y00650998D01*
X00400337D01*
X00402003Y00649332D01*
Y00646000D01*
X00400337Y00644334D01*
X00395339D01*
X00398671D02*
X00402003Y00641002D01*
X00405336Y00650998D02*
Y00641002D01*
X00410334D01*
X00412000Y00642668D01*
Y00649332D01*
X00410334Y00650998D01*
X00405336D01*
X00421997D02*
X00418665Y00649332D01*
X00415332Y00646000D01*
Y00642668D01*
X00416998Y00641002D01*
X00420331D01*
X00421997Y00642668D01*
Y00644334D01*
X00420331Y00646000D01*
X00415332D01*
X00425329Y00649332D02*
X00426995Y00650998D01*
X00430327D01*
X00431993Y00649332D01*
Y00642668D01*
X00430327Y00641002D01*
X00426995D01*
X00425329Y00642668D01*
Y00649332D01*
X00435326Y00641002D02*
X00438658D01*
X00436992D01*
Y00650998D01*
X00435326Y00649332D01*
X00920332Y00648663D02*
X00921998Y00650329D01*
Y00653661D01*
X00920332Y00655327D01*
X00913668D01*
X00912002Y00653661D01*
Y00650329D01*
X00913668Y00648663D01*
X00920332Y00645331D02*
X00921998Y00643664D01*
Y00640332D01*
X00920332Y00638666D01*
X00918666D01*
X00917000Y00640332D01*
Y00641998D01*
Y00640332D01*
X00915334Y00638666D01*
X00913668D01*
X00912002Y00640332D01*
Y00643664D01*
X00913668Y00645331D01*
X00920332Y00635334D02*
X00921998Y00633668D01*
Y00630336D01*
X00920332Y00628669D01*
X00913668D01*
X00912002Y00630336D01*
Y00633668D01*
X00913668Y00635334D01*
X00920332D01*
X00912002Y00618673D02*
Y00625337D01*
X00918666Y00618673D01*
X00920332D01*
X00921998Y00620339D01*
Y00623671D01*
X00920332Y00625337D01*
X00815332Y00750663D02*
X00816998Y00752329D01*
Y00755661D01*
X00815332Y00757327D01*
X00808668D01*
X00807002Y00755661D01*
Y00752329D01*
X00808668Y00750663D01*
X00815332Y00747331D02*
X00816998Y00745665D01*
Y00742332D01*
X00815332Y00740666D01*
X00813666D01*
X00812000Y00742332D01*
Y00743998D01*
Y00742332D01*
X00810334Y00740666D01*
X00808668D01*
X00807002Y00742332D01*
Y00745665D01*
X00808668Y00747331D01*
X00815332Y00737334D02*
X00816998Y00735668D01*
Y00732336D01*
X00815332Y00730669D01*
X00808668D01*
X00807002Y00732336D01*
Y00735668D01*
X00808668Y00737334D01*
X00815332D01*
Y00727337D02*
X00816998Y00725671D01*
Y00722339D01*
X00815332Y00720673D01*
X00813666D01*
X00812000Y00722339D01*
Y00724005D01*
Y00722339D01*
X00810334Y00720673D01*
X00808668D01*
X00807002Y00722339D01*
Y00725671D01*
X00808668Y00727337D01*
X00758337Y00755332D02*
X00756671Y00756998D01*
X00753339D01*
X00751673Y00755332D01*
Y00748668D01*
X00753339Y00747002D01*
X00756671D01*
X00758337Y00748668D01*
X00761669Y00755332D02*
X00763335Y00756998D01*
X00766668D01*
X00768334Y00755332D01*
Y00753666D01*
X00766668Y00752000D01*
X00765002D01*
X00766668D01*
X00768334Y00750334D01*
Y00748668D01*
X00766668Y00747002D01*
X00763335D01*
X00761669Y00748668D01*
X00771666Y00755332D02*
X00773332Y00756998D01*
X00776665D01*
X00778331Y00755332D01*
Y00748668D01*
X00776665Y00747002D01*
X00773332D01*
X00771666Y00748668D01*
Y00755332D01*
X00786661Y00747002D02*
Y00756998D01*
X00781663Y00752000D01*
X00788327D01*
X00154000Y00062000D02*
X00160665Y00052003D01*
Y00062000D02*
X00154000Y00052003D01*
X00163997D02*
Y00062000D01*
X00168995D01*
X00170661Y00060334D01*
Y00057002D01*
X00168995Y00055335D01*
X00163997D01*
X00180658Y00052003D02*
X00173994D01*
X00180658Y00058668D01*
Y00060334D01*
X00178992Y00062000D01*
X00175660D01*
X00173994Y00060334D01*
X00183990D02*
X00185657Y00062000D01*
X00188989D01*
X00190655Y00060334D01*
Y00053669D01*
X00188989Y00052003D01*
X00185657D01*
X00183990Y00053669D01*
Y00060334D01*
X00193987Y00052003D02*
X00197319D01*
X00195653D01*
Y00062000D01*
X00193987Y00060334D01*
X00047674Y00062998D02*
X00054339Y00053002D01*
Y00062998D02*
X00047674Y00053002D01*
X00057671D02*
Y00062998D01*
X00062669D01*
X00064335Y00061332D01*
Y00058000D01*
X00062669Y00056334D01*
X00057671D01*
X00074332Y00053002D02*
X00067668D01*
X00074332Y00059666D01*
Y00061332D01*
X00072666Y00062998D01*
X00069334D01*
X00067668Y00061332D01*
X00077664D02*
X00079331Y00062998D01*
X00082663D01*
X00084329Y00061332D01*
Y00054668D01*
X00082663Y00053002D01*
X00079331D01*
X00077664Y00054668D01*
Y00061332D01*
X00094326Y00053002D02*
X00087661D01*
X00094326Y00059666D01*
Y00061332D01*
X00092660Y00062998D01*
X00089327D01*
X00087661Y00061332D01*
X00845674Y00062998D02*
X00852339Y00053002D01*
Y00062998D02*
X00845674Y00053002D01*
X00855671D02*
Y00062998D01*
X00860669D01*
X00862336Y00061332D01*
Y00058000D01*
X00860669Y00056334D01*
X00855671D01*
X00872332Y00053002D02*
X00865668D01*
X00872332Y00059666D01*
Y00061332D01*
X00870666Y00062998D01*
X00867334D01*
X00865668Y00061332D01*
X00875665D02*
X00877331Y00062998D01*
X00880663D01*
X00882329Y00061332D01*
Y00054668D01*
X00880663Y00053002D01*
X00877331D01*
X00875665Y00054668D01*
Y00061332D01*
X00885661D02*
X00887327Y00062998D01*
X00890660D01*
X00892326Y00061332D01*
Y00059666D01*
X00890660Y00058000D01*
X00888994D01*
X00890660D01*
X00892326Y00056334D01*
Y00054668D01*
X00890660Y00053002D01*
X00887327D01*
X00885661Y00054668D01*
X00047674Y00766998D02*
X00054339Y00757002D01*
Y00766998D02*
X00047674Y00757002D01*
X00057671D02*
Y00766998D01*
X00062669D01*
X00064335Y00765332D01*
Y00762000D01*
X00062669Y00760334D01*
X00057671D01*
X00074332Y00757002D02*
X00067668D01*
X00074332Y00763666D01*
Y00765332D01*
X00072666Y00766998D01*
X00069334D01*
X00067668Y00765332D01*
X00077664D02*
X00079331Y00766998D01*
X00082663D01*
X00084329Y00765332D01*
Y00758668D01*
X00082663Y00757002D01*
X00079331D01*
X00077664Y00758668D01*
Y00765332D01*
X00092660Y00757002D02*
Y00766998D01*
X00087661Y00762000D01*
X00094326D01*
X00845674Y00766998D02*
X00852339Y00757002D01*
Y00766998D02*
X00845674Y00757002D01*
X00855671D02*
Y00766998D01*
X00860669D01*
X00862336Y00765332D01*
Y00762000D01*
X00860669Y00760334D01*
X00855671D01*
X00872332Y00757002D02*
X00865668D01*
X00872332Y00763666D01*
Y00765332D01*
X00870666Y00766998D01*
X00867334D01*
X00865668Y00765332D01*
X00875665D02*
X00877331Y00766998D01*
X00880663D01*
X00882329Y00765332D01*
Y00758668D01*
X00880663Y00757002D01*
X00877331D01*
X00875665Y00758668D01*
Y00765332D01*
X00892326Y00766998D02*
X00885661D01*
Y00762000D01*
X00888994Y00763666D01*
X00890660D01*
X00892326Y00762000D01*
Y00758668D01*
X00890660Y00757002D01*
X00887327D01*
X00885661Y00758668D01*
D13*
X00899540Y00689460D02*
X00902079D01*
Y00686921D01*
X00899540D01*
Y00689460D01*
X00546460Y00628540D02*
X00543921D01*
Y00631079D01*
X00546460D01*
Y00628540D01*
M02*
