G04*
G04 #@! TF.GenerationSoftware,Altium Limited,Altium Designer,22.1.2 (22)*
G04*
G04 Layer_Color=8421504*
%FSAX44Y44*%
%MOMM*%
G71*
G04*
G04 #@! TF.SameCoordinates,84EC4855-0AA3-41C5-BBCE-46EE62212C49*
G04*
G04*
G04 #@! TF.FilePolarity,Positive*
G04*
G01*
G75*
%ADD14R,0.8000X1.4000*%
%ADD15R,0.8000X0.8000*%
%ADD16R,0.8000X0.8000*%
%ADD17R,0.9500X0.8000*%
%ADD18R,0.6000X1.2000*%
G04:AMPARAMS|DCode=19|XSize=0.6mm|YSize=1.2mm|CornerRadius=0.15mm|HoleSize=0mm|Usage=FLASHONLY|Rotation=0.000|XOffset=0mm|YOffset=0mm|HoleType=Round|Shape=RoundedRectangle|*
%AMROUNDEDRECTD19*
21,1,0.6000,0.9000,0,0,0.0*
21,1,0.3000,1.2000,0,0,0.0*
1,1,0.3000,0.1500,-0.4500*
1,1,0.3000,-0.1500,-0.4500*
1,1,0.3000,-0.1500,0.4500*
1,1,0.3000,0.1500,0.4500*
%
%ADD19ROUNDEDRECTD19*%
D14*
X00900000Y00626000D02*
D03*
X00880000D02*
D03*
D15*
X00881000Y00580000D02*
D03*
X00897500D02*
D03*
X00783250Y00708000D02*
D03*
X00766750D02*
D03*
X00783250Y00690000D02*
D03*
X00766750D02*
D03*
X00880750Y00418000D02*
D03*
X00897250D02*
D03*
D16*
X00798000Y00690750D02*
D03*
X00798000Y00707250D02*
D03*
X00880000Y00565250D02*
D03*
Y00548750D02*
D03*
Y00528250D02*
D03*
Y00511750D02*
D03*
X00898000D02*
D03*
Y00528250D02*
D03*
X00880000Y00432750D02*
D03*
Y00449250D02*
D03*
X00812000Y00707250D02*
D03*
Y00690750D02*
D03*
X00880000Y00464750D02*
D03*
Y00481250D02*
D03*
X00898000Y00481250D02*
D03*
Y00464750D02*
D03*
Y00432750D02*
D03*
Y00449250D02*
D03*
D17*
X00899000Y00565500D02*
D03*
X00919000Y00556000D02*
D03*
X00899000Y00546500D02*
D03*
D18*
X00900500Y00645500D02*
D03*
X00891000Y00645500D02*
D03*
X00881500Y00645500D02*
D03*
Y00672500D02*
D03*
X00891000Y00672500D02*
D03*
D19*
X00900500Y00672500D02*
D03*
M02*
