G04*
G04 #@! TF.GenerationSoftware,Altium Limited,Altium Designer,22.1.2 (22)*
G04*
G04 Layer_Color=8388736*
%FSAX44Y44*%
%MOMM*%
G71*
G04*
G04 #@! TF.SameCoordinates,84EC4855-0AA3-41C5-BBCE-46EE62212C49*
G04*
G04*
G04 #@! TF.FilePolarity,Negative*
G04*
G01*
G75*
%ADD14R,0.8000X1.4000*%
%ADD15R,0.8000X0.8000*%
%ADD16R,0.8000X0.8000*%
%ADD17R,0.9500X0.8000*%
%ADD18R,0.6000X1.2000*%
G04:AMPARAMS|DCode=19|XSize=0.6mm|YSize=1.2mm|CornerRadius=0.15mm|HoleSize=0mm|Usage=FLASHONLY|Rotation=0.000|XOffset=0mm|YOffset=0mm|HoleType=Round|Shape=RoundedRectangle|*
%AMROUNDEDRECTD19*
21,1,0.6000,0.9000,0,0,0.0*
21,1,0.3000,1.2000,0,0,0.0*
1,1,0.3000,0.1500,-0.4500*
1,1,0.3000,-0.1500,-0.4500*
1,1,0.3000,-0.1500,0.4500*
1,1,0.3000,0.1500,0.4500*
%
%ADD19ROUNDEDRECTD19*%
%ADD20C,1.6000*%
G04:AMPARAMS|DCode=21|XSize=1.6mm|YSize=1.6mm|CornerRadius=0.4mm|HoleSize=0mm|Usage=FLASHONLY|Rotation=0.000|XOffset=0mm|YOffset=0mm|HoleType=Round|Shape=RoundedRectangle|*
%AMROUNDEDRECTD21*
21,1,1.6000,0.8000,0,0,0.0*
21,1,0.8000,1.6000,0,0,0.0*
1,1,0.8000,0.4000,-0.4000*
1,1,0.8000,-0.4000,-0.4000*
1,1,0.8000,-0.4000,0.4000*
1,1,0.8000,0.4000,0.4000*
%
%ADD21ROUNDEDRECTD21*%
%ADD22O,3.8000X2.9000*%
%ADD23O,1.6000X1.5000*%
G36*
X00103572Y00885749D02*
X00103757Y00885657D01*
X00103827Y00885587D01*
X00103919Y00885495D01*
Y00885471D01*
X00103966Y00885448D01*
X00104035Y00885310D01*
X00104104Y00885124D01*
X00104151Y00884870D01*
Y00870061D01*
Y00870038D01*
X00104128Y00869945D01*
X00104104Y00869806D01*
X00104058Y00869667D01*
X00103942Y00869505D01*
X00103804Y00869390D01*
X00103595Y00869297D01*
X00103318Y00869251D01*
X00103271D01*
X00103132Y00869274D01*
X00102947Y00869343D01*
X00102762Y00869459D01*
X00102716Y00869505D01*
X00102647Y00869621D01*
X00102577Y00869806D01*
X00102531Y00870061D01*
Y00882602D01*
X00099384Y00876933D01*
Y00876910D01*
X00099338Y00876887D01*
X00099222Y00876771D01*
X00099037Y00876632D01*
X00098898Y00876609D01*
X00098759Y00876586D01*
X00098690D01*
X00098620Y00876609D01*
X00098528Y00876632D01*
X00098435Y00876679D01*
X00098320Y00876725D01*
X00098227Y00876817D01*
X00098158Y00876933D01*
X00095034Y00882602D01*
Y00870061D01*
Y00870038D01*
X00095011Y00869945D01*
X00094987Y00869806D01*
X00094941Y00869667D01*
X00094825Y00869505D01*
X00094687Y00869390D01*
X00094478Y00869297D01*
X00094201Y00869251D01*
X00094154D01*
X00093992Y00869274D01*
X00093807Y00869343D01*
X00093622Y00869459D01*
X00093599Y00869505D01*
X00093530Y00869621D01*
X00093437Y00869806D01*
X00093414Y00870061D01*
Y00884870D01*
Y00884916D01*
X00093437Y00885009D01*
X00093460Y00885148D01*
X00093506Y00885333D01*
X00093599Y00885495D01*
X00093738Y00885633D01*
X00093900Y00885726D01*
X00094154Y00885772D01*
X00094224D01*
X00094316Y00885749D01*
X00094432Y00885703D01*
X00094548Y00885657D01*
X00094663Y00885564D01*
X00094779Y00885448D01*
X00094895Y00885286D01*
X00098759Y00878761D01*
X00102623Y00885286D01*
X00102647Y00885310D01*
X00102670Y00885356D01*
X00102739Y00885448D01*
X00102832Y00885541D01*
X00103063Y00885703D01*
X00103225Y00885749D01*
X00103387Y00885772D01*
X00103433D01*
X00103572Y00885749D01*
D02*
G37*
G36*
X00159477Y00881098D02*
X00159662Y00881029D01*
X00159870Y00880913D01*
X00159894D01*
X00159917Y00880867D01*
X00160009Y00880774D01*
X00160079Y00880589D01*
X00160125Y00880473D01*
Y00880335D01*
Y00880288D01*
Y00880219D01*
X00160102Y00880126D01*
X00160079Y00880057D01*
X00157232Y00869899D01*
Y00869876D01*
X00157186Y00869806D01*
X00157140Y00869690D01*
X00157071Y00869575D01*
X00156955Y00869436D01*
X00156816Y00869343D01*
X00156631Y00869251D01*
X00156423Y00869228D01*
X00156376D01*
X00156284Y00869251D01*
X00156122Y00869297D01*
X00155960Y00869390D01*
X00155937Y00869413D01*
X00155844Y00869505D01*
X00155775Y00869621D01*
X00155728Y00869737D01*
X00152836Y00880057D01*
Y00880080D01*
X00152813Y00880103D01*
X00152790Y00880196D01*
Y00880335D01*
Y00880358D01*
Y00880404D01*
X00152813Y00880543D01*
X00152882Y00880705D01*
X00153021Y00880890D01*
X00153044D01*
X00153067Y00880936D01*
X00153183Y00881006D01*
X00153368Y00881075D01*
X00153600Y00881121D01*
X00153692D01*
X00153785Y00881098D01*
X00153924Y00881052D01*
X00154039Y00880983D01*
X00154178Y00880867D01*
X00154294Y00880728D01*
X00154386Y00880520D01*
X00156446Y00872467D01*
X00158528Y00880520D01*
Y00880543D01*
X00158551Y00880612D01*
X00158598Y00880705D01*
X00158667Y00880820D01*
X00158760Y00880936D01*
X00158898Y00881029D01*
X00159084Y00881098D01*
X00159292Y00881121D01*
X00159338D01*
X00159477Y00881098D01*
D02*
G37*
G36*
X00184144Y00885680D02*
X00184282Y00885657D01*
X00184444Y00885633D01*
X00184815Y00885518D01*
X00185231Y00885356D01*
X00185462Y00885240D01*
X00185694Y00885101D01*
X00185925Y00884939D01*
X00186157Y00884754D01*
X00186365Y00884546D01*
X00186596Y00884291D01*
X00186619D01*
X00186643Y00884268D01*
X00186758Y00884153D01*
X00186920Y00883968D01*
X00187105Y00883736D01*
X00187267Y00883412D01*
X00187429Y00883019D01*
X00187545Y00882556D01*
X00187591Y00882301D01*
Y00882024D01*
Y00872884D01*
Y00872861D01*
Y00872814D01*
Y00872745D01*
X00187568Y00872629D01*
Y00872514D01*
X00187545Y00872352D01*
X00187453Y00872004D01*
X00187337Y00871588D01*
X00187129Y00871171D01*
X00186874Y00870732D01*
X00186689Y00870524D01*
X00186504Y00870315D01*
X00186481D01*
X00186458Y00870269D01*
X00186388Y00870223D01*
X00186319Y00870153D01*
X00186087Y00869968D01*
X00185786Y00869783D01*
X00185393Y00869598D01*
X00184953Y00869413D01*
X00184444Y00869297D01*
X00184167Y00869274D01*
X00183889Y00869251D01*
X00182616D01*
X00182501Y00869274D01*
X00182362D01*
X00182223Y00869297D01*
X00181853Y00869390D01*
X00181459Y00869505D01*
X00181020Y00869690D01*
X00180580Y00869945D01*
X00180372Y00870107D01*
X00180164Y00870292D01*
Y00870315D01*
X00180117Y00870338D01*
X00180071Y00870408D01*
X00180002Y00870477D01*
X00179840Y00870709D01*
X00179655Y00871009D01*
X00179446Y00871403D01*
X00179284Y00871842D01*
X00179169Y00872328D01*
X00179145Y00872606D01*
X00179122Y00872884D01*
Y00882024D01*
Y00882047D01*
Y00882093D01*
Y00882163D01*
X00179145Y00882278D01*
Y00882417D01*
X00179192Y00882556D01*
X00179261Y00882926D01*
X00179400Y00883343D01*
X00179585Y00883782D01*
X00179863Y00884245D01*
X00180025Y00884477D01*
X00180210Y00884685D01*
X00180233Y00884708D01*
X00180256Y00884731D01*
X00180395Y00884847D01*
X00180603Y00885009D01*
X00180904Y00885194D01*
X00181274Y00885379D01*
X00181714Y00885541D01*
X00182200Y00885657D01*
X00182477Y00885703D01*
X00184051D01*
X00184144Y00885680D01*
D02*
G37*
G36*
X00176646Y00870824D02*
X00176762Y00870801D01*
X00176924Y00870755D01*
X00177086Y00870639D01*
X00177202Y00870500D01*
X00177294Y00870315D01*
X00177341Y00870038D01*
Y00870014D01*
Y00869991D01*
X00177317Y00869853D01*
X00177248Y00869667D01*
X00177109Y00869482D01*
X00177063Y00869436D01*
X00176947Y00869367D01*
X00176762Y00869297D01*
X00176507Y00869251D01*
X00176438D01*
X00176299Y00869274D01*
X00176114Y00869343D01*
X00175929Y00869459D01*
X00175906Y00869505D01*
X00175837Y00869621D01*
X00175744Y00869806D01*
X00175721Y00870038D01*
Y00870061D01*
Y00870084D01*
X00175744Y00870223D01*
X00175813Y00870408D01*
X00175929Y00870593D01*
Y00870616D01*
X00175975Y00870639D01*
X00176091Y00870732D01*
X00176253Y00870801D01*
X00176369Y00870847D01*
X00176554D01*
X00176646Y00870824D01*
D02*
G37*
G36*
X00173222Y00885657D02*
X00173407Y00885587D01*
X00173615Y00885448D01*
X00173638D01*
X00173661Y00885402D01*
X00173754Y00885310D01*
X00173823Y00885125D01*
X00173870Y00885009D01*
Y00884870D01*
Y00870038D01*
Y00870014D01*
Y00869968D01*
X00173846Y00869899D01*
Y00869806D01*
X00173754Y00869621D01*
X00173708Y00869529D01*
X00173615Y00869436D01*
X00173569Y00869413D01*
X00173453Y00869343D01*
X00173291Y00869274D01*
X00173060Y00869251D01*
X00173013D01*
X00172852Y00869274D01*
X00172666Y00869343D01*
X00172481Y00869459D01*
X00172435Y00869505D01*
X00172366Y00869621D01*
X00172296Y00869783D01*
X00172250Y00870038D01*
Y00883297D01*
X00170214Y00880890D01*
X00170167Y00880844D01*
X00170052Y00880774D01*
X00169867Y00880705D01*
X00169635Y00880659D01*
X00169589D01*
X00169450Y00880682D01*
X00169265Y00880751D01*
X00169057Y00880890D01*
X00169010Y00880936D01*
X00168941Y00881052D01*
X00168871Y00881237D01*
X00168825Y00881468D01*
Y00881492D01*
Y00881515D01*
X00168848Y00881654D01*
X00168941Y00881839D01*
X00168987Y00881931D01*
X00169080Y00882024D01*
X00172504Y00885448D01*
X00172551Y00885495D01*
X00172643Y00885564D01*
X00172805Y00885633D01*
X00173037Y00885680D01*
X00173083D01*
X00173222Y00885657D01*
D02*
G37*
G36*
X00141914Y00881098D02*
X00142215Y00881029D01*
X00142562Y00880913D01*
X00142585D01*
X00142632Y00880867D01*
X00142724Y00880820D01*
X00142840Y00880774D01*
X00143094Y00880589D01*
X00143372Y00880358D01*
X00143395Y00880335D01*
X00143441Y00880311D01*
X00143488Y00880242D01*
X00143580Y00880150D01*
X00143742Y00879895D01*
X00143904Y00879571D01*
Y00879548D01*
X00143927Y00879502D01*
X00143974Y00879409D01*
X00144020Y00879270D01*
X00144089Y00878969D01*
X00144112Y00878622D01*
Y00870038D01*
Y00870014D01*
X00144089Y00869922D01*
X00144066Y00869783D01*
X00144020Y00869644D01*
X00143904Y00869505D01*
X00143765Y00869367D01*
X00143580Y00869274D01*
X00143302Y00869251D01*
X00143256D01*
X00143094Y00869274D01*
X00142909Y00869343D01*
X00142724Y00869459D01*
X00142678Y00869505D01*
X00142608Y00869621D01*
X00142539Y00869783D01*
X00142493Y00870038D01*
Y00878622D01*
Y00878645D01*
Y00878692D01*
X00142470Y00878761D01*
Y00878830D01*
X00142377Y00879039D01*
X00142308Y00879155D01*
X00142215Y00879247D01*
Y00879270D01*
X00142169Y00879293D01*
X00142053Y00879386D01*
X00141845Y00879478D01*
X00141729Y00879525D01*
X00139554D01*
Y00870038D01*
Y00870014D01*
Y00869968D01*
X00139531Y00869899D01*
Y00869806D01*
X00139438Y00869621D01*
X00139392Y00869529D01*
X00139299Y00869436D01*
X00139253Y00869413D01*
X00139137Y00869343D01*
X00138975Y00869274D01*
X00138744Y00869251D01*
X00138698D01*
X00138536Y00869274D01*
X00138351Y00869343D01*
X00138166Y00869459D01*
X00138119Y00869505D01*
X00138050Y00869621D01*
X00137980Y00869783D01*
X00137934Y00870038D01*
Y00879525D01*
X00134995D01*
Y00870038D01*
Y00870014D01*
X00134972Y00869922D01*
X00134949Y00869783D01*
X00134903Y00869644D01*
X00134787Y00869505D01*
X00134648Y00869367D01*
X00134440Y00869274D01*
X00134162Y00869251D01*
X00134116D01*
X00133954Y00869274D01*
X00133769Y00869343D01*
X00133584Y00869459D01*
X00133561Y00869505D01*
X00133491Y00869621D01*
X00133399Y00869783D01*
X00133376Y00870038D01*
Y00880311D01*
Y00880358D01*
X00133399Y00880450D01*
X00133422Y00880566D01*
X00133468Y00880728D01*
X00133561Y00880867D01*
X00133700Y00881006D01*
X00133908Y00881098D01*
X00134162Y00881121D01*
X00141775D01*
X00141914Y00881098D01*
D02*
G37*
G36*
X00129419Y00881075D02*
X00129650Y00881029D01*
X00129951Y00880936D01*
X00130252Y00880820D01*
X00130553Y00880635D01*
X00130830Y00880381D01*
X00130854Y00880358D01*
X00130946Y00880242D01*
X00131062Y00880103D01*
X00131201Y00879895D01*
X00131339Y00879617D01*
X00131455Y00879316D01*
X00131548Y00878969D01*
X00131571Y00878576D01*
Y00875174D01*
Y00875151D01*
X00131548Y00875059D01*
X00131525Y00874920D01*
X00131455Y00874781D01*
X00131363Y00874642D01*
X00131201Y00874503D01*
X00130992Y00874411D01*
X00130715Y00874388D01*
X00125855D01*
Y00871750D01*
Y00871727D01*
Y00871681D01*
X00125878Y00871611D01*
Y00871518D01*
X00125971Y00871310D01*
X00126017Y00871195D01*
X00126110Y00871102D01*
X00126133D01*
X00126156Y00871056D01*
X00126272Y00870986D01*
X00126480Y00870894D01*
X00126596Y00870871D01*
X00126712Y00870847D01*
X00130761D01*
X00130854Y00870824D01*
X00130969Y00870801D01*
X00131131Y00870755D01*
X00131293Y00870639D01*
X00131409Y00870500D01*
X00131501Y00870315D01*
X00131548Y00870038D01*
Y00870014D01*
Y00869991D01*
X00131525Y00869852D01*
X00131455Y00869667D01*
X00131339Y00869482D01*
X00131293Y00869436D01*
X00131178Y00869367D01*
X00130992Y00869297D01*
X00130715Y00869251D01*
X00126688D01*
X00126550Y00869274D01*
X00126364Y00869297D01*
X00126110Y00869343D01*
X00125809Y00869436D01*
X00125508Y00869552D01*
X00125208Y00869737D01*
X00124930Y00869968D01*
X00124907Y00869991D01*
X00124814Y00870107D01*
X00124722Y00870246D01*
X00124583Y00870454D01*
X00124467Y00870732D01*
X00124351Y00871032D01*
X00124259Y00871380D01*
X00124236Y00871773D01*
Y00878599D01*
Y00878622D01*
Y00878692D01*
Y00878784D01*
X00124259Y00878900D01*
X00124305Y00879201D01*
X00124421Y00879548D01*
Y00879571D01*
X00124467Y00879617D01*
X00124490Y00879710D01*
X00124560Y00879826D01*
X00124722Y00880080D01*
X00124930Y00880358D01*
X00124953Y00880381D01*
X00124999Y00880427D01*
X00125069Y00880473D01*
X00125161Y00880566D01*
X00125416Y00880728D01*
X00125717Y00880913D01*
X00125740D01*
X00125809Y00880936D01*
X00125902Y00880983D01*
X00126017Y00881029D01*
X00126179Y00881052D01*
X00126341Y00881098D01*
X00126735Y00881121D01*
X00129211D01*
X00129419Y00881075D01*
D02*
G37*
G36*
X00121783Y00885680D02*
X00121968Y00885610D01*
X00122176Y00885471D01*
X00122199D01*
X00122222Y00885425D01*
X00122315Y00885310D01*
X00122385Y00885124D01*
X00122431Y00885009D01*
Y00884870D01*
Y00870038D01*
Y00870014D01*
X00122408Y00869922D01*
X00122385Y00869783D01*
X00122315Y00869644D01*
X00122222Y00869505D01*
X00122060Y00869367D01*
X00121852Y00869274D01*
X00121575Y00869251D01*
X00117409D01*
X00117294Y00869274D01*
X00116947Y00869320D01*
X00116600Y00869436D01*
X00116576D01*
X00116530Y00869482D01*
X00116438Y00869529D01*
X00116345Y00869575D01*
X00116091Y00869760D01*
X00115813Y00869991D01*
X00115790Y00870014D01*
X00115767Y00870061D01*
X00115697Y00870130D01*
X00115628Y00870223D01*
X00115443Y00870477D01*
X00115281Y00870778D01*
Y00870801D01*
X00115258Y00870871D01*
X00115234Y00870963D01*
X00115188Y00871079D01*
X00115165Y00871218D01*
X00115119Y00871403D01*
X00115096Y00871773D01*
Y00878622D01*
Y00878645D01*
Y00878669D01*
X00115119Y00878807D01*
X00115142Y00878992D01*
X00115188Y00879247D01*
X00115281Y00879525D01*
X00115396Y00879826D01*
X00115582Y00880126D01*
X00115813Y00880404D01*
X00115836Y00880427D01*
X00115952Y00880520D01*
X00116091Y00880635D01*
X00116299Y00880774D01*
X00116576Y00880890D01*
X00116877Y00881006D01*
X00117224Y00881098D01*
X00117618Y00881121D01*
X00120811D01*
Y00884870D01*
Y00884893D01*
Y00884939D01*
X00120834Y00885078D01*
X00120904Y00885286D01*
X00121019Y00885471D01*
X00121066Y00885518D01*
X00121181Y00885587D01*
X00121366Y00885657D01*
X00121598Y00885703D01*
X00121644D01*
X00121783Y00885680D01*
D02*
G37*
G36*
X00111069Y00881098D02*
X00111393Y00881029D01*
X00111740Y00880913D01*
X00111763D01*
X00111810Y00880867D01*
X00111902Y00880820D01*
X00112018Y00880774D01*
X00112273Y00880589D01*
X00112550Y00880358D01*
X00112573Y00880335D01*
X00112620Y00880311D01*
X00112666Y00880242D01*
X00112759Y00880150D01*
X00112921Y00879895D01*
X00113083Y00879571D01*
Y00879548D01*
X00113106Y00879502D01*
X00113152Y00879409D01*
X00113198Y00879270D01*
X00113268Y00878969D01*
X00113291Y00878622D01*
Y00871773D01*
Y00871750D01*
Y00871727D01*
Y00871588D01*
X00113244Y00871403D01*
X00113198Y00871148D01*
X00113106Y00870847D01*
X00112990Y00870547D01*
X00112805Y00870246D01*
X00112550Y00869968D01*
X00112527Y00869945D01*
X00112411Y00869852D01*
X00112273Y00869737D01*
X00112064Y00869621D01*
X00111787Y00869482D01*
X00111486Y00869367D01*
X00111139Y00869274D01*
X00110745Y00869251D01*
X00108408D01*
X00108270Y00869274D01*
X00108084Y00869297D01*
X00107830Y00869343D01*
X00107529Y00869436D01*
X00107228Y00869552D01*
X00106927Y00869737D01*
X00106650Y00869968D01*
X00106627Y00869991D01*
X00106534Y00870107D01*
X00106441Y00870246D01*
X00106303Y00870454D01*
X00106187Y00870732D01*
X00106071Y00871032D01*
X00105979Y00871380D01*
X00105955Y00871773D01*
Y00878622D01*
Y00878645D01*
Y00878715D01*
Y00878807D01*
X00105979Y00878923D01*
X00106025Y00879247D01*
X00106141Y00879571D01*
Y00879594D01*
X00106187Y00879640D01*
X00106210Y00879733D01*
X00106279Y00879849D01*
X00106441Y00880103D01*
X00106650Y00880381D01*
X00106673Y00880404D01*
X00106719Y00880450D01*
X00106789Y00880497D01*
X00106881Y00880589D01*
X00107136Y00880751D01*
X00107436Y00880913D01*
X00107460D01*
X00107529Y00880936D01*
X00107622Y00880983D01*
X00107737Y00881029D01*
X00107899Y00881052D01*
X00108061Y00881098D01*
X00108455Y00881121D01*
X00110931D01*
X00111069Y00881098D01*
D02*
G37*
G36*
X00090892Y00885680D02*
X00091007Y00885657D01*
X00091169Y00885610D01*
X00091331Y00885495D01*
X00091447Y00885356D01*
X00091540Y00885171D01*
X00091586Y00884893D01*
Y00884870D01*
Y00884847D01*
X00091563Y00884708D01*
X00091493Y00884523D01*
X00091355Y00884338D01*
X00091308Y00884291D01*
X00091193Y00884222D01*
X00091007Y00884153D01*
X00090753Y00884106D01*
X00085894D01*
Y00878830D01*
X00090822D01*
X00090892Y00878807D01*
X00090984D01*
X00091193Y00878715D01*
X00091285Y00878669D01*
X00091378Y00878576D01*
X00091401Y00878530D01*
X00091493Y00878414D01*
X00091563Y00878252D01*
X00091586Y00878044D01*
Y00878021D01*
Y00877998D01*
X00091563Y00877859D01*
X00091493Y00877674D01*
X00091355Y00877465D01*
X00091308Y00877419D01*
X00091193Y00877350D01*
X00091007Y00877280D01*
X00090753Y00877234D01*
X00085894D01*
Y00870038D01*
Y00870014D01*
X00085871Y00869922D01*
X00085847Y00869783D01*
X00085801Y00869644D01*
X00085685Y00869505D01*
X00085547Y00869367D01*
X00085338Y00869274D01*
X00085061Y00869251D01*
X00085014D01*
X00084852Y00869274D01*
X00084667Y00869343D01*
X00084482Y00869459D01*
X00084459Y00869505D01*
X00084390Y00869621D01*
X00084297Y00869783D01*
X00084274Y00870038D01*
Y00884870D01*
Y00884916D01*
X00084297Y00885009D01*
X00084320Y00885124D01*
X00084367Y00885286D01*
X00084459Y00885448D01*
X00084598Y00885564D01*
X00084806Y00885657D01*
X00085061Y00885703D01*
X00090799D01*
X00090892Y00885680D01*
D02*
G37*
G36*
X00079021D02*
X00079160Y00885657D01*
X00079322Y00885633D01*
X00079692Y00885541D01*
X00080109Y00885356D01*
X00080340Y00885263D01*
X00080572Y00885124D01*
X00080803Y00884962D01*
X00081034Y00884777D01*
X00081243Y00884569D01*
X00081474Y00884315D01*
X00081497D01*
X00081520Y00884268D01*
X00081636Y00884176D01*
X00081798Y00883991D01*
X00081983Y00883736D01*
X00082145Y00883412D01*
X00082307Y00883019D01*
X00082423Y00882556D01*
X00082469Y00882301D01*
Y00882024D01*
Y00879733D01*
Y00879710D01*
Y00879663D01*
Y00879594D01*
X00082446Y00879478D01*
Y00879340D01*
X00082423Y00879201D01*
X00082330Y00878830D01*
X00082214Y00878437D01*
X00082006Y00877998D01*
X00081752Y00877558D01*
X00081567Y00877350D01*
X00081382Y00877141D01*
X00081358D01*
X00081335Y00877095D01*
X00081266Y00877049D01*
X00081196Y00876979D01*
X00080965Y00876817D01*
X00080641Y00876632D01*
X00080271Y00876424D01*
X00079831Y00876262D01*
X00079322Y00876146D01*
X00079044Y00876123D01*
X00078767Y00876100D01*
X00078882D01*
X00082353Y00870431D01*
X00082376Y00870385D01*
X00082423Y00870292D01*
X00082446Y00870153D01*
X00082469Y00870038D01*
Y00870014D01*
Y00869991D01*
X00082446Y00869852D01*
X00082353Y00869667D01*
X00082307Y00869575D01*
X00082214Y00869482D01*
X00082168Y00869436D01*
X00082052Y00869367D01*
X00081867Y00869297D01*
X00081636Y00869251D01*
X00081567D01*
X00081405Y00869297D01*
X00081243Y00869367D01*
X00081173Y00869436D01*
X00081127Y00869529D01*
X00077193Y00876100D01*
X00075620D01*
Y00870038D01*
Y00870014D01*
X00075597Y00869922D01*
X00075574Y00869783D01*
X00075527Y00869644D01*
X00075412Y00869505D01*
X00075273Y00869367D01*
X00075064Y00869274D01*
X00074787Y00869251D01*
X00074741D01*
X00074578Y00869274D01*
X00074393Y00869343D01*
X00074208Y00869459D01*
X00074185Y00869505D01*
X00074116Y00869621D01*
X00074023Y00869783D01*
X00074000Y00870038D01*
Y00884870D01*
Y00884916D01*
X00074023Y00885009D01*
X00074046Y00885124D01*
X00074093Y00885286D01*
X00074185Y00885448D01*
X00074324Y00885564D01*
X00074532Y00885657D01*
X00074787Y00885703D01*
X00078929D01*
X00079021Y00885680D01*
D02*
G37*
%LPC*%
G36*
X00183889Y00884106D02*
X00182593D01*
X00182501Y00884083D01*
X00182246Y00884037D01*
X00181968Y00883944D01*
X00181945D01*
X00181899Y00883921D01*
X00181853Y00883875D01*
X00181760Y00883829D01*
X00181552Y00883690D01*
X00181320Y00883482D01*
Y00883458D01*
X00181274Y00883435D01*
X00181159Y00883297D01*
X00181020Y00883088D01*
X00180881Y00882834D01*
Y00882811D01*
X00180858Y00882764D01*
X00180835Y00882695D01*
X00180812Y00882602D01*
X00180765Y00882348D01*
X00180742Y00882024D01*
Y00872884D01*
Y00872861D01*
Y00872814D01*
Y00872722D01*
X00180765Y00872629D01*
X00180812Y00872352D01*
X00180881Y00872074D01*
Y00872051D01*
X00180904Y00872004D01*
X00180950Y00871935D01*
X00180997Y00871866D01*
X00181135Y00871634D01*
X00181320Y00871426D01*
X00181344D01*
X00181367Y00871380D01*
X00181506Y00871264D01*
X00181714Y00871125D01*
X00181968Y00870986D01*
X00181992D01*
X00182038Y00870963D01*
X00182107Y00870940D01*
X00182200Y00870917D01*
X00182454Y00870871D01*
X00182755Y00870847D01*
X00184051D01*
X00184213Y00870871D01*
X00184421Y00870917D01*
X00184653Y00870986D01*
X00184884Y00871079D01*
X00185138Y00871218D01*
X00185370Y00871403D01*
X00185393Y00871426D01*
X00185462Y00871518D01*
X00185555Y00871634D01*
X00185671Y00871796D01*
X00185786Y00872028D01*
X00185879Y00872282D01*
X00185948Y00872560D01*
X00185972Y00872884D01*
Y00882024D01*
Y00882047D01*
Y00882093D01*
Y00882163D01*
X00185948Y00882278D01*
X00185902Y00882510D01*
X00185810Y00882787D01*
Y00882811D01*
X00185786Y00882857D01*
X00185740Y00882926D01*
X00185694Y00883019D01*
X00185555Y00883227D01*
X00185347Y00883458D01*
X00185324Y00883482D01*
X00185301Y00883505D01*
X00185162Y00883620D01*
X00184953Y00883782D01*
X00184699Y00883921D01*
X00184676D01*
X00184629Y00883944D01*
X00184560Y00883991D01*
X00184468Y00884014D01*
X00184213Y00884083D01*
X00183889Y00884106D01*
D02*
G37*
G36*
X00129164Y00879525D02*
X00126665D01*
X00126503Y00879502D01*
X00126318Y00879409D01*
X00126202Y00879340D01*
X00126110Y00879247D01*
X00126064Y00879201D01*
X00125994Y00879062D01*
X00125902Y00878877D01*
X00125878Y00878738D01*
X00125855Y00878599D01*
Y00875984D01*
X00129951D01*
Y00878599D01*
Y00878622D01*
Y00878669D01*
X00129928Y00878738D01*
Y00878830D01*
X00129835Y00879039D01*
X00129766Y00879155D01*
X00129673Y00879247D01*
Y00879270D01*
X00129627Y00879293D01*
X00129488Y00879386D01*
X00129303Y00879478D01*
X00129164Y00879525D01*
D02*
G37*
G36*
X00120811D02*
X00117525D01*
X00117456Y00879502D01*
X00117386D01*
X00117178Y00879409D01*
X00117062Y00879340D01*
X00116970Y00879247D01*
X00116924Y00879201D01*
X00116854Y00879085D01*
X00116762Y00878877D01*
X00116739Y00878761D01*
X00116715Y00878622D01*
Y00871750D01*
Y00871727D01*
Y00871681D01*
X00116739Y00871611D01*
Y00871518D01*
X00116831Y00871310D01*
X00116877Y00871195D01*
X00116970Y00871102D01*
X00116993D01*
X00117016Y00871056D01*
X00117155Y00870986D01*
X00117340Y00870894D01*
X00117456Y00870871D01*
X00117595Y00870847D01*
X00120811D01*
Y00879525D01*
D02*
G37*
G36*
X00110884D02*
X00108385D01*
X00108223Y00879502D01*
X00108038Y00879409D01*
X00107922Y00879340D01*
X00107830Y00879247D01*
X00107783Y00879201D01*
X00107714Y00879085D01*
X00107622Y00878877D01*
X00107598Y00878761D01*
X00107575Y00878622D01*
Y00871750D01*
Y00871727D01*
Y00871681D01*
X00107598Y00871611D01*
Y00871518D01*
X00107691Y00871310D01*
X00107737Y00871195D01*
X00107830Y00871102D01*
X00107853D01*
X00107876Y00871056D01*
X00107992Y00870986D01*
X00108200Y00870894D01*
X00108316Y00870871D01*
X00108431Y00870847D01*
X00110815D01*
X00110884Y00870871D01*
X00110977D01*
X00111185Y00870963D01*
X00111301Y00871009D01*
X00111393Y00871102D01*
X00111416Y00871125D01*
X00111440Y00871148D01*
X00111532Y00871287D01*
X00111625Y00871472D01*
X00111671Y00871611D01*
Y00871750D01*
Y00878622D01*
Y00878645D01*
Y00878692D01*
X00111648Y00878761D01*
Y00878830D01*
X00111555Y00879039D01*
X00111486Y00879155D01*
X00111393Y00879247D01*
Y00879270D01*
X00111347Y00879293D01*
X00111208Y00879386D01*
X00111023Y00879478D01*
X00110884Y00879525D01*
D02*
G37*
G36*
X00078767Y00884106D02*
X00075620D01*
Y00877697D01*
X00078929D01*
X00079044Y00877720D01*
X00079299Y00877766D01*
X00079577Y00877835D01*
X00079600D01*
X00079646Y00877859D01*
X00079715Y00877905D01*
X00079808Y00877951D01*
X00080016Y00878090D01*
X00080225Y00878275D01*
X00080248Y00878298D01*
X00080271Y00878322D01*
X00080386Y00878483D01*
X00080548Y00878692D01*
X00080687Y00878946D01*
Y00878969D01*
X00080710Y00879016D01*
X00080734Y00879085D01*
X00080780Y00879178D01*
X00080826Y00879432D01*
X00080849Y00879733D01*
Y00882024D01*
Y00882047D01*
Y00882093D01*
Y00882163D01*
X00080826Y00882278D01*
X00080780Y00882510D01*
X00080687Y00882787D01*
Y00882811D01*
X00080664Y00882857D01*
X00080618Y00882926D01*
X00080572Y00883019D01*
X00080433Y00883227D01*
X00080225Y00883458D01*
X00080201Y00883482D01*
X00080178Y00883505D01*
X00080039Y00883620D01*
X00079831Y00883782D01*
X00079577Y00883921D01*
X00079553D01*
X00079507Y00883944D01*
X00079438Y00883991D01*
X00079345Y00884014D01*
X00079091Y00884083D01*
X00078767Y00884106D01*
D02*
G37*
%LPD*%
D14*
X00900000Y00626000D02*
D03*
X00880000D02*
D03*
D15*
X00881000Y00580000D02*
D03*
X00897500D02*
D03*
X00783250Y00708000D02*
D03*
X00766750D02*
D03*
X00783250Y00690000D02*
D03*
X00766750D02*
D03*
X00880750Y00418000D02*
D03*
X00897250D02*
D03*
D16*
X00798000Y00690750D02*
D03*
X00798000Y00707250D02*
D03*
X00880000Y00565250D02*
D03*
Y00548750D02*
D03*
Y00528250D02*
D03*
Y00511750D02*
D03*
X00898000D02*
D03*
Y00528250D02*
D03*
X00880000Y00432750D02*
D03*
Y00449250D02*
D03*
X00812000Y00707250D02*
D03*
Y00690750D02*
D03*
X00880000Y00464750D02*
D03*
Y00481250D02*
D03*
X00898000Y00481250D02*
D03*
Y00464750D02*
D03*
Y00432750D02*
D03*
Y00449250D02*
D03*
D17*
X00899000Y00565500D02*
D03*
X00919000Y00556000D02*
D03*
X00899000Y00546500D02*
D03*
D18*
X00900500Y00645500D02*
D03*
X00891000Y00645500D02*
D03*
X00881500Y00645500D02*
D03*
Y00672500D02*
D03*
X00891000Y00672500D02*
D03*
D19*
X00900500Y00672500D02*
D03*
D20*
X00266800Y00105700D02*
D03*
Y00080300D02*
D03*
X00292200Y00105700D02*
D03*
Y00080300D02*
D03*
X00317600Y00105700D02*
D03*
Y00080300D02*
D03*
X00343000Y00105700D02*
D03*
Y00080300D02*
D03*
X00368400Y00105700D02*
D03*
Y00080300D02*
D03*
X00393800Y00105700D02*
D03*
Y00080300D02*
D03*
X00419200Y00105700D02*
D03*
Y00080300D02*
D03*
X00444600Y00105700D02*
D03*
Y00080300D02*
D03*
X00470000Y00105700D02*
D03*
Y00080300D02*
D03*
X00495400Y00105700D02*
D03*
Y00080300D02*
D03*
X00520800Y00105700D02*
D03*
Y00080300D02*
D03*
X00546200Y00105700D02*
D03*
Y00080300D02*
D03*
X00571600Y00105700D02*
D03*
Y00080300D02*
D03*
X00597000Y00105700D02*
D03*
Y00080300D02*
D03*
X00622400Y00105700D02*
D03*
Y00080300D02*
D03*
X00647800Y00105700D02*
D03*
Y00080300D02*
D03*
X00673200Y00105700D02*
D03*
Y00080300D02*
D03*
X00698600Y00105700D02*
D03*
Y00080300D02*
D03*
X00724000Y00105700D02*
D03*
Y00080300D02*
D03*
X00749400Y00105700D02*
D03*
Y00080300D02*
D03*
X00774800Y00105700D02*
D03*
Y00080300D02*
D03*
X00216000Y00105700D02*
D03*
X00190600D02*
D03*
X00216000Y00080300D02*
D03*
X00190600D02*
D03*
X00165200D02*
D03*
X00241400Y00105700D02*
D03*
Y00080300D02*
D03*
X00679100Y00595100D02*
D03*
Y00620500D02*
D03*
Y00544300D02*
D03*
Y00493500D02*
D03*
X00679100Y00569700D02*
D03*
Y00518900D02*
D03*
Y00645900D02*
D03*
X00856900Y00620500D02*
D03*
X00679100Y00239500D02*
D03*
Y00214100D02*
D03*
Y00264900D02*
D03*
Y00391900D02*
D03*
Y00366500D02*
D03*
X00856900Y00391900D02*
D03*
X00679100Y00188700D02*
D03*
Y00341100D02*
D03*
X00856900Y00493500D02*
D03*
Y00366500D02*
D03*
Y00341100D02*
D03*
Y00442700D02*
D03*
Y00417300D02*
D03*
Y00645900D02*
D03*
Y00569700D02*
D03*
Y00671300D02*
D03*
X00856900Y00595100D02*
D03*
X00856900Y00544300D02*
D03*
Y00518900D02*
D03*
X00856900Y00468100D02*
D03*
X00856900Y00214100D02*
D03*
Y00188700D02*
D03*
X00538000Y00584100D02*
D03*
Y00482500D02*
D03*
Y00558700D02*
D03*
X00402000Y00482500D02*
D03*
Y00507900D02*
D03*
Y00533300D02*
D03*
Y00558700D02*
D03*
Y00584100D02*
D03*
Y00609500D02*
D03*
D21*
X00165200Y00105700D02*
D03*
X00679100Y00671300D02*
D03*
X00538000Y00609500D02*
D03*
D22*
X00046000Y00095500D02*
D03*
Y00020500D02*
D03*
X00096000D02*
D03*
Y00095500D02*
D03*
X00894000Y00020500D02*
D03*
Y00095500D02*
D03*
X00844000D02*
D03*
Y00020500D02*
D03*
X00046000Y00799500D02*
D03*
Y00724500D02*
D03*
X00096000D02*
D03*
Y00799500D02*
D03*
X00894000Y00724500D02*
D03*
Y00799500D02*
D03*
X00844000D02*
D03*
Y00724500D02*
D03*
D23*
X00679100Y00468100D02*
D03*
Y00442700D02*
D03*
Y00315700D02*
D03*
X00679100Y00417300D02*
D03*
Y00290300D02*
D03*
X00856900Y00315700D02*
D03*
Y00290300D02*
D03*
Y00264900D02*
D03*
X00856900Y00239500D02*
D03*
X00538000Y00507900D02*
D03*
Y00533300D02*
D03*
M02*
