G04*
G04 #@! TF.GenerationSoftware,Altium Limited,Altium Designer,22.1.2 (22)*
G04*
G04 Layer_Physical_Order=1*
G04 Layer_Color=255*
%FSAX44Y44*%
%MOMM*%
G71*
G04*
G04 #@! TF.SameCoordinates,84EC4855-0AA3-41C5-BBCE-46EE62212C49*
G04*
G04*
G04 #@! TF.FilePolarity,Positive*
G04*
G01*
G75*
%ADD14R,0.8000X1.4000*%
%ADD15R,0.8000X0.8000*%
%ADD16R,0.8000X0.8000*%
%ADD17R,0.9500X0.8000*%
%ADD18R,0.6000X1.2000*%
G04:AMPARAMS|DCode=19|XSize=0.6mm|YSize=1.2mm|CornerRadius=0.15mm|HoleSize=0mm|Usage=FLASHONLY|Rotation=0.000|XOffset=0mm|YOffset=0mm|HoleType=Round|Shape=RoundedRectangle|*
%AMROUNDEDRECTD19*
21,1,0.6000,0.9000,0,0,0.0*
21,1,0.3000,1.2000,0,0,0.0*
1,1,0.3000,0.1500,-0.4500*
1,1,0.3000,-0.1500,-0.4500*
1,1,0.3000,-0.1500,0.4500*
1,1,0.3000,0.1500,0.4500*
%
%ADD19ROUNDEDRECTD19*%
%ADD20C,1.6000*%
G04:AMPARAMS|DCode=21|XSize=1.6mm|YSize=1.6mm|CornerRadius=0.4mm|HoleSize=0mm|Usage=FLASHONLY|Rotation=0.000|XOffset=0mm|YOffset=0mm|HoleType=Round|Shape=RoundedRectangle|*
%AMROUNDEDRECTD21*
21,1,1.6000,0.8000,0,0,0.0*
21,1,0.8000,1.6000,0,0,0.0*
1,1,0.8000,0.4000,-0.4000*
1,1,0.8000,-0.4000,-0.4000*
1,1,0.8000,-0.4000,0.4000*
1,1,0.8000,0.4000,0.4000*
%
%ADD21ROUNDEDRECTD21*%
%ADD22O,3.8000X2.9000*%
%ADD23O,1.6000X1.5000*%
%ADD24C,0.3000*%
%ADD25C,1.5000*%
%ADD26C,1.0000*%
%ADD27C,0.5000*%
%ADD28C,0.8000*%
%ADD29C,0.4000*%
%ADD30C,0.6500*%
G36*
X00370000Y00894902D02*
X00370975D01*
X00372888Y00894522D01*
X00374690Y00893775D01*
X00376312Y00892691D01*
X00377691Y00891312D01*
X00378775Y00889690D01*
X00379522Y00887888D01*
X00379902Y00885975D01*
X00379902Y00885000D01*
Y00714000D01*
X00379927Y00713876D01*
X00379908Y00713750D01*
X00379981Y00712280D01*
X00380072Y00711913D01*
Y00711535D01*
X00380646Y00708651D01*
X00380838Y00708187D01*
X00380936Y00707695D01*
X00382061Y00704978D01*
X00382340Y00704561D01*
X00382533Y00704097D01*
X00384166Y00701652D01*
X00384521Y00701297D01*
X00384800Y00700879D01*
X00386879Y00698800D01*
X00387297Y00698521D01*
X00387652Y00698166D01*
X00390097Y00696533D01*
X00390561Y00696340D01*
X00390978Y00696061D01*
X00393695Y00694936D01*
X00394187Y00694838D01*
X00394651Y00694646D01*
X00397535Y00694072D01*
X00397913D01*
X00398280Y00693981D01*
X00399750Y00693908D01*
X00399875Y00693927D01*
X00400000Y00693902D01*
X00540000Y00693902D01*
X00540125Y00693927D01*
X00540250Y00693908D01*
X00541720Y00693980D01*
X00542087Y00694072D01*
X00542465D01*
X00545349Y00694646D01*
X00545813Y00694838D01*
X00546305Y00694936D01*
X00549022Y00696061D01*
X00549439Y00696340D01*
X00549903Y00696533D01*
X00552348Y00698166D01*
X00552703Y00698521D01*
X00553121Y00698800D01*
X00555200Y00700879D01*
X00555479Y00701297D01*
X00555834Y00701652D01*
X00557467Y00704097D01*
X00557660Y00704561D01*
X00557939Y00704978D01*
X00559064Y00707695D01*
X00559162Y00708187D01*
X00559354Y00708651D01*
X00559928Y00711535D01*
Y00711913D01*
X00560019Y00712280D01*
X00560092Y00713750D01*
X00560073Y00713875D01*
X00560098Y00714000D01*
X00560098Y00885000D01*
Y00885975D01*
X00560478Y00887888D01*
X00561225Y00889690D01*
X00562309Y00891312D01*
X00563688Y00892691D01*
X00565309Y00893775D01*
X00567112Y00894522D01*
X00569025Y00894902D01*
X00570000Y00894902D01*
X00874902Y00894902D01*
Y00844000D01*
X00875290Y00842049D01*
X00876395Y00840395D01*
X00899395Y00817395D01*
X00901049Y00816290D01*
X00903000Y00815902D01*
X00934902D01*
X00934902Y00005098D01*
X00005098Y00005098D01*
X00005098Y00815902D01*
X00037000Y00815902D01*
X00038951Y00816290D01*
X00040605Y00817395D01*
X00063605Y00840395D01*
X00064710Y00842049D01*
X00065098Y00844000D01*
Y00894902D01*
X00370000Y00894902D01*
D02*
G37*
%LPC*%
G36*
X00192091Y00890272D02*
X00069500D01*
Y00864728D01*
X00192091D01*
Y00890272D01*
D02*
G37*
G36*
X00683100Y00681418D02*
X00675100D01*
X00672759Y00680952D01*
X00670774Y00679626D01*
X00669448Y00677641D01*
X00668982Y00675300D01*
Y00667300D01*
X00669448Y00664959D01*
X00670774Y00662974D01*
X00672759Y00661648D01*
X00675100Y00661182D01*
X00683100D01*
X00685441Y00661648D01*
X00687426Y00662974D01*
X00688752Y00664959D01*
X00689218Y00667300D01*
Y00675300D01*
X00688752Y00677641D01*
X00687426Y00679626D01*
X00685441Y00680952D01*
X00683100Y00681418D01*
D02*
G37*
G36*
X00680417Y00655900D02*
X00677784D01*
X00675240Y00655219D01*
X00672960Y00653902D01*
X00671098Y00652040D01*
X00669781Y00649760D01*
X00669100Y00647217D01*
Y00644584D01*
X00669781Y00642040D01*
X00671098Y00639760D01*
X00672960Y00637898D01*
X00675240Y00636582D01*
X00677784Y00635900D01*
X00680417D01*
X00682960Y00636582D01*
X00685240Y00637898D01*
X00687102Y00639760D01*
X00688419Y00642040D01*
X00689100Y00644584D01*
Y00647217D01*
X00688419Y00649760D01*
X00687102Y00652040D01*
X00685240Y00653902D01*
X00682960Y00655219D01*
X00680417Y00655900D01*
D02*
G37*
G36*
X00775000Y00717039D02*
X00755000D01*
X00754220Y00716884D01*
X00753558Y00716442D01*
X00753116Y00715780D01*
X00752961Y00715000D01*
Y00660000D01*
X00753116Y00659220D01*
X00753558Y00658558D01*
X00754220Y00658116D01*
X00755000Y00657961D01*
X00810960D01*
X00810961Y00142039D01*
X00411000Y00142039D01*
X00410219Y00141884D01*
X00409558Y00141442D01*
X00409116Y00140780D01*
X00408961Y00140000D01*
X00408961Y00067000D01*
X00409116Y00066220D01*
X00409558Y00065558D01*
X00410220Y00065116D01*
X00411000Y00064961D01*
X00453000D01*
X00453780Y00065116D01*
X00454442Y00065558D01*
X00454884Y00066220D01*
X00455039Y00067000D01*
Y00117961D01*
X00833000Y00117961D01*
X00833780Y00118116D01*
X00834442Y00118558D01*
X00834884Y00119220D01*
X00835039Y00120000D01*
Y00679961D01*
X00845961D01*
Y00660000D01*
X00846116Y00659220D01*
X00846558Y00658558D01*
Y00657442D01*
X00846116Y00656780D01*
X00845961Y00656000D01*
Y00636000D01*
X00846116Y00635220D01*
X00846558Y00634558D01*
X00847220Y00634116D01*
X00848000Y00633961D01*
X00885000D01*
X00885961Y00632857D01*
X00885961Y00619000D01*
X00886116Y00618220D01*
X00886558Y00617558D01*
X00887220Y00617116D01*
X00888000Y00616961D01*
X00907000D01*
X00907780Y00617116D01*
X00908442Y00617558D01*
X00908884Y00618220D01*
X00909039Y00619000D01*
Y00701000D01*
X00908884Y00701780D01*
X00908442Y00702442D01*
X00907780Y00702884D01*
X00907000Y00703039D01*
X00777039D01*
Y00715000D01*
X00776884Y00715780D01*
X00776442Y00716442D01*
X00775780Y00716884D01*
X00775000Y00717039D01*
D02*
G37*
G36*
X00403316Y00619500D02*
X00400684D01*
X00398140Y00618819D01*
X00395860Y00617502D01*
X00393998Y00615640D01*
X00392682Y00613360D01*
X00392000Y00610816D01*
Y00608183D01*
X00392464Y00606452D01*
X00381756Y00595744D01*
X00380761Y00594256D01*
X00380412Y00592500D01*
Y00465000D01*
X00380761Y00463244D01*
X00381756Y00461756D01*
X00390756Y00452756D01*
X00392244Y00451761D01*
X00394000Y00451412D01*
X00468000D01*
X00469756Y00451761D01*
X00471244Y00452756D01*
X00499376Y00480887D01*
X00500974Y00481549D01*
X00502451Y00483026D01*
X00503250Y00484956D01*
Y00487044D01*
X00502451Y00488974D01*
X00500974Y00490451D01*
X00499044Y00491250D01*
X00496956D01*
X00495026Y00490451D01*
X00493549Y00488974D01*
X00492887Y00487376D01*
X00466100Y00460588D01*
X00395900D01*
X00389588Y00466900D01*
Y00590600D01*
X00398952Y00599964D01*
X00400684Y00599500D01*
X00403316D01*
X00405860Y00600182D01*
X00408140Y00601498D01*
X00410002Y00603360D01*
X00411319Y00605640D01*
X00412000Y00608183D01*
Y00610816D01*
X00411319Y00613360D01*
X00410002Y00615640D01*
X00408140Y00617502D01*
X00405860Y00618819D01*
X00403316Y00619500D01*
D02*
G37*
G36*
X00858217Y00605100D02*
X00855583D01*
X00853040Y00604419D01*
X00850760Y00603102D01*
X00848898Y00601240D01*
X00847581Y00598960D01*
X00846900Y00596417D01*
Y00593783D01*
X00847581Y00591240D01*
X00848898Y00588960D01*
X00850760Y00587098D01*
X00853040Y00585782D01*
X00855583Y00585100D01*
X00858217D01*
X00860760Y00585782D01*
X00863040Y00587098D01*
X00864902Y00588960D01*
X00866218Y00591240D01*
X00866900Y00593783D01*
Y00596417D01*
X00866218Y00598960D01*
X00864902Y00601240D01*
X00863040Y00603102D01*
X00860760Y00604419D01*
X00858217Y00605100D01*
D02*
G37*
G36*
X00680416Y00605100D02*
X00677784D01*
X00675240Y00604418D01*
X00672960Y00603102D01*
X00671098Y00601240D01*
X00669781Y00598960D01*
X00669100Y00596417D01*
Y00593783D01*
X00669781Y00591240D01*
X00671098Y00588960D01*
X00672960Y00587098D01*
X00675240Y00585782D01*
X00677784Y00585100D01*
X00680416D01*
X00682960Y00585782D01*
X00685240Y00587098D01*
X00687102Y00588960D01*
X00688419Y00591240D01*
X00689100Y00593783D01*
Y00596417D01*
X00688419Y00598960D01*
X00687102Y00601240D01*
X00685240Y00603102D01*
X00682960Y00604418D01*
X00680416Y00605100D01*
D02*
G37*
G36*
X00539316Y00594100D02*
X00536684D01*
X00534140Y00593419D01*
X00531860Y00592102D01*
X00529998Y00590240D01*
X00528681Y00587960D01*
X00528000Y00585416D01*
Y00582784D01*
X00528681Y00580240D01*
X00529998Y00577960D01*
X00531860Y00576098D01*
X00534140Y00574781D01*
X00536684Y00574100D01*
X00539316D01*
X00541860Y00574781D01*
X00544140Y00576098D01*
X00546002Y00577960D01*
X00547318Y00580240D01*
X00548000Y00582784D01*
Y00585416D01*
X00547318Y00587960D01*
X00546002Y00590240D01*
X00544140Y00592102D01*
X00541860Y00593419D01*
X00539316Y00594100D01*
D02*
G37*
G36*
X00403316D02*
X00400684D01*
X00398140Y00593419D01*
X00395860Y00592102D01*
X00393998Y00590240D01*
X00392682Y00587960D01*
X00392000Y00585416D01*
Y00582784D01*
X00392682Y00580240D01*
X00393998Y00577960D01*
X00395860Y00576098D01*
X00398140Y00574781D01*
X00400684Y00574100D01*
X00403316D01*
X00405860Y00574781D01*
X00408140Y00576098D01*
X00410002Y00577960D01*
X00411319Y00580240D01*
X00412000Y00582784D01*
Y00585416D01*
X00411319Y00587960D01*
X00410002Y00590240D01*
X00408140Y00592102D01*
X00405860Y00593419D01*
X00403316Y00594100D01*
D02*
G37*
G36*
X00897500Y00586118D02*
X00896909Y00586000D01*
X00891500D01*
Y00580591D01*
X00891382Y00580000D01*
Y00571401D01*
X00881000D01*
Y00573882D01*
X00881591Y00574000D01*
X00887000D01*
Y00579409D01*
X00887117Y00580000D01*
X00887000Y00580591D01*
Y00586000D01*
X00881591D01*
X00881000Y00586118D01*
X00867200D01*
X00864859Y00585652D01*
X00862874Y00584326D01*
X00858242Y00579693D01*
X00858216Y00579700D01*
X00855583D01*
X00853040Y00579019D01*
X00850760Y00577702D01*
X00848898Y00575840D01*
X00847581Y00573560D01*
X00846900Y00571017D01*
Y00568383D01*
X00847581Y00565840D01*
X00848898Y00563560D01*
X00850760Y00561698D01*
X00853040Y00560382D01*
X00854000Y00560124D01*
Y00553876D01*
X00853040Y00553619D01*
X00850760Y00552302D01*
X00848898Y00550440D01*
X00847581Y00548160D01*
X00846900Y00545617D01*
Y00542984D01*
X00847581Y00540440D01*
X00848898Y00538160D01*
X00850760Y00536298D01*
X00853040Y00534981D01*
X00855583Y00534300D01*
X00858216D01*
X00860760Y00534981D01*
X00863040Y00536298D01*
X00864902Y00538160D01*
X00866218Y00540440D01*
X00866900Y00542984D01*
Y00545617D01*
X00866893Y00545642D01*
X00880418Y00559166D01*
X00898784D01*
X00900462Y00559500D01*
X00905750D01*
Y00571500D01*
X00903617D01*
Y00580000D01*
X00903500Y00580591D01*
Y00586000D01*
X00898091D01*
X00897500Y00586118D01*
D02*
G37*
G36*
X00680417Y00579700D02*
X00677784D01*
X00675240Y00579019D01*
X00672960Y00577702D01*
X00671098Y00575840D01*
X00669781Y00573560D01*
X00669100Y00571017D01*
Y00568383D01*
X00669781Y00565840D01*
X00671098Y00563560D01*
X00672960Y00561698D01*
X00675240Y00560382D01*
X00677784Y00559700D01*
X00680417D01*
X00682960Y00560382D01*
X00685240Y00561698D01*
X00687102Y00563560D01*
X00688419Y00565840D01*
X00689100Y00568383D01*
Y00571017D01*
X00688419Y00573560D01*
X00687102Y00575840D01*
X00685240Y00577702D01*
X00682960Y00579019D01*
X00680417Y00579700D01*
D02*
G37*
G36*
X00925750Y00562000D02*
X00912250D01*
Y00550000D01*
X00925750D01*
Y00562000D01*
D02*
G37*
G36*
X00539316Y00568700D02*
X00536684D01*
X00534140Y00568018D01*
X00531860Y00566702D01*
X00529998Y00564840D01*
X00528681Y00562560D01*
X00528000Y00560017D01*
Y00557383D01*
X00528681Y00554840D01*
X00529998Y00552560D01*
X00531860Y00550698D01*
X00534140Y00549381D01*
X00536684Y00548700D01*
X00539316D01*
X00541860Y00549381D01*
X00544140Y00550698D01*
X00546002Y00552560D01*
X00547318Y00554840D01*
X00548000Y00557383D01*
Y00560017D01*
X00547318Y00562560D01*
X00546002Y00564840D01*
X00544140Y00566702D01*
X00541860Y00568018D01*
X00539316Y00568700D01*
D02*
G37*
G36*
X00403316D02*
X00400684D01*
X00398140Y00568018D01*
X00395860Y00566702D01*
X00393998Y00564840D01*
X00392682Y00562560D01*
X00392000Y00560017D01*
Y00557383D01*
X00392682Y00554840D01*
X00393998Y00552560D01*
X00395860Y00550698D01*
X00398140Y00549381D01*
X00400684Y00548700D01*
X00403316D01*
X00405860Y00549381D01*
X00408140Y00550698D01*
X00410002Y00552560D01*
X00411319Y00554840D01*
X00412000Y00557383D01*
Y00560017D01*
X00411319Y00562560D01*
X00410002Y00564840D01*
X00408140Y00566702D01*
X00405860Y00568018D01*
X00403316Y00568700D01*
D02*
G37*
G36*
X00680416Y00554300D02*
X00677784D01*
X00675240Y00553619D01*
X00672960Y00552302D01*
X00671098Y00550440D01*
X00669781Y00548160D01*
X00669100Y00545617D01*
Y00542984D01*
X00669781Y00540440D01*
X00671098Y00538160D01*
X00672960Y00536298D01*
X00675240Y00534981D01*
X00677784Y00534300D01*
X00680416D01*
X00682960Y00534981D01*
X00685240Y00536298D01*
X00687102Y00538160D01*
X00688419Y00540440D01*
X00689100Y00542984D01*
Y00545617D01*
X00688419Y00548160D01*
X00687102Y00550440D01*
X00685240Y00552302D01*
X00682960Y00553619D01*
X00680416Y00554300D01*
D02*
G37*
G36*
X00538500Y00542882D02*
X00537500D01*
X00535020Y00542556D01*
X00532709Y00541598D01*
X00530724Y00540075D01*
X00529202Y00538091D01*
X00528245Y00535780D01*
X00527918Y00533300D01*
X00528245Y00530820D01*
X00529202Y00528509D01*
X00530724Y00526525D01*
X00532709Y00525002D01*
X00535020Y00524044D01*
X00537500Y00523718D01*
X00538500D01*
X00540980Y00524044D01*
X00543291Y00525002D01*
X00545275Y00526525D01*
X00546798Y00528509D01*
X00547755Y00530820D01*
X00548082Y00533300D01*
X00547755Y00535780D01*
X00546798Y00538091D01*
X00545275Y00540075D01*
X00543291Y00541598D01*
X00540980Y00542556D01*
X00538500Y00542882D01*
D02*
G37*
G36*
X00403316Y00543300D02*
X00400684D01*
X00398140Y00542618D01*
X00395860Y00541302D01*
X00393998Y00539440D01*
X00392682Y00537160D01*
X00392000Y00534617D01*
Y00531983D01*
X00392682Y00529440D01*
X00393998Y00527160D01*
X00395860Y00525298D01*
X00398140Y00523982D01*
X00400684Y00523300D01*
X00403316D01*
X00405860Y00523982D01*
X00408140Y00525298D01*
X00410002Y00527160D01*
X00411319Y00529440D01*
X00412000Y00531983D01*
Y00534617D01*
X00411319Y00537160D01*
X00410002Y00539440D01*
X00408140Y00541302D01*
X00405860Y00542618D01*
X00403316Y00543300D01*
D02*
G37*
G36*
X00904000Y00534250D02*
X00892000D01*
Y00522250D01*
X00904000D01*
Y00522779D01*
X00904413Y00523089D01*
X00905270Y00523448D01*
X00906956Y00522750D01*
X00909044D01*
X00910974Y00523549D01*
X00912451Y00525026D01*
X00913250Y00526956D01*
Y00529044D01*
X00912451Y00530974D01*
X00910974Y00532451D01*
X00909044Y00533250D01*
X00906956D01*
X00905270Y00532552D01*
X00904413Y00532911D01*
X00904000Y00533221D01*
Y00534250D01*
D02*
G37*
G36*
X00680417Y00528900D02*
X00677784D01*
X00675240Y00528218D01*
X00672960Y00526902D01*
X00671098Y00525040D01*
X00669781Y00522760D01*
X00669100Y00520216D01*
Y00517584D01*
X00669781Y00515040D01*
X00671098Y00512760D01*
X00672960Y00510898D01*
X00675240Y00509581D01*
X00677784Y00508900D01*
X00680417D01*
X00682960Y00509581D01*
X00685240Y00510898D01*
X00687102Y00512760D01*
X00688419Y00515040D01*
X00689100Y00517584D01*
Y00520216D01*
X00688419Y00522760D01*
X00687102Y00525040D01*
X00685240Y00526902D01*
X00682960Y00528218D01*
X00680417Y00528900D01*
D02*
G37*
G36*
X00858216D02*
X00855583D01*
X00853040Y00528218D01*
X00850760Y00526902D01*
X00848898Y00525040D01*
X00847581Y00522760D01*
X00846900Y00520216D01*
Y00517584D01*
X00847581Y00515040D01*
X00848898Y00512760D01*
X00850760Y00510898D01*
X00853040Y00509581D01*
X00855583Y00508900D01*
X00858216D01*
X00860760Y00509581D01*
X00861021Y00509732D01*
X00861527Y00509227D01*
X00862684Y00508453D01*
X00864050Y00508181D01*
X00874000D01*
Y00505750D01*
X00886000D01*
Y00508181D01*
X00892000D01*
Y00505750D01*
X00904000D01*
Y00517750D01*
X00892000D01*
Y00515319D01*
X00886000D01*
Y00517750D01*
X00874000D01*
Y00515319D01*
X00867336D01*
X00866563Y00516326D01*
X00866900Y00517584D01*
Y00520216D01*
X00866218Y00522760D01*
X00864902Y00525040D01*
X00863040Y00526902D01*
X00860760Y00528218D01*
X00858216Y00528900D01*
D02*
G37*
G36*
X00538500Y00517482D02*
X00537500D01*
X00535020Y00517155D01*
X00532709Y00516198D01*
X00530724Y00514675D01*
X00529202Y00512691D01*
X00528245Y00510380D01*
X00527918Y00507900D01*
X00528245Y00505420D01*
X00529202Y00503109D01*
X00530724Y00501125D01*
X00532709Y00499602D01*
X00535020Y00498644D01*
X00537500Y00498318D01*
X00538500D01*
X00540980Y00498644D01*
X00543291Y00499602D01*
X00545275Y00501125D01*
X00546798Y00503109D01*
X00547755Y00505420D01*
X00548082Y00507900D01*
X00547755Y00510380D01*
X00546798Y00512691D01*
X00545275Y00514675D01*
X00543291Y00516198D01*
X00540980Y00517155D01*
X00538500Y00517482D01*
D02*
G37*
G36*
X00403316Y00517900D02*
X00400684D01*
X00398140Y00517219D01*
X00395860Y00515902D01*
X00393998Y00514040D01*
X00392682Y00511760D01*
X00392000Y00509216D01*
Y00506584D01*
X00392682Y00504040D01*
X00393998Y00501760D01*
X00395860Y00499898D01*
X00398140Y00498582D01*
X00400684Y00497900D01*
X00403316D01*
X00405860Y00498582D01*
X00408140Y00499898D01*
X00410002Y00501760D01*
X00411319Y00504040D01*
X00412000Y00506584D01*
Y00509216D01*
X00411319Y00511760D01*
X00410002Y00514040D01*
X00408140Y00515902D01*
X00405860Y00517219D01*
X00403316Y00517900D01*
D02*
G37*
G36*
X00904000Y00487250D02*
X00892000D01*
Y00475250D01*
X00904000D01*
Y00475779D01*
X00904413Y00476089D01*
X00905270Y00476448D01*
X00906956Y00475750D01*
X00909044D01*
X00910974Y00476549D01*
X00912451Y00478026D01*
X00913250Y00479956D01*
Y00482044D01*
X00912451Y00483974D01*
X00910974Y00485451D01*
X00909044Y00486250D01*
X00906956D01*
X00905270Y00485552D01*
X00904413Y00485911D01*
X00904000Y00486221D01*
Y00487250D01*
D02*
G37*
G36*
X00403316Y00492500D02*
X00400684D01*
X00398140Y00491819D01*
X00395860Y00490502D01*
X00393998Y00488640D01*
X00392682Y00486360D01*
X00392000Y00483817D01*
Y00481184D01*
X00392682Y00478640D01*
X00393998Y00476360D01*
X00395860Y00474498D01*
X00398140Y00473181D01*
X00400684Y00472500D01*
X00403316D01*
X00405860Y00473181D01*
X00408140Y00474498D01*
X00410002Y00476360D01*
X00411319Y00478640D01*
X00412000Y00481184D01*
Y00483817D01*
X00411319Y00486360D01*
X00410002Y00488640D01*
X00408140Y00490502D01*
X00405860Y00491819D01*
X00403316Y00492500D01*
D02*
G37*
G36*
X00858217Y00478100D02*
X00855583D01*
X00853040Y00477419D01*
X00850760Y00476102D01*
X00848898Y00474240D01*
X00847581Y00471960D01*
X00846900Y00469417D01*
Y00466783D01*
X00847581Y00464240D01*
X00848898Y00461960D01*
X00850760Y00460098D01*
X00853040Y00458782D01*
X00855583Y00458100D01*
X00858217D01*
X00860760Y00458782D01*
X00863040Y00460098D01*
X00863324Y00460382D01*
X00874000D01*
Y00458750D01*
X00886000D01*
Y00461181D01*
X00892000D01*
Y00458750D01*
X00904000D01*
Y00470750D01*
X00892000D01*
Y00468319D01*
X00886000D01*
Y00470750D01*
X00874000D01*
Y00467519D01*
X00866900D01*
Y00469417D01*
X00866218Y00471960D01*
X00864902Y00474240D01*
X00863040Y00476102D01*
X00860760Y00477419D01*
X00858217Y00478100D01*
D02*
G37*
G36*
X00679600Y00477682D02*
X00678600D01*
X00676120Y00477355D01*
X00673809Y00476398D01*
X00671825Y00474875D01*
X00670302Y00472891D01*
X00669345Y00470580D01*
X00669018Y00468100D01*
X00669345Y00465620D01*
X00670302Y00463309D01*
X00671825Y00461325D01*
X00673809Y00459802D01*
X00676120Y00458845D01*
X00678600Y00458518D01*
X00679600D01*
X00682080Y00458845D01*
X00684391Y00459802D01*
X00686376Y00461325D01*
X00687898Y00463309D01*
X00688856Y00465620D01*
X00689182Y00468100D01*
X00688856Y00470580D01*
X00687898Y00472891D01*
X00686376Y00474875D01*
X00684391Y00476398D01*
X00682080Y00477355D01*
X00679600Y00477682D01*
D02*
G37*
G36*
X00904000Y00455250D02*
X00892000D01*
Y00452819D01*
X00886000D01*
Y00455250D01*
X00874000D01*
Y00452819D01*
X00863450D01*
X00862084Y00452547D01*
X00861046Y00451853D01*
X00860760Y00452019D01*
X00858216Y00452700D01*
X00855583D01*
X00853040Y00452019D01*
X00850760Y00450702D01*
X00848898Y00448840D01*
X00847581Y00446560D01*
X00846900Y00444017D01*
Y00441384D01*
X00847581Y00438840D01*
X00848898Y00436560D01*
X00850760Y00434698D01*
X00853040Y00433382D01*
X00855583Y00432700D01*
X00858216D01*
X00860760Y00433382D01*
X00863040Y00434698D01*
X00864902Y00436560D01*
X00866218Y00438840D01*
X00866900Y00441384D01*
Y00444017D01*
X00866724Y00444674D01*
X00867497Y00445681D01*
X00874000D01*
Y00443250D01*
X00886000D01*
Y00445681D01*
X00892000D01*
Y00443250D01*
X00904000D01*
Y00455250D01*
D02*
G37*
G36*
X00539316Y00492500D02*
X00536684D01*
X00534140Y00491819D01*
X00531860Y00490502D01*
X00529998Y00488640D01*
X00528681Y00486360D01*
X00528000Y00483817D01*
Y00481184D01*
X00528681Y00478640D01*
X00529998Y00476360D01*
X00531860Y00474498D01*
X00534140Y00473181D01*
X00534431Y00473103D01*
Y00453856D01*
X00533549Y00452974D01*
X00532750Y00451044D01*
Y00448956D01*
X00533549Y00447026D01*
X00535026Y00445549D01*
X00536956Y00444750D01*
X00539044D01*
X00540974Y00445549D01*
X00542451Y00447026D01*
X00543250Y00448956D01*
Y00451044D01*
X00542451Y00452974D01*
X00541569Y00453856D01*
Y00473103D01*
X00541860Y00473181D01*
X00544140Y00474498D01*
X00546002Y00476360D01*
X00547318Y00478640D01*
X00548000Y00481184D01*
Y00483817D01*
X00547318Y00486360D01*
X00546002Y00488640D01*
X00544140Y00490502D01*
X00541860Y00491819D01*
X00539316Y00492500D01*
D02*
G37*
G36*
X00679600Y00452282D02*
X00678600D01*
X00676120Y00451955D01*
X00673809Y00450998D01*
X00671825Y00449476D01*
X00670302Y00447491D01*
X00669345Y00445180D01*
X00669018Y00442700D01*
X00669345Y00440220D01*
X00670302Y00437909D01*
X00671825Y00435925D01*
X00673809Y00434402D01*
X00676120Y00433445D01*
X00678600Y00433118D01*
X00679600D01*
X00682080Y00433445D01*
X00684391Y00434402D01*
X00686376Y00435925D01*
X00687898Y00437909D01*
X00688856Y00440220D01*
X00689182Y00442700D01*
X00688856Y00445180D01*
X00687898Y00447491D01*
X00686376Y00449476D01*
X00684391Y00450998D01*
X00682080Y00451955D01*
X00679600Y00452282D01*
D02*
G37*
G36*
X00904000Y00438750D02*
X00892000D01*
Y00426750D01*
X00904000D01*
Y00427779D01*
X00904413Y00428089D01*
X00905270Y00428448D01*
X00906956Y00427750D01*
X00909044D01*
X00910974Y00428549D01*
X00912451Y00430026D01*
X00913250Y00431956D01*
Y00434044D01*
X00912451Y00435974D01*
X00910974Y00437451D01*
X00909044Y00438250D01*
X00906956D01*
X00905270Y00437552D01*
X00904413Y00437911D01*
X00904000Y00438221D01*
Y00438750D01*
D02*
G37*
G36*
X00858216Y00427300D02*
X00855583D01*
X00853040Y00426618D01*
X00850760Y00425302D01*
X00848898Y00423440D01*
X00847581Y00421160D01*
X00846900Y00418617D01*
Y00415984D01*
X00847581Y00413440D01*
X00848898Y00411160D01*
X00850760Y00409298D01*
X00853040Y00407981D01*
X00855583Y00407300D01*
X00858216D01*
X00860760Y00407981D01*
X00863040Y00409298D01*
X00864902Y00411160D01*
X00865798Y00412712D01*
X00874750D01*
Y00412000D01*
X00886750D01*
Y00424000D01*
X00874750D01*
Y00421888D01*
X00865798D01*
X00864902Y00423440D01*
X00863040Y00425302D01*
X00860760Y00426618D01*
X00858216Y00427300D01*
D02*
G37*
G36*
X00679600Y00426882D02*
X00678600D01*
X00676120Y00426555D01*
X00673809Y00425598D01*
X00671825Y00424076D01*
X00670302Y00422091D01*
X00669345Y00419780D01*
X00669018Y00417300D01*
X00669345Y00414820D01*
X00670302Y00412509D01*
X00671825Y00410525D01*
X00673809Y00409002D01*
X00676120Y00408045D01*
X00678600Y00407718D01*
X00679600D01*
X00682080Y00408045D01*
X00684391Y00409002D01*
X00686376Y00410525D01*
X00687898Y00412509D01*
X00688856Y00414820D01*
X00689182Y00417300D01*
X00688856Y00419780D01*
X00687898Y00422091D01*
X00686376Y00424076D01*
X00684391Y00425598D01*
X00682080Y00426555D01*
X00679600Y00426882D01*
D02*
G37*
G36*
X00897250Y00424118D02*
X00896659Y00424000D01*
X00891250D01*
Y00418591D01*
X00891132Y00418000D01*
Y00408250D01*
X00891598Y00405909D01*
X00892924Y00403924D01*
X00894909Y00402598D01*
X00897250Y00402132D01*
X00899591Y00402598D01*
X00901576Y00403924D01*
X00902902Y00405909D01*
X00903367Y00408250D01*
Y00418000D01*
X00903250Y00418591D01*
Y00424000D01*
X00897841D01*
X00897250Y00424118D01*
D02*
G37*
G36*
X00858216Y00401900D02*
X00855583D01*
X00853040Y00401218D01*
X00850760Y00399902D01*
X00848898Y00398040D01*
X00847581Y00395760D01*
X00846900Y00393217D01*
Y00390583D01*
X00847581Y00388040D01*
X00848898Y00385760D01*
X00850760Y00383898D01*
X00853040Y00382581D01*
X00855583Y00381900D01*
X00858216D01*
X00860760Y00382581D01*
X00863040Y00383898D01*
X00864902Y00385760D01*
X00866218Y00388040D01*
X00866900Y00390583D01*
Y00393217D01*
X00866218Y00395760D01*
X00864902Y00398040D01*
X00863040Y00399902D01*
X00860760Y00401218D01*
X00858216Y00401900D01*
D02*
G37*
G36*
X00680416D02*
X00677784D01*
X00675240Y00401218D01*
X00672960Y00399902D01*
X00671098Y00398040D01*
X00669781Y00395760D01*
X00669100Y00393217D01*
Y00390583D01*
X00669781Y00388040D01*
X00669932Y00387779D01*
X00660477Y00378323D01*
X00659703Y00377166D01*
X00659431Y00375800D01*
Y00220478D01*
X00647522Y00208569D01*
X00572856D01*
X00571974Y00209451D01*
X00570044Y00210250D01*
X00567956D01*
X00566026Y00209451D01*
X00564549Y00207974D01*
X00563750Y00206044D01*
Y00203956D01*
X00564549Y00202026D01*
X00566026Y00200549D01*
X00567956Y00199750D01*
X00570044D01*
X00571974Y00200549D01*
X00572856Y00201431D01*
X00649000D01*
X00650366Y00201703D01*
X00651523Y00202477D01*
X00665523Y00216477D01*
X00666297Y00217634D01*
X00666569Y00219000D01*
Y00374322D01*
X00674979Y00382732D01*
X00675240Y00382581D01*
X00677784Y00381900D01*
X00680416D01*
X00682960Y00382581D01*
X00685240Y00383898D01*
X00687102Y00385760D01*
X00688419Y00388040D01*
X00689100Y00390583D01*
Y00393217D01*
X00688419Y00395760D01*
X00687102Y00398040D01*
X00685240Y00399902D01*
X00682960Y00401218D01*
X00680416Y00401900D01*
D02*
G37*
G36*
X00702044Y00367250D02*
X00699956D01*
X00698026Y00366451D01*
X00696549Y00364974D01*
X00695750Y00363044D01*
Y00360956D01*
X00696412Y00359358D01*
Y00352000D01*
Y00296642D01*
X00695750Y00295044D01*
Y00292956D01*
X00696549Y00291026D01*
X00698026Y00289549D01*
X00699956Y00288750D01*
X00702044D01*
X00703974Y00289549D01*
X00705451Y00291026D01*
X00706250Y00292956D01*
Y00295044D01*
X00705588Y00296642D01*
Y00347412D01*
X00786358D01*
X00787956Y00346750D01*
X00790044D01*
X00791974Y00347549D01*
X00793451Y00349026D01*
X00794250Y00350956D01*
Y00353044D01*
X00793451Y00354974D01*
X00791974Y00356451D01*
X00790044Y00357250D01*
X00787956D01*
X00786358Y00356588D01*
X00705588D01*
Y00359358D01*
X00706250Y00360956D01*
Y00363044D01*
X00705451Y00364974D01*
X00703974Y00366451D01*
X00702044Y00367250D01*
D02*
G37*
G36*
X00858216Y00351100D02*
X00855583D01*
X00853040Y00350419D01*
X00850760Y00349102D01*
X00848898Y00347240D01*
X00847581Y00344960D01*
X00846900Y00342417D01*
Y00339784D01*
X00847581Y00337240D01*
X00848898Y00334960D01*
X00850760Y00333098D01*
X00853040Y00331782D01*
X00855583Y00331100D01*
X00858216D01*
X00860760Y00331782D01*
X00863040Y00333098D01*
X00864902Y00334960D01*
X00866218Y00337240D01*
X00866900Y00339784D01*
Y00342417D01*
X00866218Y00344960D01*
X00864902Y00347240D01*
X00863040Y00349102D01*
X00860760Y00350419D01*
X00858216Y00351100D01*
D02*
G37*
G36*
X00680417D02*
X00677784D01*
X00675240Y00350419D01*
X00672960Y00349102D01*
X00671098Y00347240D01*
X00669781Y00344960D01*
X00669100Y00342417D01*
Y00339784D01*
X00669781Y00337240D01*
X00671098Y00334960D01*
X00672960Y00333098D01*
X00675240Y00331782D01*
X00677784Y00331100D01*
X00680417D01*
X00682960Y00331782D01*
X00685240Y00333098D01*
X00687102Y00334960D01*
X00688419Y00337240D01*
X00689100Y00339784D01*
Y00342417D01*
X00688419Y00344960D01*
X00687102Y00347240D01*
X00685240Y00349102D01*
X00682960Y00350419D01*
X00680417Y00351100D01*
D02*
G37*
G36*
X00679600Y00325282D02*
X00678600D01*
X00676120Y00324955D01*
X00673809Y00323998D01*
X00671825Y00322476D01*
X00670302Y00320491D01*
X00669345Y00318180D01*
X00669018Y00315700D01*
X00669345Y00313220D01*
X00670302Y00310909D01*
X00671825Y00308925D01*
X00673809Y00307402D01*
X00676120Y00306445D01*
X00678600Y00306118D01*
X00679600D01*
X00682080Y00306445D01*
X00684391Y00307402D01*
X00686376Y00308925D01*
X00687898Y00310909D01*
X00688856Y00313220D01*
X00689182Y00315700D01*
X00688856Y00318180D01*
X00687898Y00320491D01*
X00686376Y00322476D01*
X00684391Y00323998D01*
X00682080Y00324955D01*
X00679600Y00325282D01*
D02*
G37*
G36*
X00857400Y00325282D02*
X00856400D01*
X00853920Y00324955D01*
X00851609Y00323998D01*
X00849625Y00322476D01*
X00848102Y00320491D01*
X00847145Y00318180D01*
X00846818Y00315700D01*
X00847145Y00313220D01*
X00848102Y00310909D01*
X00849625Y00308925D01*
X00851609Y00307402D01*
X00853920Y00306445D01*
X00856400Y00306118D01*
X00857400D01*
X00859880Y00306445D01*
X00862191Y00307402D01*
X00864175Y00308925D01*
X00865698Y00310909D01*
X00866656Y00313220D01*
X00866982Y00315700D01*
X00866656Y00318180D01*
X00865698Y00320491D01*
X00864175Y00322476D01*
X00862191Y00323998D01*
X00859880Y00324955D01*
X00857400Y00325282D01*
D02*
G37*
G36*
Y00299882D02*
X00856400D01*
X00853920Y00299555D01*
X00851609Y00298598D01*
X00849625Y00297076D01*
X00848102Y00295091D01*
X00847145Y00292780D01*
X00846818Y00290300D01*
X00847145Y00287820D01*
X00848102Y00285509D01*
X00849625Y00283525D01*
X00851609Y00282002D01*
X00853920Y00281045D01*
X00856400Y00280718D01*
X00857400D01*
X00859880Y00281045D01*
X00862191Y00282002D01*
X00864175Y00283525D01*
X00865698Y00285509D01*
X00866656Y00287820D01*
X00866982Y00290300D01*
X00866656Y00292780D01*
X00865698Y00295091D01*
X00864175Y00297076D01*
X00862191Y00298598D01*
X00859880Y00299555D01*
X00857400Y00299882D01*
D02*
G37*
G36*
X00679600D02*
X00678600D01*
X00676120Y00299555D01*
X00673809Y00298598D01*
X00671825Y00297076D01*
X00670302Y00295091D01*
X00669345Y00292780D01*
X00669018Y00290300D01*
X00669345Y00287820D01*
X00670302Y00285509D01*
X00671825Y00283525D01*
X00673809Y00282002D01*
X00676120Y00281045D01*
X00678600Y00280718D01*
X00679600D01*
X00682080Y00281045D01*
X00684391Y00282002D01*
X00686376Y00283525D01*
X00687898Y00285509D01*
X00688856Y00287820D01*
X00689182Y00290300D01*
X00688856Y00292780D01*
X00687898Y00295091D01*
X00686376Y00297076D01*
X00684391Y00298598D01*
X00682080Y00299555D01*
X00679600Y00299882D01*
D02*
G37*
G36*
X00857400Y00274482D02*
X00856400D01*
X00853920Y00274156D01*
X00851609Y00273198D01*
X00849625Y00271675D01*
X00848102Y00269691D01*
X00847145Y00267380D01*
X00846818Y00264900D01*
X00847145Y00262420D01*
X00848102Y00260109D01*
X00849625Y00258125D01*
X00851609Y00256602D01*
X00853920Y00255645D01*
X00856400Y00255318D01*
X00857400D01*
X00859880Y00255645D01*
X00862191Y00256602D01*
X00864175Y00258125D01*
X00865698Y00260109D01*
X00866656Y00262420D01*
X00866982Y00264900D01*
X00866656Y00267380D01*
X00865698Y00269691D01*
X00864175Y00271675D01*
X00862191Y00273198D01*
X00859880Y00274156D01*
X00857400Y00274482D01*
D02*
G37*
G36*
X00680416Y00274900D02*
X00677784D01*
X00675240Y00274219D01*
X00672960Y00272902D01*
X00671098Y00271040D01*
X00669781Y00268760D01*
X00669100Y00266217D01*
Y00263584D01*
X00669781Y00261040D01*
X00671098Y00258760D01*
X00672960Y00256898D01*
X00675240Y00255581D01*
X00677784Y00254900D01*
X00680416D01*
X00682960Y00255581D01*
X00685240Y00256898D01*
X00687102Y00258760D01*
X00688419Y00261040D01*
X00689100Y00263584D01*
Y00266217D01*
X00688419Y00268760D01*
X00687102Y00271040D01*
X00685240Y00272902D01*
X00682960Y00274219D01*
X00680416Y00274900D01*
D02*
G37*
G36*
X00564044Y00303250D02*
X00561956D01*
X00560026Y00302451D01*
X00558549Y00300974D01*
X00557750Y00299044D01*
Y00296956D01*
X00558412Y00295358D01*
Y00251588D01*
X00550000D01*
X00548244Y00251239D01*
X00546756Y00250244D01*
X00534756Y00238244D01*
X00533761Y00236756D01*
X00533412Y00235000D01*
Y00207642D01*
X00532750Y00206044D01*
Y00203956D01*
X00533549Y00202026D01*
X00535026Y00200549D01*
X00536956Y00199750D01*
X00539044D01*
X00540974Y00200549D01*
X00542451Y00202026D01*
X00543250Y00203956D01*
Y00206044D01*
X00542588Y00207642D01*
Y00233099D01*
X00551900Y00242412D01*
X00560358D01*
X00561956Y00241750D01*
X00564044D01*
X00565974Y00242549D01*
X00567451Y00244026D01*
X00568250Y00245956D01*
Y00248044D01*
X00567588Y00249642D01*
Y00295358D01*
X00568250Y00296956D01*
Y00299044D01*
X00567451Y00300974D01*
X00565974Y00302451D01*
X00564044Y00303250D01*
D02*
G37*
G36*
X00680416Y00224100D02*
X00677784D01*
X00675240Y00223419D01*
X00672960Y00222102D01*
X00671098Y00220240D01*
X00669781Y00217960D01*
X00669100Y00215417D01*
Y00212784D01*
X00669781Y00210240D01*
X00671098Y00207960D01*
X00672960Y00206098D01*
X00675240Y00204782D01*
X00677784Y00204100D01*
X00680416D01*
X00682960Y00204782D01*
X00685240Y00206098D01*
X00687102Y00207960D01*
X00688419Y00210240D01*
X00689100Y00212784D01*
Y00215417D01*
X00688419Y00217960D01*
X00687102Y00220240D01*
X00685240Y00222102D01*
X00682960Y00223419D01*
X00680416Y00224100D01*
D02*
G37*
G36*
X00858216Y00224100D02*
X00855583D01*
X00853040Y00223419D01*
X00850760Y00222102D01*
X00848898Y00220240D01*
X00847581Y00217960D01*
X00846900Y00215417D01*
Y00212784D01*
X00847581Y00210240D01*
X00848898Y00207960D01*
X00850760Y00206098D01*
X00853040Y00204781D01*
X00855583Y00204100D01*
X00858216D01*
X00860760Y00204781D01*
X00863040Y00206098D01*
X00864902Y00207960D01*
X00866218Y00210240D01*
X00866900Y00212784D01*
Y00215417D01*
X00866218Y00217960D01*
X00864902Y00220240D01*
X00863040Y00222102D01*
X00860760Y00223419D01*
X00858216Y00224100D01*
D02*
G37*
G36*
X00680417Y00198700D02*
X00677784D01*
X00675240Y00198019D01*
X00672960Y00196702D01*
X00671098Y00194840D01*
X00669781Y00192560D01*
X00669100Y00190017D01*
Y00187383D01*
X00669781Y00184840D01*
X00671098Y00182560D01*
X00672960Y00180698D01*
X00675240Y00179382D01*
X00677784Y00178700D01*
X00680417D01*
X00682960Y00179382D01*
X00685240Y00180698D01*
X00687102Y00182560D01*
X00688419Y00184840D01*
X00689100Y00187383D01*
Y00190017D01*
X00688419Y00192560D01*
X00687102Y00194840D01*
X00685240Y00196702D01*
X00682960Y00198019D01*
X00680417Y00198700D01*
D02*
G37*
G36*
X00858216Y00198700D02*
X00855583D01*
X00853040Y00198018D01*
X00850760Y00196702D01*
X00848898Y00194840D01*
X00847581Y00192560D01*
X00846900Y00190017D01*
Y00187383D01*
X00847581Y00184840D01*
X00848898Y00182560D01*
X00850760Y00180698D01*
X00853040Y00179382D01*
X00855583Y00178700D01*
X00858216D01*
X00860760Y00179382D01*
X00863040Y00180698D01*
X00864902Y00182560D01*
X00866218Y00184840D01*
X00866900Y00187383D01*
Y00190017D01*
X00866218Y00192560D01*
X00864902Y00194840D01*
X00863040Y00196702D01*
X00860760Y00198018D01*
X00858216Y00198700D01*
D02*
G37*
G36*
X00219000Y00290582D02*
X00216520Y00290256D01*
X00214209Y00289298D01*
X00212225Y00287775D01*
X00210702Y00285791D01*
X00209744Y00283480D01*
X00209418Y00281000D01*
Y00269000D01*
Y00257000D01*
Y00249000D01*
X00209744Y00246520D01*
X00210702Y00244209D01*
X00212225Y00242225D01*
X00233225Y00221225D01*
X00235209Y00219702D01*
X00237520Y00218745D01*
X00240000Y00218418D01*
X00311031D01*
X00324418Y00205031D01*
Y00180000D01*
X00324744Y00177520D01*
X00325702Y00175209D01*
X00327225Y00173225D01*
X00329209Y00171702D01*
X00331520Y00170744D01*
X00334000Y00170418D01*
X00336480Y00170744D01*
X00338791Y00171702D01*
X00340775Y00173225D01*
X00342298Y00175209D01*
X00343255Y00177520D01*
X00343582Y00180000D01*
Y00209000D01*
X00343255Y00211480D01*
X00342298Y00213791D01*
X00340775Y00215776D01*
X00321776Y00234776D01*
X00319791Y00236298D01*
X00317480Y00237255D01*
X00315000Y00237582D01*
X00243969D01*
X00228582Y00252969D01*
Y00257000D01*
Y00269000D01*
Y00281000D01*
X00228255Y00283480D01*
X00227298Y00285791D01*
X00225775Y00287775D01*
X00223791Y00289298D01*
X00221480Y00290256D01*
X00219000Y00290582D01*
D02*
G37*
G36*
X00799044Y00192250D02*
X00796956D01*
X00795026Y00191451D01*
X00793549Y00189974D01*
X00792750Y00188044D01*
Y00185956D01*
X00793549Y00184026D01*
X00794431Y00183144D01*
Y00162856D01*
X00793549Y00161974D01*
X00792750Y00160044D01*
Y00157956D01*
X00793549Y00156026D01*
X00795026Y00154549D01*
X00796956Y00153750D01*
X00799044D01*
X00800974Y00154549D01*
X00802451Y00156026D01*
X00803250Y00157956D01*
Y00160044D01*
X00802451Y00161974D01*
X00801569Y00162856D01*
Y00183144D01*
X00802451Y00184026D01*
X00803250Y00185956D01*
Y00188044D01*
X00802451Y00189974D01*
X00800974Y00191451D01*
X00799044Y00192250D01*
D02*
G37*
G36*
X00776116Y00115700D02*
X00773484D01*
X00770940Y00115019D01*
X00768660Y00113702D01*
X00766798Y00111840D01*
X00765481Y00109560D01*
X00764800Y00107017D01*
Y00104383D01*
X00765481Y00101840D01*
X00766798Y00099560D01*
X00768660Y00097698D01*
X00770940Y00096382D01*
X00773484Y00095700D01*
X00776116D01*
X00778660Y00096382D01*
X00780940Y00097698D01*
X00782802Y00099560D01*
X00784118Y00101840D01*
X00784800Y00104383D01*
Y00107017D01*
X00784118Y00109560D01*
X00782802Y00111840D01*
X00780940Y00113702D01*
X00778660Y00115019D01*
X00776116Y00115700D01*
D02*
G37*
G36*
X00750716D02*
X00748083D01*
X00745540Y00115019D01*
X00743260Y00113702D01*
X00741398Y00111840D01*
X00740081Y00109560D01*
X00739400Y00107017D01*
Y00104383D01*
X00740081Y00101840D01*
X00741398Y00099560D01*
X00743260Y00097698D01*
X00745540Y00096382D01*
X00748083Y00095700D01*
X00750716D01*
X00753260Y00096382D01*
X00755540Y00097698D01*
X00757402Y00099560D01*
X00758718Y00101840D01*
X00759400Y00104383D01*
Y00107017D01*
X00758718Y00109560D01*
X00757402Y00111840D01*
X00755540Y00113702D01*
X00753260Y00115019D01*
X00750716Y00115700D01*
D02*
G37*
G36*
X00725316D02*
X00722683D01*
X00720140Y00115019D01*
X00717860Y00113702D01*
X00715998Y00111840D01*
X00714681Y00109560D01*
X00714000Y00107017D01*
Y00104383D01*
X00714681Y00101840D01*
X00715998Y00099560D01*
X00717860Y00097698D01*
X00720140Y00096382D01*
X00722683Y00095700D01*
X00725316D01*
X00727860Y00096382D01*
X00730140Y00097698D01*
X00732002Y00099560D01*
X00733318Y00101840D01*
X00734000Y00104383D01*
Y00107017D01*
X00733318Y00109560D01*
X00732002Y00111840D01*
X00730140Y00113702D01*
X00727860Y00115019D01*
X00725316Y00115700D01*
D02*
G37*
G36*
X00699917D02*
X00697283D01*
X00694740Y00115019D01*
X00692460Y00113702D01*
X00690598Y00111840D01*
X00689281Y00109560D01*
X00688600Y00107017D01*
Y00104383D01*
X00689281Y00101840D01*
X00690598Y00099560D01*
X00692460Y00097698D01*
X00694740Y00096382D01*
X00697283Y00095700D01*
X00699917D01*
X00702460Y00096382D01*
X00704740Y00097698D01*
X00706602Y00099560D01*
X00707918Y00101840D01*
X00708600Y00104383D01*
Y00107017D01*
X00707918Y00109560D01*
X00706602Y00111840D01*
X00704740Y00113702D01*
X00702460Y00115019D01*
X00699917Y00115700D01*
D02*
G37*
G36*
X00674517D02*
X00671883D01*
X00669340Y00115019D01*
X00667060Y00113702D01*
X00665198Y00111840D01*
X00663882Y00109560D01*
X00663200Y00107017D01*
Y00104383D01*
X00663882Y00101840D01*
X00665198Y00099560D01*
X00667060Y00097698D01*
X00669340Y00096382D01*
X00671883Y00095700D01*
X00674517D01*
X00677060Y00096382D01*
X00679340Y00097698D01*
X00681202Y00099560D01*
X00682518Y00101840D01*
X00683200Y00104383D01*
Y00107017D01*
X00682518Y00109560D01*
X00681202Y00111840D01*
X00679340Y00113702D01*
X00677060Y00115019D01*
X00674517Y00115700D01*
D02*
G37*
G36*
X00649117D02*
X00646484D01*
X00643940Y00115019D01*
X00641660Y00113702D01*
X00639798Y00111840D01*
X00638481Y00109560D01*
X00637800Y00107017D01*
Y00104383D01*
X00638481Y00101840D01*
X00639798Y00099560D01*
X00641660Y00097698D01*
X00643940Y00096382D01*
X00646484Y00095700D01*
X00649117D01*
X00651660Y00096382D01*
X00653940Y00097698D01*
X00655802Y00099560D01*
X00657119Y00101840D01*
X00657800Y00104383D01*
Y00107017D01*
X00657119Y00109560D01*
X00655802Y00111840D01*
X00653940Y00113702D01*
X00651660Y00115019D01*
X00649117Y00115700D01*
D02*
G37*
G36*
X00623717D02*
X00621083D01*
X00618540Y00115019D01*
X00616260Y00113702D01*
X00614398Y00111840D01*
X00613082Y00109560D01*
X00612400Y00107017D01*
Y00104383D01*
X00613082Y00101840D01*
X00614398Y00099560D01*
X00616260Y00097698D01*
X00618540Y00096382D01*
X00621083Y00095700D01*
X00623717D01*
X00626260Y00096382D01*
X00628540Y00097698D01*
X00630402Y00099560D01*
X00631718Y00101840D01*
X00632400Y00104383D01*
Y00107017D01*
X00631718Y00109560D01*
X00630402Y00111840D01*
X00628540Y00113702D01*
X00626260Y00115019D01*
X00623717Y00115700D01*
D02*
G37*
G36*
X00572916D02*
X00570284D01*
X00567740Y00115019D01*
X00565460Y00113702D01*
X00563598Y00111840D01*
X00562281Y00109560D01*
X00561600Y00107017D01*
Y00104383D01*
X00562281Y00101840D01*
X00563598Y00099560D01*
X00565460Y00097698D01*
X00567740Y00096382D01*
X00570284Y00095700D01*
X00572916D01*
X00575460Y00096382D01*
X00577740Y00097698D01*
X00579602Y00099560D01*
X00580919Y00101840D01*
X00581600Y00104383D01*
Y00107017D01*
X00580919Y00109560D01*
X00579602Y00111840D01*
X00577740Y00113702D01*
X00575460Y00115019D01*
X00572916Y00115700D01*
D02*
G37*
G36*
X00547517D02*
X00544883D01*
X00542340Y00115019D01*
X00540060Y00113702D01*
X00538198Y00111840D01*
X00536881Y00109560D01*
X00536200Y00107017D01*
Y00104383D01*
X00536881Y00101840D01*
X00538198Y00099560D01*
X00540060Y00097698D01*
X00542340Y00096382D01*
X00544883Y00095700D01*
X00547517D01*
X00550060Y00096382D01*
X00552340Y00097698D01*
X00554202Y00099560D01*
X00555518Y00101840D01*
X00556200Y00104383D01*
Y00107017D01*
X00555518Y00109560D01*
X00554202Y00111840D01*
X00552340Y00113702D01*
X00550060Y00115019D01*
X00547517Y00115700D01*
D02*
G37*
G36*
X00369716D02*
X00367084D01*
X00364540Y00115019D01*
X00362260Y00113702D01*
X00360398Y00111840D01*
X00359081Y00109560D01*
X00358400Y00107017D01*
Y00104383D01*
X00359081Y00101840D01*
X00360398Y00099560D01*
X00362260Y00097698D01*
X00364540Y00096382D01*
X00367084Y00095700D01*
X00369716D01*
X00372260Y00096382D01*
X00374540Y00097698D01*
X00376402Y00099560D01*
X00377719Y00101840D01*
X00378400Y00104383D01*
Y00107017D01*
X00377719Y00109560D01*
X00376402Y00111840D01*
X00374540Y00113702D01*
X00372260Y00115019D01*
X00369716Y00115700D01*
D02*
G37*
G36*
X00344316D02*
X00341684D01*
X00339140Y00115019D01*
X00336860Y00113702D01*
X00334998Y00111840D01*
X00333681Y00109560D01*
X00333000Y00107017D01*
Y00104383D01*
X00333681Y00101840D01*
X00334998Y00099560D01*
X00336860Y00097698D01*
X00339140Y00096382D01*
X00341684Y00095700D01*
X00344316D01*
X00346860Y00096382D01*
X00349140Y00097698D01*
X00351002Y00099560D01*
X00352318Y00101840D01*
X00353000Y00104383D01*
Y00107017D01*
X00352318Y00109560D01*
X00351002Y00111840D01*
X00349140Y00113702D01*
X00346860Y00115019D01*
X00344316Y00115700D01*
D02*
G37*
G36*
X00776116Y00090300D02*
X00773484D01*
X00770940Y00089619D01*
X00768660Y00088302D01*
X00766798Y00086440D01*
X00765481Y00084160D01*
X00764800Y00081616D01*
Y00078983D01*
X00765481Y00076440D01*
X00766798Y00074160D01*
X00768660Y00072298D01*
X00770940Y00070981D01*
X00773484Y00070300D01*
X00776116D01*
X00778660Y00070981D01*
X00780940Y00072298D01*
X00782802Y00074160D01*
X00784118Y00076440D01*
X00784800Y00078983D01*
Y00081616D01*
X00784118Y00084160D01*
X00782802Y00086440D01*
X00780940Y00088302D01*
X00778660Y00089619D01*
X00776116Y00090300D01*
D02*
G37*
G36*
X00750716D02*
X00748083D01*
X00745540Y00089619D01*
X00743260Y00088302D01*
X00741398Y00086440D01*
X00740081Y00084160D01*
X00739400Y00081616D01*
Y00078983D01*
X00740081Y00076440D01*
X00741398Y00074160D01*
X00743260Y00072298D01*
X00745540Y00070981D01*
X00748083Y00070300D01*
X00750716D01*
X00753260Y00070981D01*
X00755540Y00072298D01*
X00757402Y00074160D01*
X00758718Y00076440D01*
X00759400Y00078983D01*
Y00081616D01*
X00758718Y00084160D01*
X00757402Y00086440D01*
X00755540Y00088302D01*
X00753260Y00089619D01*
X00750716Y00090300D01*
D02*
G37*
G36*
X00725316D02*
X00722683D01*
X00720140Y00089619D01*
X00717860Y00088302D01*
X00715998Y00086440D01*
X00714681Y00084160D01*
X00714000Y00081616D01*
Y00078983D01*
X00714681Y00076440D01*
X00715998Y00074160D01*
X00717860Y00072298D01*
X00720140Y00070981D01*
X00722683Y00070300D01*
X00725316D01*
X00727860Y00070981D01*
X00730140Y00072298D01*
X00732002Y00074160D01*
X00733318Y00076440D01*
X00734000Y00078983D01*
Y00081616D01*
X00733318Y00084160D01*
X00732002Y00086440D01*
X00730140Y00088302D01*
X00727860Y00089619D01*
X00725316Y00090300D01*
D02*
G37*
G36*
X00699917D02*
X00697283D01*
X00694740Y00089619D01*
X00692460Y00088302D01*
X00690598Y00086440D01*
X00689281Y00084160D01*
X00688600Y00081616D01*
Y00078983D01*
X00689281Y00076440D01*
X00690598Y00074160D01*
X00692460Y00072298D01*
X00694740Y00070981D01*
X00697283Y00070300D01*
X00699917D01*
X00702460Y00070981D01*
X00704740Y00072298D01*
X00706602Y00074160D01*
X00707918Y00076440D01*
X00708600Y00078983D01*
Y00081616D01*
X00707918Y00084160D01*
X00706602Y00086440D01*
X00704740Y00088302D01*
X00702460Y00089619D01*
X00699917Y00090300D01*
D02*
G37*
G36*
X00674517D02*
X00671883D01*
X00669340Y00089619D01*
X00667060Y00088302D01*
X00665198Y00086440D01*
X00663882Y00084160D01*
X00663200Y00081616D01*
Y00078983D01*
X00663882Y00076440D01*
X00665198Y00074160D01*
X00667060Y00072298D01*
X00669340Y00070981D01*
X00671883Y00070300D01*
X00674517D01*
X00677060Y00070981D01*
X00679340Y00072298D01*
X00681202Y00074160D01*
X00682518Y00076440D01*
X00683200Y00078983D01*
Y00081616D01*
X00682518Y00084160D01*
X00681202Y00086440D01*
X00679340Y00088302D01*
X00677060Y00089619D01*
X00674517Y00090300D01*
D02*
G37*
G36*
X00649117D02*
X00646484D01*
X00643940Y00089619D01*
X00641660Y00088302D01*
X00639798Y00086440D01*
X00638481Y00084160D01*
X00637800Y00081616D01*
Y00078983D01*
X00638481Y00076440D01*
X00639798Y00074160D01*
X00641660Y00072298D01*
X00643940Y00070981D01*
X00646484Y00070300D01*
X00649117D01*
X00651660Y00070981D01*
X00653940Y00072298D01*
X00655802Y00074160D01*
X00657119Y00076440D01*
X00657800Y00078983D01*
Y00081616D01*
X00657119Y00084160D01*
X00655802Y00086440D01*
X00653940Y00088302D01*
X00651660Y00089619D01*
X00649117Y00090300D01*
D02*
G37*
G36*
X00623717D02*
X00621083D01*
X00618540Y00089619D01*
X00616260Y00088302D01*
X00614398Y00086440D01*
X00613082Y00084160D01*
X00612400Y00081616D01*
Y00078983D01*
X00613082Y00076440D01*
X00614398Y00074160D01*
X00616260Y00072298D01*
X00618540Y00070981D01*
X00621083Y00070300D01*
X00623717D01*
X00626260Y00070981D01*
X00628540Y00072298D01*
X00630402Y00074160D01*
X00631718Y00076440D01*
X00632400Y00078983D01*
Y00081616D01*
X00631718Y00084160D01*
X00630402Y00086440D01*
X00628540Y00088302D01*
X00626260Y00089619D01*
X00623717Y00090300D01*
D02*
G37*
G36*
X00572916D02*
X00570284D01*
X00567740Y00089619D01*
X00565460Y00088302D01*
X00563598Y00086440D01*
X00562281Y00084160D01*
X00561600Y00081616D01*
Y00078983D01*
X00562281Y00076440D01*
X00563598Y00074160D01*
X00565460Y00072298D01*
X00567740Y00070981D01*
X00570284Y00070300D01*
X00572916D01*
X00575460Y00070981D01*
X00577740Y00072298D01*
X00579602Y00074160D01*
X00580919Y00076440D01*
X00581600Y00078983D01*
Y00081616D01*
X00580919Y00084160D01*
X00579602Y00086440D01*
X00577740Y00088302D01*
X00575460Y00089619D01*
X00572916Y00090300D01*
D02*
G37*
G36*
X00547517D02*
X00544883D01*
X00542340Y00089619D01*
X00540060Y00088302D01*
X00538198Y00086440D01*
X00536881Y00084160D01*
X00536200Y00081616D01*
Y00078983D01*
X00536881Y00076440D01*
X00538198Y00074160D01*
X00540060Y00072298D01*
X00542340Y00070981D01*
X00544883Y00070300D01*
X00547517D01*
X00550060Y00070981D01*
X00552340Y00072298D01*
X00554202Y00074160D01*
X00555518Y00076440D01*
X00556200Y00078983D01*
Y00081616D01*
X00555518Y00084160D01*
X00554202Y00086440D01*
X00552340Y00088302D01*
X00550060Y00089619D01*
X00547517Y00090300D01*
D02*
G37*
G36*
X00369716D02*
X00367084D01*
X00364540Y00089619D01*
X00362260Y00088302D01*
X00360398Y00086440D01*
X00359081Y00084160D01*
X00358400Y00081616D01*
Y00078983D01*
X00359081Y00076440D01*
X00360398Y00074160D01*
X00362260Y00072298D01*
X00364540Y00070981D01*
X00367084Y00070300D01*
X00369716D01*
X00372260Y00070981D01*
X00374540Y00072298D01*
X00376402Y00074160D01*
X00377719Y00076440D01*
X00378400Y00078983D01*
Y00081616D01*
X00377719Y00084160D01*
X00376402Y00086440D01*
X00374540Y00088302D01*
X00372260Y00089619D01*
X00369716Y00090300D01*
D02*
G37*
G36*
X00344316D02*
X00341684D01*
X00339140Y00089619D01*
X00336860Y00088302D01*
X00334998Y00086440D01*
X00333681Y00084160D01*
X00333000Y00081616D01*
Y00078983D01*
X00333681Y00076440D01*
X00334998Y00074160D01*
X00336860Y00072298D01*
X00339140Y00070981D01*
X00341684Y00070300D01*
X00344316D01*
X00346860Y00070981D01*
X00349140Y00072298D01*
X00351002Y00074160D01*
X00352318Y00076440D01*
X00353000Y00078983D01*
Y00081616D01*
X00352318Y00084160D01*
X00351002Y00086440D01*
X00349140Y00088302D01*
X00346860Y00089619D01*
X00344316Y00090300D01*
D02*
G37*
G36*
X00293517Y00115700D02*
X00290884D01*
X00288340Y00115019D01*
X00286060Y00113702D01*
X00284198Y00111840D01*
X00282882Y00109560D01*
X00282200Y00107017D01*
Y00104383D01*
X00282882Y00101840D01*
X00284198Y00099560D01*
X00286060Y00097698D01*
X00288340Y00096382D01*
X00288631Y00096304D01*
Y00089697D01*
X00288340Y00089619D01*
X00286060Y00088302D01*
X00284198Y00086440D01*
X00282882Y00084160D01*
X00282200Y00081616D01*
Y00078983D01*
X00282882Y00076440D01*
X00284198Y00074160D01*
X00286060Y00072298D01*
X00288340Y00070981D01*
X00290884Y00070300D01*
X00293517D01*
X00296060Y00070981D01*
X00298340Y00072298D01*
X00300202Y00074160D01*
X00301518Y00076440D01*
X00302200Y00078983D01*
Y00081616D01*
X00301518Y00084160D01*
X00300202Y00086440D01*
X00298340Y00088302D01*
X00296060Y00089619D01*
X00295769Y00089697D01*
Y00096304D01*
X00296060Y00096382D01*
X00298340Y00097698D01*
X00300202Y00099560D01*
X00301518Y00101840D01*
X00302200Y00104383D01*
Y00107017D01*
X00301518Y00109560D01*
X00300202Y00111840D01*
X00298340Y00113702D01*
X00296060Y00115019D01*
X00293517Y00115700D01*
D02*
G37*
G36*
X00304044Y00143250D02*
X00301956D01*
X00300026Y00142451D01*
X00298549Y00140974D01*
X00297750Y00139044D01*
Y00136956D01*
X00298549Y00135026D01*
X00299431Y00134144D01*
Y00132478D01*
X00295522Y00128569D01*
X00270000D01*
X00268634Y00128297D01*
X00267477Y00127523D01*
X00264277Y00124323D01*
X00263503Y00123166D01*
X00263231Y00121800D01*
Y00115097D01*
X00262940Y00115019D01*
X00260660Y00113702D01*
X00258798Y00111840D01*
X00257481Y00109560D01*
X00256800Y00107017D01*
Y00104383D01*
X00257481Y00101840D01*
X00258798Y00099560D01*
X00260660Y00097698D01*
X00262940Y00096382D01*
X00263231Y00096304D01*
Y00089697D01*
X00262940Y00089619D01*
X00260660Y00088302D01*
X00258798Y00086440D01*
X00257481Y00084160D01*
X00256800Y00081616D01*
Y00078983D01*
X00257481Y00076440D01*
X00258798Y00074160D01*
X00260660Y00072298D01*
X00262940Y00070981D01*
X00265483Y00070300D01*
X00268116D01*
X00270660Y00070981D01*
X00272940Y00072298D01*
X00274802Y00074160D01*
X00276119Y00076440D01*
X00276800Y00078983D01*
Y00081616D01*
X00276119Y00084160D01*
X00274802Y00086440D01*
X00272940Y00088302D01*
X00270660Y00089619D01*
X00270369Y00089697D01*
Y00096304D01*
X00270660Y00096382D01*
X00272940Y00097698D01*
X00274802Y00099560D01*
X00276119Y00101840D01*
X00276800Y00104383D01*
Y00107017D01*
X00276119Y00109560D01*
X00274802Y00111840D01*
X00272940Y00113702D01*
X00270660Y00115019D01*
X00270369Y00115097D01*
Y00120322D01*
X00271478Y00121431D01*
X00297000D01*
X00298366Y00121703D01*
X00299523Y00122477D01*
X00305523Y00128477D01*
X00306297Y00129634D01*
X00306569Y00131000D01*
Y00134144D01*
X00307451Y00135026D01*
X00308250Y00136956D01*
Y00139044D01*
X00307451Y00140974D01*
X00305974Y00142451D01*
X00304044Y00143250D01*
D02*
G37*
G36*
X00242717Y00115700D02*
X00240084D01*
X00237540Y00115019D01*
X00235260Y00113702D01*
X00233398Y00111840D01*
X00232082Y00109560D01*
X00231400Y00107017D01*
Y00104383D01*
X00232082Y00101840D01*
X00233398Y00099560D01*
X00235260Y00097698D01*
X00236812Y00096802D01*
Y00089198D01*
X00235260Y00088302D01*
X00233398Y00086440D01*
X00232082Y00084160D01*
X00231400Y00081616D01*
Y00078983D01*
X00232082Y00076440D01*
X00233398Y00074160D01*
X00235260Y00072298D01*
X00237540Y00070981D01*
X00240084Y00070300D01*
X00242717D01*
X00245260Y00070981D01*
X00247540Y00072298D01*
X00249402Y00074160D01*
X00250718Y00076440D01*
X00251400Y00078983D01*
Y00081616D01*
X00250718Y00084160D01*
X00249402Y00086440D01*
X00247540Y00088302D01*
X00245988Y00089198D01*
Y00096802D01*
X00247540Y00097698D01*
X00249402Y00099560D01*
X00250718Y00101840D01*
X00251400Y00104383D01*
Y00107017D01*
X00250718Y00109560D01*
X00249402Y00111840D01*
X00247540Y00113702D01*
X00245260Y00115019D01*
X00242717Y00115700D01*
D02*
G37*
G36*
X00217316D02*
X00214683D01*
X00212140Y00115019D01*
X00209860Y00113702D01*
X00207998Y00111840D01*
X00206681Y00109560D01*
X00206000Y00107017D01*
Y00104383D01*
X00206681Y00101840D01*
X00207998Y00099560D01*
X00209860Y00097698D01*
X00211412Y00096802D01*
Y00089198D01*
X00209860Y00088302D01*
X00207998Y00086440D01*
X00206681Y00084160D01*
X00206000Y00081616D01*
Y00078983D01*
X00206681Y00076440D01*
X00207998Y00074160D01*
X00209860Y00072298D01*
X00212140Y00070981D01*
X00214683Y00070300D01*
X00217316D01*
X00219860Y00070981D01*
X00222140Y00072298D01*
X00224002Y00074160D01*
X00225319Y00076440D01*
X00226000Y00078983D01*
Y00081616D01*
X00225319Y00084160D01*
X00224002Y00086440D01*
X00222140Y00088302D01*
X00220588Y00089198D01*
Y00096802D01*
X00222140Y00097698D01*
X00224002Y00099560D01*
X00225319Y00101840D01*
X00226000Y00104383D01*
Y00107017D01*
X00225319Y00109560D01*
X00224002Y00111840D01*
X00222140Y00113702D01*
X00219860Y00115019D01*
X00217316Y00115700D01*
D02*
G37*
G36*
X00191917D02*
X00189284D01*
X00186740Y00115019D01*
X00184460Y00113702D01*
X00182598Y00111840D01*
X00181282Y00109560D01*
X00180600Y00107017D01*
Y00104383D01*
X00181282Y00101840D01*
X00182598Y00099560D01*
X00184460Y00097698D01*
X00186012Y00096802D01*
Y00089198D01*
X00184460Y00088302D01*
X00182598Y00086440D01*
X00181282Y00084160D01*
X00180600Y00081616D01*
Y00078983D01*
X00181282Y00076440D01*
X00182598Y00074160D01*
X00184460Y00072298D01*
X00186740Y00070981D01*
X00189284Y00070300D01*
X00191917D01*
X00194460Y00070981D01*
X00196740Y00072298D01*
X00198602Y00074160D01*
X00199918Y00076440D01*
X00200600Y00078983D01*
Y00081616D01*
X00199918Y00084160D01*
X00198602Y00086440D01*
X00196740Y00088302D01*
X00195188Y00089198D01*
Y00096802D01*
X00196740Y00097698D01*
X00198602Y00099560D01*
X00199918Y00101840D01*
X00200600Y00104383D01*
Y00107017D01*
X00199918Y00109560D01*
X00198602Y00111840D01*
X00196740Y00113702D01*
X00194460Y00115019D01*
X00191917Y00115700D01*
D02*
G37*
G36*
X00223000Y00211060D02*
X00221173Y00210820D01*
X00219470Y00210114D01*
X00218008Y00208992D01*
X00216886Y00207530D01*
X00216180Y00205827D01*
X00215940Y00204000D01*
Y00146060D01*
X00179000D01*
X00177173Y00145820D01*
X00175470Y00145114D01*
X00174007Y00143992D01*
X00160208Y00130192D01*
X00159086Y00128730D01*
X00158380Y00127027D01*
X00158140Y00125200D01*
Y00114871D01*
X00156874Y00114026D01*
X00155548Y00112041D01*
X00155083Y00109700D01*
Y00101700D01*
X00155548Y00099359D01*
X00156874Y00097374D01*
X00158140Y00096529D01*
Y00087382D01*
X00157198Y00086440D01*
X00155882Y00084160D01*
X00155200Y00081616D01*
Y00078983D01*
X00155882Y00076440D01*
X00157198Y00074160D01*
X00159060Y00072298D01*
X00161340Y00070981D01*
X00163883Y00070300D01*
X00166516D01*
X00169060Y00070981D01*
X00171340Y00072298D01*
X00173202Y00074160D01*
X00174519Y00076440D01*
X00175200Y00078983D01*
Y00081616D01*
X00174519Y00084160D01*
X00173202Y00086440D01*
X00172260Y00087382D01*
Y00096529D01*
X00173526Y00097374D01*
X00174852Y00099359D01*
X00175317Y00101700D01*
Y00109700D01*
X00174852Y00112041D01*
X00173526Y00114026D01*
X00172260Y00114871D01*
Y00122275D01*
X00181924Y00131940D01*
X00279000D01*
X00280827Y00132180D01*
X00282530Y00132886D01*
X00283992Y00134008D01*
X00285114Y00135470D01*
X00285820Y00137173D01*
X00286060Y00139000D01*
X00285820Y00140827D01*
X00285114Y00142530D01*
X00283992Y00143992D01*
X00282530Y00145114D01*
X00280827Y00145820D01*
X00279000Y00146060D01*
X00230060D01*
Y00204000D01*
X00229820Y00205827D01*
X00229114Y00207530D01*
X00227992Y00208992D01*
X00226530Y00210114D01*
X00224827Y00210820D01*
X00223000Y00211060D01*
D02*
G37*
%LPD*%
G36*
X00103572Y00885749D02*
X00103757Y00885657D01*
X00103827Y00885587D01*
X00103919Y00885495D01*
Y00885471D01*
X00103966Y00885448D01*
X00104035Y00885310D01*
X00104104Y00885124D01*
X00104151Y00884870D01*
Y00870061D01*
Y00870038D01*
X00104128Y00869945D01*
X00104104Y00869806D01*
X00104058Y00869667D01*
X00103942Y00869505D01*
X00103804Y00869390D01*
X00103595Y00869297D01*
X00103318Y00869251D01*
X00103271D01*
X00103132Y00869274D01*
X00102947Y00869343D01*
X00102762Y00869459D01*
X00102716Y00869505D01*
X00102647Y00869621D01*
X00102577Y00869806D01*
X00102531Y00870061D01*
Y00882602D01*
X00099384Y00876933D01*
Y00876910D01*
X00099338Y00876887D01*
X00099222Y00876771D01*
X00099037Y00876632D01*
X00098898Y00876609D01*
X00098759Y00876586D01*
X00098690D01*
X00098620Y00876609D01*
X00098528Y00876632D01*
X00098435Y00876679D01*
X00098320Y00876725D01*
X00098227Y00876817D01*
X00098158Y00876933D01*
X00095034Y00882602D01*
Y00870061D01*
Y00870038D01*
X00095011Y00869945D01*
X00094987Y00869806D01*
X00094941Y00869667D01*
X00094825Y00869505D01*
X00094687Y00869390D01*
X00094478Y00869297D01*
X00094201Y00869251D01*
X00094154D01*
X00093992Y00869274D01*
X00093807Y00869343D01*
X00093622Y00869459D01*
X00093599Y00869505D01*
X00093530Y00869621D01*
X00093437Y00869806D01*
X00093414Y00870061D01*
Y00884870D01*
Y00884916D01*
X00093437Y00885009D01*
X00093460Y00885148D01*
X00093506Y00885333D01*
X00093599Y00885495D01*
X00093738Y00885633D01*
X00093900Y00885726D01*
X00094154Y00885772D01*
X00094224D01*
X00094316Y00885749D01*
X00094432Y00885703D01*
X00094548Y00885657D01*
X00094663Y00885564D01*
X00094779Y00885448D01*
X00094895Y00885286D01*
X00098759Y00878761D01*
X00102623Y00885286D01*
X00102647Y00885310D01*
X00102670Y00885356D01*
X00102739Y00885448D01*
X00102832Y00885541D01*
X00103063Y00885703D01*
X00103225Y00885749D01*
X00103387Y00885772D01*
X00103433D01*
X00103572Y00885749D01*
D02*
G37*
G36*
X00159477Y00881098D02*
X00159662Y00881029D01*
X00159870Y00880913D01*
X00159894D01*
X00159917Y00880867D01*
X00160009Y00880774D01*
X00160079Y00880589D01*
X00160125Y00880473D01*
Y00880335D01*
Y00880288D01*
Y00880219D01*
X00160102Y00880126D01*
X00160079Y00880057D01*
X00157232Y00869899D01*
Y00869876D01*
X00157186Y00869806D01*
X00157140Y00869690D01*
X00157071Y00869575D01*
X00156955Y00869436D01*
X00156816Y00869343D01*
X00156631Y00869251D01*
X00156423Y00869228D01*
X00156376D01*
X00156284Y00869251D01*
X00156122Y00869297D01*
X00155960Y00869390D01*
X00155937Y00869413D01*
X00155844Y00869505D01*
X00155775Y00869621D01*
X00155728Y00869737D01*
X00152836Y00880057D01*
Y00880080D01*
X00152813Y00880103D01*
X00152790Y00880196D01*
Y00880335D01*
Y00880358D01*
Y00880404D01*
X00152813Y00880543D01*
X00152882Y00880705D01*
X00153021Y00880890D01*
X00153044D01*
X00153067Y00880936D01*
X00153183Y00881006D01*
X00153368Y00881075D01*
X00153600Y00881121D01*
X00153692D01*
X00153785Y00881098D01*
X00153924Y00881052D01*
X00154039Y00880983D01*
X00154178Y00880867D01*
X00154294Y00880728D01*
X00154386Y00880520D01*
X00156446Y00872467D01*
X00158528Y00880520D01*
Y00880543D01*
X00158551Y00880612D01*
X00158598Y00880705D01*
X00158667Y00880820D01*
X00158760Y00880936D01*
X00158898Y00881029D01*
X00159084Y00881098D01*
X00159292Y00881121D01*
X00159338D01*
X00159477Y00881098D01*
D02*
G37*
G36*
X00184144Y00885680D02*
X00184282Y00885657D01*
X00184444Y00885633D01*
X00184815Y00885518D01*
X00185231Y00885356D01*
X00185462Y00885240D01*
X00185694Y00885101D01*
X00185925Y00884939D01*
X00186157Y00884754D01*
X00186365Y00884546D01*
X00186596Y00884291D01*
X00186619D01*
X00186643Y00884268D01*
X00186758Y00884153D01*
X00186920Y00883968D01*
X00187105Y00883736D01*
X00187267Y00883412D01*
X00187429Y00883019D01*
X00187545Y00882556D01*
X00187591Y00882301D01*
Y00882024D01*
Y00872884D01*
Y00872861D01*
Y00872814D01*
Y00872745D01*
X00187568Y00872629D01*
Y00872514D01*
X00187545Y00872352D01*
X00187453Y00872004D01*
X00187337Y00871588D01*
X00187129Y00871171D01*
X00186874Y00870732D01*
X00186689Y00870524D01*
X00186504Y00870315D01*
X00186481D01*
X00186458Y00870269D01*
X00186388Y00870223D01*
X00186319Y00870153D01*
X00186087Y00869968D01*
X00185786Y00869783D01*
X00185393Y00869598D01*
X00184953Y00869413D01*
X00184444Y00869297D01*
X00184167Y00869274D01*
X00183889Y00869251D01*
X00182616D01*
X00182501Y00869274D01*
X00182362D01*
X00182223Y00869297D01*
X00181853Y00869390D01*
X00181459Y00869505D01*
X00181020Y00869690D01*
X00180580Y00869945D01*
X00180372Y00870107D01*
X00180164Y00870292D01*
Y00870315D01*
X00180117Y00870338D01*
X00180071Y00870408D01*
X00180002Y00870477D01*
X00179840Y00870709D01*
X00179655Y00871009D01*
X00179446Y00871403D01*
X00179284Y00871842D01*
X00179169Y00872328D01*
X00179145Y00872606D01*
X00179122Y00872884D01*
Y00882024D01*
Y00882047D01*
Y00882093D01*
Y00882163D01*
X00179145Y00882278D01*
Y00882417D01*
X00179192Y00882556D01*
X00179261Y00882926D01*
X00179400Y00883343D01*
X00179585Y00883782D01*
X00179863Y00884245D01*
X00180025Y00884477D01*
X00180210Y00884685D01*
X00180233Y00884708D01*
X00180256Y00884731D01*
X00180395Y00884847D01*
X00180603Y00885009D01*
X00180904Y00885194D01*
X00181274Y00885379D01*
X00181714Y00885541D01*
X00182200Y00885657D01*
X00182477Y00885703D01*
X00184051D01*
X00184144Y00885680D01*
D02*
G37*
G36*
X00176646Y00870824D02*
X00176762Y00870801D01*
X00176924Y00870755D01*
X00177086Y00870639D01*
X00177202Y00870500D01*
X00177294Y00870315D01*
X00177341Y00870038D01*
Y00870014D01*
Y00869991D01*
X00177317Y00869853D01*
X00177248Y00869667D01*
X00177109Y00869482D01*
X00177063Y00869436D01*
X00176947Y00869367D01*
X00176762Y00869297D01*
X00176507Y00869251D01*
X00176438D01*
X00176299Y00869274D01*
X00176114Y00869343D01*
X00175929Y00869459D01*
X00175906Y00869505D01*
X00175837Y00869621D01*
X00175744Y00869806D01*
X00175721Y00870038D01*
Y00870061D01*
Y00870084D01*
X00175744Y00870223D01*
X00175813Y00870408D01*
X00175929Y00870593D01*
Y00870616D01*
X00175975Y00870639D01*
X00176091Y00870732D01*
X00176253Y00870801D01*
X00176369Y00870847D01*
X00176554D01*
X00176646Y00870824D01*
D02*
G37*
G36*
X00173222Y00885657D02*
X00173407Y00885587D01*
X00173615Y00885448D01*
X00173638D01*
X00173661Y00885402D01*
X00173754Y00885310D01*
X00173823Y00885125D01*
X00173870Y00885009D01*
Y00884870D01*
Y00870038D01*
Y00870014D01*
Y00869968D01*
X00173846Y00869899D01*
Y00869806D01*
X00173754Y00869621D01*
X00173708Y00869529D01*
X00173615Y00869436D01*
X00173569Y00869413D01*
X00173453Y00869343D01*
X00173291Y00869274D01*
X00173060Y00869251D01*
X00173013D01*
X00172852Y00869274D01*
X00172666Y00869343D01*
X00172481Y00869459D01*
X00172435Y00869505D01*
X00172366Y00869621D01*
X00172296Y00869783D01*
X00172250Y00870038D01*
Y00883297D01*
X00170214Y00880890D01*
X00170167Y00880844D01*
X00170052Y00880774D01*
X00169867Y00880705D01*
X00169635Y00880659D01*
X00169589D01*
X00169450Y00880682D01*
X00169265Y00880751D01*
X00169057Y00880890D01*
X00169010Y00880936D01*
X00168941Y00881052D01*
X00168871Y00881237D01*
X00168825Y00881468D01*
Y00881492D01*
Y00881515D01*
X00168848Y00881654D01*
X00168941Y00881839D01*
X00168987Y00881931D01*
X00169080Y00882024D01*
X00172504Y00885448D01*
X00172551Y00885495D01*
X00172643Y00885564D01*
X00172805Y00885633D01*
X00173037Y00885680D01*
X00173083D01*
X00173222Y00885657D01*
D02*
G37*
G36*
X00141914Y00881098D02*
X00142215Y00881029D01*
X00142562Y00880913D01*
X00142585D01*
X00142632Y00880867D01*
X00142724Y00880820D01*
X00142840Y00880774D01*
X00143094Y00880589D01*
X00143372Y00880358D01*
X00143395Y00880335D01*
X00143441Y00880311D01*
X00143488Y00880242D01*
X00143580Y00880150D01*
X00143742Y00879895D01*
X00143904Y00879571D01*
Y00879548D01*
X00143927Y00879502D01*
X00143974Y00879409D01*
X00144020Y00879270D01*
X00144089Y00878969D01*
X00144112Y00878622D01*
Y00870038D01*
Y00870014D01*
X00144089Y00869922D01*
X00144066Y00869783D01*
X00144020Y00869644D01*
X00143904Y00869505D01*
X00143765Y00869367D01*
X00143580Y00869274D01*
X00143302Y00869251D01*
X00143256D01*
X00143094Y00869274D01*
X00142909Y00869343D01*
X00142724Y00869459D01*
X00142678Y00869505D01*
X00142608Y00869621D01*
X00142539Y00869783D01*
X00142493Y00870038D01*
Y00878622D01*
Y00878645D01*
Y00878692D01*
X00142470Y00878761D01*
Y00878830D01*
X00142377Y00879039D01*
X00142308Y00879155D01*
X00142215Y00879247D01*
Y00879270D01*
X00142169Y00879293D01*
X00142053Y00879386D01*
X00141845Y00879478D01*
X00141729Y00879525D01*
X00139554D01*
Y00870038D01*
Y00870014D01*
Y00869968D01*
X00139531Y00869899D01*
Y00869806D01*
X00139438Y00869621D01*
X00139392Y00869529D01*
X00139299Y00869436D01*
X00139253Y00869413D01*
X00139137Y00869343D01*
X00138975Y00869274D01*
X00138744Y00869251D01*
X00138698D01*
X00138536Y00869274D01*
X00138351Y00869343D01*
X00138166Y00869459D01*
X00138119Y00869505D01*
X00138050Y00869621D01*
X00137980Y00869783D01*
X00137934Y00870038D01*
Y00879525D01*
X00134995D01*
Y00870038D01*
Y00870014D01*
X00134972Y00869922D01*
X00134949Y00869783D01*
X00134903Y00869644D01*
X00134787Y00869505D01*
X00134648Y00869367D01*
X00134440Y00869274D01*
X00134162Y00869251D01*
X00134116D01*
X00133954Y00869274D01*
X00133769Y00869343D01*
X00133584Y00869459D01*
X00133561Y00869505D01*
X00133491Y00869621D01*
X00133399Y00869783D01*
X00133376Y00870038D01*
Y00880311D01*
Y00880358D01*
X00133399Y00880450D01*
X00133422Y00880566D01*
X00133468Y00880728D01*
X00133561Y00880867D01*
X00133700Y00881006D01*
X00133908Y00881098D01*
X00134162Y00881121D01*
X00141775D01*
X00141914Y00881098D01*
D02*
G37*
G36*
X00129419Y00881075D02*
X00129650Y00881029D01*
X00129951Y00880936D01*
X00130252Y00880820D01*
X00130553Y00880635D01*
X00130830Y00880381D01*
X00130854Y00880358D01*
X00130946Y00880242D01*
X00131062Y00880103D01*
X00131201Y00879895D01*
X00131339Y00879617D01*
X00131455Y00879316D01*
X00131548Y00878969D01*
X00131571Y00878576D01*
Y00875174D01*
Y00875151D01*
X00131548Y00875059D01*
X00131525Y00874920D01*
X00131455Y00874781D01*
X00131363Y00874642D01*
X00131201Y00874503D01*
X00130992Y00874411D01*
X00130715Y00874388D01*
X00125855D01*
Y00871750D01*
Y00871727D01*
Y00871681D01*
X00125878Y00871611D01*
Y00871518D01*
X00125971Y00871310D01*
X00126017Y00871195D01*
X00126110Y00871102D01*
X00126133D01*
X00126156Y00871056D01*
X00126272Y00870986D01*
X00126480Y00870894D01*
X00126596Y00870871D01*
X00126712Y00870847D01*
X00130761D01*
X00130854Y00870824D01*
X00130969Y00870801D01*
X00131131Y00870755D01*
X00131293Y00870639D01*
X00131409Y00870500D01*
X00131501Y00870315D01*
X00131548Y00870038D01*
Y00870014D01*
Y00869991D01*
X00131525Y00869852D01*
X00131455Y00869667D01*
X00131339Y00869482D01*
X00131293Y00869436D01*
X00131178Y00869367D01*
X00130992Y00869297D01*
X00130715Y00869251D01*
X00126688D01*
X00126550Y00869274D01*
X00126364Y00869297D01*
X00126110Y00869343D01*
X00125809Y00869436D01*
X00125508Y00869552D01*
X00125208Y00869737D01*
X00124930Y00869968D01*
X00124907Y00869991D01*
X00124814Y00870107D01*
X00124722Y00870246D01*
X00124583Y00870454D01*
X00124467Y00870732D01*
X00124351Y00871032D01*
X00124259Y00871380D01*
X00124236Y00871773D01*
Y00878599D01*
Y00878622D01*
Y00878692D01*
Y00878784D01*
X00124259Y00878900D01*
X00124305Y00879201D01*
X00124421Y00879548D01*
Y00879571D01*
X00124467Y00879617D01*
X00124490Y00879710D01*
X00124560Y00879826D01*
X00124722Y00880080D01*
X00124930Y00880358D01*
X00124953Y00880381D01*
X00124999Y00880427D01*
X00125069Y00880473D01*
X00125161Y00880566D01*
X00125416Y00880728D01*
X00125717Y00880913D01*
X00125740D01*
X00125809Y00880936D01*
X00125902Y00880983D01*
X00126017Y00881029D01*
X00126179Y00881052D01*
X00126341Y00881098D01*
X00126735Y00881121D01*
X00129211D01*
X00129419Y00881075D01*
D02*
G37*
G36*
X00121783Y00885680D02*
X00121968Y00885610D01*
X00122176Y00885471D01*
X00122199D01*
X00122222Y00885425D01*
X00122315Y00885310D01*
X00122385Y00885124D01*
X00122431Y00885009D01*
Y00884870D01*
Y00870038D01*
Y00870014D01*
X00122408Y00869922D01*
X00122385Y00869783D01*
X00122315Y00869644D01*
X00122222Y00869505D01*
X00122060Y00869367D01*
X00121852Y00869274D01*
X00121575Y00869251D01*
X00117409D01*
X00117294Y00869274D01*
X00116947Y00869320D01*
X00116600Y00869436D01*
X00116576D01*
X00116530Y00869482D01*
X00116438Y00869529D01*
X00116345Y00869575D01*
X00116091Y00869760D01*
X00115813Y00869991D01*
X00115790Y00870014D01*
X00115767Y00870061D01*
X00115697Y00870130D01*
X00115628Y00870223D01*
X00115443Y00870477D01*
X00115281Y00870778D01*
Y00870801D01*
X00115258Y00870871D01*
X00115234Y00870963D01*
X00115188Y00871079D01*
X00115165Y00871218D01*
X00115119Y00871403D01*
X00115096Y00871773D01*
Y00878622D01*
Y00878645D01*
Y00878669D01*
X00115119Y00878807D01*
X00115142Y00878992D01*
X00115188Y00879247D01*
X00115281Y00879525D01*
X00115396Y00879826D01*
X00115582Y00880126D01*
X00115813Y00880404D01*
X00115836Y00880427D01*
X00115952Y00880520D01*
X00116091Y00880635D01*
X00116299Y00880774D01*
X00116576Y00880890D01*
X00116877Y00881006D01*
X00117224Y00881098D01*
X00117618Y00881121D01*
X00120811D01*
Y00884870D01*
Y00884893D01*
Y00884939D01*
X00120834Y00885078D01*
X00120904Y00885286D01*
X00121019Y00885471D01*
X00121066Y00885518D01*
X00121181Y00885587D01*
X00121366Y00885657D01*
X00121598Y00885703D01*
X00121644D01*
X00121783Y00885680D01*
D02*
G37*
G36*
X00111069Y00881098D02*
X00111393Y00881029D01*
X00111740Y00880913D01*
X00111763D01*
X00111810Y00880867D01*
X00111902Y00880820D01*
X00112018Y00880774D01*
X00112273Y00880589D01*
X00112550Y00880358D01*
X00112573Y00880335D01*
X00112620Y00880311D01*
X00112666Y00880242D01*
X00112759Y00880150D01*
X00112921Y00879895D01*
X00113083Y00879571D01*
Y00879548D01*
X00113106Y00879502D01*
X00113152Y00879409D01*
X00113198Y00879270D01*
X00113268Y00878969D01*
X00113291Y00878622D01*
Y00871773D01*
Y00871750D01*
Y00871727D01*
Y00871588D01*
X00113244Y00871403D01*
X00113198Y00871148D01*
X00113106Y00870847D01*
X00112990Y00870547D01*
X00112805Y00870246D01*
X00112550Y00869968D01*
X00112527Y00869945D01*
X00112411Y00869852D01*
X00112273Y00869737D01*
X00112064Y00869621D01*
X00111787Y00869482D01*
X00111486Y00869367D01*
X00111139Y00869274D01*
X00110745Y00869251D01*
X00108408D01*
X00108270Y00869274D01*
X00108084Y00869297D01*
X00107830Y00869343D01*
X00107529Y00869436D01*
X00107228Y00869552D01*
X00106927Y00869737D01*
X00106650Y00869968D01*
X00106627Y00869991D01*
X00106534Y00870107D01*
X00106441Y00870246D01*
X00106303Y00870454D01*
X00106187Y00870732D01*
X00106071Y00871032D01*
X00105979Y00871380D01*
X00105955Y00871773D01*
Y00878622D01*
Y00878645D01*
Y00878715D01*
Y00878807D01*
X00105979Y00878923D01*
X00106025Y00879247D01*
X00106141Y00879571D01*
Y00879594D01*
X00106187Y00879640D01*
X00106210Y00879733D01*
X00106279Y00879849D01*
X00106441Y00880103D01*
X00106650Y00880381D01*
X00106673Y00880404D01*
X00106719Y00880450D01*
X00106789Y00880497D01*
X00106881Y00880589D01*
X00107136Y00880751D01*
X00107436Y00880913D01*
X00107460D01*
X00107529Y00880936D01*
X00107622Y00880983D01*
X00107737Y00881029D01*
X00107899Y00881052D01*
X00108061Y00881098D01*
X00108455Y00881121D01*
X00110931D01*
X00111069Y00881098D01*
D02*
G37*
G36*
X00090892Y00885680D02*
X00091007Y00885657D01*
X00091169Y00885610D01*
X00091331Y00885495D01*
X00091447Y00885356D01*
X00091540Y00885171D01*
X00091586Y00884893D01*
Y00884870D01*
Y00884847D01*
X00091563Y00884708D01*
X00091493Y00884523D01*
X00091355Y00884338D01*
X00091308Y00884291D01*
X00091193Y00884222D01*
X00091007Y00884153D01*
X00090753Y00884106D01*
X00085894D01*
Y00878830D01*
X00090822D01*
X00090892Y00878807D01*
X00090984D01*
X00091193Y00878715D01*
X00091285Y00878669D01*
X00091378Y00878576D01*
X00091401Y00878530D01*
X00091493Y00878414D01*
X00091563Y00878252D01*
X00091586Y00878044D01*
Y00878021D01*
Y00877998D01*
X00091563Y00877859D01*
X00091493Y00877674D01*
X00091355Y00877465D01*
X00091308Y00877419D01*
X00091193Y00877350D01*
X00091007Y00877280D01*
X00090753Y00877234D01*
X00085894D01*
Y00870038D01*
Y00870014D01*
X00085871Y00869922D01*
X00085847Y00869783D01*
X00085801Y00869644D01*
X00085685Y00869505D01*
X00085547Y00869367D01*
X00085338Y00869274D01*
X00085061Y00869251D01*
X00085014D01*
X00084852Y00869274D01*
X00084667Y00869343D01*
X00084482Y00869459D01*
X00084459Y00869505D01*
X00084390Y00869621D01*
X00084297Y00869783D01*
X00084274Y00870038D01*
Y00884870D01*
Y00884916D01*
X00084297Y00885009D01*
X00084320Y00885124D01*
X00084367Y00885286D01*
X00084459Y00885448D01*
X00084598Y00885564D01*
X00084806Y00885657D01*
X00085061Y00885703D01*
X00090799D01*
X00090892Y00885680D01*
D02*
G37*
G36*
X00079021D02*
X00079160Y00885657D01*
X00079322Y00885633D01*
X00079692Y00885541D01*
X00080109Y00885356D01*
X00080340Y00885263D01*
X00080572Y00885124D01*
X00080803Y00884962D01*
X00081034Y00884777D01*
X00081243Y00884569D01*
X00081474Y00884315D01*
X00081497D01*
X00081520Y00884268D01*
X00081636Y00884176D01*
X00081798Y00883991D01*
X00081983Y00883736D01*
X00082145Y00883412D01*
X00082307Y00883019D01*
X00082423Y00882556D01*
X00082469Y00882301D01*
Y00882024D01*
Y00879733D01*
Y00879710D01*
Y00879663D01*
Y00879594D01*
X00082446Y00879478D01*
Y00879340D01*
X00082423Y00879201D01*
X00082330Y00878830D01*
X00082214Y00878437D01*
X00082006Y00877998D01*
X00081752Y00877558D01*
X00081567Y00877350D01*
X00081382Y00877141D01*
X00081358D01*
X00081335Y00877095D01*
X00081266Y00877049D01*
X00081196Y00876979D01*
X00080965Y00876817D01*
X00080641Y00876632D01*
X00080271Y00876424D01*
X00079831Y00876262D01*
X00079322Y00876146D01*
X00079044Y00876123D01*
X00078767Y00876100D01*
X00078882D01*
X00082353Y00870431D01*
X00082376Y00870385D01*
X00082423Y00870292D01*
X00082446Y00870153D01*
X00082469Y00870038D01*
Y00870014D01*
Y00869991D01*
X00082446Y00869852D01*
X00082353Y00869667D01*
X00082307Y00869575D01*
X00082214Y00869482D01*
X00082168Y00869436D01*
X00082052Y00869367D01*
X00081867Y00869297D01*
X00081636Y00869251D01*
X00081567D01*
X00081405Y00869297D01*
X00081243Y00869367D01*
X00081173Y00869436D01*
X00081127Y00869529D01*
X00077193Y00876100D01*
X00075620D01*
Y00870038D01*
Y00870014D01*
X00075597Y00869922D01*
X00075574Y00869783D01*
X00075527Y00869644D01*
X00075412Y00869505D01*
X00075273Y00869367D01*
X00075064Y00869274D01*
X00074787Y00869251D01*
X00074741D01*
X00074578Y00869274D01*
X00074393Y00869343D01*
X00074208Y00869459D01*
X00074185Y00869505D01*
X00074116Y00869621D01*
X00074023Y00869783D01*
X00074000Y00870038D01*
Y00884870D01*
Y00884916D01*
X00074023Y00885009D01*
X00074046Y00885124D01*
X00074093Y00885286D01*
X00074185Y00885448D01*
X00074324Y00885564D01*
X00074532Y00885657D01*
X00074787Y00885703D01*
X00078929D01*
X00079021Y00885680D01*
D02*
G37*
%LPC*%
G36*
X00183889Y00884106D02*
X00182593D01*
X00182501Y00884083D01*
X00182246Y00884037D01*
X00181968Y00883944D01*
X00181945D01*
X00181899Y00883921D01*
X00181853Y00883875D01*
X00181760Y00883829D01*
X00181552Y00883690D01*
X00181320Y00883482D01*
Y00883458D01*
X00181274Y00883435D01*
X00181159Y00883297D01*
X00181020Y00883088D01*
X00180881Y00882834D01*
Y00882811D01*
X00180858Y00882764D01*
X00180835Y00882695D01*
X00180812Y00882602D01*
X00180765Y00882348D01*
X00180742Y00882024D01*
Y00872884D01*
Y00872861D01*
Y00872814D01*
Y00872722D01*
X00180765Y00872629D01*
X00180812Y00872352D01*
X00180881Y00872074D01*
Y00872051D01*
X00180904Y00872004D01*
X00180950Y00871935D01*
X00180997Y00871866D01*
X00181135Y00871634D01*
X00181320Y00871426D01*
X00181344D01*
X00181367Y00871380D01*
X00181506Y00871264D01*
X00181714Y00871125D01*
X00181968Y00870986D01*
X00181992D01*
X00182038Y00870963D01*
X00182107Y00870940D01*
X00182200Y00870917D01*
X00182454Y00870871D01*
X00182755Y00870847D01*
X00184051D01*
X00184213Y00870871D01*
X00184421Y00870917D01*
X00184653Y00870986D01*
X00184884Y00871079D01*
X00185138Y00871218D01*
X00185370Y00871403D01*
X00185393Y00871426D01*
X00185462Y00871518D01*
X00185555Y00871634D01*
X00185671Y00871796D01*
X00185786Y00872028D01*
X00185879Y00872282D01*
X00185948Y00872560D01*
X00185972Y00872884D01*
Y00882024D01*
Y00882047D01*
Y00882093D01*
Y00882163D01*
X00185948Y00882278D01*
X00185902Y00882510D01*
X00185810Y00882787D01*
Y00882811D01*
X00185786Y00882857D01*
X00185740Y00882926D01*
X00185694Y00883019D01*
X00185555Y00883227D01*
X00185347Y00883458D01*
X00185324Y00883482D01*
X00185301Y00883505D01*
X00185162Y00883620D01*
X00184953Y00883782D01*
X00184699Y00883921D01*
X00184676D01*
X00184629Y00883944D01*
X00184560Y00883991D01*
X00184468Y00884014D01*
X00184213Y00884083D01*
X00183889Y00884106D01*
D02*
G37*
G36*
X00129164Y00879525D02*
X00126665D01*
X00126503Y00879502D01*
X00126318Y00879409D01*
X00126202Y00879340D01*
X00126110Y00879247D01*
X00126064Y00879201D01*
X00125994Y00879062D01*
X00125902Y00878877D01*
X00125878Y00878738D01*
X00125855Y00878599D01*
Y00875984D01*
X00129951D01*
Y00878599D01*
Y00878622D01*
Y00878669D01*
X00129928Y00878738D01*
Y00878830D01*
X00129835Y00879039D01*
X00129766Y00879155D01*
X00129673Y00879247D01*
Y00879270D01*
X00129627Y00879293D01*
X00129488Y00879386D01*
X00129303Y00879478D01*
X00129164Y00879525D01*
D02*
G37*
G36*
X00120811D02*
X00117525D01*
X00117456Y00879502D01*
X00117386D01*
X00117178Y00879409D01*
X00117062Y00879340D01*
X00116970Y00879247D01*
X00116924Y00879201D01*
X00116854Y00879085D01*
X00116762Y00878877D01*
X00116739Y00878761D01*
X00116715Y00878622D01*
Y00871750D01*
Y00871727D01*
Y00871681D01*
X00116739Y00871611D01*
Y00871518D01*
X00116831Y00871310D01*
X00116877Y00871195D01*
X00116970Y00871102D01*
X00116993D01*
X00117016Y00871056D01*
X00117155Y00870986D01*
X00117340Y00870894D01*
X00117456Y00870871D01*
X00117595Y00870847D01*
X00120811D01*
Y00879525D01*
D02*
G37*
G36*
X00110884D02*
X00108385D01*
X00108223Y00879502D01*
X00108038Y00879409D01*
X00107922Y00879340D01*
X00107830Y00879247D01*
X00107783Y00879201D01*
X00107714Y00879085D01*
X00107622Y00878877D01*
X00107598Y00878761D01*
X00107575Y00878622D01*
Y00871750D01*
Y00871727D01*
Y00871681D01*
X00107598Y00871611D01*
Y00871518D01*
X00107691Y00871310D01*
X00107737Y00871195D01*
X00107830Y00871102D01*
X00107853D01*
X00107876Y00871056D01*
X00107992Y00870986D01*
X00108200Y00870894D01*
X00108316Y00870871D01*
X00108431Y00870847D01*
X00110815D01*
X00110884Y00870871D01*
X00110977D01*
X00111185Y00870963D01*
X00111301Y00871009D01*
X00111393Y00871102D01*
X00111416Y00871125D01*
X00111440Y00871148D01*
X00111532Y00871287D01*
X00111625Y00871472D01*
X00111671Y00871611D01*
Y00871750D01*
Y00878622D01*
Y00878645D01*
Y00878692D01*
X00111648Y00878761D01*
Y00878830D01*
X00111555Y00879039D01*
X00111486Y00879155D01*
X00111393Y00879247D01*
Y00879270D01*
X00111347Y00879293D01*
X00111208Y00879386D01*
X00111023Y00879478D01*
X00110884Y00879525D01*
D02*
G37*
G36*
X00078767Y00884106D02*
X00075620D01*
Y00877697D01*
X00078929D01*
X00079044Y00877720D01*
X00079299Y00877766D01*
X00079577Y00877835D01*
X00079600D01*
X00079646Y00877859D01*
X00079715Y00877905D01*
X00079808Y00877951D01*
X00080016Y00878090D01*
X00080225Y00878275D01*
X00080248Y00878298D01*
X00080271Y00878322D01*
X00080386Y00878483D01*
X00080548Y00878692D01*
X00080687Y00878946D01*
Y00878969D01*
X00080710Y00879016D01*
X00080734Y00879085D01*
X00080780Y00879178D01*
X00080826Y00879432D01*
X00080849Y00879733D01*
Y00882024D01*
Y00882047D01*
Y00882093D01*
Y00882163D01*
X00080826Y00882278D01*
X00080780Y00882510D01*
X00080687Y00882787D01*
Y00882811D01*
X00080664Y00882857D01*
X00080618Y00882926D01*
X00080572Y00883019D01*
X00080433Y00883227D01*
X00080225Y00883458D01*
X00080201Y00883482D01*
X00080178Y00883505D01*
X00080039Y00883620D01*
X00079831Y00883782D01*
X00079577Y00883921D01*
X00079553D01*
X00079507Y00883944D01*
X00079438Y00883991D01*
X00079345Y00884014D01*
X00079091Y00884083D01*
X00078767Y00884106D01*
D02*
G37*
%LPD*%
G36*
X00885000Y00680000D02*
Y00660000D01*
X00848000D01*
Y00680000D01*
X00848201D01*
X00884799D01*
X00885000D01*
D02*
G37*
G36*
Y00636000D02*
X00848000D01*
Y00656000D01*
X00885000D01*
Y00636000D01*
D02*
G37*
G36*
X00907000Y00619000D02*
X00888000D01*
X00888000Y00682000D01*
X00885197D01*
X00885000Y00682039D01*
X00848000D01*
X00847803Y00682000D01*
X00833197D01*
X00833000Y00682039D01*
X00777039D01*
Y00701000D01*
X00907000D01*
Y00619000D01*
D02*
G37*
G36*
X00775000Y00680000D02*
X00833000D01*
Y00120000D01*
X00453000Y00120000D01*
Y00067000D01*
X00411000D01*
X00411000Y00140000D01*
X00813000Y00140000D01*
X00812999Y00660000D01*
X00755000D01*
Y00715000D01*
X00775000D01*
Y00680000D01*
D02*
G37*
D14*
X00900000Y00626000D02*
D03*
X00880000D02*
D03*
D15*
X00881000Y00580000D02*
D03*
X00897500D02*
D03*
X00783250Y00708000D02*
D03*
X00766750D02*
D03*
X00783250Y00690000D02*
D03*
X00766750D02*
D03*
X00880750Y00418000D02*
D03*
X00897250D02*
D03*
D16*
X00798000Y00690750D02*
D03*
X00798000Y00707250D02*
D03*
X00880000Y00565250D02*
D03*
Y00548750D02*
D03*
Y00528250D02*
D03*
Y00511750D02*
D03*
X00898000D02*
D03*
Y00528250D02*
D03*
X00880000Y00432750D02*
D03*
Y00449250D02*
D03*
X00812000Y00707250D02*
D03*
Y00690750D02*
D03*
X00880000Y00464750D02*
D03*
Y00481250D02*
D03*
X00898000Y00481250D02*
D03*
Y00464750D02*
D03*
Y00432750D02*
D03*
Y00449250D02*
D03*
D17*
X00899000Y00565500D02*
D03*
X00919000Y00556000D02*
D03*
X00899000Y00546500D02*
D03*
D18*
X00900500Y00645500D02*
D03*
X00891000Y00645500D02*
D03*
X00881500Y00645500D02*
D03*
Y00672500D02*
D03*
X00891000Y00672500D02*
D03*
D19*
X00900500Y00672500D02*
D03*
D20*
X00266800Y00105700D02*
D03*
Y00080300D02*
D03*
X00292200Y00105700D02*
D03*
Y00080300D02*
D03*
X00317600Y00105700D02*
D03*
Y00080300D02*
D03*
X00343000Y00105700D02*
D03*
Y00080300D02*
D03*
X00368400Y00105700D02*
D03*
Y00080300D02*
D03*
X00393800Y00105700D02*
D03*
Y00080300D02*
D03*
X00419200Y00105700D02*
D03*
Y00080300D02*
D03*
X00444600Y00105700D02*
D03*
Y00080300D02*
D03*
X00470000Y00105700D02*
D03*
Y00080300D02*
D03*
X00495400Y00105700D02*
D03*
Y00080300D02*
D03*
X00520800Y00105700D02*
D03*
Y00080300D02*
D03*
X00546200Y00105700D02*
D03*
Y00080300D02*
D03*
X00571600Y00105700D02*
D03*
Y00080300D02*
D03*
X00597000Y00105700D02*
D03*
Y00080300D02*
D03*
X00622400Y00105700D02*
D03*
Y00080300D02*
D03*
X00647800Y00105700D02*
D03*
Y00080300D02*
D03*
X00673200Y00105700D02*
D03*
Y00080300D02*
D03*
X00698600Y00105700D02*
D03*
Y00080300D02*
D03*
X00724000Y00105700D02*
D03*
Y00080300D02*
D03*
X00749400Y00105700D02*
D03*
Y00080300D02*
D03*
X00774800Y00105700D02*
D03*
Y00080300D02*
D03*
X00216000Y00105700D02*
D03*
X00190600D02*
D03*
X00216000Y00080300D02*
D03*
X00190600D02*
D03*
X00165200D02*
D03*
X00241400Y00105700D02*
D03*
Y00080300D02*
D03*
X00679100Y00595100D02*
D03*
Y00620500D02*
D03*
Y00544300D02*
D03*
Y00493500D02*
D03*
X00679100Y00569700D02*
D03*
Y00518900D02*
D03*
Y00645900D02*
D03*
X00856900Y00620500D02*
D03*
X00679100Y00239500D02*
D03*
Y00214100D02*
D03*
Y00264900D02*
D03*
Y00391900D02*
D03*
Y00366500D02*
D03*
X00856900Y00391900D02*
D03*
X00679100Y00188700D02*
D03*
Y00341100D02*
D03*
X00856900Y00493500D02*
D03*
Y00366500D02*
D03*
Y00341100D02*
D03*
Y00442700D02*
D03*
Y00417300D02*
D03*
Y00645900D02*
D03*
Y00569700D02*
D03*
Y00671300D02*
D03*
X00856900Y00595100D02*
D03*
X00856900Y00544300D02*
D03*
Y00518900D02*
D03*
X00856900Y00468100D02*
D03*
X00856900Y00214100D02*
D03*
Y00188700D02*
D03*
X00538000Y00584100D02*
D03*
Y00482500D02*
D03*
Y00558700D02*
D03*
X00402000Y00482500D02*
D03*
Y00507900D02*
D03*
Y00533300D02*
D03*
Y00558700D02*
D03*
Y00584100D02*
D03*
Y00609500D02*
D03*
D21*
X00165200Y00105700D02*
D03*
X00679100Y00671300D02*
D03*
X00538000Y00609500D02*
D03*
D22*
X00046000Y00095500D02*
D03*
Y00020500D02*
D03*
X00096000D02*
D03*
Y00095500D02*
D03*
X00894000Y00020500D02*
D03*
Y00095500D02*
D03*
X00844000D02*
D03*
Y00020500D02*
D03*
X00046000Y00799500D02*
D03*
Y00724500D02*
D03*
X00096000D02*
D03*
Y00799500D02*
D03*
X00894000Y00724500D02*
D03*
Y00799500D02*
D03*
X00844000D02*
D03*
Y00724500D02*
D03*
D23*
X00679100Y00468100D02*
D03*
Y00442700D02*
D03*
Y00315700D02*
D03*
X00679100Y00417300D02*
D03*
Y00290300D02*
D03*
X00856900Y00315700D02*
D03*
Y00290300D02*
D03*
Y00264900D02*
D03*
X00856900Y00239500D02*
D03*
X00538000Y00507900D02*
D03*
Y00533300D02*
D03*
D24*
X00864050Y00511750D02*
X00880000D01*
X00856900Y00518900D02*
X00864050Y00511750D01*
X00863450Y00449250D02*
X00880000D01*
X00856900Y00442700D02*
X00863450Y00449250D01*
X00270000Y00125000D02*
X00297000D01*
X00303000Y00131000D02*
Y00138000D01*
X00297000Y00125000D02*
X00303000Y00131000D01*
X00266800Y00121800D02*
X00270000Y00125000D01*
X00266800Y00105700D02*
Y00121800D01*
Y00080300D02*
Y00105700D01*
X00898000Y00528250D02*
X00898250Y00528000D01*
X00908000D01*
X00898000Y00481250D02*
X00898250Y00481000D01*
X00908000D01*
X00898000Y00432750D02*
X00898250Y00433000D01*
X00908000D01*
X00798000Y00159000D02*
Y00187000D01*
X00292200Y00105700D02*
X00292200Y00105700D01*
Y00080300D02*
Y00105700D01*
X00663000Y00375800D02*
X00679100Y00391900D01*
X00663000Y00219000D02*
Y00375800D01*
X00649000Y00205000D02*
X00663000Y00219000D01*
X00569000Y00205000D02*
X00649000D01*
X00538000Y00450000D02*
Y00482500D01*
X00542000Y00482000D02*
X00542000Y00482000D01*
X00880000Y00511750D02*
X00898000D01*
X00880000Y00449250D02*
X00898000D01*
X00880000Y00464750D02*
X00898000D01*
X00861050Y00463950D02*
X00880000D01*
X00856900Y00468100D02*
X00861050Y00463950D01*
D25*
X00240000Y00228000D02*
X00315000D01*
X00334000Y00180000D02*
Y00209000D01*
X00315000Y00228000D02*
X00334000Y00209000D01*
X00219000Y00249000D02*
Y00257000D01*
Y00249000D02*
X00240000Y00228000D01*
X00219000Y00269000D02*
Y00281000D01*
Y00257000D02*
Y00269000D01*
D26*
X00223000Y00139000D02*
X00279000D01*
X00223000D02*
Y00204000D01*
X00179000Y00139000D02*
X00223000D01*
X00165200Y00105700D02*
X00165200Y00105700D01*
Y00080300D02*
Y00105700D01*
X00165200Y00105700D02*
Y00125200D01*
X00179000Y00139000D01*
D27*
X00241400Y00080300D02*
Y00105700D01*
X00216000Y00080300D02*
Y00105700D01*
X00190600Y00105700D02*
X00190600Y00105700D01*
X00190600Y00080300D02*
Y00105700D01*
X00701000Y00352000D02*
Y00362000D01*
Y00352000D02*
X00701000Y00352000D01*
X00789000D01*
X00701000Y00294000D02*
Y00362000D01*
X00563000Y00247000D02*
Y00298000D01*
X00550000Y00247000D02*
X00563000D01*
X00538000Y00235000D02*
X00550000Y00247000D01*
X00538000Y00205000D02*
Y00235000D01*
X00468000Y00456000D02*
X00498000Y00486000D01*
X00394000Y00456000D02*
X00468000D01*
X00385000Y00465000D02*
X00394000Y00456000D01*
X00385000Y00465000D02*
Y00592500D01*
X00402000Y00609500D01*
X00881000Y00418000D02*
X00881616Y00417384D01*
X00856900Y00417300D02*
X00878450D01*
X00571600Y00080300D02*
X00572250Y00080950D01*
D28*
X00867200Y00580000D02*
X00881000D01*
X00856900Y00569700D02*
X00867200Y00580000D01*
X00880034Y00565284D02*
X00898784D01*
X00877850Y00565250D02*
X00880000D01*
X00856900Y00544300D02*
X00877850Y00565250D01*
X00897500Y00567000D02*
Y00580000D01*
Y00567000D02*
X00899000Y00565500D01*
X00897250Y00408250D02*
Y00418000D01*
D29*
X00857000Y00646000D02*
X00857100Y00645900D01*
D30*
X00733000Y00328000D02*
D03*
X00470000Y00370000D02*
D03*
X00550000Y00388000D02*
D03*
Y00378000D02*
D03*
Y00368000D02*
D03*
Y00358000D02*
D03*
Y00348000D02*
D03*
Y00398000D02*
D03*
X00540000D02*
D03*
X00530000D02*
D03*
X00520000D02*
D03*
X00510000D02*
D03*
X00500000D02*
D03*
X00480000D02*
D03*
X00470000D02*
D03*
X00460000D02*
D03*
X00450000D02*
D03*
X00440000D02*
D03*
X00430000D02*
D03*
X00420000D02*
D03*
X00410000D02*
D03*
X00400000D02*
D03*
X00390000D02*
D03*
Y00388000D02*
D03*
Y00348000D02*
D03*
Y00358000D02*
D03*
Y00368000D02*
D03*
Y00378000D02*
D03*
X00490000Y00398000D02*
D03*
X00152400Y00093000D02*
D03*
X00177800D02*
D03*
X00203200D02*
D03*
X00228600D02*
D03*
X00254000D02*
D03*
X00279400D02*
D03*
X00304800D02*
D03*
X00330200D02*
D03*
X00381000D02*
D03*
X00482600D02*
D03*
X00508000D02*
D03*
X00609600D02*
D03*
X00711200D02*
D03*
X00685800D02*
D03*
X00660400D02*
D03*
X00635000D02*
D03*
X00877000Y00496000D02*
D03*
X00900000D02*
D03*
X00717000Y00059000D02*
D03*
X00732000Y00045000D02*
D03*
X00514000Y00059000D02*
D03*
X00530000Y00045000D02*
D03*
X00403000D02*
D03*
X00387000Y00059000D02*
D03*
X00869000Y00481000D02*
D03*
Y00433000D02*
D03*
X00908000Y00547000D02*
D03*
X00280000Y00068000D02*
D03*
X00306000Y00118000D02*
D03*
X00280000D02*
D03*
X00254000D02*
D03*
Y00068000D02*
D03*
X00306000D02*
D03*
X00926000Y00772000D02*
D03*
X00911000Y00742000D02*
D03*
X00926000Y00712000D02*
D03*
Y00652000D02*
D03*
Y00592000D02*
D03*
Y00532000D02*
D03*
Y00472000D02*
D03*
Y00112000D02*
D03*
Y00052000D02*
D03*
X00896000Y00772000D02*
D03*
X00881000Y00742000D02*
D03*
X00896000Y00592000D02*
D03*
X00881000Y00382000D02*
D03*
X00896000Y00352000D02*
D03*
X00881000Y00322000D02*
D03*
X00896000Y00292000D02*
D03*
X00881000Y00262000D02*
D03*
X00896000Y00232000D02*
D03*
X00881000Y00202000D02*
D03*
X00896000Y00172000D02*
D03*
X00881000Y00142000D02*
D03*
X00896000Y00052000D02*
D03*
X00851000Y00862000D02*
D03*
X00866000Y00832000D02*
D03*
Y00772000D02*
D03*
Y00712000D02*
D03*
Y00532000D02*
D03*
X00851000Y00142000D02*
D03*
X00866000Y00052000D02*
D03*
X00821000Y00862000D02*
D03*
X00836000Y00832000D02*
D03*
Y00772000D02*
D03*
X00821000Y00742000D02*
D03*
X00836000Y00052000D02*
D03*
X00791000Y00862000D02*
D03*
X00806000Y00832000D02*
D03*
X00791000Y00802000D02*
D03*
X00806000Y00772000D02*
D03*
X00791000Y00742000D02*
D03*
Y00502000D02*
D03*
Y00442000D02*
D03*
Y00382000D02*
D03*
Y00262000D02*
D03*
Y00202000D02*
D03*
Y00082000D02*
D03*
Y00022000D02*
D03*
X00761000Y00862000D02*
D03*
X00776000Y00832000D02*
D03*
X00761000Y00802000D02*
D03*
X00776000Y00772000D02*
D03*
X00761000Y00742000D02*
D03*
X00776000Y00532000D02*
D03*
Y00472000D02*
D03*
Y00412000D02*
D03*
Y00232000D02*
D03*
X00761000Y00202000D02*
D03*
Y00022000D02*
D03*
X00731000Y00862000D02*
D03*
X00746000Y00832000D02*
D03*
X00731000Y00802000D02*
D03*
X00746000Y00772000D02*
D03*
X00731000Y00742000D02*
D03*
Y00682000D02*
D03*
X00746000Y00652000D02*
D03*
X00731000Y00622000D02*
D03*
X00746000Y00592000D02*
D03*
X00731000Y00562000D02*
D03*
X00746000Y00532000D02*
D03*
X00731000Y00502000D02*
D03*
X00746000Y00472000D02*
D03*
X00731000Y00442000D02*
D03*
X00746000Y00412000D02*
D03*
Y00232000D02*
D03*
X00731000Y00202000D02*
D03*
Y00022000D02*
D03*
X00701000Y00862000D02*
D03*
X00716000Y00832000D02*
D03*
X00701000Y00802000D02*
D03*
X00716000Y00772000D02*
D03*
X00701000Y00742000D02*
D03*
Y00682000D02*
D03*
X00716000Y00652000D02*
D03*
X00701000Y00622000D02*
D03*
X00716000Y00592000D02*
D03*
X00701000Y00562000D02*
D03*
X00716000Y00532000D02*
D03*
X00701000Y00502000D02*
D03*
X00716000Y00472000D02*
D03*
X00701000Y00442000D02*
D03*
X00716000Y00412000D02*
D03*
X00701000Y00382000D02*
D03*
Y00262000D02*
D03*
X00716000Y00232000D02*
D03*
X00701000Y00202000D02*
D03*
Y00022000D02*
D03*
X00671000Y00862000D02*
D03*
X00686000Y00832000D02*
D03*
X00671000Y00802000D02*
D03*
X00686000Y00772000D02*
D03*
X00671000Y00742000D02*
D03*
X00686000Y00532000D02*
D03*
Y00052000D02*
D03*
X00671000Y00022000D02*
D03*
X00641000Y00862000D02*
D03*
X00656000Y00832000D02*
D03*
X00641000Y00802000D02*
D03*
X00656000Y00772000D02*
D03*
X00641000Y00742000D02*
D03*
X00656000Y00652000D02*
D03*
X00641000Y00622000D02*
D03*
Y00562000D02*
D03*
X00656000Y00532000D02*
D03*
X00641000Y00502000D02*
D03*
Y00262000D02*
D03*
X00656000Y00052000D02*
D03*
X00641000Y00022000D02*
D03*
X00611000Y00862000D02*
D03*
X00626000Y00832000D02*
D03*
X00611000Y00802000D02*
D03*
X00626000Y00772000D02*
D03*
X00611000Y00742000D02*
D03*
X00626000Y00712000D02*
D03*
Y00652000D02*
D03*
X00611000Y00622000D02*
D03*
Y00562000D02*
D03*
X00626000Y00532000D02*
D03*
X00611000Y00502000D02*
D03*
Y00442000D02*
D03*
X00626000Y00412000D02*
D03*
X00611000Y00382000D02*
D03*
Y00322000D02*
D03*
X00626000Y00052000D02*
D03*
X00611000Y00022000D02*
D03*
X00581000Y00862000D02*
D03*
X00596000Y00832000D02*
D03*
X00581000Y00802000D02*
D03*
X00596000Y00772000D02*
D03*
X00581000Y00742000D02*
D03*
X00596000Y00712000D02*
D03*
Y00652000D02*
D03*
X00581000Y00622000D02*
D03*
Y00562000D02*
D03*
X00596000Y00532000D02*
D03*
X00581000Y00502000D02*
D03*
Y00442000D02*
D03*
Y00382000D02*
D03*
X00596000Y00352000D02*
D03*
X00581000Y00322000D02*
D03*
X00596000Y00292000D02*
D03*
Y00052000D02*
D03*
X00581000Y00022000D02*
D03*
X00566000Y00832000D02*
D03*
Y00772000D02*
D03*
Y00712000D02*
D03*
Y00652000D02*
D03*
Y00592000D02*
D03*
X00551000Y00562000D02*
D03*
X00566000Y00532000D02*
D03*
X00551000Y00442000D02*
D03*
X00566000Y00352000D02*
D03*
X00551000Y00322000D02*
D03*
X00566000Y00172000D02*
D03*
X00551000Y00022000D02*
D03*
X00536000Y00652000D02*
D03*
X00521000Y00442000D02*
D03*
X00536000Y00352000D02*
D03*
X00521000Y00022000D02*
D03*
X00506000Y00652000D02*
D03*
X00491000Y00442000D02*
D03*
X00506000Y00352000D02*
D03*
X00491000Y00322000D02*
D03*
Y00262000D02*
D03*
Y00022000D02*
D03*
X00476000Y00652000D02*
D03*
X00461000Y00442000D02*
D03*
X00476000Y00292000D02*
D03*
X00461000Y00262000D02*
D03*
X00476000Y00052000D02*
D03*
X00461000Y00022000D02*
D03*
X00446000Y00472000D02*
D03*
X00431000Y00442000D02*
D03*
X00446000Y00352000D02*
D03*
X00431000Y00022000D02*
D03*
X00416000Y00592000D02*
D03*
Y00472000D02*
D03*
X00401000Y00442000D02*
D03*
X00416000Y00352000D02*
D03*
X00401000Y00322000D02*
D03*
Y00262000D02*
D03*
Y00202000D02*
D03*
Y00142000D02*
D03*
Y00022000D02*
D03*
X00371000Y00862000D02*
D03*
Y00802000D02*
D03*
Y00742000D02*
D03*
X00386000Y00652000D02*
D03*
X00371000Y00622000D02*
D03*
Y00562000D02*
D03*
Y00502000D02*
D03*
Y00442000D02*
D03*
Y00382000D02*
D03*
Y00322000D02*
D03*
X00386000Y00292000D02*
D03*
X00371000Y00262000D02*
D03*
X00386000Y00232000D02*
D03*
X00371000Y00202000D02*
D03*
Y00142000D02*
D03*
Y00022000D02*
D03*
X00341000Y00862000D02*
D03*
X00356000Y00832000D02*
D03*
X00341000Y00802000D02*
D03*
X00356000Y00772000D02*
D03*
X00341000Y00742000D02*
D03*
X00356000Y00712000D02*
D03*
Y00652000D02*
D03*
X00341000Y00622000D02*
D03*
X00356000Y00592000D02*
D03*
X00341000Y00562000D02*
D03*
X00356000Y00532000D02*
D03*
X00341000Y00502000D02*
D03*
X00356000Y00472000D02*
D03*
X00341000Y00442000D02*
D03*
Y00382000D02*
D03*
X00356000Y00352000D02*
D03*
X00341000Y00322000D02*
D03*
X00356000Y00292000D02*
D03*
X00341000Y00262000D02*
D03*
X00356000Y00232000D02*
D03*
X00341000Y00142000D02*
D03*
X00356000Y00052000D02*
D03*
X00341000Y00022000D02*
D03*
X00311000Y00862000D02*
D03*
X00326000Y00832000D02*
D03*
X00311000Y00802000D02*
D03*
X00326000Y00772000D02*
D03*
X00311000Y00742000D02*
D03*
X00326000Y00712000D02*
D03*
Y00652000D02*
D03*
X00311000Y00622000D02*
D03*
X00326000Y00592000D02*
D03*
X00311000Y00562000D02*
D03*
X00326000Y00532000D02*
D03*
X00311000Y00502000D02*
D03*
X00326000Y00472000D02*
D03*
X00311000Y00442000D02*
D03*
Y00382000D02*
D03*
X00326000Y00352000D02*
D03*
X00311000Y00322000D02*
D03*
X00326000Y00292000D02*
D03*
X00311000Y00262000D02*
D03*
X00326000Y00052000D02*
D03*
X00311000Y00022000D02*
D03*
X00281000Y00862000D02*
D03*
X00296000Y00832000D02*
D03*
X00281000Y00802000D02*
D03*
X00296000Y00772000D02*
D03*
X00281000Y00742000D02*
D03*
X00296000Y00712000D02*
D03*
Y00652000D02*
D03*
X00281000Y00622000D02*
D03*
X00296000Y00592000D02*
D03*
X00281000Y00562000D02*
D03*
X00296000Y00532000D02*
D03*
X00281000Y00502000D02*
D03*
X00296000Y00472000D02*
D03*
X00281000Y00442000D02*
D03*
X00296000Y00412000D02*
D03*
Y00352000D02*
D03*
Y00292000D02*
D03*
Y00052000D02*
D03*
X00281000Y00022000D02*
D03*
X00251000Y00862000D02*
D03*
X00266000Y00832000D02*
D03*
X00251000Y00802000D02*
D03*
X00266000Y00772000D02*
D03*
X00251000Y00742000D02*
D03*
X00266000Y00712000D02*
D03*
X00251000Y00682000D02*
D03*
Y00622000D02*
D03*
X00266000Y00592000D02*
D03*
X00251000Y00562000D02*
D03*
X00266000Y00532000D02*
D03*
X00251000Y00502000D02*
D03*
X00266000Y00472000D02*
D03*
X00251000Y00442000D02*
D03*
X00266000Y00412000D02*
D03*
X00251000Y00382000D02*
D03*
X00266000Y00352000D02*
D03*
X00251000Y00322000D02*
D03*
X00266000Y00292000D02*
D03*
X00251000Y00262000D02*
D03*
X00266000Y00052000D02*
D03*
X00251000Y00022000D02*
D03*
X00221000Y00862000D02*
D03*
X00236000Y00832000D02*
D03*
X00221000Y00802000D02*
D03*
X00236000Y00772000D02*
D03*
X00221000Y00742000D02*
D03*
X00236000Y00712000D02*
D03*
X00221000Y00682000D02*
D03*
X00236000Y00592000D02*
D03*
Y00532000D02*
D03*
Y00472000D02*
D03*
Y00412000D02*
D03*
Y00352000D02*
D03*
Y00292000D02*
D03*
Y00052000D02*
D03*
X00221000Y00022000D02*
D03*
X00206000Y00832000D02*
D03*
X00191000Y00802000D02*
D03*
X00206000Y00772000D02*
D03*
X00191000Y00742000D02*
D03*
X00206000Y00712000D02*
D03*
X00191000Y00682000D02*
D03*
X00206000Y00652000D02*
D03*
X00191000Y00622000D02*
D03*
X00206000Y00592000D02*
D03*
X00191000Y00562000D02*
D03*
X00206000Y00532000D02*
D03*
X00191000Y00502000D02*
D03*
X00206000Y00472000D02*
D03*
X00191000Y00442000D02*
D03*
X00206000Y00412000D02*
D03*
X00191000Y00382000D02*
D03*
X00206000Y00352000D02*
D03*
X00191000Y00322000D02*
D03*
X00206000Y00292000D02*
D03*
X00191000Y00262000D02*
D03*
X00206000Y00232000D02*
D03*
X00191000Y00202000D02*
D03*
X00206000Y00052000D02*
D03*
X00191000Y00022000D02*
D03*
X00176000Y00832000D02*
D03*
X00161000Y00802000D02*
D03*
X00176000Y00772000D02*
D03*
X00161000Y00742000D02*
D03*
X00176000Y00712000D02*
D03*
X00161000Y00682000D02*
D03*
X00176000Y00652000D02*
D03*
X00161000Y00622000D02*
D03*
X00176000Y00592000D02*
D03*
X00161000Y00562000D02*
D03*
X00176000Y00532000D02*
D03*
X00161000Y00502000D02*
D03*
X00176000Y00472000D02*
D03*
X00161000Y00442000D02*
D03*
X00176000Y00412000D02*
D03*
X00161000Y00382000D02*
D03*
X00176000Y00352000D02*
D03*
X00161000Y00322000D02*
D03*
X00176000Y00292000D02*
D03*
X00161000Y00262000D02*
D03*
X00176000Y00232000D02*
D03*
X00161000Y00202000D02*
D03*
X00176000Y00172000D02*
D03*
Y00052000D02*
D03*
X00161000Y00022000D02*
D03*
X00146000Y00832000D02*
D03*
X00131000Y00802000D02*
D03*
X00146000Y00772000D02*
D03*
X00131000Y00742000D02*
D03*
X00146000Y00712000D02*
D03*
X00131000Y00682000D02*
D03*
X00146000Y00652000D02*
D03*
X00131000Y00622000D02*
D03*
X00146000Y00592000D02*
D03*
X00131000Y00562000D02*
D03*
X00146000Y00532000D02*
D03*
X00131000Y00502000D02*
D03*
X00146000Y00472000D02*
D03*
X00131000Y00442000D02*
D03*
X00146000Y00412000D02*
D03*
X00131000Y00382000D02*
D03*
X00146000Y00352000D02*
D03*
X00131000Y00322000D02*
D03*
X00146000Y00292000D02*
D03*
X00131000Y00262000D02*
D03*
X00146000Y00232000D02*
D03*
X00131000Y00202000D02*
D03*
X00146000Y00172000D02*
D03*
X00131000Y00142000D02*
D03*
Y00082000D02*
D03*
X00146000Y00052000D02*
D03*
X00131000Y00022000D02*
D03*
X00116000Y00832000D02*
D03*
Y00772000D02*
D03*
Y00712000D02*
D03*
X00101000Y00682000D02*
D03*
X00116000Y00652000D02*
D03*
X00101000Y00622000D02*
D03*
X00116000Y00592000D02*
D03*
X00101000Y00562000D02*
D03*
X00116000Y00532000D02*
D03*
X00101000Y00502000D02*
D03*
X00116000Y00472000D02*
D03*
X00101000Y00442000D02*
D03*
X00116000Y00412000D02*
D03*
X00101000Y00382000D02*
D03*
X00116000Y00352000D02*
D03*
X00101000Y00322000D02*
D03*
X00116000Y00292000D02*
D03*
X00101000Y00262000D02*
D03*
X00116000Y00232000D02*
D03*
X00101000Y00202000D02*
D03*
X00116000Y00172000D02*
D03*
X00101000Y00142000D02*
D03*
X00116000Y00112000D02*
D03*
Y00052000D02*
D03*
X00086000Y00832000D02*
D03*
X00071000Y00802000D02*
D03*
X00086000Y00772000D02*
D03*
X00071000Y00742000D02*
D03*
Y00682000D02*
D03*
X00086000Y00652000D02*
D03*
X00071000Y00622000D02*
D03*
X00086000Y00592000D02*
D03*
X00071000Y00562000D02*
D03*
X00086000Y00532000D02*
D03*
X00071000Y00502000D02*
D03*
X00086000Y00472000D02*
D03*
X00071000Y00442000D02*
D03*
X00086000Y00412000D02*
D03*
X00071000Y00382000D02*
D03*
X00086000Y00352000D02*
D03*
X00071000Y00322000D02*
D03*
X00086000Y00292000D02*
D03*
X00071000Y00262000D02*
D03*
X00086000Y00232000D02*
D03*
X00071000Y00202000D02*
D03*
X00086000Y00172000D02*
D03*
X00071000Y00142000D02*
D03*
Y00082000D02*
D03*
X00086000Y00052000D02*
D03*
X00071000Y00022000D02*
D03*
X00056000Y00772000D02*
D03*
X00041000Y00682000D02*
D03*
X00056000Y00652000D02*
D03*
X00041000Y00622000D02*
D03*
X00056000Y00592000D02*
D03*
X00041000Y00562000D02*
D03*
X00056000Y00532000D02*
D03*
X00041000Y00502000D02*
D03*
X00056000Y00472000D02*
D03*
X00041000Y00442000D02*
D03*
X00056000Y00412000D02*
D03*
X00041000Y00382000D02*
D03*
X00056000Y00352000D02*
D03*
X00041000Y00322000D02*
D03*
X00056000Y00292000D02*
D03*
X00041000Y00262000D02*
D03*
X00056000Y00232000D02*
D03*
X00041000Y00202000D02*
D03*
X00056000Y00172000D02*
D03*
X00041000Y00142000D02*
D03*
X00056000Y00052000D02*
D03*
X00011000Y00802000D02*
D03*
X00026000Y00772000D02*
D03*
X00011000Y00742000D02*
D03*
X00026000Y00712000D02*
D03*
X00011000Y00682000D02*
D03*
X00026000Y00652000D02*
D03*
X00011000Y00622000D02*
D03*
X00026000Y00592000D02*
D03*
X00011000Y00562000D02*
D03*
X00026000Y00532000D02*
D03*
X00011000Y00502000D02*
D03*
X00026000Y00472000D02*
D03*
X00011000Y00442000D02*
D03*
X00026000Y00412000D02*
D03*
X00011000Y00382000D02*
D03*
X00026000Y00352000D02*
D03*
X00011000Y00322000D02*
D03*
X00026000Y00292000D02*
D03*
X00011000Y00262000D02*
D03*
X00026000Y00232000D02*
D03*
X00011000Y00202000D02*
D03*
X00026000Y00172000D02*
D03*
X00011000Y00142000D02*
D03*
X00026000Y00112000D02*
D03*
X00011000Y00082000D02*
D03*
X00026000Y00052000D02*
D03*
X00011000Y00022000D02*
D03*
X00318000Y00165000D02*
D03*
X00279000Y00183000D02*
D03*
X00190000Y00150000D02*
D03*
X00234000D02*
D03*
X00211000Y00191000D02*
D03*
X00334000Y00204000D02*
D03*
Y00192000D02*
D03*
Y00180000D02*
D03*
X00240000Y00228000D02*
D03*
X00223000Y00204000D02*
D03*
X00279000Y00139000D02*
D03*
X00152444Y00134444D02*
D03*
X00168000Y00150000D02*
D03*
X00190000Y00128000D02*
D03*
X00234000D02*
D03*
X00212000D02*
D03*
X00463000Y00600000D02*
D03*
X00560000Y00480000D02*
D03*
X00514000D02*
D03*
X00470000Y00489000D02*
D03*
X00812000Y00717000D02*
D03*
X00798000D02*
D03*
X00783000D02*
D03*
X00839000Y00583000D02*
D03*
X00807000D02*
D03*
X00791000Y00368000D02*
D03*
X00717000Y00383000D02*
D03*
X00722000Y00259000D02*
D03*
X00712000Y00269000D02*
D03*
X00704000Y00283000D02*
D03*
X00714000Y00313000D02*
D03*
X00756000Y00320000D02*
D03*
Y00336000D02*
D03*
X00434000Y00502000D02*
D03*
X00437000Y00657000D02*
D03*
X00425000D02*
D03*
X00413000D02*
D03*
X00401000D02*
D03*
X00472000Y00631000D02*
D03*
X00463000Y00621000D02*
D03*
X00499000Y00214000D02*
D03*
X00498000Y00198000D02*
D03*
X00464000Y00215000D02*
D03*
X00430000Y00204000D02*
D03*
X00412000Y00164000D02*
D03*
X00409000Y00323000D02*
D03*
X00437000D02*
D03*
Y00339000D02*
D03*
X00503000D02*
D03*
X00577000Y00236000D02*
D03*
X00531000Y00164000D02*
D03*
X00897000Y00408000D02*
D03*
X00908000Y00433000D02*
D03*
Y00528000D02*
D03*
Y00481000D02*
D03*
X00798000Y00187000D02*
D03*
Y00159000D02*
D03*
X00839000Y00282000D02*
D03*
X00219000Y00257000D02*
D03*
Y00269000D02*
D03*
Y00281000D02*
D03*
X00303000Y00138000D02*
D03*
X00789000Y00352000D02*
D03*
X00569000Y00205000D02*
D03*
X00807000Y00222000D02*
D03*
X00563000Y00298000D02*
D03*
X00538000Y00205000D02*
D03*
X00563000Y00247000D02*
D03*
X00807000Y00642000D02*
D03*
Y00612000D02*
D03*
Y00552000D02*
D03*
Y00522000D02*
D03*
Y00492000D02*
D03*
Y00462000D02*
D03*
Y00432000D02*
D03*
Y00402000D02*
D03*
Y00372000D02*
D03*
Y00342000D02*
D03*
Y00312000D02*
D03*
Y00282000D02*
D03*
Y00252000D02*
D03*
X00839000Y00342000D02*
D03*
Y00372000D02*
D03*
Y00402000D02*
D03*
Y00432000D02*
D03*
Y00462000D02*
D03*
Y00492000D02*
D03*
Y00522000D02*
D03*
Y00552000D02*
D03*
Y00612000D02*
D03*
Y00642000D02*
D03*
Y00672000D02*
D03*
X00498000Y00486000D02*
D03*
X00538000Y00450000D02*
D03*
X00701000Y00362000D02*
D03*
Y00294000D02*
D03*
X00522000Y00510000D02*
D03*
X00417000Y00554000D02*
D03*
X00523000Y00598000D02*
D03*
X00522000Y00554000D02*
D03*
M02*
