G04*
G04 #@! TF.GenerationSoftware,Altium Limited,Altium Designer,22.1.2 (22)*
G04*
G04 Layer_Physical_Order=2*
G04 Layer_Color=16711680*
%FSAX44Y44*%
%MOMM*%
G71*
G04*
G04 #@! TF.SameCoordinates,84EC4855-0AA3-41C5-BBCE-46EE62212C49*
G04*
G04*
G04 #@! TF.FilePolarity,Positive*
G04*
G01*
G75*
%ADD15R,0.8000X0.8000*%
%ADD16R,0.8000X0.8000*%
%ADD17R,0.9500X0.8000*%
%ADD20C,1.6000*%
G04:AMPARAMS|DCode=21|XSize=1.6mm|YSize=1.6mm|CornerRadius=0.4mm|HoleSize=0mm|Usage=FLASHONLY|Rotation=0.000|XOffset=0mm|YOffset=0mm|HoleType=Round|Shape=RoundedRectangle|*
%AMROUNDEDRECTD21*
21,1,1.6000,0.8000,0,0,0.0*
21,1,0.8000,1.6000,0,0,0.0*
1,1,0.8000,0.4000,-0.4000*
1,1,0.8000,-0.4000,-0.4000*
1,1,0.8000,-0.4000,0.4000*
1,1,0.8000,0.4000,0.4000*
%
%ADD21ROUNDEDRECTD21*%
%ADD22O,3.8000X2.9000*%
%ADD23O,1.6000X1.5000*%
%ADD24C,0.3000*%
%ADD25C,1.5000*%
%ADD26C,1.0000*%
%ADD27C,0.5000*%
%ADD28C,0.8000*%
%ADD29C,0.4000*%
%ADD30C,0.6500*%
%ADD31R,1.1500X0.4500*%
G04:AMPARAMS|DCode=32|XSize=1.15mm|YSize=0.45mm|CornerRadius=0.1125mm|HoleSize=0mm|Usage=FLASHONLY|Rotation=180.000|XOffset=0mm|YOffset=0mm|HoleType=Round|Shape=RoundedRectangle|*
%AMROUNDEDRECTD32*
21,1,1.1500,0.2250,0,0,180.0*
21,1,0.9250,0.4500,0,0,180.0*
1,1,0.2250,-0.4625,0.1125*
1,1,0.2250,0.4625,0.1125*
1,1,0.2250,0.4625,-0.1125*
1,1,0.2250,-0.4625,-0.1125*
%
%ADD32ROUNDEDRECTD32*%
%ADD33R,1.4000X0.8000*%
%ADD34R,0.6000X1.5500*%
G04:AMPARAMS|DCode=35|XSize=1.55mm|YSize=0.6mm|CornerRadius=0.15mm|HoleSize=0mm|Usage=FLASHONLY|Rotation=270.000|XOffset=0mm|YOffset=0mm|HoleType=Round|Shape=RoundedRectangle|*
%AMROUNDEDRECTD35*
21,1,1.5500,0.3000,0,0,270.0*
21,1,1.2500,0.6000,0,0,270.0*
1,1,0.3000,-0.1500,-0.6250*
1,1,0.3000,-0.1500,0.6250*
1,1,0.3000,0.1500,0.6250*
1,1,0.3000,0.1500,-0.6250*
%
%ADD35ROUNDEDRECTD35*%
%ADD36R,5.5000X2.0000*%
%ADD37R,1.9000X0.6000*%
G04:AMPARAMS|DCode=38|XSize=1.9mm|YSize=0.6mm|CornerRadius=0.15mm|HoleSize=0mm|Usage=FLASHONLY|Rotation=0.000|XOffset=0mm|YOffset=0mm|HoleType=Round|Shape=RoundedRectangle|*
%AMROUNDEDRECTD38*
21,1,1.9000,0.3000,0,0,0.0*
21,1,1.6000,0.6000,0,0,0.0*
1,1,0.3000,0.8000,-0.1500*
1,1,0.3000,-0.8000,-0.1500*
1,1,0.3000,-0.8000,0.1500*
1,1,0.3000,0.8000,0.1500*
%
%ADD38ROUNDEDRECTD38*%
%ADD39R,1.3000X1.0000*%
%ADD40C,0.4500*%
%ADD41C,0.7500*%
G36*
X00370000Y00894902D02*
X00370975D01*
X00372888Y00894522D01*
X00374690Y00893775D01*
X00376312Y00892691D01*
X00377691Y00891312D01*
X00378775Y00889690D01*
X00379522Y00887888D01*
X00379902Y00885975D01*
X00379902Y00885000D01*
Y00714000D01*
X00379927Y00713876D01*
X00379908Y00713750D01*
X00379981Y00712280D01*
X00380072Y00711913D01*
Y00711535D01*
X00380646Y00708651D01*
X00380838Y00708187D01*
X00380936Y00707695D01*
X00382061Y00704978D01*
X00382340Y00704561D01*
X00382533Y00704097D01*
X00384166Y00701652D01*
X00384521Y00701297D01*
X00384800Y00700879D01*
X00386879Y00698800D01*
X00387297Y00698521D01*
X00387652Y00698166D01*
X00390097Y00696533D01*
X00390561Y00696340D01*
X00390978Y00696061D01*
X00393695Y00694936D01*
X00394187Y00694838D01*
X00394651Y00694646D01*
X00397535Y00694072D01*
X00397913D01*
X00398280Y00693981D01*
X00399750Y00693908D01*
X00399875Y00693927D01*
X00400000Y00693902D01*
X00540000Y00693902D01*
X00540125Y00693927D01*
X00540250Y00693908D01*
X00541720Y00693980D01*
X00542087Y00694072D01*
X00542465D01*
X00545349Y00694646D01*
X00545813Y00694838D01*
X00546305Y00694936D01*
X00549022Y00696061D01*
X00549439Y00696340D01*
X00549903Y00696533D01*
X00552348Y00698166D01*
X00552703Y00698521D01*
X00553121Y00698800D01*
X00555200Y00700879D01*
X00555479Y00701297D01*
X00555834Y00701652D01*
X00557467Y00704097D01*
X00557660Y00704561D01*
X00557939Y00704978D01*
X00559064Y00707695D01*
X00559162Y00708187D01*
X00559354Y00708651D01*
X00559928Y00711535D01*
Y00711913D01*
X00560019Y00712280D01*
X00560092Y00713750D01*
X00560073Y00713875D01*
X00560098Y00714000D01*
X00560098Y00885000D01*
Y00885975D01*
X00560478Y00887888D01*
X00561225Y00889690D01*
X00562309Y00891312D01*
X00563688Y00892691D01*
X00565309Y00893775D01*
X00567112Y00894522D01*
X00569025Y00894902D01*
X00570000Y00894902D01*
X00874902Y00894902D01*
Y00844000D01*
X00875290Y00842049D01*
X00876395Y00840395D01*
X00899395Y00817395D01*
X00901049Y00816290D01*
X00903000Y00815902D01*
X00934902D01*
X00934902Y00005098D01*
X00005098Y00005098D01*
X00005098Y00815902D01*
X00037000Y00815902D01*
X00038951Y00816290D01*
X00040605Y00817395D01*
X00063605Y00840395D01*
X00064710Y00842049D01*
X00065098Y00844000D01*
Y00894902D01*
X00370000Y00894902D01*
D02*
G37*
%LPC*%
G36*
X00858216Y00681300D02*
X00855583D01*
X00853040Y00680619D01*
X00850760Y00679302D01*
X00848898Y00677440D01*
X00847581Y00675160D01*
X00846900Y00672617D01*
Y00669984D01*
X00847581Y00667440D01*
X00848898Y00665160D01*
X00850760Y00663298D01*
X00853040Y00661982D01*
X00855583Y00661300D01*
X00858216D01*
X00860760Y00661982D01*
X00863040Y00663298D01*
X00864902Y00665160D01*
X00866218Y00667440D01*
X00866900Y00669984D01*
Y00672617D01*
X00866218Y00675160D01*
X00864902Y00677440D01*
X00863040Y00679302D01*
X00860760Y00680619D01*
X00858216Y00681300D01*
D02*
G37*
G36*
X00683100Y00681418D02*
X00675100D01*
X00672759Y00680952D01*
X00670774Y00679626D01*
X00669448Y00677641D01*
X00668982Y00675300D01*
Y00667300D01*
X00669448Y00664959D01*
X00670774Y00662974D01*
X00672759Y00661648D01*
X00675100Y00661182D01*
X00683100D01*
X00685441Y00661648D01*
X00687426Y00662974D01*
X00688752Y00664959D01*
X00689218Y00667300D01*
Y00675300D01*
X00688752Y00677641D01*
X00687426Y00679626D01*
X00685441Y00680952D01*
X00683100Y00681418D01*
D02*
G37*
G36*
X00680417Y00655900D02*
X00677784D01*
X00675240Y00655219D01*
X00672960Y00653902D01*
X00671098Y00652040D01*
X00669781Y00649760D01*
X00669100Y00647217D01*
Y00644584D01*
X00669781Y00642040D01*
X00671098Y00639760D01*
X00672960Y00637898D01*
X00675240Y00636582D01*
X00677784Y00635900D01*
X00680417D01*
X00682960Y00636582D01*
X00685240Y00637898D01*
X00687102Y00639760D01*
X00688419Y00642040D01*
X00689100Y00644584D01*
Y00647217D01*
X00688419Y00649760D01*
X00687102Y00652040D01*
X00685240Y00653902D01*
X00682960Y00655219D01*
X00680417Y00655900D01*
D02*
G37*
G36*
X00858216Y00655900D02*
X00855583D01*
X00853040Y00655219D01*
X00850760Y00653902D01*
X00848898Y00652040D01*
X00847581Y00649760D01*
X00846900Y00647217D01*
Y00644584D01*
X00847581Y00642040D01*
X00848898Y00639760D01*
X00850760Y00637898D01*
X00853040Y00636581D01*
X00855583Y00635900D01*
X00858216D01*
X00860760Y00636581D01*
X00863040Y00637898D01*
X00864902Y00639760D01*
X00866218Y00642040D01*
X00866900Y00644584D01*
Y00647217D01*
X00866218Y00649760D01*
X00864902Y00652040D01*
X00863040Y00653902D01*
X00860760Y00655219D01*
X00858216Y00655900D01*
D02*
G37*
G36*
X00858217Y00605100D02*
X00855583D01*
X00853040Y00604419D01*
X00850760Y00603102D01*
X00848898Y00601240D01*
X00847581Y00598960D01*
X00846900Y00596417D01*
Y00593783D01*
X00847581Y00591240D01*
X00848898Y00588960D01*
X00850760Y00587098D01*
X00853040Y00585782D01*
X00855583Y00585100D01*
X00858217D01*
X00860760Y00585782D01*
X00863040Y00587098D01*
X00864902Y00588960D01*
X00866218Y00591240D01*
X00866900Y00593783D01*
Y00596417D01*
X00866218Y00598960D01*
X00864902Y00601240D01*
X00863040Y00603102D01*
X00860760Y00604419D01*
X00858217Y00605100D01*
D02*
G37*
G36*
X00552000Y00632569D02*
X00499000D01*
X00497634Y00632297D01*
X00496477Y00631523D01*
X00484477Y00619523D01*
X00483703Y00618366D01*
X00483431Y00617000D01*
Y00597478D01*
X00479522Y00593569D01*
X00433750D01*
X00432384Y00593297D01*
X00431227Y00592523D01*
X00426703Y00588000D01*
X00419750D01*
Y00576000D01*
X00431750D01*
Y00582953D01*
X00434980Y00586183D01*
X00436250Y00585832D01*
Y00576000D01*
X00437662D01*
Y00574000D01*
X00436250D01*
Y00562000D01*
X00448250D01*
Y00573000D01*
X00453000D01*
Y00573000D01*
X00468500D01*
Y00586431D01*
X00471500D01*
Y00573000D01*
X00488000D01*
Y00573000D01*
X00491750D01*
Y00562000D01*
X00503750D01*
Y00574000D01*
X00502338D01*
Y00576000D01*
X00503750D01*
Y00586431D01*
X00503750Y00586431D01*
X00508250D01*
Y00576000D01*
X00510000D01*
Y00574000D01*
X00508250D01*
Y00562000D01*
X00520250D01*
Y00564431D01*
X00524522D01*
X00528198Y00560755D01*
X00528000Y00560017D01*
Y00557383D01*
X00528681Y00554840D01*
X00529998Y00552560D01*
X00531719Y00550839D01*
X00531521Y00549569D01*
X00503750D01*
Y00560000D01*
X00491750D01*
Y00558588D01*
X00488500D01*
Y00563000D01*
X00471500D01*
Y00549569D01*
X00468500D01*
Y00563000D01*
X00451500D01*
Y00557078D01*
X00448250D01*
Y00560000D01*
X00436250D01*
Y00549569D01*
X00433750D01*
X00432384Y00549297D01*
X00431227Y00548523D01*
X00426703Y00544000D01*
X00417569D01*
Y00545000D01*
X00417297Y00546366D01*
X00416523Y00547523D01*
X00410546Y00553501D01*
X00411319Y00554840D01*
X00412000Y00557383D01*
Y00560017D01*
X00411319Y00562560D01*
X00410002Y00564840D01*
X00408140Y00566702D01*
X00405860Y00568018D01*
X00403316Y00568700D01*
X00400684D01*
X00398140Y00568018D01*
X00395860Y00566702D01*
X00393998Y00564840D01*
X00392682Y00562560D01*
X00392000Y00560017D01*
Y00557383D01*
X00392682Y00554840D01*
X00393998Y00552560D01*
X00395860Y00550698D01*
X00398140Y00549381D01*
X00400000Y00548883D01*
Y00543117D01*
X00398140Y00542618D01*
X00395860Y00541302D01*
X00393998Y00539440D01*
X00392682Y00537160D01*
X00392000Y00534617D01*
Y00531983D01*
X00392682Y00529440D01*
X00393998Y00527160D01*
X00395860Y00525298D01*
X00398140Y00523982D01*
X00400684Y00523300D01*
X00403316D01*
X00405860Y00523982D01*
X00406121Y00524132D01*
X00410431Y00519822D01*
Y00515407D01*
X00409161Y00514881D01*
X00408140Y00515902D01*
X00405860Y00517219D01*
X00403316Y00517900D01*
X00400684D01*
X00398140Y00517219D01*
X00395860Y00515902D01*
X00393998Y00514040D01*
X00392682Y00511760D01*
X00392000Y00509216D01*
Y00506584D01*
X00392682Y00504040D01*
X00392832Y00503779D01*
X00387010Y00497957D01*
X00386236Y00496799D01*
X00385965Y00495433D01*
Y00476467D01*
X00386236Y00475101D01*
X00387010Y00473943D01*
X00405477Y00455477D01*
X00406634Y00454703D01*
X00408000Y00454431D01*
X00533347D01*
X00533834Y00453258D01*
X00533549Y00452974D01*
X00532750Y00451044D01*
Y00448956D01*
X00533549Y00447026D01*
X00535026Y00445549D01*
X00536956Y00444750D01*
X00539044D01*
X00540974Y00445549D01*
X00541856Y00446431D01*
X00634522D01*
X00640431Y00440522D01*
Y00304000D01*
X00640703Y00302634D01*
X00641477Y00301477D01*
X00652431Y00290522D01*
Y00211800D01*
X00652703Y00210434D01*
X00653477Y00209277D01*
X00669932Y00192821D01*
X00669781Y00192560D01*
X00669100Y00190017D01*
Y00187383D01*
X00669781Y00184840D01*
X00671098Y00182560D01*
X00672819Y00180839D01*
X00672621Y00179569D01*
X00638478D01*
X00632569Y00185478D01*
Y00386485D01*
X00632297Y00387851D01*
X00631523Y00389009D01*
X00599009Y00421523D01*
X00597851Y00422297D01*
X00596485Y00422569D01*
X00314515D01*
X00313149Y00422297D01*
X00311991Y00421523D01*
X00273477Y00383009D01*
X00272703Y00381851D01*
X00272431Y00380485D01*
Y00233478D01*
X00271147Y00232194D01*
X00258625D01*
X00257259Y00231922D01*
X00256102Y00231148D01*
X00252227Y00227273D01*
X00251453Y00226116D01*
X00251231Y00225000D01*
X00248750D01*
Y00225000D01*
X00245815D01*
X00244959Y00226253D01*
X00245250Y00226956D01*
Y00229044D01*
X00244451Y00230974D01*
X00242974Y00232451D01*
X00241044Y00233250D01*
X00238956D01*
X00237358Y00232588D01*
X00215000D01*
X00213244Y00232239D01*
X00211756Y00231244D01*
X00198756Y00218244D01*
X00197761Y00216756D01*
X00197412Y00215000D01*
Y00165000D01*
X00197761Y00163244D01*
X00198756Y00161756D01*
X00207006Y00153506D01*
X00208494Y00152511D01*
X00210250Y00152162D01*
X00217000D01*
Y00150750D01*
X00229000D01*
Y00162750D01*
X00217000D01*
Y00161338D01*
X00212150D01*
X00206588Y00166901D01*
Y00213099D01*
X00216901Y00223412D01*
X00235412D01*
Y00212000D01*
X00235761Y00210244D01*
X00236211Y00209571D01*
X00236175Y00209360D01*
X00235511Y00208333D01*
X00226091D01*
X00225974Y00208451D01*
X00224044Y00209250D01*
X00221956D01*
X00220026Y00208451D01*
X00218549Y00206974D01*
X00217750Y00205044D01*
Y00202956D01*
X00218549Y00201026D01*
X00220026Y00199549D01*
X00221956Y00198750D01*
X00224044D01*
X00225974Y00199549D01*
X00226091Y00199667D01*
X00234205D01*
X00235602Y00198270D01*
X00235157Y00197000D01*
X00234250D01*
Y00185000D01*
X00246250D01*
Y00188417D01*
X00249500D01*
Y00176819D01*
X00246000D01*
Y00179250D01*
X00234000D01*
Y00176819D01*
X00229000D01*
Y00179250D01*
X00217000D01*
Y00167250D01*
X00229000D01*
Y00169681D01*
X00234000D01*
Y00167250D01*
X00246000D01*
Y00169681D01*
X00249500D01*
Y00169000D01*
X00265000D01*
Y00175157D01*
X00265796Y00175615D01*
X00266270Y00175683D01*
X00267681Y00174272D01*
Y00167000D01*
X00265250D01*
Y00155000D01*
X00277250D01*
Y00167000D01*
X00274819D01*
Y00175750D01*
X00274547Y00177116D01*
X00273773Y00178273D01*
X00269818Y00182229D01*
X00269636Y00182470D01*
Y00183530D01*
X00269818Y00183771D01*
X00273773Y00187727D01*
X00274547Y00188884D01*
X00274819Y00190250D01*
Y00195000D01*
X00283181D01*
Y00190250D01*
X00283453Y00188884D01*
X00284227Y00187727D01*
X00288182Y00183771D01*
X00288364Y00183530D01*
Y00182470D01*
X00288182Y00182229D01*
X00284227Y00178273D01*
X00283453Y00177116D01*
X00283181Y00175750D01*
Y00167000D01*
X00280750D01*
Y00155000D01*
X00292750D01*
Y00167000D01*
X00290319D01*
Y00174272D01*
X00291730Y00175683D01*
X00293000Y00175500D01*
Y00175500D01*
X00308500D01*
Y00187820D01*
X00309770Y00188346D01*
X00312000Y00186116D01*
Y00185250D01*
X00312866D01*
X00316558Y00181558D01*
X00316558Y00181558D01*
X00317220Y00181116D01*
X00318000Y00180961D01*
X00322961D01*
Y00172000D01*
X00323116Y00171220D01*
X00323558Y00170558D01*
X00324220Y00170116D01*
X00325000Y00169961D01*
X00431961D01*
Y00160000D01*
X00432000Y00159804D01*
Y00158250D01*
X00433019D01*
X00433220Y00158116D01*
X00434000Y00157961D01*
X00445950D01*
Y00152569D01*
X00444000D01*
Y00153750D01*
X00432000D01*
Y00152569D01*
X00426000D01*
Y00153750D01*
X00414000D01*
Y00141750D01*
X00426000D01*
Y00145431D01*
X00432000D01*
Y00141750D01*
X00444000D01*
Y00145431D01*
X00445950D01*
Y00139250D01*
X00455950D01*
Y00157707D01*
X00457220Y00157825D01*
X00458153Y00156750D01*
Y00141250D01*
X00458343Y00140294D01*
X00458650Y00139835D01*
Y00139250D01*
X00459235D01*
X00459694Y00138943D01*
X00460650Y00138753D01*
X00462214D01*
Y00135821D01*
X00461429Y00135036D01*
X00360308D01*
X00360066Y00134988D01*
X00359820D01*
X00359040Y00134833D01*
X00358140Y00134460D01*
X00357478Y00134018D01*
X00357304Y00133844D01*
X00357100Y00133708D01*
X00349292Y00125900D01*
X00349156Y00125696D01*
X00348982Y00125522D01*
X00348540Y00124860D01*
X00348167Y00123960D01*
X00348012Y00123180D01*
Y00122934D01*
X00347964Y00122692D01*
Y00116304D01*
X00346867Y00115460D01*
X00346044Y00115801D01*
X00345724Y00115865D01*
X00345414Y00115970D01*
X00343326Y00116245D01*
X00343000Y00116223D01*
X00342674Y00116245D01*
X00340586Y00115970D01*
X00340276Y00115865D01*
X00339956Y00115801D01*
X00338010Y00114995D01*
X00337738Y00114814D01*
X00337445Y00114669D01*
X00335774Y00113387D01*
X00335559Y00113141D01*
X00335313Y00112926D01*
X00334031Y00111255D01*
X00333886Y00110962D01*
X00333705Y00110690D01*
X00332899Y00108744D01*
X00332835Y00108424D01*
X00332730Y00108114D01*
X00332455Y00106026D01*
X00332477Y00105700D01*
X00332455Y00105374D01*
X00332730Y00103286D01*
X00332835Y00102976D01*
X00332899Y00102656D01*
X00333705Y00100710D01*
X00333886Y00100438D01*
X00334031Y00100145D01*
X00335313Y00098474D01*
X00335559Y00098259D01*
X00335774Y00098013D01*
X00337445Y00096731D01*
X00337738Y00096586D01*
X00338010Y00096405D01*
X00339956Y00095599D01*
X00340276Y00095535D01*
X00340586Y00095430D01*
X00342674Y00095155D01*
X00343000Y00095177D01*
X00343326Y00095155D01*
X00345414Y00095430D01*
X00345724Y00095535D01*
X00346044Y00095599D01*
X00346498Y00095787D01*
X00347914Y00094371D01*
Y00091629D01*
X00346498Y00090213D01*
X00346044Y00090401D01*
X00345724Y00090465D01*
X00345414Y00090570D01*
X00343326Y00090845D01*
X00343000Y00090823D01*
X00342674Y00090845D01*
X00340586Y00090570D01*
X00340276Y00090465D01*
X00339956Y00090401D01*
X00338010Y00089595D01*
X00337738Y00089414D01*
X00337445Y00089269D01*
X00335774Y00087987D01*
X00335559Y00087741D01*
X00335313Y00087526D01*
X00334031Y00085855D01*
X00333886Y00085562D01*
X00333705Y00085290D01*
X00332899Y00083344D01*
X00332835Y00083024D01*
X00332730Y00082714D01*
X00332455Y00080626D01*
X00332477Y00080300D01*
X00332455Y00079974D01*
X00332730Y00077886D01*
X00332835Y00077576D01*
X00332899Y00077256D01*
X00333705Y00075310D01*
X00333886Y00075038D01*
X00334031Y00074745D01*
X00335313Y00073074D01*
X00335559Y00072859D01*
X00335774Y00072613D01*
X00337445Y00071331D01*
X00337738Y00071186D01*
X00338010Y00071005D01*
X00339956Y00070199D01*
X00340276Y00070135D01*
X00340586Y00070030D01*
X00342674Y00069755D01*
X00343000Y00069777D01*
X00343326Y00069755D01*
X00345414Y00070030D01*
X00345724Y00070135D01*
X00346044Y00070199D01*
X00347990Y00071005D01*
X00348262Y00071186D01*
X00348555Y00071331D01*
X00350226Y00072613D01*
X00350441Y00072859D01*
X00350687Y00073074D01*
X00351969Y00074745D01*
X00352114Y00075038D01*
X00352295Y00075310D01*
X00353101Y00077256D01*
X00353165Y00077576D01*
X00353270Y00077886D01*
X00353545Y00079974D01*
X00353523Y00080300D01*
X00353545Y00080626D01*
X00353270Y00082714D01*
X00353165Y00083024D01*
X00353101Y00083344D01*
X00352913Y00083798D01*
X00354846Y00085730D01*
X00355700Y00086504D01*
X00356554Y00085730D01*
X00358487Y00083798D01*
X00358299Y00083344D01*
X00358235Y00083024D01*
X00358130Y00082714D01*
X00357855Y00080626D01*
X00357877Y00080300D01*
X00357855Y00079974D01*
X00358130Y00077886D01*
X00358235Y00077576D01*
X00358299Y00077256D01*
X00359105Y00075310D01*
X00359286Y00075038D01*
X00359431Y00074745D01*
X00360713Y00073074D01*
X00360959Y00072859D01*
X00361174Y00072613D01*
X00362845Y00071331D01*
X00363138Y00071186D01*
X00363410Y00071005D01*
X00365356Y00070199D01*
X00365676Y00070135D01*
X00365986Y00070030D01*
X00368074Y00069755D01*
X00368400Y00069777D01*
X00368726Y00069755D01*
X00370814Y00070030D01*
X00371124Y00070135D01*
X00371444Y00070199D01*
X00373390Y00071005D01*
X00373662Y00071186D01*
X00373955Y00071331D01*
X00375626Y00072613D01*
X00375841Y00072859D01*
X00376087Y00073074D01*
X00377369Y00074745D01*
X00377514Y00075038D01*
X00377695Y00075310D01*
X00378501Y00077256D01*
X00378565Y00077576D01*
X00378670Y00077886D01*
X00378945Y00079974D01*
X00378923Y00080300D01*
X00378945Y00080626D01*
X00378670Y00082714D01*
X00378565Y00083024D01*
X00378501Y00083344D01*
X00377695Y00085290D01*
X00377514Y00085562D01*
X00377369Y00085855D01*
X00376087Y00087526D01*
X00375841Y00087741D01*
X00375626Y00087987D01*
X00373955Y00089269D01*
X00373662Y00089414D01*
X00373390Y00089595D01*
X00371444Y00090401D01*
X00371124Y00090465D01*
X00370814Y00090570D01*
X00368726Y00090845D01*
X00368400Y00090823D01*
X00368074Y00090845D01*
X00365986Y00090570D01*
X00365676Y00090465D01*
X00365356Y00090401D01*
X00364902Y00090213D01*
X00363486Y00091629D01*
Y00094371D01*
X00364902Y00095787D01*
X00365356Y00095599D01*
X00365676Y00095535D01*
X00365986Y00095430D01*
X00368074Y00095155D01*
X00368400Y00095177D01*
X00368726Y00095155D01*
X00370814Y00095430D01*
X00371124Y00095535D01*
X00371444Y00095599D01*
X00373390Y00096405D01*
X00373662Y00096587D01*
X00373955Y00096731D01*
X00375626Y00098013D01*
X00375841Y00098259D01*
X00376087Y00098474D01*
X00377369Y00100145D01*
X00377514Y00100438D01*
X00377695Y00100710D01*
X00378501Y00102656D01*
X00378565Y00102976D01*
X00378670Y00103286D01*
X00378945Y00105374D01*
X00378923Y00105700D01*
X00378945Y00106026D01*
X00378670Y00108114D01*
X00378565Y00108424D01*
X00378501Y00108744D01*
X00377695Y00110690D01*
X00377514Y00110962D01*
X00377369Y00111255D01*
X00376087Y00112926D01*
X00375841Y00113141D01*
X00375626Y00113387D01*
X00373955Y00114669D01*
X00373662Y00114814D01*
X00373390Y00114995D01*
X00371444Y00115801D01*
X00371124Y00115865D01*
X00370814Y00115970D01*
X00368726Y00116245D01*
X00368400Y00116223D01*
X00368074Y00116245D01*
X00365986Y00115970D01*
X00365676Y00115865D01*
X00365356Y00115801D01*
X00364654Y00115510D01*
X00363536Y00116362D01*
Y00118121D01*
X00364879Y00119464D01*
X00466000D01*
X00466241Y00119512D01*
X00466487D01*
X00467267Y00119667D01*
X00468168Y00120040D01*
X00468829Y00120482D01*
X00469003Y00120656D01*
X00469208Y00120792D01*
X00476457Y00128042D01*
X00476594Y00128246D01*
X00476768Y00128420D01*
X00477210Y00129082D01*
X00477455Y00129673D01*
X00477583Y00129982D01*
X00477738Y00130763D01*
Y00131009D01*
X00477786Y00131250D01*
Y00138753D01*
X00479350D01*
X00480305Y00138943D01*
X00480765Y00139250D01*
X00481350D01*
Y00139835D01*
X00481657Y00140294D01*
X00481847Y00141250D01*
Y00156750D01*
X00482780Y00157825D01*
X00484050Y00157707D01*
Y00139250D01*
X00494050D01*
Y00143932D01*
X00496000D01*
Y00141750D01*
X00508000D01*
Y00143932D01*
X00514000D01*
Y00141500D01*
X00526000D01*
Y00153500D01*
X00514000D01*
Y00151069D01*
X00508000D01*
Y00153750D01*
X00498000D01*
Y00157961D01*
X00506000D01*
X00506780Y00158116D01*
X00506981Y00158250D01*
X00508000D01*
Y00159802D01*
X00508039Y00160000D01*
Y00167961D01*
X00543000D01*
X00543780Y00168116D01*
X00544442Y00168558D01*
X00544884Y00169220D01*
X00545039Y00170000D01*
Y00225000D01*
X00544884Y00225780D01*
X00544442Y00226442D01*
X00543750Y00227000D01*
Y00239000D01*
X00531750D01*
Y00237469D01*
X00528500D01*
Y00238900D01*
X00505500D01*
Y00228900D01*
X00507000D01*
Y00227039D01*
X00506220Y00226884D01*
X00505558Y00226442D01*
X00505116Y00225780D01*
X00504961Y00225000D01*
Y00217000D01*
X00505116Y00216220D01*
X00505558Y00215558D01*
X00511961Y00209155D01*
Y00194039D01*
X00494050D01*
Y00212750D01*
X00493128D01*
Y00222950D01*
X00493128Y00222950D01*
X00492818Y00224511D01*
X00491934Y00225834D01*
X00491934Y00225834D01*
X00480984Y00236784D01*
X00479661Y00237668D01*
X00478100Y00237978D01*
X00478100Y00237978D01*
X00434500D01*
Y00238900D01*
X00411500D01*
Y00228900D01*
X00434500D01*
Y00229822D01*
X00476411D01*
X00484972Y00221261D01*
Y00213590D01*
X00483702Y00212783D01*
X00482827Y00212865D01*
X00482442Y00213442D01*
X00481780Y00213884D01*
X00481000Y00214039D01*
X00472000D01*
X00471220Y00213884D01*
X00470558Y00213442D01*
X00470116Y00212780D01*
X00469961Y00212000D01*
Y00194039D01*
X00456375D01*
X00455697Y00195309D01*
X00455747Y00195384D01*
X00456018Y00196750D01*
Y00209250D01*
X00455747Y00210616D01*
X00454973Y00211773D01*
X00454518Y00212077D01*
Y00217050D01*
X00454247Y00218416D01*
X00453473Y00219573D01*
X00449323Y00223723D01*
X00448166Y00224497D01*
X00446800Y00224769D01*
X00433827D01*
X00433523Y00225223D01*
X00432365Y00225997D01*
X00431000Y00226269D01*
X00415000D01*
X00413634Y00225997D01*
X00412477Y00225223D01*
X00411703Y00224066D01*
X00411431Y00222700D01*
Y00219700D01*
X00411703Y00218334D01*
X00412477Y00217177D01*
X00413634Y00216403D01*
X00415000Y00216131D01*
X00431000D01*
X00432365Y00216403D01*
X00433523Y00217177D01*
X00433827Y00217631D01*
X00445322D01*
X00447381Y00215572D01*
Y00212077D01*
X00446926Y00211773D01*
X00446153Y00210616D01*
X00445881Y00209250D01*
Y00196750D01*
X00446153Y00195384D01*
X00446203Y00195309D01*
X00445524Y00194039D01*
X00361845D01*
X00342442Y00213442D01*
X00341780Y00213884D01*
X00341000Y00214039D01*
X00309250D01*
Y00225000D01*
X00306819D01*
Y00225750D01*
X00306547Y00227116D01*
X00305773Y00228273D01*
X00303398Y00230648D01*
X00302241Y00231422D01*
X00300875Y00231694D01*
X00287353D01*
X00285569Y00233478D01*
Y00376522D01*
X00318478Y00409431D01*
X00592522D01*
X00619431Y00382522D01*
Y00181515D01*
X00619703Y00180149D01*
X00620477Y00178991D01*
X00631991Y00167477D01*
X00633149Y00166703D01*
X00634515Y00166431D01*
X00803000D01*
X00804366Y00166703D01*
X00805523Y00167477D01*
X00823523Y00185477D01*
X00824297Y00186634D01*
X00824569Y00188000D01*
Y00292522D01*
X00831478Y00299431D01*
X00850609D01*
X00851040Y00298161D01*
X00849625Y00297076D01*
X00848102Y00295091D01*
X00847145Y00292780D01*
X00846818Y00290300D01*
X00847145Y00287820D01*
X00848102Y00285509D01*
X00849625Y00283525D01*
X00851609Y00282002D01*
X00853920Y00281045D01*
X00856400Y00280718D01*
X00857400D01*
X00859880Y00281045D01*
X00860749Y00281404D01*
X00869431Y00272722D01*
Y00259478D01*
X00865522Y00255569D01*
X00862868D01*
X00862499Y00256839D01*
X00864175Y00258125D01*
X00865698Y00260109D01*
X00866656Y00262420D01*
X00866982Y00264900D01*
X00866656Y00267380D01*
X00865698Y00269691D01*
X00864175Y00271675D01*
X00862191Y00273198D01*
X00859880Y00274156D01*
X00857400Y00274482D01*
X00856400D01*
X00853920Y00274156D01*
X00851609Y00273198D01*
X00849625Y00271675D01*
X00848102Y00269691D01*
X00847145Y00267380D01*
X00846818Y00264900D01*
X00847055Y00263102D01*
X00833477Y00249523D01*
X00832703Y00248366D01*
X00832431Y00247000D01*
Y00182478D01*
X00805522Y00155569D01*
X00803636D01*
X00802787Y00156839D01*
X00803250Y00157956D01*
Y00160044D01*
X00802451Y00161974D01*
X00800974Y00163451D01*
X00799044Y00164250D01*
X00796956D01*
X00795026Y00163451D01*
X00794144Y00162569D01*
X00625478D01*
X00612569Y00175478D01*
Y00258000D01*
X00612297Y00259366D01*
X00611523Y00260523D01*
X00582523Y00289523D01*
X00581366Y00290297D01*
X00580000Y00290569D01*
X00566000D01*
Y00293575D01*
X00567451Y00295026D01*
X00568250Y00296956D01*
Y00299044D01*
X00567451Y00300974D01*
X00565974Y00302451D01*
X00564044Y00303250D01*
X00561956D01*
X00561520Y00303069D01*
X00560250Y00303918D01*
Y00304000D01*
X00548250D01*
Y00302000D01*
X00543750D01*
Y00304000D01*
X00531750D01*
Y00302000D01*
X00528500D01*
Y00302400D01*
X00505500D01*
Y00292400D01*
X00527000D01*
Y00289700D01*
X00505500D01*
Y00279700D01*
X00527000D01*
Y00277000D01*
X00505500D01*
Y00267000D01*
X00527000D01*
Y00264300D01*
X00505500D01*
Y00254300D01*
X00527000D01*
Y00251600D01*
X00505500D01*
Y00241600D01*
X00528500D01*
Y00243431D01*
X00531750D01*
Y00241000D01*
X00543750D01*
Y00247953D01*
X00546797Y00251000D01*
X00548250D01*
Y00241000D01*
X00560250D01*
Y00241082D01*
X00561520Y00241931D01*
X00561956Y00241750D01*
X00564044D01*
X00565974Y00242549D01*
X00567451Y00244026D01*
X00568250Y00245956D01*
Y00248044D01*
X00567451Y00249974D01*
X00567263Y00250161D01*
X00567789Y00251431D01*
X00572522D01*
X00581431Y00242522D01*
Y00162000D01*
X00581703Y00160634D01*
X00582477Y00159477D01*
X00609477Y00132477D01*
X00610634Y00131703D01*
X00612000Y00131431D01*
X00814000D01*
X00815366Y00131703D01*
X00816523Y00132477D01*
X00854478Y00170431D01*
X00863000D01*
X00864366Y00170703D01*
X00865523Y00171477D01*
X00874523Y00180477D01*
X00875297Y00181634D01*
X00875569Y00183000D01*
Y00199000D01*
X00875297Y00200366D01*
X00874523Y00201523D01*
X00866068Y00209979D01*
X00866218Y00210240D01*
X00866900Y00212784D01*
Y00215417D01*
X00866218Y00217960D01*
X00864902Y00220240D01*
X00863040Y00222102D01*
X00860760Y00223419D01*
X00858216Y00224100D01*
X00855583D01*
X00853040Y00223419D01*
X00850760Y00222102D01*
X00848898Y00220240D01*
X00847839Y00218405D01*
X00846569Y00218745D01*
Y00243522D01*
X00851478Y00248431D01*
X00867000D01*
X00868366Y00248703D01*
X00869523Y00249477D01*
X00875523Y00255477D01*
X00876297Y00256634D01*
X00876569Y00258000D01*
Y00274200D01*
X00876297Y00275566D01*
X00875523Y00276723D01*
X00866003Y00286244D01*
X00866656Y00287820D01*
X00866982Y00290300D01*
X00866656Y00292780D01*
X00865698Y00295091D01*
X00864175Y00297076D01*
X00862760Y00298161D01*
X00863191Y00299431D01*
X00864000D01*
X00865366Y00299703D01*
X00866523Y00300477D01*
X00871523Y00305477D01*
X00872297Y00306634D01*
X00872569Y00308000D01*
Y00329000D01*
X00872297Y00330366D01*
X00871523Y00331523D01*
X00866068Y00336979D01*
X00866218Y00337240D01*
X00866900Y00339784D01*
Y00342417D01*
X00866218Y00344960D01*
X00864902Y00347240D01*
X00863040Y00349102D01*
X00860760Y00350419D01*
X00858216Y00351100D01*
X00855583D01*
X00853040Y00350419D01*
X00850760Y00349102D01*
X00848898Y00347240D01*
X00847581Y00344960D01*
X00846900Y00342417D01*
Y00339784D01*
X00847581Y00337240D01*
X00848898Y00334960D01*
X00849709Y00334149D01*
X00850000Y00333000D01*
X00850000Y00333000D01*
X00850000D01*
X00850000Y00333000D01*
Y00323000D01*
X00849281Y00322028D01*
X00848102Y00320491D01*
X00847720Y00319569D01*
X00831000D01*
X00829634Y00319297D01*
X00828477Y00318523D01*
X00812477Y00302523D01*
X00811703Y00301366D01*
X00811431Y00300000D01*
Y00191478D01*
X00803717Y00183763D01*
X00802640Y00184483D01*
X00803250Y00185956D01*
Y00188044D01*
X00802451Y00189974D01*
X00801569Y00190856D01*
Y00313522D01*
X00825523Y00337477D01*
X00826297Y00338634D01*
X00826569Y00340000D01*
Y00378522D01*
X00836378Y00388331D01*
X00847503D01*
X00847581Y00388040D01*
X00848898Y00385760D01*
X00850760Y00383898D01*
X00853040Y00382581D01*
X00855583Y00381900D01*
X00858216D01*
X00860760Y00382581D01*
X00863040Y00383898D01*
X00864902Y00385760D01*
X00866218Y00388040D01*
X00866900Y00390583D01*
Y00393217D01*
X00866218Y00395760D01*
X00864902Y00398040D01*
X00863040Y00399902D01*
X00860760Y00401218D01*
X00858216Y00401900D01*
X00855583D01*
X00853040Y00401218D01*
X00850760Y00399902D01*
X00848898Y00398040D01*
X00847581Y00395760D01*
X00847503Y00395469D01*
X00834900D01*
X00833534Y00395197D01*
X00832377Y00394423D01*
X00820477Y00382523D01*
X00819703Y00381366D01*
X00819431Y00380000D01*
Y00341478D01*
X00795477Y00317523D01*
X00794703Y00316366D01*
X00794431Y00315000D01*
Y00190856D01*
X00793549Y00189974D01*
X00792750Y00188044D01*
Y00185956D01*
X00793549Y00184026D01*
X00795026Y00182549D01*
X00796956Y00181750D01*
X00799044D01*
X00800517Y00182360D01*
X00801237Y00181283D01*
X00799522Y00179569D01*
X00685579D01*
X00685381Y00180839D01*
X00687102Y00182560D01*
X00688419Y00184840D01*
X00689100Y00187383D01*
Y00190017D01*
X00688419Y00192560D01*
X00687102Y00194840D01*
X00685240Y00196702D01*
X00682960Y00198019D01*
X00680417Y00198700D01*
X00677784D01*
X00675240Y00198019D01*
X00674979Y00197868D01*
X00659569Y00213278D01*
Y00226803D01*
X00660839Y00227315D01*
X00669932Y00218221D01*
X00669781Y00217960D01*
X00669100Y00215417D01*
Y00212784D01*
X00669781Y00210240D01*
X00671098Y00207960D01*
X00672960Y00206098D01*
X00675240Y00204782D01*
X00677784Y00204100D01*
X00680416D01*
X00682960Y00204782D01*
X00685240Y00206098D01*
X00687102Y00207960D01*
X00688419Y00210240D01*
X00689100Y00212784D01*
Y00215417D01*
X00688419Y00217960D01*
X00687102Y00220240D01*
X00685240Y00222102D01*
X00682960Y00223419D01*
X00680416Y00224100D01*
X00677784D01*
X00675240Y00223419D01*
X00674979Y00223268D01*
X00666569Y00231678D01*
Y00292589D01*
X00667839Y00293115D01*
X00669208Y00291745D01*
X00669018Y00290300D01*
X00669345Y00287820D01*
X00670302Y00285509D01*
X00671825Y00283525D01*
X00673809Y00282002D01*
X00676120Y00281045D01*
X00678600Y00280718D01*
X00679600D01*
X00682080Y00281045D01*
X00684391Y00282002D01*
X00686376Y00283525D01*
X00687161Y00284549D01*
X00688431Y00284118D01*
Y00279278D01*
X00683221Y00274068D01*
X00682960Y00274219D01*
X00680416Y00274900D01*
X00677784D01*
X00675240Y00274219D01*
X00672960Y00272902D01*
X00671098Y00271040D01*
X00669781Y00268760D01*
X00669100Y00266217D01*
Y00263584D01*
X00669781Y00261040D01*
X00671098Y00258760D01*
X00672960Y00256898D01*
X00675240Y00255581D01*
X00677784Y00254900D01*
X00680416D01*
X00682960Y00255581D01*
X00685240Y00256898D01*
X00687102Y00258760D01*
X00688419Y00261040D01*
X00689100Y00263584D01*
Y00266217D01*
X00688419Y00268760D01*
X00688268Y00269021D01*
X00694523Y00275277D01*
X00695297Y00276434D01*
X00695569Y00277800D01*
Y00290328D01*
X00696839Y00290737D01*
X00698026Y00289549D01*
X00699956Y00288750D01*
X00702044D01*
X00703974Y00289549D01*
X00705451Y00291026D01*
X00706250Y00292956D01*
Y00295044D01*
X00705655Y00296480D01*
X00706140Y00297750D01*
X00707000D01*
Y00309750D01*
X00695000D01*
Y00299843D01*
X00693730Y00299317D01*
X00687523Y00305523D01*
X00686366Y00306297D01*
X00685311Y00306507D01*
X00684976Y00307334D01*
X00684960Y00307839D01*
X00686376Y00308925D01*
X00687898Y00310909D01*
X00688856Y00313220D01*
X00689182Y00315700D01*
X00689178Y00315727D01*
X00690016Y00316681D01*
X00695000D01*
Y00314250D01*
X00707000D01*
Y00316681D01*
X00710250D01*
X00711616Y00316953D01*
X00712773Y00317727D01*
X00729173Y00334127D01*
X00729947Y00335284D01*
X00730219Y00336650D01*
Y00345250D01*
X00731650D01*
Y00364750D01*
X00721650D01*
Y00345250D01*
X00723081D01*
Y00338128D01*
X00708772Y00323819D01*
X00707000D01*
Y00326250D01*
X00695000D01*
Y00323819D01*
X00684625D01*
X00684391Y00323998D01*
X00682080Y00324955D01*
X00679600Y00325282D01*
X00678600D01*
X00676120Y00324955D01*
X00673809Y00323998D01*
X00671825Y00322476D01*
X00670302Y00320491D01*
X00669345Y00318180D01*
X00669018Y00315700D01*
X00669302Y00313540D01*
X00668363Y00312932D01*
X00668171Y00312875D01*
X00666569Y00314478D01*
Y00419522D01*
X00668778Y00421732D01*
X00669855Y00421012D01*
X00669345Y00419780D01*
X00669018Y00417300D01*
X00669345Y00414820D01*
X00670302Y00412509D01*
X00671825Y00410525D01*
X00673809Y00409002D01*
X00676120Y00408045D01*
X00678600Y00407718D01*
X00679600D01*
X00682080Y00408045D01*
X00684391Y00409002D01*
X00686376Y00410525D01*
X00687898Y00412509D01*
X00688856Y00414820D01*
X00689182Y00417300D01*
X00688856Y00419780D01*
X00687898Y00422091D01*
X00686376Y00424076D01*
X00684960Y00425161D01*
X00685391Y00426431D01*
X00687000D01*
X00688366Y00426703D01*
X00689523Y00427477D01*
X00695523Y00433477D01*
X00696297Y00434634D01*
X00696569Y00436000D01*
Y00449000D01*
X00696297Y00450366D01*
X00695523Y00451523D01*
X00688523Y00458523D01*
X00687366Y00459297D01*
X00686138Y00459541D01*
X00685927Y00459927D01*
X00685742Y00460839D01*
X00686376Y00461325D01*
X00687898Y00463309D01*
X00688856Y00465620D01*
X00689182Y00468100D01*
X00688856Y00470580D01*
X00687898Y00472891D01*
X00686376Y00474875D01*
X00684391Y00476398D01*
X00682080Y00477355D01*
X00679600Y00477682D01*
X00678600D01*
X00676120Y00477355D01*
X00675251Y00476996D01*
X00667723Y00484523D01*
X00666566Y00485297D01*
X00665200Y00485569D01*
X00587478D01*
X00549029Y00524018D01*
X00547871Y00524791D01*
X00546506Y00525063D01*
X00545346D01*
X00544938Y00526266D01*
X00545275Y00526525D01*
X00546798Y00528509D01*
X00547755Y00530820D01*
X00548082Y00533300D01*
X00547755Y00535780D01*
X00546798Y00538091D01*
X00545275Y00540075D01*
X00543860Y00541161D01*
X00544291Y00542431D01*
X00650522D01*
X00669932Y00523021D01*
X00669781Y00522760D01*
X00669100Y00520216D01*
Y00517584D01*
X00669781Y00515040D01*
X00671098Y00512760D01*
X00672960Y00510898D01*
X00675240Y00509581D01*
X00677784Y00508900D01*
X00680417D01*
X00682960Y00509581D01*
X00685240Y00510898D01*
X00687102Y00512760D01*
X00688419Y00515040D01*
X00689100Y00517584D01*
Y00520216D01*
X00688419Y00522760D01*
X00687102Y00525040D01*
X00685240Y00526902D01*
X00682960Y00528218D01*
X00680417Y00528900D01*
X00677784D01*
X00675240Y00528218D01*
X00674979Y00528068D01*
X00654523Y00548523D01*
X00653366Y00549297D01*
X00652000Y00549569D01*
X00544479D01*
X00544281Y00550839D01*
X00546002Y00552560D01*
X00547318Y00554840D01*
X00548000Y00557383D01*
Y00560017D01*
X00547318Y00562560D01*
X00546002Y00564840D01*
X00544140Y00566702D01*
X00543344Y00567161D01*
X00543685Y00568431D01*
X00649922D01*
X00669932Y00548421D01*
X00669781Y00548160D01*
X00669100Y00545617D01*
Y00542984D01*
X00669781Y00540440D01*
X00671098Y00538160D01*
X00672960Y00536298D01*
X00675240Y00534981D01*
X00677784Y00534300D01*
X00680416D01*
X00682960Y00534981D01*
X00685240Y00536298D01*
X00687102Y00538160D01*
X00688419Y00540440D01*
X00689100Y00542984D01*
Y00545617D01*
X00688419Y00548160D01*
X00687102Y00550440D01*
X00685240Y00552302D01*
X00682960Y00553619D01*
X00680416Y00554300D01*
X00677784D01*
X00675240Y00553619D01*
X00674979Y00553468D01*
X00653923Y00574523D01*
X00652766Y00575297D01*
X00651400Y00575569D01*
X00545407D01*
X00544881Y00576839D01*
X00546002Y00577960D01*
X00547318Y00580240D01*
X00548000Y00582784D01*
Y00585416D01*
X00547318Y00587960D01*
X00546002Y00590240D01*
X00544140Y00592102D01*
X00541860Y00593419D01*
X00539316Y00594100D01*
X00536684D01*
X00534140Y00593419D01*
X00531860Y00592102D01*
X00530902Y00591144D01*
X00529523Y00592523D01*
X00528366Y00593297D01*
X00527000Y00593569D01*
X00505228D01*
X00503750Y00595047D01*
Y00604000D01*
X00501319D01*
Y00606000D01*
X00520250D01*
Y00618000D01*
X00520196D01*
X00519517Y00619270D01*
X00519624Y00619431D01*
X00547522D01*
X00579477Y00587477D01*
X00580634Y00586703D01*
X00582000Y00586431D01*
X00657322D01*
X00669932Y00573821D01*
X00669781Y00573560D01*
X00669100Y00571017D01*
Y00568383D01*
X00669781Y00565840D01*
X00671098Y00563560D01*
X00672960Y00561698D01*
X00675240Y00560382D01*
X00677784Y00559700D01*
X00680417D01*
X00682960Y00560382D01*
X00685240Y00561698D01*
X00687102Y00563560D01*
X00688419Y00565840D01*
X00689100Y00568383D01*
Y00571017D01*
X00688419Y00573560D01*
X00687102Y00575840D01*
X00685240Y00577702D01*
X00682960Y00579019D01*
X00680417Y00579700D01*
X00677784D01*
X00675240Y00579019D01*
X00674979Y00578868D01*
X00663489Y00590358D01*
X00663975Y00591531D01*
X00669704D01*
X00669781Y00591240D01*
X00671098Y00588960D01*
X00672960Y00587098D01*
X00675240Y00585782D01*
X00677784Y00585100D01*
X00680416D01*
X00682960Y00585782D01*
X00685240Y00587098D01*
X00687102Y00588960D01*
X00688419Y00591240D01*
X00689100Y00593783D01*
Y00596417D01*
X00688419Y00598960D01*
X00687102Y00601240D01*
X00685240Y00603102D01*
X00682960Y00604418D01*
X00680416Y00605100D01*
X00677784D01*
X00675240Y00604418D01*
X00672960Y00603102D01*
X00671098Y00601240D01*
X00669781Y00598960D01*
X00669704Y00598669D01*
X00587378D01*
X00554523Y00631523D01*
X00553366Y00632297D01*
X00552000Y00632569D01*
D02*
G37*
G36*
X00403316Y00594100D02*
X00400684D01*
X00398140Y00593419D01*
X00395860Y00592102D01*
X00393998Y00590240D01*
X00392682Y00587960D01*
X00392000Y00585416D01*
Y00582784D01*
X00392682Y00580240D01*
X00393998Y00577960D01*
X00395860Y00576098D01*
X00398140Y00574781D01*
X00400684Y00574100D01*
X00403316D01*
X00405860Y00574781D01*
X00406121Y00574932D01*
X00415577Y00565477D01*
X00416734Y00564703D01*
X00418100Y00564431D01*
X00419750D01*
Y00562000D01*
X00431750D01*
Y00574000D01*
X00419750D01*
Y00573193D01*
X00418480Y00572667D01*
X00411168Y00579979D01*
X00411319Y00580240D01*
X00412000Y00582784D01*
Y00585416D01*
X00411319Y00587960D01*
X00410002Y00590240D01*
X00408140Y00592102D01*
X00405860Y00593419D01*
X00403316Y00594100D01*
D02*
G37*
G36*
X00858216Y00554300D02*
X00855583D01*
X00853040Y00553619D01*
X00850760Y00552302D01*
X00848898Y00550440D01*
X00847581Y00548160D01*
X00846900Y00545617D01*
Y00542984D01*
X00847581Y00540440D01*
X00848898Y00538160D01*
X00850760Y00536298D01*
X00853040Y00534981D01*
X00855583Y00534300D01*
X00858216D01*
X00860760Y00534981D01*
X00863040Y00536298D01*
X00864902Y00538160D01*
X00866218Y00540440D01*
X00866900Y00542984D01*
Y00545617D01*
X00866218Y00548160D01*
X00864902Y00550440D01*
X00863040Y00552302D01*
X00860760Y00553619D01*
X00858216Y00554300D01*
D02*
G37*
G36*
Y00528900D02*
X00855583D01*
X00853040Y00528218D01*
X00850760Y00526902D01*
X00848898Y00525040D01*
X00847581Y00522760D01*
X00846900Y00520216D01*
Y00517584D01*
X00847581Y00515040D01*
X00848898Y00512760D01*
X00850760Y00510898D01*
X00853040Y00509581D01*
X00855583Y00508900D01*
X00858216D01*
X00860760Y00509581D01*
X00863040Y00510898D01*
X00864902Y00512760D01*
X00866218Y00515040D01*
X00866900Y00517584D01*
Y00520216D01*
X00866218Y00522760D01*
X00864902Y00525040D01*
X00863040Y00526902D01*
X00860760Y00528218D01*
X00858216Y00528900D01*
D02*
G37*
G36*
X00858217Y00478100D02*
X00855583D01*
X00853040Y00477419D01*
X00850760Y00476102D01*
X00848898Y00474240D01*
X00847581Y00471960D01*
X00846900Y00469417D01*
Y00466783D01*
X00847581Y00464240D01*
X00848898Y00461960D01*
X00850760Y00460098D01*
X00853040Y00458782D01*
X00855583Y00458100D01*
X00858217D01*
X00860760Y00458782D01*
X00863040Y00460098D01*
X00864902Y00461960D01*
X00866218Y00464240D01*
X00866900Y00466783D01*
Y00469417D01*
X00866218Y00471960D01*
X00864902Y00474240D01*
X00863040Y00476102D01*
X00860760Y00477419D01*
X00858217Y00478100D01*
D02*
G37*
G36*
X00858216Y00452700D02*
X00855583D01*
X00853040Y00452019D01*
X00850760Y00450702D01*
X00848898Y00448840D01*
X00847581Y00446560D01*
X00846900Y00444017D01*
Y00441384D01*
X00847581Y00438840D01*
X00848898Y00436560D01*
X00850760Y00434698D01*
X00853040Y00433382D01*
X00855583Y00432700D01*
X00858216D01*
X00860760Y00433382D01*
X00863040Y00434698D01*
X00864902Y00436560D01*
X00866218Y00438840D01*
X00866900Y00441384D01*
Y00444017D01*
X00866218Y00446560D01*
X00864902Y00448840D01*
X00863040Y00450702D01*
X00860760Y00452019D01*
X00858216Y00452700D01*
D02*
G37*
G36*
Y00427300D02*
X00855583D01*
X00853040Y00426618D01*
X00850760Y00425302D01*
X00848898Y00423440D01*
X00847581Y00421160D01*
X00846900Y00418617D01*
Y00415984D01*
X00847581Y00413440D01*
X00848898Y00411160D01*
X00850760Y00409298D01*
X00853040Y00407981D01*
X00855583Y00407300D01*
X00858216D01*
X00860760Y00407981D01*
X00863040Y00409298D01*
X00864902Y00411160D01*
X00866218Y00413440D01*
X00866900Y00415984D01*
Y00418617D01*
X00866218Y00421160D01*
X00864902Y00423440D01*
X00863040Y00425302D01*
X00860760Y00426618D01*
X00858216Y00427300D01*
D02*
G37*
G36*
X00680416Y00401900D02*
X00677784D01*
X00675240Y00401218D01*
X00672960Y00399902D01*
X00671098Y00398040D01*
X00669781Y00395760D01*
X00669100Y00393217D01*
Y00390583D01*
X00669781Y00388040D01*
X00671098Y00385760D01*
X00672960Y00383898D01*
X00675240Y00382581D01*
X00677784Y00381900D01*
X00680416D01*
X00682960Y00382581D01*
X00685240Y00383898D01*
X00687102Y00385760D01*
X00688419Y00388040D01*
X00689100Y00390583D01*
Y00393217D01*
X00688419Y00395760D01*
X00687102Y00398040D01*
X00685240Y00399902D01*
X00682960Y00401218D01*
X00680416Y00401900D01*
D02*
G37*
G36*
X00545500Y00382000D02*
X00486500D01*
Y00372569D01*
X00483000D01*
X00481634Y00372297D01*
X00480477Y00371523D01*
X00475227Y00366273D01*
X00474453Y00365116D01*
X00474181Y00363750D01*
Y00345000D01*
X00471750D01*
Y00333000D01*
X00474182D01*
Y00312228D01*
X00462922Y00300969D01*
X00434500D01*
Y00302400D01*
X00411500D01*
Y00292400D01*
X00434500D01*
Y00293832D01*
X00464400D01*
X00465766Y00294103D01*
X00466923Y00294877D01*
X00480274Y00308227D01*
X00481047Y00309384D01*
X00481319Y00310750D01*
Y00333000D01*
X00483750D01*
Y00345000D01*
X00481319D01*
Y00362272D01*
X00484478Y00365431D01*
X00486500D01*
Y00358000D01*
X00545500D01*
Y00382000D01*
D02*
G37*
G36*
X00702044Y00367250D02*
X00699956D01*
X00698026Y00366451D01*
X00696549Y00364974D01*
X00695750Y00363044D01*
Y00360956D01*
X00696345Y00359520D01*
X00695860Y00358250D01*
X00695000D01*
Y00346250D01*
X00707000D01*
Y00358250D01*
X00706140D01*
X00705655Y00359520D01*
X00706250Y00360956D01*
Y00363044D01*
X00705451Y00364974D01*
X00703974Y00366451D01*
X00702044Y00367250D01*
D02*
G37*
G36*
X00718950Y00364750D02*
X00708950D01*
Y00345250D01*
X00710381D01*
Y00340428D01*
X00709272Y00339319D01*
X00707000D01*
Y00341750D01*
X00695000D01*
Y00339319D01*
X00689457D01*
X00689100Y00339784D01*
Y00342417D01*
X00688419Y00344960D01*
X00687102Y00347240D01*
X00685240Y00349102D01*
X00682960Y00350419D01*
X00680417Y00351100D01*
X00677784D01*
X00675240Y00350419D01*
X00672960Y00349102D01*
X00671098Y00347240D01*
X00669781Y00344960D01*
X00669100Y00342417D01*
Y00339784D01*
X00669781Y00337240D01*
X00671098Y00334960D01*
X00672960Y00333098D01*
X00675240Y00331782D01*
X00677784Y00331100D01*
X00680417D01*
X00682960Y00331782D01*
X00683857Y00332299D01*
X00684450Y00332182D01*
X00695000D01*
Y00329750D01*
X00707000D01*
Y00332182D01*
X00710750D01*
X00712116Y00332453D01*
X00713273Y00333227D01*
X00716473Y00336427D01*
X00717247Y00337584D01*
X00717519Y00338950D01*
Y00345250D01*
X00718950D01*
Y00364750D01*
D02*
G37*
G36*
X00528500Y00327800D02*
X00505500D01*
Y00317800D01*
X00528500D01*
Y00327800D01*
D02*
G37*
G36*
X00453500Y00382000D02*
X00394500D01*
Y00358000D01*
X00453500D01*
Y00365431D01*
X00455522D01*
X00458681Y00362272D01*
Y00345000D01*
X00456250D01*
Y00333000D01*
X00458681D01*
Y00322728D01*
X00449622Y00313669D01*
X00434500D01*
Y00315100D01*
X00411500D01*
Y00305100D01*
X00434500D01*
Y00306531D01*
X00451100D01*
X00452466Y00306803D01*
X00453623Y00307577D01*
X00464773Y00318727D01*
X00465547Y00319884D01*
X00465819Y00321250D01*
Y00333000D01*
X00468250D01*
Y00345000D01*
X00465819D01*
Y00363750D01*
X00465547Y00365116D01*
X00464773Y00366273D01*
X00459523Y00371523D01*
X00458366Y00372297D01*
X00457000Y00372569D01*
X00453500D01*
Y00382000D01*
D02*
G37*
G36*
X00528500Y00315100D02*
X00505500D01*
Y00305100D01*
X00528500D01*
Y00315100D01*
D02*
G37*
G36*
X00434500Y00289700D02*
X00411500D01*
Y00279700D01*
X00434500D01*
Y00289700D01*
D02*
G37*
G36*
X00434500Y00277000D02*
X00411500D01*
Y00267000D01*
X00434500D01*
Y00277000D01*
D02*
G37*
G36*
X00434500Y00264300D02*
X00411500D01*
Y00254300D01*
X00434500D01*
Y00264300D01*
D02*
G37*
G36*
Y00251600D02*
X00411500D01*
Y00241600D01*
X00434500D01*
Y00251600D01*
D02*
G37*
G36*
X00560250Y00239000D02*
X00548250D01*
Y00227000D01*
X00549662D01*
Y00225000D01*
X00548250D01*
Y00213000D01*
X00553412D01*
Y00210500D01*
X00551250D01*
Y00198500D01*
X00564750D01*
Y00200029D01*
X00566020Y00200555D01*
X00566026Y00200549D01*
X00567956Y00199750D01*
X00570044D01*
X00571974Y00200549D01*
X00573451Y00202026D01*
X00574250Y00203956D01*
Y00206044D01*
X00573451Y00207974D01*
X00571974Y00209451D01*
X00570044Y00210250D01*
X00567956D01*
X00566026Y00209451D01*
X00566020Y00209445D01*
X00564750Y00209971D01*
Y00210500D01*
X00562588D01*
Y00212651D01*
X00563000Y00213750D01*
X00575000D01*
Y00225750D01*
X00563000D01*
Y00224338D01*
X00560250D01*
Y00225000D01*
X00558838D01*
Y00227000D01*
X00560250D01*
Y00239000D01*
D02*
G37*
G36*
X00564750Y00191500D02*
X00551250D01*
Y00179500D01*
X00564750D01*
Y00191500D01*
D02*
G37*
G36*
X00292750Y00153000D02*
X00280750D01*
Y00152863D01*
X00277250D01*
Y00153000D01*
X00265250D01*
Y00141000D01*
X00273137D01*
Y00139000D01*
X00273584Y00136756D01*
X00274855Y00134854D01*
X00276756Y00133584D01*
X00279000Y00133137D01*
X00281243Y00133584D01*
X00283146Y00134854D01*
X00284416Y00136756D01*
X00284863Y00139000D01*
Y00141000D01*
X00292750D01*
Y00153000D01*
D02*
G37*
G36*
X00309250Y00167000D02*
X00297250D01*
Y00155000D01*
X00299431D01*
Y00153000D01*
X00297250D01*
Y00141000D01*
X00297250D01*
X00298034Y00139730D01*
X00297750Y00139044D01*
Y00136956D01*
X00298549Y00135026D01*
X00300026Y00133549D01*
X00301956Y00132750D01*
X00304044D01*
X00305974Y00133549D01*
X00307451Y00135026D01*
X00308250Y00136956D01*
Y00139044D01*
X00307966Y00139730D01*
X00308815Y00141000D01*
X00309250D01*
Y00153000D01*
X00306569D01*
Y00155000D01*
X00309250D01*
Y00167000D01*
D02*
G37*
G36*
X00725316Y00115700D02*
X00722683D01*
X00720140Y00115019D01*
X00717860Y00113702D01*
X00715998Y00111840D01*
X00714681Y00109560D01*
X00714000Y00107017D01*
Y00104383D01*
X00714681Y00101840D01*
X00715998Y00099560D01*
X00717860Y00097698D01*
X00720140Y00096382D01*
X00722683Y00095700D01*
X00725316D01*
X00727860Y00096382D01*
X00730140Y00097698D01*
X00732002Y00099560D01*
X00733318Y00101840D01*
X00734000Y00104383D01*
Y00107017D01*
X00733318Y00109560D01*
X00732002Y00111840D01*
X00730140Y00113702D01*
X00727860Y00115019D01*
X00725316Y00115700D01*
D02*
G37*
G36*
X00699917D02*
X00697283D01*
X00694740Y00115019D01*
X00692460Y00113702D01*
X00690598Y00111840D01*
X00689281Y00109560D01*
X00688600Y00107017D01*
Y00104383D01*
X00689281Y00101840D01*
X00690598Y00099560D01*
X00692460Y00097698D01*
X00694740Y00096382D01*
X00697283Y00095700D01*
X00699917D01*
X00702460Y00096382D01*
X00704740Y00097698D01*
X00706602Y00099560D01*
X00707918Y00101840D01*
X00708600Y00104383D01*
Y00107017D01*
X00707918Y00109560D01*
X00706602Y00111840D01*
X00704740Y00113702D01*
X00702460Y00115019D01*
X00699917Y00115700D01*
D02*
G37*
G36*
X00674517D02*
X00671883D01*
X00669340Y00115019D01*
X00667060Y00113702D01*
X00665198Y00111840D01*
X00663882Y00109560D01*
X00663200Y00107017D01*
Y00104383D01*
X00663882Y00101840D01*
X00665198Y00099560D01*
X00667060Y00097698D01*
X00669340Y00096382D01*
X00671883Y00095700D01*
X00674517D01*
X00677060Y00096382D01*
X00679340Y00097698D01*
X00681202Y00099560D01*
X00682518Y00101840D01*
X00683200Y00104383D01*
Y00107017D01*
X00682518Y00109560D01*
X00681202Y00111840D01*
X00679340Y00113702D01*
X00677060Y00115019D01*
X00674517Y00115700D01*
D02*
G37*
G36*
X00649117D02*
X00646484D01*
X00643940Y00115019D01*
X00641660Y00113702D01*
X00639798Y00111840D01*
X00638481Y00109560D01*
X00637800Y00107017D01*
Y00104383D01*
X00638481Y00101840D01*
X00639798Y00099560D01*
X00641660Y00097698D01*
X00643940Y00096382D01*
X00646484Y00095700D01*
X00649117D01*
X00651660Y00096382D01*
X00653940Y00097698D01*
X00655802Y00099560D01*
X00657119Y00101840D01*
X00657800Y00104383D01*
Y00107017D01*
X00657119Y00109560D01*
X00655802Y00111840D01*
X00653940Y00113702D01*
X00651660Y00115019D01*
X00649117Y00115700D01*
D02*
G37*
G36*
X00623717D02*
X00621083D01*
X00618540Y00115019D01*
X00616260Y00113702D01*
X00614398Y00111840D01*
X00613082Y00109560D01*
X00612400Y00107017D01*
Y00104383D01*
X00613082Y00101840D01*
X00614398Y00099560D01*
X00616260Y00097698D01*
X00618540Y00096382D01*
X00621083Y00095700D01*
X00623717D01*
X00626260Y00096382D01*
X00628540Y00097698D01*
X00630402Y00099560D01*
X00631718Y00101840D01*
X00632400Y00104383D01*
Y00107017D01*
X00631718Y00109560D01*
X00630402Y00111840D01*
X00628540Y00113702D01*
X00626260Y00115019D01*
X00623717Y00115700D01*
D02*
G37*
G36*
X00725316Y00090300D02*
X00722683D01*
X00720140Y00089619D01*
X00717860Y00088302D01*
X00715998Y00086440D01*
X00714681Y00084160D01*
X00714000Y00081616D01*
Y00078983D01*
X00714681Y00076440D01*
X00715998Y00074160D01*
X00717860Y00072298D01*
X00720140Y00070981D01*
X00722683Y00070300D01*
X00725316D01*
X00727860Y00070981D01*
X00730140Y00072298D01*
X00732002Y00074160D01*
X00733318Y00076440D01*
X00734000Y00078983D01*
Y00081616D01*
X00733318Y00084160D01*
X00732002Y00086440D01*
X00730140Y00088302D01*
X00727860Y00089619D01*
X00725316Y00090300D01*
D02*
G37*
G36*
X00699917D02*
X00697283D01*
X00694740Y00089619D01*
X00692460Y00088302D01*
X00690598Y00086440D01*
X00689281Y00084160D01*
X00688600Y00081616D01*
Y00078983D01*
X00689281Y00076440D01*
X00690598Y00074160D01*
X00692460Y00072298D01*
X00694740Y00070981D01*
X00697283Y00070300D01*
X00699917D01*
X00702460Y00070981D01*
X00704740Y00072298D01*
X00706602Y00074160D01*
X00707918Y00076440D01*
X00708600Y00078983D01*
Y00081616D01*
X00707918Y00084160D01*
X00706602Y00086440D01*
X00704740Y00088302D01*
X00702460Y00089619D01*
X00699917Y00090300D01*
D02*
G37*
G36*
X00674517D02*
X00671883D01*
X00669340Y00089619D01*
X00667060Y00088302D01*
X00665198Y00086440D01*
X00663882Y00084160D01*
X00663200Y00081616D01*
Y00078983D01*
X00663882Y00076440D01*
X00665198Y00074160D01*
X00667060Y00072298D01*
X00669340Y00070981D01*
X00671883Y00070300D01*
X00674517D01*
X00677060Y00070981D01*
X00679340Y00072298D01*
X00681202Y00074160D01*
X00682518Y00076440D01*
X00683200Y00078983D01*
Y00081616D01*
X00682518Y00084160D01*
X00681202Y00086440D01*
X00679340Y00088302D01*
X00677060Y00089619D01*
X00674517Y00090300D01*
D02*
G37*
G36*
X00649117D02*
X00646484D01*
X00643940Y00089619D01*
X00641660Y00088302D01*
X00639798Y00086440D01*
X00638481Y00084160D01*
X00637800Y00081616D01*
Y00078983D01*
X00638481Y00076440D01*
X00639798Y00074160D01*
X00641660Y00072298D01*
X00643940Y00070981D01*
X00646484Y00070300D01*
X00649117D01*
X00651660Y00070981D01*
X00653940Y00072298D01*
X00655802Y00074160D01*
X00657119Y00076440D01*
X00657800Y00078983D01*
Y00081616D01*
X00657119Y00084160D01*
X00655802Y00086440D01*
X00653940Y00088302D01*
X00651660Y00089619D01*
X00649117Y00090300D01*
D02*
G37*
G36*
X00623717D02*
X00621083D01*
X00618540Y00089619D01*
X00616260Y00088302D01*
X00614398Y00086440D01*
X00613082Y00084160D01*
X00612400Y00081616D01*
Y00078983D01*
X00613082Y00076440D01*
X00614398Y00074160D01*
X00616260Y00072298D01*
X00618540Y00070981D01*
X00621083Y00070300D01*
X00623717D01*
X00626260Y00070981D01*
X00628540Y00072298D01*
X00630402Y00074160D01*
X00631718Y00076440D01*
X00632400Y00078983D01*
Y00081616D01*
X00631718Y00084160D01*
X00630402Y00086440D01*
X00628540Y00088302D01*
X00626260Y00089619D01*
X00623717Y00090300D01*
D02*
G37*
G36*
X00260750Y00167000D02*
X00248750D01*
Y00155000D01*
X00251182D01*
Y00153000D01*
X00248750D01*
Y00141000D01*
X00251182D01*
Y00132250D01*
X00251453Y00130884D01*
X00252227Y00129727D01*
X00259477Y00122477D01*
X00260634Y00121703D01*
X00262000Y00121431D01*
X00288522D01*
X00288631Y00121322D01*
Y00115097D01*
X00288340Y00115019D01*
X00286060Y00113702D01*
X00284198Y00111840D01*
X00282882Y00109560D01*
X00282200Y00107017D01*
Y00104383D01*
X00282882Y00101840D01*
X00284198Y00099560D01*
X00286060Y00097698D01*
X00288340Y00096382D01*
X00288631Y00096304D01*
Y00089697D01*
X00288340Y00089619D01*
X00286060Y00088302D01*
X00284198Y00086440D01*
X00282882Y00084160D01*
X00282200Y00081616D01*
Y00078983D01*
X00282882Y00076440D01*
X00284198Y00074160D01*
X00286060Y00072298D01*
X00288340Y00070981D01*
X00290884Y00070300D01*
X00293517D01*
X00296060Y00070981D01*
X00298340Y00072298D01*
X00300202Y00074160D01*
X00301518Y00076440D01*
X00302200Y00078983D01*
Y00081616D01*
X00301518Y00084160D01*
X00300202Y00086440D01*
X00298340Y00088302D01*
X00296060Y00089619D01*
X00295769Y00089697D01*
Y00096304D01*
X00296060Y00096382D01*
X00298340Y00097698D01*
X00300202Y00099560D01*
X00301518Y00101840D01*
X00302200Y00104383D01*
Y00107017D01*
X00301518Y00109560D01*
X00300202Y00111840D01*
X00298340Y00113702D01*
X00296060Y00115019D01*
X00295769Y00115097D01*
Y00122800D01*
X00295497Y00124166D01*
X00294723Y00125323D01*
X00292523Y00127523D01*
X00291366Y00128297D01*
X00290000Y00128569D01*
X00263478D01*
X00258319Y00133728D01*
Y00141000D01*
X00260750D01*
Y00153000D01*
X00258319D01*
Y00155000D01*
X00260750D01*
Y00167000D01*
D02*
G37*
G36*
X00268116Y00115700D02*
X00265483D01*
X00262940Y00115019D01*
X00260660Y00113702D01*
X00258798Y00111840D01*
X00257481Y00109560D01*
X00256800Y00107017D01*
Y00104383D01*
X00257481Y00101840D01*
X00258798Y00099560D01*
X00260660Y00097698D01*
X00262940Y00096382D01*
X00263231Y00096304D01*
Y00089697D01*
X00262940Y00089619D01*
X00260660Y00088302D01*
X00258798Y00086440D01*
X00257481Y00084160D01*
X00256800Y00081616D01*
Y00078983D01*
X00257481Y00076440D01*
X00258798Y00074160D01*
X00260660Y00072298D01*
X00262940Y00070981D01*
X00265483Y00070300D01*
X00268116D01*
X00270660Y00070981D01*
X00272940Y00072298D01*
X00274802Y00074160D01*
X00276119Y00076440D01*
X00276800Y00078983D01*
Y00081616D01*
X00276119Y00084160D01*
X00274802Y00086440D01*
X00272940Y00088302D01*
X00270660Y00089619D01*
X00270369Y00089697D01*
Y00096304D01*
X00270660Y00096382D01*
X00272940Y00097698D01*
X00274802Y00099560D01*
X00276119Y00101840D01*
X00276800Y00104383D01*
Y00107017D01*
X00276119Y00109560D01*
X00274802Y00111840D01*
X00272940Y00113702D01*
X00270660Y00115019D01*
X00268116Y00115700D01*
D02*
G37*
G36*
X00242717D02*
X00240084D01*
X00237540Y00115019D01*
X00235260Y00113702D01*
X00233398Y00111840D01*
X00232082Y00109560D01*
X00231400Y00107017D01*
Y00104383D01*
X00232082Y00101840D01*
X00233398Y00099560D01*
X00235260Y00097698D01*
X00236812Y00096802D01*
Y00089198D01*
X00235260Y00088302D01*
X00233398Y00086440D01*
X00232082Y00084160D01*
X00231400Y00081616D01*
Y00078983D01*
X00232082Y00076440D01*
X00233398Y00074160D01*
X00235260Y00072298D01*
X00237540Y00070981D01*
X00240084Y00070300D01*
X00242717D01*
X00245260Y00070981D01*
X00247540Y00072298D01*
X00249402Y00074160D01*
X00250718Y00076440D01*
X00251400Y00078983D01*
Y00081616D01*
X00250718Y00084160D01*
X00249402Y00086440D01*
X00247540Y00088302D01*
X00245988Y00089198D01*
Y00096802D01*
X00247540Y00097698D01*
X00249402Y00099560D01*
X00250718Y00101840D01*
X00251400Y00104383D01*
Y00107017D01*
X00250718Y00109560D01*
X00249402Y00111840D01*
X00247540Y00113702D01*
X00245260Y00115019D01*
X00242717Y00115700D01*
D02*
G37*
G36*
X00217316D02*
X00214683D01*
X00212140Y00115019D01*
X00209860Y00113702D01*
X00207998Y00111840D01*
X00206681Y00109560D01*
X00206000Y00107017D01*
Y00104383D01*
X00206681Y00101840D01*
X00207998Y00099560D01*
X00209860Y00097698D01*
X00211412Y00096802D01*
Y00089198D01*
X00209860Y00088302D01*
X00207998Y00086440D01*
X00206681Y00084160D01*
X00206000Y00081616D01*
Y00078983D01*
X00206681Y00076440D01*
X00207998Y00074160D01*
X00209860Y00072298D01*
X00212140Y00070981D01*
X00214683Y00070300D01*
X00217316D01*
X00219860Y00070981D01*
X00222140Y00072298D01*
X00224002Y00074160D01*
X00225319Y00076440D01*
X00226000Y00078983D01*
Y00081616D01*
X00225319Y00084160D01*
X00224002Y00086440D01*
X00222140Y00088302D01*
X00220588Y00089198D01*
Y00096802D01*
X00222140Y00097698D01*
X00224002Y00099560D01*
X00225319Y00101840D01*
X00226000Y00104383D01*
Y00107017D01*
X00225319Y00109560D01*
X00224002Y00111840D01*
X00222140Y00113702D01*
X00219860Y00115019D01*
X00217316Y00115700D01*
D02*
G37*
G36*
X00191917D02*
X00189284D01*
X00186740Y00115019D01*
X00184460Y00113702D01*
X00182598Y00111840D01*
X00181282Y00109560D01*
X00180600Y00107017D01*
Y00104383D01*
X00181282Y00101840D01*
X00182598Y00099560D01*
X00184460Y00097698D01*
X00186012Y00096802D01*
Y00089198D01*
X00184460Y00088302D01*
X00182598Y00086440D01*
X00181282Y00084160D01*
X00180600Y00081616D01*
Y00078983D01*
X00181282Y00076440D01*
X00182598Y00074160D01*
X00184460Y00072298D01*
X00186740Y00070981D01*
X00189284Y00070300D01*
X00191917D01*
X00194460Y00070981D01*
X00196740Y00072298D01*
X00198602Y00074160D01*
X00199918Y00076440D01*
X00200600Y00078983D01*
Y00081616D01*
X00199918Y00084160D01*
X00198602Y00086440D01*
X00196740Y00088302D01*
X00195188Y00089198D01*
Y00096802D01*
X00196740Y00097698D01*
X00198602Y00099560D01*
X00199918Y00101840D01*
X00200600Y00104383D01*
Y00107017D01*
X00199918Y00109560D01*
X00198602Y00111840D01*
X00196740Y00113702D01*
X00194460Y00115019D01*
X00191917Y00115700D01*
D02*
G37*
G36*
X00169200Y00115817D02*
X00161200D01*
X00158859Y00115352D01*
X00156874Y00114026D01*
X00155548Y00112041D01*
X00155083Y00109700D01*
Y00101700D01*
X00155548Y00099359D01*
X00156874Y00097374D01*
X00158140Y00096529D01*
Y00087382D01*
X00157198Y00086440D01*
X00155882Y00084160D01*
X00155200Y00081616D01*
Y00078983D01*
X00155882Y00076440D01*
X00157198Y00074160D01*
X00159060Y00072298D01*
X00161340Y00070981D01*
X00163883Y00070300D01*
X00166516D01*
X00169060Y00070981D01*
X00171340Y00072298D01*
X00173202Y00074160D01*
X00174519Y00076440D01*
X00175200Y00078983D01*
Y00081616D01*
X00174519Y00084160D01*
X00173202Y00086440D01*
X00172260Y00087382D01*
Y00096529D01*
X00173526Y00097374D01*
X00174852Y00099359D01*
X00175317Y00101700D01*
Y00109700D01*
X00174852Y00112041D01*
X00173526Y00114026D01*
X00171541Y00115352D01*
X00169200Y00115817D01*
D02*
G37*
G36*
X00783000Y00116039D02*
X00741000D01*
X00740220Y00115884D01*
X00739558Y00115442D01*
X00739116Y00114780D01*
X00738961Y00114000D01*
Y00072000D01*
X00739116Y00071220D01*
X00739558Y00070558D01*
X00740220Y00070116D01*
X00741000Y00069961D01*
X00768132D01*
Y00059000D01*
X00768250Y00058409D01*
Y00053000D01*
X00773659D01*
X00774250Y00052882D01*
X00774841Y00053000D01*
X00780250D01*
Y00058409D01*
X00780368Y00059000D01*
Y00069961D01*
X00783000D01*
X00783780Y00070116D01*
X00784442Y00070558D01*
X00784884Y00071220D01*
X00785039Y00072000D01*
Y00114000D01*
X00784884Y00114780D01*
X00784442Y00115442D01*
X00783780Y00115884D01*
X00783000Y00116039D01*
D02*
G37*
G36*
X00579800D02*
X00537800D01*
X00537020Y00115884D01*
X00536358Y00115442D01*
X00535916Y00114780D01*
X00535761Y00114000D01*
Y00072000D01*
X00535916Y00071220D01*
X00536358Y00070558D01*
X00537020Y00070116D01*
X00537800Y00069961D01*
X00565132D01*
Y00059000D01*
X00565250Y00058409D01*
Y00053000D01*
X00570659D01*
X00571250Y00052882D01*
X00571841Y00053000D01*
X00577250D01*
Y00058409D01*
X00577368Y00059000D01*
Y00069961D01*
X00579800D01*
X00580580Y00070116D01*
X00581242Y00070558D01*
X00581684Y00071220D01*
X00581839Y00072000D01*
Y00114000D01*
X00581684Y00114780D01*
X00581242Y00115442D01*
X00580580Y00115884D01*
X00579800Y00116039D01*
D02*
G37*
G36*
X00452800D02*
X00410800D01*
X00410020Y00115884D01*
X00409358Y00115442D01*
X00408916Y00114780D01*
X00408761Y00114000D01*
Y00072000D01*
X00408916Y00071220D01*
X00409358Y00070558D01*
X00410020Y00070116D01*
X00410800Y00069961D01*
X00438132D01*
Y00059000D01*
X00438250Y00058409D01*
Y00053000D01*
X00443659D01*
X00444250Y00052882D01*
X00444841Y00053000D01*
X00450250D01*
Y00058409D01*
X00450368Y00059000D01*
Y00069961D01*
X00452800D01*
X00453580Y00070116D01*
X00454242Y00070558D01*
X00454684Y00071220D01*
X00454839Y00072000D01*
Y00114000D01*
X00454684Y00114780D01*
X00454242Y00115442D01*
X00453580Y00115884D01*
X00452800Y00116039D01*
D02*
G37*
G36*
X00747000Y00714582D02*
X00647000D01*
X00644520Y00714256D01*
X00642209Y00713298D01*
X00640225Y00711776D01*
X00611031Y00682582D01*
X00271000D01*
X00268520Y00682255D01*
X00266209Y00681298D01*
X00264224Y00679775D01*
X00212225Y00627775D01*
X00210702Y00625791D01*
X00209744Y00623480D01*
X00209418Y00621000D01*
X00209418Y00293000D01*
X00209418Y00293000D01*
Y00281000D01*
Y00269000D01*
Y00257000D01*
X00209744Y00254520D01*
X00210702Y00252209D01*
X00212225Y00250224D01*
X00214209Y00248702D01*
X00216520Y00247745D01*
X00219000Y00247418D01*
X00221480Y00247745D01*
X00223791Y00248702D01*
X00225775Y00250224D01*
X00227298Y00252209D01*
X00228255Y00254520D01*
X00228582Y00257000D01*
Y00269000D01*
Y00281000D01*
Y00293000D01*
X00228582Y00293000D01*
X00228582Y00617031D01*
X00274969Y00663418D01*
X00456882D01*
Y00653367D01*
X00449000D01*
X00448409Y00653250D01*
X00443000D01*
Y00647841D01*
X00442882Y00647250D01*
X00443000Y00646659D01*
Y00639039D01*
X00393000Y00639039D01*
X00392220Y00638884D01*
X00391558Y00638442D01*
X00391116Y00637780D01*
X00390961Y00637000D01*
Y00601000D01*
X00391116Y00600220D01*
X00391558Y00599558D01*
X00392220Y00599116D01*
X00393000Y00598961D01*
X00409000D01*
X00409780Y00599116D01*
X00410442Y00599558D01*
X00421845Y00610961D01*
X00456000D01*
X00456780Y00611116D01*
X00457442Y00611558D01*
X00457884Y00612220D01*
X00458039Y00613000D01*
Y00637000D01*
X00458039Y00637000D01*
X00469000D01*
Y00646659D01*
X00469118Y00647250D01*
Y00663418D01*
X00615000D01*
X00617480Y00663745D01*
X00619791Y00664702D01*
X00621775Y00666225D01*
X00650969Y00695418D01*
X00743031D01*
X00755418Y00683031D01*
Y00569700D01*
X00755744Y00567220D01*
X00756702Y00564909D01*
X00757940Y00563296D01*
Y00384250D01*
X00757940Y00384250D01*
X00758180Y00382423D01*
X00758885Y00380720D01*
X00759000Y00380570D01*
Y00379039D01*
X00745000D01*
X00744803Y00379000D01*
X00743750D01*
Y00378570D01*
X00743558Y00378442D01*
X00743116Y00377780D01*
X00742961Y00377000D01*
Y00370082D01*
X00742420Y00369754D01*
X00741691Y00369606D01*
X00739250Y00372047D01*
Y00379000D01*
X00727250D01*
Y00367000D01*
X00734203D01*
X00735183Y00366020D01*
X00734657Y00364750D01*
X00734350D01*
Y00345250D01*
X00744019D01*
X00744220Y00345116D01*
X00745000Y00344961D01*
X00782961D01*
Y00330039D01*
X00772000D01*
X00771220Y00329884D01*
X00770558Y00329442D01*
X00770116Y00328780D01*
X00769961Y00328000D01*
Y00309750D01*
X00759000D01*
Y00306819D01*
X00757119D01*
Y00307250D01*
X00756847Y00308616D01*
X00756073Y00309773D01*
X00754916Y00310547D01*
X00753550Y00310819D01*
X00750550D01*
X00749184Y00310547D01*
X00748027Y00309773D01*
X00747253Y00308616D01*
X00746981Y00307250D01*
Y00294750D01*
X00747069Y00294309D01*
X00746073Y00293039D01*
X00744350D01*
Y00310750D01*
X00734350D01*
Y00291250D01*
X00735431D01*
Y00289000D01*
X00730219D01*
Y00291250D01*
X00731650D01*
Y00310750D01*
X00721650D01*
Y00291250D01*
X00723081D01*
Y00286850D01*
X00723353Y00285484D01*
X00724127Y00284327D01*
X00724250Y00284203D01*
Y00277000D01*
X00735431D01*
Y00275000D01*
X00732250D01*
Y00263000D01*
X00744250D01*
X00744961Y00262024D01*
Y00262000D01*
X00745116Y00261220D01*
X00745558Y00260558D01*
X00746220Y00260116D01*
X00747000Y00259961D01*
X00771000D01*
X00771000Y00259961D01*
X00771780Y00260116D01*
X00772442Y00260558D01*
X00783442Y00271558D01*
X00783884Y00272220D01*
X00784039Y00273000D01*
Y00312155D01*
X00796442Y00324558D01*
X00796884Y00325220D01*
X00797039Y00326000D01*
Y00360000D01*
X00796884Y00360780D01*
X00796442Y00361442D01*
X00795780Y00361884D01*
X00795000Y00362039D01*
X00774039D01*
Y00377000D01*
X00774195Y00377190D01*
X00779000D01*
X00780827Y00377430D01*
X00782530Y00378135D01*
X00782679Y00378250D01*
X00785000D01*
Y00380571D01*
X00785115Y00380720D01*
X00785820Y00382423D01*
X00786060Y00384250D01*
X00785820Y00386077D01*
X00785115Y00387780D01*
X00785000Y00387929D01*
Y00390250D01*
X00782679D01*
X00782530Y00390364D01*
X00780827Y00391070D01*
X00779000Y00391310D01*
X00772060D01*
Y00560118D01*
X00854023D01*
X00855583Y00559700D01*
X00858216D01*
X00860760Y00560382D01*
X00863040Y00561698D01*
X00863982Y00562640D01*
X00872375D01*
X00880940Y00554076D01*
Y00417000D01*
X00881180Y00415173D01*
X00881886Y00413470D01*
X00883008Y00412008D01*
X00892008Y00403008D01*
X00893470Y00401885D01*
X00895173Y00401180D01*
X00897000Y00400940D01*
X00898827Y00401180D01*
X00900530Y00401885D01*
X00901992Y00403008D01*
X00903114Y00404470D01*
X00903161Y00404583D01*
X00904431Y00404330D01*
Y00137478D01*
X00897522Y00130569D01*
X00823000D01*
X00821634Y00130297D01*
X00820477Y00129523D01*
X00804477Y00113523D01*
X00803703Y00112366D01*
X00803431Y00111000D01*
Y00058478D01*
X00791086Y00046133D01*
X00764250D01*
Y00051000D01*
X00761818D01*
Y00053000D01*
X00763750D01*
Y00065000D01*
X00751750D01*
Y00062569D01*
X00748250D01*
Y00065000D01*
X00736250D01*
Y00053000D01*
X00748250D01*
Y00055431D01*
X00751750D01*
Y00053000D01*
X00754681D01*
Y00051000D01*
X00752250D01*
Y00040569D01*
X00728478D01*
X00724021Y00045026D01*
X00722863Y00045799D01*
X00721498Y00046071D01*
X00561250D01*
Y00051000D01*
X00558319D01*
Y00053000D01*
X00560750D01*
Y00065000D01*
X00548750D01*
Y00062569D01*
X00545250D01*
Y00065000D01*
X00533250D01*
Y00053000D01*
X00545250D01*
Y00055431D01*
X00548750D01*
Y00053000D01*
X00551181D01*
Y00051000D01*
X00549250D01*
Y00040569D01*
X00527478D01*
X00520523Y00047523D01*
X00519366Y00048297D01*
X00518000Y00048569D01*
X00434250D01*
Y00051000D01*
X00431319D01*
Y00053000D01*
X00433750D01*
Y00065000D01*
X00421750D01*
Y00062569D01*
X00418250D01*
Y00065000D01*
X00406250D01*
Y00053000D01*
X00418250D01*
Y00055431D01*
X00421750D01*
Y00053000D01*
X00424182D01*
Y00051000D01*
X00422250D01*
Y00039000D01*
X00434250D01*
Y00041431D01*
X00516522D01*
X00523477Y00034477D01*
X00524634Y00033703D01*
X00526000Y00033431D01*
X00717522D01*
X00721477Y00029477D01*
X00722634Y00028703D01*
X00724000Y00028431D01*
X00798000D01*
X00799366Y00028703D01*
X00800523Y00029477D01*
X00821523Y00050477D01*
X00822297Y00051634D01*
X00822569Y00053000D01*
Y00104522D01*
X00829478Y00111431D01*
X00904000D01*
X00905366Y00111703D01*
X00906523Y00112477D01*
X00924523Y00130477D01*
X00925297Y00131634D01*
X00925569Y00133000D01*
X00925568Y00440000D01*
X00925297Y00441366D01*
X00924523Y00442523D01*
X00919069Y00447978D01*
Y00485500D01*
X00918797Y00486866D01*
X00918023Y00488023D01*
X00911569Y00494478D01*
X00911569Y00524144D01*
X00912451Y00525026D01*
X00913250Y00526956D01*
Y00529044D01*
X00912451Y00530974D01*
X00910974Y00532451D01*
X00909044Y00533250D01*
X00906956D01*
X00905026Y00532451D01*
X00903549Y00530974D01*
X00902750Y00529044D01*
Y00526956D01*
X00903549Y00525026D01*
X00904431Y00524144D01*
X00904431Y00493000D01*
X00904703Y00491634D01*
X00905477Y00490477D01*
X00908433Y00487520D01*
X00907907Y00486250D01*
X00906956D01*
X00905026Y00485451D01*
X00903549Y00483974D01*
X00902750Y00482044D01*
Y00479956D01*
X00903549Y00478026D01*
X00904431Y00477144D01*
Y00444000D01*
X00904431Y00444000D01*
X00904703Y00442634D01*
X00905477Y00441477D01*
X00907530Y00439423D01*
X00907044Y00438250D01*
X00906956D01*
X00905026Y00437451D01*
X00903549Y00435974D01*
X00902750Y00434044D01*
Y00431956D01*
X00903549Y00430026D01*
X00904431Y00429144D01*
Y00411670D01*
X00903161Y00411417D01*
X00903114Y00411530D01*
X00901992Y00412992D01*
X00895060Y00419925D01*
Y00557000D01*
X00894820Y00558827D01*
X00894115Y00560530D01*
X00892992Y00561992D01*
X00880292Y00574692D01*
X00878830Y00575815D01*
X00877127Y00576520D01*
X00875300Y00576760D01*
X00863982D01*
X00863040Y00577702D01*
X00860760Y00579019D01*
X00858216Y00579700D01*
X00855583D01*
X00854023Y00579282D01*
X00774582D01*
Y00687000D01*
X00774255Y00689480D01*
X00773298Y00691791D01*
X00771776Y00693775D01*
X00753775Y00711776D01*
X00751791Y00713298D01*
X00749480Y00714256D01*
X00747000Y00714582D01*
D02*
G37*
%LPD*%
G36*
X00508250Y00532000D02*
X00520250D01*
Y00532006D01*
X00528088D01*
X00528245Y00530820D01*
X00529202Y00528509D01*
X00530724Y00526525D01*
X00531062Y00526266D01*
X00530654Y00525063D01*
X00520250D01*
Y00530000D01*
X00508250D01*
Y00518000D01*
X00514133D01*
X00514506Y00517926D01*
X00533561D01*
X00533814Y00516656D01*
X00532709Y00516198D01*
X00530724Y00514675D01*
X00529202Y00512691D01*
X00528245Y00510380D01*
X00527918Y00507900D01*
X00528245Y00505420D01*
X00528897Y00503844D01*
X00524622Y00499569D01*
X00520250D01*
Y00502000D01*
X00508250D01*
Y00490000D01*
X00520250D01*
Y00492431D01*
X00526100D01*
X00527466Y00492703D01*
X00528623Y00493477D01*
X00534151Y00499004D01*
X00535020Y00498644D01*
X00537500Y00498318D01*
X00538500D01*
X00540980Y00498644D01*
X00543291Y00499602D01*
X00545275Y00501125D01*
X00546798Y00503109D01*
X00547304Y00504331D01*
X00549622D01*
X00579115Y00474839D01*
X00578589Y00473569D01*
X00544962D01*
X00544481Y00474839D01*
X00546002Y00476360D01*
X00547318Y00478640D01*
X00548000Y00481184D01*
Y00483817D01*
X00547318Y00486360D01*
X00546002Y00488640D01*
X00544140Y00490502D01*
X00541860Y00491819D01*
X00539316Y00492500D01*
X00536684D01*
X00534140Y00491819D01*
X00531860Y00490502D01*
X00529998Y00488640D01*
X00528681Y00486360D01*
X00528000Y00483817D01*
Y00481184D01*
X00528681Y00478640D01*
X00529998Y00476360D01*
X00531519Y00474839D01*
X00531038Y00473569D01*
X00462728D01*
X00448250Y00488047D01*
Y00495000D01*
X00436250D01*
Y00483000D01*
X00443203D01*
X00457461Y00468742D01*
X00456975Y00467569D01*
X00415478D01*
X00408344Y00474702D01*
X00410002Y00476360D01*
X00411319Y00478640D01*
X00412000Y00481184D01*
Y00483817D01*
X00411319Y00486360D01*
X00410002Y00488640D01*
X00408140Y00490502D01*
X00405860Y00491819D01*
X00403316Y00492500D01*
X00400684D01*
X00398140Y00491819D01*
X00395860Y00490502D01*
X00394372Y00489014D01*
X00393102Y00489540D01*
Y00493955D01*
X00397879Y00498732D01*
X00398140Y00498582D01*
X00400684Y00497900D01*
X00403316D01*
X00405860Y00498582D01*
X00408140Y00499898D01*
X00409161Y00500919D01*
X00410431Y00500393D01*
Y00499000D01*
X00410703Y00497634D01*
X00411477Y00496477D01*
X00419750Y00488203D01*
Y00483000D01*
X00431750D01*
Y00495000D01*
X00423047D01*
X00417569Y00500478D01*
Y00518000D01*
X00448205D01*
Y00518000D01*
X00448250D01*
Y00530000D01*
X00448205D01*
Y00532000D01*
X00448250D01*
Y00533412D01*
X00451500D01*
Y00529000D01*
X00468500D01*
Y00542431D01*
X00471500D01*
Y00529000D01*
X00488500D01*
Y00533412D01*
X00491750D01*
Y00532000D01*
X00493162D01*
Y00530000D01*
X00491750D01*
Y00518000D01*
X00503750D01*
Y00530000D01*
X00502338D01*
Y00532000D01*
X00503750D01*
Y00542431D01*
X00508250D01*
Y00532000D01*
D02*
G37*
G36*
X00543000Y00170000D02*
X00506000D01*
Y00160000D01*
X00434000D01*
Y00172000D01*
X00325000D01*
Y00183000D01*
X00318000D01*
X00310000Y00191000D01*
X00295000D01*
Y00212000D01*
X00341000D01*
X00361000Y00192000D01*
X00472000D01*
Y00212000D01*
X00481000D01*
Y00192000D01*
X00514000D01*
Y00210000D01*
X00507000Y00217000D01*
Y00225000D01*
X00543000D01*
Y00170000D01*
D02*
G37*
%LPC*%
G36*
X00468500Y00519000D02*
X00451500D01*
Y00514078D01*
X00448250D01*
Y00516000D01*
X00436250D01*
Y00504000D01*
X00448250D01*
Y00505922D01*
X00451500D01*
Y00505000D01*
X00468500D01*
Y00519000D01*
D02*
G37*
G36*
X00488500D02*
X00471500D01*
Y00505000D01*
X00488500D01*
Y00506784D01*
X00491750D01*
Y00504000D01*
X00503750D01*
Y00516000D01*
X00491750D01*
Y00515960D01*
X00488500D01*
Y00519000D01*
D02*
G37*
G36*
X00503750Y00502000D02*
X00491750D01*
Y00490000D01*
X00493162D01*
Y00488039D01*
X00492750Y00487044D01*
Y00484956D01*
X00493549Y00483026D01*
X00495026Y00481549D01*
X00496956Y00480750D01*
X00499044D01*
X00500974Y00481549D01*
X00502451Y00483026D01*
X00503250Y00484956D01*
Y00487044D01*
X00502552Y00488730D01*
X00502929Y00489630D01*
X00503199Y00490000D01*
X00503750D01*
Y00502000D01*
D02*
G37*
%LPD*%
G36*
X00783000Y00072000D02*
X00741000D01*
Y00114000D01*
X00783000D01*
Y00072000D01*
D02*
G37*
G36*
X00579800D02*
X00537800D01*
Y00114000D01*
X00579800D01*
Y00072000D01*
D02*
G37*
G36*
X00452800D02*
X00410800D01*
Y00114000D01*
X00452800D01*
Y00072000D01*
D02*
G37*
G36*
X00456000Y00637000D02*
Y00613000D01*
X00421000D01*
X00409000Y00601000D01*
X00393000D01*
Y00637000D01*
X00456000Y00637000D01*
D02*
G37*
G36*
X00772000Y00360000D02*
X00795000D01*
Y00326000D01*
X00782000Y00313000D01*
Y00273000D01*
X00771000Y00262000D01*
X00747000D01*
Y00276000D01*
X00743000D01*
Y00291000D01*
X00772000D01*
Y00328000D01*
X00785000D01*
Y00347000D01*
X00745000D01*
Y00377000D01*
X00772000D01*
Y00360000D01*
D02*
G37*
D15*
X00286750Y00219000D02*
D03*
X00303250D02*
D03*
X00555250Y00045000D02*
D03*
X00538750D02*
D03*
X00428250D02*
D03*
X00411750D02*
D03*
X00758250D02*
D03*
X00741750D02*
D03*
X00445750Y00339000D02*
D03*
X00462250Y00339000D02*
D03*
X00425750Y00489000D02*
D03*
X00442250D02*
D03*
X00254750Y00147000D02*
D03*
X00271250D02*
D03*
X00240250Y00191000D02*
D03*
X00223750D02*
D03*
X00303250Y00205000D02*
D03*
X00286750D02*
D03*
Y00161000D02*
D03*
X00303250D02*
D03*
X00303250Y00147000D02*
D03*
X00286750D02*
D03*
X00271250Y00161000D02*
D03*
X00254750D02*
D03*
X00254750Y00219000D02*
D03*
X00271250D02*
D03*
X00254750Y00205000D02*
D03*
X00271250D02*
D03*
X00571250Y00059000D02*
D03*
X00554750D02*
D03*
X00522750D02*
D03*
X00539250D02*
D03*
X00395750D02*
D03*
X00412250D02*
D03*
X00444250D02*
D03*
X00427750D02*
D03*
X00774250D02*
D03*
X00757750D02*
D03*
X00742250D02*
D03*
X00725750D02*
D03*
X00505750Y00205000D02*
D03*
X00522250D02*
D03*
X00537750Y00233000D02*
D03*
X00554250D02*
D03*
Y00247000D02*
D03*
X00537750Y00247000D02*
D03*
X00554250Y00219000D02*
D03*
X00537750D02*
D03*
X00537750Y00298000D02*
D03*
X00554250D02*
D03*
X00494250Y00339000D02*
D03*
X00477750D02*
D03*
X00716750Y00373000D02*
D03*
X00733250D02*
D03*
X00749750D02*
D03*
X00721750Y00269000D02*
D03*
X00738250D02*
D03*
X00754750D02*
D03*
X00713750Y00283000D02*
D03*
X00730250Y00283000D02*
D03*
X00746750Y00283000D02*
D03*
X00497750Y00612000D02*
D03*
X00514250D02*
D03*
X00514250Y00598000D02*
D03*
X00497750D02*
D03*
X00442250Y00510000D02*
D03*
X00425750D02*
D03*
X00497750Y00554000D02*
D03*
X00514250D02*
D03*
X00497750Y00568000D02*
D03*
X00514250D02*
D03*
X00442250Y00554000D02*
D03*
X00425750D02*
D03*
X00442250Y00538000D02*
D03*
X00425750D02*
D03*
Y00524000D02*
D03*
X00442250D02*
D03*
X00497750Y00524000D02*
D03*
X00514250D02*
D03*
Y00510000D02*
D03*
X00497750D02*
D03*
X00514250Y00538000D02*
D03*
X00497750D02*
D03*
X00425750Y00568000D02*
D03*
X00442250D02*
D03*
Y00582000D02*
D03*
X00425750D02*
D03*
X00497750D02*
D03*
X00514250D02*
D03*
Y00496000D02*
D03*
X00497750D02*
D03*
D16*
X00438000Y00187750D02*
D03*
Y00204250D02*
D03*
X00240000Y00173250D02*
D03*
Y00156750D02*
D03*
X00223000D02*
D03*
Y00173250D02*
D03*
X00318000Y00191250D02*
D03*
Y00174750D02*
D03*
X00569000Y00236250D02*
D03*
Y00219750D02*
D03*
X00701000Y00303750D02*
D03*
Y00320250D02*
D03*
Y00352250D02*
D03*
Y00335750D02*
D03*
X00779000Y00367750D02*
D03*
Y00384250D02*
D03*
X00765000Y00367750D02*
D03*
Y00384250D02*
D03*
X00779000Y00352250D02*
D03*
Y00335750D02*
D03*
X00765000Y00320250D02*
D03*
Y00303750D02*
D03*
Y00287250D02*
D03*
X00415000Y00647250D02*
D03*
Y00630750D02*
D03*
X00401000Y00647250D02*
D03*
Y00630750D02*
D03*
X00765000Y00335750D02*
D03*
Y00352250D02*
D03*
X00449000Y00647250D02*
D03*
Y00630750D02*
D03*
X00463000Y00647250D02*
D03*
X00463000Y00630750D02*
D03*
X00420000Y00164250D02*
D03*
Y00147750D02*
D03*
X00438000Y00147750D02*
D03*
Y00164250D02*
D03*
X00520000Y00164000D02*
D03*
Y00147500D02*
D03*
X00502000Y00147750D02*
D03*
X00502000Y00164250D02*
D03*
D17*
X00558000Y00204500D02*
D03*
X00538000Y00195000D02*
D03*
X00558000Y00185500D02*
D03*
D20*
X00266800Y00105700D02*
D03*
Y00080300D02*
D03*
X00292200Y00105700D02*
D03*
Y00080300D02*
D03*
X00317600Y00105700D02*
D03*
Y00080300D02*
D03*
X00343000Y00105700D02*
D03*
Y00080300D02*
D03*
X00368400Y00105700D02*
D03*
Y00080300D02*
D03*
X00393800Y00105700D02*
D03*
Y00080300D02*
D03*
X00419200Y00105700D02*
D03*
Y00080300D02*
D03*
X00444600Y00105700D02*
D03*
Y00080300D02*
D03*
X00470000Y00105700D02*
D03*
Y00080300D02*
D03*
X00495400Y00105700D02*
D03*
Y00080300D02*
D03*
X00520800Y00105700D02*
D03*
Y00080300D02*
D03*
X00546200Y00105700D02*
D03*
Y00080300D02*
D03*
X00571600Y00105700D02*
D03*
Y00080300D02*
D03*
X00597000Y00105700D02*
D03*
Y00080300D02*
D03*
X00622400Y00105700D02*
D03*
Y00080300D02*
D03*
X00647800Y00105700D02*
D03*
Y00080300D02*
D03*
X00673200Y00105700D02*
D03*
Y00080300D02*
D03*
X00698600Y00105700D02*
D03*
Y00080300D02*
D03*
X00724000Y00105700D02*
D03*
Y00080300D02*
D03*
X00749400Y00105700D02*
D03*
Y00080300D02*
D03*
X00774800Y00105700D02*
D03*
Y00080300D02*
D03*
X00216000Y00105700D02*
D03*
X00190600D02*
D03*
X00216000Y00080300D02*
D03*
X00190600D02*
D03*
X00165200D02*
D03*
X00241400Y00105700D02*
D03*
Y00080300D02*
D03*
X00679100Y00595100D02*
D03*
Y00620500D02*
D03*
Y00544300D02*
D03*
Y00493500D02*
D03*
X00679100Y00569700D02*
D03*
Y00518900D02*
D03*
Y00645900D02*
D03*
X00856900Y00620500D02*
D03*
X00679100Y00239500D02*
D03*
Y00214100D02*
D03*
Y00264900D02*
D03*
Y00391900D02*
D03*
Y00366500D02*
D03*
X00856900Y00391900D02*
D03*
X00679100Y00188700D02*
D03*
Y00341100D02*
D03*
X00856900Y00493500D02*
D03*
Y00366500D02*
D03*
Y00341100D02*
D03*
Y00442700D02*
D03*
Y00417300D02*
D03*
Y00645900D02*
D03*
Y00569700D02*
D03*
Y00671300D02*
D03*
X00856900Y00595100D02*
D03*
X00856900Y00544300D02*
D03*
Y00518900D02*
D03*
X00856900Y00468100D02*
D03*
X00856900Y00214100D02*
D03*
Y00188700D02*
D03*
X00538000Y00584100D02*
D03*
Y00482500D02*
D03*
Y00558700D02*
D03*
X00402000Y00482500D02*
D03*
Y00507900D02*
D03*
Y00533300D02*
D03*
Y00558700D02*
D03*
Y00584100D02*
D03*
Y00609500D02*
D03*
D21*
X00165200Y00105700D02*
D03*
X00679100Y00671300D02*
D03*
X00538000Y00609500D02*
D03*
D22*
X00046000Y00095500D02*
D03*
Y00020500D02*
D03*
X00096000D02*
D03*
Y00095500D02*
D03*
X00894000Y00020500D02*
D03*
Y00095500D02*
D03*
X00844000D02*
D03*
Y00020500D02*
D03*
X00046000Y00799500D02*
D03*
Y00724500D02*
D03*
X00096000D02*
D03*
Y00799500D02*
D03*
X00894000Y00724500D02*
D03*
Y00799500D02*
D03*
X00844000D02*
D03*
Y00724500D02*
D03*
D23*
X00679100Y00468100D02*
D03*
Y00442700D02*
D03*
Y00315700D02*
D03*
X00679100Y00417300D02*
D03*
Y00290300D02*
D03*
X00856900Y00315700D02*
D03*
Y00290300D02*
D03*
Y00264900D02*
D03*
X00856900Y00239500D02*
D03*
X00538000Y00507900D02*
D03*
Y00533300D02*
D03*
D24*
X00517000Y00623000D02*
X00549000D01*
X00582000Y00590000D02*
X00658800D01*
X00549000Y00623000D02*
X00582000Y00590000D01*
X00499000Y00629000D02*
X00552000D01*
X00585900Y00595100D02*
X00679100D01*
X00552000Y00629000D02*
X00585900Y00595100D01*
X00514250Y00612000D02*
Y00620250D01*
X00517000Y00623000D01*
X00487000Y00617000D02*
X00499000Y00629000D01*
X00254750Y00132250D02*
Y00147000D01*
Y00161000D01*
X00290000Y00125000D02*
X00292200Y00122800D01*
X00262000Y00125000D02*
X00290000D01*
X00254750Y00132250D02*
X00262000Y00125000D01*
X00303250Y00219000D02*
Y00225750D01*
X00285875Y00228125D02*
X00300875D01*
X00303250Y00225750D01*
X00254750Y00219000D02*
Y00224750D01*
X00258625Y00228625D02*
X00272625D01*
X00254750Y00224750D02*
X00258625Y00228625D01*
X00282000Y00232000D02*
X00285875Y00228125D01*
X00272625Y00228625D02*
X00276000Y00232000D01*
Y00380485D01*
X00282000Y00232000D02*
Y00378000D01*
X00303000Y00138000D02*
Y00160750D01*
X00303250Y00161000D01*
X00292200Y00105700D02*
Y00122800D01*
Y00080300D02*
Y00105700D01*
X00223000Y00173250D02*
X00257250D01*
X00223000Y00173250D02*
X00223000Y00173250D01*
X00286750Y00205000D02*
Y00219000D01*
Y00190250D02*
Y00205000D01*
X00290750Y00186250D02*
X00302750D01*
X00271250Y00205000D02*
Y00219000D01*
Y00190250D02*
Y00205000D01*
X00255250Y00186250D02*
X00267250D01*
X00271250Y00190250D01*
X00286750D02*
X00290750Y00186250D01*
X00286750Y00175750D02*
X00290750Y00179750D01*
X00302750D01*
X00286750Y00161000D02*
Y00175750D01*
X00271250Y00161000D02*
Y00175750D01*
X00255250Y00179750D02*
X00267250D01*
X00271250Y00175750D01*
X00487000Y00596000D02*
Y00617000D01*
X00503750Y00590000D02*
X00527000D01*
X00532900Y00584100D02*
X00538000D01*
X00527000Y00590000D02*
X00532900Y00584100D01*
X00497750Y00596000D02*
X00503750Y00590000D01*
X00869000Y00308000D02*
Y00329000D01*
X00856900Y00341100D02*
X00869000Y00329000D01*
X00864000Y00303000D02*
X00869000Y00308000D01*
X00830000Y00303000D02*
X00864000D01*
X00537750Y00298000D02*
X00548750Y00287000D01*
X00580000D02*
X00609000Y00258000D01*
X00548750Y00287000D02*
X00580000D01*
X00514506Y00521494D02*
X00546506D01*
X00514250Y00521750D02*
X00514506Y00521494D01*
X00546506D02*
X00586000Y00482000D01*
X00526000Y00568000D02*
X00535300Y00558700D01*
X00514250Y00568000D02*
X00526000D01*
X00535300Y00558700D02*
X00538000D01*
X00514250Y00582000D02*
X00521000D01*
X00531000Y00572000D02*
X00651400D01*
X00521000Y00582000D02*
X00531000Y00572000D01*
X00758250Y00045000D02*
X00760686Y00042564D01*
X00792564D01*
X00807000Y00057000D01*
X00555250Y00045000D02*
X00557748Y00042502D01*
X00721498D02*
X00727000Y00037000D01*
X00557748Y00042502D02*
X00721498D01*
X00739350Y00355000D02*
Y00366900D01*
X00733250Y00373000D02*
X00739350Y00366900D01*
X00461250Y00470000D02*
X00651800D01*
X00442250Y00489000D02*
X00461250Y00470000D01*
X00402000Y00476000D02*
Y00482500D01*
X00414000Y00464000D02*
X00643000D01*
X00402000Y00476000D02*
X00414000Y00464000D01*
X00623000Y00181515D02*
X00634515Y00170000D01*
X00594000Y00413000D02*
X00623000Y00384000D01*
Y00181515D02*
Y00384000D01*
X00596485Y00419000D02*
X00629000Y00386485D01*
Y00184000D02*
X00637000Y00176000D01*
X00629000Y00184000D02*
Y00386485D01*
X00856900Y00214100D02*
X00872000Y00199000D01*
Y00183000D02*
Y00199000D01*
X00853000Y00174000D02*
X00863000D01*
X00872000Y00183000D01*
X00814000Y00135000D02*
X00853000Y00174000D01*
X00612000Y00135000D02*
X00814000D01*
X00616000Y00140000D02*
X00811000D01*
X00856900Y00185900D02*
Y00188700D01*
X00811000Y00140000D02*
X00856900Y00185900D01*
X00619000Y00146000D02*
X00809000D01*
X00843000Y00180000D02*
Y00245000D01*
X00809000Y00146000D02*
X00843000Y00180000D01*
X00836000Y00181000D02*
Y00247000D01*
X00622000Y00152000D02*
X00807000D01*
X00836000Y00181000D01*
X00665200Y00482000D02*
X00679100Y00468100D01*
X00586000Y00482000D02*
X00665200D01*
X00582500Y00476500D02*
X00653500D01*
X00551100Y00507900D02*
X00582500Y00476500D01*
X00538000Y00507900D02*
X00551100D01*
X00424000Y00489000D02*
X00425750D01*
X00414000Y00499000D02*
Y00521300D01*
Y00499000D02*
X00424000Y00489000D01*
X00514250Y00521750D02*
Y00524000D01*
X00402000Y00533300D02*
X00414000Y00521300D01*
X00433750Y00590000D02*
X00481000D01*
X00487000Y00596000D01*
X00574000Y00255000D02*
X00585000Y00244000D01*
Y00162000D02*
X00612000Y00135000D01*
X00585000Y00162000D02*
Y00244000D01*
X00577000Y00263000D02*
X00591000Y00249000D01*
Y00165000D02*
X00616000Y00140000D01*
X00591000Y00165000D02*
Y00249000D01*
X00577000Y00272000D02*
X00597000Y00252000D01*
Y00168000D02*
X00619000Y00146000D01*
X00597000Y00168000D02*
Y00252000D01*
X00603000Y00171000D02*
X00622000Y00152000D01*
X00578000Y00280000D02*
X00603000Y00255000D01*
Y00171000D02*
Y00255000D01*
X00609000Y00174000D02*
X00624000Y00159000D01*
X00609000Y00174000D02*
Y00258000D01*
X00915525Y00436475D02*
X00915525Y00134525D01*
X00902000Y00121000D02*
X00915525Y00134525D01*
X00908000Y00444000D02*
X00915525Y00436475D01*
X00922000Y00440000D02*
X00922000Y00133000D01*
X00915500Y00446500D02*
Y00485500D01*
X00915500Y00446500D02*
X00922000Y00440000D01*
X00908000Y00493000D02*
X00915500Y00485500D01*
X00908000Y00493000D02*
X00908000Y00528000D01*
X00904000Y00115000D02*
X00922000Y00133000D01*
X00908000Y00444000D02*
Y00481000D01*
X00899000Y00127000D02*
X00908000Y00136000D01*
Y00433000D01*
X00821000Y00188000D02*
Y00294000D01*
X00634515Y00170000D02*
X00803000D01*
X00821000Y00188000D01*
X00637000Y00176000D02*
X00801000D01*
X00815000Y00190000D01*
Y00300000D01*
X00798000Y00187000D02*
Y00315000D01*
X00624000Y00159000D02*
X00798000D01*
X00807000Y00057000D02*
Y00111000D01*
X00823000Y00127000D01*
X00899000D01*
X00825000Y00121000D02*
X00902000D01*
X00813000Y00054929D02*
Y00109000D01*
X00825000Y00121000D01*
X00819000Y00106000D02*
X00828000Y00115000D01*
X00904000D01*
X00821000Y00294000D02*
X00830000Y00303000D01*
X00815000Y00300000D02*
X00831000Y00316000D01*
X00856600D01*
X00266800Y00080300D02*
Y00105700D01*
X00292200Y00080300D02*
X00292200Y00080300D01*
X00742250Y00059000D02*
X00757750D01*
X00758250Y00058500D01*
Y00045000D02*
Y00058500D01*
X00477750Y00310750D02*
Y00339000D01*
X00464400Y00297400D02*
X00477750Y00310750D01*
X00483000Y00369000D02*
X00515000D01*
X00477750Y00339000D02*
Y00363750D01*
X00483000Y00369000D01*
X00451100Y00310100D02*
X00462250Y00321250D01*
Y00339000D01*
X00457000Y00369000D02*
X00462250Y00363750D01*
Y00339000D02*
Y00363750D01*
X00424000Y00370000D02*
X00425000Y00369000D01*
X00457000D01*
X00423000Y00297400D02*
X00464400D01*
X00423000Y00310100D02*
X00451100D01*
X00710250Y00320250D02*
X00726650Y00336650D01*
Y00355000D01*
X00558500Y00205000D02*
X00569000D01*
X00558000Y00204500D02*
X00558500Y00205000D01*
X00517000Y00259300D02*
X00534300D01*
X00538000Y00263000D02*
X00577000D01*
X00534300Y00259300D02*
X00538000Y00263000D01*
X00823000Y00340000D02*
Y00380000D01*
X00834900Y00391900D01*
X00856900D01*
X00798000Y00315000D02*
X00823000Y00340000D01*
X00856600Y00316000D02*
X00856900Y00315700D01*
X00538000Y00280000D02*
X00578000D01*
X00517000Y00272000D02*
X00577000D01*
X00545750Y00255000D02*
X00574000D01*
X00421250Y00149000D02*
X00450950D01*
X00420000Y00147750D02*
X00421250Y00149000D01*
X00490550Y00147500D02*
X00520000D01*
X00489050Y00149000D02*
X00490550Y00147500D01*
X00850000Y00252000D02*
X00867000D01*
X00517000Y00284700D02*
X00533300D01*
X00538000Y00280000D01*
X00537150Y00297400D02*
X00537750Y00298000D01*
X00517000Y00297400D02*
X00537150D01*
X00536850Y00233900D02*
X00537750Y00233000D01*
X00517000Y00233900D02*
X00536850D01*
X00517000Y00246600D02*
X00517400Y00247000D01*
X00537750D01*
X00446800Y00221200D02*
X00450950Y00217050D01*
X00423000Y00221200D02*
X00446800D01*
X00450950Y00203000D02*
Y00217050D01*
X00537750Y00247000D02*
X00545750Y00255000D01*
X00314515Y00419000D02*
X00596485D01*
X00317000Y00413000D02*
X00594000D01*
X00276000Y00380485D02*
X00314515Y00419000D01*
X00282000Y00378000D02*
X00317000Y00413000D01*
X00819000Y00053000D02*
Y00106000D01*
X00836000Y00247000D02*
X00853900Y00264900D01*
X00856900D01*
X00843000Y00245000D02*
X00850000Y00252000D01*
X00856900Y00290300D02*
X00873000Y00274200D01*
Y00258000D02*
Y00274200D01*
X00867000Y00252000D02*
X00873000Y00258000D01*
X00798071Y00040000D02*
X00813000Y00054929D01*
X00724000Y00032000D02*
X00798000D01*
X00819000Y00053000D01*
X00798000Y00040000D02*
X00798071D01*
X00795000Y00037000D02*
X00798000Y00040000D01*
X00727000Y00037000D02*
X00795000D01*
X00719000D02*
X00724000Y00032000D01*
X00526000Y00037000D02*
X00719000D01*
X00518000Y00045000D02*
X00526000Y00037000D01*
X00554750Y00045500D02*
X00555250Y00045000D01*
X00554750Y00045500D02*
Y00059000D01*
X00539250D02*
X00554750D01*
X00428250Y00045000D02*
X00518000D01*
X00427750Y00045500D02*
X00428250Y00045000D01*
X00427750Y00045500D02*
Y00059000D01*
X00412250D02*
X00427750D01*
X00653500Y00476500D02*
X00674000Y00456000D01*
X00639000Y00458000D02*
X00650000Y00447000D01*
X00389533Y00476467D02*
X00408000Y00458000D01*
X00639000D01*
X00538000Y00450000D02*
X00636000D01*
X00644000Y00304000D02*
Y00442000D01*
X00636000Y00450000D02*
X00644000Y00442000D01*
X00650000Y00307000D02*
Y00447000D01*
X00656000Y00310000D02*
Y00451000D01*
X00643000Y00464000D02*
X00656000Y00451000D01*
X00651800Y00470000D02*
X00679100Y00442700D01*
X00663000Y00230200D02*
Y00294000D01*
Y00230200D02*
X00679100Y00214100D01*
X00650000Y00307000D02*
X00663000Y00294000D01*
X00656000Y00211800D02*
Y00292000D01*
X00644000Y00304000D02*
X00656000Y00292000D01*
Y00211800D02*
X00679100Y00188700D01*
X00526100Y00496000D02*
X00538000Y00507900D01*
X00514250Y00496000D02*
X00526100D01*
X00675700Y00290300D02*
X00679100D01*
X00656000Y00310000D02*
X00675700Y00290300D01*
X00673000Y00303000D02*
X00685000D01*
X00663000Y00313000D02*
Y00421000D01*
Y00313000D02*
X00673000Y00303000D01*
X00685000D02*
X00692000Y00296000D01*
X00674000Y00456000D02*
X00686000D01*
X00693000Y00449000D01*
Y00436000D02*
Y00449000D01*
X00687000Y00430000D02*
X00693000Y00436000D01*
X00672000Y00430000D02*
X00687000D01*
X00663000Y00421000D02*
X00672000Y00430000D01*
X00692000Y00277800D02*
Y00296000D01*
X00679100Y00264900D02*
X00692000Y00277800D01*
X00658800Y00590000D02*
X00679100Y00569700D01*
X00651400Y00572000D02*
X00679100Y00544300D01*
X00389533Y00476467D02*
Y00495433D01*
X00538000Y00482500D02*
X00538500Y00482000D01*
X00389533Y00495433D02*
X00402000Y00507900D01*
X00414000Y00534000D02*
X00424000Y00524000D01*
X00414000Y00534000D02*
Y00545000D01*
X00424000Y00524000D02*
X00425750D01*
X00652000Y00546000D02*
X00679100Y00518900D01*
X00701000Y00335750D02*
X00710750D01*
X00684450D02*
X00701000D01*
X00679100Y00341100D02*
X00684450Y00335750D01*
X00683650Y00320250D02*
X00701000D01*
X00710250D01*
X00433750Y00546000D02*
X00652000D01*
X00418100Y00568000D02*
X00425750D01*
X00402000Y00584100D02*
X00418100Y00568000D01*
X00710750Y00335750D02*
X00713950Y00338950D01*
Y00355000D01*
X00679100Y00315700D02*
X00683650Y00320250D01*
X00726650Y00286850D02*
Y00301000D01*
Y00286850D02*
X00730500Y00283000D01*
X00739000Y00300650D02*
X00739350Y00301000D01*
X00739000Y00269000D02*
Y00300650D01*
X00754300Y00303250D02*
X00765000D01*
X00752050Y00301000D02*
X00754300Y00303250D01*
X00402000Y00557000D02*
Y00558700D01*
Y00557000D02*
X00414000Y00545000D01*
X00425750Y00582000D02*
X00433750Y00590000D01*
X00497750Y00596000D02*
Y00610000D01*
X00514250Y00538000D02*
X00516675Y00535575D01*
X00535725D02*
X00538000Y00533300D01*
X00516675Y00535575D02*
X00535725D01*
X00425750Y00538000D02*
X00433750Y00546000D01*
D25*
X00219000Y00281000D02*
Y00293000D01*
Y00269000D02*
Y00281000D01*
Y00257000D02*
Y00269000D01*
X00219000Y00293000D02*
X00219000Y00621000D01*
X00765000Y00569700D02*
X00856900D01*
X00765000D02*
X00765000D01*
X00647000Y00705000D02*
X00747000D01*
X00765000Y00569700D02*
Y00687000D01*
X00747000Y00705000D02*
X00765000Y00687000D01*
X00463000Y00673000D02*
X00615000D01*
X00271000D02*
X00463000D01*
X00219000Y00621000D02*
X00271000Y00673000D01*
X00615000D02*
X00647000Y00705000D01*
D26*
X00165200Y00080300D02*
Y00105700D01*
X00888000Y00417000D02*
Y00557000D01*
X00856900Y00569700D02*
X00875300D01*
X00888000Y00557000D01*
Y00417000D02*
X00897000Y00408000D01*
X00765000Y00384250D02*
Y00569700D01*
X00765000Y00384250D02*
X00779000D01*
D27*
X00202000Y00215000D02*
X00215000Y00228000D01*
X00202000Y00165000D02*
X00210250Y00156750D01*
X00202000Y00165000D02*
Y00215000D01*
X00210250Y00156750D02*
X00223000D01*
X00215000Y00228000D02*
X00240000D01*
Y00212000D02*
Y00228000D01*
Y00212000D02*
X00247000Y00205000D01*
X00254750D01*
X00458000Y00538000D02*
X00460000Y00536000D01*
X00442250Y00538000D02*
X00458000D01*
X00480000Y00536000D02*
X00482000Y00538000D01*
X00497750D01*
X00480000Y00556000D02*
X00482000Y00554000D01*
X00497750D01*
X00558000Y00204500D02*
Y00219000D01*
X00554250Y00247000D02*
X00563000D01*
X00554250Y00298000D02*
X00563000D01*
X00554250Y00219000D02*
X00558000D01*
X00554250D02*
X00555000Y00219750D01*
X00569000D01*
X00554250Y00219000D02*
Y00233000D01*
Y00247000D02*
X00554250Y00247000D01*
X00497750Y00486250D02*
X00498000Y00486000D01*
X00497750Y00486250D02*
Y00496000D01*
X00701000Y00294000D02*
Y00303750D01*
Y00352250D02*
Y00362000D01*
X00442250Y00580000D02*
X00458000D01*
X00442250Y00568000D02*
Y00580000D01*
Y00524000D02*
Y00536000D01*
X00497750D02*
Y00538000D01*
Y00524000D02*
Y00536000D01*
X00480628Y00511372D02*
X00496378D01*
X00497750Y00510000D01*
X00480000Y00512000D02*
X00480628Y00511372D01*
X00480000Y00580000D02*
X00495750D01*
X00497750Y00582000D01*
Y00568000D02*
Y00582000D01*
X00190600Y00080400D02*
Y00105700D01*
X00216000Y00080300D02*
Y00105700D01*
X00241400Y00080300D02*
Y00105700D01*
D28*
X00774250Y00079750D02*
X00774800Y00080300D01*
X00774250Y00059000D02*
Y00079750D01*
X00444250Y00079950D02*
X00444600Y00080300D01*
X00444250Y00059000D02*
Y00079950D01*
X00571250Y00079950D02*
X00571600Y00080300D01*
X00571250Y00059000D02*
Y00079950D01*
X00449000Y00647250D02*
X00463000D01*
Y00673000D01*
D29*
X00441000Y00553000D02*
X00457000D01*
X00460000Y00556000D01*
X00190600Y00080400D02*
X00192000Y00079000D01*
X00678000Y00392000D02*
X00682447D01*
X00423000Y00233900D02*
X00478100D01*
X00489050Y00222950D01*
Y00203000D02*
Y00222950D01*
X00463650Y00149000D02*
X00466750Y00145900D01*
Y00133942D02*
Y00145900D01*
X00360308Y00130500D02*
X00463308D01*
X00466750Y00133942D01*
X00352500Y00122692D02*
X00360308Y00130500D01*
X00352500Y00114000D02*
Y00122692D01*
X00343000Y00105700D02*
X00344200D01*
X00352500Y00114000D01*
X00473250Y00145900D02*
X00476350Y00149000D01*
X00473250Y00131250D02*
Y00145900D01*
X00466000Y00124000D02*
X00473250Y00131250D01*
X00363000Y00124000D02*
X00466000D01*
X00359000Y00114000D02*
X00367300Y00105700D01*
X00359000Y00120000D02*
X00363000Y00124000D01*
X00359000Y00114000D02*
Y00120000D01*
X00367300Y00105700D02*
X00368400D01*
X00343000Y00080300D02*
X00352450Y00089750D01*
X00358950Y00089750D02*
X00368400Y00080300D01*
X00358950Y00089750D02*
Y00096250D01*
X00368400Y00105700D01*
X00352450Y00089750D02*
Y00096250D01*
X00343000Y00105700D02*
X00352450Y00096250D01*
X00458000Y00510000D02*
X00460000Y00512000D01*
X00442250Y00510000D02*
X00458000D01*
X00216000Y00079000D02*
Y00080300D01*
X00241400Y00079600D02*
Y00080300D01*
Y00079600D02*
X00242000Y00079000D01*
X00544900Y00107000D02*
X00547000D01*
X00749400Y00105700D02*
X00750000Y00105100D01*
Y00105000D02*
Y00105100D01*
D30*
X00733000Y00328000D02*
D03*
X00470000Y00370000D02*
D03*
X00550000Y00388000D02*
D03*
Y00378000D02*
D03*
Y00368000D02*
D03*
Y00358000D02*
D03*
Y00348000D02*
D03*
Y00398000D02*
D03*
X00540000D02*
D03*
X00530000D02*
D03*
X00520000D02*
D03*
X00510000D02*
D03*
X00500000D02*
D03*
X00480000D02*
D03*
X00470000D02*
D03*
X00460000D02*
D03*
X00450000D02*
D03*
X00440000D02*
D03*
X00430000D02*
D03*
X00420000D02*
D03*
X00410000D02*
D03*
X00400000D02*
D03*
X00390000D02*
D03*
Y00388000D02*
D03*
Y00348000D02*
D03*
Y00358000D02*
D03*
Y00368000D02*
D03*
Y00378000D02*
D03*
X00490000Y00398000D02*
D03*
X00152400Y00093000D02*
D03*
X00177800D02*
D03*
X00203200D02*
D03*
X00228600D02*
D03*
X00254000D02*
D03*
X00279400D02*
D03*
X00304800D02*
D03*
X00330200D02*
D03*
X00381000D02*
D03*
X00482600D02*
D03*
X00508000D02*
D03*
X00609600D02*
D03*
X00711200D02*
D03*
X00685800D02*
D03*
X00660400D02*
D03*
X00635000D02*
D03*
X00877000Y00496000D02*
D03*
X00900000D02*
D03*
X00717000Y00059000D02*
D03*
X00732000Y00045000D02*
D03*
X00514000Y00059000D02*
D03*
X00530000Y00045000D02*
D03*
X00403000D02*
D03*
X00387000Y00059000D02*
D03*
X00869000Y00481000D02*
D03*
Y00433000D02*
D03*
X00908000Y00547000D02*
D03*
X00280000Y00068000D02*
D03*
X00306000Y00118000D02*
D03*
X00280000D02*
D03*
X00254000D02*
D03*
Y00068000D02*
D03*
X00306000D02*
D03*
X00926000Y00772000D02*
D03*
X00911000Y00742000D02*
D03*
X00926000Y00712000D02*
D03*
Y00652000D02*
D03*
Y00592000D02*
D03*
Y00532000D02*
D03*
Y00472000D02*
D03*
Y00112000D02*
D03*
Y00052000D02*
D03*
X00896000Y00772000D02*
D03*
X00881000Y00742000D02*
D03*
X00896000Y00592000D02*
D03*
X00881000Y00382000D02*
D03*
X00896000Y00352000D02*
D03*
X00881000Y00322000D02*
D03*
X00896000Y00292000D02*
D03*
X00881000Y00262000D02*
D03*
X00896000Y00232000D02*
D03*
X00881000Y00202000D02*
D03*
X00896000Y00172000D02*
D03*
X00881000Y00142000D02*
D03*
X00896000Y00052000D02*
D03*
X00851000Y00862000D02*
D03*
X00866000Y00832000D02*
D03*
Y00772000D02*
D03*
Y00712000D02*
D03*
Y00532000D02*
D03*
X00851000Y00142000D02*
D03*
X00866000Y00052000D02*
D03*
X00821000Y00862000D02*
D03*
X00836000Y00832000D02*
D03*
Y00772000D02*
D03*
X00821000Y00742000D02*
D03*
X00836000Y00052000D02*
D03*
X00791000Y00862000D02*
D03*
X00806000Y00832000D02*
D03*
X00791000Y00802000D02*
D03*
X00806000Y00772000D02*
D03*
X00791000Y00742000D02*
D03*
Y00502000D02*
D03*
Y00442000D02*
D03*
Y00382000D02*
D03*
Y00262000D02*
D03*
Y00202000D02*
D03*
Y00082000D02*
D03*
Y00022000D02*
D03*
X00761000Y00862000D02*
D03*
X00776000Y00832000D02*
D03*
X00761000Y00802000D02*
D03*
X00776000Y00772000D02*
D03*
X00761000Y00742000D02*
D03*
X00776000Y00532000D02*
D03*
Y00472000D02*
D03*
Y00412000D02*
D03*
Y00232000D02*
D03*
X00761000Y00202000D02*
D03*
Y00022000D02*
D03*
X00731000Y00862000D02*
D03*
X00746000Y00832000D02*
D03*
X00731000Y00802000D02*
D03*
X00746000Y00772000D02*
D03*
X00731000Y00742000D02*
D03*
Y00682000D02*
D03*
X00746000Y00652000D02*
D03*
X00731000Y00622000D02*
D03*
X00746000Y00592000D02*
D03*
X00731000Y00562000D02*
D03*
X00746000Y00532000D02*
D03*
X00731000Y00502000D02*
D03*
X00746000Y00472000D02*
D03*
X00731000Y00442000D02*
D03*
X00746000Y00412000D02*
D03*
Y00232000D02*
D03*
X00731000Y00202000D02*
D03*
Y00022000D02*
D03*
X00701000Y00862000D02*
D03*
X00716000Y00832000D02*
D03*
X00701000Y00802000D02*
D03*
X00716000Y00772000D02*
D03*
X00701000Y00742000D02*
D03*
Y00682000D02*
D03*
X00716000Y00652000D02*
D03*
X00701000Y00622000D02*
D03*
X00716000Y00592000D02*
D03*
X00701000Y00562000D02*
D03*
X00716000Y00532000D02*
D03*
X00701000Y00502000D02*
D03*
X00716000Y00472000D02*
D03*
X00701000Y00442000D02*
D03*
X00716000Y00412000D02*
D03*
X00701000Y00382000D02*
D03*
Y00262000D02*
D03*
X00716000Y00232000D02*
D03*
X00701000Y00202000D02*
D03*
Y00022000D02*
D03*
X00671000Y00862000D02*
D03*
X00686000Y00832000D02*
D03*
X00671000Y00802000D02*
D03*
X00686000Y00772000D02*
D03*
X00671000Y00742000D02*
D03*
X00686000Y00532000D02*
D03*
Y00052000D02*
D03*
X00671000Y00022000D02*
D03*
X00641000Y00862000D02*
D03*
X00656000Y00832000D02*
D03*
X00641000Y00802000D02*
D03*
X00656000Y00772000D02*
D03*
X00641000Y00742000D02*
D03*
X00656000Y00652000D02*
D03*
X00641000Y00622000D02*
D03*
Y00562000D02*
D03*
X00656000Y00532000D02*
D03*
X00641000Y00502000D02*
D03*
Y00262000D02*
D03*
X00656000Y00052000D02*
D03*
X00641000Y00022000D02*
D03*
X00611000Y00862000D02*
D03*
X00626000Y00832000D02*
D03*
X00611000Y00802000D02*
D03*
X00626000Y00772000D02*
D03*
X00611000Y00742000D02*
D03*
X00626000Y00712000D02*
D03*
Y00652000D02*
D03*
X00611000Y00622000D02*
D03*
Y00562000D02*
D03*
X00626000Y00532000D02*
D03*
X00611000Y00502000D02*
D03*
Y00442000D02*
D03*
X00626000Y00412000D02*
D03*
X00611000Y00382000D02*
D03*
Y00322000D02*
D03*
X00626000Y00052000D02*
D03*
X00611000Y00022000D02*
D03*
X00581000Y00862000D02*
D03*
X00596000Y00832000D02*
D03*
X00581000Y00802000D02*
D03*
X00596000Y00772000D02*
D03*
X00581000Y00742000D02*
D03*
X00596000Y00712000D02*
D03*
Y00652000D02*
D03*
X00581000Y00622000D02*
D03*
Y00562000D02*
D03*
X00596000Y00532000D02*
D03*
X00581000Y00502000D02*
D03*
Y00442000D02*
D03*
Y00382000D02*
D03*
X00596000Y00352000D02*
D03*
X00581000Y00322000D02*
D03*
X00596000Y00292000D02*
D03*
Y00052000D02*
D03*
X00581000Y00022000D02*
D03*
X00566000Y00832000D02*
D03*
Y00772000D02*
D03*
Y00712000D02*
D03*
Y00652000D02*
D03*
Y00592000D02*
D03*
X00551000Y00562000D02*
D03*
X00566000Y00532000D02*
D03*
X00551000Y00442000D02*
D03*
X00566000Y00352000D02*
D03*
X00551000Y00322000D02*
D03*
X00566000Y00172000D02*
D03*
X00551000Y00022000D02*
D03*
X00536000Y00652000D02*
D03*
X00521000Y00442000D02*
D03*
X00536000Y00352000D02*
D03*
X00521000Y00022000D02*
D03*
X00506000Y00652000D02*
D03*
X00491000Y00442000D02*
D03*
X00506000Y00352000D02*
D03*
X00491000Y00322000D02*
D03*
Y00262000D02*
D03*
Y00022000D02*
D03*
X00476000Y00652000D02*
D03*
X00461000Y00442000D02*
D03*
X00476000Y00292000D02*
D03*
X00461000Y00262000D02*
D03*
X00476000Y00052000D02*
D03*
X00461000Y00022000D02*
D03*
X00446000Y00472000D02*
D03*
X00431000Y00442000D02*
D03*
X00446000Y00352000D02*
D03*
X00431000Y00022000D02*
D03*
X00416000Y00592000D02*
D03*
Y00472000D02*
D03*
X00401000Y00442000D02*
D03*
X00416000Y00352000D02*
D03*
X00401000Y00322000D02*
D03*
Y00262000D02*
D03*
Y00202000D02*
D03*
Y00142000D02*
D03*
Y00022000D02*
D03*
X00371000Y00862000D02*
D03*
Y00802000D02*
D03*
Y00742000D02*
D03*
X00386000Y00652000D02*
D03*
X00371000Y00622000D02*
D03*
Y00562000D02*
D03*
Y00502000D02*
D03*
Y00442000D02*
D03*
Y00382000D02*
D03*
Y00322000D02*
D03*
X00386000Y00292000D02*
D03*
X00371000Y00262000D02*
D03*
X00386000Y00232000D02*
D03*
X00371000Y00202000D02*
D03*
Y00142000D02*
D03*
Y00022000D02*
D03*
X00341000Y00862000D02*
D03*
X00356000Y00832000D02*
D03*
X00341000Y00802000D02*
D03*
X00356000Y00772000D02*
D03*
X00341000Y00742000D02*
D03*
X00356000Y00712000D02*
D03*
Y00652000D02*
D03*
X00341000Y00622000D02*
D03*
X00356000Y00592000D02*
D03*
X00341000Y00562000D02*
D03*
X00356000Y00532000D02*
D03*
X00341000Y00502000D02*
D03*
X00356000Y00472000D02*
D03*
X00341000Y00442000D02*
D03*
Y00382000D02*
D03*
X00356000Y00352000D02*
D03*
X00341000Y00322000D02*
D03*
X00356000Y00292000D02*
D03*
X00341000Y00262000D02*
D03*
X00356000Y00232000D02*
D03*
X00341000Y00142000D02*
D03*
X00356000Y00052000D02*
D03*
X00341000Y00022000D02*
D03*
X00311000Y00862000D02*
D03*
X00326000Y00832000D02*
D03*
X00311000Y00802000D02*
D03*
X00326000Y00772000D02*
D03*
X00311000Y00742000D02*
D03*
X00326000Y00712000D02*
D03*
Y00652000D02*
D03*
X00311000Y00622000D02*
D03*
X00326000Y00592000D02*
D03*
X00311000Y00562000D02*
D03*
X00326000Y00532000D02*
D03*
X00311000Y00502000D02*
D03*
X00326000Y00472000D02*
D03*
X00311000Y00442000D02*
D03*
Y00382000D02*
D03*
X00326000Y00352000D02*
D03*
X00311000Y00322000D02*
D03*
X00326000Y00292000D02*
D03*
X00311000Y00262000D02*
D03*
X00326000Y00052000D02*
D03*
X00311000Y00022000D02*
D03*
X00281000Y00862000D02*
D03*
X00296000Y00832000D02*
D03*
X00281000Y00802000D02*
D03*
X00296000Y00772000D02*
D03*
X00281000Y00742000D02*
D03*
X00296000Y00712000D02*
D03*
Y00652000D02*
D03*
X00281000Y00622000D02*
D03*
X00296000Y00592000D02*
D03*
X00281000Y00562000D02*
D03*
X00296000Y00532000D02*
D03*
X00281000Y00502000D02*
D03*
X00296000Y00472000D02*
D03*
X00281000Y00442000D02*
D03*
X00296000Y00412000D02*
D03*
Y00352000D02*
D03*
Y00292000D02*
D03*
Y00052000D02*
D03*
X00281000Y00022000D02*
D03*
X00251000Y00862000D02*
D03*
X00266000Y00832000D02*
D03*
X00251000Y00802000D02*
D03*
X00266000Y00772000D02*
D03*
X00251000Y00742000D02*
D03*
X00266000Y00712000D02*
D03*
X00251000Y00682000D02*
D03*
Y00622000D02*
D03*
X00266000Y00592000D02*
D03*
X00251000Y00562000D02*
D03*
X00266000Y00532000D02*
D03*
X00251000Y00502000D02*
D03*
X00266000Y00472000D02*
D03*
X00251000Y00442000D02*
D03*
X00266000Y00412000D02*
D03*
X00251000Y00382000D02*
D03*
X00266000Y00352000D02*
D03*
X00251000Y00322000D02*
D03*
X00266000Y00292000D02*
D03*
X00251000Y00262000D02*
D03*
X00266000Y00052000D02*
D03*
X00251000Y00022000D02*
D03*
X00221000Y00862000D02*
D03*
X00236000Y00832000D02*
D03*
X00221000Y00802000D02*
D03*
X00236000Y00772000D02*
D03*
X00221000Y00742000D02*
D03*
X00236000Y00712000D02*
D03*
X00221000Y00682000D02*
D03*
X00236000Y00592000D02*
D03*
Y00532000D02*
D03*
Y00472000D02*
D03*
Y00412000D02*
D03*
Y00352000D02*
D03*
Y00292000D02*
D03*
Y00052000D02*
D03*
X00221000Y00022000D02*
D03*
X00206000Y00832000D02*
D03*
X00191000Y00802000D02*
D03*
X00206000Y00772000D02*
D03*
X00191000Y00742000D02*
D03*
X00206000Y00712000D02*
D03*
X00191000Y00682000D02*
D03*
X00206000Y00652000D02*
D03*
X00191000Y00622000D02*
D03*
X00206000Y00592000D02*
D03*
X00191000Y00562000D02*
D03*
X00206000Y00532000D02*
D03*
X00191000Y00502000D02*
D03*
X00206000Y00472000D02*
D03*
X00191000Y00442000D02*
D03*
X00206000Y00412000D02*
D03*
X00191000Y00382000D02*
D03*
X00206000Y00352000D02*
D03*
X00191000Y00322000D02*
D03*
X00206000Y00292000D02*
D03*
X00191000Y00262000D02*
D03*
X00206000Y00232000D02*
D03*
X00191000Y00202000D02*
D03*
X00206000Y00052000D02*
D03*
X00191000Y00022000D02*
D03*
X00176000Y00832000D02*
D03*
X00161000Y00802000D02*
D03*
X00176000Y00772000D02*
D03*
X00161000Y00742000D02*
D03*
X00176000Y00712000D02*
D03*
X00161000Y00682000D02*
D03*
X00176000Y00652000D02*
D03*
X00161000Y00622000D02*
D03*
X00176000Y00592000D02*
D03*
X00161000Y00562000D02*
D03*
X00176000Y00532000D02*
D03*
X00161000Y00502000D02*
D03*
X00176000Y00472000D02*
D03*
X00161000Y00442000D02*
D03*
X00176000Y00412000D02*
D03*
X00161000Y00382000D02*
D03*
X00176000Y00352000D02*
D03*
X00161000Y00322000D02*
D03*
X00176000Y00292000D02*
D03*
X00161000Y00262000D02*
D03*
X00176000Y00232000D02*
D03*
X00161000Y00202000D02*
D03*
X00176000Y00172000D02*
D03*
Y00052000D02*
D03*
X00161000Y00022000D02*
D03*
X00146000Y00832000D02*
D03*
X00131000Y00802000D02*
D03*
X00146000Y00772000D02*
D03*
X00131000Y00742000D02*
D03*
X00146000Y00712000D02*
D03*
X00131000Y00682000D02*
D03*
X00146000Y00652000D02*
D03*
X00131000Y00622000D02*
D03*
X00146000Y00592000D02*
D03*
X00131000Y00562000D02*
D03*
X00146000Y00532000D02*
D03*
X00131000Y00502000D02*
D03*
X00146000Y00472000D02*
D03*
X00131000Y00442000D02*
D03*
X00146000Y00412000D02*
D03*
X00131000Y00382000D02*
D03*
X00146000Y00352000D02*
D03*
X00131000Y00322000D02*
D03*
X00146000Y00292000D02*
D03*
X00131000Y00262000D02*
D03*
X00146000Y00232000D02*
D03*
X00131000Y00202000D02*
D03*
X00146000Y00172000D02*
D03*
X00131000Y00142000D02*
D03*
Y00082000D02*
D03*
X00146000Y00052000D02*
D03*
X00131000Y00022000D02*
D03*
X00116000Y00832000D02*
D03*
Y00772000D02*
D03*
Y00712000D02*
D03*
X00101000Y00682000D02*
D03*
X00116000Y00652000D02*
D03*
X00101000Y00622000D02*
D03*
X00116000Y00592000D02*
D03*
X00101000Y00562000D02*
D03*
X00116000Y00532000D02*
D03*
X00101000Y00502000D02*
D03*
X00116000Y00472000D02*
D03*
X00101000Y00442000D02*
D03*
X00116000Y00412000D02*
D03*
X00101000Y00382000D02*
D03*
X00116000Y00352000D02*
D03*
X00101000Y00322000D02*
D03*
X00116000Y00292000D02*
D03*
X00101000Y00262000D02*
D03*
X00116000Y00232000D02*
D03*
X00101000Y00202000D02*
D03*
X00116000Y00172000D02*
D03*
X00101000Y00142000D02*
D03*
X00116000Y00112000D02*
D03*
Y00052000D02*
D03*
X00086000Y00832000D02*
D03*
X00071000Y00802000D02*
D03*
X00086000Y00772000D02*
D03*
X00071000Y00742000D02*
D03*
Y00682000D02*
D03*
X00086000Y00652000D02*
D03*
X00071000Y00622000D02*
D03*
X00086000Y00592000D02*
D03*
X00071000Y00562000D02*
D03*
X00086000Y00532000D02*
D03*
X00071000Y00502000D02*
D03*
X00086000Y00472000D02*
D03*
X00071000Y00442000D02*
D03*
X00086000Y00412000D02*
D03*
X00071000Y00382000D02*
D03*
X00086000Y00352000D02*
D03*
X00071000Y00322000D02*
D03*
X00086000Y00292000D02*
D03*
X00071000Y00262000D02*
D03*
X00086000Y00232000D02*
D03*
X00071000Y00202000D02*
D03*
X00086000Y00172000D02*
D03*
X00071000Y00142000D02*
D03*
Y00082000D02*
D03*
X00086000Y00052000D02*
D03*
X00071000Y00022000D02*
D03*
X00056000Y00772000D02*
D03*
X00041000Y00682000D02*
D03*
X00056000Y00652000D02*
D03*
X00041000Y00622000D02*
D03*
X00056000Y00592000D02*
D03*
X00041000Y00562000D02*
D03*
X00056000Y00532000D02*
D03*
X00041000Y00502000D02*
D03*
X00056000Y00472000D02*
D03*
X00041000Y00442000D02*
D03*
X00056000Y00412000D02*
D03*
X00041000Y00382000D02*
D03*
X00056000Y00352000D02*
D03*
X00041000Y00322000D02*
D03*
X00056000Y00292000D02*
D03*
X00041000Y00262000D02*
D03*
X00056000Y00232000D02*
D03*
X00041000Y00202000D02*
D03*
X00056000Y00172000D02*
D03*
X00041000Y00142000D02*
D03*
X00056000Y00052000D02*
D03*
X00011000Y00802000D02*
D03*
X00026000Y00772000D02*
D03*
X00011000Y00742000D02*
D03*
X00026000Y00712000D02*
D03*
X00011000Y00682000D02*
D03*
X00026000Y00652000D02*
D03*
X00011000Y00622000D02*
D03*
X00026000Y00592000D02*
D03*
X00011000Y00562000D02*
D03*
X00026000Y00532000D02*
D03*
X00011000Y00502000D02*
D03*
X00026000Y00472000D02*
D03*
X00011000Y00442000D02*
D03*
X00026000Y00412000D02*
D03*
X00011000Y00382000D02*
D03*
X00026000Y00352000D02*
D03*
X00011000Y00322000D02*
D03*
X00026000Y00292000D02*
D03*
X00011000Y00262000D02*
D03*
X00026000Y00232000D02*
D03*
X00011000Y00202000D02*
D03*
X00026000Y00172000D02*
D03*
X00011000Y00142000D02*
D03*
X00026000Y00112000D02*
D03*
X00011000Y00082000D02*
D03*
X00026000Y00052000D02*
D03*
X00011000Y00022000D02*
D03*
X00318000Y00165000D02*
D03*
X00279000Y00183000D02*
D03*
X00190000Y00150000D02*
D03*
X00234000D02*
D03*
X00211000Y00191000D02*
D03*
X00334000Y00204000D02*
D03*
Y00192000D02*
D03*
Y00180000D02*
D03*
X00240000Y00228000D02*
D03*
X00223000Y00204000D02*
D03*
X00279000Y00139000D02*
D03*
X00152444Y00134444D02*
D03*
X00168000Y00150000D02*
D03*
X00190000Y00128000D02*
D03*
X00234000D02*
D03*
X00212000D02*
D03*
X00463000Y00600000D02*
D03*
X00560000Y00480000D02*
D03*
X00514000D02*
D03*
X00470000Y00489000D02*
D03*
X00812000Y00717000D02*
D03*
X00798000D02*
D03*
X00783000D02*
D03*
X00839000Y00583000D02*
D03*
X00807000D02*
D03*
X00791000Y00368000D02*
D03*
X00717000Y00383000D02*
D03*
X00722000Y00259000D02*
D03*
X00712000Y00269000D02*
D03*
X00704000Y00283000D02*
D03*
X00714000Y00313000D02*
D03*
X00756000Y00320000D02*
D03*
Y00336000D02*
D03*
X00434000Y00502000D02*
D03*
X00437000Y00657000D02*
D03*
X00425000D02*
D03*
X00413000D02*
D03*
X00401000D02*
D03*
X00472000Y00631000D02*
D03*
X00463000Y00621000D02*
D03*
X00499000Y00214000D02*
D03*
X00498000Y00198000D02*
D03*
X00464000Y00215000D02*
D03*
X00430000Y00204000D02*
D03*
X00412000Y00164000D02*
D03*
X00409000Y00323000D02*
D03*
X00437000D02*
D03*
Y00339000D02*
D03*
X00503000D02*
D03*
X00577000Y00236000D02*
D03*
X00531000Y00164000D02*
D03*
X00897000Y00408000D02*
D03*
X00908000Y00433000D02*
D03*
Y00528000D02*
D03*
Y00481000D02*
D03*
X00798000Y00187000D02*
D03*
Y00159000D02*
D03*
X00839000Y00282000D02*
D03*
X00219000Y00257000D02*
D03*
Y00269000D02*
D03*
Y00281000D02*
D03*
X00303000Y00138000D02*
D03*
X00789000Y00352000D02*
D03*
X00569000Y00205000D02*
D03*
X00807000Y00222000D02*
D03*
X00563000Y00298000D02*
D03*
X00538000Y00205000D02*
D03*
X00563000Y00247000D02*
D03*
X00807000Y00642000D02*
D03*
Y00612000D02*
D03*
Y00552000D02*
D03*
Y00522000D02*
D03*
Y00492000D02*
D03*
Y00462000D02*
D03*
Y00432000D02*
D03*
Y00402000D02*
D03*
Y00372000D02*
D03*
Y00342000D02*
D03*
Y00312000D02*
D03*
Y00282000D02*
D03*
Y00252000D02*
D03*
X00839000Y00342000D02*
D03*
Y00372000D02*
D03*
Y00402000D02*
D03*
Y00432000D02*
D03*
Y00462000D02*
D03*
Y00492000D02*
D03*
Y00522000D02*
D03*
Y00552000D02*
D03*
Y00612000D02*
D03*
Y00642000D02*
D03*
Y00672000D02*
D03*
X00498000Y00486000D02*
D03*
X00538000Y00450000D02*
D03*
X00701000Y00362000D02*
D03*
Y00294000D02*
D03*
X00522000Y00510000D02*
D03*
X00417000Y00554000D02*
D03*
X00523000Y00598000D02*
D03*
X00522000Y00554000D02*
D03*
D31*
X00257250Y00192750D02*
D03*
Y00186250D02*
D03*
Y00179750D02*
D03*
Y00173250D02*
D03*
X00300750D02*
D03*
Y00179750D02*
D03*
Y00186250D02*
D03*
D32*
Y00192750D02*
D03*
D33*
X00432000Y00628000D02*
D03*
Y00648000D02*
D03*
D34*
X00450950Y00149000D02*
D03*
X00463650D02*
D03*
X00476350D02*
D03*
X00489050D02*
D03*
X00463650Y00203000D02*
D03*
X00476350D02*
D03*
X00489050D02*
D03*
X00752050Y00355000D02*
D03*
X00739350Y00355000D02*
D03*
X00726650D02*
D03*
X00713950Y00355000D02*
D03*
X00739350Y00301000D02*
D03*
X00726650D02*
D03*
X00713950D02*
D03*
D35*
X00450950Y00203000D02*
D03*
X00752050Y00301000D02*
D03*
D36*
X00516000Y00370000D02*
D03*
X00424000D02*
D03*
D37*
X00517000Y00221200D02*
D03*
X00517000Y00233900D02*
D03*
X00517000Y00284700D02*
D03*
X00517000Y00272000D02*
D03*
X00517000Y00259300D02*
D03*
Y00246600D02*
D03*
Y00310100D02*
D03*
Y00297400D02*
D03*
Y00322800D02*
D03*
X00423000Y00233900D02*
D03*
Y00246600D02*
D03*
Y00259300D02*
D03*
X00423000Y00272000D02*
D03*
X00423000Y00284700D02*
D03*
Y00297400D02*
D03*
Y00310100D02*
D03*
Y00322800D02*
D03*
D38*
Y00221200D02*
D03*
D39*
X00480000Y00556000D02*
D03*
Y00580000D02*
D03*
X00460000Y00536000D02*
D03*
Y00512000D02*
D03*
X00480000Y00536000D02*
D03*
Y00512000D02*
D03*
X00460000Y00580000D02*
D03*
X00460000Y00556000D02*
D03*
D40*
X00240250Y00191000D02*
Y00199750D01*
X00236000Y00204000D02*
X00240250Y00199750D01*
X00223000Y00204000D02*
X00236000D01*
X00240250Y00191000D02*
X00242000Y00192750D01*
X00257250D01*
X00316500Y00173250D02*
X00318000Y00174750D01*
X00300750Y00173250D02*
X00316500D01*
D41*
X00279000Y00139000D02*
Y00147000D01*
X00286750D01*
X00271250D02*
X00279000D01*
M02*
