G04*
G04 #@! TF.GenerationSoftware,Altium Limited,Altium Designer,22.1.2 (22)*
G04*
G04 Layer_Color=32896*
%FSAX44Y44*%
%MOMM*%
G71*
G04*
G04 #@! TF.SameCoordinates,84EC4855-0AA3-41C5-BBCE-46EE62212C49*
G04*
G04*
G04 #@! TF.FilePolarity,Positive*
G04*
G01*
G75*
%ADD10C,0.1530*%
%ADD12C,0.2000*%
%ADD13C,0.2540*%
G36*
X00457000Y00525000D02*
X00463000D01*
X00463000Y00524000D01*
X00460000Y00521000D01*
X00457000Y00525000D01*
D02*
G37*
G36*
X00477000Y00525000D02*
X00483000D01*
Y00524000D01*
X00480000Y00521000D01*
X00477000Y00525000D01*
D02*
G37*
G36*
X00457000Y00569000D02*
X00463000D01*
X00463000Y00568000D01*
X00460000Y00565000D01*
X00457000Y00569000D01*
D02*
G37*
G36*
X00477000D02*
X00483000D01*
X00483000Y00568000D01*
X00480000Y00565000D01*
X00477000Y00569000D01*
D02*
G37*
D10*
X00310000Y00168000D02*
Y00198000D01*
X00248000D02*
X00310000D01*
X00248000Y00168000D02*
Y00198000D01*
Y00168000D02*
X00310000D01*
X00422000Y00655000D02*
X00442000D01*
X00422000Y00621000D02*
Y00655000D01*
Y00621000D02*
X00442000D01*
Y00655000D01*
X00445000Y00160000D02*
X00495000D01*
X00445000Y00192000D02*
X00495000D01*
Y00160000D02*
Y00192000D01*
X00445000Y00160000D02*
Y00192000D01*
X00431000Y00180000D02*
Y00212000D01*
Y00180000D02*
X00445000Y00180000D01*
Y00212000D01*
X00431000Y00212000D02*
X00445000Y00212000D01*
X00279000Y00212000D02*
Y00226000D01*
X00311000D01*
Y00212000D02*
Y00226000D01*
X00279000Y00212000D02*
X00311000D01*
X00531000Y00038000D02*
X00563000D01*
Y00052000D01*
X00531000D02*
X00563000D01*
X00531000Y00038000D02*
Y00052000D01*
X00404000Y00038000D02*
X00436000D01*
Y00052000D01*
X00404000D02*
X00436000D01*
X00404000Y00038000D02*
Y00052000D01*
X00734000Y00038000D02*
X00766000Y00038000D01*
X00766000Y00052000D01*
X00734000D02*
X00766000D01*
X00734000Y00038000D02*
X00734000Y00052000D01*
X00438000Y00332000D02*
X00438000Y00346000D01*
X00470000D01*
Y00332000D02*
Y00346000D01*
X00438000Y00332000D02*
X00470000Y00332000D01*
X00393000Y00346000D02*
X00547000D01*
X00393000D02*
Y00394000D01*
X00547000Y00394000D01*
X00547000Y00346000D02*
X00547000Y00394000D01*
X00418000Y00482000D02*
Y00496000D01*
X00450000D01*
Y00482000D02*
Y00496000D01*
X00418000Y00482000D02*
X00450000D01*
X00495000Y00212000D02*
X00530000D01*
X00410000D02*
X00445000D01*
X00530000Y00212000D02*
Y00332000D01*
X00247000Y00140000D02*
Y00154000D01*
X00279000D01*
Y00140000D02*
Y00154000D01*
X00247000Y00140000D02*
X00279000D01*
X00216000Y00184000D02*
X00248000D01*
Y00198000D01*
X00216000D02*
X00248000D01*
X00216000Y00184000D02*
Y00198000D01*
X00279000Y00198000D02*
X00311000D01*
X00311000Y00212000D02*
X00311000Y00198000D01*
X00279000Y00212000D02*
X00311000D01*
X00279000Y00198000D02*
X00279000Y00212000D01*
X00279000Y00168000D02*
X00311000D01*
X00279000D02*
X00279000Y00154000D01*
X00311000D01*
X00311000Y00168000D01*
X00311000Y00140000D02*
Y00154000D01*
X00279000Y00140000D02*
X00311000D01*
X00279000D02*
Y00154000D01*
X00311000D01*
X00247000Y00154000D02*
X00279000D01*
X00279000Y00168000D02*
X00279000Y00154000D01*
X00247000Y00168000D02*
X00279000D01*
X00247000Y00154000D02*
X00247000Y00168000D01*
X00247000Y00149000D02*
Y00181000D01*
X00233000Y00181000D02*
X00247000Y00181000D01*
X00233000Y00149000D02*
Y00181000D01*
Y00149000D02*
X00247000Y00149000D01*
X00216000Y00149000D02*
Y00181000D01*
Y00149000D02*
X00230000Y00149000D01*
X00230000Y00181000D02*
X00230000Y00149000D01*
X00216000Y00181000D02*
X00230000D01*
X00325000Y00167000D02*
Y00199000D01*
X00311000D02*
X00325000D01*
X00311000Y00167000D02*
Y00199000D01*
Y00167000D02*
X00325000D01*
X00247000Y00226000D02*
X00279000D01*
X00247000Y00212000D02*
X00247000Y00226000D01*
X00247000Y00212000D02*
X00279000Y00212000D01*
Y00226000D01*
X00247000Y00212000D02*
X00279000D01*
X00247000D02*
X00247000Y00198000D01*
X00279000D01*
X00279000Y00212000D01*
X00410000Y00332000D02*
X00530000D01*
X00410000Y00212000D02*
Y00332000D01*
X00579000Y00052000D02*
Y00066000D01*
X00547000Y00052000D02*
X00579000D01*
X00547000D02*
Y00066000D01*
X00579000D01*
X00515000Y00052000D02*
Y00066000D01*
X00547000D01*
Y00052000D02*
Y00066000D01*
X00515000Y00052000D02*
X00547000D01*
X00388000D02*
Y00066000D01*
X00420000D01*
Y00052000D02*
Y00066000D01*
X00388000Y00052000D02*
X00420000D01*
X00452000D02*
Y00066000D01*
X00420000Y00052000D02*
X00452000D01*
X00420000D02*
Y00066000D01*
X00452000D01*
X00782000Y00066000D02*
X00782000Y00052000D01*
X00750000D02*
X00782000D01*
X00750000D02*
Y00066000D01*
X00782000D01*
X00718000Y00052000D02*
X00750000D01*
Y00066000D01*
X00718000D02*
X00750000D01*
X00718000Y00052000D02*
Y00066000D01*
X00539000Y00209500D02*
X00545000D01*
X00539000Y00202000D02*
Y00209500D01*
Y00181000D02*
X00545000D01*
X00539000Y00188000D02*
X00539000Y00181000D01*
X00498000Y00198000D02*
Y00212000D01*
X00530000D01*
Y00198000D02*
Y00212000D01*
X00498000Y00198000D02*
X00530000Y00198000D01*
X00530000Y00226000D02*
X00530000Y00240000D01*
X00562000D01*
X00562000Y00226000D02*
X00562000Y00240000D01*
X00530000Y00226000D02*
X00562000Y00226000D01*
X00530000Y00240000D02*
X00562000D01*
Y00254000D01*
X00530000D02*
X00562000D01*
X00530000Y00240000D02*
Y00254000D01*
X00562000Y00244000D02*
X00576000Y00244000D01*
X00576000Y00212000D02*
X00576000Y00244000D01*
X00562000Y00212000D02*
X00576000Y00212000D01*
X00562000Y00212000D02*
Y00244000D01*
Y00212000D02*
Y00226000D01*
X00530000Y00212000D02*
X00562000D01*
X00530000D02*
Y00226000D01*
X00562000D01*
X00530000Y00291000D02*
Y00305000D01*
X00562000D01*
X00562000Y00291000D01*
X00530000D02*
X00562000D01*
X00502000Y00332000D02*
Y00346000D01*
X00470000Y00332000D02*
X00502000D01*
X00470000D02*
X00470000Y00346000D01*
X00502000D01*
X00708000Y00344000D02*
X00758000D01*
X00708000Y00312000D02*
X00758000D01*
X00708000D02*
Y00344000D01*
X00758000Y00312000D02*
Y00344000D01*
X00694000Y00296000D02*
Y00328000D01*
Y00296000D02*
X00708000D01*
Y00328000D01*
X00694000D02*
X00708000D01*
Y00328000D02*
Y00360000D01*
X00694000D02*
X00708000D01*
X00694000Y00328000D02*
Y00360000D01*
Y00328000D02*
X00708000D01*
X00772000Y00360000D02*
X00786000D01*
X00772000D02*
Y00392000D01*
X00786000Y00392000D01*
Y00360000D02*
Y00392000D01*
X00758000Y00360000D02*
Y00392000D01*
X00772000Y00392000D01*
X00758000Y00360000D02*
X00772000Y00360000D01*
X00772000Y00392000D01*
X00709000Y00366000D02*
X00709000Y00380000D01*
X00741000D01*
X00741000Y00366000D02*
X00741000Y00380000D01*
X00709000Y00366000D02*
X00741000Y00366000D01*
X00757500Y00380000D02*
X00757500Y00366000D01*
X00741000D02*
X00757500D01*
X00741000Y00380000D02*
X00757500D01*
X00786000Y00328000D02*
Y00360000D01*
X00772000D02*
X00786000D01*
X00772000Y00328000D02*
Y00360000D01*
Y00328000D02*
X00786000D01*
X00758000Y00328000D02*
X00772000Y00328000D01*
Y00296000D02*
Y00328000D01*
X00758000Y00296000D02*
X00772000Y00296000D01*
X00758000Y00296000D02*
Y00328000D01*
Y00279500D02*
X00772000D01*
X00758000D02*
Y00296000D01*
X00772000Y00279500D02*
X00772000Y00296000D01*
X00714000Y00262000D02*
Y00276000D01*
X00746000D01*
Y00262000D02*
Y00276000D01*
X00714000Y00262000D02*
X00746000D01*
X00762500D02*
Y00276000D01*
X00746000Y00262000D02*
X00762500D01*
X00746000Y00276000D02*
X00762500D01*
X00706000Y00276000D02*
Y00290000D01*
X00738000Y00290000D01*
X00738000Y00276000D01*
X00706000D02*
X00738000D01*
X00754500D02*
X00754500Y00290000D01*
X00738000Y00276000D02*
X00754500D01*
X00738000Y00290000D02*
X00754500Y00290000D01*
X00490000Y00605000D02*
Y00619000D01*
X00522000D01*
Y00605000D02*
Y00619000D01*
X00490000Y00605000D02*
X00522000D01*
X00522000Y00591000D02*
Y00605000D01*
X00490000Y00591000D02*
X00522000D01*
X00490000D02*
Y00605000D01*
X00522000D01*
X00408000Y00655000D02*
X00422000Y00655000D01*
Y00623000D02*
Y00655000D01*
X00408000Y00623000D02*
X00422000D01*
X00408000D02*
Y00655000D01*
X00394000Y00655000D02*
X00408000D01*
Y00623000D02*
Y00655000D01*
X00394000Y00623000D02*
X00408000Y00623000D01*
X00394000Y00623000D02*
X00394000Y00655000D01*
X00418000Y00503000D02*
X00450000D01*
X00450000Y00517000D01*
X00418000D02*
X00450000D01*
X00418000D02*
X00418000Y00503000D01*
X00490000Y00561000D02*
X00522000D01*
X00490000Y00547000D02*
Y00561000D01*
Y00547000D02*
X00522000D01*
Y00561000D01*
X00490000Y00575000D02*
X00522000D01*
X00490000Y00561000D02*
Y00575000D01*
Y00561000D02*
X00522000D01*
Y00575000D01*
X00477000Y00569000D02*
X00480000Y00565000D01*
X00477000Y00569000D02*
X00483000D01*
X00480000Y00565000D02*
X00483000Y00569000D01*
X00477000Y00565000D02*
X00483000D01*
X00487000Y00564000D02*
Y00572000D01*
X00473000Y00564000D02*
Y00572000D01*
X00418000Y00547000D02*
X00450000D01*
Y00561000D01*
X00418000D02*
X00450000D01*
X00418000Y00547000D02*
Y00561000D01*
X00758000Y00328000D02*
X00772000D01*
X00758000D02*
Y00360000D01*
X00772000D01*
Y00328000D02*
Y00360000D01*
X00450000Y00531000D02*
Y00545000D01*
X00418000Y00531000D02*
X00450000D01*
X00418000D02*
Y00545000D01*
X00450000D01*
X00418000Y00517000D02*
Y00531000D01*
X00450000D01*
Y00517000D02*
Y00531000D01*
X00418000Y00517000D02*
X00450000D01*
X00453000Y00528000D02*
X00453000Y00520000D01*
X00467000D02*
Y00528000D01*
X00457000Y00521000D02*
X00463000D01*
X00460000Y00521000D02*
X00463000Y00525000D01*
X00457000D02*
X00463000D01*
X00457000D02*
X00460000Y00521000D01*
X00490000Y00517000D02*
Y00531000D01*
X00522000D01*
Y00517000D02*
Y00531000D01*
X00490000Y00517000D02*
X00522000D01*
Y00503000D02*
Y00517000D01*
X00490000Y00503000D02*
X00522000D01*
X00490000D02*
Y00517000D01*
X00522000D01*
X00473000Y00520000D02*
Y00528000D01*
X00487000Y00520000D02*
Y00528000D01*
X00477000Y00521000D02*
X00483000D01*
X00480000Y00521000D02*
X00483000Y00525000D01*
X00477000D02*
X00483000D01*
X00477000D02*
X00480000Y00521000D01*
X00522000Y00531000D02*
Y00545000D01*
X00490000Y00531000D02*
X00522000D01*
X00490000D02*
Y00545000D01*
X00522000D01*
X00418000Y00561000D02*
Y00575000D01*
X00450000D01*
Y00561000D02*
Y00575000D01*
X00418000Y00561000D02*
X00450000D01*
Y00575000D02*
Y00589000D01*
X00418000Y00575000D02*
X00450000D01*
X00418000D02*
Y00589000D01*
X00450000D01*
X00490000Y00575000D02*
Y00589000D01*
X00522000D01*
Y00575000D02*
Y00589000D01*
X00490000Y00575000D02*
X00522000D01*
X00453000Y00564000D02*
Y00572000D01*
X00467000Y00564000D02*
Y00572000D01*
X00457000Y00565000D02*
X00463000D01*
X00460000Y00565000D02*
X00463000Y00569000D01*
X00457000D02*
X00463000D01*
X00457000D02*
X00460000Y00565000D01*
X00522000Y00489000D02*
Y00503000D01*
X00490000Y00489000D02*
X00522000D01*
X00490000D02*
Y00503000D01*
X00522000D01*
X00456000Y00623000D02*
Y00655000D01*
X00442000Y00623000D02*
X00456000D01*
X00442000Y00655000D02*
X00456000Y00655000D01*
X00442000Y00623000D02*
X00442000Y00655000D01*
X00470000Y00623000D02*
Y00655000D01*
X00456000D02*
X00470000D01*
X00456000Y00623000D02*
Y00655000D01*
Y00623000D02*
X00470000Y00623000D01*
X00413000Y00172000D02*
X00427000D01*
Y00140000D02*
Y00172000D01*
X00413000Y00140000D02*
X00427000D01*
X00413000D02*
Y00172000D01*
X00431000Y00140000D02*
X00445000D01*
X00431000D02*
X00431000Y00172000D01*
X00445000Y00172000D01*
X00445000Y00140000D02*
X00445000Y00172000D01*
X00513000Y00171750D02*
X00527000D01*
Y00139750D02*
Y00171750D01*
X00513000Y00139750D02*
X00527000Y00139750D01*
X00513000Y00139750D02*
Y00171750D01*
X00495000Y00140000D02*
X00509000Y00140000D01*
X00495000Y00172000D02*
X00495000Y00140000D01*
X00495000Y00172000D02*
X00509000Y00172000D01*
Y00140000D02*
Y00172000D01*
D12*
X00473000Y00548000D02*
X00487000D01*
X00453000Y00504000D02*
X00467000Y00504000D01*
X00473000D02*
X00487000D01*
X00453000Y00548000D02*
X00467000D01*
X00383000Y00577002D02*
Y00586998D01*
X00378002D01*
X00376335Y00585332D01*
Y00582000D01*
X00378002Y00580334D01*
X00383000D01*
X00379668D02*
X00376335Y00577002D01*
X00373003Y00585332D02*
X00371337Y00586998D01*
X00368005D01*
X00366339Y00585332D01*
Y00583666D01*
X00368005Y00582000D01*
X00369671D01*
X00368005D01*
X00366339Y00580334D01*
Y00578668D01*
X00368005Y00577002D01*
X00371337D01*
X00373003Y00578668D01*
X00363006Y00585332D02*
X00361340Y00586998D01*
X00358008D01*
X00356342Y00585332D01*
Y00578668D01*
X00358008Y00577002D01*
X00361340D01*
X00363006Y00578668D01*
Y00585332D01*
X00346345Y00577002D02*
X00353010D01*
X00346345Y00583666D01*
Y00585332D01*
X00348011Y00586998D01*
X00351343D01*
X00353010Y00585332D01*
X00243000Y00135002D02*
Y00144998D01*
X00238002D01*
X00236336Y00143332D01*
Y00140000D01*
X00238002Y00138334D01*
X00243000D01*
X00239668D02*
X00236336Y00135002D01*
X00226339Y00144998D02*
X00233003D01*
Y00140000D01*
X00229671Y00141666D01*
X00228005D01*
X00226339Y00140000D01*
Y00136668D01*
X00228005Y00135002D01*
X00231337D01*
X00233003Y00136668D01*
X00223006Y00143332D02*
X00221340Y00144998D01*
X00218008D01*
X00216342Y00143332D01*
Y00136668D01*
X00218008Y00135002D01*
X00221340D01*
X00223006Y00136668D01*
Y00143332D01*
X00208011Y00135002D02*
Y00144998D01*
X00213010Y00140000D01*
X00206345D01*
X00544998Y00170000D02*
X00535002D01*
Y00165002D01*
X00536668Y00163335D01*
X00540000D01*
X00541666Y00165002D01*
Y00170000D01*
Y00166668D02*
X00544998Y00163335D01*
Y00155005D02*
X00535002D01*
X00540000Y00160003D01*
Y00153339D01*
X00536668Y00150006D02*
X00535002Y00148340D01*
Y00145008D01*
X00536668Y00143342D01*
X00543332D01*
X00544998Y00145008D01*
Y00148340D01*
X00543332Y00150006D01*
X00536668D01*
X00535002Y00133345D02*
Y00140010D01*
X00540000D01*
X00538334Y00136677D01*
Y00135011D01*
X00540000Y00133345D01*
X00543332D01*
X00544998Y00135011D01*
Y00138343D01*
X00543332Y00140010D01*
X00811668Y00351663D02*
X00810002Y00353329D01*
Y00356661D01*
X00811668Y00358327D01*
X00818332D01*
X00819998Y00356661D01*
Y00353329D01*
X00818332Y00351663D01*
X00810002Y00348331D02*
Y00341666D01*
X00811668D01*
X00818332Y00348331D01*
X00819998D01*
X00811668Y00338334D02*
X00810002Y00336668D01*
Y00333335D01*
X00811668Y00331669D01*
X00818332D01*
X00819998Y00333335D01*
Y00336668D01*
X00818332Y00338334D01*
X00811668D01*
Y00328337D02*
X00810002Y00326671D01*
Y00323339D01*
X00811668Y00321673D01*
X00813334D01*
X00815000Y00323339D01*
Y00325005D01*
Y00323339D01*
X00816666Y00321673D01*
X00818332D01*
X00819998Y00323339D01*
Y00326671D01*
X00818332Y00328337D01*
X00704998Y00401327D02*
X00695002D01*
Y00396329D01*
X00696668Y00394663D01*
X00700000D01*
X00701666Y00396329D01*
Y00401327D01*
Y00397995D02*
X00704998Y00394663D01*
X00695002Y00391331D02*
Y00384666D01*
X00696668D01*
X00703332Y00391331D01*
X00704998D01*
X00696668Y00381334D02*
X00695002Y00379668D01*
Y00376335D01*
X00696668Y00374669D01*
X00703332D01*
X00704998Y00376335D01*
Y00379668D01*
X00703332Y00381334D01*
X00696668D01*
X00704998Y00364673D02*
Y00371337D01*
X00698334Y00364673D01*
X00696668D01*
X00695002Y00366339D01*
Y00369671D01*
X00696668Y00371337D01*
X00701998Y00291661D02*
X00692002D01*
Y00286663D01*
X00693668Y00284997D01*
X00697000D01*
X00698666Y00286663D01*
Y00291661D01*
Y00288329D02*
X00701998Y00284997D01*
X00692002Y00281665D02*
Y00275000D01*
X00693668D01*
X00700332Y00281665D01*
X00701998D01*
X00693668Y00271668D02*
X00692002Y00270002D01*
Y00266669D01*
X00693668Y00265003D01*
X00700332D01*
X00701998Y00266669D01*
Y00270002D01*
X00700332Y00271668D01*
X00693668D01*
X00701998Y00261671D02*
Y00258339D01*
Y00260005D01*
X00692002D01*
X00693668Y00261671D01*
X00595661Y00593002D02*
Y00602998D01*
X00590663D01*
X00588997Y00601332D01*
Y00598000D01*
X00590663Y00596334D01*
X00595661D01*
X00592329D02*
X00588997Y00593002D01*
X00579000Y00602998D02*
X00582332Y00601332D01*
X00585664Y00598000D01*
Y00594668D01*
X00583998Y00593002D01*
X00580666D01*
X00579000Y00594668D01*
Y00596334D01*
X00580666Y00598000D01*
X00585664D01*
X00575668Y00601332D02*
X00574002Y00602998D01*
X00570669D01*
X00569003Y00601332D01*
Y00594668D01*
X00570669Y00593002D01*
X00574002D01*
X00575668Y00594668D01*
Y00601332D01*
X00559007Y00602998D02*
X00562339Y00601332D01*
X00565671Y00598000D01*
Y00594668D01*
X00564005Y00593002D01*
X00560673D01*
X00559007Y00594668D01*
Y00596334D01*
X00560673Y00598000D01*
X00565671D01*
X00383000Y00484002D02*
Y00493998D01*
X00378002D01*
X00376335Y00492332D01*
Y00489000D01*
X00378002Y00487334D01*
X00383000D01*
X00379668D02*
X00376335Y00484002D01*
X00373003Y00492332D02*
X00371337Y00493998D01*
X00368005D01*
X00366339Y00492332D01*
Y00490666D01*
X00368005Y00489000D01*
X00369671D01*
X00368005D01*
X00366339Y00487334D01*
Y00485668D01*
X00368005Y00484002D01*
X00371337D01*
X00373003Y00485668D01*
X00363006Y00492332D02*
X00361340Y00493998D01*
X00358008D01*
X00356342Y00492332D01*
Y00485668D01*
X00358008Y00484002D01*
X00361340D01*
X00363006Y00485668D01*
Y00492332D01*
X00353010Y00485668D02*
X00351343Y00484002D01*
X00348011D01*
X00346345Y00485668D01*
Y00492332D01*
X00348011Y00493998D01*
X00351343D01*
X00353010Y00492332D01*
Y00490666D01*
X00351343Y00489000D01*
X00346345D01*
X00595661Y00608002D02*
Y00617998D01*
X00590663D01*
X00588997Y00616332D01*
Y00613000D01*
X00590663Y00611334D01*
X00595661D01*
X00592329D02*
X00588997Y00608002D01*
X00585664Y00616332D02*
X00583998Y00617998D01*
X00580666D01*
X00579000Y00616332D01*
Y00614666D01*
X00580666Y00613000D01*
X00582332D01*
X00580666D01*
X00579000Y00611334D01*
Y00609668D01*
X00580666Y00608002D01*
X00583998D01*
X00585664Y00609668D01*
X00575668Y00616332D02*
X00574002Y00617998D01*
X00570669D01*
X00569003Y00616332D01*
Y00609668D01*
X00570669Y00608002D01*
X00574002D01*
X00575668Y00609668D01*
Y00616332D01*
X00565671Y00608002D02*
X00562339D01*
X00564005D01*
Y00617998D01*
X00565671Y00616332D01*
X00243000Y00120002D02*
Y00129998D01*
X00238002D01*
X00236336Y00128332D01*
Y00125000D01*
X00238002Y00123334D01*
X00243000D01*
X00239668D02*
X00236336Y00120002D01*
X00226339D02*
X00233003D01*
X00226339Y00126666D01*
Y00128332D01*
X00228005Y00129998D01*
X00231337D01*
X00233003Y00128332D01*
X00223006D02*
X00221340Y00129998D01*
X00218008D01*
X00216342Y00128332D01*
Y00121668D01*
X00218008Y00120002D01*
X00221340D01*
X00223006Y00121668D01*
Y00128332D01*
X00213010D02*
X00211343Y00129998D01*
X00208011D01*
X00206345Y00128332D01*
Y00126666D01*
X00208011Y00125000D01*
X00209677D01*
X00208011D01*
X00206345Y00123334D01*
Y00121668D01*
X00208011Y00120002D01*
X00211343D01*
X00213010Y00121668D01*
X00352655Y00137002D02*
Y00146998D01*
X00347657D01*
X00345990Y00145332D01*
Y00142000D01*
X00347657Y00140334D01*
X00352655D01*
X00349323D02*
X00345990Y00137002D01*
X00335994D02*
X00342658D01*
X00335994Y00143666D01*
Y00145332D01*
X00337660Y00146998D01*
X00340992D01*
X00342658Y00145332D01*
X00332661D02*
X00330995Y00146998D01*
X00327663D01*
X00325997Y00145332D01*
Y00138668D01*
X00327663Y00137002D01*
X00330995D01*
X00332661Y00138668D01*
Y00145332D01*
X00316000Y00137002D02*
X00322664D01*
X00316000Y00143666D01*
Y00145332D01*
X00317666Y00146998D01*
X00320998D01*
X00322664Y00145332D01*
X00796002Y00388997D02*
Y00395661D01*
X00805998D01*
Y00388997D01*
X00801000Y00395661D02*
Y00392329D01*
X00796002Y00385664D02*
Y00379000D01*
X00797668D01*
X00804332Y00385664D01*
X00805998D01*
X00797668Y00375668D02*
X00796002Y00374002D01*
Y00370669D01*
X00797668Y00369003D01*
X00804332D01*
X00805998Y00370669D01*
Y00374002D01*
X00804332Y00375668D01*
X00797668D01*
X00805998Y00365671D02*
Y00362339D01*
Y00364005D01*
X00796002D01*
X00797668Y00365671D01*
X00811668Y00388997D02*
X00810002Y00390663D01*
Y00393995D01*
X00811668Y00395661D01*
X00818332D01*
X00819998Y00393995D01*
Y00390663D01*
X00818332Y00388997D01*
X00810002Y00385664D02*
Y00379000D01*
X00811668D01*
X00818332Y00385664D01*
X00819998D01*
X00811668Y00375668D02*
X00810002Y00374002D01*
Y00370669D01*
X00811668Y00369003D01*
X00818332D01*
X00819998Y00370669D01*
Y00374002D01*
X00818332Y00375668D01*
X00811668D01*
X00819998Y00365671D02*
Y00362339D01*
Y00364005D01*
X00810002D01*
X00811668Y00365671D01*
X00431663Y00015332D02*
X00433329Y00016998D01*
X00436661D01*
X00438327Y00015332D01*
Y00008668D01*
X00436661Y00007002D01*
X00433329D01*
X00431663Y00008668D01*
X00421666Y00007002D02*
X00428331D01*
X00421666Y00013666D01*
Y00015332D01*
X00423332Y00016998D01*
X00426665D01*
X00428331Y00015332D01*
X00418334D02*
X00416668Y00016998D01*
X00413335D01*
X00411669Y00015332D01*
Y00008668D01*
X00413335Y00007002D01*
X00416668D01*
X00418334Y00008668D01*
Y00015332D01*
X00408337D02*
X00406671Y00016998D01*
X00403339D01*
X00401673Y00015332D01*
Y00013666D01*
X00403339Y00012000D01*
X00405005D01*
X00403339D01*
X00401673Y00010334D01*
Y00008668D01*
X00403339Y00007002D01*
X00406671D01*
X00408337Y00008668D01*
X00558663Y00015332D02*
X00560329Y00016998D01*
X00563661D01*
X00565327Y00015332D01*
Y00008668D01*
X00563661Y00007002D01*
X00560329D01*
X00558663Y00008668D01*
X00548666Y00007002D02*
X00555331D01*
X00548666Y00013666D01*
Y00015332D01*
X00550332Y00016998D01*
X00553665D01*
X00555331Y00015332D01*
X00545334D02*
X00543668Y00016998D01*
X00540336D01*
X00538669Y00015332D01*
Y00008668D01*
X00540336Y00007002D01*
X00543668D01*
X00545334Y00008668D01*
Y00015332D01*
X00528673Y00007002D02*
X00535337D01*
X00528673Y00013666D01*
Y00015332D01*
X00530339Y00016998D01*
X00533671D01*
X00535337Y00015332D01*
X00759997D02*
X00761663Y00016998D01*
X00764995D01*
X00766661Y00015332D01*
Y00008668D01*
X00764995Y00007002D01*
X00761663D01*
X00759997Y00008668D01*
X00750000Y00007002D02*
X00756665D01*
X00750000Y00013666D01*
Y00015332D01*
X00751666Y00016998D01*
X00754998D01*
X00756665Y00015332D01*
X00746668D02*
X00745002Y00016998D01*
X00741669D01*
X00740003Y00015332D01*
Y00008668D01*
X00741669Y00007002D01*
X00745002D01*
X00746668Y00008668D01*
Y00015332D01*
X00736671Y00007002D02*
X00733339D01*
X00735005D01*
Y00016998D01*
X00736671Y00015332D01*
X00617327Y00228002D02*
Y00237998D01*
X00612329D01*
X00610663Y00236332D01*
Y00233000D01*
X00612329Y00231334D01*
X00617327D01*
X00613995D02*
X00610663Y00228002D01*
X00602332D02*
Y00237998D01*
X00607331Y00233000D01*
X00600666D01*
X00597334Y00236332D02*
X00595668Y00237998D01*
X00592336D01*
X00590669Y00236332D01*
Y00229668D01*
X00592336Y00228002D01*
X00595668D01*
X00597334Y00229668D01*
Y00236332D01*
X00580673Y00237998D02*
X00584005Y00236332D01*
X00587337Y00233000D01*
Y00229668D01*
X00585671Y00228002D01*
X00582339D01*
X00580673Y00229668D01*
Y00231334D01*
X00582339Y00233000D01*
X00587337D01*
X00603327Y00293002D02*
Y00302998D01*
X00598329D01*
X00596663Y00301332D01*
Y00298000D01*
X00598329Y00296334D01*
X00603327D01*
X00599995D02*
X00596663Y00293002D01*
X00588332D02*
Y00302998D01*
X00593331Y00298000D01*
X00586666D01*
X00583334Y00301332D02*
X00581668Y00302998D01*
X00578335D01*
X00576669Y00301332D01*
Y00294668D01*
X00578335Y00293002D01*
X00581668D01*
X00583334Y00294668D01*
Y00301332D01*
X00566673Y00293002D02*
X00573337D01*
X00566673Y00299666D01*
Y00301332D01*
X00568339Y00302998D01*
X00571671D01*
X00573337Y00301332D01*
X00569002Y00207661D02*
X00578998D01*
Y00202663D01*
X00577332Y00200997D01*
X00570668D01*
X00569002Y00202663D01*
Y00207661D01*
X00578998Y00192666D02*
X00569002D01*
X00574000Y00197665D01*
Y00191000D01*
X00570668Y00187668D02*
X00569002Y00186002D01*
Y00182669D01*
X00570668Y00181003D01*
X00577332D01*
X00578998Y00182669D01*
Y00186002D01*
X00577332Y00187668D01*
X00570668D01*
X00578998Y00177671D02*
Y00174339D01*
Y00176005D01*
X00569002D01*
X00570668Y00177671D01*
X00399663Y00340332D02*
X00401329Y00341998D01*
X00404661D01*
X00406327Y00340332D01*
Y00333668D01*
X00404661Y00332002D01*
X00401329D01*
X00399663Y00333668D01*
X00391332Y00332002D02*
Y00341998D01*
X00396331Y00337000D01*
X00389666D01*
X00386334Y00340332D02*
X00384668Y00341998D01*
X00381335D01*
X00379669Y00340332D01*
Y00333668D01*
X00381335Y00332002D01*
X00384668D01*
X00386334Y00333668D01*
Y00340332D01*
X00369673Y00341998D02*
X00376337D01*
Y00337000D01*
X00373005Y00338666D01*
X00371339D01*
X00369673Y00337000D01*
Y00333668D01*
X00371339Y00332002D01*
X00374671D01*
X00376337Y00333668D01*
X00405327Y00223998D02*
Y00215668D01*
X00403661Y00214002D01*
X00400329D01*
X00398663Y00215668D01*
Y00223998D01*
X00390332Y00214002D02*
Y00223998D01*
X00395331Y00219000D01*
X00388666D01*
X00385334Y00222332D02*
X00383668Y00223998D01*
X00380336D01*
X00378669Y00222332D01*
Y00215668D01*
X00380336Y00214002D01*
X00383668D01*
X00385334Y00215668D01*
Y00222332D01*
X00368673Y00214002D02*
X00375337D01*
X00368673Y00220666D01*
Y00222332D01*
X00370339Y00223998D01*
X00373671D01*
X00375337Y00222332D01*
X00533661Y00186998D02*
Y00178668D01*
X00531995Y00177002D01*
X00528663D01*
X00526997Y00178668D01*
Y00186998D01*
X00518666Y00177002D02*
Y00186998D01*
X00523665Y00182000D01*
X00517000D01*
X00513668Y00185332D02*
X00512002Y00186998D01*
X00508669D01*
X00507003Y00185332D01*
Y00178668D01*
X00508669Y00177002D01*
X00512002D01*
X00513668Y00178668D01*
Y00185332D01*
X00503671Y00177002D02*
X00500339D01*
X00502005D01*
Y00186998D01*
X00503671Y00185332D01*
X00276327Y00230002D02*
Y00239998D01*
X00271329D01*
X00269663Y00238332D01*
Y00235000D01*
X00271329Y00233334D01*
X00276327D01*
X00272995D02*
X00269663Y00230002D01*
X00259666Y00239998D02*
X00266331D01*
Y00235000D01*
X00262998Y00236666D01*
X00261332D01*
X00259666Y00235000D01*
Y00231668D01*
X00261332Y00230002D01*
X00264664D01*
X00266331Y00231668D01*
X00256334Y00238332D02*
X00254668Y00239998D01*
X00251336D01*
X00249669Y00238332D01*
Y00231668D01*
X00251336Y00230002D01*
X00254668D01*
X00256334Y00231668D01*
Y00238332D01*
X00239673Y00230002D02*
X00246337D01*
X00239673Y00236666D01*
Y00238332D01*
X00241339Y00239998D01*
X00244671D01*
X00246337Y00238332D01*
X00316661Y00230002D02*
Y00239998D01*
X00311663D01*
X00309997Y00238332D01*
Y00235000D01*
X00311663Y00233334D01*
X00316661D01*
X00313329D02*
X00309997Y00230002D01*
X00300000Y00239998D02*
X00306665D01*
Y00235000D01*
X00303332Y00236666D01*
X00301666D01*
X00300000Y00235000D01*
Y00231668D01*
X00301666Y00230002D01*
X00304998D01*
X00306665Y00231668D01*
X00296668Y00238332D02*
X00295002Y00239998D01*
X00291669D01*
X00290003Y00238332D01*
Y00231668D01*
X00291669Y00230002D01*
X00295002D01*
X00296668Y00231668D01*
Y00238332D01*
X00286671Y00230002D02*
X00283339D01*
X00285005D01*
Y00239998D01*
X00286671Y00238332D01*
X00188998Y00187327D02*
X00179002D01*
Y00182329D01*
X00180668Y00180663D01*
X00184000D01*
X00185666Y00182329D01*
Y00187327D01*
Y00183995D02*
X00188998Y00180663D01*
X00179002Y00170666D02*
Y00177331D01*
X00184000D01*
X00182334Y00173998D01*
Y00172332D01*
X00184000Y00170666D01*
X00187332D01*
X00188998Y00172332D01*
Y00175665D01*
X00187332Y00177331D01*
X00180668Y00167334D02*
X00179002Y00165668D01*
Y00162335D01*
X00180668Y00160669D01*
X00187332D01*
X00188998Y00162335D01*
Y00165668D01*
X00187332Y00167334D01*
X00180668D01*
Y00157337D02*
X00179002Y00155671D01*
Y00152339D01*
X00180668Y00150673D01*
X00182334D01*
X00184000Y00152339D01*
Y00154005D01*
Y00152339D01*
X00185666Y00150673D01*
X00187332D01*
X00188998Y00152339D01*
Y00155671D01*
X00187332Y00157337D01*
X00558998Y00170000D02*
X00549002D01*
Y00165002D01*
X00550668Y00163335D01*
X00554000D01*
X00555666Y00165002D01*
Y00170000D01*
Y00166668D02*
X00558998Y00163335D01*
Y00155005D02*
X00549002D01*
X00554000Y00160003D01*
Y00153339D01*
X00550668Y00150007D02*
X00549002Y00148340D01*
Y00145008D01*
X00550668Y00143342D01*
X00557332D01*
X00558998Y00145008D01*
Y00148340D01*
X00557332Y00150007D01*
X00550668D01*
Y00140010D02*
X00549002Y00138343D01*
Y00135011D01*
X00550668Y00133345D01*
X00552334D01*
X00554000Y00135011D01*
X00555666Y00133345D01*
X00557332D01*
X00558998Y00135011D01*
Y00138343D01*
X00557332Y00140010D01*
X00555666D01*
X00554000Y00138343D01*
X00552334Y00140010D01*
X00550668D01*
X00554000Y00138343D02*
Y00135011D01*
X00392998Y00170000D02*
X00383002D01*
Y00165002D01*
X00384668Y00163335D01*
X00388000D01*
X00389666Y00165002D01*
Y00170000D01*
Y00166668D02*
X00392998Y00163335D01*
Y00155005D02*
X00383002D01*
X00388000Y00160003D01*
Y00153339D01*
X00384668Y00150006D02*
X00383002Y00148340D01*
Y00145008D01*
X00384668Y00143342D01*
X00391332D01*
X00392998Y00145008D01*
Y00148340D01*
X00391332Y00150006D01*
X00384668D01*
X00383002Y00140010D02*
Y00133345D01*
X00384668D01*
X00391332Y00140010D01*
X00392998D01*
X00407998Y00170192D02*
X00398002D01*
Y00165194D01*
X00399668Y00163527D01*
X00403000D01*
X00404666Y00165194D01*
Y00170192D01*
Y00166860D02*
X00407998Y00163527D01*
Y00155197D02*
X00398002D01*
X00403000Y00160195D01*
Y00153531D01*
X00399668Y00150198D02*
X00398002Y00148532D01*
Y00145200D01*
X00399668Y00143534D01*
X00406332D01*
X00407998Y00145200D01*
Y00148532D01*
X00406332Y00150198D01*
X00399668D01*
X00407998Y00135203D02*
X00398002D01*
X00403000Y00140202D01*
Y00133537D01*
X00617327Y00214002D02*
Y00223998D01*
X00612329D01*
X00610663Y00222332D01*
Y00219000D01*
X00612329Y00217334D01*
X00617327D01*
X00613995D02*
X00610663Y00214002D01*
X00602332D02*
Y00223998D01*
X00607331Y00219000D01*
X00600666D01*
X00597334Y00222332D02*
X00595668Y00223998D01*
X00592336D01*
X00590669Y00222332D01*
Y00215668D01*
X00592336Y00214002D01*
X00595668D01*
X00597334Y00215668D01*
Y00222332D01*
X00587337D02*
X00585671Y00223998D01*
X00582339D01*
X00580673Y00222332D01*
Y00220666D01*
X00582339Y00219000D01*
X00584005D01*
X00582339D01*
X00580673Y00217334D01*
Y00215668D01*
X00582339Y00214002D01*
X00585671D01*
X00587337Y00215668D01*
X00616661Y00242002D02*
Y00251998D01*
X00611663D01*
X00609997Y00250332D01*
Y00247000D01*
X00611663Y00245334D01*
X00616661D01*
X00613329D02*
X00609997Y00242002D01*
X00601666D02*
Y00251998D01*
X00606665Y00247000D01*
X00600000D01*
X00596668Y00250332D02*
X00595002Y00251998D01*
X00591669D01*
X00590003Y00250332D01*
Y00243668D01*
X00591669Y00242002D01*
X00595002D01*
X00596668Y00243668D01*
Y00250332D01*
X00586671Y00242002D02*
X00583339D01*
X00585005D01*
Y00251998D01*
X00586671Y00250332D01*
X00540997Y00399668D02*
Y00406332D01*
X00542663Y00407998D01*
X00545995D01*
X00547661Y00406332D01*
Y00399668D01*
X00545995Y00398002D01*
X00542663D01*
X00544329Y00401334D02*
X00540997Y00398002D01*
X00542663D02*
X00540997Y00399668D01*
X00532666Y00398002D02*
Y00407998D01*
X00537664Y00403000D01*
X00531000D01*
X00527668Y00406332D02*
X00526002Y00407998D01*
X00522669D01*
X00521003Y00406332D01*
Y00399668D01*
X00522669Y00398002D01*
X00526002D01*
X00527668Y00399668D01*
Y00406332D01*
X00517671Y00398002D02*
X00514339D01*
X00516005D01*
Y00407998D01*
X00517671Y00406332D01*
X00358660Y00223998D02*
Y00214002D01*
X00353661D01*
X00351995Y00215668D01*
Y00222332D01*
X00353661Y00223998D01*
X00358660D01*
X00348663D02*
Y00214002D01*
X00343665D01*
X00341998Y00215668D01*
Y00222332D01*
X00343665Y00223998D01*
X00348663D01*
X00332002D02*
X00338666D01*
Y00219000D01*
X00335334Y00220666D01*
X00333668D01*
X00332002Y00219000D01*
Y00215668D01*
X00333668Y00214002D01*
X00337000D01*
X00338666Y00215668D01*
X00328669Y00222332D02*
X00327003Y00223998D01*
X00323671D01*
X00322005Y00222332D01*
Y00215668D01*
X00323671Y00214002D01*
X00327003D01*
X00328669Y00215668D01*
Y00222332D01*
X00318673Y00214002D02*
X00315340D01*
X00317006D01*
Y00223998D01*
X00318673Y00222332D01*
X00332668Y00197663D02*
X00331002Y00199329D01*
Y00202661D01*
X00332668Y00204328D01*
X00339332D01*
X00340998Y00202661D01*
Y00199329D01*
X00339332Y00197663D01*
X00331002Y00187666D02*
Y00194331D01*
X00336000D01*
X00334334Y00190998D01*
Y00189332D01*
X00336000Y00187666D01*
X00339332D01*
X00340998Y00189332D01*
Y00192665D01*
X00339332Y00194331D01*
X00332668Y00184334D02*
X00331002Y00182668D01*
Y00179335D01*
X00332668Y00177669D01*
X00339332D01*
X00340998Y00179335D01*
Y00182668D01*
X00339332Y00184334D01*
X00332668D01*
X00340998Y00167673D02*
Y00174337D01*
X00334334Y00167673D01*
X00332668D01*
X00331002Y00169339D01*
Y00172671D01*
X00332668Y00174337D01*
X00204997Y00200332D02*
X00206663Y00201998D01*
X00209995D01*
X00211661Y00200332D01*
Y00193668D01*
X00209995Y00192002D01*
X00206663D01*
X00204997Y00193668D01*
X00195000Y00201998D02*
X00201665D01*
Y00197000D01*
X00198332Y00198666D01*
X00196666D01*
X00195000Y00197000D01*
Y00193668D01*
X00196666Y00192002D01*
X00199998D01*
X00201665Y00193668D01*
X00191668Y00200332D02*
X00190002Y00201998D01*
X00186669D01*
X00185003Y00200332D01*
Y00193668D01*
X00186669Y00192002D01*
X00190002D01*
X00191668Y00193668D01*
Y00200332D01*
X00181671Y00192002D02*
X00178339D01*
X00180005D01*
Y00201998D01*
X00181671Y00200332D01*
X00562663Y00340332D02*
X00564329Y00341998D01*
X00567661D01*
X00569327Y00340332D01*
Y00333668D01*
X00567661Y00332002D01*
X00564329D01*
X00562663Y00333668D01*
X00554332Y00332002D02*
Y00341998D01*
X00559331Y00337000D01*
X00552666D01*
X00549334Y00340332D02*
X00547668Y00341998D01*
X00544336D01*
X00542669Y00340332D01*
Y00333668D01*
X00544336Y00332002D01*
X00547668D01*
X00549334Y00333668D01*
Y00340332D01*
X00534339Y00332002D02*
Y00341998D01*
X00539337Y00337000D01*
X00532673D01*
X00624668Y00243663D02*
X00623002Y00245329D01*
Y00248661D01*
X00624668Y00250327D01*
X00631332D01*
X00632998Y00248661D01*
Y00245329D01*
X00631332Y00243663D01*
X00632998Y00235332D02*
X00623002D01*
X00628000Y00240331D01*
Y00233666D01*
X00624668Y00230334D02*
X00623002Y00228668D01*
Y00225335D01*
X00624668Y00223669D01*
X00631332D01*
X00632998Y00225335D01*
Y00228668D01*
X00631332Y00230334D01*
X00624668D01*
Y00220337D02*
X00623002Y00218671D01*
Y00215339D01*
X00624668Y00213673D01*
X00626334D01*
X00628000Y00215339D01*
Y00217005D01*
Y00215339D01*
X00629666Y00213673D01*
X00631332D01*
X00632998Y00215339D01*
Y00218671D01*
X00631332Y00220337D01*
X00523663Y00131332D02*
X00525329Y00132998D01*
X00528661D01*
X00530327Y00131332D01*
Y00124668D01*
X00528661Y00123002D01*
X00525329D01*
X00523663Y00124668D01*
X00515332Y00123002D02*
Y00132998D01*
X00520331Y00128000D01*
X00513666D01*
X00510334Y00131332D02*
X00508668Y00132998D01*
X00505336D01*
X00503669Y00131332D01*
Y00124668D01*
X00505336Y00123002D01*
X00508668D01*
X00510334Y00124668D01*
Y00131332D01*
X00493673Y00123002D02*
X00500337D01*
X00493673Y00129666D01*
Y00131332D01*
X00495339Y00132998D01*
X00498671D01*
X00500337Y00131332D01*
X00398668Y00201997D02*
X00397002Y00203663D01*
Y00206995D01*
X00398668Y00208661D01*
X00405332D01*
X00406998Y00206995D01*
Y00203663D01*
X00405332Y00201997D01*
X00406998Y00193666D02*
X00397002D01*
X00402000Y00198664D01*
Y00192000D01*
X00398668Y00188668D02*
X00397002Y00187002D01*
Y00183669D01*
X00398668Y00182003D01*
X00405332D01*
X00406998Y00183669D01*
Y00187002D01*
X00405332Y00188668D01*
X00398668D01*
X00406998Y00178671D02*
Y00175339D01*
Y00177005D01*
X00397002D01*
X00398668Y00178671D01*
X00790002Y00317661D02*
X00798332D01*
X00799998Y00315995D01*
Y00312663D01*
X00798332Y00310997D01*
X00790002D01*
Y00307665D02*
Y00301000D01*
X00791668D01*
X00798332Y00307665D01*
X00799998D01*
X00791668Y00297668D02*
X00790002Y00296002D01*
Y00292669D01*
X00791668Y00291003D01*
X00798332D01*
X00799998Y00292669D01*
Y00296002D01*
X00798332Y00297668D01*
X00791668D01*
X00799998Y00287671D02*
Y00284339D01*
Y00286005D01*
X00790002D01*
X00791668Y00287671D01*
X00752327Y00384002D02*
Y00393998D01*
X00747329D01*
X00745663Y00392332D01*
Y00389000D01*
X00747329Y00387334D01*
X00752327D01*
X00748995D02*
X00745663Y00384002D01*
X00742331Y00393998D02*
X00735666D01*
Y00392332D01*
X00742331Y00385668D01*
Y00384002D01*
X00732334Y00392332D02*
X00730668Y00393998D01*
X00727336D01*
X00725669Y00392332D01*
Y00385668D01*
X00727336Y00384002D01*
X00730668D01*
X00732334Y00385668D01*
Y00392332D01*
X00715673Y00393998D02*
X00722337D01*
Y00389000D01*
X00719005Y00390666D01*
X00717339D01*
X00715673Y00389000D01*
Y00385668D01*
X00717339Y00384002D01*
X00720671D01*
X00722337Y00385668D01*
X00743077Y00248002D02*
Y00257998D01*
X00738079D01*
X00736413Y00256332D01*
Y00253000D01*
X00738079Y00251334D01*
X00743077D01*
X00739745D02*
X00736413Y00248002D01*
X00733081Y00257998D02*
X00726416D01*
Y00256332D01*
X00733081Y00249668D01*
Y00248002D01*
X00723084Y00256332D02*
X00721418Y00257998D01*
X00718085D01*
X00716419Y00256332D01*
Y00249668D01*
X00718085Y00248002D01*
X00721418D01*
X00723084Y00249668D01*
Y00256332D01*
X00706423Y00257998D02*
X00709755Y00256332D01*
X00713087Y00253000D01*
Y00249668D01*
X00711421Y00248002D01*
X00708089D01*
X00706423Y00249668D01*
Y00251334D01*
X00708089Y00253000D01*
X00713087D01*
X00765327Y00234002D02*
Y00243998D01*
X00760329D01*
X00758663Y00242332D01*
Y00239000D01*
X00760329Y00237334D01*
X00765327D01*
X00761995D02*
X00758663Y00234002D01*
X00755331Y00243998D02*
X00748666D01*
Y00242332D01*
X00755331Y00235668D01*
Y00234002D01*
X00745334Y00242332D02*
X00743668Y00243998D01*
X00740335D01*
X00738669Y00242332D01*
Y00235668D01*
X00740335Y00234002D01*
X00743668D01*
X00745334Y00235668D01*
Y00242332D01*
X00730339Y00234002D02*
Y00243998D01*
X00735337Y00239000D01*
X00728673D01*
X00785998Y00310327D02*
X00776002D01*
Y00305329D01*
X00777668Y00303663D01*
X00781000D01*
X00782666Y00305329D01*
Y00310327D01*
Y00306995D02*
X00785998Y00303663D01*
X00776002Y00300331D02*
Y00293666D01*
X00777668D01*
X00784332Y00300331D01*
X00785998D01*
X00777668Y00290334D02*
X00776002Y00288668D01*
Y00285336D01*
X00777668Y00283669D01*
X00784332D01*
X00785998Y00285336D01*
Y00288668D01*
X00784332Y00290334D01*
X00777668D01*
Y00280337D02*
X00776002Y00278671D01*
Y00275339D01*
X00777668Y00273673D01*
X00779334D01*
X00781000Y00275339D01*
Y00277005D01*
Y00275339D01*
X00782666Y00273673D01*
X00784332D01*
X00785998Y00275339D01*
Y00278671D01*
X00784332Y00280337D01*
X00595661Y00549002D02*
Y00558998D01*
X00590663D01*
X00588997Y00557332D01*
Y00554000D01*
X00590663Y00552334D01*
X00595661D01*
X00592329D02*
X00588997Y00549002D01*
X00579000Y00558998D02*
X00582332Y00557332D01*
X00585664Y00554000D01*
Y00550668D01*
X00583998Y00549002D01*
X00580666D01*
X00579000Y00550668D01*
Y00552334D01*
X00580666Y00554000D01*
X00585664D01*
X00575668Y00549002D02*
X00572336D01*
X00574002D01*
Y00558998D01*
X00575668Y00557332D01*
X00567337D02*
X00565671Y00558998D01*
X00562339D01*
X00560673Y00557332D01*
Y00550668D01*
X00562339Y00549002D01*
X00565671D01*
X00567337Y00550668D01*
Y00557332D01*
X00595661Y00505002D02*
Y00514998D01*
X00590663D01*
X00588997Y00513332D01*
Y00510000D01*
X00590663Y00508334D01*
X00595661D01*
X00592329D02*
X00588997Y00505002D01*
X00579000Y00514998D02*
X00582332Y00513332D01*
X00585664Y00510000D01*
Y00506668D01*
X00583998Y00505002D01*
X00580666D01*
X00579000Y00506668D01*
Y00508334D01*
X00580666Y00510000D01*
X00585664D01*
X00575668Y00513332D02*
X00574002Y00514998D01*
X00570669D01*
X00569003Y00513332D01*
Y00506668D01*
X00570669Y00505002D01*
X00574002D01*
X00575668Y00506668D01*
Y00513332D01*
X00565671Y00506668D02*
X00564005Y00505002D01*
X00560673D01*
X00559007Y00506668D01*
Y00513332D01*
X00560673Y00514998D01*
X00564005D01*
X00565671Y00513332D01*
Y00511666D01*
X00564005Y00510000D01*
X00559007D01*
X00383000Y00505002D02*
Y00514998D01*
X00378002D01*
X00376335Y00513332D01*
Y00510000D01*
X00378002Y00508334D01*
X00383000D01*
X00379668D02*
X00376335Y00505002D01*
X00366339Y00514998D02*
X00369671Y00513332D01*
X00373003Y00510000D01*
Y00506668D01*
X00371337Y00505002D01*
X00368005D01*
X00366339Y00506668D01*
Y00508334D01*
X00368005Y00510000D01*
X00373003D01*
X00363006Y00513332D02*
X00361340Y00514998D01*
X00358008D01*
X00356342Y00513332D01*
Y00506668D01*
X00358008Y00505002D01*
X00361340D01*
X00363006Y00506668D01*
Y00513332D01*
X00353010D02*
X00351343Y00514998D01*
X00348011D01*
X00346345Y00513332D01*
Y00511666D01*
X00348011Y00510000D01*
X00346345Y00508334D01*
Y00506668D01*
X00348011Y00505002D01*
X00351343D01*
X00353010Y00506668D01*
Y00508334D01*
X00351343Y00510000D01*
X00353010Y00511666D01*
Y00513332D01*
X00351343Y00510000D02*
X00348011D01*
X00383000Y00549002D02*
Y00558998D01*
X00378002D01*
X00376335Y00557332D01*
Y00554000D01*
X00378002Y00552334D01*
X00383000D01*
X00379668D02*
X00376335Y00549002D01*
X00366339Y00558998D02*
X00369671Y00557332D01*
X00373003Y00554000D01*
Y00550668D01*
X00371337Y00549002D01*
X00368005D01*
X00366339Y00550668D01*
Y00552334D01*
X00368005Y00554000D01*
X00373003D01*
X00363006Y00557332D02*
X00361340Y00558998D01*
X00358008D01*
X00356342Y00557332D01*
Y00550668D01*
X00358008Y00549002D01*
X00361340D01*
X00363006Y00550668D01*
Y00557332D01*
X00353010Y00558998D02*
X00346345D01*
Y00557332D01*
X00353010Y00550668D01*
Y00549002D01*
X00383000Y00563002D02*
Y00572998D01*
X00378002D01*
X00376335Y00571332D01*
Y00568000D01*
X00378002Y00566334D01*
X00383000D01*
X00379668D02*
X00376335Y00563002D01*
X00366339Y00572998D02*
X00369671Y00571332D01*
X00373003Y00568000D01*
Y00564668D01*
X00371337Y00563002D01*
X00368005D01*
X00366339Y00564668D01*
Y00566334D01*
X00368005Y00568000D01*
X00373003D01*
X00363006Y00571332D02*
X00361340Y00572998D01*
X00358008D01*
X00356342Y00571332D01*
Y00564668D01*
X00358008Y00563002D01*
X00361340D01*
X00363006Y00564668D01*
Y00571332D01*
X00346345Y00572998D02*
X00353010D01*
Y00568000D01*
X00349677Y00569666D01*
X00348011D01*
X00346345Y00568000D01*
Y00564668D01*
X00348011Y00563002D01*
X00351343D01*
X00353010Y00564668D01*
X00383000Y00519002D02*
Y00528998D01*
X00378002D01*
X00376335Y00527332D01*
Y00524000D01*
X00378002Y00522334D01*
X00383000D01*
X00379668D02*
X00376335Y00519002D01*
X00366339Y00528998D02*
X00369671Y00527332D01*
X00373003Y00524000D01*
Y00520668D01*
X00371337Y00519002D01*
X00368005D01*
X00366339Y00520668D01*
Y00522334D01*
X00368005Y00524000D01*
X00373003D01*
X00363006Y00527332D02*
X00361340Y00528998D01*
X00358008D01*
X00356342Y00527332D01*
Y00520668D01*
X00358008Y00519002D01*
X00361340D01*
X00363006Y00520668D01*
Y00527332D01*
X00348011Y00519002D02*
Y00528998D01*
X00353010Y00524000D01*
X00346345D01*
X00595661Y00533002D02*
Y00542998D01*
X00590663D01*
X00588997Y00541332D01*
Y00538000D01*
X00590663Y00536334D01*
X00595661D01*
X00592329D02*
X00588997Y00533002D01*
X00579000Y00542998D02*
X00582332Y00541332D01*
X00585664Y00538000D01*
Y00534668D01*
X00583998Y00533002D01*
X00580666D01*
X00579000Y00534668D01*
Y00536334D01*
X00580666Y00538000D01*
X00585664D01*
X00575668Y00541332D02*
X00574002Y00542998D01*
X00570669D01*
X00569003Y00541332D01*
Y00534668D01*
X00570669Y00533002D01*
X00574002D01*
X00575668Y00534668D01*
Y00541332D01*
X00565671D02*
X00564005Y00542998D01*
X00560673D01*
X00559007Y00541332D01*
Y00539666D01*
X00560673Y00538000D01*
X00562339D01*
X00560673D01*
X00559007Y00536334D01*
Y00534668D01*
X00560673Y00533002D01*
X00564005D01*
X00565671Y00534668D01*
X00595661Y00563002D02*
Y00572998D01*
X00590663D01*
X00588997Y00571332D01*
Y00568000D01*
X00590663Y00566334D01*
X00595661D01*
X00592329D02*
X00588997Y00563002D01*
X00579000Y00572998D02*
X00582332Y00571332D01*
X00585664Y00568000D01*
Y00564668D01*
X00583998Y00563002D01*
X00580666D01*
X00579000Y00564668D01*
Y00566334D01*
X00580666Y00568000D01*
X00585664D01*
X00575668Y00571332D02*
X00574002Y00572998D01*
X00570669D01*
X00569003Y00571332D01*
Y00564668D01*
X00570669Y00563002D01*
X00574002D01*
X00575668Y00564668D01*
Y00571332D01*
X00559007Y00563002D02*
X00565671D01*
X00559007Y00569666D01*
Y00571332D01*
X00560673Y00572998D01*
X00564005D01*
X00565671Y00571332D01*
X00210329Y00187327D02*
X00200332D01*
Y00182329D01*
X00201998Y00180663D01*
X00205330D01*
X00206996Y00182329D01*
Y00187327D01*
Y00183995D02*
X00210329Y00180663D01*
X00200332Y00170666D02*
Y00177331D01*
X00205330D01*
X00203664Y00173998D01*
Y00172332D01*
X00205330Y00170666D01*
X00208663D01*
X00210329Y00172332D01*
Y00175665D01*
X00208663Y00177331D01*
X00201998Y00167334D02*
X00200332Y00165668D01*
Y00162335D01*
X00201998Y00160669D01*
X00208663D01*
X00210329Y00162335D01*
Y00165668D01*
X00208663Y00167334D01*
X00201998D01*
Y00157337D02*
X00200332Y00155671D01*
Y00152339D01*
X00201998Y00150673D01*
X00203664D01*
X00205330Y00152339D01*
X00206996Y00150673D01*
X00208663D01*
X00210329Y00152339D01*
Y00155671D01*
X00208663Y00157337D01*
X00206996D01*
X00205330Y00155671D01*
X00203664Y00157337D01*
X00201998D01*
X00205330Y00155671D02*
Y00152339D01*
X00317327Y00244002D02*
Y00253999D01*
X00312329D01*
X00310663Y00252332D01*
Y00249000D01*
X00312329Y00247334D01*
X00317327D01*
X00313995D02*
X00310663Y00244002D01*
X00300666Y00253999D02*
X00307331D01*
Y00249000D01*
X00303998Y00250666D01*
X00302332D01*
X00300666Y00249000D01*
Y00245668D01*
X00302332Y00244002D01*
X00305665D01*
X00307331Y00245668D01*
X00297334Y00252332D02*
X00295668Y00253999D01*
X00292335D01*
X00290669Y00252332D01*
Y00245668D01*
X00292335Y00244002D01*
X00295668D01*
X00297334Y00245668D01*
Y00252332D01*
X00287337Y00253999D02*
X00280673D01*
Y00252332D01*
X00287337Y00245668D01*
Y00244002D01*
X00352655Y00152002D02*
Y00161998D01*
X00347657D01*
X00345990Y00160332D01*
Y00157000D01*
X00347657Y00155334D01*
X00352655D01*
X00349323D02*
X00345990Y00152002D01*
X00335994Y00161998D02*
X00342658D01*
Y00157000D01*
X00339326Y00158666D01*
X00337660D01*
X00335994Y00157000D01*
Y00153668D01*
X00337660Y00152002D01*
X00340992D01*
X00342658Y00153668D01*
X00332661Y00160332D02*
X00330995Y00161998D01*
X00327663D01*
X00325997Y00160332D01*
Y00153668D01*
X00327663Y00152002D01*
X00330995D01*
X00332661Y00153668D01*
Y00160332D01*
X00316000Y00161998D02*
X00319332Y00160332D01*
X00322664Y00157000D01*
Y00153668D01*
X00320998Y00152002D01*
X00317666D01*
X00316000Y00153668D01*
Y00155334D01*
X00317666Y00157000D01*
X00322664D01*
X00276327Y00244002D02*
Y00253999D01*
X00271329D01*
X00269663Y00252332D01*
Y00249000D01*
X00271329Y00247334D01*
X00276327D01*
X00272995D02*
X00269663Y00244002D01*
X00259666Y00253999D02*
X00266331D01*
Y00249000D01*
X00262998Y00250666D01*
X00261332D01*
X00259666Y00249000D01*
Y00245668D01*
X00261332Y00244002D01*
X00264664D01*
X00266331Y00245668D01*
X00256334Y00252332D02*
X00254668Y00253999D01*
X00251336D01*
X00249669Y00252332D01*
Y00245668D01*
X00251336Y00244002D01*
X00254668D01*
X00256334Y00245668D01*
Y00252332D01*
X00239673Y00253999D02*
X00246337D01*
Y00249000D01*
X00243005Y00250666D01*
X00241339D01*
X00239673Y00249000D01*
Y00245668D01*
X00241339Y00244002D01*
X00244671D01*
X00246337Y00245668D01*
X00383000Y00533002D02*
Y00542998D01*
X00378002D01*
X00376335Y00541332D01*
Y00538000D01*
X00378002Y00536334D01*
X00383000D01*
X00379668D02*
X00376335Y00533002D01*
X00373003Y00541332D02*
X00371337Y00542998D01*
X00368005D01*
X00366339Y00541332D01*
Y00539666D01*
X00368005Y00538000D01*
X00369671D01*
X00368005D01*
X00366339Y00536334D01*
Y00534668D01*
X00368005Y00533002D01*
X00371337D01*
X00373003Y00534668D01*
X00363006Y00541332D02*
X00361340Y00542998D01*
X00358008D01*
X00356342Y00541332D01*
Y00534668D01*
X00358008Y00533002D01*
X00361340D01*
X00363006Y00534668D01*
Y00541332D01*
X00346345Y00542998D02*
X00353010D01*
Y00538000D01*
X00349677Y00539666D01*
X00348011D01*
X00346345Y00538000D01*
Y00534668D01*
X00348011Y00533002D01*
X00351343D01*
X00353010Y00534668D01*
X00595661Y00519002D02*
Y00528998D01*
X00590663D01*
X00588997Y00527332D01*
Y00524000D01*
X00590663Y00522334D01*
X00595661D01*
X00592329D02*
X00588997Y00519002D01*
X00585664Y00527332D02*
X00583998Y00528998D01*
X00580666D01*
X00579000Y00527332D01*
Y00525666D01*
X00580666Y00524000D01*
X00582332D01*
X00580666D01*
X00579000Y00522334D01*
Y00520668D01*
X00580666Y00519002D01*
X00583998D01*
X00585664Y00520668D01*
X00575668Y00527332D02*
X00574002Y00528998D01*
X00570669D01*
X00569003Y00527332D01*
Y00520668D01*
X00570669Y00519002D01*
X00574002D01*
X00575668Y00520668D01*
Y00527332D01*
X00565671Y00528998D02*
X00559007D01*
Y00527332D01*
X00565671Y00520668D01*
Y00519002D01*
X00595661Y00577002D02*
Y00586998D01*
X00590663D01*
X00588997Y00585332D01*
Y00582000D01*
X00590663Y00580334D01*
X00595661D01*
X00592329D02*
X00588997Y00577002D01*
X00585664Y00585332D02*
X00583998Y00586998D01*
X00580666D01*
X00579000Y00585332D01*
Y00583666D01*
X00580666Y00582000D01*
X00582332D01*
X00580666D01*
X00579000Y00580334D01*
Y00578668D01*
X00580666Y00577002D01*
X00583998D01*
X00585664Y00578668D01*
X00575668Y00585332D02*
X00574002Y00586998D01*
X00570669D01*
X00569003Y00585332D01*
Y00578668D01*
X00570669Y00577002D01*
X00574002D01*
X00575668Y00578668D01*
Y00585332D01*
X00565671D02*
X00564005Y00586998D01*
X00560673D01*
X00559007Y00585332D01*
Y00583666D01*
X00560673Y00582000D01*
X00562339D01*
X00560673D01*
X00559007Y00580334D01*
Y00578668D01*
X00560673Y00577002D01*
X00564005D01*
X00565671Y00578668D01*
X00416000Y00022002D02*
Y00031998D01*
X00411002D01*
X00409336Y00030332D01*
Y00027000D01*
X00411002Y00025334D01*
X00416000D01*
X00412668D02*
X00409336Y00022002D01*
X00399339D02*
X00406003D01*
X00399339Y00028666D01*
Y00030332D01*
X00401005Y00031998D01*
X00404337D01*
X00406003Y00030332D01*
X00396006D02*
X00394340Y00031998D01*
X00391008D01*
X00389342Y00030332D01*
Y00023668D01*
X00391008Y00022002D01*
X00394340D01*
X00396006Y00023668D01*
Y00030332D01*
X00386010D02*
X00384343Y00031998D01*
X00381011D01*
X00379345Y00030332D01*
Y00028666D01*
X00381011Y00027000D01*
X00379345Y00025334D01*
Y00023668D01*
X00381011Y00022002D01*
X00384343D01*
X00386010Y00023668D01*
Y00025334D01*
X00384343Y00027000D01*
X00386010Y00028666D01*
Y00030332D01*
X00384343Y00027000D02*
X00381011D01*
X00543000Y00022002D02*
Y00031998D01*
X00538002D01*
X00536335Y00030332D01*
Y00027000D01*
X00538002Y00025334D01*
X00543000D01*
X00539668D02*
X00536335Y00022002D01*
X00526339D02*
X00533003D01*
X00526339Y00028666D01*
Y00030332D01*
X00528005Y00031998D01*
X00531337D01*
X00533003Y00030332D01*
X00523006D02*
X00521340Y00031998D01*
X00518008D01*
X00516342Y00030332D01*
Y00023668D01*
X00518008Y00022002D01*
X00521340D01*
X00523006Y00023668D01*
Y00030332D01*
X00513010Y00031998D02*
X00506345D01*
Y00030332D01*
X00513010Y00023668D01*
Y00022002D01*
X00460655D02*
Y00031998D01*
X00455656D01*
X00453990Y00030332D01*
Y00027000D01*
X00455656Y00025334D01*
X00460655D01*
X00457323D02*
X00453990Y00022002D01*
X00443993D02*
X00450658D01*
X00443993Y00028666D01*
Y00030332D01*
X00445660Y00031998D01*
X00448992D01*
X00450658Y00030332D01*
X00440661D02*
X00438995Y00031998D01*
X00435663D01*
X00433997Y00030332D01*
Y00023668D01*
X00435663Y00022002D01*
X00438995D01*
X00440661Y00023668D01*
Y00030332D01*
X00424000Y00031998D02*
X00427332Y00030332D01*
X00430664Y00027000D01*
Y00023668D01*
X00428998Y00022002D01*
X00425666D01*
X00424000Y00023668D01*
Y00025334D01*
X00425666Y00027000D01*
X00430664D01*
X00587655Y00022002D02*
Y00031998D01*
X00582656D01*
X00580990Y00030332D01*
Y00027000D01*
X00582656Y00025334D01*
X00587655D01*
X00584323D02*
X00580990Y00022002D01*
X00570993D02*
X00577658D01*
X00570993Y00028666D01*
Y00030332D01*
X00572660Y00031998D01*
X00575992D01*
X00577658Y00030332D01*
X00567661D02*
X00565995Y00031998D01*
X00562663D01*
X00560997Y00030332D01*
Y00023668D01*
X00562663Y00022002D01*
X00565995D01*
X00567661Y00023668D01*
Y00030332D01*
X00551000Y00031998D02*
X00557664D01*
Y00027000D01*
X00554332Y00028666D01*
X00552666D01*
X00551000Y00027000D01*
Y00023668D01*
X00552666Y00022002D01*
X00555998D01*
X00557664Y00023668D01*
X00746000Y00022002D02*
Y00031998D01*
X00741002D01*
X00739335Y00030332D01*
Y00027000D01*
X00741002Y00025334D01*
X00746000D01*
X00742668D02*
X00739335Y00022002D01*
X00729339D02*
X00736003D01*
X00729339Y00028666D01*
Y00030332D01*
X00731005Y00031998D01*
X00734337D01*
X00736003Y00030332D01*
X00726006D02*
X00724340Y00031998D01*
X00721008D01*
X00719342Y00030332D01*
Y00023668D01*
X00721008Y00022002D01*
X00724340D01*
X00726006Y00023668D01*
Y00030332D01*
X00711011Y00022002D02*
Y00031998D01*
X00716010Y00027000D01*
X00709345D01*
X00787323Y00022002D02*
Y00031998D01*
X00782324D01*
X00780658Y00030332D01*
Y00027000D01*
X00782324Y00025334D01*
X00787323D01*
X00783990D02*
X00780658Y00022002D01*
X00770661D02*
X00777326D01*
X00770661Y00028666D01*
Y00030332D01*
X00772327Y00031998D01*
X00775660D01*
X00777326Y00030332D01*
X00767329D02*
X00765663Y00031998D01*
X00762331D01*
X00760665Y00030332D01*
Y00023668D01*
X00762331Y00022002D01*
X00765663D01*
X00767329Y00023668D01*
Y00030332D01*
X00757332Y00022002D02*
X00754000D01*
X00755666D01*
Y00031998D01*
X00757332Y00030332D01*
X00475002Y00499189D02*
X00484998D01*
Y00492525D01*
X00475002Y00482528D02*
Y00489193D01*
X00484998D01*
Y00482528D01*
X00480000Y00489193D02*
Y00485860D01*
X00475002Y00479196D02*
X00484998D01*
Y00474197D01*
X00483332Y00472531D01*
X00476668D01*
X00475002Y00474197D01*
Y00479196D01*
Y00462534D02*
X00476668Y00465867D01*
X00480000Y00469199D01*
X00483332D01*
X00484998Y00467533D01*
Y00464201D01*
X00483332Y00462534D01*
X00481666D01*
X00480000Y00464201D01*
Y00469199D01*
X00476668Y00459202D02*
X00475002Y00457536D01*
Y00454204D01*
X00476668Y00452538D01*
X00483332D01*
X00484998Y00454204D01*
Y00457536D01*
X00483332Y00459202D01*
X00476668D01*
X00484998Y00442541D02*
Y00449206D01*
X00478334Y00442541D01*
X00476668D01*
X00475002Y00444207D01*
Y00447539D01*
X00476668Y00449206D01*
X00492002Y00465000D02*
X00501998D01*
Y00458335D01*
X00492002Y00448339D02*
Y00455003D01*
X00501998D01*
Y00448339D01*
X00497000Y00455003D02*
Y00451671D01*
X00492002Y00445006D02*
X00501998D01*
Y00440008D01*
X00500332Y00438342D01*
X00493668D01*
X00492002Y00440008D01*
Y00445006D01*
Y00428345D02*
X00493668Y00431677D01*
X00497000Y00435010D01*
X00500332D01*
X00501998Y00433344D01*
Y00430011D01*
X00500332Y00428345D01*
X00498666D01*
X00497000Y00430011D01*
Y00435010D01*
X00493668Y00425013D02*
X00492002Y00423347D01*
Y00420014D01*
X00493668Y00418348D01*
X00500332D01*
X00501998Y00420014D01*
Y00423347D01*
X00500332Y00425013D01*
X00493668D01*
X00501998Y00415016D02*
Y00411684D01*
Y00413350D01*
X00492002D01*
X00493668Y00415016D01*
X00440002Y00465000D02*
X00449998D01*
Y00458335D01*
X00440002Y00448339D02*
Y00455003D01*
X00449998D01*
Y00448339D01*
X00445000Y00455003D02*
Y00451671D01*
X00440002Y00445006D02*
X00449998D01*
Y00440008D01*
X00448332Y00438342D01*
X00441668D01*
X00440002Y00440008D01*
Y00445006D01*
Y00428345D02*
X00441668Y00431677D01*
X00445000Y00435010D01*
X00448332D01*
X00449998Y00433344D01*
Y00430011D01*
X00448332Y00428345D01*
X00446666D01*
X00445000Y00430011D01*
Y00435010D01*
X00441668Y00425013D02*
X00440002Y00423347D01*
Y00420014D01*
X00441668Y00418348D01*
X00448332D01*
X00449998Y00420014D01*
Y00423347D01*
X00448332Y00425013D01*
X00441668D01*
X00449998Y00410018D02*
X00440002D01*
X00445000Y00415016D01*
Y00408352D01*
X00455002Y00499189D02*
X00464998D01*
Y00492525D01*
X00455002Y00482528D02*
Y00489193D01*
X00464998D01*
Y00482528D01*
X00460000Y00489193D02*
Y00485860D01*
X00455002Y00479196D02*
X00464998D01*
Y00474197D01*
X00463332Y00472531D01*
X00456668D01*
X00455002Y00474197D01*
Y00479196D01*
Y00462534D02*
X00456668Y00465867D01*
X00460000Y00469199D01*
X00463332D01*
X00464998Y00467533D01*
Y00464201D01*
X00463332Y00462534D01*
X00461666D01*
X00460000Y00464201D01*
Y00469199D01*
X00456668Y00459202D02*
X00455002Y00457536D01*
Y00454204D01*
X00456668Y00452538D01*
X00463332D01*
X00464998Y00454204D01*
Y00457536D01*
X00463332Y00459202D01*
X00456668D01*
Y00449206D02*
X00455002Y00447539D01*
Y00444207D01*
X00456668Y00442541D01*
X00458334D01*
X00460000Y00444207D01*
Y00445873D01*
Y00444207D01*
X00461666Y00442541D01*
X00463332D01*
X00464998Y00444207D01*
Y00447539D01*
X00463332Y00449206D01*
X00797668Y00351663D02*
X00796002Y00353329D01*
Y00356661D01*
X00797668Y00358327D01*
X00804332D01*
X00805998Y00356661D01*
Y00353329D01*
X00804332Y00351663D01*
X00796002Y00348331D02*
Y00341666D01*
X00797668D01*
X00804332Y00348331D01*
X00805998D01*
X00797668Y00338334D02*
X00796002Y00336668D01*
Y00333335D01*
X00797668Y00331669D01*
X00804332D01*
X00805998Y00333335D01*
Y00336668D01*
X00804332Y00338334D01*
X00797668D01*
X00805998Y00321673D02*
Y00328337D01*
X00799334Y00321673D01*
X00797668D01*
X00796002Y00323339D01*
Y00326671D01*
X00797668Y00328337D01*
X00595661Y00491002D02*
Y00500998D01*
X00590663D01*
X00588997Y00499332D01*
Y00496000D01*
X00590663Y00494334D01*
X00595661D01*
X00592329D02*
X00588997Y00491002D01*
X00579000Y00500998D02*
X00582332Y00499332D01*
X00585664Y00496000D01*
Y00492668D01*
X00583998Y00491002D01*
X00580666D01*
X00579000Y00492668D01*
Y00494334D01*
X00580666Y00496000D01*
X00585664D01*
X00575668Y00499332D02*
X00574002Y00500998D01*
X00570669D01*
X00569003Y00499332D01*
Y00492668D01*
X00570669Y00491002D01*
X00574002D01*
X00575668Y00492668D01*
Y00499332D01*
X00565671Y00491002D02*
X00562339D01*
X00564005D01*
Y00500998D01*
X00565671Y00499332D01*
X00365002Y00646527D02*
Y00653192D01*
X00374998D01*
Y00646527D01*
X00370000Y00653192D02*
Y00649860D01*
X00365002Y00636531D02*
X00366668Y00639863D01*
X00370000Y00643195D01*
X00373332D01*
X00374998Y00641529D01*
Y00638197D01*
X00373332Y00636531D01*
X00371666D01*
X00370000Y00638197D01*
Y00643195D01*
X00366668Y00633198D02*
X00365002Y00631532D01*
Y00628200D01*
X00366668Y00626534D01*
X00373332D01*
X00374998Y00628200D01*
Y00631532D01*
X00373332Y00633198D01*
X00366668D01*
X00374998Y00623201D02*
Y00619869D01*
Y00621535D01*
X00365002D01*
X00366668Y00623201D01*
X00336668Y00646527D02*
X00335002Y00648194D01*
Y00651526D01*
X00336668Y00653192D01*
X00343332D01*
X00344998Y00651526D01*
Y00648194D01*
X00343332Y00646527D01*
X00335002Y00636531D02*
X00336668Y00639863D01*
X00340000Y00643195D01*
X00343332D01*
X00344998Y00641529D01*
Y00638197D01*
X00343332Y00636531D01*
X00341666D01*
X00340000Y00638197D01*
Y00643195D01*
X00336668Y00633198D02*
X00335002Y00631532D01*
Y00628200D01*
X00336668Y00626534D01*
X00343332D01*
X00344998Y00628200D01*
Y00631532D01*
X00343332Y00633198D01*
X00336668D01*
X00344998Y00618203D02*
X00335002D01*
X00340000Y00623202D01*
Y00616537D01*
X00321668Y00646336D02*
X00320002Y00648002D01*
Y00651334D01*
X00321668Y00653000D01*
X00328332D01*
X00329998Y00651334D01*
Y00648002D01*
X00328332Y00646336D01*
X00320002Y00636339D02*
X00321668Y00639671D01*
X00325000Y00643003D01*
X00328332D01*
X00329998Y00641337D01*
Y00638005D01*
X00328332Y00636339D01*
X00326666D01*
X00325000Y00638005D01*
Y00643003D01*
X00321668Y00633007D02*
X00320002Y00631340D01*
Y00628008D01*
X00321668Y00626342D01*
X00328332D01*
X00329998Y00628008D01*
Y00631340D01*
X00328332Y00633007D01*
X00321668D01*
Y00623010D02*
X00320002Y00621343D01*
Y00618011D01*
X00321668Y00616345D01*
X00323334D01*
X00325000Y00618011D01*
Y00619677D01*
Y00618011D01*
X00326666Y00616345D01*
X00328332D01*
X00329998Y00618011D01*
Y00621343D01*
X00328332Y00623010D01*
X00351668Y00646527D02*
X00350002Y00648194D01*
Y00651526D01*
X00351668Y00653192D01*
X00358332D01*
X00359998Y00651526D01*
Y00648194D01*
X00358332Y00646527D01*
X00350002Y00636531D02*
X00351668Y00639863D01*
X00355000Y00643195D01*
X00358332D01*
X00359998Y00641529D01*
Y00638197D01*
X00358332Y00636531D01*
X00356666D01*
X00355000Y00638197D01*
Y00643195D01*
X00351668Y00633198D02*
X00350002Y00631532D01*
Y00628200D01*
X00351668Y00626534D01*
X00358332D01*
X00359998Y00628200D01*
Y00631532D01*
X00358332Y00633198D01*
X00351668D01*
X00359998Y00616537D02*
Y00623202D01*
X00353334Y00616537D01*
X00351668D01*
X00350002Y00618203D01*
Y00621535D01*
X00351668Y00623202D01*
X00381668Y00646527D02*
X00380002Y00648194D01*
Y00651526D01*
X00381668Y00653192D01*
X00388332D01*
X00389998Y00651526D01*
Y00648194D01*
X00388332Y00646527D01*
X00380002Y00636531D02*
X00381668Y00639863D01*
X00385000Y00643195D01*
X00388332D01*
X00389998Y00641529D01*
Y00638197D01*
X00388332Y00636531D01*
X00386666D01*
X00385000Y00638197D01*
Y00643195D01*
X00381668Y00633198D02*
X00380002Y00631532D01*
Y00628200D01*
X00381668Y00626534D01*
X00388332D01*
X00389998Y00628200D01*
Y00631532D01*
X00388332Y00633198D01*
X00381668D01*
X00389998Y00623201D02*
Y00619869D01*
Y00621535D01*
X00380002D01*
X00381668Y00623201D01*
D13*
X00318460Y00203540D02*
Y00206079D01*
X00315921D01*
Y00203540D01*
X00318460D01*
X00453460Y00186460D02*
X00450921D01*
Y00183921D01*
X00453460D01*
Y00186460D01*
X00402540Y00231460D02*
Y00228921D01*
X00405079D01*
Y00231460D01*
X00402540D01*
X00778540Y00320540D02*
X00781079D01*
Y00323079D01*
X00778540D01*
Y00320540D01*
M02*
