M48
;Layer_Color=9474304
;FILE_FORMAT=4:4
METRIC
;TYPE=PLATED
T1F00S00C0.3000
T2F00S00C1.0000
T3F00S00C1.9000
%
T01
X00011000Y00022000
X00026000Y00052000
X00056000
X00086000
X00116000
X00146000
X00176000
X00206000
X00236000
X00266000
X00254000Y00068000
Y00093000
Y00118000
X00280000
X00279400Y00093000
X00280000Y00068000
X00281000Y00022000
X00251000
X00221000
X00191000
X00161000
X00131000
Y00082000
X00152400Y00093000
X00177800
X00203200
X00228600
X00116000Y00112000
X00071000Y00082000
Y00022000
X00011000Y00082000
X00026000Y00112000
X00306000Y00118000
X00304800Y00093000
X00330200
X00326000Y00052000
X00356000
X00387000Y00059000
X00403000Y00045000
X00401000Y00022000
X00431000
X00461000
X00491000
X00521000
X00551000
X00581000
X00611000
X00641000
X00671000
X00686000Y00052000
X00656000
X00626000
X00596000
X00609600Y00093000
X00635000
X00660400
X00685800
X00508000
X00482600
X00476000Y00052000
X00514000Y00059000
X00530000Y00045000
X00371000Y00022000
X00341000
X00311000
X00296000Y00052000
X00306000Y00068000
X00381000Y00093000
X00711200
X00717000Y00059000
X00732000Y00045000
X00731000Y00022000
X00761000
X00791000
Y00082000
X00836000Y00052000
X00866000
X00896000
X00926000
Y00112000
X00701000Y00022000
Y00202000
X00731000
X00761000
X00791000
X00798000Y00187000
Y00159000
X00851000Y00142000
X00881000
X00896000Y00172000
X00881000Y00202000
X00896000Y00232000
X00881000Y00262000
X00896000Y00292000
X00881000Y00322000
X00896000Y00352000
X00881000Y00382000
X00897000Y00408000
X00908000Y00433000
X00869000
X00839000Y00432000
Y00402000
Y00372000
Y00342000
X00807000
X00789000Y00352000
X00791000Y00368000
Y00382000
X00807000Y00372000
Y00402000
Y00432000
X00791000Y00442000
X00807000Y00462000
Y00492000
X00791000Y00502000
X00776000Y00472000
X00746000
X00716000
X00731000Y00502000
X00701000
Y00442000
X00731000
X00746000Y00412000
X00776000
X00716000
X00717000Y00383000
X00701000Y00382000
X00701000Y00362000
X00714000Y00313000
X00701000Y00294000
X00704000Y00283000
X00712000Y00269000
X00701000Y00262000
X00722000Y00259000
X00716000Y00232000
X00746000
X00776000
X00807000Y00222000
Y00252000
X00791000Y00262000
X00807000Y00282000
Y00312000
X00756000Y00320000
Y00336000
X00733000Y00328000
X00839000Y00282000
Y00462000
Y00492000
X00869000Y00481000
X00877000Y00496000
X00900000
X00908000Y00481000
X00926000Y00472000
X00641000Y00502000
X00611000
X00581000
X00560000Y00480000
X00514000
X00498000Y00486000
X00470000Y00489000
X00446000Y00472000
X00416000
X00431000Y00442000
X00461000
X00491000
X00521000
X00538000Y00450000
X00551000Y00442000
X00581000
X00611000
X00626000Y00412000
X00611000Y00382000
X00581000
X00550000Y00378000
Y00388000
Y00398000
X00540000
X00530000
X00520000
X00510000
X00500000
X00490000
X00480000
X00470000
X00460000
X00450000
X00440000
X00430000
X00420000
X00410000
X00400000
X00390000
Y00388000
Y00378000
Y00368000
Y00358000
Y00348000
X00416000Y00352000
X00446000
X00437000Y00339000
Y00323000
X00409000
X00401000Y00322000
X00371000
X00341000
X00311000
X00326000Y00352000
X00356000
X00371000Y00382000
X00341000
X00311000
X00296000Y00412000
X00311000Y00442000
X00341000
X00371000
X00401000
X00356000Y00472000
X00326000
X00296000
X00311000Y00502000
X00341000
X00371000
X00434000Y00502000
X00522000Y00510000
X00550000Y00368000
Y00358000
Y00348000
X00536000Y00352000
X00566000
X00596000
X00611000Y00322000
X00581000
X00551000
X00563000Y00298000
X00596000Y00292000
X00577000Y00236000
X00563000Y00247000
X00569000Y00205000
X00538000
X00498000Y00198000
X00499000Y00214000
X00464000Y00215000
X00430000Y00204000
X00401000Y00202000
X00371000
X00334000Y00204000
Y00192000
Y00180000
X00318000Y00165000
X00303000Y00138000
X00341000Y00142000
X00371000
X00401000
X00412000Y00164000
X00386000Y00232000
X00356000
X00371000Y00262000
X00401000
X00386000Y00292000
X00356000
X00326000
X00296000
X00311000Y00262000
X00341000
X00461000
X00491000
X00476000Y00292000
X00491000Y00322000
X00503000Y00339000
X00506000Y00352000
X00470000Y00370000
X00296000Y00352000
X00531000Y00164000
X00566000Y00172000
X00641000Y00262000
X00251000
X00219000Y00257000
Y00269000
Y00281000
X00206000Y00292000
X00236000
X00266000
X00251000Y00322000
X00266000Y00352000
X00236000
X00206000
X00176000
X00146000
X00116000
X00086000
X00056000
X00026000
X00041000Y00382000
X00071000
X00101000
X00131000
X00161000
X00191000
X00206000Y00412000
X00236000
X00266000
X00281000Y00442000
X00251000
X00266000Y00472000
X00236000
X00206000
X00176000
X00146000
X00116000
X00086000
X00056000
X00026000
X00041000Y00502000
X00071000
X00101000
X00131000
X00161000
X00191000
X00251000
X00281000
X00251000Y00382000
X00176000Y00412000
X00146000
X00116000
X00086000
X00056000
X00026000
X00041000Y00442000
X00071000
X00101000
X00131000
X00161000
X00191000
Y00322000
X00161000
X00131000
X00101000
X00071000
X00041000
X00011000
X00026000Y00292000
X00056000
X00086000
X00116000
X00146000
X00176000
X00191000Y00262000
X00161000
X00131000
X00101000
X00071000
X00041000
X00011000
X00026000Y00232000
X00056000
X00086000
X00116000
X00146000
X00176000
X00206000
X00240000Y00228000
X00223000Y00204000
X00211000Y00191000
X00191000Y00202000
X00161000
X00131000
X00101000
X00071000
X00041000
X00011000
X00026000Y00172000
X00056000
X00086000
X00116000
X00146000
X00176000
X00168000Y00150000
X00190000
Y00128000
X00212000
X00234000
Y00150000
X00279000Y00139000
Y00183000
X00152444Y00134444
X00131000Y00142000
X00101000
X00071000
X00041000
X00011000
Y00382000
Y00442000
Y00502000
X00026000Y00532000
X00056000
X00086000
X00116000
X00146000
X00176000
X00206000
X00236000
X00266000
X00281000Y00562000
X00251000
X00266000Y00592000
X00236000
X00206000
X00176000
X00146000
X00116000
X00086000
X00056000
X00026000
X00041000Y00622000
X00071000
X00101000
X00131000
X00161000
X00191000
X00206000Y00652000
X00176000
X00146000
X00116000
X00086000
X00056000
X00026000
X00041000Y00682000
X00071000
X00101000
X00131000
X00161000
X00191000
X00221000
X00251000
X00266000Y00712000
X00236000
X00206000
X00176000
X00146000
X00116000
X00131000Y00742000
X00161000
X00191000
X00221000
X00251000
X00281000
X00266000Y00772000
X00236000
X00206000
X00176000
X00146000
X00116000
X00086000
X00056000
X00026000
X00011000Y00802000
X00071000
X00086000Y00832000
X00116000
X00146000
X00176000
X00206000
X00236000
X00266000
X00281000Y00862000
X00251000
X00221000
Y00802000
X00251000
X00281000
X00191000
X00161000
X00131000
X00071000Y00742000
X00011000
X00026000Y00712000
X00011000Y00682000
Y00622000
Y00562000
X00041000
X00071000
X00101000
X00131000
X00161000
X00191000
X00251000Y00622000
X00281000
X00311000
X00341000
X00371000
X00386000Y00652000
X00401000Y00657000
X00413000
X00425000
X00437000
X00476000Y00652000
X00472000Y00631000
X00463000Y00621000
Y00600000
X00416000Y00592000
X00417000Y00554000
X00371000Y00562000
X00341000
X00311000
X00326000Y00592000
X00356000
Y00652000
X00326000
X00296000
Y00712000
X00326000
X00356000
X00371000Y00742000
X00341000
X00311000
X00326000Y00772000
X00356000
X00371000Y00802000
X00341000
X00311000
X00326000Y00832000
X00356000
X00371000Y00862000
X00341000
X00311000
X00296000Y00832000
Y00772000
Y00592000
Y00532000
X00326000
X00356000
X00522000Y00554000
X00551000Y00562000
X00581000
X00611000
X00641000
X00656000Y00532000
X00686000
X00626000
X00596000
X00566000
Y00592000
X00581000Y00622000
X00611000
X00641000
X00656000Y00652000
X00626000
X00596000
X00566000
X00536000
X00506000
X00523000Y00598000
X00566000Y00712000
X00596000
X00626000
X00641000Y00742000
X00671000
X00686000Y00772000
X00656000
X00626000
X00596000
X00566000
X00581000Y00802000
X00611000
X00641000
X00671000
X00686000Y00832000
X00656000
X00626000
X00596000
X00566000
X00581000Y00862000
X00611000
X00641000
X00671000
X00611000Y00742000
X00581000
X00701000
X00731000
X00761000
X00791000
X00821000
X00812000Y00717000
X00798000
X00783000
X00776000Y00772000
X00806000
X00836000
X00866000
X00896000
X00926000
X00911000Y00742000
X00881000
X00866000Y00712000
X00926000
Y00652000
Y00592000
X00896000
X00908000Y00547000
Y00528000
X00926000Y00532000
X00866000
X00839000Y00522000
Y00552000
Y00583000
Y00612000
Y00642000
Y00672000
X00807000Y00642000
Y00612000
Y00583000
Y00552000
Y00522000
X00776000Y00532000
X00746000
X00716000
X00731000Y00562000
X00701000
X00716000Y00592000
X00746000
X00731000Y00622000
X00701000
X00716000Y00652000
X00746000
X00731000Y00682000
X00701000
X00716000Y00772000
X00746000
X00761000Y00802000
X00791000
X00806000Y00832000
X00836000
X00866000
X00851000Y00862000
X00821000
X00791000
X00761000
X00731000
X00701000
X00716000Y00832000
X00746000
X00776000
X00731000Y00802000
X00701000
T02
X00165200Y00080300
Y00105700
X00190600
X00216000
Y00080300
X00190600
X00241400
X00266800
Y00105700
X00292200
Y00080300
X00241400Y00105700
X00317600
Y00080300
X00343000
Y00105700
X00368400
Y00080300
X00393800
Y00105700
X00419200
Y00080300
X00444600
Y00105700
X00470000
Y00080300
X00495400
Y00105700
X00520800
Y00080300
X00546200
Y00105700
X00571600
Y00080300
X00597000
Y00105700
X00622400
Y00080300
X00647800
Y00105700
X00673200
Y00080300
X00698600
Y00105700
X00724000
Y00080300
X00749400
Y00105700
X00774800
Y00080300
X00856900Y00188700
Y00214100
X00856900Y00239500
X00856900Y00264900
Y00290300
Y00315700
Y00341100
Y00366500
X00856900Y00391900
X00856900Y00417300
Y00442700
X00856900Y00468100
X00856900Y00493500
X00679100Y00493500
Y00468100
Y00442700
X00679100Y00417300
X00679100Y00391900
Y00366500
X00679100Y00341100
X00679100Y00315700
X00679100Y00290300
X00679100Y00264900
Y00239500
Y00214100
X00679100Y00188700
X00538000Y00482500
Y00507900
X00402000
Y00482500
Y00533300
Y00558700
Y00584100
Y00609500
X00538000
Y00584100
Y00558700
Y00533300
X00679100Y00544300
X00679100Y00569700
X00679100Y00595100
Y00620500
X00679100Y00645900
X00679100Y00671300
X00679100Y00518900
X00856900
Y00544300
Y00569700
X00856900Y00595100
X00856900Y00620500
X00856900Y00645900
Y00671300
T03
X00046000Y00020500
X00096000
Y00095500
X00046000
X00844000
X00894000
Y00020500
X00844000
X00096000Y00724500
X00046000
Y00799500
X00096000
X00844000
X00894000
Y00724500
X00844000
M30
